<?xml version="1.0" encoding="utf-8"?>
<!-- Generator: Adobe Illustrator 27.2.0, SVG Export Plug-In . SVG Version: 6.00 Build 0)  -->
<svg version="1.1" id="레이어_1" xmlns="http://www.w3.org/2000/svg" xmlns:xlink="http://www.w3.org/1999/xlink" x="0px"
	 y="0px" viewBox="0 0 33.9 34" style="enable-background:new 0 0 33.9 34;" xml:space="preserve">
<style type="text/css">
	.st0{fill:#25F3CF;}
	.st1{fill:none;stroke:#121212;stroke-width:0.5;}
	.st2{fill:url(#SVGID_1_);}
	.st3{fill:#121212;}
	.st4{fill:#6201FF;stroke:#000000;stroke-width:0.5;stroke-linecap:round;stroke-linejoin:round;}
	.st5{fill:#FFFFFF;}
	.st6{fill:none;stroke:#121212;stroke-width:0.5;stroke-linecap:round;stroke-linejoin:round;}
</style>
<g>
	<g>
		<path class="st0" d="M16.9,1L16.9,1c8.8,0,16,7.2,16,16l0,0c0,8.8-7.2,16-16,16l0,0c-8.8,0-16-7.2-16-16l0,0C0.9,8.2,8.1,1,16.9,1
			z"/>
		<path class="st1" d="M16.9,1.3L16.9,1.3c8.7,0,15.7,7.1,15.7,15.8l0,0c0,8.7-7.1,15.8-15.7,15.8l0,0C8.2,32.8,1.2,25.7,1.2,17l0,0
			C1.2,8.3,8.2,1.3,16.9,1.3z"/>
	</g>
	
		<linearGradient id="SVGID_1_" gradientUnits="userSpaceOnUse" x1="15.427" y1="21.5971" x2="20.2107" y2="9.0365" gradientTransform="matrix(1 0 0 -1 0 35.89)">
		<stop  offset="0" style="stop-color:#11CFAE;stop-opacity:0.5"/>
		<stop  offset="1" style="stop-color:#11CFAE;stop-opacity:0"/>
	</linearGradient>
	<path class="st2" d="M29.5,20.1c0,3.7-5.2,9.3-8.9,9.3c-3.7,0-14-0.3-14-4s12.4-12.1,16.1-12.1C29.5,12.6,29.5,16.4,29.5,20.1z"/>
	<path class="st3" d="M8.9,12.5c0,0,1.3,1,1.4,1.8c0.1,0.8,2,1.1,2,1.1s-1-2-2.5-2.8C9.5,12.4,9.2,12.5,8.9,12.5L8.9,12.5z"/>
	<path class="st3" d="M9,15.3c0,0,0.9-2.3,2.7-3l0.5,0.4c0,0-1.9,1.9-2.5,2.9L9,15.3L9,15.3z"/>
	<path class="st3" d="M21.4,12.5c0,0,1.3,1,1.4,1.8c0.1,0.8,2,1.1,2,1.1s-1-2-2.5-2.8C22,12.4,21.7,12.5,21.4,12.5L21.4,12.5z"/>
	<path class="st3" d="M21.5,15.3c0,0,0.9-2.3,2.7-3l0.5,0.4c0,0-1.9,1.9-2.5,2.9L21.5,15.3L21.5,15.3z"/>
	<path class="st4" d="M15,16.5c0,0-1.2-1.1-2,0c-0.2,0.3-0.3,0.6-0.3,0.9c0,0.9,0,3.1,1.1,3.4c0,0,0.6,0.3,1.5-0.2
		c0,0,1.6,1.1,2.4-0.1c0,0,2.3,1.3,3.2-0.9v-3.5c0,0-0.3-1.1-1.5-0.3c0,0-0.9-1.3-2.2,0C17.2,15.8,15.6,14.9,15,16.5L15,16.5z"/>
	<path class="st5" d="M20.7,17.7c-6.8-1.4-6.4,2.9-6.4,2.9l1.1-0.1l1.5,0.6l0.9-0.6l1.8,0.3l1.4-1.2L20.7,17.7L20.7,17.7z"/>
	<path class="st6" d="M15,16.5c0,0-1.2-1.1-2,0c-0.2,0.3-0.3,0.6-0.3,0.9c0,0.9,0,3.1,1.1,3.4c0,0,0.6,0.3,1.5-0.2
		c0,0,1.6,1.1,2.4-0.1c0,0,2.3,1.3,3.2-0.9v-3.5c0,0-0.3-1.1-1.5-0.3c0,0-0.9-1.3-2.2,0C17.2,15.8,15.6,14.9,15,16.5L15,16.5z"/>
</g>
</svg>
