<svg width="92" height="25" viewBox="0 0 124 34" fill="none" xmlns="http://www.w3.org/2000/svg">
<path d="M8.93374 0H0V34H8.93374C12.7947 34 15.925 26.3893 15.925 17.0004C15.925 7.61071 12.7947 0 8.93374 0ZM8.93374 26.7145H6.9913V7.28553H8.93374V26.7136V26.7145Z" fill="black"/>
<path d="M44.8131 0H35.8794V34H44.8131C48.6741 34 51.8044 26.3893 51.8044 17.0004C51.8044 7.61157 48.6741 0.000860259 44.8131 0.000860259V0ZM44.8131 26.7145H42.8707V7.28553H44.8131V26.7136V26.7145Z" fill="black"/>
<path d="M33.8643 0C30.0034 0 26.873 3.2621 26.873 7.28553V26.7127C26.873 27.2719 26.438 27.7244 25.9022 27.7244C25.3665 27.7244 24.9314 27.2711 24.9314 26.7127V6.27387H17.9401V25.7019C17.9401 30.2845 21.5047 33.9991 25.9022 33.9991C30.2998 33.9991 33.8643 30.2845 33.8643 25.7019V0Z" fill="black"/>
<path d="M105.623 34C101.762 34 98.6319 30.7379 98.6319 26.7145V8.29719V7.28639C98.6319 6.72722 98.1968 6.27473 97.6611 6.27473C97.1245 6.27473 96.6903 6.72808 96.6903 7.28639V8.29719V33.9991H89.699V8.29719C89.699 3.7146 93.2636 0 97.6611 0C102.059 0 105.623 3.7146 105.623 8.29719V34Z" fill="black"/>
<path d="M61.7817 0C57.3842 0 53.8196 3.7146 53.8196 8.29719V25.7019C53.8196 30.2845 57.3842 33.9991 61.7817 33.9991C66.1792 33.9991 69.7438 30.2845 69.7438 25.7019V8.29719C69.7438 3.7146 66.1792 0 61.7817 0ZM62.7525 15.8804V26.7127C62.7525 27.2719 62.3174 27.7244 61.7817 27.7244C61.2459 27.7244 60.8109 27.2711 60.8109 26.7127V7.28725C60.8109 6.72808 61.2459 6.27559 61.7817 6.27559C62.3174 6.27559 62.7525 6.72894 62.7525 7.28725V15.8804Z" fill="black"/>
<path d="M79.721 0C75.3234 0 71.7589 3.7146 71.7589 8.29719V25.7019C71.7589 30.2845 75.3234 33.9991 79.721 33.9991C84.1185 33.9991 87.6831 30.2845 87.6831 25.7019V8.29719C87.6831 3.7146 84.1185 0 79.721 0ZM80.6918 15.8804V26.7127C80.6918 27.2719 80.2567 27.7244 79.721 27.7244C79.1852 27.7244 78.7502 27.2711 78.7502 26.7127V7.28725C78.7502 6.72808 79.1852 6.27559 79.721 6.27559C80.2567 6.27559 80.6918 6.72894 80.6918 7.28725V15.8804Z" fill="black"/>
<path d="M114.237 7.28553H124V0H115.164C110.767 0 107.202 3.7146 107.202 8.29719C107.202 12.8798 110.767 16.5944 115.164 16.5944H117.008V25.7011H107.202V33.9983H123.999V9.30972H117.008H114.194C113.627 9.30972 113.172 8.80217 113.228 8.19827C113.276 7.67179 113.729 7.28553 114.236 7.28553H114.237Z" fill="black"/>
</svg>
