<svg width="16" height="16" viewBox="0 0 16 16" fill="none" xmlns="http://www.w3.org/2000/svg">
<path d="M14.5 3C14.7761 3 15 3.22386 15 3.5V12.5C15 12.7761 14.7761 13 14.5 13H1.5C1.22386 13 1 12.7761 1 12.5V3.5C1 3.22386 1.22386 3 1.5 3H14.5ZM1.5 2C0.671573 2 0 2.67157 0 3.5V12.5C0 13.3284 0.671573 14 1.5 14H14.5C15.3284 14 16 13.3284 16 12.5V3.5C16 2.67157 15.3284 2 14.5 2H1.5Z" fill="white"/>
<path d="M7 5.5C7 5.22386 7.22386 5 7.5 5H12.5C12.7761 5 13 5.22386 13 5.5C13 5.77614 12.7761 6 12.5 6H7.5C7.22386 6 7 5.77614 7 5.5Z" fill="white"/>
<path d="M5.50355 4.64645C5.69882 4.84171 5.69882 5.15829 5.50355 5.35355L4.00355 6.85355C3.80829 7.04882 3.49171 7.04882 3.29645 6.85355L2.79645 6.35355C2.60119 6.15829 2.60119 5.84171 2.79645 5.64645C2.99171 5.45118 3.30829 5.45118 3.50356 5.64645L3.65 5.79289L4.79645 4.64645C4.99171 4.45118 5.30829 4.45118 5.50355 4.64645Z" fill="white"/>
<path d="M7 9.5C7 9.22386 7.22386 9 7.5 9H12.5C12.7761 9 13 9.22386 13 9.5C13 9.77614 12.7761 10 12.5 10H7.5C7.22386 10 7 9.77614 7 9.5Z" fill="white"/>
<path d="M5.50355 8.64645C5.69882 8.84171 5.69882 9.15829 5.50355 9.35355L4.00355 10.8536C3.80829 11.0488 3.49171 11.0488 3.29645 10.8536L2.79645 10.3536C2.60119 10.1583 2.60119 9.84171 2.79645 9.64645C2.99171 9.45118 3.30829 9.45118 3.50356 9.64645L3.65 9.79289L4.79645 8.64645C4.99171 8.45118 5.30829 8.45118 5.50355 8.64645Z" fill="white"/>
</svg>
