<svg width="16" height="14" viewBox="0 0 16 14" fill="none" xmlns="http://www.w3.org/2000/svg">
<path d="M10.3083 7C7.93931 8.25844 6.17914 10.4311 5.44417 13.0223L5.36566 13.2991L5.28714 13.0223C4.55217 10.4311 2.792 8.25845 0.42302 7C2.792 5.74156 4.55217 3.5689 5.28714 0.977684L5.36566 0.700864L5.44417 0.977684C6.17914 3.5689 7.93932 5.74155 10.3083 7Z" fill="#0EF8CF" stroke="black" stroke-width="0.382496"/>
<path d="M15.0396 7C12.6706 8.25845 10.9105 10.4311 10.1755 13.0223L10.097 13.2991L10.0185 13.0223C9.28349 10.4311 7.52332 8.25845 5.15434 7C7.52332 5.74156 9.28349 3.5689 10.0185 0.977684L10.097 0.700864L10.1755 0.977684C10.9105 3.5689 12.6706 5.74155 15.0396 7Z" fill="white" stroke="black" stroke-width="0.382496"/>
</svg>
