<svg width="24" height="24" viewBox="0 0 24 24" fill="none" xmlns="http://www.w3.org/2000/svg">
<path d="M19.36 5.44H16V4.16C16 4.072 15.928 4 15.84 4H14.72C14.632 4 14.56 4.072 14.56 4.16V5.44H9.44V4.16C9.44 4.072 9.368 4 9.28 4H8.16C8.072 4 8 4.072 8 4.16V5.44H4.64C4.286 5.44 4 5.726 4 6.08V19.36C4 19.714 4.286 20 4.64 20H19.36C19.714 20 20 19.714 20 19.36V6.08C20 5.726 19.714 5.44 19.36 5.44ZM18.56 18.56H5.44V10.96H18.56V18.56ZM5.44 9.6V6.88H8V7.84C8 7.928 8.072 8 8.16 8H9.28C9.368 8 9.44 7.928 9.44 7.84V6.88H14.56V7.84C14.56 7.928 14.632 8 14.72 8H15.84C15.928 8 16 7.928 16 7.84V6.88H18.56V9.6H5.44Z" fill="black" fill-opacity="0.25"/>
</svg>
