<svg width="24" height="24" viewBox="0 0 24 24" fill="none" xmlns="http://www.w3.org/2000/svg">
<path d="M12.002 4.00391C7.5841 4.00391 4.00195 7.58605 4.00195 12.0039C4.00195 16.4218 7.5841 20.0039 12.002 20.0039C16.4198 20.0039 20.002 16.4218 20.002 12.0039C20.002 7.58605 16.4198 4.00391 12.002 4.00391ZM12.002 18.6468C8.3341 18.6468 5.3591 15.6718 5.3591 12.0039C5.3591 8.33605 8.3341 5.36105 12.002 5.36105C15.6698 5.36105 18.6448 8.33605 18.6448 12.0039C18.6448 15.6718 15.6698 18.6468 12.002 18.6468Z" fill="black" fill-opacity="0.25"/>
<path d="M15.1217 14.2629L12.5753 12.4219V8.00223C12.5753 7.92366 12.511 7.85938 12.4325 7.85938H11.5735C11.495 7.85938 11.4307 7.92366 11.4307 8.00223V12.9201C11.4307 12.9665 11.4521 13.0094 11.4896 13.0362L14.4432 15.1897C14.5075 15.2362 14.5967 15.2219 14.6432 15.1594L15.1539 14.4629C15.2003 14.3969 15.186 14.3076 15.1217 14.2629Z" fill="black" fill-opacity="0.25"/>
</svg>
