<svg width="40" height="40" viewBox="0 0 40 40" fill="none" xmlns="http://www.w3.org/2000/svg">
<path d="M18.875 27.2947L12.275 20.6947C12.175 20.5947 12.104 20.4864 12.062 20.3697C12.0207 20.253 12 20.128 12 19.9947C12 19.8614 12.0207 19.7364 12.062 19.6197C12.104 19.503 12.175 19.3947 12.275 19.2947L18.875 12.6947C19.0583 12.5114 19.2873 12.4154 19.562 12.4067C19.8373 12.3987 20.075 12.4947 20.275 12.6947C20.475 12.878 20.5793 13.107 20.588 13.3817C20.596 13.657 20.5 13.8947 20.3 14.0947L15.4 18.9947H26.575C26.8583 18.9947 27.096 19.0904 27.288 19.2817C27.4793 19.4737 27.575 19.7114 27.575 19.9947C27.575 20.278 27.4793 20.5154 27.288 20.7067C27.096 20.8987 26.8583 20.9947 26.575 20.9947H15.4L20.3 25.8947C20.4833 26.078 20.5793 26.3114 20.588 26.5947C20.596 26.878 20.5 27.1114 20.3 27.2947C20.1167 27.4947 19.8833 27.5947 19.6 27.5947C19.3167 27.5947 19.075 27.4947 18.875 27.2947Z" fill="#525354"/>
</svg>
