<svg width="21" height="22" viewBox="0 0 21 22" fill="none" xmlns="http://www.w3.org/2000/svg">
<path d="M13.5614 10.8332C10.4204 12.7552 8.16514 15.8502 7.30303 19.4423L7.02635 20.5951L6.74967 19.4423C5.88756 15.8502 3.63234 12.7552 0.491291 10.8332C3.63234 8.91111 5.88756 5.81616 6.74967 2.22408L7.02635 1.07124L7.30303 2.22408C8.16514 5.81616 10.4204 8.91111 13.5614 10.8332Z" fill="#0EF8CF" stroke="black" stroke-width="0.5"/>
<path d="M20.424 10.8332C17.2829 12.7552 15.0277 15.8502 14.1656 19.4423L13.8889 20.5951L13.6122 19.4423C12.7501 15.8502 10.4949 12.7552 7.35384 10.8332C10.4949 8.91111 12.7501 5.81616 13.6122 2.22408L13.8889 1.07124L14.1656 2.22408C15.0277 5.81616 17.2829 8.91111 20.424 10.8332Z" fill="white" stroke="black" stroke-width="0.5"/>
</svg>
