<svg width="16" height="16" viewBox="0 0 16 16" fill="none" xmlns="http://www.w3.org/2000/svg">
<path fill-rule="evenodd" clip-rule="evenodd" d="M11.5 2C10.6716 2 10 2.67157 10 3.5C10 4.32843 10.6716 5 11.5 5C12.3284 5 13 4.32843 13 3.5C13 2.67157 12.3284 2 11.5 2ZM9.05001 3C9.28164 1.85888 10.2905 1 11.5 1C12.7095 1 13.7184 1.85888 13.95 3H16V4H13.95C13.7184 5.14112 12.7095 6 11.5 6C10.2905 6 9.28164 5.14112 9.05001 4H0V3H9.05001ZM4.5 7C3.67157 7 3 7.67157 3 8.5C3 9.32843 3.67157 10 4.5 10C5.32843 10 6 9.32843 6 8.5C6 7.67157 5.32843 7 4.5 7ZM2.05001 8C2.28164 6.85888 3.29052 6 4.5 6C5.70948 6 6.71836 6.85888 6.94999 8H16V9H6.94999C6.71836 10.1411 5.70948 11 4.5 11C3.29052 11 2.28164 10.1411 2.05001 9H0V8H2.05001ZM11.5 12C10.6716 12 10 12.6716 10 13.5C10 14.3284 10.6716 15 11.5 15C12.3284 15 13 14.3284 13 13.5C13 12.6716 12.3284 12 11.5 12ZM9.05001 13C9.28164 11.8589 10.2905 11 11.5 11C12.7095 11 13.7184 11.8589 13.95 13H16V14H13.95C13.7184 15.1411 12.7095 16 11.5 16C10.2905 16 9.28164 15.1411 9.05001 14H0V13H9.05001Z" fill="white"/>
</svg>
