<svg width="16" height="16" viewBox="0 0 16 16" fill="none" xmlns="http://www.w3.org/2000/svg">
<path d="M0 0.5C0 0.223858 0.223858 0 0.5 0H3.5C3.77614 0 4 0.223858 4 0.5C4 0.776142 3.77614 1 3.5 1H1V3.5C1 3.77614 0.776142 4 0.5 4C0.223858 4 0 3.77614 0 3.5V0.5Z" fill="white"/>
<path d="M12 0.5C12 0.223858 12.2239 0 12.5 0H15.5C15.7761 0 16 0.223858 16 0.5V3.5C16 3.77614 15.7761 4 15.5 4C15.2239 4 15 3.77614 15 3.5V1H12.5C12.2239 1 12 0.776142 12 0.5Z" fill="white"/>
<path d="M0.5 12C0.776142 12 1 12.2239 1 12.5V15H3.5C3.77614 15 4 15.2239 4 15.5C4 15.7761 3.77614 16 3.5 16H0.5C0.223858 16 0 15.7761 0 15.5V12.5C0 12.2239 0.223858 12 0.5 12Z" fill="white"/>
<path d="M15.5 12C15.7761 12 16 12.2239 16 12.5V15.5C16 15.7761 15.7761 16 15.5 16H12.5C12.2239 16 12 15.7761 12 15.5C12 15.2239 12.2239 15 12.5 15H15V12.5C15 12.2239 15.2239 12 15.5 12Z" fill="white"/>
<path d="M4 4H5V5H4V4Z" fill="white"/>
<path d="M7 2H2V7H7V2ZM3 3H6V6H3V3Z" fill="white"/>
<path d="M5 11H4V12H5V11Z" fill="white"/>
<path d="M7 9H2V14H7V9ZM3 10H6V13H3V10Z" fill="white"/>
<path d="M11 4H12V5H11V4Z" fill="white"/>
<path d="M9 2H14V7H9V2ZM10 3V6H13V3H10Z" fill="white"/>
<path d="M8 8V10H9V11H8V12H10V10H11V12H12V11H14V10H11V8H8ZM10 10H9V9H10V10Z" fill="white"/>
<path d="M14 12H13V13H11V14H14V12Z" fill="white"/>
<path d="M10 14V13H8V14H10Z" fill="white"/>
<path d="M12 9H14V8H12V9Z" fill="white"/>
</svg>
