<svg width="16" height="16" viewBox="0 0 16 16" fill="none" xmlns="http://www.w3.org/2000/svg">
<path d="M3.36156 10.1107C3.36156 11.0358 2.60586 11.7915 1.68078 11.7915C0.755701 11.7915 0 11.0358 0 10.1107C0 9.18567 0.755701 8.42997 1.68078 8.42997H3.36156V10.1107Z" fill="white"/>
<path d="M4.20848 10.1107C4.20848 9.18567 4.96418 8.42997 5.88926 8.42997C6.81434 8.42997 7.57004 9.18567 7.57004 10.1107V14.3192C7.57004 15.2443 6.81434 16 5.88926 16C4.96418 16 4.20848 15.2443 4.20848 14.3192V10.1107Z" fill="white"/>
<path d="M5.88926 3.36156C4.96418 3.36156 4.20848 2.60586 4.20848 1.68078C4.20848 0.755701 4.96418 0 5.88926 0C6.81434 0 7.57004 0.755701 7.57004 1.68078V3.36156H5.88926Z" fill="white"/>
<path d="M5.88925 4.20847C6.81433 4.20847 7.57003 4.96417 7.57003 5.88925C7.57003 6.81433 6.81433 7.57003 5.88925 7.57003H1.68078C0.755701 7.57003 0 6.81433 0 5.88925C0 4.96417 0.755701 4.20847 1.68078 4.20847H5.88925Z" fill="white"/>
<path d="M12.6385 5.88925C12.6385 4.96417 13.3942 4.20847 14.3192 4.20847C15.2443 4.20847 16 4.96417 16 5.88925C16 6.81433 15.2443 7.57003 14.3192 7.57003H12.6385V5.88925Z" fill="white"/>
<path d="M11.7915 5.88925C11.7915 6.81433 11.0358 7.57003 10.1107 7.57003C9.18566 7.57003 8.42996 6.81433 8.42996 5.88925V1.68078C8.42996 0.755701 9.18566 0 10.1107 0C11.0358 0 11.7915 0.755701 11.7915 1.68078V5.88925Z" fill="white"/>
<path d="M10.1108 12.6384C11.0359 12.6384 11.7916 13.3941 11.7916 14.3192C11.7916 15.2443 11.0359 16 10.1108 16C9.18569 16 8.42999 15.2443 8.42999 14.3192V12.6384H10.1108Z" fill="white"/>
<path d="M10.1107 11.7915C9.18566 11.7915 8.42996 11.0358 8.42996 10.1107C8.42996 9.18567 9.18566 8.42997 10.1107 8.42997H14.3192C15.2443 8.42997 16 9.18567 16 10.1107C16 11.0358 15.2443 11.7915 14.3192 11.7915H10.1107Z" fill="white"/>
</svg>
