<svg width="16" height="16" viewBox="0 0 16 16" fill="none" xmlns="http://www.w3.org/2000/svg">
<path fill-rule="evenodd" clip-rule="evenodd" d="M0 4.5C0 3.67157 0.671573 3 1.5 3H14.5C15.3284 3 16 3.67157 16 4.5V6C16 6.27614 15.7761 6.5 15.5 6.5C14.6716 6.5 14 7.17157 14 8C14 8.82843 14.6716 9.5 15.5 9.5C15.7761 9.5 16 9.72386 16 10V11.5C16 12.3284 15.3284 13 14.5 13H1.5C0.671573 13 0 12.3284 0 11.5V10C0 9.72386 0.223858 9.5 0.5 9.5C1.32843 9.5 2 8.82843 2 8C2 7.17157 1.32843 6.5 0.5 6.5C0.223858 6.5 0 6.27614 0 6V4.5ZM4 3.5V4.5H5V3.5H4ZM5 6.5H4V5.5H5V6.5ZM12 6.5H11V5.5H12V6.5ZM11 4.5V3.5H12V4.5H11ZM5 7.5H4V8.5H5V7.5ZM12 8.5H11V7.5H12V8.5ZM5 9.5H4V10.5H5V9.5ZM12 10.5H11V9.5H12V10.5ZM4 11.5V12.5H5V11.5H4ZM11 12.5V11.5H12V12.5H11Z" fill="white"/>
</svg>
