<svg width="39" height="41" viewBox="0 0 39 41" fill="none" xmlns="http://www.w3.org/2000/svg">
<path d="M26 0L27.0014 4.26755C28.6037 11.0958 32.9422 16.9652 39 20.5C32.9422 24.0348 28.6037 29.9042 27.0014 36.7324L26 41L24.9986 36.7324C23.3963 29.9042 19.0578 24.0348 13 20.5C19.0578 16.9652 23.3963 11.0958 24.9986 4.26755L26 0Z" fill="#25F3CF"/>
<path fill-rule="evenodd" clip-rule="evenodd" d="M26 0L24.9986 4.26755C24.99 4.30399 24.9814 4.3404 24.9727 4.37679C23.5232 10.4345 19.9178 15.7296 14.87 19.2969C14.2668 19.7232 13.6431 20.1247 13 20.5C13.6431 20.8753 14.2668 21.2768 14.87 21.7031C19.9178 25.2704 23.5232 30.5655 24.9727 36.6232C24.9814 36.6596 24.99 36.696 24.9986 36.7324L26 41L27.0014 36.7324C27.01 36.696 27.0186 36.6596 27.0273 36.6232C28.4768 30.5655 32.0822 25.2704 37.13 21.7031C37.7332 21.2768 38.3569 20.8753 39 20.5C38.3569 20.1247 37.7332 19.7232 37.13 19.2969C32.0822 15.7296 28.4768 10.4345 27.0273 4.37679C27.0186 4.3404 27.01 4.30399 27.0014 4.26755L26 0ZM26 7.88875C24.164 12.9124 20.9026 17.2967 16.6162 20.5C20.9026 23.7033 24.164 28.0876 26 33.1112C27.836 28.0876 31.0974 23.7033 35.3838 20.5C31.0974 17.2967 27.836 12.9124 26 7.88875Z" fill="#121212"/>
<path d="M13 0L14.0014 4.26755C15.6037 11.0958 19.9422 16.9652 26 20.5C19.9422 24.0348 15.6037 29.9042 14.0014 36.7324L13 41L11.9986 36.7324C10.3963 29.9042 6.0578 24.0348 0 20.5C6.0578 16.9652 10.3963 11.0958 11.9986 4.26755L13 0Z" fill="white"/>
<path fill-rule="evenodd" clip-rule="evenodd" d="M13 0L11.9986 4.26755C11.99 4.30399 11.9814 4.3404 11.9727 4.37679C10.5232 10.4345 6.91781 15.7296 1.86997 19.2969C1.26683 19.7232 0.643105 20.1247 0 20.5C0.643105 20.8753 1.26683 21.2768 1.86997 21.7031C6.91781 25.2704 10.5232 30.5655 11.9727 36.6232C11.9814 36.6596 11.99 36.696 11.9986 36.7324L13 41L14.0014 36.7324C14.01 36.696 14.0186 36.6596 14.0273 36.6232C15.4768 30.5655 19.0822 25.2704 24.13 21.7031C24.7332 21.2768 25.3569 20.8753 26 20.5C25.3569 20.1247 24.7332 19.7232 24.13 19.2969C19.0822 15.7296 15.4768 10.4345 14.0273 4.37679C14.0186 4.3404 14.01 4.30399 14.0014 4.26755L13 0ZM13 7.88875C11.164 12.9124 7.90256 17.2967 3.61619 20.5C7.90256 23.7033 11.164 28.0876 13 33.1112C14.836 28.0876 18.0974 23.7033 22.3838 20.5C18.0974 17.2967 14.836 12.9124 13 7.88875Z" fill="#121212"/>
</svg>
