<svg width="22" height="35" viewBox="0 0 22 35" fill="none" xmlns="http://www.w3.org/2000/svg">
<path d="M11 0L11.8603 3.6987C13.2081 9.49335 16.8731 14.4818 22 17.5C16.8731 20.5182 13.2081 25.5066 11.8603 31.3013L11 35L10.1397 31.3013C8.79192 25.5066 5.12691 20.5182 0 17.5C5.12691 14.4818 8.79192 9.49335 10.1397 3.6987L11 0Z" fill="#25F3CF"/>
<path fill-rule="evenodd" clip-rule="evenodd" d="M11 0L10.1397 3.6987C10.1067 3.84059 10.0723 3.98199 10.0366 4.12289C10.0142 4.21078 9.99139 4.29848 9.96801 4.38598C8.68832 9.17526 5.81285 13.3687 1.84137 16.2862C1.25123 16.7197 0.636896 17.1251 0 17.5C0.636896 17.8749 1.25123 18.2803 1.84137 18.7138C5.81285 21.6313 8.68832 25.8247 9.96801 30.614C9.99139 30.7015 10.0142 30.7892 10.0366 30.8771C10.0723 31.018 10.1067 31.1594 10.1397 31.3013L11 35L11.8603 31.3013C11.8933 31.1594 11.9277 31.018 11.9635 30.8771C11.9858 30.7892 12.0086 30.7015 12.032 30.614C13.3117 25.8247 16.1871 21.6313 20.1586 18.7138C20.7488 18.2803 21.3631 17.8749 22 17.5C21.3631 17.1251 20.7488 16.7197 20.1586 16.2862C16.1871 13.3687 13.3117 9.17526 12.032 4.38598C12.0086 4.29848 11.9858 4.21078 11.9634 4.12289C11.9277 3.98199 11.8933 3.84059 11.8603 3.6987L11 0ZM11 7.60774C9.4382 11.5025 6.86829 14.9186 3.55178 17.5C6.86829 20.0814 9.4382 23.4975 11 27.3923C12.5618 23.4975 15.1317 20.0814 18.4482 17.5C15.1317 14.9186 12.5618 11.5025 11 7.60774Z" fill="#121212"/>
</svg>
