<svg width="39" height="41" viewBox="0 0 39 41" fill="none" xmlns="http://www.w3.org/2000/svg">
<path d="M25.9722 4.496L26 4.37733L26.0278 4.496C27.5684 11.0611 31.5431 16.7732 37.1149 20.5C31.5431 24.2268 27.5684 29.9389 26.0278 36.504L26 36.6227L25.9722 36.504C24.4316 29.9389 20.4569 24.2268 14.8851 20.5C20.4569 16.7732 24.4316 11.0611 25.9722 4.496Z" fill="#25F3CF" stroke="#121212" stroke-width="2"/>
<path d="M12.9722 4.496L13 4.37733L13.0278 4.496C14.5684 11.0611 18.5431 16.7732 24.1149 20.5C18.5431 24.2268 14.5684 29.9389 13.0278 36.504L13 36.6227L12.9722 36.504C11.4316 29.9389 7.45692 24.2268 1.88513 20.5C7.45692 16.7732 11.4316 11.0611 12.9722 4.496Z" fill="white" stroke="#121212" stroke-width="2"/>
</svg>
