<svg width="178" height="115" viewBox="0 0 178 115" fill="none" xmlns="http://www.w3.org/2000/svg">
<path d="M176.635 70.18C176.515 68.75 175.925 67.36 174.925 66.17C173.295 64.22 170.755 63.38 168.335 63.8L141.625 51.57C140.825 51.2 139.935 51.1 139.065 51.26L138.665 51.34L136.545 50.09C135.495 49.48 134.235 49.34 133.085 49.71L128.805 51.1C128.025 51.35 127.365 51.81 126.865 52.41L125.135 51.44C124.135 50.88 122.955 50.75 121.855 51.07L117.755 52.28C116.775 52.57 115.955 53.19 115.415 54L115.285 53.93C114.265 53.34 113.055 53.2 111.925 53.54L107.705 54.82C106.815 55.09 106.055 55.64 105.525 56.35L102.835 54.98C101.805 54.46 100.605 54.38 99.515 54.75L95.875 56.01C95.205 56.24 94.615 56.63 94.155 57.13L94.445 56.4C94.475 56.33 94.495 56.27 94.515 56.2C95.465 53.37 95.265 50.34 93.945 47.67C92.845 45.45 91.085 43.69 88.895 42.62C89.005 41.08 89.785 37.35 93.895 29.95C97.995 22.56 100.435 16.61 101.355 11.77C102.235 7.13004 99.535 2.49004 95.075 0.980038C90.615 -0.519962 85.655 1.53004 83.545 5.76004C81.345 10.17 79.685 16.38 78.465 24.74C77.305 32.73 75.995 36.49 75.205 38.15C72.925 37.78 70.595 38.13 68.485 39.17C65.815 40.49 63.815 42.78 62.865 45.61C62.845 45.66 62.835 45.71 62.815 45.77L58.585 60.08L58.205 59.92C57.205 59.49 56.065 59.46 55.045 59.84L51.955 60.99C50.505 61.53 49.485 62.8 49.235 64.27L46.565 64.68L42.215 63.29C41.545 63.08 40.835 63.03 40.135 63.16L4.845 69.76C2.835 70.14 1.375 71.89 1.375 73.94V94.56C1.375 96.35 2.505 97.95 4.185 98.56L47.225 114.03C47.685 114.2 48.175 114.28 48.665 114.28C48.995 114.28 49.325 114.24 49.645 114.17L82.365 106.44C83.095 106.27 83.745 105.9 84.275 105.41C86.675 105.17 91.055 104.54 98.095 102.86C106.995 100.74 109.825 101.11 109.945 101.13C109.745 101.1 109.655 101.07 109.655 101.07V101.05C109.795 101.09 109.925 101.11 110.065 101.13C110.095 101.39 110.145 101.65 110.215 101.91C110.725 103.86 112.225 105.49 114.235 106.26C115.465 106.73 116.625 106.82 117.635 106.82C117.735 106.82 117.835 106.82 117.925 106.82C118.515 106.82 119.305 106.78 120.155 106.61C120.905 106.46 121.535 106.23 122.045 106.05L125.915 104.66C126.175 104.57 126.775 104.35 127.385 103.89C127.635 103.7 127.945 103.43 128.245 103.06C128.455 103.09 128.675 103.12 128.895 103.13C128.995 103.13 129.095 103.13 129.185 103.13C130.935 103.13 132.655 102.47 133.955 101.31C134.675 100.67 135.245 99.87 135.655 99C135.905 99.44 136.205 99.85 136.595 100.19C137.475 100.96 138.615 101.37 139.805 101.37C140.165 101.37 140.535 101.33 140.895 101.25C141.485 101.12 141.935 100.92 142.225 100.78L142.365 100.73C143.035 100.47 144.445 99.94 145.415 98.43C146.255 97.13 146.425 95.52 145.875 94.1C145.715 93.69 145.485 93.31 145.215 92.95C151.125 90.94 163.155 86.93 168.075 85.92C169.645 85.6 170.895 84.43 171.315 82.89C171.955 80.59 172.745 77.89 173.225 76.4C176.305 74.51 176.805 72.01 176.655 70.17L176.635 70.18ZM91.135 9.57004C91.315 9.21004 91.665 9.00004 92.025 9.00004C92.125 9.00004 92.235 9.02004 92.335 9.05004C92.805 9.21004 93.075 9.69004 92.985 10.19C92.285 13.85 90.295 18.74 87.045 24.73C88.095 18 89.465 12.9 91.125 9.57004H91.135Z" fill="white"/>
<path d="M177.135 70.18C176.765 66.72 174.165 63.78 170.675 63.28C169.925 63.17 169.215 63.22 168.465 63.28C168.475 63.28 168.705 63.37 168.465 63.31C168.155 63.23 167.835 63.02 167.545 62.89L158.005 58.52C154.105 56.73 150.205 54.95 146.305 53.16L142.685 51.5C141.505 50.96 140.125 50.33 138.815 50.8C138.505 50.91 138.595 50.67 138.915 50.89C138.865 50.85 138.795 50.83 138.745 50.79C138.555 50.63 138.295 50.53 138.085 50.4C137.665 50.16 137.255 49.9 136.835 49.67C135.525 48.94 134.135 48.85 132.725 49.3C130.685 49.95 127.995 50.39 126.515 52.05L127.125 51.97C126.285 51.5 125.425 50.91 124.495 50.61C123.315 50.23 122.195 50.44 121.055 50.78C118.875 51.42 116.395 51.77 114.985 53.74L115.665 53.56C113.755 52.46 112.015 52.98 110.095 53.56C108.305 54.1 106.395 54.45 105.175 55.99L105.785 55.91C103.745 54.87 101.765 53.52 99.375 54.27C98.495 54.55 97.635 54.87 96.765 55.18C95.665 55.56 94.655 55.93 93.805 56.79L94.645 57.28C95.725 54.55 95.955 51.63 94.965 48.83C93.975 46.03 91.875 43.59 89.145 42.21L89.395 42.64C89.525 40.97 90.105 39.31 90.705 37.75C92.115 34.09 94.115 30.73 95.925 27.26C97.735 23.79 99.225 20.58 100.435 17.07C101.405 14.28 102.395 11.2 101.855 8.23002C100.675 1.64002 93.185 -1.93998 87.305 1.22002C84.525 2.71002 83.095 5.27002 81.955 8.10002C80.705 11.23 79.845 14.51 79.165 17.81C78.235 22.29 77.765 26.85 76.785 31.32C76.295 33.55 75.745 35.84 74.765 37.92L75.325 37.69C69.475 36.83 63.905 40.31 62.215 45.98C61.185 49.44 60.175 52.9 59.145 56.35L58.075 59.96L58.805 59.66C57.625 59.15 56.435 58.91 55.165 59.27C54.435 59.48 53.735 59.79 53.025 60.05C52.315 60.31 51.535 60.54 50.885 60.95C49.745 61.67 48.995 62.82 48.735 64.14L49.085 63.79L46.825 64.14C46.705 64.16 46.585 64.18 46.455 64.2C46.395 64.2 46.765 64.29 46.575 64.18C46.295 64.02 45.895 63.96 45.595 63.86C43.955 63.33 42.035 62.41 40.275 62.64C38.625 62.85 36.975 63.25 35.335 63.55C27.835 64.95 20.335 66.36 12.835 67.76L5.34497 69.16C4.32497 69.35 3.37497 69.62 2.54497 70.3C1.28497 71.35 0.844971 72.84 0.844971 74.42V93.91C0.844971 95.4 1.12497 96.8 2.21497 97.91C2.86497 98.57 3.67497 98.93 4.52497 99.24L10.505 101.39C17.785 104.01 25.075 106.63 32.355 109.24C37.215 110.99 42.065 112.79 46.945 114.48C48.755 115.11 50.535 114.48 52.315 114.05L62.135 111.73C68.675 110.19 75.205 108.64 81.745 107.1C81.965 107.05 82.175 107 82.395 106.95C82.515 106.92 82.615 106.9 82.745 106.86C83.045 106.77 83.345 106.64 83.625 106.49C83.855 106.37 84.265 105.96 84.365 105.91C84.645 105.79 85.165 105.82 85.475 105.78C85.965 105.72 86.455 105.65 86.945 105.58C88.115 105.41 89.285 105.21 90.455 105C96.275 103.93 102.015 102.05 107.945 101.64C108.595 101.6 109.285 101.54 109.935 101.63C110.495 101.7 110.615 100.76 110.065 100.65C109.965 100.64 109.875 100.62 109.775 100.59L110.125 101.21V101.19C109.925 101.31 109.715 101.42 109.515 101.54C109.645 101.57 109.785 101.6 109.925 101.62L109.575 101.27C110.375 106.64 116.455 108.22 121.035 106.91C122.365 106.53 123.665 106 124.965 105.53C125.425 105.37 125.885 105.21 126.335 105.03C126.815 104.84 127.265 104.6 127.685 104.29C127.875 104.14 128.045 103.96 128.235 103.82C128.565 103.57 128.745 103.64 129.185 103.64C132.145 103.64 134.795 101.9 136.075 99.26H135.215C136.075 100.71 137.495 101.65 139.185 101.84C140.595 102 141.885 101.52 143.155 100.95C146.325 99.53 147.795 95.63 145.635 92.71L145.335 93.44C150.905 91.54 156.495 89.68 162.135 88.01C163.375 87.64 164.625 87.29 165.885 86.96C166.955 86.68 168.135 86.54 169.145 86.1C170.465 85.52 171.365 84.39 171.785 83.03C172.325 81.3 172.765 79.54 173.295 77.8C173.385 77.5 173.475 76.93 173.675 76.7C173.935 76.41 174.445 76.16 174.755 75.9C175.345 75.39 175.865 74.79 176.265 74.11C176.965 72.92 177.235 71.55 177.135 70.18C177.085 69.54 176.085 69.54 176.135 70.18C176.225 71.38 176.015 72.56 175.395 73.6C175.015 74.24 174.505 74.8 173.935 75.27C173.645 75.51 173.095 75.76 172.845 76.05C172.685 76.24 172.635 76.52 172.565 76.75C172.085 78.27 171.645 79.81 171.205 81.34C170.725 83.03 170.255 84.69 168.395 85.31C167.405 85.64 166.335 85.79 165.325 86.06C164.125 86.38 162.935 86.72 161.745 87.07C158.945 87.9 156.155 88.78 153.375 89.69C150.595 90.6 147.815 91.52 145.045 92.47C144.765 92.56 144.545 92.93 144.745 93.2C146.595 95.7 145.335 98.89 142.625 100.07C141.715 100.47 140.785 100.86 139.775 100.86C138.205 100.86 136.855 100.07 136.055 98.74C135.875 98.44 135.365 98.39 135.195 98.74C134.435 100.3 133.215 101.53 131.585 102.16C130.815 102.46 129.995 102.62 129.165 102.62C128.495 102.62 128.165 102.43 127.685 102.91C126.465 104.14 124.705 104.55 123.105 105.12C121.085 105.85 119.145 106.41 116.955 106.3C113.795 106.15 110.995 104.24 110.515 100.99C110.495 100.83 110.315 100.67 110.165 100.64C110.025 100.62 109.895 100.59 109.755 100.56C109.495 100.5 109.215 100.64 109.135 100.91V100.93C109.055 101.2 109.225 101.46 109.475 101.55C109.565 101.58 109.665 101.6 109.765 101.61L109.895 100.63C109.225 100.54 108.515 100.6 107.845 100.65C105.545 100.81 103.255 101.22 101.005 101.69C95.495 102.83 90.065 104.27 84.455 104.89C83.875 104.95 83.595 105.35 83.095 105.61C82.785 105.77 82.475 105.88 82.145 105.97C81.945 106.02 81.745 106.06 81.545 106.11L78.685 106.79L68.455 109.21L49.915 113.59C48.395 113.95 47.195 113.52 45.805 113.02L38.575 110.42C31.275 107.8 23.975 105.17 16.665 102.55L7.79497 99.36C6.52497 98.9 5.15497 98.54 3.93497 97.95C1.10497 96.58 1.81497 92.64 1.81497 90.06V74.61C1.81497 72.96 2.28497 71.38 3.90497 70.58C4.52497 70.27 5.24497 70.19 5.91497 70.06L9.08497 69.47L31.085 65.36L39.085 63.86C39.695 63.75 40.345 63.57 40.975 63.6C41.775 63.63 42.565 63.96 43.325 64.2L45.925 65.03C46.985 65.37 48.235 64.93 49.315 64.76C49.475 64.74 49.635 64.56 49.665 64.41C49.935 63.07 50.755 62 52.035 61.48C52.495 61.29 52.955 61.14 53.425 60.97C55.095 60.35 56.505 59.77 58.285 60.53C58.585 60.66 58.915 60.57 59.015 60.23L61.425 52.07L62.885 47.14C63.295 45.75 63.735 44.44 64.555 43.22C66.835 39.82 70.995 38.06 75.025 38.66C75.235 38.69 75.485 38.64 75.585 38.43C77.845 33.64 78.365 28.09 79.195 22.93C79.765 19.36 80.485 15.8 81.515 12.33C82.325 9.60002 83.255 6.38002 85.145 4.18002C87.285 1.70002 90.715 0.51002 93.925 1.22002C97.135 1.93002 99.715 4.40002 100.625 7.55002C101.475 10.52 100.485 13.63 99.535 16.46C98.375 19.92 96.825 23.24 95.155 26.47C93.295 30.06 91.235 33.53 89.765 37.3C89.095 39 88.485 40.8 88.345 42.64C88.335 42.8 88.445 43 88.595 43.07C91.175 44.38 93.155 46.61 94.045 49.38C94.875 51.95 94.605 54.54 93.625 57.02C93.435 57.5 94.135 57.84 94.465 57.51C95.225 56.73 96.145 56.45 97.135 56.11C97.945 55.83 98.745 55.53 99.565 55.27C101.655 54.6 103.435 55.89 105.225 56.8C105.405 56.89 105.695 56.9 105.835 56.72C106.915 55.36 108.575 55.08 110.155 54.6C111.855 54.08 113.415 53.46 115.125 54.44C115.375 54.58 115.655 54.48 115.805 54.26C116.985 52.6 119.435 52.3 121.275 51.76C122.395 51.43 123.465 51.24 124.585 51.76C125.265 52.07 125.915 52.49 126.565 52.86C126.745 52.96 127.025 52.95 127.175 52.78C128.475 51.33 130.875 50.96 132.655 50.39C133.895 49.99 135.065 49.9 136.265 50.55C136.945 50.92 137.595 51.42 138.295 51.74C138.595 51.88 138.805 51.82 139.135 51.77C139.905 51.65 140.635 51.73 141.355 52.03C141.545 52.11 141.735 52.2 141.915 52.29L145.045 53.72C151.965 56.89 158.875 60.05 165.795 63.22C166.515 63.55 167.275 64.02 168.035 64.25C168.525 64.4 169.085 64.21 169.605 64.22C170.645 64.23 171.675 64.49 172.585 64.97C174.535 66 175.865 68.02 176.095 70.21C176.165 70.84 177.165 70.85 177.095 70.21L177.135 70.18Z" fill="black"/>
<path d="M91.5649 9.82004C91.7649 9.49004 92.2149 9.36004 92.4349 9.75004C92.5749 10 92.4549 10.34 92.3949 10.6C92.2749 11.13 92.1449 11.66 91.9949 12.19C91.6549 13.4 91.2349 14.58 90.7749 15.75C89.5949 18.75 88.1449 21.64 86.6149 24.47L87.5249 24.86C88.3149 19.79 89.2649 14.46 91.5549 9.82004C91.8349 9.25004 90.9749 8.74004 90.6949 9.32004C88.3549 14.04 87.3649 19.44 86.5649 24.6C86.4849 25.12 87.1849 25.52 87.4749 24.99C89.3249 21.56 91.0749 18.03 92.3549 14.35C92.8149 13.03 93.3349 11.6 93.4849 10.21C93.6649 8.55004 91.5349 7.94004 90.6949 9.33004C90.3649 9.88004 91.2249 10.39 91.5549 9.83004L91.5649 9.82004Z" fill="black"/>
<path d="M108.025 76.8101L138.505 71.8601L144.625 77.5501L143.585 89.0101L135.135 91.1901L130.515 90.8601L125.575 92.0501L120.335 91.1901L116.295 91.9601L112.625 94.6601L110.765 96.9601L108.025 76.8101Z" fill="white"/>
<path d="M110.845 97.0063L112.935 94.0601C112.935 94.0601 109.365 84.9301 113.915 78.2401C113.915 78.2401 104.035 76.4701 109.015 81.1201L110.195 82.3801L110.275 85.5401L109.395 85.6801V96.1401L110.845 97.0063Z" fill="#1E5E4F"/>
<path d="M117.355 91.1899C114.405 84.0799 118.555 78.3999 118.555 78.3999" stroke="#1E5E4F" stroke-miterlimit="10"/>
<path d="M125.575 92.05C125.575 92.05 120.915 80.65 127.055 75.98" stroke="#1E5E4F" stroke-miterlimit="10"/>
<path d="M133.925 76.3201C133.925 76.3201 131.265 85.5801 134.675 90.8601" stroke="#1E5E4F" stroke-miterlimit="10"/>
<path d="M42.5549 69.6201L66.5949 65.7701L78.6349 64.0701L96.2749 63.9401L139.855 56.0801L167.935 68.9401C167.935 68.9401 171.195 66.3901 172.015 72.1401L169.795 73.4501L169.305 74.6301L167.185 81.7601L157.815 84.3501L140.385 90.1101V76.3201L136.685 74.6501L134.825 75.1501L133.925 76.3301L130.955 74.9401L128.175 75.0001L127.045 75.9901L123.345 75.2101L121.075 75.2301L118.985 76.3301L118.535 78.4101L113.495 77.9901L109.815 78.2001L109.245 79.0401L109.665 79.8601L112.915 82.3201V85.2101L110.745 85.4901V96.9801L102.805 97.5401L91.6849 99.9301L81.4049 101.56L75.7249 81.0601L42.5449 69.6401L42.5549 69.6201Z" fill="#0EF8CF"/>
<path d="M140.395 80.69L147.595 78.74L155.615 77.27L160.805 75.22L165.095 74.07L169.795 73.45L167.195 81.76L140.395 90.11V80.69Z" fill="#0A8C6A"/>
<path d="M93.9051 100.06L81.9751 101.3L82.1651 90.11L93.2551 87.62L107.005 85.86L110.765 85.47V96.96L102.845 97.5063L93.9051 100.06Z" fill="#0A8C6A"/>
<path d="M5.60498 94.56L48.645 110.03L81.365 102.3L82.755 82.86L40.905 67.99L5.60498 73.94V94.56Z" fill="#6201FF"/>
<path d="M48.4951 109.8L50.2651 91.7401L82.7551 82.8601L81.3651 102.3L48.4951 109.8Z" fill="#3D08A3"/>
<path d="M50.2349 91.1901L82.7549 82.8601" stroke="black" stroke-linecap="round" stroke-linejoin="round"/>
<path d="M53.7949 92.98L79.3849 86.04" stroke="black" stroke-width="0.75" stroke-linecap="round" stroke-linejoin="round"/>
<path d="M60.6049 103.88C62.0298 103.88 63.1849 102.725 63.1849 101.3C63.1849 99.8751 62.0298 98.72 60.6049 98.72C59.18 98.72 58.0249 99.8751 58.0249 101.3C58.0249 102.725 59.18 103.88 60.6049 103.88Z" fill="#FF7A00" stroke="#121212" stroke-linecap="round" stroke-linejoin="round"/>
<path d="M71.975 101.3C73.3999 101.3 74.555 100.145 74.555 98.7199C74.555 97.295 73.3999 96.1399 71.975 96.1399C70.5501 96.1399 69.395 97.295 69.395 98.7199C69.395 100.145 70.5501 101.3 71.975 101.3Z" fill="#FF7A00" stroke="#121212" stroke-linecap="round" stroke-linejoin="round"/>
<path d="M70.685 100.48C71.3975 100.48 71.975 99.692 71.975 98.72C71.975 97.7479 71.3975 96.96 70.685 96.96C69.9726 96.96 69.395 97.7479 69.395 98.72C69.395 99.692 69.9726 100.48 70.685 100.48Z" stroke="#211815" stroke-width="0.58" stroke-linecap="round" stroke-linejoin="round"/>
<path d="M59.3149 103.06C60.0274 103.06 60.6049 102.272 60.6049 101.3C60.6049 100.328 60.0274 99.54 59.3149 99.54C58.6025 99.54 58.0249 100.328 58.0249 101.3C58.0249 102.272 58.6025 103.06 59.3149 103.06Z" stroke="#211815" stroke-width="0.58" stroke-linecap="round" stroke-linejoin="round"/>
<path d="M140.395 76.32C140.395 76.32 135.725 72.52 133.925 76.32C133.925 76.32 129.325 73.02 127.055 75.98C127.055 75.98 117.685 73.33 118.545 78.4C118.545 78.4 108.635 77.07 109.255 79.02C109.875 80.97 112.925 82.3 112.925 82.3H106.135C106.135 82.3 95.9151 84.1 94.0351 84.95C94.0351 84.95 84.4751 85.89 82.7451 87.45" stroke="black" stroke-linecap="round" stroke-linejoin="round"/>
<path d="M45.5049 69.6201C78.1049 63.5901 78.1749 63.3701 96.2849 63.9301L139.865 56.0701L167.945 68.9301" stroke="#211815" stroke-linecap="round" stroke-linejoin="round"/>
<path d="M112.935 82.3V85.19C112.935 85.19 108.095 85.86 104.425 86.03C100.755 86.2 98.4149 87.06 94.5149 87.45C90.6149 87.84 82.7549 90.1 82.7549 90.1" stroke="black" stroke-linecap="round" stroke-linejoin="round"/>
<path d="M110.765 85.47V96.96C110.765 96.96 107.835 96.15 97.0851 98.72C86.0851 101.34 81.9751 101.3 81.9751 101.3" stroke="black" stroke-linecap="round" stroke-linejoin="round"/>
<path d="M167.935 68.93C169.085 68.29 170.575 68.53 171.425 69.54C171.805 70 172.105 70.55 172.155 71.18C172.325 73.2 170.225 73.03 169.805 73.45C169.385 73.87 167.205 81.76 167.205 81.76C160.235 83.19 140.405 90.11 140.405 90.11V76.32C140.405 76.32 145.045 74.29 150.415 73.87C155.785 73.45 159.815 72.11 159.815 72.11C159.815 72.11 165.045 70.53 167.945 68.94L167.935 68.93Z" stroke="black" stroke-linecap="round" stroke-linejoin="round"/>
<path d="M140.395 80.6901C140.395 80.6901 145.615 78.8801 150.155 78.3201C154.695 77.7601 156.875 76.6401 158.975 75.8001C161.075 74.9601 167.875 73.2001 169.805 73.4501" stroke="black" stroke-linecap="round" stroke-linejoin="round"/>
<path d="M149.335 78.4399C149.335 78.4399 151.515 77.2999 150.405 73.8699L121.265 59.4299" stroke="black" stroke-linecap="round" stroke-linejoin="round"/>
<path d="M149.335 87.0801V78.8101" stroke="black" stroke-width="0.97" stroke-linecap="round" stroke-linejoin="round"/>
<path d="M158.705 84.0801L158.975 75.8001C158.975 75.8001 160.895 74.5601 159.815 72.1101L131.445 57.6001" stroke="black" stroke-linecap="round" stroke-linejoin="round"/>
<path d="M93.845 99.46L94.5151 87.45C94.5151 87.45 95.955 86.69 94.945 84.64L56.175 67.99" stroke="black" stroke-linecap="round" stroke-linejoin="round"/>
<path d="M106.715 96.9601L107.005 85.8601C107.005 85.8601 108.065 84.2001 106.865 82.3101" stroke="black" stroke-linecap="round" stroke-linejoin="round"/>
<path d="M110.765 96.9601C110.765 96.9601 114.305 91.2901 119.465 91.1901C119.465 91.1901 124.615 90.8901 125.575 92.0501C125.575 92.0501 127.855 90.4601 131.965 90.8101C136.075 91.1601 140.385 90.1101 140.385 90.1101" stroke="black" stroke-linecap="round" stroke-linejoin="round"/>
<path d="M118.555 78.4L89.0151 64.04" stroke="black" stroke-linecap="round" stroke-linejoin="round"/>
<path d="M127.055 75.9799L101.825 62.9399" stroke="black" stroke-linecap="round" stroke-linejoin="round"/>
<path d="M106.145 82.3L72.675 65.5" stroke="black" stroke-linecap="round" stroke-linejoin="round"/>
<path d="M137.125 74.63L111.235 61.24" stroke="black" stroke-linecap="round" stroke-linejoin="round"/>
<path d="M112.935 58.3201L133.095 68.4201V70.1101L127.955 71.3101L109.685 61.7601V59.4301L112.935 58.3201Z" fill="#6201FF" stroke="black" stroke-linecap="round" stroke-linejoin="round"/>
<path d="M101.225 59.4299L121.395 69.5299V71.2199L116.245 72.4199L97.9751 62.8799V60.5499L101.225 59.4299Z" fill="#6201FF" stroke="black" stroke-linecap="round" stroke-linejoin="round"/>
<path d="M83.615 60.0701L103.785 70.1701V71.8601L98.635 73.0601L80.365 63.5201V61.1901L83.615 60.0701Z" fill="#6201FF" stroke="black" stroke-linecap="round" stroke-linejoin="round"/>
<path d="M72.655 62.28L92.815 72.38V74.07L87.675 75.27L69.395 65.73V63.4L72.655 62.28Z" fill="#6201FF" stroke="black" stroke-linecap="round" stroke-linejoin="round"/>
<path d="M56.495 63.8301L82.905 75.2001L83.015 77.3201L77.505 78.6901L53.555 67.9001L53.415 64.9701L56.495 63.8301Z" fill="#6201FF" stroke="black" stroke-linecap="round" stroke-linejoin="round"/>
<path d="M122.975 56.0801L143.145 66.1801V67.8701L137.995 69.0701L119.725 59.5301V57.1901L122.975 56.0801Z" fill="#6201FF" stroke="black" stroke-linecap="round" stroke-linejoin="round"/>
<path d="M134.215 54.5601L154.375 64.6601V66.3501L149.235 67.5501L130.965 58.0101V55.6701L134.215 54.5601Z" fill="#6201FF" stroke="black" stroke-linecap="round" stroke-linejoin="round"/>
<path d="M59.4951 96.32V96.81C59.4951 96.88 59.5051 96.94 59.5351 97C59.5551 97.06 59.5851 97.12 59.6351 97.16C59.6851 97.21 59.7351 97.24 59.7951 97.26C59.8551 97.29 59.9151 97.31 59.9851 97.3L60.1151 97.28C60.1951 97.26 60.2751 97.21 60.3351 97.15C60.4251 97.05 60.4851 96.93 60.4851 96.8V96.31C60.4851 96.24 60.4751 96.18 60.4451 96.12C60.4251 96.06 60.3951 96 60.3451 95.96C60.2951 95.91 60.2451 95.88 60.1851 95.86C60.1251 95.83 60.0651 95.81 59.9951 95.82L59.8651 95.84C59.7851 95.86 59.7051 95.91 59.6451 95.97C59.5551 96.07 59.4951 96.19 59.4951 96.32Z" fill="#121212"/>
<path d="M61.575 96.13V96.5C61.575 96.57 61.5849 96.63 61.6149 96.69C61.6349 96.75 61.665 96.81 61.715 96.85C61.765 96.9 61.815 96.93 61.875 96.95C61.935 96.98 61.9949 97 62.0649 96.99L62.195 96.97C62.275 96.95 62.355 96.9 62.415 96.84L62.4949 96.74C62.5449 96.66 62.5649 96.58 62.5649 96.49V96.12C62.5649 96.05 62.5549 95.99 62.5249 95.93C62.5049 95.87 62.4749 95.81 62.4249 95.77C62.3749 95.72 62.3249 95.69 62.2649 95.67C62.2049 95.64 62.145 95.62 62.075 95.63L61.945 95.65C61.865 95.67 61.7849 95.72 61.7249 95.78L61.645 95.88C61.595 95.96 61.575 96.04 61.575 96.13Z" fill="#121212"/>
<path d="M60.5749 96C60.5749 96 60.5749 95.98 60.5749 96.01C60.5749 96 60.5749 95.99 60.5749 95.97C60.5749 95.95 60.5749 95.93 60.5749 95.91C60.5749 95.9 60.5749 95.89 60.5749 95.87C60.5749 95.9 60.5749 95.91 60.5749 95.89C60.5749 95.87 60.5749 95.85 60.5849 95.83C60.5849 95.81 60.5949 95.79 60.6049 95.78C60.6049 95.76 60.6149 95.75 60.6049 95.78C60.6049 95.77 60.6149 95.76 60.6249 95.75C60.6449 95.72 60.6649 95.69 60.6849 95.66C60.6449 95.71 60.6849 95.65 60.7049 95.64C60.7149 95.63 60.7349 95.61 60.7449 95.6C60.7449 95.6 60.8049 95.55 60.7749 95.57C60.7449 95.59 60.8049 95.55 60.8149 95.55C60.8349 95.55 60.8449 95.53 60.8649 95.52C60.8849 95.51 60.8949 95.51 60.8649 95.52C60.8749 95.52 60.8849 95.52 60.8949 95.51C60.9149 95.51 60.9349 95.5 60.9449 95.49C60.9549 95.49 60.9649 95.49 60.9849 95.49C60.9549 95.49 60.9449 95.49 60.9649 95.49H61.0849C61.0549 95.49 61.0449 95.49 61.0749 95.49C61.0749 95.49 61.0949 95.49 61.1049 95.49C61.1249 95.49 61.1449 95.5 61.1649 95.51C61.2149 95.53 61.1349 95.49 61.1749 95.51C61.1949 95.52 61.2249 95.53 61.2449 95.55C61.2649 95.56 61.2749 95.57 61.2949 95.58C61.2449 95.55 61.2949 95.58 61.3149 95.6C61.3349 95.62 61.3449 95.63 61.3649 95.65C61.3649 95.65 61.4149 95.71 61.3749 95.65C61.4049 95.69 61.4249 95.72 61.4449 95.76C61.4749 95.81 61.4349 95.72 61.4449 95.77C61.4449 95.79 61.4649 95.82 61.4649 95.84C61.4849 95.91 61.4649 95.85 61.4649 95.84C61.4649 95.86 61.4649 95.89 61.4649 95.92C61.4649 96.05 61.5749 96.18 61.7149 96.17C61.8549 96.16 61.9649 96.06 61.9649 95.92C61.9649 95.5 61.6649 95.13 61.2649 95C60.8649 94.87 60.4349 95.08 60.2249 95.43C60.0949 95.63 60.0649 95.87 60.1049 96.1C60.1249 96.23 60.2949 96.31 60.4149 96.27C60.5549 96.22 60.6149 96.1 60.5849 95.96L60.5749 96Z" fill="#121212"/>
<path d="M71.275 93.4001C71.275 93.4001 71.205 93.3801 71.175 93.3901C71.145 93.3901 71.115 93.3901 71.095 93.4001C71.095 93.4001 71.075 93.4001 71.065 93.4001C71.035 93.4101 70.995 93.4201 70.975 93.4401C70.955 93.4601 70.915 93.4801 70.895 93.5101C70.875 93.5401 70.845 93.5601 70.835 93.5901C70.835 93.6001 70.825 93.6201 70.815 93.6401C70.815 93.6601 70.795 93.6701 70.795 93.6901C70.795 93.7201 70.785 93.7601 70.785 93.7901C70.785 93.8201 70.785 93.8501 70.795 93.8701C70.795 93.8901 70.815 93.9201 70.825 93.9401C70.855 94.0001 70.915 94.0401 70.975 94.0501C71.085 94.0901 71.225 94.0701 71.325 94.0001C71.385 93.9601 71.435 93.9201 71.475 93.8601C71.495 93.8301 71.505 93.8001 71.515 93.7701C71.525 93.7401 71.535 93.7001 71.535 93.6601C71.545 93.5401 71.485 93.4101 71.395 93.3301C71.335 93.2801 71.285 93.2501 71.215 93.2201C71.135 93.2001 71.045 93.2001 70.975 93.2201C70.905 93.2401 70.845 93.3101 70.805 93.3701C70.775 93.4101 70.755 93.4601 70.745 93.5001C70.725 93.5801 70.725 93.6301 70.745 93.7101C70.745 93.7201 70.745 93.7401 70.745 93.7501C70.755 93.7801 70.765 93.8201 70.785 93.8401C70.825 93.9001 70.865 93.9501 70.925 93.9801C70.985 94.0101 71.045 94.0301 71.115 94.0301C71.125 94.0301 71.145 94.0301 71.155 94.0301C71.185 94.0301 71.225 94.0301 71.255 94.0101C71.325 93.9901 71.375 93.9601 71.425 93.9101C71.475 93.8601 71.505 93.8101 71.535 93.7401C71.545 93.7101 71.545 93.6701 71.555 93.6401C71.555 93.6001 71.555 93.5701 71.545 93.5301C71.545 93.5001 71.525 93.4701 71.505 93.4401C71.485 93.4101 71.465 93.3801 71.445 93.3601C71.415 93.3201 71.375 93.2901 71.335 93.2701C71.275 93.2401 71.205 93.2201 71.135 93.2201C71.105 93.2201 71.065 93.2201 71.035 93.2301C71.005 93.2401 70.975 93.2501 70.945 93.2701C70.895 93.3001 70.845 93.3501 70.815 93.4101C70.805 93.4401 70.785 93.4701 70.785 93.5001C70.785 93.5301 70.775 93.5701 70.775 93.6001C70.775 93.6701 70.795 93.7201 70.825 93.7901C70.825 93.8001 70.835 93.8101 70.845 93.8201C70.865 93.8501 70.885 93.8701 70.905 93.9001C70.955 93.9501 71.005 93.9801 71.065 94.0001C71.125 94.0201 71.205 94.0201 71.265 94.0001C71.375 93.9801 71.475 93.8901 71.535 93.8001C71.555 93.7701 71.565 93.7401 71.575 93.7101C71.575 93.7001 71.585 93.6801 71.585 93.6701C71.605 93.5901 71.605 93.5401 71.585 93.4601C71.585 93.4101 71.555 93.3601 71.525 93.3201C71.485 93.2601 71.445 93.2201 71.375 93.1701C71.365 93.1701 71.355 93.1501 71.335 93.1501C71.305 93.1301 71.265 93.1201 71.235 93.1101C71.185 93.1001 71.135 93.0901 71.085 93.0901C71.055 93.0901 71.035 93.0901 71.005 93.0901C70.975 93.0901 70.955 93.0901 70.925 93.1001C70.865 93.1201 70.805 93.1601 70.775 93.2101C70.745 93.2601 70.735 93.3401 70.745 93.4001C70.755 93.4601 70.805 93.5201 70.855 93.5501C70.905 93.5801 70.985 93.5901 71.045 93.5801C71.055 93.5801 71.075 93.5801 71.085 93.5801H71.015C71.015 93.5801 71.065 93.5801 71.095 93.5801H71.025C71.025 93.5801 71.075 93.5801 71.105 93.5901L71.045 93.5601C71.045 93.5601 71.085 93.5801 71.105 93.6001L71.055 93.5601C71.055 93.5601 71.085 93.5901 71.095 93.6001L71.055 93.5501C71.055 93.5501 71.075 93.5801 71.085 93.5901L71.055 93.5301C71.055 93.5301 71.065 93.5601 71.065 93.5801V93.5101C71.065 93.5101 71.065 93.5401 71.065 93.5601V93.4901C71.065 93.4901 71.065 93.5301 71.065 93.5501L71.095 93.4901C71.095 93.4901 71.075 93.5201 71.065 93.5401L71.105 93.4901C71.105 93.4901 71.085 93.5201 71.065 93.5301L71.115 93.4901C71.115 93.4901 71.095 93.5101 71.075 93.5101L71.135 93.4801C71.135 93.4801 71.105 93.4801 71.095 93.4901H71.165C71.165 93.4901 71.135 93.4901 71.125 93.4901H71.195C71.195 93.4901 71.175 93.4901 71.165 93.4901L71.225 93.5201C71.225 93.5201 71.205 93.5101 71.195 93.5001L71.245 93.5401C71.245 93.5401 71.225 93.5201 71.215 93.5101L71.255 93.5601C71.255 93.5601 71.235 93.5301 71.225 93.5201L71.255 93.5801C71.255 93.5801 71.245 93.5501 71.245 93.5301V93.6001C71.245 93.6001 71.245 93.5701 71.245 93.5601V93.6301C71.245 93.6301 71.245 93.6101 71.245 93.6001L71.215 93.6601C71.215 93.6601 71.215 93.6401 71.225 93.6301L71.185 93.6801C71.185 93.6801 71.195 93.6601 71.205 93.6601L71.155 93.7001C71.155 93.7001 71.175 93.6901 71.185 93.6901L71.125 93.7201C71.125 93.7201 71.145 93.7201 71.155 93.7201H71.085C71.085 93.7201 71.105 93.7201 71.115 93.7201H71.045C71.045 93.7201 71.075 93.7201 71.085 93.7201L71.025 93.6901C71.025 93.6901 71.055 93.7001 71.065 93.7101L71.015 93.6701C71.015 93.6701 71.035 93.6901 71.045 93.7001L71.005 93.6501C71.005 93.6501 71.015 93.6701 71.025 93.6801L70.995 93.6201C70.995 93.6201 70.995 93.6401 71.005 93.6601V93.5901C71.005 93.5901 71.005 93.6101 71.005 93.6201V93.5501C71.005 93.5501 71.005 93.5701 71.005 93.5801L71.035 93.5201C71.035 93.5201 71.025 93.5401 71.015 93.5501L71.055 93.5001C71.055 93.5001 71.035 93.5201 71.025 93.5301L71.075 93.4901C71.075 93.4901 71.045 93.5101 71.035 93.5101L71.095 93.4801C71.095 93.4801 71.065 93.4901 71.045 93.4901H71.115C71.115 93.4901 71.085 93.4901 71.065 93.4901H71.135C71.135 93.4901 71.105 93.4901 71.095 93.4901L71.155 93.5201C71.155 93.5201 71.135 93.5101 71.125 93.5001L71.175 93.5401C71.175 93.5401 71.155 93.5201 71.155 93.5101L71.195 93.5601C71.195 93.5601 71.185 93.5401 71.175 93.5301L71.205 93.5901C71.205 93.5901 71.195 93.5601 71.195 93.5401V93.6101C71.195 93.6101 71.195 93.5701 71.195 93.5501V93.6201C71.195 93.6201 71.195 93.5801 71.195 93.5701L71.165 93.6301C71.165 93.6301 71.185 93.6001 71.195 93.5901L71.155 93.6401C71.155 93.6401 71.175 93.6201 71.185 93.6101L71.135 93.6501C71.135 93.6501 71.145 93.6501 71.155 93.6401L71.095 93.6701C71.095 93.6701 71.095 93.6701 71.105 93.6701H71.035C71.035 93.6701 71.065 93.6701 71.075 93.6701H71.005C71.005 93.6701 71.035 93.6701 71.055 93.6701L70.995 93.6401C70.995 93.6401 71.025 93.6601 71.035 93.6701L70.985 93.6301C70.985 93.6301 71.015 93.6501 71.025 93.6701L70.985 93.6201C70.985 93.6201 71.005 93.6501 71.015 93.6601L70.985 93.6001C70.985 93.6001 70.985 93.6201 70.995 93.6401V93.5701C70.995 93.5701 70.995 93.6001 70.995 93.6201V93.5501C70.995 93.5501 70.995 93.5701 70.995 93.5901L71.025 93.5301C71.025 93.5301 71.015 93.5601 71.005 93.5701L71.045 93.5201C71.045 93.5201 71.025 93.5401 71.015 93.5501L71.065 93.5101C71.065 93.5101 71.035 93.5301 71.015 93.5401L71.075 93.5101C71.075 93.5101 71.045 93.5201 71.025 93.5201H71.095C71.095 93.5201 71.065 93.5201 71.045 93.5201H71.115C71.115 93.5201 71.095 93.5201 71.085 93.5201L71.255 93.6901C71.255 93.6901 71.255 93.6801 71.255 93.6701V93.7401C71.255 93.7401 71.255 93.7201 71.255 93.7101V93.7801C71.255 93.7801 71.255 93.7601 71.255 93.7501L71.225 93.8101C71.225 93.8101 71.235 93.7801 71.245 93.7701L71.205 93.8201C71.205 93.8201 71.225 93.8001 71.235 93.7901L71.185 93.8301C71.185 93.8301 71.205 93.8201 71.215 93.8101L71.155 93.8401C71.155 93.8401 71.175 93.8401 71.195 93.8301H71.125C71.125 93.8301 71.145 93.8301 71.155 93.8301H71.085C71.085 93.8301 71.095 93.8301 71.105 93.8301C71.165 93.8501 71.245 93.8301 71.295 93.8001C71.345 93.7701 71.395 93.7101 71.405 93.6501C71.415 93.5901 71.415 93.5101 71.375 93.4601C71.335 93.4101 71.285 93.3701 71.225 93.3501L71.275 93.4001Z" fill="#211815"/>
<path d="M71.2149 93.9999C71.2149 93.9999 71.2649 94.0599 71.2949 94.0999C71.2949 94.0999 71.3049 94.12 71.3149 94.12C71.2949 94.09 71.3449 94.16 71.3149 94.12C71.3249 94.14 71.3449 94.1499 71.3549 94.1699C71.4049 94.2399 71.4549 94.3099 71.4949 94.3899C71.5349 94.4699 71.5749 94.54 71.6149 94.61C71.6349 94.65 71.6549 94.69 71.6749 94.73C71.6749 94.75 71.6949 94.77 71.7049 94.8C71.7249 94.86 71.7649 94.9099 71.8149 94.9499C71.8649 94.9799 71.9449 94.99 72.0049 94.98C72.1249 94.94 72.2249 94.7999 72.1749 94.6699C72.0349 94.2899 71.8249 93.95 71.5649 93.65C71.4749 93.55 71.2949 93.55 71.2149 93.65C71.1149 93.76 71.1249 93.8999 71.2149 93.9999Z" fill="#211815"/>
<path d="M71.0649 93C70.8949 92.95 70.725 93.05 70.655 93.2C70.605 93.31 70.575 93.44 70.575 93.57C70.575 93.72 70.615 93.87 70.725 93.98C70.835 94.09 70.9749 94.14 71.1249 94.15C71.3749 94.18 71.635 94.05 71.765 93.84C71.895 93.61 71.8749 93.3 71.6949 93.11C71.5949 93 71.4549 92.95 71.3049 92.94C71.1549 92.93 71.015 92.99 70.905 93.09C70.805 93.18 70.805 93.35 70.905 93.44C71.005 93.53 71.155 93.54 71.255 93.44C71.255 93.44 71.2649 93.43 71.2749 93.42L71.225 93.46C71.225 93.46 71.265 93.43 71.285 93.43L71.225 93.46C71.225 93.46 71.2749 93.44 71.3049 93.44H71.2349C71.2349 93.44 71.295 93.44 71.325 93.44H71.255C71.255 93.44 71.3149 93.44 71.3449 93.45L71.285 93.42C71.285 93.42 71.335 93.45 71.365 93.46L71.3149 93.42C71.3149 93.42 71.345 93.45 71.365 93.47L71.325 93.42C71.325 93.42 71.355 93.46 71.365 93.49L71.335 93.43C71.335 93.43 71.355 93.49 71.365 93.52V93.45C71.365 93.45 71.365 93.52 71.365 93.56V93.49C71.365 93.49 71.3649 93.55 71.3449 93.58L71.3749 93.52C71.3749 93.52 71.345 93.58 71.325 93.6L71.365 93.55C71.365 93.55 71.325 93.6 71.295 93.62L71.3449 93.58C71.3449 93.58 71.285 93.62 71.255 93.63L71.3149 93.6C71.3149 93.6 71.2349 93.63 71.1949 93.63H71.265C71.265 93.63 71.1749 93.63 71.1349 93.63H71.2049C71.2049 93.63 71.125 93.63 71.085 93.61L71.145 93.64C71.145 93.64 71.0849 93.61 71.0649 93.59L71.115 93.63C71.115 93.63 71.085 93.6 71.075 93.59L71.115 93.64C71.115 93.64 71.095 93.6 71.085 93.59L71.115 93.65C71.115 93.65 71.0949 93.6 71.0949 93.57V93.64C71.0949 93.59 71.0949 93.54 71.1049 93.49V93.56C71.1049 93.51 71.1049 93.46 71.1349 93.41L71.1049 93.47C71.1049 93.47 71.1249 93.43 71.1349 93.42L71.0949 93.47C71.0949 93.47 71.1149 93.45 71.1249 93.44L71.075 93.48C71.075 93.48 71.0849 93.48 71.0949 93.47L71.035 93.5C71.035 93.5 71.0449 93.5 71.0549 93.5H70.9849C70.9849 93.5 70.995 93.5 71.005 93.5H70.935C70.935 93.5 70.9449 93.5 70.9549 93.5C71.0749 93.54 71.235 93.45 71.265 93.33C71.295 93.19 71.2249 93.06 71.0949 93.02L71.0649 93Z" fill="#121212"/>
<path d="M71.0351 94.0099L71.6051 94.7599C71.6451 94.8099 71.6851 94.8599 71.7551 94.8699C71.8151 94.8899 71.8951 94.8699 71.9451 94.8399C71.9951 94.8099 72.0451 94.7499 72.0551 94.6899C72.0651 94.6299 72.0651 94.5499 72.0251 94.4999L71.4551 93.7499C71.4151 93.6999 71.3751 93.6499 71.3051 93.6399C71.2451 93.6199 71.1651 93.6399 71.1151 93.6699C71.0651 93.6999 71.0151 93.7599 71.0051 93.8199C70.9951 93.8799 70.9951 93.9599 71.0351 94.0099Z" fill="#121212"/>
<path d="M121.305 94.8599L119.565 94.8899C119.095 94.8899 118.605 94.9099 118.185 95.1099C117.855 95.2599 117.595 95.5199 117.335 95.7799C116.595 96.5199 115.905 97.3099 115.255 98.1399C114.645 98.9199 114.045 99.8899 114.295 100.85C114.475 101.54 115.075 102.05 115.735 102.31C116.395 102.57 117.125 102.59 117.835 102.58C118.315 102.58 118.805 102.55 119.275 102.45C119.725 102.36 120.155 102.2 120.585 102.05C121.875 101.59 123.165 101.12 124.455 100.66C124.585 100.61 124.705 100.57 124.815 100.49C125.085 100.29 125.165 99.9199 125.185 99.5799C125.275 98.2699 124.745 96.9699 123.935 95.9399C123.365 95.2199 122.475 94.5699 121.595 94.8199" fill="white"/>
<path d="M129.175 96.1399C128.955 96.0199 128.665 96.1599 128.525 96.3699C128.385 96.5799 128.355 96.8399 128.335 97.0999C128.295 97.5899 128.295 98.0999 128.515 98.5399C128.565 98.6399 128.635 98.7399 128.725 98.7999C128.825 98.8599 128.945 98.8699 129.055 98.8799C129.795 98.9099 130.545 98.6399 131.095 98.1499C131.645 97.6599 131.995 96.9399 132.045 96.1999C132.045 96.1399 132.045 96.0799 132.025 96.0299C131.965 95.8899 131.785 95.8699 131.635 95.8699C130.915 95.8599 130.185 95.9199 129.475 96.0699" fill="white"/>
<path d="M129.425 95.7099C128.935 95.4899 128.405 95.6499 128.105 96.0999C127.845 96.4799 127.825 96.9799 127.815 97.4199C127.805 97.8899 127.865 98.3699 128.075 98.7899C128.325 99.2699 128.785 99.3999 129.295 99.3799C130.185 99.3399 131.055 98.9599 131.655 98.2899C131.955 97.9599 132.175 97.5899 132.335 97.1799C132.405 96.9999 132.455 96.8099 132.495 96.6199C132.535 96.3899 132.585 96.1299 132.515 95.8899C132.325 95.2799 131.565 95.3499 131.065 95.3699C130.495 95.3899 129.915 95.4699 129.355 95.5799C129.085 95.6299 128.935 95.9499 129.005 96.1999C129.085 96.4799 129.355 96.5999 129.625 96.5499C130.305 96.4199 131.005 96.3599 131.695 96.3699C131.705 96.3699 131.775 96.3699 131.695 96.3699C131.715 96.3499 131.815 96.4599 131.685 96.3499L131.635 96.3199C131.585 96.1299 131.555 96.0899 131.555 96.1799C131.555 96.2099 131.555 96.2399 131.555 96.2699C131.555 96.3599 131.515 96.5199 131.475 96.6499C131.405 96.9199 131.295 97.1299 131.135 97.3799C130.855 97.7999 130.385 98.1399 129.885 98.2899C129.585 98.3799 129.375 98.3999 129.065 98.3899C129.025 98.3899 128.995 98.3899 128.975 98.3799C129.015 98.4299 128.975 98.3799 128.975 98.3499C128.915 98.2099 128.865 98.0899 128.845 97.9399C128.795 97.6399 128.815 97.2599 128.855 96.9399C128.855 96.8699 128.895 96.7199 128.955 96.6399C128.935 96.6699 129.005 96.6099 128.985 96.6199C128.955 96.6399 129.015 96.6099 129.015 96.6199C128.975 96.6099 128.955 96.6199 128.915 96.5999C129.165 96.7099 129.455 96.6699 129.595 96.4199C129.715 96.2099 129.665 95.8399 129.415 95.7399L129.425 95.7099Z" fill="#211815"/>
<path d="M140.655 95.02C140.105 95.49 139.655 96.07 139.325 96.71C139.305 96.75 139.285 96.79 139.285 96.84C139.285 96.9 139.325 96.95 139.375 96.99C139.535 97.13 139.755 97.15 139.965 97.1C140.175 97.05 140.355 96.96 140.535 96.88C140.995 96.68 141.545 96.56 141.815 96.13C141.905 95.99 141.955 95.81 141.895 95.66C141.855 95.57 141.785 95.49 141.705 95.43C141.405 95.18 141.015 95.04 140.625 95.03" fill="white"/>
<path d="M140.305 94.66C139.865 95.04 139.475 95.5 139.165 95.99C138.985 96.27 138.715 96.65 138.815 97C138.935 97.4 139.345 97.6 139.735 97.62C140.075 97.64 140.385 97.49 140.685 97.36C140.725 97.34 140.755 97.33 140.795 97.31C140.695 97.35 140.755 97.33 140.785 97.31C140.845 97.29 140.905 97.26 140.965 97.24C141.105 97.19 141.245 97.13 141.395 97.07C141.925 96.84 142.485 96.38 142.435 95.74C142.395 95.32 142.075 95.02 141.725 94.82C141.395 94.63 141.025 94.54 140.635 94.52C140.375 94.52 140.125 94.76 140.135 95.02C140.145 95.28 140.355 95.51 140.635 95.52C140.685 95.52 140.735 95.52 140.785 95.52C140.705 95.5 140.865 95.52 140.785 95.52C140.805 95.52 140.825 95.52 140.845 95.53C140.905 95.54 140.955 95.56 141.015 95.58C141.035 95.58 141.055 95.6 141.075 95.6C141.145 95.62 140.975 95.55 141.095 95.6C141.185 95.64 141.275 95.7 141.355 95.75C141.425 95.81 141.375 95.76 141.355 95.75C141.365 95.76 141.385 95.77 141.395 95.79C141.415 95.81 141.435 95.83 141.445 95.84C141.495 95.89 141.395 95.77 141.435 95.84C141.465 95.89 141.425 95.79 141.415 95.78C141.395 95.74 141.415 95.76 141.415 95.79C141.435 95.68 141.415 95.76 141.415 95.78C141.375 95.85 141.415 95.81 141.415 95.78C141.405 95.8 141.335 95.92 141.365 95.86C141.345 95.88 141.325 95.9 141.305 95.93C141.295 95.94 141.275 95.95 141.265 95.97C141.195 96.03 141.265 95.97 141.285 95.96C141.265 95.99 141.205 96.01 141.175 96.03C141.095 96.08 141.005 96.12 140.925 96.16C140.845 96.2 140.925 96.16 140.935 96.16C140.915 96.17 140.885 96.18 140.865 96.19C140.825 96.21 140.785 96.22 140.735 96.24C140.645 96.27 140.555 96.31 140.465 96.34C140.345 96.39 140.225 96.44 140.105 96.5C140.075 96.51 140.045 96.53 140.015 96.54C140.075 96.52 140.025 96.54 140.015 96.54C139.945 96.56 139.885 96.58 139.815 96.6C139.805 96.6 139.735 96.61 139.805 96.6C139.875 96.6 139.795 96.6 139.775 96.6C139.755 96.6 139.735 96.6 139.715 96.6C139.605 96.6 139.735 96.6 139.735 96.6C139.735 96.6 139.685 96.59 139.675 96.58C139.605 96.57 139.745 96.62 139.695 96.58C139.645 96.55 139.715 96.6 139.715 96.6C139.675 96.56 139.675 96.57 139.725 96.64C139.775 96.69 139.775 96.75 139.755 96.82C139.745 97.03 139.775 96.88 139.805 96.82C139.825 96.77 139.855 96.73 139.885 96.68C139.945 96.58 140.005 96.48 140.075 96.38C140.145 96.28 140.205 96.19 140.275 96.09C140.225 96.15 140.325 96.03 140.275 96.09C140.295 96.06 140.325 96.03 140.345 96C140.385 95.95 140.425 95.91 140.465 95.87C140.635 95.68 140.815 95.51 140.995 95.34C141.175 95.17 141.185 94.81 140.995 94.63C140.785 94.44 140.495 94.45 140.285 94.63L140.305 94.66Z" fill="#211815"/>
<path d="M71.2249 71.57C70.0349 71.17 70.7049 68.78 71.1149 67.59L75.6449 51.35C76.0349 50.2 75.4149 48.94 74.2649 48.55C73.1149 48.16 71.8549 48.78 71.4649 49.93L65.3449 65.24C64.8749 66.63 63.7549 69.04 62.3749 68.57C60.9849 68.1 61.5549 65.51 62.0249 64.12L66.8649 46.96C68.0849 43.34 72.0149 41.4 75.6349 42.62L76.5549 42.93C76.5549 42.93 80.1149 42.83 82.6549 25.34C83.8049 17.42 85.3749 11.55 87.3249 7.64997C88.4949 5.29997 91.2049 4.15997 93.6949 4.99997C96.1849 5.83997 97.6549 8.38997 97.1649 10.97C96.3449 15.26 94.0449 20.88 90.1649 27.88C81.5949 43.33 84.6449 45.66 84.6449 45.66L85.2849 45.88C88.9049 47.1 90.8449 51.03 89.6249 54.65L83.0849 71.23C82.6149 72.62 81.4949 75.03 80.1149 74.56C78.7249 74.09 79.2949 71.5 79.7649 70.11L84.1749 54.22C84.5649 53.07 83.9449 51.81 82.7949 51.42C81.6449 51.03 80.3849 51.65 79.9949 52.8L73.7649 68.46C73.3649 69.65 72.4549 71.96 71.2649 71.56" fill="#C9C9C9"/>
<path d="M71.2249 71.57C70.0349 71.17 70.7049 68.78 71.1149 67.59L75.6449 51.35C76.0349 50.2 75.4149 48.94 74.2649 48.55C73.1149 48.16 71.8549 48.78 71.4649 49.93L65.3449 65.24C64.8749 66.63 63.7549 69.04 62.3749 68.57C60.9849 68.1 61.5549 65.51 62.0249 64.12L66.8649 46.96C68.0849 43.34 72.0149 41.4 75.6349 42.62L76.5549 42.93C76.5549 42.93 80.1149 42.83 82.6549 25.34C83.8049 17.42 85.3749 11.55 87.3249 7.64997C88.4949 5.29997 91.2049 4.15997 93.6949 4.99997C96.1849 5.83997 97.6549 8.38997 97.1649 10.97C96.3449 15.26 94.0449 20.88 90.1649 27.88C81.5949 43.33 84.6449 45.66 84.6449 45.66L85.2849 45.88C88.9049 47.1 90.8449 51.03 89.6249 54.65L83.0849 71.23C82.6149 72.62 81.4949 75.03 80.1149 74.56C78.7249 74.09 79.2949 71.5 79.7649 70.11L84.1749 54.22C84.5649 53.07 83.9449 51.81 82.7949 51.42C81.6449 51.03 80.3849 51.65 79.9949 52.8L73.7649 68.46C73.3649 69.65 72.4549 71.96 71.2649 71.56" stroke="#211815" stroke-linecap="round" stroke-linejoin="round"/>
<path d="M118.345 95.5063C118.345 95.5063 114.828 98.4143 114.345 100.506C113.892 102.469 116.178 103.732 124.465 100.66C124.465 100.66 114.384 101.006 118.345 95.5063Z" fill="#1E5E4F"/>
<path d="M121.305 94.3601C120.245 94.3801 118.915 94.1801 117.935 94.6701C116.955 95.1601 116.205 96.2101 115.525 97.0101C114.845 97.8101 114.035 98.7301 113.805 99.8101C113.605 100.77 113.955 101.68 114.715 102.28C115.545 102.94 116.615 103.07 117.635 103.07C118.875 103.07 119.955 102.79 121.115 102.38C122.275 101.97 123.525 101.56 124.705 101.09C125.635 100.72 125.755 99.7601 125.665 98.8701C125.475 96.9101 123.835 93.8101 121.445 94.3401C120.815 94.4801 121.085 95.4401 121.715 95.3001C122.545 95.1101 123.265 95.8601 123.705 96.4801C124.185 97.1501 124.535 97.9301 124.645 98.7601C124.695 99.0901 124.725 99.4801 124.645 99.8101C124.535 100.23 123.965 100.3 123.605 100.43C122.725 100.75 121.835 101.06 120.955 101.38C120.075 101.7 119.265 102 118.345 102.05C117.485 102.1 116.495 102.14 115.705 101.74C113.785 100.76 115.295 98.8201 116.225 97.7201C116.545 97.3401 116.865 96.9801 117.205 96.6201C117.545 96.2601 117.865 95.8601 118.275 95.6201C118.685 95.3801 119.125 95.3901 119.565 95.3901C120.145 95.3801 120.725 95.3701 121.305 95.3601C121.945 95.3601 121.945 94.3501 121.305 94.3601Z" fill="black"/>
<path d="M7.39502 76.3201L50.235 91.1901L49.045 108.05" stroke="black" stroke-linecap="round" stroke-linejoin="round"/>
<path d="M5.60498 94.56L48.645 110.03L81.365 102.3L82.755 82.86L40.905 67.99L5.60498 73.94V94.56Z" stroke="black" stroke-linecap="round" stroke-linejoin="round"/>
<path d="M92.815 9.00001C92.815 9.00001 87.935 4.75001 85.175 25.54" stroke="white" stroke-linecap="round" stroke-linejoin="round"/>
</svg>
