<svg width="30" height="30" viewBox="0 0 30 30" fill="none" xmlns="http://www.w3.org/2000/svg">
<circle cx="15" cy="15" r="14.5" transform="rotate(90 15 15)" fill="currentColor" stroke="black"/>
<path d="M7.70527 14.0626L14.4854 7.2825C14.5881 7.17977 14.6994 7.10684 14.8192 7.06369C14.9391 7.02123 15.0675 7 15.2045 7C15.3414 7 15.4699 7.02123 15.5897 7.06369C15.7096 7.10684 15.8208 7.17978 15.9236 7.2825L22.7037 14.0626C22.892 14.2509 22.9906 14.4862 22.9995 14.7683C23.0077 15.0512 22.9091 15.2953 22.7037 15.5008C22.5153 15.7063 22.2801 15.8134 21.9979 15.8223C21.7151 15.8306 21.4709 15.7319 21.2655 15.5265L16.2318 10.4928L16.2318 21.9727C16.2318 22.2638 16.1335 22.5079 15.9369 22.7052C15.7397 22.9017 15.4955 23 15.2045 23C14.9134 23 14.6696 22.9017 14.473 22.7052C14.2758 22.5079 14.1772 22.2638 14.1772 21.9727L14.1772 10.4928L9.14348 15.5265C8.95514 15.7148 8.71544 15.8134 8.42437 15.8223C8.13331 15.8306 7.89361 15.7319 7.70527 15.5265C7.49982 15.3381 7.39709 15.0984 7.39709 14.8074C7.39709 14.5163 7.49982 14.2681 7.70527 14.0626Z" fill="#121212"/>
</svg>
