<svg width="30" height="28" viewBox="0 0 30 28" fill="none" xmlns="http://www.w3.org/2000/svg">
<path d="M25.9413 27.7596L25.9033 27.7521C22.4731 27.0721 20.3749 26.1734 19.4009 25.6798C18.0092 26.053 16.5314 26.2539 15 26.2539C6.71573 26.2539 0 20.3767 0 13.1269C0 5.87713 6.71573 0 15 0C23.2843 0 30 5.87713 30 13.1269C30 16.429 28.6068 19.4464 26.3067 21.7533C26.4451 23.1993 26.8233 24.7507 27.2879 26.1003L27.2951 26.1215C27.3517 26.2851 27.4094 26.4457 27.4682 26.6028C27.5607 26.85 27.6556 27.0885 27.7519 27.316C27.8993 27.6643 27.6137 28.0547 27.2405 27.9936C26.9763 27.9504 26.7188 27.9057 26.4678 27.8597C26.289 27.8269 26.1134 27.7935 25.9413 27.7596Z" fill="#25F3CF"/>
<path d="M20.625 13.1269C20.625 14.1626 21.4645 15.0022 22.5 15.0022C23.5355 15.0022 24.375 14.1626 24.375 13.1269C24.375 12.0912 23.5355 11.2517 22.5 11.2517C21.4645 11.2517 20.625 12.0912 20.625 13.1269Z" fill="#121212"/>
<path d="M13.125 13.1269C13.125 14.1626 13.9645 15.0022 15 15.0022C16.0355 15.0022 16.875 14.1626 16.875 13.1269C16.875 12.0912 16.0355 11.2517 15 11.2517C13.9645 11.2517 13.125 12.0912 13.125 13.1269Z" fill="#121212"/>
<path d="M7.5 15.0022C6.46447 15.0022 5.625 14.1626 5.625 13.1269C5.625 12.0912 6.46447 11.2517 7.5 11.2517C8.53553 11.2517 9.375 12.0912 9.375 13.1269C9.375 14.1626 8.53553 15.0022 7.5 15.0022Z" fill="#121212"/>
<path d="M25.9413 27.7596L25.9033 27.7521C22.4731 27.0721 20.3749 26.1734 19.4009 25.6798C18.0092 26.053 16.5314 26.2539 15 26.2539C6.71573 26.2539 0 20.3767 0 13.1269C0 5.87713 6.71573 0 15 0C23.2843 0 30 5.87713 30 13.1269C30 16.429 28.6068 19.4464 26.3067 21.7533C26.4451 23.1993 26.8233 24.7507 27.2879 26.1003L27.2951 26.1215C27.3517 26.2851 27.4094 26.4457 27.4682 26.6028C27.5607 26.85 27.6556 27.0885 27.7519 27.316C27.8993 27.6643 27.6137 28.0547 27.2405 27.9936C26.9763 27.9504 26.7188 27.9057 26.4678 27.8597C26.289 27.8269 26.1134 27.7935 25.9413 27.7596ZM24.4402 21.932C24.3869 21.3758 24.5845 20.8248 24.979 20.4292C26.9676 18.4347 28.125 15.88 28.125 13.1269C28.125 7.14019 22.4917 1.87528 15 1.87528C7.50825 1.87528 1.875 7.14019 1.875 13.1269C1.875 19.1137 7.50825 24.3786 15 24.3786C16.3673 24.3786 17.6819 24.1993 18.9153 23.8685C19.3616 23.7488 19.8363 23.7982 20.2485 24.007C20.9745 24.375 22.5719 25.0763 25.1873 25.6809C24.8343 24.4758 24.5595 23.1786 24.4402 21.932Z" fill="#121212"/>
</svg>
