<svg width="499" height="246" viewBox="0 0 499 246" fill="none" xmlns="http://www.w3.org/2000/svg">
<g filter="url(#filter0_d_897_33721)">
<path fill-rule="evenodd" clip-rule="evenodd" d="M400.793 278.762C402.875 279.862 405.348 280.599 408.168 280.599L408.139 280.57C411.755 280.57 415.385 279.355 418.928 276.969C419.304 276.709 419.666 276.434 419.912 276.203L426.044 270.779C426.68 270.215 427.244 269.579 427.707 268.87C431.872 262.594 431.626 252.427 423.209 244.993C421.792 243.561 420.143 241.161 419.492 239.107C426.969 231.471 443.485 211.267 446.19 179.667C446.913 175.473 450.109 153.244 439.899 133.431C442.227 119.157 447.405 95.8725 454.506 84.2015C456.689 83.218 458.642 81.7863 460.175 79.964C462.315 77.4331 464.644 73.0511 464.123 66.1815C464.513 64.5183 465.902 60.7003 470.356 58.9359C475.765 56.8099 479.569 51.8204 480.046 46.238C480.422 41.8559 478.701 37.228 474.362 34.2343C476.445 26.0776 476.141 19.7865 473.422 15.4623C471.267 12.0492 467.71 9.86538 463.631 9.46043C463.183 9.40258 462.72 9.37366 462.272 9.37366C460.797 9.37366 459.35 9.69183 457.948 10.2992C454.882 11.6442 452.336 14.2908 449.82 18.9332C449.588 18.9188 449.357 18.9188 449.126 18.9188C448.446 18.9188 447.781 18.9766 447.13 19.0778C446.681 17.675 445.944 16.2722 444.816 14.985C442.618 12.483 439.523 11.1091 436.095 11.1091C434.967 11.1091 433.796 11.2538 432.624 11.5575C428.849 12.5264 425.451 14.8838 423.065 18.2101C415.689 28.4349 414.98 36.0566 416.181 41.1762C412.898 47.6264 412.767 53.2233 413.707 57.5041C412.015 59.3553 411.032 61.2788 410.482 62.8841C408.935 67.3674 409.788 71.5181 410.945 74.4105C405.261 82.654 401.328 90.4636 398.609 97.1741C385.39 89.8128 371.029 88.8728 364.55 88.8728C362.149 88.8728 360.588 88.9885 360.284 89.0174C358.36 89.1476 356.451 89.3356 354.571 89.5815C355.815 85.5465 357.608 81.2078 359.792 76.9993C362.395 76.0737 365.172 74.3671 367.284 71.5904C369.294 68.9582 371.405 64.4605 370.523 57.6343C370.841 55.9567 372.027 52.0663 376.38 50.085C381.674 47.6842 385.217 42.5067 385.405 36.9098C385.549 32.5278 383.597 27.9866 379.114 25.2243C380.791 16.9808 380.155 10.7042 377.219 6.52459C374.891 3.22719 371.232 1.2314 367.139 1.02892C366.879 1 366.589 1 366.3 1C364.651 1 363.032 1.39048 361.499 2.15698C358.505 3.66106 356.09 6.43782 353.819 11.1959C353.602 11.2104 353.385 11.2248 353.125 11.2248C352.518 11.2538 351.925 11.3261 351.332 11.4418C350.811 10.0245 350.016 8.66501 348.815 7.42125C346.675 5.22299 343.753 4.00815 340.586 4.00815C339.198 4.00815 337.737 4.23955 336.262 4.70234C333.293 5.63821 330.609 7.44173 328.515 9.88431C327.779 9.68081 327.019 9.53844 326.24 9.46105C325.791 9.4032 325.328 9.37428 324.88 9.37428C323.405 9.37428 321.959 9.69245 320.556 10.2999C317.49 11.6449 314.945 14.2915 312.428 18.9338C312.197 18.9194 311.965 18.9194 311.734 18.9194C311.054 18.9194 310.389 18.9772 309.738 19.0785C309.29 17.6756 308.552 16.2728 307.424 14.9856C305.226 12.4837 302.131 11.1098 298.703 11.1098C297.575 11.1098 296.404 11.2544 295.232 11.5581C291.458 12.5271 288.059 14.8844 285.673 18.2107C278.297 28.4356 277.588 36.0572 278.789 41.1768C275.506 47.627 275.376 53.2239 276.316 57.5047C274.624 59.3559 273.64 61.2794 273.091 62.8847C271.543 67.368 272.397 71.5187 273.553 74.4111C267.87 82.6546 263.936 90.4643 261.217 97.1748C247.999 89.8135 233.638 88.8734 227.159 88.8734C224.758 88.8734 223.196 88.9891 222.892 89.018C220.969 89.1482 219.06 89.3362 217.18 89.5821C218.423 85.5471 220.217 81.2084 222.4 76.9999C225.004 76.0743 227.78 74.3678 229.892 71.591C231.902 68.9589 234.014 64.4611 233.131 57.6349C233.45 55.9573 234.636 52.0669 238.989 50.0856C244.282 47.6848 247.825 42.5074 248.013 36.9105C248.158 32.5284 246.205 27.9872 241.722 25.2249C243.4 16.9814 242.763 10.7048 239.827 6.52521C237.499 3.22781 233.84 1.23202 229.747 1.02954C229.487 1.00062 229.198 1.00062 228.908 1.00062C227.26 1.00062 225.64 1.3911 224.107 2.1576C221.113 3.66168 218.698 6.43844 216.428 11.1965C216.211 11.211 215.994 11.2254 215.733 11.2254C215.126 11.2544 214.533 11.3267 213.94 11.4424C213.419 10.0251 212.624 8.66563 211.424 7.42187C209.283 5.2236 206.362 4.00877 203.195 4.00877C201.806 4.00877 200.345 4.24017 198.87 4.70296C195.901 5.63872 193.218 7.44192 191.124 9.88405C190.388 9.68048 189.628 9.53806 188.848 9.46066C188.4 9.40281 187.937 9.37388 187.489 9.37388C186.014 9.37388 184.567 9.69205 183.165 10.2995C180.098 11.6445 177.553 14.2911 175.037 18.9334C174.805 18.919 174.574 18.919 174.343 18.919C173.663 18.919 172.998 18.9768 172.347 19.0781C171.898 17.6752 171.161 16.2724 170.033 14.9852C167.835 12.4833 164.74 11.1094 161.312 11.1094C160.184 11.1094 159.013 11.254 157.841 11.5577C154.066 12.5267 150.668 14.884 148.281 18.2103C140.906 28.4352 140.197 36.0568 141.397 41.1764C138.115 47.6266 137.984 53.2235 138.924 57.5043C137.232 59.3555 136.249 61.279 135.699 62.8843C134.152 67.3676 135.005 71.5183 136.162 74.4107C130.478 82.6542 126.545 90.4639 123.826 97.1744C110.607 89.8131 96.2462 88.873 89.7671 88.873C87.3664 88.873 85.8045 88.9887 85.5008 89.0176C83.5773 89.1478 81.6683 89.3358 79.7882 89.5817C81.0319 85.5467 82.8252 81.208 85.009 76.9995C87.6123 76.0739 90.389 74.3674 92.5005 71.5906C94.5107 68.9585 96.6222 64.4607 95.7401 57.6345C96.0582 55.9569 97.2441 52.0665 101.597 50.0852C106.89 47.6845 110.434 42.507 110.622 36.9101C110.766 32.528 108.814 27.9868 104.331 25.2245C106.008 16.981 105.372 10.7044 102.436 6.52482C100.108 3.22742 96.4487 1.23162 92.3559 1.02915C92.0956 1.00022 91.8063 1.00022 91.5171 1.00022C89.8684 1.00022 88.2486 1.39071 86.7156 2.15721C83.7219 3.66128 81.3067 6.43804 79.0361 11.1961C78.8192 11.2106 78.6022 11.2251 78.3419 11.2251C77.7345 11.254 77.1416 11.3263 76.5486 11.442C76.028 10.0247 75.2325 8.66523 74.0322 7.42148C71.8918 5.22321 68.9704 4.00838 65.8031 4.00838C64.4148 4.00838 62.9541 4.23977 61.4789 4.70257C57.7621 5.87401 54.4936 8.40491 52.2664 11.8469C45.4402 22.4478 45.1076 30.0983 46.5683 35.1457C43.6035 41.7549 43.7626 47.3518 44.9196 51.5748C43.3143 53.5128 42.4466 55.4796 41.9693 57.1139C40.7545 61.3224 41.5644 65.097 42.7069 67.8883C25.7426 91.7365 22.6766 113.878 22.1415 122.44C10.4994 138.32 7.36107 154.228 6.91274 156.875C-1.93817 199.524 22.0547 222.909 35.4034 232.31C36.3001 235.101 37.8042 239.396 40.0024 244.444L40.2338 245.311L40.8557 246.367C41.521 247.842 42.2152 249.303 42.9238 250.749C41.6945 251.776 40.6822 252.962 39.8578 254.293C37.7608 257.691 37.2401 261.77 38.3971 265.805C40.4941 273.079 47.4071 278.155 55.2023 278.155C55.7085 278.155 56.2146 278.141 56.7064 278.097C57.0245 278.069 57.3427 278.04 57.6753 277.996C59.8447 279.139 62.2743 279.746 64.7618 279.746C65.8899 279.746 67.018 279.616 68.1026 279.37C68.739 279.225 69.3753 279.038 69.9972 278.821C71.993 279.717 74.1768 280.194 76.4184 280.194C79.7448 280.194 83.0856 279.168 86.3396 277.157L92.9633 274.352C94.6265 273.643 96.0438 272.486 97.0706 271.04C100.166 276.044 105.777 279.226 112.01 279.226C112.777 279.226 113.543 279.182 114.295 279.081C115.206 278.951 116.161 278.792 117.115 278.56C118.648 279.066 120.268 279.327 121.902 279.327C123.305 279.327 124.679 279.139 126.01 278.763C128.092 279.862 130.565 280.599 133.385 280.599L133.356 280.57C136.972 280.57 140.602 279.356 144.145 276.969C144.521 276.709 144.883 276.434 145.129 276.203L151.261 270.78C151.897 270.216 152.461 269.579 152.924 268.871C157.089 262.594 156.843 252.427 148.426 244.993C147.009 243.562 145.36 241.161 144.709 239.107C148.258 235.483 153.844 229.026 159.023 219.864C163.787 225.378 168.774 229.479 172.795 232.31C173.691 235.102 175.196 239.397 177.394 244.444L177.625 245.312L178.247 246.368C178.912 247.843 179.607 249.303 180.315 250.75C179.086 251.777 178.074 252.962 177.249 254.293C175.152 257.692 174.632 261.77 175.789 265.805C177.886 273.079 184.799 278.156 192.594 278.156C193.1 278.156 193.606 278.141 194.098 278.098C194.416 278.069 194.734 278.04 195.067 277.997C197.236 279.139 199.666 279.747 202.153 279.747C203.281 279.747 204.409 279.616 205.494 279.371C206.13 279.226 206.767 279.038 207.389 278.821C209.384 279.718 211.568 280.195 213.81 280.195C217.136 280.195 220.477 279.168 223.731 277.158L230.355 274.352C232.018 273.643 233.435 272.486 234.462 271.04C237.557 276.044 243.168 279.226 249.402 279.226C250.168 279.226 250.935 279.183 251.687 279.081C252.598 278.951 253.552 278.792 254.507 278.561C256.04 279.067 257.659 279.327 259.294 279.327C260.697 279.327 262.07 279.139 263.401 278.763C265.484 279.862 267.957 280.6 270.777 280.6L270.748 280.571C274.363 280.571 277.993 279.356 281.537 276.97C281.913 276.709 282.274 276.435 282.52 276.203L288.652 270.78C289.288 270.216 289.852 269.58 290.315 268.871C294.48 262.594 294.235 252.427 285.818 244.994C284.4 243.562 282.752 241.161 282.101 239.108C285.65 235.483 291.236 229.026 296.414 219.863C301.179 225.377 306.165 229.478 310.186 232.31C311.083 235.101 312.587 239.396 314.785 244.444L315.017 245.311L315.639 246.367C316.304 247.842 316.998 249.303 317.707 250.749C316.478 251.776 315.465 252.962 314.641 254.292C312.544 257.691 312.023 261.769 313.18 265.804C315.277 273.079 322.19 278.155 329.985 278.155C330.492 278.155 330.998 278.141 331.489 278.097C331.808 278.068 332.126 278.039 332.458 277.996C334.628 279.139 337.057 279.746 339.545 279.746C340.673 279.746 341.801 279.616 342.886 279.37C343.522 279.225 344.158 279.037 344.78 278.82C346.776 279.717 348.96 280.194 351.202 280.194C354.528 280.194 357.869 279.167 361.123 277.157L367.746 274.352C369.41 273.643 370.827 272.486 371.854 271.04C374.949 276.044 380.56 279.225 386.793 279.225C387.56 279.225 388.326 279.182 389.078 279.081C389.989 278.951 390.944 278.791 391.898 278.56C393.431 279.066 395.051 279.327 396.685 279.327C398.088 279.327 399.462 279.139 400.793 278.762Z" fill="white"/>
<path d="M408.168 280.599V281.563H410.495L408.85 279.918L408.168 280.599ZM400.793 278.762L401.243 277.91L400.902 277.73L400.53 277.835L400.793 278.762ZM408.139 280.57V279.606H405.813L407.458 281.252L408.139 280.57ZM418.928 276.969L419.467 277.769L419.477 277.762L418.928 276.969ZM419.912 276.203L419.273 275.481L419.262 275.491L419.251 275.501L419.912 276.203ZM426.044 270.779L426.682 271.501L426.683 271.501L426.044 270.779ZM427.707 268.87L426.904 268.337L426.9 268.343L427.707 268.87ZM423.209 244.993L422.524 245.671L422.547 245.694L422.571 245.716L423.209 244.993ZM419.492 239.107L418.804 238.433L418.399 238.846L418.574 239.398L419.492 239.107ZM446.19 179.667L445.24 179.503L445.233 179.544L445.229 179.585L446.19 179.667ZM439.899 133.431L438.947 133.276L438.896 133.59L439.042 133.873L439.899 133.431ZM454.506 84.2015L454.11 83.3226L453.837 83.4453L453.682 83.7005L454.506 84.2015ZM460.175 79.964L459.439 79.3416L459.437 79.3436L460.175 79.964ZM464.123 66.1815L463.185 65.9612L463.151 66.106L463.162 66.2543L464.123 66.1815ZM470.356 58.9359L470.004 58.0388L470.001 58.0398L470.356 58.9359ZM480.046 46.238L479.086 46.1556V46.1559L480.046 46.238ZM474.362 34.2343L473.428 33.9959L473.262 34.6464L473.815 35.0276L474.362 34.2343ZM473.422 15.4623L474.238 14.9492L474.237 14.9477L473.422 15.4623ZM463.631 9.46043L463.508 10.4163L463.522 10.4182L463.536 10.4196L463.631 9.46043ZM457.948 10.2992L457.565 9.41474L457.56 9.4166L457.948 10.2992ZM449.82 18.9332L449.76 19.8952L450.374 19.9336L450.667 19.3925L449.82 18.9332ZM447.13 19.0778L446.212 19.3713L446.463 20.157L447.278 20.0302L447.13 19.0778ZM444.816 14.985L445.541 14.3497L445.54 14.3489L444.816 14.985ZM432.624 11.5575L432.864 12.491L432.866 12.4905L432.624 11.5575ZM423.065 18.2101L423.846 18.774L423.848 18.7719L423.065 18.2101ZM416.181 41.1762L417.039 41.6134L417.199 41.2993L417.119 40.9562L416.181 41.1762ZM413.707 57.5041L414.419 58.1544L414.756 57.7855L414.649 57.2974L413.707 57.5041ZM410.482 62.8841L411.393 63.1986L411.394 63.1963L410.482 62.8841ZM410.945 74.4105L411.739 74.9576L412.032 74.5323L411.84 74.0526L410.945 74.4105ZM398.609 97.1741L398.14 98.0162L399.093 98.5468L399.502 97.5361L398.609 97.1741ZM360.284 89.0174L360.349 89.9791L360.362 89.9782L360.375 89.9769L360.284 89.0174ZM354.571 89.5815L353.65 89.2975L353.208 90.7318L354.696 90.5372L354.571 89.5815ZM359.792 76.9993L359.469 76.0911L359.111 76.2183L358.937 76.5553L359.792 76.9993ZM367.284 71.5904L366.518 71.0054L366.516 71.007L367.284 71.5904ZM370.523 57.6343L369.576 57.4547L369.548 57.6055L369.567 57.7578L370.523 57.6343ZM376.38 50.085L375.982 49.2072L375.981 49.2077L376.38 50.085ZM385.405 36.9098L386.368 36.9422L386.368 36.9416L385.405 36.9098ZM379.114 25.2243L378.169 25.0321L378.035 25.6918L378.608 26.0449L379.114 25.2243ZM377.219 6.52459L378.008 5.97058L378.006 5.96862L377.219 6.52459ZM367.139 1.02892L367.032 1.98687L367.062 1.99013L367.091 1.99159L367.139 1.02892ZM361.499 2.15698L361.068 1.29489L361.066 1.29573L361.499 2.15698ZM353.819 11.1959L353.883 12.1576L354.446 12.1201L354.689 11.611L353.819 11.1959ZM353.125 11.2248V10.261H353.102L353.079 10.2621L353.125 11.2248ZM351.332 11.4418L350.427 11.7741L350.71 12.5451L351.516 12.3878L351.332 11.4418ZM348.815 7.42125L349.509 6.75191L349.506 6.74886L348.815 7.42125ZM336.262 4.70234L335.973 3.7827L335.972 3.78308L336.262 4.70234ZM328.515 9.88431L328.258 10.8132L328.848 10.9766L329.246 10.5118L328.515 9.88431ZM326.24 9.46105L326.116 10.417L326.13 10.4188L326.144 10.4202L326.24 9.46105ZM320.556 10.2999L320.173 9.41537L320.169 9.41722L320.556 10.2999ZM312.428 18.9338L312.368 19.8958L312.982 19.9342L313.275 19.3932L312.428 18.9338ZM309.738 19.0785L308.82 19.3719L309.071 20.1577L309.886 20.0309L309.738 19.0785ZM307.424 14.9856L308.149 14.3504L308.148 14.3495L307.424 14.9856ZM295.232 11.5581L295.472 12.4917L295.474 12.4911L295.232 11.5581ZM285.673 18.2107L286.455 18.7746L286.456 18.7726L285.673 18.2107ZM278.789 41.1768L279.648 41.614L279.808 41.2999L279.727 40.9568L278.789 41.1768ZM276.316 57.5047L277.027 58.155L277.364 57.7861L277.257 57.298L276.316 57.5047ZM273.091 62.8847L274.002 63.1992L274.003 63.1969L273.091 62.8847ZM273.553 74.4111L274.347 74.9582L274.64 74.5329L274.448 74.0532L273.553 74.4111ZM261.217 97.1748L260.748 98.0168L261.701 98.5474L262.111 97.5367L261.217 97.1748ZM222.892 89.018L222.957 89.9797L222.97 89.9788L222.984 89.9775L222.892 89.018ZM217.18 89.5821L216.258 89.2982L215.816 90.7324L217.305 90.5378L217.18 89.5821ZM222.4 76.9999L222.078 76.0917L221.72 76.2189L221.545 76.556L222.4 76.9999ZM229.892 71.591L229.126 71.006L229.125 71.0076L229.892 71.591ZM233.131 57.6349L232.184 57.4553L232.156 57.6062L232.176 57.7584L233.131 57.6349ZM238.989 50.0856L238.591 49.2078L238.589 49.2083L238.989 50.0856ZM248.013 36.9105L248.976 36.9428L248.976 36.9422L248.013 36.9105ZM241.722 25.2249L240.778 25.0327L240.643 25.6924L241.216 26.0455L241.722 25.2249ZM239.827 6.52521L240.616 5.9712L240.615 5.96924L239.827 6.52521ZM229.747 1.02954L229.641 1.98749L229.67 1.99075L229.7 1.99221L229.747 1.02954ZM224.107 2.1576L223.676 1.29551L223.674 1.29635L224.107 2.1576ZM216.428 11.1965L216.492 12.1582L217.054 12.1207L217.297 11.6116L216.428 11.1965ZM215.733 11.2254V10.2616H215.71L215.687 10.2627L215.733 11.2254ZM213.94 11.4424L213.035 11.7747L213.318 12.5457L214.125 12.3884L213.94 11.4424ZM211.424 7.42187L212.117 6.75253L212.114 6.74948L211.424 7.42187ZM198.87 4.70296L198.582 3.78332L198.581 3.7837L198.87 4.70296ZM191.124 9.88405L190.867 10.813L191.457 10.9763L191.855 10.5115L191.124 9.88405ZM188.848 9.46066L188.725 10.4166L188.739 10.4184L188.753 10.4198L188.848 9.46066ZM183.165 10.2995L182.782 9.41497L182.777 9.41682L183.165 10.2995ZM175.037 18.9334L174.977 19.8954L175.591 19.9338L175.884 19.3928L175.037 18.9334ZM172.347 19.0781L171.429 19.3715L171.68 20.1573L172.495 20.0305L172.347 19.0781ZM170.033 14.9852L170.758 14.35L170.757 14.3491L170.033 14.9852ZM157.841 11.5577L158.081 12.4913L158.083 12.4907L157.841 11.5577ZM148.281 18.2103L149.063 18.7742L149.065 18.7722L148.281 18.2103ZM141.397 41.1764L142.256 41.6136L142.416 41.2995L142.336 40.9564L141.397 41.1764ZM138.924 57.5043L139.636 58.1546L139.973 57.7858L139.866 57.2976L138.924 57.5043ZM135.699 62.8843L136.61 63.1988L136.611 63.1965L135.699 62.8843ZM136.162 74.4107L136.956 74.9579L137.249 74.5325L137.057 74.0528L136.162 74.4107ZM123.826 97.1744L123.357 98.0164L124.31 98.547L124.719 97.5363L123.826 97.1744ZM85.5008 89.0176L85.5658 89.9793L85.579 89.9784L85.5921 89.9771L85.5008 89.0176ZM79.7882 89.5817L78.8671 89.2978L78.425 90.732L79.9131 90.5374L79.7882 89.5817ZM85.009 76.9995L84.6861 76.0913L84.3284 76.2185L84.1535 76.5556L85.009 76.9995ZM92.5005 71.5906L91.7345 71.0056L91.7333 71.0072L92.5005 71.5906ZM95.7401 57.6345L94.7931 57.4549L94.7645 57.6058L94.7842 57.758L95.7401 57.6345ZM101.597 50.0852L101.199 49.2074L101.198 49.2079L101.597 50.0852ZM110.622 36.9101L111.585 36.9424L111.585 36.9419L110.622 36.9101ZM104.331 25.2245L103.386 25.0323L103.252 25.692L103.825 26.0451L104.331 25.2245ZM102.436 6.52482L103.225 5.97081L103.223 5.96885L102.436 6.52482ZM92.3559 1.02915L92.2494 1.98709L92.2788 1.99035L92.3083 1.99181L92.3559 1.02915ZM86.7156 2.15721L86.2845 1.29512L86.2829 1.29595L86.7156 2.15721ZM79.0361 11.1961L79.1002 12.1578L79.6631 12.1203L79.906 11.6112L79.0361 11.1961ZM78.3419 11.2251V10.2612H78.319L78.2961 10.2623L78.3419 11.2251ZM76.5486 11.442L75.6439 11.7743L75.9271 12.5453L76.7332 12.388L76.5486 11.442ZM74.0322 7.42148L74.7257 6.75213L74.7227 6.74908L74.0322 7.42148ZM61.4789 4.70257L61.1904 3.78292L61.1892 3.7833L61.4789 4.70257ZM52.2664 11.8469L51.4572 11.3233L51.4561 11.3251L52.2664 11.8469ZM46.5683 35.1457L47.4477 35.5401L47.5925 35.2175L47.4942 34.8777L46.5683 35.1457ZM44.9196 51.5748L45.6619 52.1897L45.9817 51.8036L45.8492 51.3201L44.9196 51.5748ZM41.9693 57.1139L41.0441 56.8437L41.0433 56.8466L41.9693 57.1139ZM42.7069 67.8883L43.4923 68.4469L43.8 68.0144L43.5989 67.5231L42.7069 67.8883ZM22.1415 122.44L22.9188 123.01L23.0859 122.782L23.1035 122.5L22.1415 122.44ZM6.91274 156.875L7.85647 157.071L7.86008 157.053L7.86304 157.036L6.91274 156.875ZM35.4034 232.31L36.3211 232.015L36.2223 231.708L35.9584 231.522L35.4034 232.31ZM40.0024 244.444L40.9337 244.195L40.915 244.125L40.8861 244.059L40.0024 244.444ZM40.2338 245.311L39.3025 245.56L39.3365 245.687L39.4034 245.801L40.2338 245.311ZM40.8557 246.367L41.7343 245.971L41.7128 245.923L41.6862 245.878L40.8557 246.367ZM42.9238 250.749L43.5417 251.489L44.1221 251.004L43.7893 250.325L42.9238 250.749ZM39.8578 254.293L39.0385 253.785L39.0375 253.786L39.8578 254.293ZM38.3971 265.805L37.4706 266.07L37.471 266.072L38.3971 265.805ZM56.7064 278.097L56.791 279.058L56.7936 279.057L56.7064 278.097ZM57.6753 277.996L58.1245 277.143L57.8539 277.001L57.5506 277.04L57.6753 277.996ZM68.1026 279.37L68.3157 280.31L68.3162 280.31L68.1026 279.37ZM69.9972 278.821L70.3922 277.941L70.0421 277.784L69.6798 277.911L69.9972 278.821ZM86.3396 277.157L85.9636 276.27L85.8957 276.299L85.833 276.337L86.3396 277.157ZM92.9633 274.352L93.3392 275.239L93.3411 275.238L92.9633 274.352ZM97.0706 271.04L97.8903 270.533L97.1259 269.297L96.2847 270.482L97.0706 271.04ZM114.295 279.081L114.424 280.036L114.431 280.035L114.295 279.081ZM117.115 278.56L117.417 277.645L117.156 277.559L116.888 277.624L117.115 278.56ZM126.01 278.763L126.459 277.91L126.118 277.73L125.747 277.835L126.01 278.763ZM133.385 280.599V281.563H135.711L134.067 279.918L133.385 280.599ZM133.356 280.57V279.607H131.03L132.675 281.252L133.356 280.57ZM144.145 276.969L144.684 277.769L144.694 277.762L144.145 276.969ZM145.129 276.203L144.49 275.481L144.479 275.491L144.468 275.501L145.129 276.203ZM151.261 270.78L151.899 271.502L151.9 271.501L151.261 270.78ZM152.924 268.871L152.121 268.338L152.117 268.344L152.924 268.871ZM148.426 244.993L147.741 245.671L147.764 245.694L147.788 245.716L148.426 244.993ZM144.709 239.107L144.021 238.433L143.616 238.846L143.79 239.398L144.709 239.107ZM159.023 219.864L159.752 219.233L158.857 218.198L158.183 219.389L159.023 219.864ZM172.795 232.31L173.712 232.016L173.614 231.708L173.35 231.522L172.795 232.31ZM177.394 244.444L178.325 244.196L178.306 244.126L178.277 244.059L177.394 244.444ZM177.625 245.312L176.694 245.56L176.728 245.688L176.795 245.801L177.625 245.312ZM178.247 246.368L179.126 245.971L179.104 245.924L179.078 245.878L178.247 246.368ZM180.315 250.75L180.933 251.489L181.513 251.005L181.181 250.326L180.315 250.75ZM177.249 254.293L176.43 253.785L176.429 253.787L177.249 254.293ZM175.789 265.805L174.862 266.071L174.862 266.072L175.789 265.805ZM194.098 278.098L194.182 279.058L194.185 279.058L194.098 278.098ZM195.067 277.997L195.516 277.144L195.245 277.001L194.942 277.041L195.067 277.997ZM205.494 279.371L205.707 280.311L205.708 280.31L205.494 279.371ZM207.389 278.821L207.784 277.942L207.434 277.785L207.071 277.911L207.389 278.821ZM223.731 277.158L223.355 276.27L223.287 276.299L223.224 276.338L223.731 277.158ZM230.355 274.352L230.731 275.24L230.732 275.239L230.355 274.352ZM234.462 271.04L235.282 270.533L234.517 269.297L233.676 270.482L234.462 271.04ZM251.687 279.081L251.815 280.037L251.823 280.035L251.687 279.081ZM254.507 278.561L254.809 277.645L254.547 277.559L254.28 277.624L254.507 278.561ZM263.401 278.763L263.851 277.911L263.51 277.731L263.139 277.836L263.401 278.763ZM270.777 280.6V281.564H273.102L271.459 279.919L270.777 280.6ZM270.748 280.571V279.607H268.423L270.066 281.252L270.748 280.571ZM281.537 276.97L282.075 277.769L282.085 277.762L281.537 276.97ZM282.52 276.203L281.882 275.481L281.87 275.491L281.859 275.501L282.52 276.203ZM288.652 270.78L289.291 271.502L289.291 271.501L288.652 270.78ZM290.315 268.871L289.512 268.338L289.508 268.344L290.315 268.871ZM285.818 244.994L285.133 245.672L285.155 245.695L285.179 245.716L285.818 244.994ZM282.101 239.108L281.412 238.433L281.007 238.847L281.182 239.399L282.101 239.108ZM296.414 219.863L297.144 219.233L296.249 218.197L295.575 219.389L296.414 219.863ZM310.186 232.31L311.104 232.015L311.005 231.708L310.741 231.522L310.186 232.31ZM314.785 244.444L315.717 244.195L315.698 244.125L315.669 244.059L314.785 244.444ZM315.017 245.311L314.086 245.56L314.12 245.687L314.186 245.8L315.017 245.311ZM315.639 246.367L316.517 245.971L316.496 245.923L316.469 245.878L315.639 246.367ZM317.707 250.749L318.325 251.489L318.905 251.004L318.572 250.325L317.707 250.749ZM314.641 254.292L313.822 253.785L313.821 253.786L314.641 254.292ZM313.18 265.804L312.254 266.07L312.254 266.071L313.18 265.804ZM331.489 278.097L331.574 279.057L331.577 279.057L331.489 278.097ZM332.458 277.996L332.908 277.143L332.637 277.001L332.334 277.04L332.458 277.996ZM342.886 279.37L343.099 280.31L343.099 280.31L342.886 279.37ZM344.78 278.82L345.175 277.941L344.825 277.784L344.463 277.91L344.78 278.82ZM361.123 277.157L360.747 276.27L360.679 276.298L360.616 276.337L361.123 277.157ZM367.746 274.352L368.122 275.239L368.124 275.238L367.746 274.352ZM371.854 271.04L372.673 270.533L371.909 269.297L371.068 270.482L371.854 271.04ZM389.078 279.081L389.207 280.036L389.214 280.035L389.078 279.081ZM391.898 278.56L392.201 277.645L391.939 277.558L391.671 277.623L391.898 278.56ZM408.168 279.635C405.522 279.635 403.202 278.944 401.243 277.91L400.343 279.615C402.549 280.779 405.175 281.563 408.168 281.563V279.635ZM407.458 281.252L407.487 281.281L408.85 279.918L408.821 279.889L407.458 281.252ZM418.39 276.17C414.976 278.469 411.53 279.606 408.139 279.606V281.534C411.98 281.534 415.795 280.242 419.467 277.769L418.39 276.17ZM419.251 275.501C419.058 275.683 418.742 275.926 418.38 276.177L419.477 277.762C419.866 277.492 420.274 277.185 420.572 276.905L419.251 275.501ZM425.405 270.057L419.273 275.481L420.55 276.925L426.682 271.501L425.405 270.057ZM426.9 268.343C426.489 268.973 425.983 269.545 425.404 270.058L426.683 271.501C427.377 270.886 427.999 270.185 428.514 269.397L426.9 268.343ZM422.571 245.716C430.637 252.839 430.796 262.473 426.904 268.337L428.51 269.403C432.948 262.715 432.615 252.014 423.847 244.271L422.571 245.716ZM418.574 239.398C419.282 241.634 421.03 244.162 422.524 245.671L423.894 244.315C422.554 242.961 421.004 240.687 420.411 238.816L418.574 239.398ZM445.229 179.585C442.551 210.879 426.194 230.885 418.804 238.433L420.181 239.781C427.745 232.057 444.419 211.655 447.15 179.749L445.229 179.585ZM439.042 133.873C449.1 153.391 445.956 175.35 445.24 179.503L447.14 179.831C447.87 175.596 451.118 153.098 440.755 132.99L439.042 133.873ZM453.682 83.7005C450.058 89.6566 446.961 98.504 444.483 107.586C441.999 116.69 440.116 126.113 438.947 133.276L440.85 133.586C442.01 126.475 443.88 117.119 446.342 108.094C448.81 99.0477 451.852 90.4174 455.329 84.7025L453.682 83.7005ZM459.437 79.3436C458.004 81.0475 456.171 82.3943 454.11 83.3226L454.901 85.0803C457.208 84.0418 459.28 82.5251 460.912 80.5845L459.437 79.3436ZM463.162 66.2543C463.661 72.8452 461.434 76.9828 459.439 79.3416L460.911 80.5864C463.197 77.8835 465.626 73.2569 465.084 66.1086L463.162 66.2543ZM470.001 58.0398C465.122 59.9724 463.607 64.1603 463.185 65.9612L465.061 66.4018C465.419 64.8764 466.681 61.4282 470.711 59.832L470.001 58.0398ZM479.086 46.1559C478.641 51.357 475.087 56.0408 470.004 58.0388L470.709 59.8329C476.443 57.579 480.496 52.2839 481.006 46.3201L479.086 46.1559ZM473.815 35.0276C477.843 37.8067 479.435 42.0856 479.086 46.1556L481.006 46.3204C481.409 41.6263 479.559 36.6493 474.91 33.441L473.815 35.0276ZM472.606 15.9753C475.115 19.9659 475.487 25.934 473.428 33.9959L475.296 34.4728C477.403 26.2212 477.167 19.6071 474.238 14.9492L472.606 15.9753ZM463.536 10.4196C467.323 10.7956 470.613 12.8188 472.607 15.9768L474.237 14.9477C471.921 11.2796 468.096 8.93515 463.726 8.50131L463.536 10.4196ZM462.272 10.3375C462.68 10.3375 463.101 10.3639 463.508 10.4163L463.755 8.50452C463.264 8.44127 462.76 8.40982 462.272 8.40982V10.3375ZM458.331 11.1837C459.622 10.6244 460.939 10.3375 462.272 10.3375V8.40982C460.655 8.40982 459.079 8.75924 457.565 9.41475L458.331 11.1837ZM450.667 19.3925C453.131 14.8474 455.542 12.4068 458.335 11.1819L457.56 9.4166C454.221 10.8816 451.542 13.7343 448.972 18.4739L450.667 19.3925ZM449.126 19.8826C449.362 19.8826 449.563 19.8829 449.76 19.8952L449.88 17.9713C449.613 17.9546 449.352 17.9549 449.126 17.9549V19.8826ZM447.278 20.0302C447.885 19.9358 448.501 19.8826 449.126 19.8826V17.9549C448.391 17.9549 447.676 18.0175 446.982 18.1255L447.278 20.0302ZM444.091 15.6203C445.125 16.8006 445.801 18.0847 446.212 19.3713L448.048 18.7844C447.562 17.2653 446.762 15.7437 445.541 14.3497L444.091 15.6203ZM436.095 12.073C439.255 12.073 442.083 13.3347 444.092 15.6212L445.54 14.3489C443.152 11.6314 439.79 10.1453 436.095 10.1453V12.073ZM432.866 12.4905C433.959 12.2072 435.049 12.073 436.095 12.073V10.1453C434.885 10.1453 433.632 10.3003 432.382 10.6245L432.866 12.4905ZM423.848 18.7719C426.108 15.6209 429.318 13.4012 432.864 12.491L432.384 10.6239C428.381 11.6517 424.793 14.1467 422.281 17.6483L423.848 18.7719ZM417.119 40.9562C415.996 36.1682 416.594 28.8279 423.846 18.774L422.283 17.6462C414.784 28.042 413.964 35.9449 415.242 41.3962L417.119 40.9562ZM414.649 57.2974C413.754 53.2219 413.863 47.854 417.039 41.6134L415.322 40.739C411.932 47.3988 411.781 53.2246 412.766 57.7108L414.649 57.2974ZM411.394 63.1963C411.906 61.7003 412.827 59.8962 414.419 58.1544L412.996 56.8538C411.204 58.8144 410.157 60.8572 409.57 62.5719L411.394 63.1963ZM411.84 74.0526C410.736 71.293 409.946 67.3919 411.393 63.1986L409.571 62.5696C407.924 67.3429 408.84 71.7431 410.05 74.7685L411.84 74.0526ZM399.502 97.5361C402.197 90.8843 406.099 83.1378 411.739 74.9576L410.152 73.8634C404.424 82.1703 400.458 90.043 397.716 96.8122L399.502 97.5361ZM364.55 89.8366C370.963 89.8366 385.131 90.7717 398.14 98.0162L399.078 96.3321C385.65 88.854 371.096 87.909 364.55 87.909V89.8366ZM360.375 89.9769C360.645 89.9512 362.176 89.8366 364.55 89.8366V87.909C362.123 87.909 360.53 88.0258 360.192 88.0579L360.375 89.9769ZM354.696 90.5372C356.556 90.294 358.445 90.1079 360.349 89.9791L360.219 88.0558C358.276 88.1873 356.347 88.3772 354.446 88.6257L354.696 90.5372ZM358.937 76.5553C356.729 80.8103 354.912 85.2024 353.65 89.2975L355.492 89.8654C356.717 85.8906 358.488 81.6053 360.648 77.4432L358.937 76.5553ZM366.516 71.007C364.538 73.6089 361.929 75.2165 359.469 76.0911L360.115 77.9074C362.862 76.9308 365.806 75.1254 368.051 72.1738L366.516 71.007ZM369.567 57.7578C370.413 64.3046 368.391 68.5521 366.518 71.0054L368.05 72.1754C370.196 69.3644 372.397 64.6163 371.479 57.5107L369.567 57.7578ZM375.981 49.2077C371.21 51.3794 369.919 55.6484 369.576 57.4547L371.47 57.8139C371.764 56.2649 372.845 52.7533 376.78 50.9622L375.981 49.2077ZM384.441 36.8775C384.266 42.0913 380.957 46.9508 375.982 49.2072L376.778 50.9627C382.39 48.4176 386.167 42.9222 386.368 36.9422L384.441 36.8775ZM378.608 26.0449C382.769 28.6084 384.576 32.8072 384.441 36.878L386.368 36.9416C386.523 32.2483 384.425 27.3648 379.619 24.4037L378.608 26.0449ZM376.43 7.0786C379.14 10.9362 379.827 16.8873 378.169 25.0321L380.058 25.4165C381.756 17.0744 381.17 10.4721 378.008 5.97058L376.43 7.0786ZM367.091 1.99159C370.893 2.17967 374.277 4.0293 376.432 7.08056L378.006 5.96862C375.504 2.42509 371.57 0.283127 367.187 0.0662607L367.091 1.99159ZM366.3 1.96384C366.602 1.96384 366.835 1.96496 367.032 1.98687L367.245 0.0709788C366.922 0.0350383 366.576 0.0361589 366.3 0.0361589V1.96384ZM361.93 3.01907C363.334 2.31671 364.807 1.96384 366.3 1.96384V0.0361589C364.496 0.0361589 362.729 0.464257 361.068 1.29489L361.93 3.01907ZM354.689 11.611C356.911 6.95414 359.203 4.38882 361.931 3.01823L361.066 1.29573C357.807 2.9333 355.268 5.92149 352.949 10.7808L354.689 11.611ZM353.125 12.1887C353.421 12.1887 353.667 12.172 353.883 12.1576L353.755 10.2342C353.537 10.2487 353.349 10.261 353.125 10.261V12.1887ZM351.516 12.3878C352.064 12.2809 352.611 12.2143 353.171 12.1876L353.079 10.2621C352.425 10.2933 351.785 10.3713 351.147 10.4958L351.516 12.3878ZM348.122 8.09059C349.222 9.23046 349.949 10.4725 350.427 11.7741L352.236 11.1094C351.673 9.57643 350.809 8.09955 349.509 6.75191L348.122 8.09059ZM340.586 4.97199C343.502 4.97199 346.171 6.08763 348.125 8.09364L349.506 6.74886C347.178 4.35834 344.005 3.04431 340.586 3.04431V4.97199ZM336.55 5.62199C337.941 5.18584 339.304 4.97199 340.586 4.97199V3.04431C339.091 3.04431 337.534 3.29326 335.973 3.7827L336.55 5.62199ZM329.246 10.5118C331.23 8.19914 333.762 6.50079 336.552 5.62161L335.972 3.78308C332.823 4.77563 329.989 6.68432 327.783 9.25686L329.246 10.5118ZM328.772 8.95539C327.983 8.73713 327.169 8.58472 326.335 8.50193L326.144 10.4202C326.869 10.4922 327.576 10.6245 328.258 10.8132L328.772 8.95539ZM326.363 8.50514C325.873 8.44188 325.369 8.41044 324.88 8.41044V10.3381C325.288 10.3381 325.71 10.3645 326.116 10.417L326.363 8.50514ZM324.88 8.41044C323.263 8.41044 321.687 8.75986 320.173 9.41538L320.939 11.1844C322.231 10.625 323.547 10.3381 324.88 10.3381V8.41044ZM320.169 9.41722C316.829 10.8822 314.15 13.7349 311.581 18.4745L313.275 19.3932C315.739 14.848 318.151 12.4075 320.943 11.1825L320.169 9.41722ZM312.488 17.9719C312.222 17.9552 311.96 17.9555 311.734 17.9555V19.8832C311.97 19.8832 312.172 19.8835 312.368 19.8958L312.488 17.9719ZM311.734 17.9555C310.999 17.9555 310.284 18.0181 309.59 18.1261L309.886 20.0309C310.494 19.9364 311.109 19.8832 311.734 19.8832V17.9555ZM310.656 18.7851C310.171 17.2659 309.371 15.7444 308.149 14.3504L306.699 15.6209C307.734 16.8012 308.409 18.0854 308.82 19.3719L310.656 18.7851ZM308.148 14.3495C305.761 11.632 302.398 10.1459 298.703 10.1459V12.0736C301.863 12.0736 304.691 13.3353 306.7 15.6218L308.148 14.3495ZM298.703 10.1459C297.493 10.1459 296.241 10.301 294.991 10.6251L295.474 12.4911C296.567 12.2078 297.657 12.0736 298.703 12.0736V10.1459ZM294.993 10.6245C290.989 11.6523 287.402 14.1473 284.89 17.6489L286.456 18.7726C288.717 15.6215 291.927 13.4018 295.472 12.4917L294.993 10.6245ZM284.891 17.6469C277.392 28.0427 276.572 35.9455 277.85 41.3968L279.727 40.9568C278.605 36.1689 279.202 28.8285 286.455 18.7746L284.891 17.6469ZM277.93 40.7396C274.54 47.3994 274.389 53.2253 275.374 57.7115L277.257 57.298C276.362 53.2226 276.472 47.8546 279.648 41.614L277.93 40.7396ZM275.604 56.8545C273.812 58.815 272.766 60.8578 272.179 62.5725L274.003 63.1969C274.515 61.701 275.435 59.8968 277.027 58.155L275.604 56.8545ZM272.18 62.5702C270.532 67.3435 271.448 71.7437 272.659 74.7691L274.448 74.0532C273.345 71.2936 272.554 67.3926 274.002 63.1992L272.18 62.5702ZM272.76 73.864C267.033 82.1709 263.067 90.0436 260.324 96.8128L262.111 97.5367C264.806 90.8849 268.707 83.1384 274.347 74.9582L272.76 73.864ZM261.686 96.3327C248.258 88.8546 233.704 87.9096 227.159 87.9096V89.8373C233.571 89.8373 247.739 90.7723 260.748 98.0168L261.686 96.3327ZM227.159 87.9096C224.731 87.9096 223.138 88.0264 222.801 88.0585L222.984 89.9775C223.253 89.9518 224.785 89.8373 227.159 89.8373V87.9096ZM222.827 88.0564C220.884 88.1879 218.955 88.3778 217.055 88.6264L217.305 90.5378C219.164 90.2946 221.053 90.1085 222.957 89.9797L222.827 88.0564ZM218.101 89.866C219.326 85.8912 221.096 81.6059 223.256 77.4438L221.545 76.556C219.337 80.8109 217.521 85.203 216.258 89.2982L218.101 89.866ZM222.723 77.908C225.47 76.9315 228.415 75.126 230.659 72.1744L229.125 71.0076C227.146 73.6095 224.537 75.2171 222.078 76.0917L222.723 77.908ZM230.658 72.176C232.805 69.365 235.006 64.6169 234.087 57.5114L232.176 57.7584C233.022 64.3053 231 68.5527 229.126 71.006L230.658 72.176ZM234.078 57.8145C234.372 56.2656 235.453 52.7539 239.388 50.9628L238.589 49.2083C233.818 51.38 232.527 55.649 232.184 57.4553L234.078 57.8145ZM239.387 50.9634C244.998 48.4183 248.776 42.9228 248.976 36.9428L247.05 36.8781C246.875 42.0919 243.565 46.9514 238.591 49.2078L239.387 50.9634ZM248.976 36.9422C249.131 32.249 247.034 27.3655 242.228 24.4043L241.216 26.0455C245.377 28.609 247.184 32.8078 247.05 36.8787L248.976 36.9422ZM242.667 25.4171C244.364 17.075 243.778 10.4727 240.616 5.9712L239.039 7.07922C241.748 10.9369 242.435 16.8879 240.778 25.0327L242.667 25.4171ZM240.615 5.96924C238.113 2.4257 234.179 0.283746 229.795 0.0668796L229.7 1.99221C233.502 2.18028 236.886 4.02992 239.04 7.08118L240.615 5.96924ZM229.854 0.0715978C229.53 0.0356572 229.185 0.0367779 228.908 0.0367779V1.96446C229.211 1.96446 229.444 1.96558 229.641 1.98749L229.854 0.0715978ZM228.908 0.0367779C227.104 0.0367779 225.337 0.464875 223.676 1.29552L224.538 3.01969C225.943 2.31733 227.415 1.96446 228.908 1.96446V0.0367779ZM223.674 1.29635C220.415 2.93392 217.877 5.92211 215.558 10.7814L217.297 11.6116C219.52 6.95476 221.812 4.38943 224.54 3.01885L223.674 1.29635ZM216.363 10.2348C216.146 10.2493 215.958 10.2616 215.733 10.2616V12.1893C216.029 12.1893 216.276 12.1726 216.492 12.1582L216.363 10.2348ZM215.687 10.2627C215.033 10.2939 214.394 10.3719 213.755 10.4964L214.125 12.3884C214.672 12.2815 215.219 12.2149 215.779 12.1882L215.687 10.2627ZM214.845 11.11C214.282 9.57705 213.418 8.10017 212.117 6.75253L210.73 8.09121C211.83 9.23108 212.557 10.4731 213.035 11.7747L214.845 11.11ZM212.114 6.74948C209.787 4.35896 206.613 3.04493 203.195 3.04493V4.97261C206.11 4.97261 208.78 6.08825 210.733 8.09426L212.114 6.74948ZM203.195 3.04493C201.7 3.04493 200.142 3.29388 198.582 3.78332L199.159 5.62261C200.549 5.18646 201.912 4.97261 203.195 4.97261V3.04493ZM198.581 3.7837C195.432 4.77613 192.598 6.68448 190.392 9.25655L191.855 10.5115C193.839 8.19935 196.371 6.5013 199.16 5.62223L198.581 3.7837ZM191.381 8.95514C190.592 8.7368 189.777 8.58434 188.943 8.50153L188.753 10.4198C189.478 10.4918 190.185 10.6242 190.867 10.813L191.381 8.95514ZM188.972 8.50474C188.481 8.44149 187.977 8.41004 187.489 8.41004V10.3377C187.897 10.3377 188.318 10.3641 188.725 10.4166L188.972 8.50474ZM187.489 8.41004C185.872 8.41004 184.295 8.75946 182.782 9.41498L183.547 11.184C184.839 10.6246 186.156 10.3377 187.489 10.3377V8.41004ZM182.777 9.41682C179.438 10.8818 176.758 13.7345 174.189 18.4741L175.884 19.3928C178.348 14.8476 180.759 12.4071 183.552 11.1821L182.777 9.41682ZM175.097 17.9715C174.83 17.9548 174.569 17.9551 174.343 17.9551V19.8828C174.579 19.8828 174.78 19.8831 174.977 19.8954L175.097 17.9715ZM174.343 17.9551C173.608 17.9551 172.893 18.0177 172.199 18.1257L172.495 20.0305C173.102 19.936 173.718 19.8828 174.343 19.8828V17.9551ZM173.265 18.7847C172.779 17.2655 171.979 15.744 170.758 14.35L169.308 15.6205C170.342 16.8008 171.017 18.085 171.429 19.3715L173.265 18.7847ZM170.757 14.3491C168.369 11.6316 165.007 10.1455 161.312 10.1455V12.0732C164.472 12.0732 167.3 13.3349 169.309 15.6214L170.757 14.3491ZM161.312 10.1455C160.102 10.1455 158.849 10.3006 157.599 10.6247L158.083 12.4907C159.176 12.2074 160.266 12.0732 161.312 12.0732V10.1455ZM157.601 10.6241C153.597 11.6519 150.01 14.1469 147.498 17.6485L149.065 18.7722C151.325 15.6211 154.535 13.4014 158.081 12.4913L157.601 10.6241ZM147.5 17.6465C140.001 28.0423 139.181 35.9451 140.459 41.3965L142.336 40.9564C141.213 36.1685 141.811 28.8281 149.063 18.7742L147.5 17.6465ZM140.538 40.7392C137.149 47.399 136.998 53.2249 137.983 57.7111L139.866 57.2976C138.971 53.2222 139.08 47.8542 142.256 41.6136L140.538 40.7392ZM138.213 56.8541C136.421 58.8146 135.374 60.8574 134.787 62.5721L136.611 63.1965C137.123 61.7006 138.044 59.8964 139.636 58.1546L138.213 56.8541ZM134.788 62.5698C133.141 67.3431 134.057 71.7434 135.267 74.7687L137.057 74.0528C135.953 71.2932 135.163 67.3922 136.61 63.1988L134.788 62.5698ZM135.369 73.8636C129.641 82.1705 125.675 90.0432 122.932 96.8124L124.719 97.5363C127.414 90.8846 131.316 83.138 136.956 74.9579L135.369 73.8636ZM124.295 96.3323C110.866 88.8542 96.3125 87.9092 89.7671 87.9092V89.8369C96.1799 89.8369 110.348 90.7719 123.357 98.0164L124.295 96.3323ZM89.7671 87.9092C87.3396 87.9092 85.747 88.026 85.4094 88.0582L85.5921 89.9771C85.8619 89.9515 87.3931 89.8369 89.7671 89.8369V87.9092ZM85.4357 88.056C83.4927 88.1875 81.5637 88.3774 79.6632 88.626L79.9131 90.5374C81.7728 90.2942 83.6618 90.1081 85.5658 89.9793L85.4357 88.056ZM80.7092 89.8656C81.9344 85.8908 83.7048 81.6055 85.8646 77.4434L84.1535 76.5556C81.9456 80.8105 80.1294 85.2026 78.8671 89.2978L80.7092 89.8656ZM85.3319 77.9076C88.0785 76.9311 91.0233 75.1256 93.2677 72.174L91.7333 71.0072C89.7547 73.6091 87.146 75.2168 84.6861 76.0913L85.3319 77.9076ZM93.2665 72.1756C95.4133 69.3646 97.6142 64.6165 96.6959 57.511L94.7842 57.758C95.6302 64.3049 93.6081 68.5523 91.7345 71.0056L93.2665 72.1756ZM96.687 57.8141C96.9808 56.2652 98.0615 52.7535 101.997 50.9624L101.198 49.2079C96.4267 51.3796 95.1357 55.6486 94.7931 57.4549L96.687 57.8141ZM101.995 50.963C107.607 48.4179 111.384 42.9224 111.585 36.9424L109.658 36.8777C109.483 42.0915 106.174 46.951 101.199 49.2074L101.995 50.963ZM111.585 36.9419C111.74 32.2486 109.642 27.3651 104.836 24.4039L103.825 26.0451C107.986 28.6086 109.793 32.8074 109.658 36.8783L111.585 36.9419ZM105.275 25.4168C106.973 17.0746 106.387 10.4724 103.225 5.97081L101.647 7.07882C104.357 10.9365 105.044 16.8875 103.386 25.0323L105.275 25.4168ZM103.223 5.96885C100.721 2.42531 96.7873 0.283351 92.4035 0.0664851L92.3083 1.99181C96.1101 2.17989 99.4941 4.02952 101.649 7.08078L103.223 5.96885ZM92.4623 0.0712029C92.1388 0.0352628 91.7934 0.0363833 91.5171 0.0363833V1.96407C91.8192 1.96407 92.0522 1.96519 92.2494 1.98709L92.4623 0.0712029ZM91.5171 0.0363833C89.7126 0.0363833 87.9458 0.464481 86.2845 1.29512L87.1466 3.01929C88.5513 2.31693 90.0241 1.96407 91.5171 1.96407V0.0363833ZM86.2829 1.29595C83.0235 2.93353 80.4851 5.92171 78.1662 10.781L79.906 11.6112C82.1283 6.95437 84.4203 4.38904 87.1483 3.01846L86.2829 1.29595ZM78.972 10.2344C78.7541 10.249 78.5664 10.2612 78.3419 10.2612V12.1889C78.6381 12.1889 78.8842 12.1722 79.1002 12.1578L78.972 10.2344ZM78.2961 10.2623C77.6415 10.2935 77.0021 10.3715 76.364 10.496L76.7332 12.388C77.281 12.2811 77.8276 12.2145 78.3878 12.1878L78.2961 10.2623ZM77.4533 11.1096C76.8902 9.57665 76.0263 8.09978 74.7257 6.75214L73.3386 8.09081C74.4388 9.23069 75.1657 10.4727 75.6439 11.7743L77.4533 11.1096ZM74.7227 6.74908C72.3951 4.35857 69.2221 3.04454 65.8031 3.04454V4.97222C68.7187 4.97222 71.3884 6.08785 73.3416 8.09387L74.7227 6.74908ZM65.8031 3.04454C64.3084 3.04454 62.7505 3.29348 61.1904 3.78292L61.7674 5.62221C63.1576 5.18607 64.5211 4.97222 65.8031 4.97222V3.04454ZM61.1892 3.7833C57.2475 5.02563 53.7999 7.70289 51.4572 11.3233L53.0756 12.3705C55.1874 9.10693 58.2767 6.72239 61.7686 5.62183L61.1892 3.7833ZM51.4561 11.3251C44.517 22.1012 44.0868 30.038 45.6425 35.4136L47.4942 34.8777C46.1285 30.1587 46.3634 22.7944 53.0768 12.3688L51.4561 11.3251ZM45.6889 34.7512C42.6273 41.5763 42.7775 47.4037 43.99 51.8295L45.8492 51.3201C44.7478 47.3 44.5798 41.9336 47.4477 35.5401L45.6889 34.7512ZM44.1773 50.96C42.4742 53.016 41.5515 55.1061 41.0441 56.8437L42.8945 57.3841C43.3416 55.8531 44.1543 54.0095 45.6619 52.1897L44.1773 50.96ZM41.0433 56.8466C39.75 61.3268 40.619 65.3319 41.8149 68.2534L43.5989 67.5231C42.5097 64.8622 41.7589 61.318 42.8953 57.3812L41.0433 56.8466ZM41.9215 67.3296C24.8233 91.3662 21.7222 113.698 21.1796 122.38L23.1035 122.5C23.6311 114.059 26.662 92.1069 43.4923 68.4469L41.9215 67.3296ZM21.3642 121.87C9.59823 137.919 6.42353 153.992 5.96244 156.714L7.86304 157.036C8.29861 154.464 11.4005 138.721 22.9188 123.01L21.3642 121.87ZM5.96901 156.679C-2.99187 199.858 21.338 223.584 34.8485 233.098L35.9584 231.522C22.7714 222.235 -0.884473 199.19 7.85647 157.071L5.96901 156.679ZM34.4858 232.605C35.3901 235.42 36.9052 239.746 39.1188 244.829L40.8861 244.059C38.7031 239.047 37.21 234.782 36.3211 232.015L34.4858 232.605ZM39.0711 244.692L39.3025 245.56L41.1651 245.063L40.9337 244.195L39.0711 244.692ZM39.4034 245.801L40.0252 246.856L41.6862 245.878L41.0643 244.822L39.4034 245.801ZM39.9771 246.763C40.6475 248.25 41.3463 249.72 42.0583 251.173L43.7893 250.325C43.084 248.886 42.3944 247.435 41.7343 245.971L39.9771 246.763ZM42.3059 250.01C40.9944 251.105 39.9149 252.37 39.0385 253.785L40.6771 254.8C41.4494 253.554 42.3947 252.447 43.5417 251.489L42.3059 250.01ZM39.0375 253.786C36.7905 257.428 36.2429 261.789 37.4706 266.07L39.3236 265.539C38.2373 261.75 38.7311 257.954 40.6781 254.799L39.0375 253.786ZM37.471 266.072C39.692 273.776 46.9961 279.119 55.2023 279.119V277.191C47.8181 277.191 41.2963 272.382 39.3232 265.538L37.471 266.072ZM55.2023 279.119C55.7255 279.119 56.2618 279.104 56.791 279.058L56.6217 277.137C56.1675 277.177 55.6915 277.191 55.2023 277.191V279.119ZM56.7936 279.057C57.1094 279.029 57.4459 278.998 57.8 278.952L57.5506 277.04C57.2396 277.081 56.9397 277.108 56.6191 277.138L56.7936 279.057ZM57.2262 278.849C59.5335 280.064 62.1172 280.71 64.7618 280.71V278.782C62.4314 278.782 60.1559 278.213 58.1245 277.143L57.2262 278.849ZM64.7618 280.71C65.9633 280.71 67.1628 280.571 68.3157 280.31L67.8896 278.43C66.8731 278.661 65.8165 278.782 64.7618 278.782V280.71ZM68.3162 280.31C68.9926 280.156 69.6638 279.958 70.3146 279.731L69.6798 277.911C69.0869 278.117 68.4854 278.295 67.889 278.43L68.3162 280.31ZM69.6022 279.7C71.7213 280.652 74.0396 281.158 76.4184 281.158V279.231C74.314 279.231 72.2647 278.783 70.3922 277.941L69.6022 279.7ZM76.4184 281.158C79.9503 281.158 83.4642 280.067 86.8461 277.977L85.833 276.337C82.7069 278.269 79.5392 279.231 76.4184 279.231V281.158ZM86.7155 278.045L93.3392 275.239L92.5874 273.464L85.9636 276.27L86.7155 278.045ZM93.3411 275.238C95.1706 274.459 96.7282 273.187 97.8565 271.598L96.2847 270.482C95.3593 271.785 94.0824 272.827 92.5855 273.465L93.3411 275.238ZM96.2508 271.547C99.5239 276.839 105.448 280.189 112.01 280.189V278.262C106.106 278.262 100.807 275.249 97.8903 270.533L96.2508 271.547ZM112.01 280.189C112.812 280.189 113.622 280.144 114.424 280.036L114.167 278.126C113.464 278.22 112.741 278.262 112.01 278.262V280.189ZM114.431 280.035C115.356 279.903 116.345 279.739 117.342 279.497L116.888 277.624C115.976 277.845 115.056 277.999 114.159 278.127L114.431 280.035ZM116.813 279.475C118.444 280.014 120.166 280.291 121.902 280.291V278.363C120.37 278.363 118.852 278.119 117.417 277.645L116.813 279.475ZM121.902 280.291C123.392 280.291 124.854 280.091 126.272 279.69L125.747 277.835C124.504 278.187 123.218 278.363 121.902 278.363V280.291ZM125.56 279.615C127.766 280.779 130.392 281.563 133.385 281.563V279.636C130.739 279.636 128.419 278.944 126.459 277.91L125.56 279.615ZM134.067 279.918L134.038 279.889L132.675 281.252L132.704 281.281L134.067 279.918ZM133.356 281.534C137.197 281.534 141.012 280.242 144.684 277.769L143.607 276.17C140.193 278.469 136.747 279.607 133.356 279.607V281.534ZM144.694 277.762C145.083 277.492 145.491 277.185 145.789 276.905L144.468 275.501C144.275 275.683 143.959 275.926 143.597 276.177L144.694 277.762ZM145.767 276.925L151.899 271.502L150.622 270.058L144.49 275.481L145.767 276.925ZM151.9 271.501C152.594 270.886 153.216 270.185 153.731 269.398L152.117 268.344C151.706 268.973 151.2 269.545 150.621 270.058L151.9 271.501ZM153.727 269.403C158.165 262.715 157.832 252.014 149.064 244.271L147.788 245.716C155.854 252.84 156.013 262.473 152.121 268.338L153.727 269.403ZM149.111 244.315C147.771 242.961 146.221 240.687 145.628 238.816L143.79 239.398C144.499 241.634 146.247 244.162 147.741 245.671L149.111 244.315ZM145.398 239.781C148.992 236.111 154.633 229.589 159.862 220.338L158.183 219.389C153.055 228.464 147.525 234.854 144.021 238.433L145.398 239.781ZM158.293 220.494C163.119 226.08 168.169 230.232 172.24 233.098L173.35 231.522C169.378 228.726 164.454 224.676 159.752 219.233L158.293 220.494ZM171.877 232.605C172.782 235.42 174.297 239.747 176.51 244.829L178.277 244.059C176.095 239.047 174.601 234.783 173.712 232.016L171.877 232.605ZM176.463 244.693L176.694 245.56L178.557 245.064L178.325 244.196L176.463 244.693ZM176.795 245.801L177.417 246.857L179.078 245.878L178.456 244.823L176.795 245.801ZM177.368 246.764C178.039 248.251 178.738 249.721 179.45 251.174L181.181 250.326C180.475 248.886 179.786 247.435 179.126 245.971L177.368 246.764ZM179.697 250.01C178.386 251.105 177.306 252.371 176.43 253.785L178.069 254.801C178.841 253.554 179.786 252.448 180.933 251.489L179.697 250.01ZM176.429 253.787C174.182 257.429 173.634 261.789 174.862 266.071L176.715 265.539C175.629 261.751 176.122 257.955 178.069 254.799L176.429 253.787ZM174.862 266.072C177.083 273.777 184.387 279.12 192.594 279.12V277.192C185.21 277.192 178.688 272.382 176.715 265.538L174.862 266.072ZM192.594 279.12C193.117 279.12 193.653 279.105 194.182 279.058L194.013 277.138C193.559 277.178 193.083 277.192 192.594 277.192V279.12ZM194.185 279.058C194.501 279.029 194.837 278.999 195.191 278.952L194.942 277.041C194.631 277.081 194.331 277.109 194.01 277.138L194.185 279.058ZM194.618 278.849C196.925 280.065 199.509 280.71 202.153 280.71V278.783C199.823 278.783 197.547 278.214 195.516 277.144L194.618 278.849ZM202.153 280.71C203.355 280.71 204.554 280.572 205.707 280.311L205.281 278.431C204.265 278.661 203.208 278.783 202.153 278.783V280.71ZM205.708 280.31C206.384 280.157 207.055 279.958 207.706 279.731L207.071 277.911C206.478 278.118 205.877 278.295 205.28 278.431L205.708 280.31ZM206.994 279.7C209.113 280.652 211.431 281.159 213.81 281.159V279.231C211.705 279.231 209.656 278.783 207.784 277.942L206.994 279.7ZM213.81 281.159C217.342 281.159 220.856 280.067 224.238 277.978L223.224 276.338C220.098 278.269 216.931 279.231 213.81 279.231V281.159ZM224.107 278.045L230.731 275.24L229.979 273.465L223.355 276.27L224.107 278.045ZM230.732 275.239C232.562 274.459 234.12 273.187 235.248 271.598L233.676 270.482C232.751 271.786 231.474 272.828 229.977 273.465L230.732 275.239ZM233.642 271.547C236.915 276.839 242.839 280.19 249.402 280.19V278.262C243.497 278.262 238.199 275.249 235.282 270.533L233.642 271.547ZM249.402 280.19C250.204 280.19 251.014 280.144 251.815 280.037L251.558 278.126C250.855 278.221 250.132 278.262 249.402 278.262V280.19ZM251.823 280.035C252.748 279.903 253.736 279.739 254.734 279.497L254.28 277.624C253.368 277.845 252.448 277.999 251.55 278.127L251.823 280.035ZM254.204 279.476C255.836 280.014 257.557 280.291 259.294 280.291V278.363C257.761 278.363 256.244 278.119 254.809 277.645L254.204 279.476ZM259.294 280.291C260.783 280.291 262.246 280.091 263.663 279.691L263.139 277.836C261.895 278.187 260.61 278.363 259.294 278.363V280.291ZM262.951 279.616C265.157 280.78 267.783 281.564 270.777 281.564V279.636C268.13 279.636 265.81 278.945 263.851 277.911L262.951 279.616ZM271.459 279.919L271.43 279.89L270.066 281.252L270.095 281.281L271.459 279.919ZM270.748 281.535C274.589 281.535 278.403 280.242 282.075 277.769L280.998 276.17C277.584 278.47 274.138 279.607 270.748 279.607V281.535ZM282.085 277.762C282.475 277.493 282.883 277.186 283.181 276.905L281.859 275.501C281.666 275.684 281.351 275.926 280.988 276.177L282.085 277.762ZM283.159 276.925L289.291 271.502L288.014 270.058L281.882 275.481L283.159 276.925ZM289.291 271.501C289.985 270.886 290.608 270.186 291.122 269.398L289.508 268.344C289.097 268.973 288.592 269.546 288.013 270.059L289.291 271.501ZM291.118 269.404C295.557 262.715 295.223 252.015 286.456 244.271L285.179 245.716C293.246 252.84 293.404 262.473 289.512 268.338L291.118 269.404ZM286.503 244.316C285.162 242.962 283.613 240.688 283.02 238.816L281.182 239.399C281.89 241.635 283.638 244.162 285.133 245.672L286.503 244.316ZM282.789 239.782C286.384 236.111 292.025 229.589 297.254 220.337L295.575 219.389C290.447 228.464 284.916 234.854 281.412 238.433L282.789 239.782ZM310.741 231.522C306.77 228.725 301.846 224.675 297.144 219.233L295.685 220.493C300.511 226.079 305.561 230.231 309.632 233.098L310.741 231.522ZM315.669 244.059C313.486 239.046 311.993 234.782 311.104 232.015L309.269 232.604C310.173 235.42 311.688 239.746 313.902 244.828L315.669 244.059ZM315.948 245.063L315.717 244.195L313.854 244.692L314.086 245.56L315.948 245.063ZM316.469 245.878L315.847 244.822L314.186 245.8L314.808 246.856L316.469 245.878ZM318.572 250.325C317.867 248.886 317.177 247.434 316.517 245.971L314.76 246.763C315.431 248.25 316.129 249.72 316.841 251.173L318.572 250.325ZM315.46 254.8C316.232 253.554 317.178 252.447 318.325 251.489L317.089 250.009C315.777 251.105 314.698 252.37 313.822 253.785L315.46 254.8ZM314.107 265.539C313.02 261.75 313.514 257.954 315.461 254.798L313.821 253.786C311.574 257.428 311.026 261.788 312.254 266.07L314.107 265.539ZM329.985 277.191C322.601 277.191 316.079 272.382 314.106 265.537L312.254 266.071C314.475 273.776 321.779 279.119 329.985 279.119V277.191ZM331.405 277.137C330.951 277.177 330.475 277.191 329.985 277.191V279.119C330.509 279.119 331.045 279.104 331.574 279.057L331.405 277.137ZM332.334 277.04C332.023 277.081 331.723 277.108 331.402 277.137L331.577 279.057C331.893 279.028 332.229 278.998 332.583 278.952L332.334 277.04ZM339.545 278.782C337.215 278.782 334.939 278.213 332.908 277.143L332.009 278.849C334.317 280.064 336.9 280.71 339.545 280.71V278.782ZM342.673 278.43C341.656 278.66 340.6 278.782 339.545 278.782V280.71C340.746 280.71 341.946 280.571 343.099 280.31L342.673 278.43ZM344.463 277.91C343.87 278.117 343.268 278.294 342.672 278.43L343.099 280.31C343.776 280.156 344.447 279.957 345.098 279.73L344.463 277.91ZM351.202 279.23C349.097 279.23 347.048 278.782 345.175 277.941L344.385 279.7C346.504 280.652 348.823 281.158 351.202 281.158V279.23ZM360.616 276.337C357.49 278.268 354.322 279.23 351.202 279.23V281.158C354.733 281.158 358.247 280.066 361.629 277.977L360.616 276.337ZM367.37 273.464L360.747 276.27L361.499 278.045L368.122 275.239L367.37 273.464ZM371.068 270.482C370.142 271.785 368.865 272.827 367.369 273.465L368.124 275.238C369.954 274.459 371.511 273.187 372.64 271.598L371.068 270.482ZM386.793 278.261C380.889 278.261 375.59 275.249 372.673 270.533L371.034 271.547C374.307 276.839 380.231 280.189 386.793 280.189V278.261ZM388.95 278.125C388.247 278.22 387.524 278.261 386.793 278.261V280.189C387.595 280.189 388.406 280.144 389.207 280.036L388.95 278.125ZM391.671 277.623C390.76 277.844 389.839 277.998 388.942 278.127L389.214 280.035C390.139 279.903 391.128 279.739 392.125 279.497L391.671 277.623ZM396.685 278.363C395.153 278.363 393.635 278.119 392.201 277.645L391.596 279.475C393.227 280.014 394.949 280.29 396.685 280.29V278.363ZM400.53 277.835C399.287 278.186 398.001 278.363 396.685 278.363V280.29C398.175 280.29 399.637 280.091 401.055 279.69L400.53 277.835Z" fill="#121212"/>
<path d="M148.774 50.5231L149.685 59.5042L148.123 61.6301L144.783 64.8263L145.332 71.1897L161.805 70.7124L174.401 75.3114L179.232 72.3611L180.606 62.2231L187.692 51.2896L194.157 48.5996L195.719 43.1762L188.155 39.8933L189.5 30.1023L190.498 22.8134L188.502 18.7639L183.787 23.9559L180.649 31.4618L173.346 27.9908L169.47 29.4515L161.631 28.6706L162.673 20.8609L157.322 21.989L151.725 33.6167L151.146 39.4739L148.774 50.5231Z" fill="white"/>
<path d="M54.3351 44.5215L55.7669 53.4447L54.3351 55.6575L51.1968 59.0416L52.1079 65.3616L68.5226 63.9154L81.3795 67.7624L86.0219 64.5373L86.8029 54.3269L93.2386 42.9885L99.5152 39.937L100.759 34.4124L93.0217 31.5922L93.7737 21.7434L94.3522 14.411L92.1106 10.4773L87.714 15.944L85.024 23.609L77.5326 20.5864L73.7435 22.2785L65.876 21.9603L66.4545 14.1073L61.1757 15.5391L56.273 27.4705L56.0561 33.3566L54.3351 44.5215Z" fill="white"/>
<path d="M119.588 105.769L95.4076 98.5955L67.9726 101.618L68.4065 94.7774L78.0095 69.0635L77.619 67.1834L71.2411 64.7537C71.2411 64.7537 58.066 63.698 55.752 66.171C46.0767 76.4971 30.5587 109.963 31.4409 125.365C31.4409 125.365 -0.795495 152.959 24.5135 210.519L43.4301 226.066L47.6242 241.873L55.5495 255.294L52.686 256.032L47.7544 260.385L51.4567 268.903L59.2808 267.573L64.3571 269.858L71.8774 267.182L77.807 270.06L88.9574 265.215L87.1496 260.472L78.6024 240.109H100.657L108.279 255.685L103.478 263.624L108.279 268.961L123.58 269.106L127.514 266.314L131.925 269.829L138.838 270.075L145.36 259.315L136.654 244.997L134.832 234.816L141.296 228.149L154.775 206.18L161.645 178.196L161.428 152.959L154.891 135.011L162.643 99.8103L173.359 75.7595L168.645 72.0138L149.815 71.739L143.639 79.9825L128.078 112.233L119.56 105.754L119.588 105.769Z" fill="#0EF8CF"/>
<path d="M126.819 122.719C126.819 122.719 128.12 98.3209 149.843 71.7537" stroke="#121212" stroke-width="2.57024" stroke-linecap="round" stroke-linejoin="round"/>
<path d="M31.4563 125.365C31.4563 125.365 31.1237 95.7612 55.7674 66.1714" stroke="#121212" stroke-width="2.57024" stroke-linecap="round" stroke-linejoin="round"/>
<path d="M67.9731 101.618C67.5393 93.5339 71.2561 80.8649 78.01 69.0637" stroke="#121212" stroke-width="2.57024" stroke-linecap="round" stroke-linejoin="round"/>
<path d="M45.3533 140.695C45.3533 140.695 50.8634 145.092 51.4853 148.563C52.1072 152.034 59.9602 153.364 59.9602 153.364C59.9602 153.364 55.7806 144.701 49.1424 141.115C47.9131 140.449 46.7706 141.028 45.3677 140.71L45.3533 140.695Z" fill="#121212"/>
<path d="M45.9177 153.191C45.9177 153.191 49.7936 142.879 57.4586 139.712L59.3966 141.447C59.3966 141.447 51.1241 150.024 48.9837 154.304L45.9177 153.176V153.191Z" fill="#121212"/>
<path d="M98.5754 140.696C98.5754 140.696 104.086 145.092 104.707 148.563C105.329 152.034 113.182 153.365 113.182 153.365C113.182 153.365 109.003 144.702 102.365 141.115C101.135 140.45 99.9927 141.028 98.5899 140.71L98.5754 140.696Z" fill="#121212"/>
<path d="M99.1248 153.191C99.1248 153.191 103.001 142.879 110.666 139.712L112.604 141.447C112.604 141.447 104.331 150.024 102.191 154.304L99.1248 153.176V153.191Z" fill="#121212"/>
<path d="M71.2566 158.455C71.2566 158.455 66.1803 153.783 62.9697 158.498C62.2032 159.612 61.8561 160.957 61.8127 162.316C61.6826 166.264 61.885 175.867 66.5853 177.371C66.5853 177.371 69.2608 178.875 72.9342 176.561C72.9342 176.561 79.6013 181.594 83.2747 176.287C83.2747 176.287 92.9355 181.999 96.7536 172.339V156.951C96.7536 156.951 95.5243 152.193 90.2166 155.591C90.2166 155.591 86.2684 149.734 80.8306 155.461C80.8306 155.461 74.0912 151.513 71.2711 158.455H71.2566Z" fill="#6201FF" stroke="#121212" stroke-width="2.57024" stroke-linecap="round" stroke-linejoin="round"/>
<path d="M95.6541 163.892C66.8019 157.905 68.4361 176.822 68.4361 176.822L72.9339 176.547L79.2828 179.063L83.2889 176.272L90.8093 177.82L96.7677 172.324L95.683 163.878L95.6541 163.892Z" fill="white"/>
<path d="M82.03 31.5922C87.9162 8.9877 91.4305 10.4195 91.4305 10.4195C99.8765 10.4195 92.2404 31.5922 92.2404 31.5922" stroke="#121212" stroke-width="2.57024" stroke-linecap="round" stroke-linejoin="round"/>
<path d="M86.0227 61.6156C86.0227 61.6156 85.5165 57.0166 79.7605 55.1365" stroke="#121212" stroke-width="2.57024" stroke-linecap="round" stroke-linejoin="round"/>
<path d="M57.2708 54.3266C57.2708 54.3266 61.8698 51.6511 66.4688 52.8804" stroke="#121212" stroke-width="2.57024" stroke-linecap="round" stroke-linejoin="round"/>
<path d="M177.004 39.4885C184.047 17.2166 187.474 18.8219 187.474 18.8219C195.906 19.2557 187.214 40.0091 187.214 40.0091" fill="white"/>
<path d="M177.004 39.4885C184.047 17.2166 187.474 18.8219 187.474 18.8219C195.906 19.2557 187.214 40.0091 187.214 40.0091" stroke="#121212" stroke-width="2.57024" stroke-linecap="round" stroke-linejoin="round"/>
<path d="M179.463 69.6712C179.463 69.6712 179.202 65.0578 173.548 62.8884L179.463 69.6712Z" fill="white"/>
<path d="M179.463 69.6712C179.463 69.6712 179.202 65.0578 173.548 62.8884" stroke="#121212" stroke-width="2.57024" stroke-linecap="round" stroke-linejoin="round"/>
<path d="M71.2566 158.455C71.2566 158.455 66.1803 153.783 62.9697 158.498C62.2032 159.612 61.8561 160.957 61.8127 162.316C61.6826 166.264 61.885 175.867 66.5853 177.371C66.5853 177.371 69.2608 178.875 72.9342 176.561C72.9342 176.561 79.6013 181.594 83.2747 176.287C83.2747 176.287 92.9355 181.999 96.7536 172.339V156.951C96.7536 156.951 95.5243 152.193 90.2166 155.591C90.2166 155.591 86.2684 149.734 80.8306 155.461C80.8306 155.461 74.0912 151.513 71.2711 158.455H71.2566Z" stroke="#121212" stroke-width="2.57024" stroke-linecap="round" stroke-linejoin="round"/>
<path d="M73.4108 49.7567C73.4108 49.7567 66.4545 48.108 64.5744 41.7735C64.5744 41.7735 59.744 32.7925 75.262 37.4493C76.9975 37.97 74.9294 40.443 76.8673 41.2674L73.4108 49.7567Z" fill="#BFBFBF"/>
<path d="M166.851 56.9009C166.851 56.9009 160.17 54.3556 159.128 47.8331C159.128 47.8331 155.513 38.3024 170.293 44.9406C171.942 45.6782 169.57 47.8765 171.378 48.9322L166.851 56.9009Z" fill="#BFBFBF"/>
<path d="M68.4207 176.837C68.4207 176.837 66.7865 157.92 95.6387 163.907" stroke="#121212" stroke-width="2.57024" stroke-linecap="round" stroke-linejoin="round"/>
<path d="M73.0482 48.3681C75.7671 34.3252 85.9775 36.6392 85.9775 36.6392C88.0167 32.5608 94.4235 32.0112 94.4235 32.0112C99.601 32.286 100.816 34.3541 100.758 36.3644C100.7 38.3746 99.2683 40.2258 97.3738 41.0935C86.3246 46.1264 85.775 57.595 85.775 57.595C87.6118 67.4004 80.2649 68.0078 80.2649 68.0078C66.1787 60.4585 52.6564 66.1711 52.6564 66.1711C52.6564 66.1711 46.2352 58.1446 57.2699 54.3265C57.2699 54.3265 48.9685 47.6594 57.2699 35.0049C57.2699 35.0049 51.2825 30.5939 60.1624 16.8403C61.1024 15.3796 62.4763 14.1937 64.1395 13.6875C66.5691 12.921 69.3748 13.2103 65.8749 23.276" stroke="#121212" stroke-width="2.57024" stroke-linecap="round" stroke-linejoin="round"/>
<path d="M74.9434 23.0592C74.9434 23.0592 66.5264 16.2185 63.5616 29.1478C63.5616 29.1478 61.3923 35.9451 68.2329 39.2135" stroke="#121212" stroke-width="2.35177" stroke-linecap="round" stroke-linejoin="round"/>
<path d="M83.8237 23.0592C83.8237 23.0592 78.8053 17.5202 74.8571 23.0592C70.9089 28.5983 69.6218 35.9596 74.0328 37.4492" stroke="#121212" stroke-width="2.57024" stroke-linecap="round" stroke-linejoin="round"/>
<path d="M170.367 30.6087C170.367 30.6087 162.297 23.3486 158.681 36.1044C158.681 36.1044 156.179 42.7859 162.832 46.4015" stroke="#121212" stroke-width="2.35177" stroke-linecap="round" stroke-linejoin="round"/>
<path d="M179.23 31.0567C179.23 31.0567 174.501 25.2573 170.278 30.5939C166.055 35.9305 164.392 43.205 168.73 44.926" stroke="#121212" stroke-width="2.57024" stroke-linecap="round" stroke-linejoin="round"/>
<path d="M167.185 55.7733C170.627 41.8895 180.692 44.7241 180.692 44.7241C182.934 40.747 189.355 40.53 189.355 40.53C194.504 41.0651 195.618 43.2056 195.458 45.2014C195.299 47.1971 193.781 48.9905 191.843 49.7425C180.562 54.1969 179.42 65.6365 179.42 65.6365C180.75 75.5143 173.389 75.7601 173.389 75.7601C159.708 67.5022 145.911 72.5206 145.911 72.5206C145.911 72.5206 139.909 64.1759 151.117 60.9363C151.117 60.9363 143.163 53.8498 152.101 41.6292C152.101 41.6292 146.345 36.9145 155.904 23.6236C156.917 22.2208 158.363 21.1072 160.04 20.6733C162.513 20.037 165.059 21.0494 161.053 30.9126" stroke="#121212" stroke-width="2.57024" stroke-linecap="round" stroke-linejoin="round"/>
<path d="M78.2113 260.385C67.3067 258.505 71.4285 268.007 71.4285 268.007C71.4285 268.007 74.8416 272.939 81.6099 268.369L89.0002 265.23C90.3162 261.412 87.6407 259.59 86.8453 257.03C84.1987 248.584 79.9178 240.109 79.9178 240.109" stroke="#121212" stroke-width="2.57024" stroke-linecap="round" stroke-linejoin="round"/>
<path d="M135.164 260.776C124.26 258.895 128.381 268.397 128.381 268.397C128.381 268.397 131.794 273.329 138.563 268.759L144.709 263.321C148.455 257.666 141.643 251.823 141.643 251.823C141.643 251.823 133.067 243.652 134.832 234.816C134.832 234.816 158.651 215.219 161.645 178.196C161.645 178.196 166.33 154.073 154.891 135.012C154.891 135.012 160.748 93.1578 173.157 76.1501" stroke="#121212" stroke-width="2.57024" stroke-linecap="round" stroke-linejoin="round"/>
<path d="M73.5261 236.855C73.5261 236.855 80.2655 242.987 100.686 240.123C100.686 240.123 103.275 251.534 108.308 255.699" stroke="#121212" stroke-width="2.57024" stroke-linecap="round" stroke-linejoin="round"/>
<path d="M43.4451 226.066C43.4451 226.066 47.6391 241.874 57.8061 257.681" stroke="#121212" stroke-width="2.57024" stroke-linecap="round" stroke-linejoin="round"/>
<path d="M52.4983 230.738C52.4983 230.738 4.72935 213.166 16.1545 158.455C16.1545 158.455 24.3257 102.92 85.9784 98.4222C85.9784 98.4222 111.938 96.1661 128.107 112.234" stroke="#121212" stroke-width="2.57024" stroke-linecap="round" stroke-linejoin="round"/>
<path d="M286.166 50.5228L287.077 59.5039L285.515 61.6299L282.174 64.826L282.724 71.1894L299.196 70.7122L311.793 75.3112L316.623 72.3609L317.997 62.2228L325.084 51.2893L331.548 48.5993L333.11 43.176L325.546 39.8931L326.891 30.1021L327.889 22.8131L325.894 18.7637L321.179 23.9556L318.041 31.4616L310.737 27.9906L306.861 29.4513L299.023 28.6703L300.064 20.8607L294.713 21.9888L289.116 33.6164L288.537 39.4737L286.166 50.5228Z" fill="white"/>
<path d="M191.728 44.5213L193.16 53.4445L191.728 55.6572L188.59 59.0414L189.501 65.3614L205.916 63.9152L218.773 67.7621L223.415 64.537L224.196 54.3267L230.632 42.9883L236.908 39.9367L238.152 34.4121L230.415 31.592L231.167 21.7432L231.745 14.4108L229.504 10.4771L225.107 15.9438L222.417 23.6088L214.926 20.5862L211.137 22.2783L203.269 21.9601L203.848 14.1071L198.569 15.5388L193.666 27.4702L193.449 33.3564L191.728 44.5213Z" fill="white"/>
<path d="M256.982 105.769L232.801 98.5952L205.366 101.618L205.8 94.7772L215.403 69.0632L215.012 67.1831L208.634 64.7535C208.634 64.7535 195.459 63.6977 193.145 66.1708C183.47 76.4969 167.952 109.963 168.834 125.365C168.834 125.365 136.598 152.959 161.907 210.519L180.823 226.066L185.017 241.873L192.943 255.294L190.079 256.032L185.147 260.385L188.85 268.903L196.674 267.572L201.75 269.857L209.271 267.182L215.2 270.06L226.35 265.215L224.543 260.471L215.995 240.109H238.05L245.672 255.684L240.871 263.624L245.672 268.961L260.973 269.105L264.907 266.314L269.318 269.829L276.231 270.074L282.753 259.314L274.047 244.997L272.225 234.815L278.689 228.148L292.168 206.18L299.038 178.196L298.821 152.959L292.284 135.011L300.036 99.81L310.752 75.7593L306.038 72.0135L287.208 71.7388L281.032 79.9823L265.471 112.233L256.953 105.754L256.982 105.769Z" fill="#6201FF"/>
<path d="M264.212 122.718C264.212 122.718 265.514 98.3206 287.236 71.7534" stroke="#121212" stroke-width="2.57024" stroke-linecap="round" stroke-linejoin="round"/>
<path d="M168.849 125.365C168.849 125.365 168.517 95.761 193.16 66.1711" stroke="#121212" stroke-width="2.57024" stroke-linecap="round" stroke-linejoin="round"/>
<path d="M205.366 101.618C204.932 93.5336 208.649 80.8647 215.403 69.0635" stroke="#121212" stroke-width="2.57024" stroke-linecap="round" stroke-linejoin="round"/>
<path d="M182.747 140.695C182.747 140.695 188.257 145.092 188.879 148.563C189.5 152.033 197.353 153.364 197.353 153.364C197.353 153.364 193.174 144.701 186.536 141.114C185.306 140.449 184.164 141.028 182.761 140.71L182.747 140.695Z" fill="#121212"/>
<path d="M183.311 153.191C183.311 153.191 187.187 142.879 194.852 139.712L196.79 141.447C196.79 141.447 188.517 150.023 186.377 154.304L183.311 153.176V153.191Z" fill="#121212"/>
<path d="M235.968 140.695C235.968 140.695 241.478 145.092 242.1 148.563C242.722 152.034 250.575 153.364 250.575 153.364C250.575 153.364 246.396 144.701 239.757 141.115C238.528 140.449 237.386 141.028 235.983 140.71L235.968 140.695Z" fill="#121212"/>
<path d="M236.518 153.191C236.518 153.191 240.393 142.879 248.058 139.712L249.996 141.447C249.996 141.447 241.724 150.023 239.584 154.304L236.518 153.176V153.191Z" fill="#121212"/>
<path d="M208.65 158.454C208.65 158.454 203.573 153.783 200.363 158.498C199.596 159.611 199.249 160.956 199.206 162.316C199.076 166.264 199.278 175.867 203.978 177.371C203.978 177.371 206.654 178.875 210.327 176.561C210.327 176.561 216.994 181.594 220.668 176.286C220.668 176.286 230.329 181.999 234.147 172.338V156.95C234.147 156.95 232.917 152.192 227.61 155.591C227.61 155.591 223.662 149.734 218.224 155.461C218.224 155.461 211.484 151.513 208.664 158.454H208.65Z" fill="#0EF8CF" stroke="#121212" stroke-width="2.57024" stroke-linecap="round" stroke-linejoin="round"/>
<path d="M233.047 163.892C204.195 157.905 205.829 176.821 205.829 176.821L210.327 176.547L216.676 179.063L220.682 176.272L228.202 177.819L234.161 172.324L233.076 163.878L233.047 163.892Z" fill="white"/>
<path d="M219.423 31.5918C225.309 8.98721 228.823 10.419 228.823 10.419C237.269 10.419 229.633 31.5918 229.633 31.5918" stroke="#121212" stroke-width="2.57024" stroke-linecap="round" stroke-linejoin="round"/>
<path d="M223.416 61.6153C223.416 61.6153 222.91 57.0163 217.154 55.1362" stroke="#121212" stroke-width="2.57024" stroke-linecap="round" stroke-linejoin="round"/>
<path d="M194.664 54.3261C194.664 54.3261 199.263 51.6506 203.862 52.8799" stroke="#121212" stroke-width="2.57024" stroke-linecap="round" stroke-linejoin="round"/>
<path d="M314.395 39.488C321.438 17.2161 324.866 18.8214 324.866 18.8214C333.297 19.2552 324.605 40.0086 324.605 40.0086" fill="white"/>
<path d="M314.395 39.488C321.438 17.2161 324.866 18.8214 324.866 18.8214C333.297 19.2552 324.605 40.0086 324.605 40.0086" stroke="#121212" stroke-width="2.57024" stroke-linecap="round" stroke-linejoin="round"/>
<path d="M316.854 69.6707C316.854 69.6707 316.594 65.0573 310.939 62.8879L316.854 69.6707Z" fill="white"/>
<path d="M316.854 69.6707C316.854 69.6707 316.594 65.0573 310.939 62.8879" stroke="#121212" stroke-width="2.57024" stroke-linecap="round" stroke-linejoin="round"/>
<path d="M208.65 158.454C208.65 158.454 203.573 153.783 200.363 158.498C199.596 159.611 199.249 160.956 199.206 162.316C199.076 166.264 199.278 175.867 203.978 177.371C203.978 177.371 206.654 178.875 210.327 176.561C210.327 176.561 216.994 181.594 220.668 176.286C220.668 176.286 230.329 181.999 234.147 172.338V156.95C234.147 156.95 232.917 152.192 227.61 155.591C227.61 155.591 223.662 149.734 218.224 155.461C218.224 155.461 211.484 151.513 208.664 158.454H208.65Z" stroke="#121212" stroke-width="2.57024" stroke-linecap="round" stroke-linejoin="round"/>
<path d="M210.804 49.7562C210.804 49.7562 203.847 48.1075 201.967 41.773C201.967 41.773 197.137 32.792 212.655 37.4488C214.39 37.9695 212.322 40.4425 214.26 41.2669L210.804 49.7562Z" fill="#BFBFBF"/>
<path d="M304.243 56.9004C304.243 56.9004 297.561 54.3551 296.52 47.8326C296.52 47.8326 292.905 38.3019 307.685 44.9401C309.334 45.6777 306.962 47.876 308.77 48.9317L304.243 56.9004Z" fill="#BFBFBF"/>
<path d="M205.814 176.836C205.814 176.836 204.179 157.92 233.032 163.907" stroke="#121212" stroke-width="2.57024" stroke-linecap="round" stroke-linejoin="round"/>
<path d="M210.441 48.3678C213.16 34.3249 223.371 36.6389 223.371 36.6389C225.41 32.5606 231.817 32.011 231.817 32.011C236.994 32.2858 238.209 34.3539 238.151 36.3641C238.093 38.3744 236.661 40.2256 234.767 41.0933C223.718 46.1262 223.168 57.5948 223.168 57.5948C225.005 67.4002 217.658 68.0076 217.658 68.0076C203.572 60.4583 190.049 66.1709 190.049 66.1709C190.049 66.1709 183.628 58.1443 194.663 54.3263C194.663 54.3263 186.362 47.6592 194.663 35.0047C194.663 35.0047 188.676 30.5937 197.555 16.8401C198.495 15.3794 199.869 14.1935 201.533 13.6873C203.962 12.9208 206.768 13.21 203.268 23.2758" stroke="#121212" stroke-width="2.57024" stroke-linecap="round" stroke-linejoin="round"/>
<path d="M212.336 23.0589C212.336 23.0589 203.919 16.2183 200.954 29.1475C200.954 29.1475 198.785 35.9448 205.626 39.2133" stroke="#121212" stroke-width="2.35177" stroke-linecap="round" stroke-linejoin="round"/>
<path d="M221.217 23.0587C221.217 23.0587 216.198 17.5197 212.25 23.0587C208.302 28.5978 207.015 35.9591 211.426 37.4487" stroke="#121212" stroke-width="2.57024" stroke-linecap="round" stroke-linejoin="round"/>
<path d="M307.759 30.6085C307.759 30.6085 299.689 23.3484 296.074 36.1041C296.074 36.1041 293.572 42.7857 300.225 46.4013" stroke="#121212" stroke-width="2.35177" stroke-linecap="round" stroke-linejoin="round"/>
<path d="M316.622 31.0565C316.622 31.0565 311.892 25.2571 307.669 30.5937C303.447 35.9303 301.783 43.2048 306.122 44.9258" stroke="#121212" stroke-width="2.57024" stroke-linecap="round" stroke-linejoin="round"/>
<path d="M304.577 55.7728C308.019 41.889 318.085 44.7236 318.085 44.7236C320.326 40.7465 326.747 40.5296 326.747 40.5296C331.896 41.0647 333.01 43.2051 332.851 45.2009C332.691 47.1967 331.173 48.99 329.235 49.742C317.954 54.1964 316.812 65.6361 316.812 65.6361C318.142 75.5138 310.781 75.7597 310.781 75.7597C297.1 67.5017 283.303 72.5201 283.303 72.5201C283.303 72.5201 277.301 64.1754 288.509 60.9358C288.509 60.9358 280.555 53.8493 289.493 41.6287C289.493 41.6287 283.737 36.914 293.296 23.6231C294.309 22.2203 295.755 21.1067 297.432 20.6728C299.906 20.0365 302.451 21.0489 298.445 30.9121" stroke="#121212" stroke-width="2.57024" stroke-linecap="round" stroke-linejoin="round"/>
<path d="M215.604 260.385C204.7 258.505 208.822 268.007 208.822 268.007C208.822 268.007 212.235 272.938 219.003 268.368L226.393 265.23C227.709 261.412 225.034 259.59 224.238 257.03C221.592 248.584 217.311 240.109 217.311 240.109" stroke="#121212" stroke-width="2.57024" stroke-linecap="round" stroke-linejoin="round"/>
<path d="M272.558 260.775C261.653 258.895 265.775 268.397 265.775 268.397C265.775 268.397 269.188 273.329 275.957 268.759L282.103 263.321C285.849 257.666 279.037 251.823 279.037 251.823C279.037 251.823 270.461 243.652 272.225 234.816C272.225 234.816 296.045 215.219 299.038 178.196C299.038 178.196 303.724 154.073 292.285 135.011C292.285 135.011 298.142 93.1575 310.55 76.1499" stroke="#121212" stroke-width="2.57024" stroke-linecap="round" stroke-linejoin="round"/>
<path d="M210.919 236.855C210.919 236.855 217.659 242.987 238.079 240.123C238.079 240.123 240.668 251.534 245.701 255.699" stroke="#121212" stroke-width="2.57024" stroke-linecap="round" stroke-linejoin="round"/>
<path d="M180.838 226.066C180.838 226.066 185.032 241.873 195.199 257.681" stroke="#121212" stroke-width="2.57024" stroke-linecap="round" stroke-linejoin="round"/>
<path d="M189.891 230.737C189.891 230.737 142.122 213.166 153.548 158.455C153.548 158.455 161.719 102.92 223.371 98.4219C223.371 98.4219 249.331 96.1658 265.5 112.233" stroke="#121212" stroke-width="2.57024" stroke-linecap="round" stroke-linejoin="round"/>
<path d="M423.556 49.0763L424.467 58.0574L422.905 60.1833L419.564 63.3795L420.114 69.7429L436.587 69.2656L449.183 73.8646L454.014 70.9143L455.388 60.7763L462.474 49.8428L468.939 47.1528L470.501 41.7295L462.937 38.4465L464.282 28.6556L465.28 21.3666L463.284 17.3171L458.569 22.5091L455.431 30.015L448.127 26.5441L444.252 28.0048L436.413 27.2238L437.454 19.4142L432.103 20.5422L426.506 32.1699L425.928 38.0271L423.556 49.0763Z" fill="white"/>
<path d="M329.119 43.0747L330.551 51.9979L329.119 54.2107L325.98 57.5948L326.892 63.9149L343.306 62.4686L356.163 66.3156L360.806 63.0905L361.587 52.8801L368.022 41.5417L374.299 38.4902L375.543 32.9656L367.805 30.1454L368.557 20.2966L369.136 12.9643L366.894 9.03052L362.498 14.4973L359.808 22.1623L352.316 19.1396L348.527 20.8317L340.66 20.5136L341.238 12.6605L335.959 14.0923L331.057 26.0237L330.84 31.9098L329.119 43.0747Z" fill="white"/>
<path d="M394.372 104.322L370.191 97.1487L342.756 100.171L343.19 93.3306L352.793 67.6167L352.402 65.7366L346.024 63.307C346.024 63.307 332.849 62.2512 330.535 64.7243C320.86 75.0503 305.342 108.516 306.224 123.918C306.224 123.918 273.988 151.512 299.297 209.072L318.213 224.619L322.407 240.426L330.333 253.847L327.469 254.585L322.538 258.938L326.24 267.456L334.064 266.126L339.14 268.411L346.661 265.735L352.59 268.613L363.741 263.769L361.933 259.025L353.386 238.662H375.441L383.062 254.238L378.261 262.178L383.062 267.514L398.363 267.659L402.297 264.868L406.708 268.382L413.621 268.628L420.143 257.868L411.437 243.55L409.615 233.369L416.08 226.702L429.558 204.734L436.428 176.749L436.211 151.512L429.674 133.565L437.426 98.3635L448.142 74.3127L443.428 70.567L424.598 70.2922L418.422 78.5357L402.861 110.787L394.343 104.308L394.372 104.322Z" fill="#0EF8CF"/>
<path d="M401.603 121.272C401.603 121.272 402.904 96.8741 424.626 70.3069" stroke="#121212" stroke-width="2.57024" stroke-linecap="round" stroke-linejoin="round"/>
<path d="M306.24 123.919C306.24 123.919 305.907 94.3144 330.551 64.7246" stroke="#121212" stroke-width="2.57024" stroke-linecap="round" stroke-linejoin="round"/>
<path d="M342.757 100.172C342.323 92.0874 346.04 79.4184 352.793 67.6172" stroke="#121212" stroke-width="2.57024" stroke-linecap="round" stroke-linejoin="round"/>
<path d="M320.137 139.249C320.137 139.249 325.647 143.645 326.269 147.116C326.891 150.587 334.744 151.918 334.744 151.918C334.744 151.918 330.564 143.255 323.926 139.668C322.697 139.003 321.554 139.581 320.151 139.263L320.137 139.249Z" fill="#121212"/>
<path d="M320.701 151.744C320.701 151.744 324.577 141.432 332.242 138.265L334.18 140.001C334.18 140.001 325.908 148.577 323.767 152.858L320.701 151.73V151.744Z" fill="#121212"/>
<path d="M373.359 139.249C373.359 139.249 378.869 143.645 379.491 147.116C380.113 150.587 387.966 151.918 387.966 151.918C387.966 151.918 383.786 143.255 377.148 139.668C375.918 139.003 374.776 139.581 373.373 139.263L373.359 139.249Z" fill="#121212"/>
<path d="M373.908 151.744C373.908 151.744 377.784 141.432 385.449 138.265L387.387 140.001C387.387 140.001 379.115 148.577 376.974 152.858L373.908 151.73V151.744Z" fill="#121212"/>
<path d="M346.04 157.008C346.04 157.008 340.964 152.337 337.753 157.052C336.986 158.165 336.639 159.51 336.596 160.87C336.466 164.818 336.668 174.421 341.368 175.925C341.368 175.925 344.044 177.429 347.717 175.115C347.717 175.115 354.385 180.148 358.058 174.84C358.058 174.84 367.719 180.553 371.537 170.892V155.504C371.537 155.504 370.307 150.746 365 154.145C365 154.145 361.052 148.287 355.614 154.014C355.614 154.014 348.874 150.066 346.054 157.008H346.04Z" fill="#6201FF" stroke="#121212" stroke-width="2.57024" stroke-linecap="round" stroke-linejoin="round"/>
<path d="M370.438 162.446C341.585 156.459 343.22 175.375 343.22 175.375L347.717 175.1L354.066 177.617L358.072 174.826L365.593 176.373L371.551 170.877L370.466 162.431L370.438 162.446Z" fill="white"/>
<path d="M356.813 30.1452C362.699 7.54068 366.213 8.97245 366.213 8.97245C374.659 8.97245 367.023 30.1452 367.023 30.1452" stroke="#121212" stroke-width="2.57024" stroke-linecap="round" stroke-linejoin="round"/>
<path d="M360.806 60.1688C360.806 60.1688 360.3 55.5698 354.544 53.6897" stroke="#121212" stroke-width="2.57024" stroke-linecap="round" stroke-linejoin="round"/>
<path d="M332.053 52.8801C332.053 52.8801 336.652 50.2046 341.251 51.4339" stroke="#121212" stroke-width="2.57024" stroke-linecap="round" stroke-linejoin="round"/>
<path d="M451.787 38.0417C458.83 15.7698 462.258 17.3751 462.258 17.3751C470.689 17.809 461.997 38.5623 461.997 38.5623" fill="white"/>
<path d="M451.787 38.0417C458.83 15.7698 462.258 17.3751 462.258 17.3751C470.689 17.809 461.997 38.5623 461.997 38.5623" stroke="#121212" stroke-width="2.57024" stroke-linecap="round" stroke-linejoin="round"/>
<path d="M454.246 68.2245C454.246 68.2245 453.986 63.611 448.331 61.4417L454.246 68.2245Z" fill="white"/>
<path d="M454.246 68.2245C454.246 68.2245 453.986 63.611 448.331 61.4417" stroke="#121212" stroke-width="2.57024" stroke-linecap="round" stroke-linejoin="round"/>
<path d="M346.04 157.008C346.04 157.008 340.964 152.337 337.753 157.052C336.986 158.165 336.639 159.51 336.596 160.87C336.466 164.818 336.668 174.421 341.368 175.925C341.368 175.925 344.044 177.429 347.717 175.115C347.717 175.115 354.385 180.148 358.058 174.84C358.058 174.84 367.719 180.553 371.537 170.892V155.504C371.537 155.504 370.307 150.746 365 154.145C365 154.145 361.052 148.287 355.614 154.014C355.614 154.014 348.874 150.066 346.054 157.008H346.04Z" stroke="#121212" stroke-width="2.57024" stroke-linecap="round" stroke-linejoin="round"/>
<path d="M348.194 48.3097C348.194 48.3097 341.237 46.661 339.357 40.3265C339.357 40.3265 334.527 31.3454 350.045 36.0023C351.78 36.5229 349.712 38.996 351.65 39.8203L348.194 48.3097Z" fill="#BFBFBF"/>
<path d="M441.634 55.4544C441.634 55.4544 434.952 52.909 433.911 46.3865C433.911 46.3865 430.295 36.8559 445.076 43.4941C446.725 44.2317 444.353 46.4299 446.161 47.4857L441.634 55.4544Z" fill="#BFBFBF"/>
<path d="M343.204 175.39C343.204 175.39 341.57 156.473 370.422 162.461" stroke="#121212" stroke-width="2.57024" stroke-linecap="round" stroke-linejoin="round"/>
<path d="M347.832 46.9213C350.551 32.8784 360.761 35.1924 360.761 35.1924C362.8 31.114 369.207 30.5644 369.207 30.5644C374.384 30.8392 375.599 32.9073 375.541 34.9176C375.484 36.9279 374.052 38.779 372.157 39.6468C361.108 44.6796 360.558 56.1482 360.558 56.1482C362.395 65.9536 355.048 66.5611 355.048 66.5611C340.962 59.0117 327.44 64.7243 327.44 64.7243C327.44 64.7243 321.019 56.6978 332.053 52.8797C332.053 52.8797 323.752 46.2126 332.053 33.5581C332.053 33.5581 326.066 29.1471 334.946 15.3935C335.886 13.9328 337.26 12.7469 338.923 12.2407C341.353 11.4742 344.158 11.7635 340.658 21.8292" stroke="#121212" stroke-width="2.57024" stroke-linecap="round" stroke-linejoin="round"/>
<path d="M349.726 21.6126C349.726 21.6126 341.309 14.772 338.345 27.7013C338.345 27.7013 336.175 34.4985 343.016 37.767" stroke="#121212" stroke-width="2.35177" stroke-linecap="round" stroke-linejoin="round"/>
<path d="M358.607 21.6122C358.607 21.6122 353.588 16.0731 349.64 21.6122C345.692 27.1512 344.405 34.5125 348.816 36.0022" stroke="#121212" stroke-width="2.57024" stroke-linecap="round" stroke-linejoin="round"/>
<path d="M445.15 29.1619C445.15 29.1619 437.08 21.9019 433.464 34.6576C433.464 34.6576 430.962 41.3392 437.615 44.9547" stroke="#121212" stroke-width="2.35177" stroke-linecap="round" stroke-linejoin="round"/>
<path d="M454.013 29.6099C454.013 29.6099 449.284 23.8106 445.061 29.1472C440.838 34.4837 439.175 41.7583 443.514 43.4793" stroke="#121212" stroke-width="2.57024" stroke-linecap="round" stroke-linejoin="round"/>
<path d="M441.967 54.326C445.409 40.4422 455.475 43.2768 455.475 43.2768C457.717 39.2997 464.138 39.0828 464.138 39.0828C469.286 39.6179 470.4 41.7583 470.241 43.7541C470.082 45.7499 468.563 47.5432 466.625 48.2952C455.345 52.7496 454.202 64.1893 454.202 64.1893C455.533 74.067 448.172 74.3129 448.172 74.3129C434.49 66.0549 420.693 71.0733 420.693 71.0733C420.693 71.0733 414.691 62.7286 425.9 59.489C425.9 59.489 417.945 52.4025 426.883 40.1819C426.883 40.1819 421.127 35.4672 430.687 22.1764C431.699 20.7735 433.145 19.6599 434.823 19.2261C437.296 18.5897 439.841 19.6021 435.835 29.4654" stroke="#121212" stroke-width="2.57024" stroke-linecap="round" stroke-linejoin="round"/>
<path d="M352.995 258.939C342.09 257.059 346.212 266.56 346.212 266.56C346.212 266.56 349.625 271.492 356.394 266.922L363.784 263.784C365.1 259.966 362.424 258.143 361.629 255.583C358.982 247.137 354.702 238.663 354.702 238.663" stroke="#121212" stroke-width="2.57024" stroke-linecap="round" stroke-linejoin="round"/>
<path d="M409.948 259.329C399.044 257.449 403.165 266.951 403.165 266.951C403.165 266.951 406.578 271.882 413.347 267.312L419.493 261.874C423.239 256.22 416.427 250.377 416.427 250.377C416.427 250.377 407.851 242.206 409.615 233.369C409.615 233.369 433.435 213.773 436.429 176.749C436.429 176.749 441.114 152.626 429.675 133.565C429.675 133.565 435.532 91.7113 447.941 74.7036" stroke="#121212" stroke-width="2.57024" stroke-linecap="round" stroke-linejoin="round"/>
<path d="M348.31 235.408C348.31 235.408 355.049 241.54 375.47 238.677C375.47 238.677 378.058 250.087 383.091 254.253" stroke="#121212" stroke-width="2.57024" stroke-linecap="round" stroke-linejoin="round"/>
<path d="M318.228 224.62C318.228 224.62 322.422 240.427 332.589 256.234" stroke="#121212" stroke-width="2.57024" stroke-linecap="round" stroke-linejoin="round"/>
<path d="M327.281 229.291C327.281 229.291 279.513 211.719 290.938 157.008C290.938 157.008 299.109 101.473 360.762 96.9754C360.762 96.9754 386.721 94.7193 402.89 110.787" stroke="#121212" stroke-width="2.57024" stroke-linecap="round" stroke-linejoin="round"/>
</g>
<defs>
<filter id="filter0_d_897_33721" x="0.616517" y="0.0361328" width="497.535" height="304.602" filterUnits="userSpaceOnUse" color-interpolation-filters="sRGB">
<feFlood flood-opacity="0" result="BackgroundImageFix"/>
<feColorMatrix in="SourceAlpha" type="matrix" values="0 0 0 0 0 0 0 0 0 0 0 0 0 0 0 0 0 0 127 0" result="hardAlpha"/>
<feOffset dx="6.83679" dy="12.819"/>
<feGaussianBlur stdDeviation="5.12759"/>
<feComposite in2="hardAlpha" operator="out"/>
<feColorMatrix type="matrix" values="0 0 0 0 0 0 0 0 0 0 0 0 0 0 0 0 0 0 0.12 0"/>
<feBlend mode="normal" in2="BackgroundImageFix" result="effect1_dropShadow_897_33721"/>
<feBlend mode="normal" in="SourceGraphic" in2="effect1_dropShadow_897_33721" result="shape"/>
</filter>
</defs>
</svg>
