<svg width="100%" height="100%" viewBox="0 0 316 216" fill="none" xmlns="http://www.w3.org/2000/svg">
<path d="M272 114L237.776 135.5" stroke="black" stroke-width="2" stroke-dasharray="4 4"/>
<path d="M153.352 125.082L121 105" stroke="black" stroke-width="2" stroke-dasharray="4 4"/>
<rect x="199" y="22" width="117" height="37" fill="black"/>
<rect x="5" y="169" width="117" height="37" fill="black"/>
<rect x="194.5" y="16.5" width="116" height="36" fill="white" stroke="black"/>
<rect x="0.5" y="163.5" width="116" height="36" fill="white" stroke="black"/>
<path d="M223.236 31.165V32.455H225.726V35.95H227.211V28.75H225.726V31.165H223.236ZM219.666 33.04L223.431 35.455L224.166 34.345L220.221 31.855C220.371 31.375 220.476 30.88 220.506 30.355H223.746V29.08H215.571V30.355H219.021C218.841 32.44 217.521 33.955 215.406 34.24V35.575C217.296 35.395 218.781 34.435 219.666 33.04ZM221.781 36.37C218.676 36.37 216.246 37.09 216.246 38.965C216.246 40.84 218.676 41.56 221.781 41.56C224.886 41.56 227.316 40.84 227.316 38.965C227.316 37.09 224.886 36.37 221.781 36.37ZM221.781 40.345C219.576 40.345 217.821 39.91 217.821 38.965C217.821 38.02 219.576 37.585 221.781 37.585C223.986 37.585 225.741 38.02 225.741 38.965C225.741 39.91 223.986 40.345 221.781 40.345ZM241.175 31.66V28.75H239.69V38.26H241.175V33.085H242.975V31.66H241.175ZM233.87 33.31L237.605 36.19L238.505 35.125L234.455 32.065C234.8 31.105 234.98 30.055 234.98 28.96L233.495 28.87C233.465 31.855 232.04 34.495 229.61 34.93V36.325C231.47 36.085 232.94 34.93 233.87 33.31ZM231.965 37.315H230.465V41.395H241.52V40.045H231.965V37.315ZM260.168 28.75H258.683V38.26H260.168V28.75ZM252.863 33.49L256.553 36.22L257.378 35.125L253.403 32.23C253.568 31.66 253.688 31.03 253.703 30.37H257.003V29.08H248.708V30.37H252.218C252.068 32.86 250.703 34.66 248.543 34.96V36.325C250.448 36.13 251.978 35.08 252.863 33.49ZM250.808 40.045V37.315H249.308V41.395H260.513V40.045H250.808ZM269.226 29.875H266.616V28.57H265.131V29.875H262.416V31.015H269.226V29.875ZM271.536 33.085H273.576V36.685H274.956V28.75H273.576V31.75H271.536V28.825H270.156V36.235H271.536V33.085ZM268.911 34.075C268.911 32.62 267.591 31.735 265.896 31.735C264.201 31.735 262.881 32.62 262.881 34.075C262.881 35.53 264.201 36.415 265.896 36.415C267.591 36.415 268.911 35.53 268.911 34.075ZM264.216 34.075C264.216 33.37 264.876 32.815 265.896 32.815C266.916 32.815 267.576 33.37 267.576 34.075C267.576 34.78 266.916 35.335 265.896 35.335C264.876 35.335 264.216 34.78 264.216 34.075ZM269.391 36.94C266.226 36.94 263.676 37.54 263.676 39.25C263.676 40.945 266.226 41.56 269.391 41.56C272.556 41.56 275.106 40.945 275.106 39.25C275.106 37.54 272.556 36.94 269.391 36.94ZM269.391 40.405C267.126 40.405 265.236 40.045 265.236 39.25C265.236 38.455 267.126 38.095 269.391 38.095C271.656 38.095 273.546 38.455 273.546 39.25C273.546 40.045 271.656 40.405 269.391 40.405ZM288.935 33.685L289.325 32.515L284.105 31.045C284.285 30.76 284.405 30.445 284.45 30.1H288.98V28.9H277.94V30.1H282.935C282.515 31.585 279.965 32.35 277.73 32.41V33.625C279.8 33.58 281.945 33.07 283.25 32.02L288.935 33.685ZM289.865 35.74V34.54H277.07V35.74H282.725V36.955C279.995 37.045 277.835 37.645 277.835 39.25C277.835 41.005 280.4 41.59 283.46 41.59C286.52 41.59 289.085 41.005 289.085 39.25C289.085 37.645 286.925 37.045 284.195 36.955V35.74H289.865ZM287.525 39.25C287.525 40.135 285.53 40.42 283.46 40.42C281.39 40.42 279.41 40.135 279.41 39.25C279.41 38.38 281.39 38.11 283.46 38.11C285.53 38.11 287.525 38.38 287.525 39.25Z" fill="#121212"/>
<path d="M25.9538 188.245H34.3088V186.88H28.2188L31.3688 183.79C33.1688 181.945 33.9038 180.85 33.9038 179.56C33.9038 177.4 32.3138 175.945 29.8988 175.945C27.3938 175.945 25.8188 177.73 25.8188 179.905H27.3938C27.3938 178.57 28.2638 177.34 29.8838 177.34C31.3838 177.34 32.3438 178.165 32.3438 179.575C32.3438 180.43 31.7438 181.405 30.2138 182.95L25.9538 187.225V188.245ZM37.0875 188.245H38.7525L43.7925 177.28V176.23H35.5575V177.61H41.9775L37.0875 188.245ZM55.706 182.83H57.176V175.75H55.706V176.875H53.606V178.165H55.706V179.65H53.606V180.94H55.706V182.83ZM52.856 176.065H45.656V182.095H52.856V176.065ZM51.386 180.82H47.111V177.325H51.386V180.82ZM51.746 183.25C48.641 183.25 46.211 183.985 46.211 185.905C46.211 187.825 48.641 188.56 51.746 188.56C54.851 188.56 57.296 187.825 57.296 185.905C57.296 183.985 54.851 183.25 51.746 183.25ZM51.746 187.33C49.541 187.33 47.786 186.895 47.786 185.905C47.786 184.93 49.541 184.48 51.746 184.48C53.951 184.48 55.706 184.93 55.706 185.905C55.706 186.895 53.951 187.33 51.746 187.33ZM74.6688 175.75V188.56H76.0638V175.75H74.6688ZM71.6388 178.72H69.4938C69.0738 176.89 68.1888 176.05 66.8688 176.05C64.9338 176.05 63.9138 177.865 63.9138 182.005C63.9138 186.145 64.9338 187.96 66.8688 187.96C68.2788 187.96 69.1938 186.985 69.5988 184.855H71.6388V188.335H73.0038V175.825H71.6388V178.72ZM66.8688 186.61C65.8038 186.61 65.3088 185.155 65.3088 182.005C65.3088 178.855 65.8038 177.4 66.8688 177.4C67.9338 177.4 68.4138 178.855 68.4138 182.005C68.4138 185.155 67.9338 186.61 66.8688 186.61ZM69.7638 183.49C69.7938 183.04 69.8088 182.545 69.8088 182.005C69.8088 181.3 69.7788 180.655 69.7188 180.085H71.6388V183.49H69.7638ZM89.0825 175.75V180.91H86.9975V175.825H85.5875V188.335H86.9975V182.32H89.0825V188.56H90.4925V175.75H89.0825ZM78.5675 187.795H84.0575V176.215H78.5675V187.795ZM79.9775 177.565H82.6625V186.445H79.9775V177.565Z" fill="#121212"/>
<path d="M16.5 69C16.5 36.6913 42.6913 10.5 75 10.5C107.309 10.5 133.5 36.6913 133.5 69C133.5 101.309 107.309 127.5 75 127.5C42.6914 127.5 16.5 101.309 16.5 69Z" stroke="#6B36DC"/>
<mask id="path-10-inside-1_1946_38260" fill="white">
<path d="M16 69C16 80.6691 19.4603 92.0762 25.9433 101.779C32.4263 111.481 41.6408 119.043 52.4217 123.509C63.2025 127.974 75.0655 129.143 86.5103 126.866C97.9552 124.59 108.468 118.971 116.719 110.719C124.971 102.468 130.59 91.9552 132.866 80.5103C135.143 69.0654 133.974 57.2025 129.509 46.4217C125.043 35.6408 117.481 26.4263 107.779 19.9433C98.0761 13.4603 86.6691 10 75 10L75 69L16 69Z"/>
</mask>
<path d="M16 69C16 80.6691 19.4603 92.0762 25.9433 101.779C32.4263 111.481 41.6408 119.043 52.4217 123.509C63.2025 127.974 75.0655 129.143 86.5103 126.866C97.9552 124.59 108.468 118.971 116.719 110.719C124.971 102.468 130.59 91.9552 132.866 80.5103C135.143 69.0654 133.974 57.2025 129.509 46.4217C125.043 35.6408 117.481 26.4263 107.779 19.9433C98.0761 13.4603 86.6691 10 75 10L75 69L16 69Z" fill="#9568F7" stroke="#6B36DC" stroke-width="2" mask="url(#path-10-inside-1_1946_38260)"/>
<circle cx="75.5" cy="69.5" r="31" fill="#6B36DC" stroke="white"/>
<path d="M74.1875 75.625C74.1875 75.625 72.875 75.625 72.875 74.4375C72.875 73.25 74.1875 69.6875 79.4375 69.6875C84.6875 69.6875 86 73.25 86 74.4375C86 75.625 84.6875 75.625 84.6875 75.625H74.1875Z" fill="white"/>
<path d="M79.4375 68.5C81.6121 68.5 83.375 66.905 83.375 64.9375C83.375 62.97 81.6121 61.375 79.4375 61.375C77.2629 61.375 75.5 62.97 75.5 64.9375C75.5 66.905 77.2629 68.5 79.4375 68.5Z" fill="white"/>
<path fill-rule="evenodd" clip-rule="evenodd" d="M71.8465 75.625C71.6617 75.2876 71.5625 74.8877 71.5625 74.4375C71.5625 72.8279 72.4538 71.1725 74.1034 70.02C73.3818 69.8111 72.5404 69.6875 71.5625 69.6875C66.3125 69.6875 65 73.25 65 74.4375C65 75.625 66.3125 75.625 66.3125 75.625H71.8465Z" fill="white"/>
<path d="M70.9062 68.5C72.7184 68.5 74.1875 67.1708 74.1875 65.5312C74.1875 63.8917 72.7184 62.5625 70.9062 62.5625C69.0941 62.5625 67.625 63.8917 67.625 65.5312C67.625 67.1708 69.0941 68.5 70.9062 68.5Z" fill="white"/>
<path d="M148.5 144.5C148.5 119.647 168.647 99.5 193.5 99.5C218.353 99.5 238.5 119.647 238.5 144.5C238.5 169.353 218.353 189.5 193.5 189.5C168.647 189.5 148.5 169.353 148.5 144.5Z" stroke="#6B36DC"/>
<circle cx="194" cy="145" r="23.5" fill="#6B36DC" stroke="white"/>
<circle cx="292" cy="101" r="23.5" fill="white" stroke="#6B36DC"/>
<path fill-rule="evenodd" clip-rule="evenodd" d="M186 141.219C186 140.442 186.672 139.812 187.5 139.812H200.5C201.328 139.812 202 140.442 202 141.219V142.625C202 142.884 201.776 143.094 201.5 143.094C200.672 143.094 200 143.723 200 144.5C200 145.277 200.672 145.906 201.5 145.906C201.776 145.906 202 146.116 202 146.375V147.781C202 148.558 201.328 149.188 200.5 149.188H187.5C186.672 149.188 186 148.558 186 147.781V146.375C186 146.116 186.224 145.906 186.5 145.906C187.328 145.906 188 145.277 188 144.5C188 143.723 187.328 143.094 186.5 143.094C186.224 143.094 186 142.884 186 142.625V141.219ZM190 140.281V141.219H191V140.281H190ZM191 143.094H190V142.156H191V143.094ZM198 143.094H197V142.156H198V143.094ZM197 141.219V140.281H198V141.219H197ZM191 144.031H190V144.969H191V144.031ZM198 144.969H197V144.031H198V144.969ZM191 145.906H190V146.844H191V145.906ZM198 146.844H197V145.906H198V146.844ZM190 147.781V148.719H191V147.781H190ZM197 148.719V147.781H198V148.719H197Z" fill="white"/>
<path d="M292.2 93.9375C291.092 93.9375 290.194 94.777 290.194 95.8125V97.6875H289.191V95.8125C289.191 94.2592 290.538 93 292.2 93C293.862 93 295.209 94.2592 295.209 95.8125V97.6875H294.206V95.8125C294.206 94.777 293.308 93.9375 292.2 93.9375Z" fill="#6B36DC"/>
<path d="M289.191 97.6875H287.547C286.802 97.6875 286.17 98.1968 286.059 98.8851L285.028 105.309C284.801 106.726 285.975 108 287.508 108H296.892C298.425 108 299.599 106.726 299.372 105.309L298.341 98.8851C298.23 98.1968 297.598 97.6875 296.853 97.6875H295.209V99.0938C295.209 99.3526 294.985 99.5625 294.708 99.5625C294.431 99.5625 294.206 99.3526 294.206 99.0938V97.6875H290.194V99.0938C290.194 99.3526 289.969 99.5625 289.692 99.5625C289.415 99.5625 289.191 99.3526 289.191 99.0938V97.6875Z" fill="#6B36DC"/>
</svg>
