<svg width="344" height="210" viewBox="0 0 344 210" fill="none" xmlns="http://www.w3.org/2000/svg">
<g filter="url(#filter0_d_1931_37974)">
<path fill-rule="evenodd" clip-rule="evenodd" d="M276.417 192.179C277.85 192.935 279.552 193.443 281.493 193.443L281.474 193.423C283.962 193.423 286.461 192.587 288.899 190.945C289.158 190.765 289.407 190.576 289.576 190.417L293.797 186.684C294.235 186.296 294.623 185.858 294.941 185.37C297.808 181.05 297.639 174.052 291.846 168.936C290.87 167.951 289.735 166.298 289.288 164.885C294.434 159.629 305.801 145.723 307.663 123.973C308.161 121.087 310.36 105.787 303.333 92.1499C304.935 82.3252 308.499 66.299 313.386 58.2661C314.89 57.5892 316.233 56.6037 317.288 55.3495C318.762 53.6075 320.364 50.5914 320.006 45.8632C320.275 44.7185 321.23 42.0906 324.296 40.8762C328.019 39.413 330.637 35.9788 330.965 32.1365C331.224 29.1204 330.04 25.9351 327.053 23.8746C328.487 18.2604 328.278 13.9304 326.406 10.9541C324.923 8.60495 322.475 7.10188 319.667 6.82316C319.359 6.78335 319.04 6.76344 318.732 6.76344C317.716 6.76344 316.721 6.98243 315.756 7.4005C313.645 8.32623 311.893 10.1478 310.161 13.3431C310.002 13.3332 309.843 13.3332 309.683 13.3332C309.216 13.3332 308.758 13.373 308.31 13.4427C308.001 12.4771 307.494 11.5116 306.717 10.6256C305.204 8.90357 303.074 7.95793 300.715 7.95793C299.938 7.95793 299.132 8.05747 298.326 8.26651C295.728 8.93344 293.389 10.556 291.746 12.8454C286.67 19.883 286.182 25.1288 287.008 28.6526C284.748 33.0921 284.659 36.9443 285.306 39.8908C284.141 41.1649 283.464 42.4888 283.086 43.5937C282.021 46.6795 282.608 49.5363 283.405 51.5271C279.493 57.201 276.785 62.5762 274.914 67.1949C265.816 62.1283 255.931 61.4812 251.472 61.4812C249.819 61.4812 248.744 61.5609 248.535 61.5808C247.211 61.6704 245.897 61.7998 244.603 61.969C245.46 59.1918 246.694 56.2056 248.197 53.3089C249.989 52.6719 251.9 51.4973 253.353 49.5861C254.737 47.7744 256.19 44.6787 255.583 39.9803C255.802 38.8257 256.618 36.148 259.614 34.7843C263.257 33.1319 265.696 29.5683 265.826 25.7161C265.925 22.7 264.581 19.5744 261.496 17.6732C262.65 11.9993 262.212 7.67922 260.192 4.80248C258.589 2.53294 256.071 1.15927 253.254 1.01991C253.074 1 252.875 1 252.676 1C251.541 1 250.427 1.26876 249.371 1.79633C247.311 2.83156 245.649 4.74275 244.086 8.01766C243.937 8.02761 243.787 8.03757 243.608 8.03757C243.19 8.05747 242.782 8.10724 242.374 8.18688C242.015 7.21137 241.468 6.27569 240.642 5.41963C239.169 3.9066 237.158 3.07046 234.978 3.07046C234.022 3.07046 233.017 3.22972 232.002 3.54826C229.958 4.1924 228.111 5.43375 226.669 7.11496C226.163 6.97491 225.64 6.87693 225.103 6.82367C224.795 6.78385 224.476 6.76394 224.168 6.76394C223.152 6.76394 222.157 6.98293 221.191 7.401C219.081 8.32674 217.329 10.1483 215.597 13.3436C215.438 13.3337 215.279 13.3337 215.119 13.3337C214.652 13.3337 214.194 13.3735 213.746 13.4432C213.437 12.4776 212.929 11.5121 212.153 10.6261C210.64 8.90408 208.51 7.95844 206.151 7.95844C205.374 7.95844 204.568 8.05798 203.762 8.26701C201.164 8.93394 198.824 10.5565 197.182 12.8459C192.105 19.8835 191.618 25.1293 192.444 28.6531C190.184 33.0926 190.095 36.9448 190.742 39.8913C189.577 41.1654 188.9 42.4893 188.522 43.5942C187.457 46.68 188.044 49.5368 188.84 51.5276C184.929 57.2015 182.221 62.5767 180.35 67.1954C171.252 62.1288 161.367 61.4818 156.908 61.4818C155.255 61.4818 154.18 61.5614 153.971 61.5813C152.647 61.6709 151.333 61.8003 150.039 61.9695C150.895 59.1923 152.13 56.2061 153.633 53.3094C155.424 52.6724 157.336 51.4978 158.789 49.5866C160.173 47.7749 161.626 44.6792 161.019 39.9808C161.238 38.8262 162.054 36.1485 165.05 34.7848C168.693 33.1324 171.132 29.5688 171.261 25.7166C171.361 22.7005 170.017 19.5749 166.931 17.6737C168.086 11.9998 167.648 7.67972 165.627 4.80298C164.025 2.53344 161.506 1.15977 158.689 1.02041C158.51 1.0005 158.311 1.0005 158.112 1.0005C156.977 1.0005 155.862 1.26927 154.807 1.79683C152.747 2.83206 151.084 4.74325 149.522 8.01816C149.372 8.02812 149.223 8.03807 149.044 8.03807C148.626 8.05798 148.218 8.10775 147.81 8.18738C147.451 7.21188 146.904 6.27619 146.078 5.42013C144.604 3.90711 142.594 3.07096 140.414 3.07096C139.458 3.07096 138.453 3.23023 137.437 3.54876C135.394 4.19281 133.547 5.4339 132.106 7.11475C131.599 6.97463 131.076 6.87661 130.539 6.82333C130.231 6.78351 129.912 6.76361 129.604 6.76361C128.588 6.76361 127.593 6.9826 126.627 7.40067C124.517 8.3264 122.765 10.148 121.033 13.3433C120.874 13.3333 120.715 13.3333 120.555 13.3333C120.088 13.3333 119.63 13.3731 119.182 13.4428C118.873 12.4773 118.365 11.5117 117.589 10.6258C116.076 8.90374 113.946 7.9581 111.587 7.9581C110.81 7.9581 110.004 8.05764 109.198 8.26668C106.6 8.9336 104.26 10.5561 102.618 12.8456C97.5414 19.8831 97.0537 25.129 97.8799 28.6527C95.6203 33.0923 95.5307 36.9445 96.1777 39.8909C95.0131 41.1651 94.3362 42.489 93.958 43.5939C92.8929 46.6796 93.4802 49.5365 94.2765 51.5273C90.3645 57.2011 87.657 62.5764 85.7856 67.1951C76.6876 62.1284 66.8031 61.4814 62.3437 61.4814C60.6913 61.4814 59.6162 61.5611 59.4072 61.581C58.0833 61.6705 56.7694 61.8 55.4753 61.9692C56.3314 59.192 57.5657 56.2057 59.0688 53.3091C60.8605 52.672 62.7717 51.4974 64.225 49.5862C65.6086 47.7746 67.0619 44.6789 66.4547 39.9805C66.6737 38.8258 67.49 36.1482 70.4861 34.7845C74.1294 33.1321 76.5681 29.5685 76.6975 25.7163C76.7971 22.7002 75.4532 19.5746 72.3675 17.6733C73.5222 11.9995 73.0842 7.67938 71.0635 4.80264C69.4609 2.5331 66.9425 1.15943 64.1255 1.02008C63.9463 1.00017 63.7472 1.00017 63.5481 1.00017C62.4134 1.00017 61.2985 1.26893 60.2433 1.7965C58.1828 2.83173 56.5205 4.74292 54.9577 8.01783C54.8084 8.02778 54.6591 8.03773 54.4799 8.03773C54.0618 8.05764 53.6537 8.10741 53.2456 8.18704C52.8873 7.21154 52.3398 6.27585 51.5136 5.4198C50.0404 3.90677 48.0296 3.07063 45.8497 3.07063C44.8941 3.07063 43.8887 3.22989 42.8734 3.54842C40.3152 4.35471 38.0656 6.09668 36.5326 8.46576C31.8343 15.7621 31.6053 21.0279 32.6107 24.5019C30.5701 29.0509 30.6796 32.9031 31.4759 35.8097C30.371 37.1436 29.7738 38.4973 29.4453 39.6222C28.6092 42.5188 29.1666 45.1168 29.953 47.038C18.2768 63.4523 16.1665 78.6921 15.7982 84.5849C7.78513 95.5146 5.62508 106.464 5.3165 108.286C-0.775418 137.64 15.7385 153.736 24.9261 160.206C25.5433 162.128 26.5785 165.084 28.0915 168.558L28.2508 169.155L28.6788 169.882C29.1367 170.897 29.6145 171.903 30.1023 172.898C29.2562 173.605 28.5594 174.421 27.992 175.337C26.5486 177.676 26.1903 180.483 26.9866 183.26C28.43 188.267 33.188 191.761 38.5533 191.761C38.9017 191.761 39.2501 191.751 39.5885 191.721C39.8075 191.701 40.0265 191.681 40.2555 191.651C41.7486 192.438 43.4209 192.856 45.133 192.856C45.9094 192.856 46.6858 192.766 47.4324 192.597C47.8704 192.498 48.3084 192.368 48.7364 192.219C50.1101 192.836 51.6131 193.165 53.156 193.165C55.4455 193.165 57.7449 192.458 59.9845 191.074L64.5435 189.143C65.6883 188.655 66.6638 187.859 67.3705 186.864C69.5007 190.308 73.3629 192.498 77.6531 192.498C78.1807 192.498 78.7082 192.468 79.2259 192.398C79.853 192.308 80.5099 192.199 81.1669 192.04C82.222 192.388 83.3369 192.567 84.4617 192.567C85.4273 192.567 86.3729 192.438 87.2887 192.179C88.7221 192.936 90.4242 193.443 92.3653 193.443L92.3454 193.423C94.8339 193.423 97.3324 192.587 99.7712 190.945C100.03 190.766 100.279 190.576 100.448 190.417L104.669 186.684C105.107 186.296 105.495 185.858 105.813 185.37C108.68 181.05 108.511 174.053 102.718 168.936C101.742 167.951 100.607 166.298 100.159 164.885C102.602 162.39 106.447 157.946 110.011 151.64C113.29 155.435 116.722 158.258 119.49 160.207C120.107 162.128 121.142 165.084 122.656 168.558L122.815 169.155L123.243 169.882C123.701 170.897 124.178 171.903 124.666 172.898C123.82 173.605 123.123 174.421 122.556 175.337C121.113 177.676 120.754 180.483 121.551 183.261C122.994 188.267 127.752 191.761 133.117 191.761C133.466 191.761 133.814 191.751 134.153 191.722C134.372 191.702 134.591 191.682 134.819 191.652C136.313 192.438 137.985 192.856 139.697 192.856C140.473 192.856 141.25 192.767 141.996 192.597C142.434 192.498 142.872 192.369 143.3 192.219C144.674 192.836 146.177 193.165 147.72 193.165C150.009 193.165 152.309 192.458 154.549 191.074L159.108 189.143C160.252 188.656 161.228 187.859 161.934 186.864C164.065 190.308 167.927 192.498 172.217 192.498C172.745 192.498 173.272 192.468 173.79 192.398C174.417 192.309 175.074 192.199 175.731 192.04C176.786 192.388 177.901 192.568 179.026 192.568C179.991 192.568 180.937 192.438 181.853 192.179C183.286 192.936 184.988 193.444 186.929 193.444L186.909 193.424C189.398 193.424 191.896 192.588 194.335 190.945C194.594 190.766 194.843 190.577 195.012 190.418L199.233 186.685C199.671 186.296 200.059 185.859 200.377 185.371C203.244 181.051 203.075 174.053 197.282 168.937C196.306 167.951 195.171 166.299 194.723 164.885C197.166 162.39 201.011 157.946 204.575 151.64C207.854 155.435 211.287 158.257 214.054 160.206C214.671 162.127 215.707 165.084 217.22 168.558L217.379 169.155L217.807 169.882C218.265 170.897 218.743 171.902 219.23 172.898C218.384 173.604 217.688 174.421 217.12 175.337C215.677 177.676 215.318 180.483 216.115 183.26C217.558 188.267 222.316 191.761 227.681 191.761C228.03 191.761 228.378 191.751 228.717 191.721C228.936 191.701 229.155 191.681 229.384 191.651C230.877 192.438 232.549 192.856 234.261 192.856C235.038 192.856 235.814 192.766 236.561 192.597C236.998 192.497 237.436 192.368 237.865 192.219C239.238 192.836 240.741 193.164 242.284 193.164C244.574 193.164 246.873 192.458 249.113 191.074L253.672 189.143C254.816 188.655 255.792 187.859 256.499 186.863C258.629 190.308 262.491 192.497 266.781 192.497C267.309 192.497 267.836 192.468 268.354 192.398C268.981 192.308 269.638 192.199 270.295 192.04C271.35 192.388 272.465 192.567 273.59 192.567C274.555 192.567 275.501 192.438 276.417 192.179Z" fill="white"/>
<path d="M281.493 193.443V194.106H283.094L281.963 192.974L281.493 193.443ZM276.417 192.179L276.726 191.592L276.492 191.468L276.236 191.54L276.417 192.179ZM281.474 193.423V192.76H279.873L281.004 193.892L281.474 193.423ZM288.899 190.945L289.27 191.495L289.277 191.49L288.899 190.945ZM289.576 190.417L289.137 189.92L289.129 189.927L289.121 189.934L289.576 190.417ZM293.797 186.684L294.236 187.181L294.237 187.181L293.797 186.684ZM294.941 185.37L294.389 185.003L294.386 185.008L294.941 185.37ZM291.846 168.936L291.374 169.403L291.39 169.419L291.407 169.433L291.846 168.936ZM289.288 164.885L288.813 164.421L288.535 164.705L288.655 165.085L289.288 164.885ZM307.663 123.973L307.009 123.861L307.004 123.888L307.002 123.917L307.663 123.973ZM303.333 92.1499L302.678 92.0431L302.643 92.2592L302.743 92.4538L303.333 92.1499ZM313.386 58.2661L313.114 57.6612L312.927 57.7456L312.82 57.9212L313.386 58.2661ZM317.288 55.3495L316.782 54.9211L316.781 54.9224L317.288 55.3495ZM320.006 45.8632L319.36 45.7116L319.337 45.8113L319.344 45.9134L320.006 45.8632ZM324.296 40.8762L324.053 40.2588L324.052 40.2594L324.296 40.8762ZM330.965 32.1365L330.304 32.0798L330.304 32.08L330.965 32.1365ZM327.053 23.8746L326.411 23.7105L326.296 24.1582L326.677 24.4206L327.053 23.8746ZM326.406 10.9541L326.968 10.601L326.967 10.6L326.406 10.9541ZM319.667 6.82316L319.583 7.4811L319.592 7.48235L319.602 7.48331L319.667 6.82316ZM315.756 7.4005L315.492 6.79172L315.489 6.79299L315.756 7.4005ZM310.161 13.3431L310.12 14.0052L310.543 14.0316L310.745 13.6592L310.161 13.3431ZM308.31 13.4427L307.678 13.6446L307.851 14.1854L308.412 14.0982L308.31 13.4427ZM306.717 10.6256L307.216 10.1884L307.216 10.1878L306.717 10.6256ZM298.326 8.26651L298.491 8.90907L298.492 8.90867L298.326 8.26651ZM291.746 12.8454L292.284 13.2335L292.285 13.2321L291.746 12.8454ZM287.008 28.6526L287.599 28.9535L287.709 28.7373L287.654 28.5011L287.008 28.6526ZM285.306 39.8908L285.796 40.3383L286.028 40.0844L285.954 39.7485L285.306 39.8908ZM283.086 43.5937L283.713 43.8101L283.714 43.8086L283.086 43.5937ZM283.405 51.5271L283.951 51.9037L284.153 51.6109L284.021 51.2808L283.405 51.5271ZM274.914 67.1949L274.591 67.7745L275.247 68.1397L275.529 67.444L274.914 67.1949ZM248.535 61.5808L248.58 62.2427L248.589 62.2421L248.598 62.2412L248.535 61.5808ZM244.603 61.969L243.969 61.7736L243.665 62.7607L244.689 62.6268L244.603 61.969ZM248.197 53.3089L247.975 52.6839L247.728 52.7714L247.608 53.0034L248.197 53.3089ZM253.353 49.5861L252.826 49.1834L252.825 49.1845L253.353 49.5861ZM255.583 39.9803L254.931 39.8567L254.911 39.9606L254.925 40.0654L255.583 39.9803ZM259.614 34.7843L259.34 34.1801L259.339 34.1805L259.614 34.7843ZM265.826 25.7161L266.489 25.7384L266.489 25.738L265.826 25.7161ZM261.496 17.6732L260.846 17.5409L260.753 17.9949L261.148 18.238L261.496 17.6732ZM260.192 4.80248L260.734 4.42116L260.734 4.41981L260.192 4.80248ZM253.254 1.01991L253.18 1.67924L253.201 1.68149L253.221 1.68249L253.254 1.01991ZM249.371 1.79633L249.075 1.20297L249.074 1.20354L249.371 1.79633ZM244.086 8.01766L244.13 8.67958L244.517 8.65376L244.685 8.30337L244.086 8.01766ZM243.608 8.03757V7.37417H243.592L243.576 7.37492L243.608 8.03757ZM242.374 8.18688L241.751 8.41563L241.946 8.94625L242.501 8.83799L242.374 8.18688ZM240.642 5.41963L241.119 4.95894L241.117 4.95684L240.642 5.41963ZM232.002 3.54826L231.803 2.91528L231.802 2.91554L232.002 3.54826ZM226.669 7.11496L226.492 7.75432L226.898 7.86674L227.173 7.54682L226.669 7.11496ZM225.103 6.82367L225.018 7.48161L225.028 7.48285L225.038 7.48381L225.103 6.82367ZM221.191 7.401L220.928 6.79222L220.925 6.79349L221.191 7.401ZM215.597 13.3436L215.556 14.0057L215.979 14.0321L216.18 13.6598L215.597 13.3436ZM213.746 13.4432L213.114 13.6451L213.287 14.1859L213.848 14.0987L213.746 13.4432ZM212.153 10.6261L212.652 10.1889L212.651 10.1883L212.153 10.6261ZM203.762 8.26701L203.927 8.90958L203.928 8.90918L203.762 8.26701ZM197.182 12.8459L197.72 13.234L197.721 13.2326L197.182 12.8459ZM192.444 28.6531L193.035 28.954L193.145 28.7378L193.09 28.5016L192.444 28.6531ZM190.742 39.8913L191.231 40.3388L191.463 40.0849L191.39 39.749L190.742 39.8913ZM188.522 43.5942L189.149 43.8106L189.15 43.8091L188.522 43.5942ZM188.84 51.5276L189.387 51.9042L189.588 51.6114L189.456 51.2813L188.84 51.5276ZM180.35 67.1954L180.027 67.775L180.683 68.1402L180.964 67.4445L180.35 67.1954ZM153.971 61.5813L154.016 62.2432L154.025 62.2426L154.034 62.2417L153.971 61.5813ZM150.039 61.9695L149.405 61.7741L149.101 62.7612L150.125 62.6273L150.039 61.9695ZM153.633 53.3094L153.411 52.6844L153.164 52.7719L153.044 53.0039L153.633 53.3094ZM158.789 49.5866L158.262 49.1839L158.261 49.185L158.789 49.5866ZM161.019 39.9808L160.367 39.8572L160.347 39.9611L160.361 40.0659L161.019 39.9808ZM165.05 34.7848L164.776 34.1806L164.775 34.181L165.05 34.7848ZM171.261 25.7166L171.925 25.7389L171.925 25.7385L171.261 25.7166ZM166.931 17.6737L166.281 17.5414L166.189 17.9954L166.583 18.2385L166.931 17.6737ZM165.627 4.80298L166.17 4.42166L166.169 4.42032L165.627 4.80298ZM158.689 1.02041L158.616 1.67975L158.636 1.68199L158.657 1.683L158.689 1.02041ZM154.807 1.79683L154.511 1.20348L154.51 1.20405L154.807 1.79683ZM149.522 8.01816L149.566 8.68009L149.953 8.65426L150.12 8.30387L149.522 8.01816ZM149.044 8.03807V7.37467H149.028L149.012 7.37543L149.044 8.03807ZM147.81 8.18738L147.187 8.41612L147.382 8.94676L147.937 8.8385L147.81 8.18738ZM146.078 5.42013L146.555 4.95944L146.553 4.95734L146.078 5.42013ZM137.437 3.54876L137.239 2.91578L137.238 2.91605L137.437 3.54876ZM132.106 7.11475L131.929 7.7541L132.335 7.86654L132.609 7.54665L132.106 7.11475ZM130.539 6.82333L130.454 7.48127L130.464 7.48252L130.474 7.48348L130.539 6.82333ZM126.627 7.40067L126.364 6.79189L126.361 6.79316L126.627 7.40067ZM121.033 13.3433L120.992 14.0054L121.415 14.0318L121.616 13.6594L121.033 13.3433ZM119.182 13.4428L118.55 13.6448L118.723 14.1856L119.284 14.0983L119.182 13.4428ZM117.589 10.6258L118.088 10.1886L118.087 10.1879L117.589 10.6258ZM109.198 8.26668L109.363 8.90924L109.364 8.90884L109.198 8.26668ZM102.618 12.8456L103.156 13.2337L103.157 13.2323L102.618 12.8456ZM97.8799 28.6527L98.4711 28.9536L98.5811 28.7375L98.5258 28.5013L97.8799 28.6527ZM96.1777 39.8909L96.6674 40.3385L96.8995 40.0846L96.8257 39.7486L96.1777 39.8909ZM93.958 43.5939L94.585 43.8103L94.5856 43.8087L93.958 43.5939ZM94.2765 51.5273L94.8227 51.9039L95.0245 51.6111L94.8924 51.2809L94.2765 51.5273ZM85.7856 67.1951L85.4629 67.7747L86.1186 68.1399L86.4005 67.4442L85.7856 67.1951ZM59.4072 61.581L59.452 62.2428L59.4611 62.2422L59.4701 62.2414L59.4072 61.581ZM55.4753 61.9692L54.8414 61.7738L54.5371 62.7609L55.5613 62.627L55.4753 61.9692ZM59.0688 53.3091L58.8465 52.684L58.6003 52.7716L58.4799 53.0035L59.0688 53.3091ZM64.225 49.5862L63.6978 49.1836L63.6969 49.1847L64.225 49.5862ZM66.4547 39.9805L65.8029 39.8569L65.7833 39.9607L65.7968 40.0655L66.4547 39.9805ZM70.4861 34.7845L70.2121 34.1803L70.2113 34.1807L70.4861 34.7845ZM76.6975 25.7163L77.3605 25.7385L77.3605 25.7381L76.6975 25.7163ZM72.3675 17.6733L71.7174 17.541L71.625 17.9951L72.0195 18.2381L72.3675 17.6733ZM71.0635 4.80264L71.6063 4.42133L71.6054 4.41998L71.0635 4.80264ZM64.1255 1.02008L64.0522 1.67941L64.0724 1.68166L64.0927 1.68266L64.1255 1.02008ZM60.2433 1.7965L59.9467 1.20314L59.9455 1.20371L60.2433 1.7965ZM54.9577 8.01783L55.0018 8.67975L55.3892 8.65392L55.5564 8.30354L54.9577 8.01783ZM54.4799 8.03773V7.37434H54.4641L54.4484 7.37509L54.4799 8.03773ZM53.2456 8.18704L52.6229 8.41579L52.8178 8.94642L53.3727 8.83816L53.2456 8.18704ZM51.5136 5.4198L51.9909 4.9591L51.9889 4.957L51.5136 5.4198ZM42.8734 3.54842L42.6748 2.91545L42.674 2.91571L42.8734 3.54842ZM36.5326 8.46576L35.9757 8.10537L35.9749 8.1066L36.5326 8.46576ZM32.6107 24.5019L33.216 24.7734L33.3156 24.5513L33.248 24.3174L32.6107 24.5019ZM31.4759 35.8097L31.9868 36.2329L32.2069 35.9672L32.1158 35.6344L31.4759 35.8097ZM29.4453 39.6222L28.8085 39.4362L28.8079 39.4382L29.4453 39.6222ZM29.953 47.038L30.4935 47.4225L30.7053 47.1248L30.5669 46.7867L29.953 47.038ZM15.7982 84.5849L16.3332 84.9772L16.4482 84.8204L16.4603 84.6263L15.7982 84.5849ZM5.3165 108.286L5.96606 108.421L5.96854 108.409L5.97058 108.397L5.3165 108.286ZM24.9261 160.206L25.5577 160.004L25.4898 159.792L25.3081 159.664L24.9261 160.206ZM28.0915 168.558L28.7325 168.387L28.7197 168.339L28.6997 168.293L28.0915 168.558ZM28.2508 169.155L27.6098 169.326L27.6332 169.414L27.6792 169.492L28.2508 169.155ZM28.6788 169.882L29.2836 169.609L29.2687 169.576L29.2504 169.545L28.6788 169.882ZM30.1023 172.898L30.5276 173.407L30.927 173.073L30.698 172.606L30.1023 172.898ZM27.992 175.337L27.4281 174.987L27.4274 174.988L27.992 175.337ZM26.9866 183.26L26.3489 183.443L26.3492 183.444L26.9866 183.26ZM39.5885 191.721L39.6469 192.382L39.6486 192.382L39.5885 191.721ZM40.2555 191.651L40.5646 191.065L40.3784 190.966L40.1697 190.994L40.2555 191.651ZM47.4324 192.597L47.579 193.244L47.5794 193.244L47.4324 192.597ZM48.7364 192.219L49.0083 191.614L48.7673 191.505L48.5179 191.592L48.7364 192.219ZM59.9845 191.074L59.7258 190.463L59.6791 190.483L59.6359 190.51L59.9845 191.074ZM64.5435 189.143L64.8023 189.754L64.8036 189.753L64.5435 189.143ZM67.3705 186.864L67.9347 186.515L67.4086 185.664L66.8296 186.479L67.3705 186.864ZM79.2259 192.398L79.3144 193.056L79.3197 193.055L79.2259 192.398ZM81.1669 192.04L81.3749 191.41L81.1949 191.35L81.0106 191.395L81.1669 192.04ZM87.2887 192.179L87.5983 191.592L87.3637 191.468L87.1083 191.541L87.2887 192.179ZM92.3653 193.443V194.107H93.9664L92.8345 192.974L92.3653 193.443ZM92.3454 193.423V192.76H90.7443L91.8762 193.892L92.3454 193.423ZM99.7712 190.945L100.142 191.495L100.149 191.49L99.7712 190.945ZM100.448 190.417L100.009 189.92L100.001 189.927L99.9934 189.934L100.448 190.417ZM104.669 186.684L105.108 187.181L105.109 187.181L104.669 186.684ZM105.813 185.37L105.261 185.004L105.258 185.008L105.813 185.37ZM102.718 168.936L102.246 169.403L102.262 169.419L102.278 169.433L102.718 168.936ZM100.159 164.885L99.6854 164.421L99.4066 164.705L99.527 165.085L100.159 164.885ZM110.011 151.64L110.513 151.206L109.897 150.493L109.433 151.313L110.011 151.64ZM119.49 160.207L120.122 160.004L120.054 159.792L119.872 159.664L119.49 160.207ZM122.656 168.558L123.297 168.387L123.284 168.339L123.264 168.293L122.656 168.558ZM122.815 169.155L122.174 169.326L122.197 169.414L122.243 169.492L122.815 169.155ZM123.243 169.882L123.848 169.609L123.833 169.577L123.814 169.545L123.243 169.882ZM124.666 172.898L125.092 173.407L125.491 173.074L125.262 172.606L124.666 172.898ZM122.556 175.337L121.992 174.988L121.991 174.989L122.556 175.337ZM121.551 183.261L120.913 183.443L120.913 183.444L121.551 183.261ZM134.153 191.722L134.211 192.382L134.213 192.382L134.153 191.722ZM134.819 191.652L135.129 191.065L134.942 190.967L134.734 190.994L134.819 191.652ZM141.996 192.597L142.143 193.244L142.143 193.244L141.996 192.597ZM143.3 192.219L143.572 191.614L143.331 191.506L143.082 191.593L143.3 192.219ZM154.549 191.074L154.29 190.464L154.243 190.483L154.2 190.51L154.549 191.074ZM159.108 189.143L159.366 189.754L159.368 189.754L159.108 189.143ZM161.934 186.864L162.499 186.515L161.973 185.664L161.394 186.48L161.934 186.864ZM173.79 192.398L173.878 193.056L173.884 193.055L173.79 192.398ZM175.731 192.04L175.939 191.41L175.759 191.351L175.575 191.395L175.731 192.04ZM181.853 192.179L182.162 191.593L181.928 191.469L181.672 191.541L181.853 192.179ZM186.929 193.444V194.107H188.531L187.398 192.974L186.929 193.444ZM186.909 193.424V192.76H185.308L186.44 193.893L186.909 193.424ZM194.335 190.945L194.706 191.495L194.713 191.491L194.335 190.945ZM195.012 190.418L194.573 189.921L194.565 189.927L194.557 189.934L195.012 190.418ZM199.233 186.685L199.672 187.182L199.673 187.181L199.233 186.685ZM200.377 185.371L199.825 185.004L199.822 185.008L200.377 185.371ZM197.282 168.937L196.81 169.403L196.826 169.419L196.842 169.434L197.282 168.937ZM194.723 164.885L194.249 164.421L193.971 164.706L194.091 165.086L194.723 164.885ZM204.575 151.64L205.077 151.206L204.461 150.493L203.998 151.313L204.575 151.64ZM214.054 160.206L214.686 160.003L214.618 159.792L214.436 159.664L214.054 160.206ZM217.22 168.558L217.861 168.387L217.848 168.339L217.828 168.293L217.22 168.558ZM217.379 169.155L216.738 169.326L216.761 169.414L216.807 169.492L217.379 169.155ZM217.807 169.882L218.412 169.609L218.397 169.576L218.379 169.545L217.807 169.882ZM219.23 172.898L219.656 173.407L220.055 173.073L219.826 172.606L219.23 172.898ZM217.12 175.337L216.556 174.987L216.556 174.988L217.12 175.337ZM216.115 183.26L215.477 183.443L215.477 183.444L216.115 183.26ZM228.717 191.721L228.775 192.382L228.777 192.382L228.717 191.721ZM229.384 191.651L229.693 191.064L229.507 190.966L229.298 190.993L229.384 191.651ZM236.561 192.597L236.707 193.244L236.708 193.244L236.561 192.597ZM237.865 192.219L238.136 191.614L237.895 191.505L237.646 191.592L237.865 192.219ZM249.113 191.074L248.854 190.463L248.807 190.483L248.764 190.51L249.113 191.074ZM253.672 189.143L253.93 189.754L253.932 189.753L253.672 189.143ZM256.499 186.863L257.063 186.514L256.537 185.664L255.958 186.479L256.499 186.863ZM268.354 192.398L268.442 193.055L268.448 193.055L268.354 192.398ZM270.295 192.04L270.503 191.41L270.323 191.35L270.139 191.395L270.295 192.04ZM281.493 192.78C279.672 192.78 278.075 192.304 276.726 191.592L276.107 192.766C277.625 193.567 279.433 194.106 281.493 194.106V192.78ZM281.004 193.892L281.024 193.912L281.963 192.974L281.943 192.954L281.004 193.892ZM288.529 190.394C286.179 191.977 283.807 192.76 281.474 192.76V194.087C284.117 194.087 286.742 193.197 289.27 191.495L288.529 190.394ZM289.121 189.934C288.988 190.059 288.771 190.226 288.522 190.399L289.277 191.49C289.545 191.304 289.826 191.093 290.031 190.9L289.121 189.934ZM293.357 186.187L289.137 189.92L290.016 190.914L294.236 187.181L293.357 186.187ZM294.386 185.008C294.103 185.441 293.755 185.835 293.357 186.188L294.237 187.181C294.714 186.757 295.143 186.275 295.497 185.733L294.386 185.008ZM291.407 169.433C296.958 174.336 297.067 180.967 294.389 185.003L295.494 185.737C298.549 181.133 298.32 173.768 292.285 168.439L291.407 169.433ZM288.655 165.085C289.143 166.624 290.346 168.364 291.374 169.403L292.317 168.469C291.395 167.537 290.328 165.972 289.92 164.684L288.655 165.085ZM307.002 123.917C305.158 145.456 293.9 159.226 288.813 164.421L289.762 165.349C294.967 160.032 306.444 145.99 308.324 124.03L307.002 123.917ZM302.743 92.4538C309.666 105.888 307.502 121.002 307.009 123.861L308.317 124.086C308.819 121.171 311.055 105.686 303.922 91.846L302.743 92.4538ZM312.82 57.9212C310.325 62.0207 308.193 68.1102 306.488 74.3615C304.778 80.6272 303.482 87.1133 302.678 92.0431L303.988 92.2567C304.786 87.3618 306.073 80.9224 307.768 74.7107C309.467 68.4845 311.56 62.5444 313.953 58.6109L312.82 57.9212ZM316.781 54.9224C315.794 56.0952 314.533 57.0223 313.114 57.6612L313.659 58.871C315.246 58.1561 316.672 57.1122 317.796 55.7766L316.781 54.9224ZM319.344 45.9134C319.688 50.4497 318.155 53.2975 316.782 54.9211L317.795 55.7779C319.368 53.9175 321.04 50.7331 320.667 45.8131L319.344 45.9134ZM324.052 40.2594C320.694 41.5896 319.651 44.4721 319.36 45.7116L320.652 46.0149C320.898 44.965 321.767 42.5916 324.54 41.493L324.052 40.2594ZM330.304 32.08C329.998 35.6598 327.552 38.8836 324.053 40.2588L324.539 41.4936C328.486 39.9423 331.275 36.2978 331.626 32.193L330.304 32.08ZM326.677 24.4206C329.449 26.3334 330.545 29.2785 330.304 32.0798L331.626 32.1932C331.904 28.9623 330.631 25.5367 327.43 23.3285L326.677 24.4206ZM325.845 11.3072C327.572 14.0539 327.827 18.1616 326.411 23.7105L327.696 24.0387C329.146 18.3593 328.984 13.8069 326.968 10.601L325.845 11.3072ZM319.602 7.48331C322.209 7.74214 324.473 9.13467 325.845 11.3083L326.967 10.6C325.373 8.07523 322.74 6.46162 319.733 6.16301L319.602 7.48331ZM318.732 7.42683C319.013 7.42683 319.303 7.445 319.583 7.4811L319.752 6.16522C319.415 6.12169 319.068 6.10004 318.732 6.10004V7.42683ZM316.019 8.00928C316.908 7.62431 317.814 7.42683 318.732 7.42683V6.10004C317.619 6.10004 316.534 6.34054 315.492 6.79172L316.019 8.00928ZM310.745 13.6592C312.44 10.5309 314.1 8.85113 316.022 8.00801L315.489 6.79299C313.19 7.80134 311.346 9.76478 309.578 13.027L310.745 13.6592ZM309.683 13.9966C309.846 13.9966 309.985 13.9968 310.12 14.0052L310.203 12.681C310.019 12.6695 309.839 12.6698 309.683 12.6698V13.9966ZM308.412 14.0982C308.83 14.0331 309.253 13.9966 309.683 13.9966V12.6698C309.178 12.6698 308.686 12.7128 308.208 12.7871L308.412 14.0982ZM306.218 11.0629C306.93 11.8752 307.395 12.7591 307.678 13.6446L308.942 13.2407C308.608 12.1951 308.057 11.1479 307.216 10.1884L306.218 11.0629ZM300.715 8.62133C302.89 8.62133 304.836 9.48975 306.219 11.0635L307.216 10.1878C305.572 8.31739 303.258 7.29454 300.715 7.29454V8.62133ZM298.492 8.90867C299.244 8.71369 299.995 8.62133 300.715 8.62133V7.29454C299.882 7.29454 299.02 7.40126 298.159 7.62435L298.492 8.90867ZM292.285 13.2321C293.841 11.0633 296.051 9.53549 298.491 8.90907L298.161 7.62395C295.405 8.33138 292.936 10.0486 291.207 12.4587L292.285 13.2321ZM287.654 28.5011C286.881 25.2057 287.292 20.1534 292.284 13.2335L291.208 12.4573C286.047 19.6125 285.482 25.0519 286.362 28.804L287.654 28.5011ZM285.954 39.7485C285.338 36.9434 285.413 33.2487 287.599 28.9535L286.417 28.3516C284.084 32.9355 283.98 36.9453 284.658 40.0331L285.954 39.7485ZM283.714 43.8086C284.066 42.7789 284.7 41.5372 285.796 40.3383L284.816 39.4432C283.583 40.7926 282.862 42.1986 282.458 43.3788L283.714 43.8086ZM284.021 51.2808C283.261 49.3814 282.717 46.6964 283.713 43.8101L282.459 43.3772C281.325 46.6626 281.956 49.6912 282.789 51.7735L284.021 51.2808ZM275.529 67.444C277.384 62.8658 280.069 57.5339 283.951 51.9037L282.858 51.1506C278.916 56.868 276.187 62.2867 274.299 66.9458L275.529 67.444ZM251.472 62.1446C255.886 62.1446 265.637 62.7882 274.591 67.7745L275.237 66.6153C265.994 61.4683 255.977 60.8179 251.472 60.8179V62.1446ZM248.598 62.2412C248.784 62.2235 249.838 62.1446 251.472 62.1446V60.8179C249.801 60.8179 248.705 60.8983 248.472 60.9204L248.598 62.2412ZM244.689 62.6268C245.969 62.4594 247.27 62.3314 248.58 62.2427L248.491 60.9189C247.153 61.0094 245.826 61.1401 244.517 61.3112L244.689 62.6268ZM247.608 53.0034C246.088 55.932 244.838 58.955 243.969 61.7736L245.237 62.1644C246.081 59.4286 247.299 56.4792 248.786 53.6145L247.608 53.0034ZM252.825 49.1845C251.463 50.9754 249.668 52.0819 247.975 52.6839L248.419 53.934C250.31 53.2618 252.336 52.0192 253.881 49.9876L252.825 49.1845ZM254.925 40.0654C255.507 44.5714 254.116 47.4949 252.826 49.1834L253.88 49.9887C255.358 48.054 256.873 44.7859 256.241 39.8953L254.925 40.0654ZM259.339 34.1805C256.055 35.6752 255.167 38.6135 254.931 39.8567L256.235 40.104C256.437 39.0379 257.181 36.6208 259.889 35.3881L259.339 34.1805ZM265.163 25.6938C265.042 29.2824 262.764 32.6271 259.34 34.1801L259.888 35.3884C263.751 33.6367 266.35 29.8543 266.489 25.7384L265.163 25.6938ZM261.148 18.238C264.011 20.0024 265.255 22.8923 265.163 25.6942L266.489 25.738C266.595 22.5077 265.151 19.1464 261.844 17.1084L261.148 18.238ZM259.649 5.18379C261.514 7.83894 261.986 11.9349 260.846 17.5409L262.146 17.8054C263.314 12.0637 262.911 7.5195 260.734 4.42116L259.649 5.18379ZM253.221 1.68249C255.838 1.81194 258.167 3.08501 259.65 5.18514L260.734 4.41981C259.011 1.98086 256.304 0.506589 253.286 0.357324L253.221 1.68249ZM252.676 1.66339C252.884 1.66339 253.045 1.66417 253.18 1.67924L253.327 0.360572C253.104 0.335834 252.866 0.336606 252.676 0.336606V1.66339ZM249.668 2.38969C250.635 1.90627 251.649 1.66339 252.676 1.66339V0.336606C251.434 0.336606 250.218 0.631257 249.075 1.20297L249.668 2.38969ZM244.685 8.30337C246.214 5.09813 247.792 3.33246 249.669 2.38911L249.074 1.20354C246.83 2.33066 245.083 4.38737 243.487 7.73195L244.685 8.30337ZM243.608 8.70096C243.812 8.70096 243.981 8.68949 244.13 8.67958L244.042 7.35573C243.892 7.36573 243.763 7.37417 243.608 7.37417V8.70096ZM242.501 8.83799C242.878 8.76442 243.254 8.71857 243.64 8.70021L243.576 7.37492C243.126 7.39638 242.686 7.45006 242.247 7.53576L242.501 8.83799ZM240.164 5.88032C240.922 6.66488 241.422 7.51975 241.751 8.41563L242.996 7.95812C242.609 6.903 242.014 5.8865 241.119 4.95894L240.164 5.88032ZM234.978 3.73385C236.985 3.73385 238.822 4.50172 240.166 5.88242L241.117 4.95684C239.515 3.31148 237.331 2.40706 234.978 2.40706V3.73385ZM232.2 4.18123C233.157 3.88104 234.095 3.73385 234.978 3.73385V2.40706C233.949 2.40706 232.877 2.57841 231.803 2.91528L232.2 4.18123ZM227.173 7.54682C228.538 5.95506 230.281 4.7861 232.201 4.18097L231.802 2.91554C229.635 3.5987 227.684 4.91245 226.166 6.68311L227.173 7.54682ZM226.846 6.47561C226.303 6.32539 225.743 6.2205 225.169 6.16352L225.038 7.48381C225.537 7.53336 226.023 7.62443 226.492 7.75432L226.846 6.47561ZM225.188 6.16573C224.851 6.12219 224.504 6.10055 224.168 6.10055V7.42734C224.449 7.42734 224.739 7.44551 225.018 7.48161L225.188 6.16573ZM224.168 6.10055C223.055 6.10055 221.97 6.34105 220.928 6.79223L221.455 8.00978C222.344 7.62482 223.25 7.42734 224.168 7.42734V6.10055ZM220.925 6.79349C218.626 7.80185 216.782 9.76529 215.014 13.0275L216.18 13.6598C217.876 10.5314 219.536 8.85163 221.458 8.00852L220.925 6.79349ZM215.639 12.6815C215.455 12.6701 215.275 12.6703 215.119 12.6703V13.9971C215.282 13.9971 215.421 13.9973 215.556 14.0057L215.639 12.6815ZM215.119 12.6703C214.614 12.6703 214.122 12.7133 213.644 12.7876L213.848 14.0987C214.266 14.0337 214.689 13.9971 215.119 13.9971V12.6703ZM214.378 13.2412C214.043 12.1956 213.493 11.1484 212.652 10.1889L211.654 11.0634C212.366 11.8758 212.831 12.7596 213.114 13.6451L214.378 13.2412ZM212.651 10.1883C211.008 8.3179 208.694 7.29504 206.151 7.29504V8.62183C208.326 8.62183 210.272 9.49026 211.655 11.064L212.651 10.1883ZM206.151 7.29504C205.318 7.29504 204.456 7.40176 203.595 7.62485L203.928 8.90918C204.68 8.71419 205.431 8.62183 206.151 8.62183V7.29504ZM203.597 7.62445C200.841 8.33189 198.372 10.0491 196.643 12.4592L197.721 13.2326C199.277 11.0638 201.486 9.53599 203.927 8.90957L203.597 7.62445ZM196.644 12.4578C191.483 19.613 190.918 25.0524 191.798 28.8045L193.09 28.5016C192.317 25.2062 192.728 20.1539 197.72 13.234L196.644 12.4578ZM191.853 28.3521C189.52 32.936 189.416 36.9458 190.094 40.0336L191.39 39.749C190.774 36.9439 190.849 33.2492 193.035 28.954L191.853 28.3521ZM190.252 39.4437C189.019 40.7931 188.298 42.1991 187.894 43.3793L189.15 43.8091C189.502 42.7794 190.136 41.5377 191.231 40.3388L190.252 39.4437ZM187.895 43.3777C186.761 46.6631 187.392 49.6917 188.225 51.774L189.456 51.2813C188.697 49.3819 188.153 46.6969 189.149 43.8106L187.895 43.3777ZM188.294 51.1511C184.352 56.8685 181.623 62.2872 179.735 66.9463L180.964 67.4445C182.819 62.8663 185.505 57.5344 189.387 51.9042L188.294 51.1511ZM180.672 66.6158C171.43 61.4688 161.413 60.8184 156.908 60.8184V62.1451C161.321 62.1451 171.073 62.7887 180.027 67.775L180.672 66.6158ZM156.908 60.8184C155.237 60.8184 154.141 60.8988 153.908 60.9209L154.034 62.2417C154.22 62.224 155.274 62.1451 156.908 62.1451V60.8184ZM153.926 60.9194C152.589 61.0099 151.261 61.1407 149.953 61.3117L150.125 62.6273C151.405 62.4599 152.705 62.3319 154.016 62.2432L153.926 60.9194ZM150.673 62.1649C151.517 59.4291 152.735 56.4797 154.222 53.615L153.044 53.0039C151.524 55.9325 150.274 58.9555 149.405 61.7741L150.673 62.1649ZM153.855 53.9345C155.745 53.2623 157.772 52.0197 159.317 49.9881L158.261 49.185C156.899 50.9759 155.104 52.0824 153.411 52.6844L153.855 53.9345ZM159.316 49.9892C160.794 48.0545 162.309 44.7864 161.677 39.8958L160.361 40.0659C160.943 44.5719 159.551 47.4954 158.262 49.1839L159.316 49.9892ZM161.67 40.1045C161.873 39.0384 162.617 36.6213 165.325 35.3886L164.775 34.181C161.491 35.6757 160.603 38.614 160.367 39.8572L161.67 40.1045ZM165.324 35.389C169.186 33.6372 171.786 29.8548 171.925 25.7389L170.598 25.6943C170.478 29.2829 168.2 32.6276 164.776 34.1806L165.324 35.389ZM171.925 25.7385C172.031 22.5082 170.587 19.1469 167.279 17.1089L166.583 18.2385C169.447 20.0029 170.691 22.8928 170.598 25.6947L171.925 25.7385ZM167.582 17.806C168.75 12.0642 168.347 7.52 166.17 4.42167L165.085 5.18429C166.95 7.83944 167.422 11.9354 166.281 17.5414L167.582 17.806ZM166.169 4.42032C164.447 1.98136 161.74 0.507093 158.722 0.357828L158.657 1.683C161.273 1.81245 163.603 3.08551 165.086 5.18564L166.169 4.42032ZM158.763 0.361075C158.54 0.336339 158.302 0.33711 158.112 0.33711V1.6639C158.32 1.6639 158.48 1.66467 158.616 1.67975L158.763 0.361075ZM158.112 0.33711C156.87 0.33711 155.654 0.631761 154.511 1.20348L155.104 2.39019C156.071 1.90677 157.085 1.6639 158.112 1.6639V0.33711ZM154.51 1.20405C152.266 2.33116 150.519 4.38788 148.923 7.73245L150.12 8.30387C151.65 5.09863 153.228 3.33296 155.105 2.38962L154.51 1.20405ZM149.478 7.35624C149.328 7.36623 149.198 7.37467 149.044 7.37467V8.70146C149.248 8.70146 149.417 8.69 149.566 8.68009L149.478 7.35624ZM149.012 7.37543C148.562 7.39688 148.122 7.45057 147.683 7.53627L147.937 8.8385C148.314 8.76493 148.69 8.71907 149.075 8.70071L149.012 7.37543ZM148.432 7.95864C148.045 6.9035 147.45 5.887 146.555 4.95945L145.6 5.88082C146.357 6.66538 146.858 7.52025 147.187 8.41612L148.432 7.95864ZM146.553 4.95734C144.951 3.31199 142.767 2.40757 140.414 2.40757V3.73436C142.42 3.73436 144.258 4.50223 145.602 5.88293L146.553 4.95734ZM140.414 2.40757C139.385 2.40757 138.313 2.57891 137.239 2.91578L137.636 4.18173C138.593 3.88154 139.531 3.73436 140.414 3.73436V2.40757ZM137.238 2.91605C135.071 3.59911 133.12 4.91257 131.602 6.68286L132.609 7.54665C133.974 5.95523 135.717 4.78652 137.637 4.18147L137.238 2.91605ZM132.283 6.4754C131.74 6.32512 131.179 6.22018 130.605 6.16318L130.474 7.48348C130.973 7.53304 131.459 7.62414 131.929 7.7541L132.283 6.4754ZM130.624 6.16539C130.287 6.12186 129.94 6.10021 129.604 6.10021V7.427C129.885 7.427 130.175 7.44517 130.454 7.48127L130.624 6.16539ZM129.604 6.10021C128.491 6.10021 127.406 6.34071 126.364 6.79189L126.891 8.00945C127.78 7.62448 128.686 7.427 129.604 7.427V6.10021ZM126.361 6.79316C124.062 7.80151 122.218 9.76495 120.45 13.0271L121.616 13.6594C123.312 10.5311 124.972 8.85129 126.894 8.00818L126.361 6.79316ZM121.075 12.6812C120.891 12.6697 120.711 12.6699 120.555 12.6699V13.9967C120.718 13.9967 120.857 13.9969 120.992 14.0054L121.075 12.6812ZM120.555 12.6699C120.05 12.6699 119.558 12.713 119.08 12.7873L119.284 14.0983C119.702 14.0333 120.125 13.9967 120.555 13.9967V12.6699ZM119.814 13.2409C119.479 12.1953 118.929 11.148 118.088 10.1886L117.09 11.063C117.802 11.8754 118.267 12.7593 118.55 13.6448L119.814 13.2409ZM118.087 10.1879C116.444 8.31756 114.13 7.29471 111.587 7.29471V8.62149C113.762 8.62149 115.708 9.48992 117.091 11.0637L118.087 10.1879ZM111.587 7.29471C110.754 7.29471 109.892 7.40143 109.031 7.62451L109.364 8.90884C110.116 8.71386 110.867 8.62149 111.587 8.62149V7.29471ZM109.033 7.62412C106.277 8.33155 103.808 10.0488 102.079 12.4589L103.157 13.2323C104.713 11.0634 106.922 9.53566 109.363 8.90924L109.033 7.62412ZM102.08 12.4575C96.9185 19.6127 96.3543 25.0521 97.234 28.8042L98.5258 28.5013C97.7531 25.2058 98.1643 20.1536 103.156 13.2337L102.08 12.4575ZM97.2887 28.3518C94.9556 32.9356 94.8517 36.9454 95.5298 40.0332L96.8257 39.7486C96.2097 36.9436 96.285 33.2489 98.4711 28.9536L97.2887 28.3518ZM95.6881 39.4433C94.4546 40.7928 93.7344 42.1988 93.3303 43.379L94.5856 43.8087C94.9381 42.7791 95.5716 41.5373 96.6674 40.3385L95.6881 39.4433ZM93.3309 43.3774C92.1969 46.6627 92.8276 49.6914 93.6605 51.7737L94.8924 51.2809C94.1327 49.3816 93.5888 46.6965 94.585 43.8103L93.3309 43.3774ZM93.7303 51.1507C89.7883 56.8682 87.0585 62.2868 85.1708 66.946L86.4005 67.4442C88.2555 62.8659 90.9407 57.5341 94.8227 51.9039L93.7303 51.1507ZM86.1084 66.6155C76.866 61.4685 66.8488 60.818 62.3437 60.818V62.1448C66.7575 62.1448 76.5091 62.7884 85.4629 67.7747L86.1084 66.6155ZM62.3437 60.818C60.6729 60.818 59.5767 60.8984 59.3443 60.9206L59.4701 62.2414C59.6558 62.2237 60.7097 62.1448 62.3437 62.1448V60.818ZM59.3624 60.9191C58.0251 61.0096 56.6974 61.1403 55.3893 61.3114L55.5613 62.627C56.8413 62.4596 58.1415 62.3315 59.452 62.2428L59.3624 60.9191ZM56.1093 62.1646C56.9526 59.4288 58.1711 56.4793 59.6576 53.6146L58.4799 53.0035C56.9603 55.9321 55.7102 58.9551 54.8414 61.7738L56.1093 62.1646ZM59.291 53.9341C61.1815 53.262 63.2083 52.0193 64.7531 49.9878L63.6969 49.1847C62.3351 50.9755 60.5396 52.0821 58.8465 52.684L59.291 53.9341ZM64.7522 49.9889C66.2299 48.0541 67.7447 44.7861 67.1126 39.8955L65.7968 40.0655C66.3792 44.5716 64.9874 47.495 63.6978 49.1836L64.7522 49.9889ZM67.1065 40.1041C67.3087 39.038 68.0525 36.621 70.761 35.3883L70.2113 34.1807C66.9274 35.6754 66.0387 38.6136 65.8029 39.8569L67.1065 40.1041ZM70.7602 35.3886C74.6225 33.6369 77.2223 29.8544 77.3605 25.7385L76.0345 25.694C75.9139 29.2826 73.6362 32.6273 70.2121 34.1803L70.7602 35.3886ZM77.3605 25.7381C77.4672 22.5078 76.0233 19.1466 72.7155 17.1085L72.0195 18.2381C74.8832 20.0025 76.1269 22.8925 76.0345 25.6944L77.3605 25.7381ZM73.0175 17.8056C74.186 12.0639 73.7827 7.51966 71.6063 4.42133L70.5206 5.18396C72.3857 7.83911 72.8583 11.9351 71.7174 17.541L73.0175 17.8056ZM71.6054 4.41998C69.8831 1.98103 67.1755 0.506757 64.1582 0.357492L64.0927 1.68266C66.7094 1.81211 69.0386 3.08518 70.5216 5.18531L71.6054 4.41998ZM64.1987 0.36074C63.9761 0.336002 63.7383 0.336774 63.5481 0.336774V1.66356C63.7561 1.66356 63.9165 1.66433 64.0522 1.67941L64.1987 0.36074ZM63.5481 0.336774C62.3062 0.336774 61.0901 0.631425 59.9467 1.20314L60.54 2.38986C61.5069 1.90643 62.5205 1.66356 63.5481 1.66356V0.336774ZM59.9455 1.20371C57.7021 2.33082 55.955 4.38754 54.359 7.73212L55.5564 8.30354C57.086 5.0983 58.6636 3.33263 60.5412 2.38928L59.9455 1.20371ZM54.9136 7.3559C54.7636 7.3659 54.6344 7.37434 54.4799 7.37434V8.70113C54.6837 8.70113 54.8532 8.68966 55.0018 8.67975L54.9136 7.3559ZM54.4484 7.37509C53.9978 7.39655 53.5578 7.45023 53.1186 7.53593L53.3727 8.83816C53.7497 8.76459 54.1259 8.71874 54.5115 8.70038L54.4484 7.37509ZM53.8683 7.95829C53.4807 6.90317 52.8861 5.88666 51.9909 4.95911L51.0362 5.88049C51.7934 6.66504 52.2938 7.51991 52.6229 8.41579L53.8683 7.95829ZM51.9889 4.957C50.3868 3.31165 48.2029 2.40723 45.8497 2.40723V3.73402C47.8564 3.73402 49.6939 4.50189 51.0383 5.88259L51.9889 4.957ZM45.8497 2.40723C44.8209 2.40723 43.7486 2.57858 42.6748 2.91545L43.072 4.1814C44.0289 3.88121 44.9673 3.73402 45.8497 3.73402V2.40723ZM42.674 2.91571C39.961 3.77078 37.5881 5.61349 35.9757 8.10537L37.0896 8.82615C38.5431 6.57987 40.6694 4.93863 43.0728 4.18114L42.674 2.91571ZM35.9749 8.1066C31.1989 15.5236 30.9027 20.9863 31.9735 24.6863L33.248 24.3174C32.308 21.0694 32.4697 16.0007 37.0904 8.82492L35.9749 8.1066ZM32.0054 24.2303C29.8982 28.9279 30.0015 32.9388 30.8361 35.985L32.1158 35.6344C31.3577 32.8675 31.242 29.1739 33.216 24.7734L32.0054 24.2303ZM30.9651 35.3865C29.7928 36.8017 29.1578 38.2403 28.8085 39.4362L30.0821 39.8081C30.3898 38.7544 30.9492 37.4855 31.9868 36.2329L30.9651 35.3865ZM28.8079 39.4382C27.9178 42.5219 28.5159 45.2785 29.339 47.2893L30.5669 46.7867C29.8172 44.9552 29.3005 42.5158 30.0827 39.8061L28.8079 39.4382ZM29.4124 46.6535C17.644 63.1974 15.5096 78.5681 15.1361 84.5436L16.4603 84.6263C16.8234 78.8161 18.9096 63.7072 30.4935 47.4225L29.4124 46.6535ZM15.2632 84.1927C7.16488 95.2386 4.97979 106.301 4.66243 108.175L5.97058 108.397C6.27037 106.627 8.40537 95.7906 16.3332 84.9772L15.2632 84.1927ZM4.66695 108.151C-1.50066 137.87 15.2452 154.2 24.5442 160.749L25.3081 159.664C16.2318 153.272 -0.0501757 137.411 5.96606 108.421L4.66695 108.151ZM24.2945 160.409C24.917 162.347 25.9598 165.325 27.4833 168.823L28.6997 168.293C27.1973 164.843 26.1696 161.908 25.5577 160.004L24.2945 160.409ZM27.4505 168.729L27.6098 169.326L28.8918 168.984L28.7325 168.387L27.4505 168.729ZM27.6792 169.492L28.1072 170.219L29.2504 169.545L28.8224 168.818L27.6792 169.492ZM28.0741 170.155C28.5356 171.178 29.0165 172.19 29.5065 173.19L30.698 172.606C30.2125 171.615 29.7379 170.616 29.2836 169.609L28.0741 170.155ZM29.677 172.389C28.7743 173.143 28.0313 174.014 27.4281 174.987L28.5559 175.686C29.0874 174.828 29.7381 174.067 30.5276 173.407L29.677 172.389ZM27.4274 174.988C25.8808 177.495 25.5039 180.496 26.3489 183.443L27.6243 183.077C26.8767 180.47 27.2165 177.857 28.5566 175.685L27.4274 174.988ZM26.3492 183.444C27.8779 188.747 32.9051 192.424 38.5533 192.424V191.098C33.471 191.098 28.9821 187.787 27.6241 183.076L26.3492 183.444ZM38.5533 192.424C38.9134 192.424 39.2826 192.414 39.6469 192.382L39.5302 191.06C39.2176 191.088 38.89 191.098 38.5533 191.098V192.424ZM39.6486 192.382C39.866 192.362 40.0975 192.341 40.3413 192.309L40.1697 190.994C39.9555 191.022 39.7491 191.04 39.5285 191.06L39.6486 192.382ZM39.9463 192.238C41.5344 193.075 43.3128 193.519 45.133 193.519L45.133 192.193C43.529 192.193 41.9628 191.801 40.5646 191.065L39.9463 192.238ZM45.133 193.519C45.9599 193.519 46.7855 193.424 47.579 193.244L47.2857 191.95C46.5861 192.109 45.8589 192.193 45.133 192.193L45.133 193.519ZM47.5794 193.244C48.0449 193.138 48.5069 193.002 48.9549 192.845L48.5179 191.592C48.1098 191.735 47.6958 191.857 47.2854 191.95L47.5794 193.244ZM48.4645 192.824C49.923 193.479 51.5187 193.828 53.156 193.828L53.156 192.501C51.7075 192.501 50.2971 192.193 49.0083 191.614L48.4645 192.824ZM53.156 193.828C55.5869 193.828 58.0055 193.077 60.3332 191.639L59.6359 190.51C57.4842 191.839 55.304 192.501 53.156 192.501L53.156 193.828ZM60.2433 191.685L64.8023 189.754L64.2848 188.532L59.7258 190.463L60.2433 191.685ZM64.8036 189.753C66.0628 189.217 67.1348 188.341 67.9114 187.248L66.8296 186.479C66.1927 187.377 65.3138 188.094 64.2835 188.533L64.8036 189.753ZM66.8063 187.213C69.0591 190.855 73.1363 193.161 77.6531 193.161V191.834C73.5895 191.834 69.9423 189.761 67.9347 186.515L66.8063 187.213ZM77.6531 193.161C78.2053 193.161 78.7629 193.13 79.3144 193.056L79.1374 191.741C78.6536 191.806 78.156 191.834 77.6531 191.834V193.161ZM79.3197 193.055C79.9563 192.964 80.6368 192.851 81.3232 192.684L81.0106 191.395C80.3831 191.547 79.7496 191.653 79.132 191.741L79.3197 193.055ZM80.9589 192.67C82.0816 193.04 83.2667 193.231 84.4617 193.231V191.904C83.4071 191.904 82.3625 191.736 81.3749 191.41L80.9589 192.67ZM84.4617 193.231C85.4871 193.231 86.4935 193.093 87.4691 192.817L87.1083 191.541C86.2524 191.783 85.3675 191.904 84.4617 191.904V193.231ZM86.9791 192.766C88.4973 193.567 90.3049 194.107 92.3653 194.107V192.78C90.5436 192.78 88.9469 192.304 87.5983 191.592L86.9791 192.766ZM92.8345 192.974L92.8146 192.954L91.8762 193.892L91.8961 193.912L92.8345 192.974ZM92.3454 194.087C94.989 194.087 97.6143 193.197 100.142 191.495L99.4006 190.395C97.0506 191.977 94.6789 192.76 92.3454 192.76V194.087ZM100.149 191.49C100.417 191.305 100.698 191.093 100.903 190.9L99.9934 189.934C99.8602 190.059 99.6431 190.227 99.3935 190.399L100.149 191.49ZM100.888 190.914L105.108 187.181L104.229 186.187L100.009 189.92L100.888 190.914ZM105.109 187.181C105.586 186.758 106.015 186.275 106.369 185.733L105.258 185.008C104.975 185.441 104.627 185.835 104.229 186.188L105.109 187.181ZM106.366 185.737C109.421 181.134 109.191 173.769 103.157 168.439L102.278 169.433C107.83 174.337 107.939 180.967 105.261 185.004L106.366 185.737ZM103.189 168.469C102.266 167.537 101.2 165.973 100.792 164.684L99.527 165.085C100.015 166.624 101.218 168.364 102.246 169.403L103.189 168.469ZM100.633 165.349C103.107 162.823 106.99 158.333 110.588 151.966L109.433 151.313C105.903 157.559 102.097 161.958 99.6854 164.421L100.633 165.349ZM109.509 152.074C112.831 155.918 116.306 158.776 119.108 160.749L119.872 159.664C117.139 157.739 113.749 154.952 110.513 151.206L109.509 152.074ZM118.859 160.41C119.481 162.347 120.524 165.325 122.047 168.823L123.264 168.293C121.761 164.844 120.734 161.908 120.122 160.004L118.859 160.41ZM122.015 168.729L122.174 169.326L123.456 168.985L123.297 168.387L122.015 168.729ZM122.243 169.492L122.671 170.219L123.814 169.545L123.386 168.819L122.243 169.492ZM122.638 170.155C123.1 171.178 123.58 172.19 124.071 173.19L125.262 172.606C124.777 171.616 124.302 170.617 123.848 169.609L122.638 170.155ZM124.241 172.389C123.338 173.143 122.595 174.014 121.992 174.988L123.12 175.686C123.651 174.829 124.302 174.067 125.092 173.407L124.241 172.389ZM121.991 174.989C120.445 177.495 120.068 180.496 120.913 183.443L122.188 183.078C121.441 180.47 121.78 177.857 123.121 175.685L121.991 174.989ZM120.913 183.444C122.442 188.747 127.469 192.425 133.117 192.425V191.098C128.035 191.098 123.546 187.788 122.188 183.077L120.913 183.444ZM133.117 192.425C133.477 192.425 133.847 192.414 134.211 192.382L134.094 191.061C133.782 191.088 133.454 191.098 133.117 191.098V192.425ZM134.213 192.382C134.43 192.362 134.662 192.341 134.905 192.31L134.734 190.994C134.52 191.022 134.313 191.041 134.092 191.061L134.213 192.382ZM134.51 192.239C136.098 193.075 137.877 193.52 139.697 193.52V192.193C138.093 192.193 136.527 191.801 135.129 191.065L134.51 192.239ZM139.697 193.52C140.524 193.52 141.35 193.424 142.143 193.244L141.85 191.95C141.15 192.109 140.423 192.193 139.697 192.193V193.52ZM142.143 193.244C142.609 193.139 143.071 193.002 143.519 192.846L143.082 191.593C142.674 191.735 142.26 191.857 141.849 191.951L142.143 193.244ZM143.028 192.824C144.487 193.48 146.083 193.828 147.72 193.828V192.501C146.272 192.501 144.861 192.193 143.572 191.614L143.028 192.824ZM147.72 193.828C150.151 193.828 152.569 193.077 154.897 191.639L154.2 190.51C152.048 191.839 149.868 192.501 147.72 192.501V193.828ZM154.807 191.685L159.366 189.754L158.849 188.533L154.29 190.464L154.807 191.685ZM159.368 189.754C160.627 189.217 161.699 188.342 162.475 187.248L161.394 186.48C160.757 187.377 159.878 188.094 158.847 188.533L159.368 189.754ZM161.37 187.213C163.623 190.855 167.7 193.161 172.217 193.161V191.835C168.153 191.835 164.506 189.761 162.499 186.515L161.37 187.213ZM172.217 193.161C172.769 193.161 173.327 193.13 173.878 193.056L173.701 191.741C173.218 191.806 172.72 191.835 172.217 191.835V193.161ZM173.884 193.055C174.52 192.964 175.201 192.851 175.887 192.685L175.575 191.395C174.947 191.547 174.314 191.653 173.696 191.742L173.884 193.055ZM175.523 192.67C176.646 193.041 177.831 193.231 179.026 193.231V191.904C177.971 191.904 176.926 191.736 175.939 191.41L175.523 192.67ZM179.026 193.231C180.051 193.231 181.057 193.094 182.033 192.818L181.672 191.541C180.816 191.783 179.931 191.904 179.026 191.904V193.231ZM181.543 192.766C183.061 193.567 184.869 194.107 186.929 194.107V192.78C185.108 192.78 183.511 192.304 182.162 191.593L181.543 192.766ZM187.398 192.974L187.378 192.955L186.44 193.893L186.46 193.913L187.398 192.974ZM186.909 194.087C189.553 194.087 192.178 193.198 194.706 191.495L193.965 190.395C191.615 191.978 189.243 192.76 186.909 192.76V194.087ZM194.713 191.491C194.981 191.305 195.261 191.094 195.467 190.901L194.557 189.934C194.424 190.06 194.207 190.227 193.958 190.4L194.713 191.491ZM195.452 190.914L199.672 187.182L198.793 186.188L194.573 189.921L195.452 190.914ZM199.673 187.181C200.15 186.758 200.579 186.276 200.933 185.733L199.822 185.008C199.539 185.441 199.191 185.835 198.793 186.188L199.673 187.181ZM200.93 185.738C203.985 181.134 203.755 173.769 197.721 168.439L196.842 169.434C202.394 174.337 202.503 180.967 199.825 185.004L200.93 185.738ZM197.753 168.47C196.83 167.538 195.764 165.973 195.356 164.685L194.091 165.086C194.579 166.624 195.782 168.364 196.81 169.403L197.753 168.47ZM195.197 165.349C197.671 162.823 201.554 158.333 205.153 151.966L203.998 151.313C200.468 157.559 196.661 161.958 194.249 164.421L195.197 165.349ZM214.436 159.664C211.703 157.739 208.314 154.952 205.077 151.206L204.073 152.073C207.395 155.918 210.87 158.775 213.672 160.749L214.436 159.664ZM217.828 168.293C216.325 164.843 215.298 161.908 214.686 160.003L213.423 160.409C214.045 162.347 215.088 165.324 216.611 168.823L217.828 168.293ZM218.02 168.984L217.861 168.387L216.579 168.729L216.738 169.326L218.02 168.984ZM218.379 169.545L217.951 168.818L216.807 169.492L217.235 170.218L218.379 169.545ZM219.826 172.606C219.341 171.615 218.866 170.616 218.412 169.609L217.202 170.154C217.664 171.178 218.145 172.19 218.635 173.19L219.826 172.606ZM217.684 175.686C218.216 174.828 218.866 174.066 219.656 173.407L218.805 172.389C217.902 173.143 217.159 174.013 216.556 174.987L217.684 175.686ZM216.752 183.077C216.005 180.47 216.345 177.857 217.685 175.685L216.556 174.988C215.009 177.495 214.632 180.496 215.477 183.443L216.752 183.077ZM227.681 191.097C222.599 191.097 218.11 187.787 216.752 183.076L215.477 183.444C217.006 188.747 222.033 192.424 227.681 192.424V191.097ZM228.658 191.06C228.346 191.088 228.018 191.097 227.681 191.097V192.424C228.042 192.424 228.411 192.414 228.775 192.382L228.658 191.06ZM229.298 190.993C229.084 191.021 228.877 191.04 228.657 191.06L228.777 192.382C228.994 192.362 229.226 192.341 229.469 192.309L229.298 190.993ZM234.261 192.192C232.657 192.192 231.091 191.801 229.693 191.064L229.074 192.238C230.663 193.075 232.441 193.519 234.261 193.519V192.192ZM236.414 191.95C235.714 192.109 234.987 192.192 234.261 192.192V193.519C235.088 193.519 235.914 193.424 236.707 193.244L236.414 191.95ZM237.646 191.592C237.238 191.735 236.824 191.857 236.413 191.95L236.708 193.244C237.173 193.138 237.635 193.001 238.083 192.845L237.646 191.592ZM242.284 192.501C240.836 192.501 239.425 192.193 238.136 191.614L237.593 192.824C239.051 193.479 240.647 193.828 242.284 193.828V192.501ZM248.764 190.51C246.612 191.839 244.432 192.501 242.284 192.501V193.828C244.715 193.828 247.134 193.076 249.461 191.638L248.764 190.51ZM253.413 188.532L248.854 190.463L249.371 191.685L253.93 189.754L253.413 188.532ZM255.958 186.479C255.321 187.376 254.442 188.094 253.412 188.533L253.932 189.753C255.191 189.217 256.263 188.341 257.04 187.247L255.958 186.479ZM266.781 191.834C262.718 191.834 259.07 189.76 257.063 186.514L255.934 187.212C258.187 190.855 262.264 193.161 266.781 193.161V191.834ZM268.266 191.74C267.782 191.806 267.284 191.834 266.781 191.834V193.161C267.333 193.161 267.891 193.13 268.442 193.055L268.266 191.74ZM270.139 191.395C269.511 191.547 268.878 191.653 268.26 191.741L268.448 193.055C269.084 192.964 269.765 192.851 270.451 192.684L270.139 191.395ZM273.59 191.904C272.535 191.904 271.491 191.736 270.503 191.41L270.087 192.669C271.21 193.04 272.395 193.23 273.59 193.23V191.904ZM276.236 191.54C275.38 191.782 274.496 191.904 273.59 191.904V193.23C274.615 193.23 275.622 193.093 276.597 192.817L276.236 191.54Z" fill="black"/>
<path d="M102.957 35.0858L103.584 41.2673L102.509 42.7305L100.21 44.9304L100.588 49.3102L111.926 48.9817L120.596 52.1471L123.921 50.1165L124.866 43.1387L129.744 35.6133L134.193 33.7619L135.268 30.0291L130.062 27.7695L130.988 21.0306L131.675 16.0137L130.301 13.2265L127.056 16.8001L124.896 21.9662L119.869 19.5773L117.202 20.5826L111.807 20.0451L112.523 14.6699L108.84 15.4463L104.988 23.4494L104.59 27.4808L102.957 35.0858Z" fill="white"/>
<path d="M37.9564 30.955L38.9419 37.0967L37.9564 38.6197L35.7964 40.9489L36.4235 45.2989L47.7214 44.3035L56.5706 46.9513L59.7659 44.7315L60.3034 37.7039L64.733 29.8999L69.0531 27.7995L69.9092 23.9971L64.5837 22.056L65.1013 15.2773L65.4995 10.2305L63.9566 7.52299L60.9305 11.2857L59.0791 16.5613L53.9228 14.4809L51.3149 15.6456L45.8998 15.4266L46.298 10.0215L42.6647 11.0069L39.2903 19.2191L39.141 23.2704L37.9564 30.955Z" fill="white"/>
<path d="M82.8689 73.1104L66.2256 68.1731L47.3426 70.2535L47.6412 65.5452L54.2508 47.8468L53.982 46.5528L49.5923 44.8805C49.5923 44.8805 40.5241 44.1538 38.9314 45.856C32.2721 52.9632 21.5913 75.9971 22.1985 86.5982C22.1985 86.5982 0.0107767 105.591 17.4305 145.208L30.4505 155.909L33.3372 166.789L38.792 176.026L36.8211 176.534L33.4268 179.53L35.975 185.393L41.3602 184.477L44.8541 186.05L50.0302 184.208L54.1114 186.189L61.7861 182.855L60.5418 179.59L54.6589 165.574H69.8389L75.0848 176.295L71.78 181.76L75.0848 185.433L85.6162 185.532L88.3237 183.611L91.3598 186.03L96.1178 186.199L100.607 178.793L94.6148 168.939L93.3605 161.931L97.81 157.342L107.087 142.222L111.815 122.961L111.666 105.591L107.167 93.2376L112.502 69.0093L119.878 52.4556L116.633 49.8774L103.673 49.6883L99.4226 55.3622L88.712 77.5599L82.849 73.1004L82.8689 73.1104Z" fill="#25F3CF"/>
<path d="M87.8457 84.7767C87.8457 84.7767 88.7416 67.9841 103.693 49.6984" stroke="black" stroke-width="1.76905" stroke-linecap="round" stroke-linejoin="round"/>
<path d="M22.2096 86.5984C22.2096 86.5984 21.9807 66.2224 38.9425 45.8562" stroke="black" stroke-width="1.76905" stroke-linecap="round" stroke-linejoin="round"/>
<path d="M47.3433 70.2537C47.0447 64.6893 49.6029 55.9695 54.2515 47.847" stroke="black" stroke-width="1.76905" stroke-linecap="round" stroke-linejoin="round"/>
<path d="M31.7744 97.1497C31.7744 97.1497 35.5669 100.176 35.995 102.565C36.423 104.954 41.8281 105.87 41.8281 105.87C41.8281 105.87 38.9513 99.907 34.3824 97.4384C33.5363 96.9805 32.7499 97.3786 31.7844 97.1596L31.7744 97.1497Z" fill="black"/>
<path d="M32.1631 105.75C32.1631 105.75 34.8308 98.6528 40.1065 96.4728L41.4403 97.6673C41.4403 97.6673 35.7466 103.57 34.2734 106.517L32.1631 105.74V105.75Z" fill="black"/>
<path d="M68.4062 97.1499C68.4062 97.1499 72.1988 100.176 72.6268 102.565C73.0548 104.954 78.4599 105.87 78.4599 105.87C78.4599 105.87 75.5832 99.9071 71.0142 97.4385C70.1681 96.9806 69.3818 97.3788 68.4162 97.1598L68.4062 97.1499Z" fill="black"/>
<path d="M68.7842 105.75C68.7842 105.75 71.4519 98.6528 76.7276 96.4728L78.0614 97.6673C78.0614 97.6673 72.3677 103.57 70.8945 106.517L68.7842 105.74V105.75Z" fill="black"/>
<path d="M49.6034 109.373C49.6034 109.373 46.1095 106.158 43.8997 109.403C43.3722 110.169 43.1333 111.095 43.1034 112.031C43.0138 114.748 43.1532 121.358 46.3883 122.393C46.3883 122.393 48.2298 123.428 50.7581 121.836C50.7581 121.836 55.347 125.3 57.8753 121.647C57.8753 121.647 64.5247 125.578 67.1526 118.929V108.338C67.1526 108.338 66.3065 105.063 62.6533 107.402C62.6533 107.402 59.9358 103.371 56.1931 107.313C56.1931 107.313 51.5545 104.595 49.6134 109.373H49.6034Z" fill="#6B36DC" stroke="black" stroke-width="1.76905" stroke-linecap="round" stroke-linejoin="round"/>
<path d="M66.3957 113.116C46.5372 108.995 47.662 122.015 47.662 122.015L50.7578 121.826L55.1276 123.558L57.8849 121.637L63.0611 122.702L67.1622 118.919L66.4156 113.106L66.3957 113.116Z" fill="white"/>
<path d="M57.0186 22.056C61.0699 6.49773 63.4887 7.48319 63.4887 7.48319C69.3019 7.48319 64.0462 22.056 64.0462 22.056" stroke="black" stroke-width="1.76905" stroke-linecap="round" stroke-linejoin="round"/>
<path d="M59.7667 42.7205C59.7667 42.7205 59.4183 39.5551 55.4565 38.2611" stroke="black" stroke-width="1.76905" stroke-linecap="round" stroke-linejoin="round"/>
<path d="M39.9771 37.7037C39.9771 37.7037 43.1425 35.8622 46.3079 36.7083" stroke="black" stroke-width="1.76905" stroke-linecap="round" stroke-linejoin="round"/>
<path d="M122.387 27.4909C127.235 12.1615 129.594 13.2664 129.594 13.2664C135.397 13.565 129.415 27.8492 129.415 27.8492" fill="white"/>
<path d="M122.387 27.4909C127.235 12.1615 129.594 13.2664 129.594 13.2664C135.397 13.565 129.415 27.8492 129.415 27.8492" stroke="black" stroke-width="1.76905" stroke-linecap="round" stroke-linejoin="round"/>
<path d="M124.08 48.2651C124.08 48.2651 123.9 45.0897 120.008 43.5966Z" fill="white"/>
<path d="M124.08 48.2651C124.08 48.2651 123.9 45.0897 120.008 43.5966" stroke="black" stroke-width="1.76905" stroke-linecap="round" stroke-linejoin="round"/>
<path d="M49.6034 109.373C49.6034 109.373 46.1095 106.158 43.8997 109.403C43.3722 110.169 43.1333 111.095 43.1034 112.031C43.0138 114.748 43.1532 121.358 46.3883 122.393C46.3883 122.393 48.2298 123.428 50.7581 121.836C50.7581 121.836 55.347 125.3 57.8753 121.647C57.8753 121.647 64.5247 125.578 67.1526 118.929V108.338C67.1526 108.338 66.3065 105.063 62.6533 107.402C62.6533 107.402 59.9358 103.371 56.1931 107.313C56.1931 107.313 51.5545 104.595 49.6134 109.373H49.6034Z" stroke="black" stroke-width="1.76905" stroke-linecap="round" stroke-linejoin="round"/>
<path d="M51.0861 34.5583C51.0861 34.5583 46.2981 33.4235 45.0041 29.0636C45.0041 29.0636 41.6794 22.8821 52.3602 26.0873C53.5547 26.4457 52.1312 28.1478 53.4651 28.7152L51.0861 34.5583Z" fill="#BFBFBF"/>
<path d="M115.399 39.4755C115.399 39.4755 110.801 37.7236 110.084 33.2343C110.084 33.2343 107.595 26.6745 117.769 31.2435C118.903 31.7511 117.271 33.2642 118.515 33.9908L115.399 39.4755Z" fill="#BFBFBF"/>
<path d="M47.6513 122.025C47.6513 122.025 46.5265 109.005 66.385 113.126" stroke="black" stroke-width="1.76905" stroke-linecap="round" stroke-linejoin="round"/>
<path d="M50.8363 33.6025C52.7077 23.9371 59.7353 25.5297 59.7353 25.5297C61.1388 22.7227 65.5485 22.3444 65.5485 22.3444C69.1121 22.5335 69.9482 23.957 69.9084 25.3406C69.8686 26.7242 68.8832 27.9984 67.5792 28.5956C59.9742 32.0596 59.596 39.9533 59.596 39.9533C60.8601 46.7021 55.8034 47.1202 55.8034 47.1202C46.1081 41.9242 36.801 45.856 36.801 45.856C36.801 45.856 32.3814 40.3315 39.9764 37.7036C39.9764 37.7036 34.2627 33.1148 39.9764 24.4049C39.9764 24.4049 35.8554 21.3689 41.9672 11.9025C42.6142 10.8972 43.5599 10.0809 44.7046 9.73254C46.3769 9.20497 48.308 9.40405 45.8991 16.3321" stroke="black" stroke-width="1.76905" stroke-linecap="round" stroke-linejoin="round"/>
<path d="M52.1408 16.1829C52.1408 16.1829 46.3475 11.4746 44.3069 20.3736C44.3069 20.3736 42.8138 25.052 47.5221 27.3016" stroke="black" stroke-width="1.61868" stroke-linecap="round" stroke-linejoin="round"/>
<path d="M58.2532 16.1829C58.2532 16.1829 54.7991 12.3705 52.0816 16.1829C49.3641 19.9953 48.4782 25.062 51.5142 26.0873" stroke="black" stroke-width="1.76905" stroke-linecap="round" stroke-linejoin="round"/>
<path d="M53.4291 181.03L36.7643 179.636C35.3673 179.519 34.1402 180.557 34.0233 181.954C33.9065 183.351 34.9443 184.578 36.3413 184.695L53.0061 186.089C54.4031 186.205 55.6302 185.168 55.7471 183.771C55.8639 182.374 54.8261 181.146 53.4291 181.03Z" fill="#00C19C"/>
<path d="M92.7626 180.623L76.0504 180.025C74.6494 179.975 73.473 181.07 73.4229 182.471C73.3727 183.872 74.4678 185.048 75.8688 185.098L92.581 185.697C93.9819 185.747 95.1583 184.652 95.2084 183.251C95.2586 181.85 94.1635 180.673 92.7626 180.623Z" fill="#00C19C"/>
<path d="M117.819 21.3791C117.819 21.3791 112.264 16.3821 109.776 25.1616C109.776 25.1616 108.054 29.7604 112.633 32.249" stroke="black" stroke-width="1.61868" stroke-linecap="round" stroke-linejoin="round"/>
<path d="M123.919 21.6874C123.919 21.6874 120.664 17.6958 117.758 21.3689C114.851 25.042 113.706 30.0489 116.693 31.2334" stroke="black" stroke-width="1.76905" stroke-linecap="round" stroke-linejoin="round"/>
<path d="M115.629 38.6994C117.998 29.1434 124.926 31.0944 124.926 31.0944C126.469 28.3571 130.889 28.2077 130.889 28.2077C134.432 28.5761 135.199 30.0493 135.089 31.4229C134.98 32.7966 133.935 34.0309 132.601 34.5485C124.837 37.6144 124.05 45.4881 124.05 45.4881C124.966 52.2868 119.899 52.456 119.899 52.456C110.483 46.7722 100.987 50.2263 100.987 50.2263C100.987 50.2263 96.8556 44.4827 104.57 42.253C104.57 42.253 99.0953 37.3755 105.247 28.9643C105.247 28.9643 101.285 25.7192 107.865 16.5714C108.562 15.6058 109.557 14.8394 110.712 14.5407C112.414 14.1028 114.166 14.7995 111.409 21.5883" stroke="black" stroke-width="1.76905" stroke-linecap="round" stroke-linejoin="round"/>
<path d="M45.9697 179.142C42.3961 178.823 41.2514 180.058 41.0424 181.441C40.6342 184.149 43.1427 186.568 45.8104 185.961C46.6764 185.761 47.6619 185.304 48.7568 184.418" stroke="black" stroke-width="1.76905" stroke-linecap="round" stroke-linejoin="round"/>
<path d="M54.3901 179.53C46.8847 178.236 49.7216 184.776 49.7216 184.776C49.7216 184.776 52.0708 188.17 56.7293 185.025L61.8159 182.865C62.7217 180.237 60.8802 178.983 60.3327 177.221C58.5111 171.408 55.5647 165.575 55.5647 165.575" stroke="black" stroke-width="1.76905" stroke-linecap="round" stroke-linejoin="round"/>
<path d="M38.8028 176.026C33.3181 177.042 32.6611 179.351 33.2185 181.262C33.9153 183.691 36.374 185.154 38.8924 184.945C39.6091 184.885 40.4353 184.746 41.3809 184.487" stroke="black" stroke-width="1.76905" stroke-linecap="round" stroke-linejoin="round"/>
<path d="M84.8701 178.754C81.2867 178.923 80.3211 180.297 80.3012 181.7C80.2614 184.438 83.0784 186.498 85.6366 185.533C86.4628 185.224 87.3786 184.627 88.3441 183.611" stroke="black" stroke-width="1.76905" stroke-linecap="round" stroke-linejoin="round"/>
<path d="M93.5898 179.799C86.0844 178.505 88.9213 185.045 88.9213 185.045C88.9213 185.045 91.2705 188.439 95.929 185.293L100.16 181.551C102.738 177.659 98.0492 173.637 98.0492 173.637C98.0492 173.637 92.1464 168.013 93.3608 161.931C93.3608 161.931 109.755 148.443 111.816 122.961C111.816 122.961 115.041 106.357 107.167 93.2377C107.167 93.2377 111.199 64.4305 119.739 52.7244" stroke="black" stroke-width="1.76905" stroke-linecap="round" stroke-linejoin="round"/>
<path d="M77.7728 176.743C72.3379 177.997 71.7804 180.326 72.4175 182.218C73.2238 184.617 75.7422 185.97 78.2506 185.652C78.9673 185.562 79.7835 185.383 80.7192 185.084" stroke="black" stroke-width="1.76905" stroke-linecap="round" stroke-linejoin="round"/>
<path d="M51.1655 163.335C51.1655 163.335 55.8041 167.555 69.8594 165.584C69.8594 165.584 71.6412 173.438 75.1052 176.305" stroke="black" stroke-width="1.76905" stroke-linecap="round" stroke-linejoin="round"/>
<path d="M30.4609 155.909C30.4609 155.909 33.3476 166.789 40.3454 177.669" stroke="black" stroke-width="1.76905" stroke-linecap="round" stroke-linejoin="round"/>
<path d="M36.6922 159.124C36.6922 159.124 3.81373 147.03 11.6775 109.373C11.6775 109.373 17.3016 71.1496 59.736 68.0539C59.736 68.0539 77.6036 66.501 88.7323 77.56" stroke="black" stroke-width="1.76905" stroke-linecap="round" stroke-linejoin="round"/>
<path d="M197.522 35.0858L198.149 41.2673L197.074 42.7305L194.774 44.9304L195.153 49.3102L206.49 48.9817L215.16 52.1471L218.485 50.1165L219.431 43.1386L224.308 35.6133L228.758 33.7619L229.833 30.0291L224.627 27.7695L225.553 21.0305L226.239 16.0137L224.866 13.2265L221.621 16.8L219.461 21.9662L214.434 19.5772L211.766 20.5826L206.371 20.0451L207.088 14.6699L203.405 15.4463L199.552 23.4494L199.154 27.4808L197.522 35.0858Z" fill="white"/>
<path d="M132.522 30.955L133.507 37.0967L132.522 38.6197L130.362 40.9489L130.989 45.2989L142.287 44.3035L151.136 46.9513L154.331 44.7315L154.869 37.7039L159.298 29.8998L163.619 27.7995L164.475 23.9971L159.149 22.056L159.667 15.2772L160.065 10.2305L158.522 7.52298L155.496 11.2856L153.645 16.5613L148.488 14.4809L145.88 15.6455L140.465 15.4266L140.863 10.0215L137.23 11.0069L133.856 19.2191L133.706 23.2704L132.522 30.955Z" fill="white"/>
<path d="M177.435 73.1104L160.792 68.1731L141.909 70.2535L142.207 65.5452L148.817 47.8468L148.548 46.5528L144.158 44.8805C144.158 44.8805 135.09 44.1538 133.497 45.856C126.838 52.9632 116.157 75.997 116.764 86.5982C116.764 86.5982 94.5767 105.591 111.996 145.208L125.016 155.909L127.903 166.789L133.358 176.026L131.387 176.534L127.993 179.53L130.541 185.393L135.926 184.477L139.42 186.05L144.596 184.208L148.677 186.189L156.352 182.855L155.108 179.59L149.225 165.574H164.405L169.651 176.295L166.346 181.76L169.651 185.433L180.182 185.532L182.89 183.611L185.926 186.03L190.684 186.199L195.173 178.793L189.181 168.939L187.926 161.931L192.376 157.342L201.653 142.222L206.381 122.961L206.232 105.591L201.733 93.2376L207.068 69.0093L214.444 52.4555L211.199 49.8774L198.239 49.6883L193.989 55.3622L183.278 77.5599L177.415 73.1004L177.435 73.1104Z" fill="#6B36DC"/>
<path d="M182.411 84.7767C182.411 84.7767 183.307 67.9841 198.258 49.6984" stroke="black" stroke-width="1.76905" stroke-linecap="round" stroke-linejoin="round"/>
<path d="M116.775 86.5984C116.775 86.5984 116.546 66.2223 133.508 45.8562" stroke="black" stroke-width="1.76905" stroke-linecap="round" stroke-linejoin="round"/>
<path d="M141.909 70.2537C141.61 64.6893 144.168 55.9695 148.817 47.847" stroke="black" stroke-width="1.76905" stroke-linecap="round" stroke-linejoin="round"/>
<path d="M126.34 97.1497C126.34 97.1497 130.132 100.176 130.56 102.565C130.988 104.954 136.394 105.869 136.394 105.869C136.394 105.869 133.517 99.907 128.948 97.4383C128.102 96.9805 127.315 97.3786 126.35 97.1596L126.34 97.1497Z" fill="black"/>
<path d="M126.729 105.75C126.729 105.75 129.396 98.6528 134.672 96.4728L136.006 97.6673C136.006 97.6673 130.312 103.57 128.839 106.517L126.729 105.74V105.75Z" fill="black"/>
<path d="M162.972 97.1498C162.972 97.1498 166.764 100.176 167.192 102.565C167.62 104.954 173.025 105.87 173.025 105.87C173.025 105.87 170.149 99.9071 165.58 97.4385C164.734 96.9806 163.947 97.3788 162.982 97.1598L162.972 97.1498Z" fill="black"/>
<path d="M163.35 105.75C163.35 105.75 166.017 98.6528 171.293 96.4728L172.627 97.6673C172.627 97.6673 166.933 103.57 165.46 106.517L163.35 105.74V105.75Z" fill="black"/>
<path d="M144.169 109.373C144.169 109.373 140.675 106.158 138.465 109.403C137.938 110.169 137.699 111.095 137.669 112.031C137.579 114.748 137.719 121.358 140.954 122.393C140.954 122.393 142.795 123.428 145.324 121.836C145.324 121.836 149.912 125.3 152.441 121.647C152.441 121.647 159.09 125.578 161.718 118.929V108.338C161.718 108.338 160.872 105.063 157.219 107.402C157.219 107.402 154.501 103.371 150.759 107.313C150.759 107.313 146.12 104.595 144.179 109.373H144.169Z" fill="#25F3CF" stroke="black" stroke-width="1.76905" stroke-linecap="round" stroke-linejoin="round"/>
<path d="M160.961 113.116C141.103 108.995 142.227 122.015 142.227 122.015L145.323 121.826L149.693 123.558L152.45 121.637L157.626 122.702L161.728 118.919L160.981 113.106L160.961 113.116Z" fill="white"/>
<path d="M151.583 22.0558C155.635 6.49755 158.054 7.48301 158.054 7.48301C163.867 7.48301 158.611 22.0558 158.611 22.0558" stroke="black" stroke-width="1.76905" stroke-linecap="round" stroke-linejoin="round"/>
<path d="M154.332 42.7205C154.332 42.7205 153.984 39.5551 150.022 38.2611" stroke="black" stroke-width="1.76905" stroke-linecap="round" stroke-linejoin="round"/>
<path d="M134.542 37.7035C134.542 37.7035 137.708 35.862 140.873 36.7081" stroke="black" stroke-width="1.76905" stroke-linecap="round" stroke-linejoin="round"/>
<path d="M216.951 27.4907C221.799 12.1613 224.158 13.2662 224.158 13.2662C229.961 13.5649 223.979 27.849 223.979 27.849" fill="white"/>
<path d="M216.951 27.4907C221.799 12.1613 224.158 13.2662 224.158 13.2662C229.961 13.5649 223.979 27.849 223.979 27.849" stroke="black" stroke-width="1.76905" stroke-linecap="round" stroke-linejoin="round"/>
<path d="M218.644 48.2649C218.644 48.2649 218.465 45.0896 214.573 43.5964Z" fill="white"/>
<path d="M218.644 48.2649C218.644 48.2649 218.465 45.0896 214.573 43.5964" stroke="black" stroke-width="1.76905" stroke-linecap="round" stroke-linejoin="round"/>
<path d="M144.169 109.373C144.169 109.373 140.675 106.158 138.465 109.403C137.938 110.169 137.699 111.095 137.669 112.031C137.579 114.748 137.719 121.358 140.954 122.393C140.954 122.393 142.795 123.428 145.324 121.836C145.324 121.836 149.912 125.3 152.441 121.647C152.441 121.647 159.09 125.578 161.718 118.929V108.338C161.718 108.338 160.872 105.063 157.219 107.402C157.219 107.402 154.501 103.371 150.759 107.313C150.759 107.313 146.12 104.595 144.179 109.373H144.169Z" stroke="black" stroke-width="1.76905" stroke-linecap="round" stroke-linejoin="round"/>
<path d="M145.651 34.5581C145.651 34.5581 140.864 33.4233 139.57 29.0634C139.57 29.0634 136.245 22.8819 146.926 26.0872C148.12 26.4455 146.697 28.1477 148.031 28.715L145.651 34.5581Z" fill="#BFBFBF"/>
<path d="M209.964 39.4753C209.964 39.4753 205.365 37.7234 204.648 33.2341C204.648 33.2341 202.16 26.6743 212.333 31.2433C213.468 31.7509 211.835 33.264 213.08 33.9906L209.964 39.4753Z" fill="#BFBFBF"/>
<path d="M142.217 122.025C142.217 122.025 141.092 109.005 160.95 113.126" stroke="black" stroke-width="1.76905" stroke-linecap="round" stroke-linejoin="round"/>
<path d="M145.402 33.6025C147.273 23.9371 154.301 25.5297 154.301 25.5297C155.704 22.7227 160.114 22.3444 160.114 22.3444C163.678 22.5335 164.514 23.957 164.474 25.3406C164.434 26.7242 163.449 27.9983 162.145 28.5956C154.54 32.0596 154.161 39.9532 154.161 39.9532C155.426 46.7021 150.369 47.1202 150.369 47.1202C140.674 41.9242 131.366 45.856 131.366 45.856C131.366 45.856 126.947 40.3315 134.542 37.7036C134.542 37.7036 128.828 33.1148 134.542 24.4049C134.542 24.4049 130.421 21.3689 136.533 11.9025C137.18 10.8972 138.125 10.0809 139.27 9.73252C140.942 9.20495 142.873 9.40404 140.465 16.3321" stroke="black" stroke-width="1.76905" stroke-linecap="round" stroke-linejoin="round"/>
<path d="M146.706 16.1829C146.706 16.1829 140.913 11.4746 138.872 20.3735C138.872 20.3735 137.379 25.052 142.088 27.3016" stroke="black" stroke-width="1.61868" stroke-linecap="round" stroke-linejoin="round"/>
<path d="M152.818 16.1827C152.818 16.1827 149.364 12.3703 146.647 16.1827C143.929 19.9951 143.043 25.0618 146.079 26.0871" stroke="black" stroke-width="1.76905" stroke-linecap="round" stroke-linejoin="round"/>
<path d="M147.995 181.03L131.33 179.636C129.933 179.519 128.706 180.557 128.589 181.954C128.472 183.351 129.51 184.578 130.907 184.695L147.571 186.089C148.968 186.205 150.196 185.168 150.312 183.771C150.429 182.374 149.392 181.146 147.995 181.03Z" fill="#431098"/>
<path d="M187.328 180.623L170.616 180.025C169.215 179.975 168.038 181.07 167.988 182.471C167.938 183.872 169.033 185.048 170.434 185.098L187.146 185.697C188.547 185.747 189.724 184.652 189.774 183.251C189.824 181.85 188.729 180.673 187.328 180.623Z" fill="#431098"/>
<path d="M212.384 21.3791C212.384 21.3791 206.83 16.3821 204.341 25.1616C204.341 25.1616 202.619 29.7604 207.198 32.249" stroke="black" stroke-width="1.61868" stroke-linecap="round" stroke-linejoin="round"/>
<path d="M218.484 21.6874C218.484 21.6874 215.229 17.6958 212.322 21.3689C209.416 25.042 208.271 30.0489 211.257 31.2334" stroke="black" stroke-width="1.76905" stroke-linecap="round" stroke-linejoin="round"/>
<path d="M210.194 38.6992C212.563 29.1433 219.491 31.0943 219.491 31.0943C221.034 28.3569 225.453 28.2076 225.453 28.2076C228.997 28.5759 229.763 30.0491 229.654 31.4227C229.544 32.7964 228.499 34.0307 227.165 34.5483C219.401 37.6142 218.615 45.4879 218.615 45.4879C219.53 52.2866 214.464 52.4558 214.464 52.4558C205.047 46.772 195.551 50.2261 195.551 50.2261C195.551 50.2261 191.42 44.4826 199.135 42.2528C199.135 42.2528 193.66 37.3753 199.811 28.9641C199.811 28.9641 195.85 25.719 202.429 16.5712C203.126 15.6056 204.122 14.8392 205.276 14.5406C206.978 14.1026 208.73 14.7994 205.973 21.5881" stroke="black" stroke-width="1.76905" stroke-linecap="round" stroke-linejoin="round"/>
<path d="M140.535 179.142C136.962 178.823 135.817 180.058 135.608 181.441C135.2 184.149 137.708 186.568 140.376 185.96C141.242 185.761 142.227 185.303 143.322 184.417" stroke="black" stroke-width="1.76905" stroke-linecap="round" stroke-linejoin="round"/>
<path d="M148.956 179.53C141.45 178.236 144.287 184.776 144.287 184.776C144.287 184.776 146.636 188.17 151.295 185.025L156.381 182.865C157.287 180.237 155.446 178.983 154.898 177.221C153.077 171.408 150.13 165.575 150.13 165.575" stroke="black" stroke-width="1.76905" stroke-linecap="round" stroke-linejoin="round"/>
<path d="M133.368 176.026C127.884 177.042 127.227 179.351 127.784 181.262C128.481 183.691 130.939 185.154 133.458 184.945C134.175 184.885 135.001 184.746 135.946 184.487" stroke="black" stroke-width="1.76905" stroke-linecap="round" stroke-linejoin="round"/>
<path d="M179.436 178.754C175.852 178.923 174.887 180.296 174.867 181.7C174.827 184.437 177.644 186.498 180.202 185.532C181.028 185.224 181.944 184.626 182.91 183.611" stroke="black" stroke-width="1.76905" stroke-linecap="round" stroke-linejoin="round"/>
<path d="M188.156 179.799C180.65 178.505 183.487 185.045 183.487 185.045C183.487 185.045 185.836 188.439 190.495 185.293L194.725 181.551C197.304 177.659 192.615 173.637 192.615 173.637C192.615 173.637 186.712 168.013 187.927 161.931C187.927 161.931 204.321 148.443 206.382 122.961C206.382 122.961 209.607 106.357 201.733 93.2377C201.733 93.2377 205.765 64.4305 214.305 52.7244" stroke="black" stroke-width="1.76905" stroke-linecap="round" stroke-linejoin="round"/>
<path d="M172.338 176.743C166.903 177.997 166.346 180.326 166.983 182.218C167.789 184.617 170.308 185.97 172.816 185.652C173.533 185.562 174.349 185.383 175.285 185.084" stroke="black" stroke-width="1.76905" stroke-linecap="round" stroke-linejoin="round"/>
<path d="M145.731 163.335C145.731 163.335 150.37 167.555 164.425 165.584C164.425 165.584 166.207 173.438 169.671 176.305" stroke="black" stroke-width="1.76905" stroke-linecap="round" stroke-linejoin="round"/>
<path d="M125.026 155.909C125.026 155.909 127.913 166.789 134.911 177.669" stroke="black" stroke-width="1.76905" stroke-linecap="round" stroke-linejoin="round"/>
<path d="M131.258 159.124C131.258 159.124 98.3792 147.03 106.243 109.373C106.243 109.373 111.867 71.1496 154.301 68.0538C154.301 68.0538 172.169 66.501 183.298 77.56" stroke="black" stroke-width="1.76905" stroke-linecap="round" stroke-linejoin="round"/>
<path d="M292.085 34.09L292.712 40.2716L291.637 41.7348L289.337 43.9347L289.716 48.3145L301.053 47.986L309.723 51.1514L313.048 49.1208L313.994 42.1429L318.871 34.6176L323.321 32.7662L324.396 29.0334L319.19 26.7738L320.116 20.0348L320.802 15.018L319.429 12.2308L316.184 15.8043L314.024 20.9705L308.997 18.5815L306.329 19.5869L300.934 19.0494L301.651 13.6741L297.968 14.4506L294.115 22.4537L293.717 26.4851L292.085 34.09Z" fill="white"/>
<path d="M227.085 29.9593L228.071 36.101L227.085 37.6239L224.925 39.9532L225.552 44.3032L236.85 43.3078L245.7 45.9555L248.895 43.7358L249.432 36.7082L253.862 28.9041L258.182 26.8038L259.038 23.0013L253.713 21.0603L254.23 14.2815L254.628 9.23479L253.086 6.52727L250.059 10.2899L248.208 15.5656L243.052 13.4852L240.444 14.6498L235.029 14.4308L235.427 9.02575L231.794 10.0112L228.419 18.2234L228.27 22.2747L227.085 29.9593Z" fill="white"/>
<path d="M271.998 72.1146L255.355 67.1774L236.472 69.2578L236.77 64.5495L243.38 46.8511L243.111 45.557L238.721 43.8847C238.721 43.8847 229.653 43.1581 228.06 44.8603C221.401 51.9675 210.72 75.0013 211.327 85.6025C211.327 85.6025 189.14 104.595 206.559 144.212L219.579 154.913L222.466 165.793L227.921 175.03L225.95 175.538L222.556 178.534L225.104 184.397L230.489 183.481L233.983 185.054L239.159 183.213L243.24 185.193L250.915 181.859L249.671 178.594L243.788 164.578H258.968L264.214 175.299L260.909 180.764L264.214 184.437L274.745 184.536L277.453 182.615L280.489 185.034L285.247 185.203L289.736 177.798L283.744 167.943L282.489 160.935L286.939 156.346L296.216 141.226L300.944 121.965L300.795 104.595L296.296 92.2419L301.631 68.0135L309.007 51.4598L305.762 48.8817L292.802 48.6926L288.552 54.3664L277.841 76.5641L271.978 72.1047L271.998 72.1146Z" fill="#25F3CF"/>
<path d="M276.975 83.781C276.975 83.781 277.87 66.9884 292.822 48.7027" stroke="black" stroke-width="1.76905" stroke-linecap="round" stroke-linejoin="round"/>
<path d="M211.338 85.6027C211.338 85.6027 211.109 65.2266 228.071 44.8605" stroke="black" stroke-width="1.76905" stroke-linecap="round" stroke-linejoin="round"/>
<path d="M236.472 69.2581C236.173 63.6938 238.731 54.974 243.38 46.8514" stroke="black" stroke-width="1.76905" stroke-linecap="round" stroke-linejoin="round"/>
<path d="M220.903 96.1541C220.903 96.1541 224.695 99.1802 225.123 101.569C225.551 103.958 230.956 104.874 230.956 104.874C230.956 104.874 228.08 98.9114 223.511 96.4428C222.665 95.9849 221.878 96.3831 220.913 96.1641L220.903 96.1541Z" fill="black"/>
<path d="M221.292 104.754C221.292 104.754 223.959 97.6571 229.235 95.4771L230.569 96.6716C230.569 96.6716 224.875 102.574 223.402 105.521L221.292 104.744V104.754Z" fill="black"/>
<path d="M257.535 96.1541C257.535 96.1541 261.327 99.1802 261.755 101.569C262.183 103.958 267.588 104.874 267.588 104.874C267.588 104.874 264.712 98.9114 260.143 96.4428C259.297 95.9849 258.51 96.3831 257.545 96.1641L257.535 96.1541Z" fill="black"/>
<path d="M257.913 104.754C257.913 104.754 260.581 97.6571 265.856 95.4771L267.19 96.6716C267.19 96.6716 261.497 102.574 260.023 105.521L257.913 104.744V104.754Z" fill="black"/>
<path d="M238.732 108.378C238.732 108.378 235.238 105.162 233.028 108.407C232.501 109.174 232.262 110.1 232.232 111.035C232.142 113.753 232.282 120.362 235.517 121.398C235.517 121.398 237.358 122.433 239.887 120.84C239.887 120.84 244.475 124.304 247.004 120.651C247.004 120.651 253.653 124.583 256.281 117.934V107.342C256.281 107.342 255.435 104.067 251.782 106.407C251.782 106.407 249.064 102.375 245.321 106.317C245.321 106.317 240.683 103.6 238.742 108.378H238.732Z" fill="#6B36DC" stroke="black" stroke-width="1.76905" stroke-linecap="round" stroke-linejoin="round"/>
<path d="M255.524 112.12C235.666 107.999 236.79 121.019 236.79 121.019L239.886 120.83L244.256 122.562L247.013 120.641L252.189 121.706L256.291 117.924L255.544 112.11L255.524 112.12Z" fill="white"/>
<path d="M246.146 21.0601C250.198 5.50184 252.617 6.4873 252.617 6.4873C258.43 6.4873 253.174 21.0601 253.174 21.0601" stroke="black" stroke-width="1.76905" stroke-linecap="round" stroke-linejoin="round"/>
<path d="M248.895 41.7248C248.895 41.7248 248.547 38.5594 244.585 37.2654" stroke="black" stroke-width="1.76905" stroke-linecap="round" stroke-linejoin="round"/>
<path d="M229.105 36.7081C229.105 36.7081 232.27 34.8666 235.436 35.7127" stroke="black" stroke-width="1.76905" stroke-linecap="round" stroke-linejoin="round"/>
<path d="M311.516 26.4951C316.363 11.1658 318.722 12.2707 318.722 12.2707C324.526 12.5693 318.543 26.8535 318.543 26.8535" fill="white"/>
<path d="M311.516 26.4951C316.363 11.1658 318.722 12.2707 318.722 12.2707C324.526 12.5693 318.543 26.8535 318.543 26.8535" stroke="black" stroke-width="1.76905" stroke-linecap="round" stroke-linejoin="round"/>
<path d="M313.208 47.2694C313.208 47.2694 313.029 44.094 309.137 42.6009Z" fill="white"/>
<path d="M313.208 47.2694C313.208 47.2694 313.029 44.094 309.137 42.6009" stroke="black" stroke-width="1.76905" stroke-linecap="round" stroke-linejoin="round"/>
<path d="M238.732 108.378C238.732 108.378 235.238 105.162 233.028 108.407C232.501 109.174 232.262 110.1 232.232 111.035C232.142 113.753 232.282 120.362 235.517 121.398C235.517 121.398 237.358 122.433 239.887 120.84C239.887 120.84 244.475 124.304 247.004 120.651C247.004 120.651 253.653 124.583 256.281 117.934V107.342C256.281 107.342 255.435 104.067 251.782 106.407C251.782 106.407 249.064 102.375 245.321 106.317C245.321 106.317 240.683 103.6 238.742 108.378H238.732Z" stroke="black" stroke-width="1.76905" stroke-linecap="round" stroke-linejoin="round"/>
<path d="M240.214 33.5624C240.214 33.5624 235.427 32.4276 234.133 28.0677C234.133 28.0677 230.808 21.8862 241.489 25.0914C242.683 25.4498 241.26 27.1519 242.594 27.7193L240.214 33.5624Z" fill="#BFBFBF"/>
<path d="M304.527 38.48C304.527 38.48 299.929 36.728 299.212 32.2387C299.212 32.2387 296.723 25.679 306.897 30.2479C308.031 30.7556 306.399 32.2686 307.643 32.9952L304.527 38.48Z" fill="#BFBFBF"/>
<path d="M236.78 121.03C236.78 121.03 235.655 108.01 255.513 112.131" stroke="black" stroke-width="1.76905" stroke-linecap="round" stroke-linejoin="round"/>
<path d="M239.965 32.6068C241.836 22.9413 248.864 24.534 248.864 24.534C250.267 21.7269 254.677 21.3487 254.677 21.3487C258.241 21.5378 259.077 22.9613 259.037 24.3449C258.997 25.7285 258.012 27.0026 256.708 27.5999C249.103 31.0639 248.724 38.9575 248.724 38.9575C249.989 45.7064 244.932 46.1245 244.932 46.1245C235.237 40.9284 225.929 44.8603 225.929 44.8603C225.929 44.8603 221.51 39.3358 229.105 36.7079C229.105 36.7079 223.391 32.119 229.105 23.4092C229.105 23.4092 224.984 20.3732 231.096 10.9068C231.743 9.90144 232.688 9.0852 233.833 8.73681C235.505 8.20924 237.436 8.40832 235.027 15.3364" stroke="black" stroke-width="1.76905" stroke-linecap="round" stroke-linejoin="round"/>
<path d="M241.269 15.1873C241.269 15.1873 235.476 10.479 233.435 19.378C233.435 19.378 231.942 24.0564 236.651 26.3061" stroke="black" stroke-width="1.61868" stroke-linecap="round" stroke-linejoin="round"/>
<path d="M247.381 15.187C247.381 15.187 243.927 11.3746 241.21 15.187C238.492 18.9994 237.606 24.0661 240.642 25.0914" stroke="black" stroke-width="1.76905" stroke-linecap="round" stroke-linejoin="round"/>
<path d="M242.558 180.034L225.893 178.64C224.496 178.524 223.269 179.561 223.152 180.958C223.035 182.355 224.073 183.582 225.47 183.699L242.134 185.093C243.531 185.21 244.759 184.172 244.875 182.775C244.992 181.378 243.955 180.151 242.558 180.034Z" fill="#00C19C"/>
<path d="M281.891 179.627L265.179 179.029C263.778 178.979 262.601 180.074 262.551 181.475C262.501 182.876 263.596 184.053 264.997 184.103L281.709 184.701C283.11 184.751 284.287 183.656 284.337 182.255C284.387 180.854 283.292 179.678 281.891 179.627Z" fill="#00C19C"/>
<path d="M306.947 20.3833C306.947 20.3833 301.393 15.3864 298.904 24.1659C298.904 24.1659 297.182 28.7647 301.761 31.2532" stroke="black" stroke-width="1.61868" stroke-linecap="round" stroke-linejoin="round"/>
<path d="M313.048 20.6917C313.048 20.6917 309.793 16.7001 306.887 20.3732C303.98 24.0463 302.835 29.0532 305.821 30.2377" stroke="black" stroke-width="1.76905" stroke-linecap="round" stroke-linejoin="round"/>
<path d="M304.757 37.7033C307.126 28.1474 314.054 30.0984 314.054 30.0984C315.597 27.361 320.016 27.2117 320.016 27.2117C323.56 27.58 324.326 29.0532 324.217 30.4269C324.107 31.8005 323.062 33.0348 321.728 33.5525C313.964 36.6183 313.178 44.492 313.178 44.492C314.093 51.2907 309.027 51.4599 309.027 51.4599C299.61 45.7761 290.114 49.2302 290.114 49.2302C290.114 49.2302 285.983 43.4867 293.697 41.2569C293.697 41.2569 288.223 36.3794 294.374 27.9682C294.374 27.9682 290.413 24.7232 296.992 15.5753C297.689 14.6098 298.685 13.8433 299.839 13.5447C301.541 13.1067 303.293 13.8035 300.536 20.5922" stroke="black" stroke-width="1.76905" stroke-linecap="round" stroke-linejoin="round"/>
<path d="M235.098 178.146C231.525 177.828 230.38 179.062 230.171 180.446C229.763 183.153 232.271 185.572 234.939 184.965C235.805 184.766 236.79 184.308 237.885 183.422" stroke="black" stroke-width="1.76905" stroke-linecap="round" stroke-linejoin="round"/>
<path d="M243.519 178.535C236.013 177.24 238.85 183.78 238.85 183.78C238.85 183.78 241.199 187.175 245.858 184.029L250.944 181.869C251.85 179.241 250.009 177.987 249.461 176.225C247.64 170.412 244.693 164.579 244.693 164.579" stroke="black" stroke-width="1.76905" stroke-linecap="round" stroke-linejoin="round"/>
<path d="M227.931 175.031C222.447 176.046 221.79 178.355 222.347 180.266C223.044 182.695 225.502 184.159 228.021 183.949C228.738 183.89 229.564 183.75 230.509 183.492" stroke="black" stroke-width="1.76905" stroke-linecap="round" stroke-linejoin="round"/>
<path d="M273.999 177.758C270.415 177.927 269.45 179.301 269.43 180.704C269.39 183.442 272.207 185.502 274.765 184.537C275.591 184.228 276.507 183.631 277.473 182.616" stroke="black" stroke-width="1.76905" stroke-linecap="round" stroke-linejoin="round"/>
<path d="M282.719 178.803C275.213 177.509 278.05 184.049 278.05 184.049C278.05 184.049 280.399 187.443 285.058 184.298L289.288 180.555C291.867 176.663 287.178 172.642 287.178 172.642C287.178 172.642 281.275 167.018 282.49 160.936C282.49 160.936 298.884 147.448 300.945 121.965C300.945 121.965 304.17 105.362 296.296 92.2421C296.296 92.2421 300.328 63.4349 308.868 51.7289" stroke="black" stroke-width="1.76905" stroke-linecap="round" stroke-linejoin="round"/>
<path d="M266.901 175.747C261.466 177.001 260.909 179.331 261.546 181.222C262.352 183.621 264.871 184.975 267.379 184.656C268.096 184.566 268.912 184.387 269.848 184.089" stroke="black" stroke-width="1.76905" stroke-linecap="round" stroke-linejoin="round"/>
<path d="M240.294 162.339C240.294 162.339 244.933 166.559 258.988 164.589C258.988 164.589 260.77 172.442 264.234 175.309" stroke="black" stroke-width="1.76905" stroke-linecap="round" stroke-linejoin="round"/>
<path d="M219.589 154.913C219.589 154.913 222.476 165.793 229.474 176.673" stroke="black" stroke-width="1.76905" stroke-linecap="round" stroke-linejoin="round"/>
<path d="M225.821 158.128C225.821 158.128 192.942 146.034 200.806 108.378C200.806 108.378 206.43 70.1539 248.864 67.0581C248.864 67.0581 266.732 65.5053 277.861 76.5643" stroke="black" stroke-width="1.76905" stroke-linecap="round" stroke-linejoin="round"/>
</g>
<defs>
<filter id="filter0_d_1931_37974" x="0.983119" y="0.336601" width="342.444" height="209.652" filterUnits="userSpaceOnUse" color-interpolation-filters="sRGB">
<feFlood flood-opacity="0" result="BackgroundImageFix"/>
<feColorMatrix in="SourceAlpha" type="matrix" values="0 0 0 0 0 0 0 0 0 0 0 0 0 0 0 0 0 0 127 0" result="hardAlpha"/>
<feOffset dx="4.70564" dy="8.82307"/>
<feGaussianBlur stdDeviation="3.52923"/>
<feComposite in2="hardAlpha" operator="out"/>
<feColorMatrix type="matrix" values="0 0 0 0 0 0 0 0 0 0 0 0 0 0 0 0 0 0 0.12 0"/>
<feBlend mode="normal" in2="BackgroundImageFix" result="effect1_dropShadow_1931_37974"/>
<feBlend mode="normal" in="SourceGraphic" in2="effect1_dropShadow_1931_37974" result="shape"/>
</filter>
</defs>
</svg>
