<?xml version="1.0" encoding="utf-8"?>
<!-- Generator: Adobe Illustrator 26.0.2, SVG Export Plug-In . SVG Version: 6.00 Build 0)  -->
<svg version="1.1" id="Layer_1" xmlns="http://www.w3.org/2000/svg" xmlns:xlink="http://www.w3.org/1999/xlink" x="0px" y="0px"
	 viewBox="0 0 565 311" style="enable-background:new 0 0 565 311;" xml:space="preserve">
<style type="text/css">
	.st0{fill:#F8F8FA;}
	.st1{fill:none;stroke:#99999E;}
	.st2{fill:#C7C7CB;stroke:#C7C7CB;}
	.st3{fill:#C7C7CB;}
	.st4{fill:#C7C7CB;stroke:#C7C7CB;stroke-width:2;}
	.st5{fill:none;stroke:#C7C7CB;}
	.st6{fill:#FFFFFF;}
	.st7{fill:none;stroke:#000000;}
	.st8{fill:#6B36DC;}
</style>
<g>
	<path class="st0" d="M514.7,124.4L493,70.5c-1.6-3.9-6.1-7-10.1-6.9l-87.8,2.1c-2.6,0.1-4.1,2.1-3.2,4.6c-0.8-2.5-3.6-4.4-6.3-4.3
		l-301,7.2c-5.7,0.1-9.8,4.1-9.1,8.8l9.5,65.8c7.7-0.4,14.8,4.6,15.8,11.3s-4.4,12.6-12.3,13.2l10.6,73.4c0.8,5.8,6.6,10,12.9,9.3
		l326.4-32.4c2.8-0.3,4.3-2.9,3.3-5.8c1,2.9,4.1,5.1,6.9,4.8l93.5-9.3c4.2-0.4,6.2-4.5,4.3-9.1l-23.7-59c-5.3,0.3-11.5-3.9-13.6-9.4
		C506.9,129.3,509.4,124.6,514.7,124.4L514.7,124.4z"/>
	<path class="st1" d="M442.2,216.6c0.9,2.7,3.8,4.7,6.3,4.5l0,0l93.5-9.3c2-0.2,3.3-1.2,4-2.7s0.7-3.5-0.1-5.7l-23.6-58.6
		c-2.7,0.1-5.5-0.9-8-2.6c-2.5-1.8-4.7-4.3-5.8-7.1c-1.1-2.9-1.1-5.6,0.1-7.6c1-1.9,2.9-3.1,5.3-3.4l-21.4-53.2
		c-0.7-1.9-2.2-3.5-3.9-4.7c-1.8-1.2-3.8-1.9-5.6-1.9 M442.2,216.6L442.2,216.6l-1,0.3l0,0l0,0c0.5,1.3,0.3,2.6-0.2,3.5
		s-1.4,1.5-2.7,1.7v0.5l-0.1-0.5L112,254.5c-6.1,0.6-11.6-3.4-12.4-8.9l-10.5-72.9c7.8-0.8,13.3-6.8,12.2-13.7
		c-1.1-6.9-8.1-12-15.9-11.7L76,81.9l0,0c-0.6-4.3,3.1-8.1,8.7-8.2l301.1-7.2l0,0c1.2,0,2.4,0.4,3.5,1.1s1.9,1.8,2.3,2.9l0.9-0.3
		c-0.4-1.1-0.2-2.1,0.3-2.7c0.5-0.7,1.3-1.1,2.5-1.2l87.8-2.1"/>
</g>
<path class="st2" d="M451.9,99.7l-0.2-0.6l24.8-1.2l0.2,0.6L451.9,99.7z"/>
<path class="st3" d="M434.7,155.8c0.1,0.3-0.1,0.5-0.4,0.5s-0.6-0.2-0.7-0.4l-0.2-0.5c-0.5-1.4-2.1-2.5-3.6-2.4l1.1,3.2
	c0.6,1.8,2.6,3.1,4.4,2.9s2.8-1.7,2.1-3.4l-0.2-0.5l1-0.1l3.8-0.3l1.3,3.7l2.7-0.2l-0.5-1.2l-0.9-2.5v-0.1l0,0l-0.9-2.5l-7.5,0.5
	l-2.7,0.2L434.7,155.8L434.7,155.8z"/>
<path class="st2" d="M489.7,201.9l-0.5-1.3L515,198l0.5,1.3L489.7,201.9z"/>
<path class="st2" d="M488.4,198.5l-0.1-0.2l25.8-2.6l0.1,0.2L488.4,198.5z"/>
<path class="st2" d="M513.1,192.9l-25.8,2.6l-0.1-0.2l25.8-2.6L513.1,192.9z"/>
<path class="st2" d="M510.9,187.4l-25.7,2.5l-0.1-0.2l25.7-2.5L510.9,187.4z"/>
<path class="st2" d="M510.3,185.6l-25.8,2.5l-0.9-2.5l25.7-2.4L510.3,185.6z"/>
<path class="st2" d="M482.8,183.5l-0.5-1.4l25.7-2.4l0.5,1.3L482.8,183.5z"/>
<path class="st2" d="M480.9,178.3l-0.1-0.2l25.7-2.3l0.1,0.2L480.9,178.3z"/>
<path class="st2" d="M480.1,176l-0.1-0.2l25.7-2.3l0.1,0.2L480.1,176z"/>
<path class="st2" d="M478.4,171.6l-0.3-0.7l25.6-2.2l0.3,0.7L478.4,171.6z"/>
<path class="st2" d="M502.1,164.3l-25.5,2.2v-0.1L502.1,164.3L502.1,164.3z"/>
<path class="st2" d="M475.8,164.4l-0.4-1.2l25.5-2.1l0.4,1.1L475.8,164.4z"/>
<path class="st2" d="M473.9,159.2l-0.8-2.2l25.5-2l0.8,2.2L473.9,159.2z"/>
<path class="st2" d="M497.8,153l-25.4,2v-0.1L497.8,153L497.8,153z"/>
<path class="st2" d="M470.8,150.9l-0.4-1.1l25.4-1.9l0.4,1.1L470.8,150.9z"/>
<path class="st2" d="M469.6,147.8L469.6,147.8l25.3-2v0.1L469.6,147.8z"/>
<path class="st2" d="M468.1,143.7l-0.4-1.1l25.3-1.8l0.4,1.1L468.1,143.7z"/>
<path class="st2" d="M491.5,136.8l-25.3,1.8v-0.1L491.5,136.8L491.5,136.8z"/>
<path class="st2" d="M465.5,136.5l-0.7-2.1l25.2-1.7l0.8,2.1L465.5,136.5z"/>
<path class="st2" d="M489.2,130.8l-25.2,1.7v-0.1L489.2,130.8L489.2,130.8z"/>
<path class="st2" d="M462.5,128.5l-0.4-1.1l25.1-1.6l0.4,1L462.5,128.5z"/>
<path class="st2" d="M461.4,125.5l-0.7-2.1l25.1-1.6l0.8,2L461.4,125.5z"/>
<path class="st2" d="M485,119.9l-25.1,1.6l0,0L485,119.9L485,119.9z"/>
<path class="st2" d="M459.2,119.4L459.2,119.4l25.1-1.5l0,0L459.2,119.4z"/>
<path class="st2" d="M457.7,115.5l-0.4-1l25-1.5l0.4,1L457.7,115.5z"/>
<path class="st2" d="M455.9,110.5L455.9,110.5l25-1.4l0,0L455.9,110.5z"/>
<path class="st2" d="M454.4,106.6L454.4,106.6l24.9-1.4l0,0L454.4,106.6z"/>
<path class="st2" d="M453.7,104.7l-0.4-1l24.9-1.3l0.4,1L453.7,104.7z"/>
<path class="st2" d="M449.4,93l-0.4-1l24.8-1.2l0.4,1L449.4,93z"/>
<path class="st2" d="M450.6,95.8l-0.2-0.6l24.8-1.2l0.2,0.6L450.6,95.8z"/>
<path class="st2" d="M448,89.2l-0.3-1l24.7-1.1l0.4,0.9L448,89.2z"/>
<path class="st2" d="M446.2,84.4l-0.7-1.9l24.6-1l0.7,1.9L446.2,84.4z"/>
<path class="st3" d="M444.1,80.1l0.3,1l25.7-1.1l-0.3-1L444.1,80.1L444.1,80.1z"/>
<path class="st3" d="M444.1,80.1l0.1-1l-1.6-0.2l0.5,1.5L444.1,80.1z M444.4,81.1l-0.9,0.3l0.2,0.7h0.7L444.4,81.1z M470.1,80v1
	l1.4-0.1l-0.5-1.3L470.1,80z M469.8,79.1l0.9-0.4l-0.2-0.7h-0.7L469.8,79.1z M444.1,80.1l-0.1,1h0.1h0.1L444.1,80.1z M443.1,80.5
	l0.3,1l1.9-0.7l-0.3-1L443.1,80.5z M444.5,82.1l25.7-1.1l-0.1-2l-25.7,1.1L444.5,82.1z M471.1,79.7l-0.3-1l-1.9,0.7l0.3,1
	L471.1,79.7z M469.7,78.1L444,79.2l0.1,2l25.7-1.1L469.7,78.1z M444.2,79.1L444.2,79.1l-0.3,2l0,0L444.2,79.1z"/>
<path class="st2" d="M444.1,78.7l-0.3-1l24.6-1l0.3,0.9L444.1,78.7z"/>
<path class="st2" d="M121.8,97.5l5-0.2l0,0c4.6-0.2,7.7,2.1,8.3,5.5c0.3,1.7-0.2,3.1-1.2,4.2c-1,1-2.7,1.7-5.1,1.9l0,0l-5.2,0.3
	L121.8,97.5z M124.8,98.8h-0.6l0.1,0.6l1.2,7.5l0.1,0.4h0.4l2.4-0.1c1.5-0.1,2.7-0.5,3.5-1.3s1.1-2,0.9-3.3
	c-0.2-1.3-0.9-2.4-1.9-3.1s-2.3-1-3.7-0.9L124.8,98.8z"/>
<path class="st2" d="M138,103.3l-1.1-6.3l2.2-0.1l1.1,6.5l0,0c0.2,1.1,0.7,2,1.5,2.6s1.8,1,3,0.9s2.1-0.5,2.7-1.2
	c0.6-0.7,0.8-1.7,0.6-2.8l0,0l0,0l-1.1-6.3l2.2-0.1l1.1,6.4l0,0c0.3,1.6-0.1,2.9-0.9,3.9c-0.9,0.9-2.2,1.6-4.1,1.7
	C141.3,108.6,138.5,106.5,138,103.3L138,103.3z"/>
<path class="st2" d="M152.4,96.4l4.9-0.2l0,0c4.5-0.2,7.5,2.1,8.2,5.4c0.3,1.7-0.1,3.1-1.1,4.1s-2.6,1.7-4.9,1.8l0,0l-5.1,0.3
	L152.4,96.4z M156.7,106.1l1.8-0.1l0,0h0.6c1.4-0.1,2.6-0.5,3.4-1.3c0.8-0.8,1-1.9,0.8-3.2c-0.2-1.3-0.9-2.3-1.9-3s-2.2-1-3.7-0.9
	l0,0l-2.4,0.1h-0.6l0.1,0.6l1.3,7.5l0.1,0.4L156.7,106.1z"/>
<path class="st2" d="M167.7,101.5L167.7,101.5c-0.3-1.7,0.1-3.2,1.2-4.3c1-1.1,2.6-1.8,4.7-1.9c4.1-0.2,7.5,2.3,8.2,5.7
	c0.3,1.7-0.1,3.2-1.1,4.3c-1,1.1-2.6,1.8-4.7,1.9C171.8,107.4,168.4,104.9,167.7,101.5z M179.7,100.9l-0.1-0.4l0,0
	c-0.6-2.4-3-3.9-5.6-3.8c-1.4,0.1-2.5,0.6-3.3,1.4c-0.8,0.9-1.1,2-0.9,3.3c0.5,2.6,2.9,4.3,5.7,4.2c1.4-0.1,2.5-0.6,3.3-1.4
	C179.7,103.4,180,102.2,179.7,100.9z"/>
<path class="st2" d="M184.1,100.9c-0.3-1.7,0.1-3.2,1.1-4.2c1-1.1,2.6-1.8,4.6-1.9c4.1-0.2,7.5,2.2,8.2,5.6c0.3,1.7-0.1,3.1-1.1,4.2
	s-2.6,1.8-4.6,1.9C188.2,106.7,184.8,104.3,184.1,100.9z M195.9,100.3c-0.5-2.6-2.9-4.2-5.6-4.1c-1.4,0.1-2.5,0.6-3.3,1.4
	c-0.8,0.9-1.1,2-0.8,3.3c0.5,2.6,2.9,4.3,5.7,4.1c1.4-0.1,2.5-0.6,3.3-1.4C195.8,102.7,196.1,101.6,195.9,100.3z"/>
<path class="st2" d="M202,105.9l-2.3-11.1l1.7-0.1l8.1,6.8l1.1,0.9l-0.3-1.4l-1.4-6.8l2-0.1l2.4,11l-1.7,0.1l-8.2-6.8l-1.1-0.9
	l0.3,1.4l1.4,6.8L202,105.9z"/>
<path class="st2" d="M226,100.3l-3.7,0.2l-0.3-1.3l6.2-0.3l0.1,0.3l0,0c0.4,1.7,0,3.1-0.9,4.2s-2.4,1.8-4.3,1.9
	c-3.9,0.2-7.3-2.2-8.1-5.6c-0.4-1.7,0-3.1,0.9-4.2c0.9-1,2.4-1.7,4.4-1.8c2.9-0.1,5.4,1.1,6.7,2.8l-2.2,0.1c-0.9-0.9-2.4-1.4-4-1.4
	l0,0l0,0c-1.3,0.1-2.4,0.5-3.2,1.4c-0.7,0.8-1,2-0.7,3.2c0.5,2.5,2.9,4.2,5.6,4.1c2.3-0.1,3.7-1.5,3.8-3v-0.5L226,100.3z"/>
<path class="st2" d="M132.9,123.5l0.3,0.2l-0.3,0.1l0.6,3.5l-2.3,0.1l-0.6-3.6v-0.1l-0.1-0.1l-6.3-7.7l2.5-0.1l4.3,5.6l0.5,0.7
	l0.3-0.8l2.4-5.9l2.3-0.1L132.9,123.5z"/>
<path class="st2" d="M138.7,121.1l-0.1-0.5c-0.1-1.5,0.4-2.9,1.4-3.9c1.1-1.1,2.8-1.9,4.9-2c4.3-0.2,7.8,2.3,8.4,5.8
	c0.3,1.8-0.2,3.3-1.2,4.5c-1.1,1.2-2.8,1.9-4.9,2.1C142.8,127.2,139.3,124.6,138.7,121.1z M151.1,120.4L151,120l0,0
	c-0.6-2.5-3-4-5.7-3.9c-1.4,0.1-2.6,0.6-3.4,1.5c-0.8,0.9-1.2,2.1-0.9,3.4c0.5,2.7,3,4.4,5.8,4.3c1.4-0.1,2.6-0.6,3.4-1.5
	S151.3,121.7,151.1,120.4z"/>
<path class="st2" d="M156.2,121l-1.1-6.4l2.2-0.1l1.2,6.6l0,0c0.2,1.1,0.7,2,1.5,2.7c0.8,0.6,1.8,1,3,0.9s2.1-0.5,2.7-1.3
	c0.6-0.8,0.7-1.8,0.5-2.9l-1.2-6.4l2.1-0.1l1.2,6.5l0,0c0.3,1.7,0,3-0.9,4c-0.8,1-2.2,1.6-4.1,1.7
	C159.6,126.3,156.8,124.3,156.2,121L156.2,121z"/>
<path class="st2" d="M180.9,125l-3.4-3.7l-0.2-0.2h-0.2l-2.5,0.1H174l0.1,0.6l0.6,3.4l-2.2,0.1l-2.1-11.5l5.1-0.3l0,0
	c1.7-0.1,3.1,0.2,4.1,0.9c1,0.6,1.6,1.5,1.9,2.7c0.1,0.8,0.1,1.4-0.2,2c-0.3,0.5-0.7,1-1.4,1.3l-0.6,0.3l0.5,0.5l3.4,3.5L180.9,125z
	 M173,115.8l0.7,3.5l-0.1,0.5h0.6l2.4-0.1l0,0c0.9,0,1.6-0.3,2.2-0.7c0.6-0.5,0.8-1.1,0.6-1.9c-0.1-0.7-0.6-1.3-1.2-1.6
	c-0.6-0.3-1.4-0.5-2.3-0.4l-2.4,0.1h-0.6L173,115.8z"/>
<path class="st2" d="M128.4,140.8L128.4,140.8v-0.2c-0.3-1.8,0.2-3.4,1.3-4.6c1.1-1.2,2.8-2,5-2.1l0,0c3.5-0.2,6.2,1.3,7.3,3.5
	l-2.2,0.1c-0.8-1.3-2.6-2.1-4.6-2c-1.4,0.1-2.7,0.6-3.5,1.5s-1.2,2.1-1,3.5c0.4,2.7,3,4.5,5.9,4.3c1.2-0.1,2.2-0.5,2.9-1
	c0.6-0.5,1-1,1.2-1.7l2.3-0.1c-0.3,2.1-2.5,4.3-6.2,4.6C132.6,146.9,129,144.4,128.4,140.8z"/>
<path class="st2" d="M145.1,139.7L145.1,139.7c0.6,3.6,4.2,6.2,8.5,5.9c2.2-0.1,3.9-0.9,4.9-2.1c1.1-1.2,1.6-2.8,1.2-4.6
	L145.1,139.7z M145.1,139.7c-0.3-1.8,0.2-3.4,1.3-4.6 M145.1,139.7l1.3-4.6 M146.4,135.2c1.1-1.2,2.8-2,5-2.1 M146.4,135.2l5-2.1
	 M151.4,133.1c4.3-0.3,7.8,2.3,8.5,5.9L151.4,133.1z M157.6,139L157.6,139c-0.5-2.7-3-4.5-5.8-4.3c-1.4,0.1-2.6,0.6-3.4,1.5
	c-0.8,0.9-1.1,2.1-0.9,3.5c0.5,2.7,3,4.5,5.9,4.3c1.4-0.1,2.6-0.7,3.4-1.6C157.5,141.5,157.8,140.3,157.6,139z"/>
<path class="st2" d="M173,139.5l-1.3-7.3l2.2-0.1l2.2,11.8l-1.9,0.1l-8.4-7.1l-1.1-0.9l0.2,1.4l1.3,7.4l-2.2,0.1l-2.1-11.9l1.9-0.1
	l8.4,7.1l1.1,0.9L173,139.5z"/>
<path class="st2" d="M177.9,138L177.9,138c-0.3-1.8,0.1-3.4,1.1-4.5s2.6-1.9,4.7-2c3.4-0.2,6,1.3,7.2,3.4l-2.1,0.1
	c-0.8-1.3-2.5-2.1-4.5-1.9c-1.4,0.1-2.6,0.6-3.3,1.5c-0.8,0.9-1.1,2.1-0.8,3.4c0.5,2.7,3,4.4,5.8,4.2c1.1-0.1,2.1-0.5,2.8-1
	c0.6-0.4,1-1,1.1-1.6l2.2-0.1c-0.2,2.1-2.3,4.2-5.7,4.4C182.1,144.1,178.6,141.6,177.9,138z"/>
<path class="st2" d="M195.7,143l-2.3-11.7l9.4-0.6l0.3,1.4l-6.7,0.4h-0.6l0.1,0.6l0.5,2.6l0.1,0.4h0.4l6.2-0.4l0.3,1.5l-6.1,0.4
	h-0.6l0.1,0.6l0.5,2.7l0.1,0.4h0.4l7-0.5l0.3,1.5L195.7,143z"/>
<path class="st2" d="M209.9,138.8l0.7,3.4l-2.1,0.1l-2.4-11.6l5-0.3l0,0c3.3-0.2,5.5,1.3,5.9,3.6l0,0c0.2,0.8,0.1,1.4-0.1,2
	c-0.2,0.5-0.7,1-1.3,1.4l-0.6,0.3l0.4,0.5l3.4,3.6l-2.3,0.1l-3.4-3.7L213,138h-0.2l-2.5,0.2h-0.6L209.9,138.8z M209.4,136.3l0.1,0.4
	h0.4l2.3-0.1l0,0c0.9-0.1,1.6-0.3,2.1-0.7c0.5-0.5,0.7-1.1,0.6-1.9c-0.2-0.7-0.6-1.3-1.2-1.6c-0.6-0.3-1.4-0.5-2.3-0.4l0,0l0,0
	l-2.3,0.1h-0.6l0.1,0.6L209.4,136.3z"/>
<path class="st2" d="M229.5,130.9l-3.8,0.2h-0.6l0.1,0.6l2,9.5l-2.1,0.1l-2.1-9.6l-0.1-0.4h-0.4l-4,0.2l-0.3-1.5l10.9-0.7
	L229.5,130.9z"/>
<path class="st2" d="M239.2,140.6l-2.6-11.4l2-0.1l2.2,9.5l0.1,0.4h0.4l6.3-0.4l0.3,1.5L239.2,140.6z"/>
<path class="st2" d="M247.9,128.6l1.9-0.1l2.6,11.3l-2,0.1L247.9,128.6z"/>
<path class="st2" d="M261.9,127.9l0.3,1.4l-6.1,0.4h-0.6l0.1,0.6l0.7,2.8l0.1,0.4h0.4l5.6-0.4l0.3,1.4l-5.4,0.3h-0.6l0.1,0.6l1,4.2
	l-2,0.1l-2.6-11.3L261.9,127.9z"/>
<path class="st2" d="M273.4,127.3l0.3,1.4l-6.2,0.4h-0.6l0.1,0.6l0.6,2.5l0.1,0.4h0.4l5.8-0.4l0.3,1.4l-5.7,0.3h-0.6l0.1,0.6
	l0.6,2.6l0.1,0.4h0.4l6.6-0.4l0.3,1.4l-8.9,0.6l-2.7-11.3L273.4,127.3z"/>
<path class="st2" d="M159.5,217.5l-7.5,0.7l-0.5,0.1l0.1,0.5l0.7,4.2l-1.2,0.1l-0.7-4.3l-0.1-0.5h-0.5l-7.6,0.7l-0.1-0.9l17.3-1.6
	L159.5,217.5z M158.1,213l-0.3,0.8l-8.1-3.2l-0.4-0.2l-0.2,0.4c-1.5,2.5-4,4.2-7,4.7l-0.1-0.9c3.8-0.6,6.8-4,7.2-7.9l1.2,0.1
	c-0.1,0.9-0.3,1.7-0.5,2.5l-0.2,0.5l0.4,0.2L158.1,213z"/>
<path class="st2" d="M172.1,217.1l0.7,4.2l-1.1,0.1l-0.8-4.3l-0.1-0.4h-0.5l-7.5,0.7l-0.1-0.8l16.9-1.6l0.1,0.8l-7.4,0.7l-0.5,0.1
	L172.1,217.1z M169.6,209.2c-1.4,2.4-3.9,4.2-6.8,4.6l-0.2-0.9c3.7-0.6,6.6-4,7-7.8l1.2,0.1c-0.1,0.9-0.2,1.7-0.5,2.5l-0.2,0.5
	l0.4,0.2l7.9,3.1l-0.3,0.8l-8-3.2l-0.4-0.2L169.6,209.2z"/>
<path class="st2" d="M196.6,217.1l3.9-0.4l0.2,0.8l-16.7,1.6l-0.1-0.8l3.9-0.4l0.6-0.1l-0.1-0.5l-0.6-3.3l-0.1-0.4h-0.5l-2.8,0.3
	l-0.9-5l12.7-1.2l0.6-0.1l-0.1-0.5l-0.5-2.6l-0.1-0.4h-0.4l-12.8,1.2l-0.1-0.7l14.2-1.3l0.9,4.9l-12.7,1.2l-0.6,0.1l0.1,0.5l0.5,2.6
	l0.1,0.4h0.5l13.1-1.2l0.1,0.7l-2.9,0.3l-0.6,0.1l0.1,0.5l0.6,3.2l0.1,0.4L196.6,217.1z M189.2,217.3l-0.1,0.6l0.6-0.1l4.8-0.5
	l0.6-0.1l-0.1-0.5l-0.6-3.2l-0.1-0.4h-0.4l-4.7,0.4l-0.6,0.1l0.1,0.5L189.2,217.3z"/>
<path class="st2" d="M221.7,203.6l-0.6-2.7l1-0.1l1.5,7.5l-1,0.1l-0.6-3l-0.1-0.4h-0.4l-3.5,0.3h-0.5v0.5c0,0.8-0.4,1.6-1,2.1
	s-1.5,0.9-2.6,1.1h-0.5c-3.1,0.3-5.2-1.1-5.6-3.2c-0.2-1,0.1-1.9,0.7-2.6c0.7-0.7,1.8-1.2,3.4-1.3l0,0c2.6-0.2,4.6,0.8,5.3,2.3
	l0.1,0.3h0.3l3.5-0.3l0.6-0.1L221.7,203.6z M222.2,213.8c-0.5,1.4-1.5,2.3-2.8,2.7l-0.1-0.7c0.8-0.3,1.5-1,1.9-1.9
	c0.4-1,0.6-2.2,0.5-3.6h0.9c0.1,0.8,0,1.5,0,2.2v0.3l0.3,0.2l3.8,2.4l-0.4,0.6l-3.3-2.1l-0.5-0.3L222.2,213.8z M216,212.2l-0.3-1.4
	l0.8-0.1l1.2,6l-6.3,0.6l-1.2-6l0.8-0.1l0.3,1.5l0.1,0.4h0.4l3.6-0.3l0.6-0.1L216,212.2z M216.7,215.9L216.7,215.9v-0.2l-0.4-2
	l-0.1-0.4h-0.4l-3.6,0.4l-0.6,0.1l0.1,0.5l0.4,2.1l0.1,0.4h0.4l3.6-0.4h0.4L216.7,215.9L216.7,215.9z M213.2,208.5
	c1.1-0.1,2-0.4,2.6-1s0.9-1.4,0.7-2.4c-0.4-1.9-2.2-2.8-4.3-2.6c-1.1,0.1-2,0.4-2.6,1s-0.9,1.4-0.7,2.4
	C209.2,207.8,211.1,208.7,213.2,208.5z"/>
<path class="st2" d="M228.2,209.4l-0.1-0.7l16-1.5l0.1,0.7L228.2,209.4z M231.5,214.4l0.1,0.4h0.4l12.5-1.2l0.2,0.7l-14,1.4
	l-0.8-3.9l1-0.1L231.5,214.4z M228.7,205.8l-1.1-5.3l1-0.1l0.9,4.2l0.1,0.4h0.4l12.2-1.1l0.1,0.7L228.7,205.8z"/>
<path class="st2" d="M269,207.3l0.2,0.8l-6.8,0.7l-0.6,0.1l0.1,0.6l0.9,4l-1,0.1l-0.9-4.2l-0.1-0.4h-0.4l-6.9,0.7l-0.2-0.8
	L269,207.3z M267.4,204.5l-13.5,1.3l-1.5-6.8l13.3-1.2l0.2,0.7l-11.8,1.1l-0.6,0.1l0.1,0.6l1,4.4l0.1,0.4h0.4l12.2-1.1L267.4,204.5z
	"/>
<path class="st2" d="M280.3,204l-0.6,0.1l0.1,0.6l0.3,1.5l0.1,0.4h0.4c1.7-0.1,3.3,0,4.4,0.3s1.8,0.9,2,1.6l0,0c0.1,0.4,0,0.8-0.2,1
	c-0.2,0.3-0.6,0.6-1.1,0.9c-1.1,0.5-2.8,0.9-4.7,1.1c-1.9,0.2-3.7,0.2-5.1-0.1s-2.1-0.9-2.3-1.7l0,0c-0.1-0.4,0-0.7,0.1-1
	c0.2-0.3,0.5-0.6,1-0.8c1-0.5,2.4-0.9,4.1-1.1l0.6-0.1l-0.1-0.5l-0.3-1.5l-0.1-0.4h-0.4l-6.8,0.7l-0.1-0.5l15.3-1.4l0.1,0.5
	L280.3,204z M285.2,200.5l-13.2,1.2l-1.1-4.5l12.9-1.2l0.1,0.5l-11.5,1.1l-0.6,0.1l0.1,0.6l0.6,2.5l0.1,0.4h0.4l11.8-1.1
	L285.2,200.5z M280.1,207c-1.4,0.1-2.7,0.3-3.7,0.7c-0.5,0.2-0.9,0.4-1.2,0.7c-0.3,0.3-0.6,0.7-0.4,1.2c0.1,0.5,0.5,0.8,0.9,1
	s0.9,0.3,1.4,0.4c1.1,0.1,2.5,0.1,3.8,0c1.4-0.1,2.7-0.4,3.6-0.7c0.5-0.2,0.9-0.4,1.2-0.7c0.3-0.3,0.5-0.7,0.4-1.2s-0.5-0.8-0.9-1
	s-0.9-0.3-1.4-0.4C282.8,206.9,281.4,206.9,280.1,207z"/>
<path class="st2" d="M303.2,195.7l-7,0.6l-0.6,0.1l0.1,0.6l1.1,4.5l0.1,0.4h0.4l6.9-0.6l0.2,0.7l-6.7,0.6l-0.6,0.1l0.1,0.6l1.2,4.7
	l0.1,0.4h0.4l4.7-0.4h0.4l0,0c1.1-0.1,2.3-0.5,3.2-0.9l0.2,0.7c-0.8,0.4-2.1,0.8-3.4,0.9l0,0l-6.1,0.6l-3.3-13.3l8.4-0.8
	L303.2,195.7z M306.6,194.1l0.8-0.1l3.8,14.7l-0.8,0.1L306.6,194.1z"/>
<path class="st2" d="M314.2,202.7l-0.2-0.6c1-0.2,1.8-0.5,2.4-1c0.8-0.6,1.3-1.5,1.4-2.6l0.1-0.6l-0.6,0.1l-4.2,0.4l-0.1-0.5
	l4.4-0.4l0.5-0.1l-0.1-0.5c0-0.3-0.1-0.5-0.2-0.8l0,0l0,0l0,0l-0.4-1.5l-0.1-0.4h-0.4l-4.6,0.4l-0.1-0.5l5.7-0.5l0.7,2.6l0,0l0,0
	c0,0.1,0.1,0.2,0.1,0.4c0,0.1,0,0.2,0.1,0.3l0.1,0.4h0.4l2.4-0.2l0.6-0.1l-0.2-0.6l-0.9-3.3l0.7-0.1l2,7.6l-0.7,0.1l-0.7-2.6
	l-0.1-0.4h-0.4l-2.7,0.2h-0.4v0.4c-0.1,1.3-0.6,2.3-1.4,3.1C316.6,202.1,315.5,202.5,314.2,202.7z M322.8,204.2l6.9,2l-0.1,0.6
	l-7.2-2.2l-0.4-0.1l-0.2,0.3c-1.1,1.8-3.2,3-5.7,3.3l-0.2-0.7c3.1-0.5,5.5-2.4,5.8-5.3l1,0.1c0,0.5-0.1,0.9-0.3,1.3l-0.2,0.5
	L322.8,204.2z M325.7,192.5l2.7,10.1l-0.7,0.1l-2.7-10.1L325.7,192.5z"/>
<path class="st2" d="M338.9,205.4L338.9,205.4L333,206l-0.2-0.7l5.8-0.6l0,0c1.1-0.1,2.1-0.3,3-0.5c0.6-0.1,1.1-0.3,1.6-0.5l0.2,0.7
	c-0.4,0.2-0.9,0.4-1.5,0.5C341,205.1,340,205.3,338.9,205.4z M339.1,196.5L339.1,196.5l-0.1-0.3c-0.5-2-2.3-3.5-4.4-3.3
	c-1.1,0.1-1.9,0.6-2.3,1.4c-0.5,0.8-0.5,1.8-0.3,2.8c0.5,2,2.3,3.5,4.4,3.3c1.1-0.1,1.9-0.6,2.3-1.4
	C339.2,198.3,339.2,197.4,339.1,196.5z M346.1,205.6l-4-14.4l0.8-0.1l4,14.4L346.1,205.6z M331.2,196.9c-0.4-1.3-0.2-2.4,0.3-3.2
	s1.4-1.3,2.7-1.4c2.5-0.2,4.9,1.4,5.6,4c0.4,1.3,0.2,2.4-0.3,3.2s-1.4,1.3-2.7,1.5C334.3,201.2,331.9,199.6,331.2,196.9z"/>
<path class="st2" d="M356.3,202.7l-0.1-0.3c-0.1-0.4-0.1-0.7,0.1-1s0.5-0.6,1-0.8c1-0.5,2.6-0.8,4.4-1s3.5-0.1,4.7,0.2
	c1.3,0.3,2,0.9,2.2,1.7l0,0c0.1,0.4,0.1,0.7-0.1,1s-0.5,0.6-1,0.8c-1,0.5-2.5,0.8-4.4,1c-1.8,0.2-3.5,0.2-4.7-0.2
	C357.3,203.8,356.6,203.4,356.3,202.7z M365,189.5l0.1,0.4l-10.6,1l-0.6,0.1l0.2,0.6l0.7,2.4l0.1,0.4h0.4l11-1l0.1,0.5l-12.1,1.1
	l-1.2-4.3L365,189.5z M367.8,201.3L367.8,201.3c-0.1-0.4-0.5-0.7-0.9-0.9s-0.9-0.3-1.4-0.4c-1-0.1-2.3-0.1-3.6,0
	c-1.2,0.1-2.5,0.3-3.4,0.7c-0.4,0.2-0.9,0.4-1.1,0.7c-0.3,0.3-0.5,0.7-0.4,1.2c0.1,0.4,0.5,0.7,0.9,0.9s0.9,0.3,1.4,0.4
	c1,0.1,2.3,0.1,3.6,0c1.2-0.1,2.5-0.3,3.4-0.7c0.4-0.2,0.9-0.4,1.1-0.7C367.7,202.2,367.9,201.8,367.8,201.3z M353.9,197.5l14.2-1.3
	l0.1,0.5l-14.1,1.3L353.9,197.5z"/>
<path class="st2" d="M371.3,196.2l-0.2-0.7c1.1-0.4,1.9-1,2.3-1.9c0.6-1,0.7-2.2,0.4-3.5l-0.1-0.4h-0.4l-3.6,0.3l-0.2-0.5l8.5-0.8
	l0.1,0.5l-3.2,0.3l-0.6,0.1l0.1,0.6c0.1,0.5,0.2,1.1,0.2,1.6v0.3l0.3,0.1l5,2.2l-0.1,0.4l-4.6-2.1l-0.5-0.2l-0.2,0.6
	C374.2,194.5,373.1,195.7,371.3,196.2z M373.4,200.5L373.4,200.5c-0.1-0.5-0.1-0.8,0.1-1.2c0.2-0.3,0.4-0.6,0.9-0.9
	c0.9-0.6,2.4-0.9,4.1-1.1c1.8-0.2,3.3-0.1,4.6,0.3c1.2,0.4,2,1,2.3,1.9c0.1,0.5,0.1,0.8,0,1.2c-0.1,0.3-0.4,0.6-0.9,0.9
	c-0.9,0.6-2.3,0.9-4.1,1.1c-1.8,0.2-3.4,0.1-4.6-0.3C374.4,202.1,373.6,201.4,373.4,200.5z M384.5,190.7l0.2,0.7l-1.5,0.1l-0.6,0.1
	l0.2,0.6l1,3.2l-0.7,0.1l-2.2-7.3l0.7-0.1l0.7,2.5l0.1,0.4h0.4L384.5,190.7z M384.4,199.4c-0.2-0.9-1.1-1.3-2.1-1.5
	s-2.2-0.2-3.5-0.1c-1.3,0.1-2.5,0.4-3.3,0.8c-0.4,0.2-0.8,0.5-1,0.8c-0.2,0.4-0.3,0.8-0.2,1.2c0.2,0.9,1.1,1.3,2.1,1.5
	s2.2,0.2,3.5,0.1c1.3-0.1,2.5-0.4,3.3-0.8c0.4-0.2,0.8-0.4,1-0.8C384.4,200.3,384.5,199.9,384.4,199.4z"/>
<path class="st3" d="M469.4,165.5c0.2,0.6,0.8,1,1.6,0.9c0.8-0.1,1.1-0.6,0.9-1.1c-0.2-0.4-0.6-0.8-1-0.9l-0.1-0.3
	c0.6,0.1,1.1,0.5,1.4,1.1c0.3,0.8-0.1,1.4-1,1.4c-0.9,0.1-1.7-0.4-1.9-1.2c-0.2-0.6,0-1.1,0.5-1.3l0.1,0.3
	C469.4,164.6,469.2,165,469.4,165.5L469.4,165.5z"/>
<path class="st3" d="M469.4,165.5l0.9-0.3l-0.2-0.6l-0.6-0.1L469.4,165.5z M471,166.4l-0.1-1l0,0L471,166.4z M471.8,165.3l-0.9,0.3
	l0,0l0,0L471.8,165.3z M470.8,164.4l-0.9,0.4l0.2,0.6l0.6,0.1L470.8,164.4z M470.7,164.1l0.1-1l-1.6-0.2l0.6,1.5L470.7,164.1z
	 M472.1,165.2l-0.9,0.3l0,0l0,0L472.1,165.2z M469.1,165.5l0.9-0.3l0,0L469.1,165.5z M469.6,164.2l0.9-0.4l-0.3-0.9l-0.9,0.2
	L469.6,164.2z M469.7,164.5l0.3,0.9l1-0.3l-0.4-1L469.7,164.5z M469.4,165.5l-1,0.3l0.2,0.6l0.6,0.1L469.4,165.5z M468.4,165.8
	c0.4,1,1.4,1.7,2.6,1.6l-0.2-2c-0.3,0-0.5-0.2-0.6-0.3L468.4,165.8z M471,167.4c0.6-0.1,1.2-0.3,1.6-0.8c0.4-0.6,0.3-1.2,0.2-1.7
	l-1.9,0.7l0,0c0,0,0-0.1,0.1-0.2c0-0.1,0.1-0.1,0.1-0.1l0,0H471L471,167.4z M472.8,164.9c-0.3-0.8-1-1.4-1.8-1.5l-0.3,2
	c0,0,0,0,0.1,0.1c0.1,0,0.1,0.1,0.1,0.2L472.8,164.9z M471.8,164.1l-0.1-0.3l-1.9,0.7l0.1,0.3L471.8,164.1z M470.6,165.1
	c0.2,0,0.5,0.2,0.6,0.5l1.9-0.7c-0.4-1-1.2-1.7-2.2-1.8L470.6,165.1z M471.1,165.6c0,0.1,0,0.1,0,0.1l0,0
	C471.2,165.7,471.2,165.7,471.1,165.6C471.2,165.6,471.2,165.6,471.1,165.6c0,0.1,0,0.1-0.2,0.1l0.1,2c0.7-0.1,1.3-0.3,1.7-0.9
	c0.4-0.6,0.4-1.3,0.2-1.9L471.1,165.6z M471,165.7c-0.5,0-0.8-0.2-0.9-0.5l-1.9,0.7c0.4,1.2,1.6,2,3,1.8L471,165.7z M470.1,165.2
	c-0.1-0.2,0-0.2,0-0.1c0,0,0,0.1-0.1,0.1h-0.1l-0.5-1.9c-0.5,0.1-1,0.5-1.2,1s-0.2,1.1,0,1.5L470.1,165.2z M468.7,164.6l0.1,0.3
	l1.9-0.7l-0.1-0.3L468.7,164.6z M469.4,163.6c-0.5,0.2-0.8,0.5-1,0.9s-0.1,0.9,0,1.3l1.9-0.7c0-0.1,0,0,0,0.1s-0.1,0.1-0.1,0.2
	c-0.1,0-0.1,0.1-0.1,0.1L469.4,163.6z M469.2,166.5L469.2,166.5l0.3-2l0,0L469.2,166.5z"/>
<path class="st3" d="M471,162.3c0.3,0.8-0.1,1.3-1,1.4c-0.9,0.1-1.7-0.4-1.9-1.2c-0.3-0.8,0.1-1.3,1-1.4S470.7,161.6,471,162.3
	L471,162.3z M470.7,162.3c-0.2-0.6-0.8-1-1.6-0.9c-0.8,0.1-1.1,0.5-0.9,1.1s0.8,1,1.6,0.9C470.6,163.4,470.9,162.9,470.7,162.3
	L470.7,162.3z"/>
<path class="st3" d="M471,162.3l-1-0.1v0.2l0.1,0.2L471,162.3z M471,162.3l1,0.1v-0.2V162L471,162.3z M470.7,162.3l0.6,0.8l0.6-0.5
	l-0.2-0.7L470.7,162.3z M469.9,163.5l0.1,1l0,0L469.9,163.5z M470.7,162.4l-0.6-0.8l-0.6,0.5l0.2,0.7L470.7,162.4z M470.1,162.7
	c0,0.1,0,0.1,0,0.1l0,0V162.7C470.1,162.7,470.2,162.7,470.1,162.7c0.1,0.1,0,0.1-0.1,0.1l0.1,2c0.6-0.1,1.3-0.3,1.7-0.9
	c0.4-0.6,0.4-1.3,0.2-1.9L470.1,162.7z M469.9,162.8c-0.5,0-0.8-0.2-0.9-0.5l-1.9,0.7c0.4,1.2,1.6,2,3,1.8L469.9,162.8z M469,162.2
	c0-0.1,0-0.1,0-0.1l0,0C469,162.1,468.9,162.1,469,162.2C468.9,162.2,468.9,162.2,469,162.2c-0.1-0.1,0-0.1,0.1-0.1l-0.1-2
	c-0.6,0.1-1.3,0.3-1.7,0.9c-0.4,0.6-0.4,1.3-0.2,1.9L469,162.2z M469.1,162.1c0.5,0,0.8,0.2,0.9,0.5l1.9-0.7c-0.4-1.2-1.6-1.9-3-1.8
	L469.1,162.1z M470,162.2L470,162.2l2,0.3l0,0L470,162.2z M471.7,162c-0.4-1-1.4-1.6-2.6-1.6l0.1,2c0.2,0,0.3,0,0.4,0.1
	c0.1,0,0.1,0.1,0.2,0.2L471.7,162z M469.1,160.4c-0.6,0-1.2,0.3-1.6,0.8s-0.4,1.2-0.2,1.7l1.9-0.7l0,0c0,0,0,0.1-0.1,0.2
	c0,0.1-0.1,0.1-0.1,0.1s0,0,0.1,0L469.1,160.4z M467.3,162.9c0.4,1.1,1.4,1.7,2.6,1.6l-0.1-2c-0.4,0-0.5-0.2-0.6-0.3L467.3,162.9z
	 M469.9,164.5c0.6,0,1.2-0.2,1.5-0.8c0.4-0.5,0.4-1.2,0.2-1.7l-1.9,0.7l0,0c0,0,0-0.1,0.1-0.2c0-0.1,0.1-0.1,0.1-0.1s0,0-0.1,0
	L469.9,164.5z M471.3,163.1L471.3,163.1l-1.2-1.6l0,0L471.3,163.1z"/>
<path class="st3" d="M469.4,158.1l0.1,0.3l-1.8,1.9l2.4-0.2l0.1,0.3l-2.9,0.2l-0.1-0.3l1.8-1.9l-2.4,0.2l-0.1-0.3L469.4,158.1
	L469.4,158.1z"/>
<path class="st3" d="M469.4,158.1l0.9-0.4l-0.2-0.5l-0.6-0.1L469.4,158.1z M469.5,158.4l0.7,0.7l0.4-0.5l-0.2-0.6L469.5,158.4z
	 M467.8,160.3l-0.7-0.7l-1.7,1.8l2.5-0.2L467.8,160.3z M470.1,160.1l0.9-0.4l-0.3-0.7l-0.7,0.1L470.1,160.1z M470.2,160.4l0.1,1
	l1.3-0.1l-0.4-1.2L470.2,160.4z M467.4,160.7l-0.9,0.4l0.3,0.7l0.8-0.1L467.4,160.7z M467.2,160.4l-0.7-0.7l-0.4,0.5l0.2,0.6
	L467.2,160.4z M469,158.5l0.7,0.7l1.7-1.8l-2.5,0.2L469,158.5z M466.6,158.6l-0.9,0.4l0.3,0.7l0.7-0.1L466.6,158.6z M466.5,158.3
	l-0.1-1l-1.3,0.1l0.5,1.2L466.5,158.3z M469.4,158.1l0.1-1h-0.1h-0.1L469.4,158.1z M468.5,158.5l0.1,0.3l1.9-0.8l-0.1-0.3
	L468.5,158.5z M468.8,157.7l-1.8,1.9l1.5,1.3l1.8-1.9L468.8,157.7z M467.8,161.3l2.4-0.2l-0.1-2l-2.4,0.2L467.8,161.3z M469.2,160.5
	l0.1,0.3l1.9-0.7l-0.1-0.3L469.2,160.5z M470.2,159.4l-2.9,0.2l0.1,2l2.9-0.2L470.2,159.4z M468.3,160.3l-0.1-0.3l-1.9,0.7l0.1,0.3
	L468.3,160.3z M468,161.1l1.8-1.9l-1.5-1.3l-1.8,1.9L468,161.1z M469,157.5l-2.4,0.2l0.1,2l2.4-0.2L469,157.5z M467.6,158.3
	l-0.1-0.3l-1.9,0.7l0.1,0.3L467.6,158.3z M466.6,159.3l2.9-0.2l-0.1-2l-2.9,0.2L466.6,159.3z M469.3,159.1L469.3,159.1l0.3-2l0,0
	L469.3,159.1z"/>
<path class="st3" d="M466.1,156.5c0.2,0.6,0.8,1,1.6,0.9c0.8-0.1,1.1-0.5,0.9-1.1c-0.2-0.4-0.6-0.8-1-0.8l-0.1-0.3
	c0.6,0.1,1.1,0.5,1.4,1.1c0.3,0.8-0.1,1.3-1,1.4c-0.9,0.1-1.7-0.4-1.9-1.2c-0.2-0.6,0-1.1,0.5-1.3l0.1,0.3
	C466.1,155.6,465.9,156,466.1,156.5L466.1,156.5z"/>
<path class="st3" d="M466.1,156.5l0.8-0.6l-1.8,0.9L466.1,156.5z M468.5,156.3l0.9-0.3l0,0L468.5,156.3z M467.5,155.4l-0.9,0.4
	l0.2,0.6l0.6,0.1L467.5,155.4z M467.4,155.2l0.1-1l-1.6-0.2l0.6,1.5L467.4,155.2z M468.8,156.3l0.9-0.3l0,0L468.8,156.3z
	 M465.8,156.5l0.9-0.3l0,0l0,0L465.8,156.5z M466.3,155.2l0.9-0.4L467,154l-0.9,0.3L466.3,155.2z M466.4,155.5l0.3,1l1-0.3l-0.4-1
	L466.4,155.5z M466.1,156.5l-0.8,0.6l1.7-1L466.1,156.5z M465.1,156.8c0.4,1,1.4,1.7,2.6,1.6l-0.1-2c-0.2,0-0.3,0-0.4-0.1
	s-0.1-0.1-0.2-0.2L465.1,156.8z M467.7,158.4c0.6,0,1.2-0.3,1.6-0.8s0.4-1.2,0.2-1.7l-1.9,0.7l0,0c0,0,0-0.1,0.1-0.2
	c0-0.1,0.1-0.1,0.1-0.1s0,0-0.1,0L467.7,158.4z M469.5,155.9c-0.3-0.8-1-1.4-1.8-1.5l-0.3,2c0,0,0,0,0.1,0l0.1,0.1L469.5,155.9z
	 M468.5,155.1l-0.1-0.3l-1.9,0.7l0.1,0.3L468.5,155.1z M467.3,156.1c0.2,0,0.5,0.2,0.6,0.5l1.9-0.7c-0.4-1-1.2-1.7-2.2-1.8
	L467.3,156.1z M467.8,156.6c0,0.1,0,0.1,0,0.1l0,0C467.9,156.7,467.9,156.7,467.8,156.6C467.9,156.6,467.9,156.6,467.8,156.6
	c0.1,0.1,0,0.1-0.1,0.1l0.1,2c0.6-0.1,1.3-0.3,1.7-0.9c0.4-0.6,0.4-1.3,0.2-1.9L467.8,156.6z M467.7,156.7c-0.5,0-0.8-0.2-0.9-0.5
	l-1.9,0.7c0.4,1.2,1.6,2,3,1.8L467.7,156.7z M466.8,156.2C466.7,156,466.8,156,466.8,156.2c-0.1,0-0.1,0-0.1,0s0,0-0.1,0l-0.5-1.9
	c-0.5,0.1-1,0.5-1.2,1s-0.2,1.1,0,1.6L466.8,156.2z M465.4,155.6l0.1,0.3l1.9-0.7l-0.1-0.3L465.4,155.6z M466.2,154.6
	c-0.5,0.1-0.9,0.5-1,0.9c-0.2,0.4-0.1,0.9,0,1.3l1.9-0.7c0,0,0,0,0,0.1s-0.1,0.1-0.1,0.2c-0.1,0.1-0.1,0.1-0.2,0.1L466.2,154.6z
	 M466.9,155.9L466.9,155.9l-1.6,1.2l0,0L466.9,155.9z"/>
<path class="st3" d="M465.2,154.7l-0.6-1.7h0.3l0.5,1.4l1.1-0.1l-0.5-1.4h0.2l0.5,1.4l1.1-0.1l-0.5-1.5h0.3l0.6,1.8L465.2,154.7
	L465.2,154.7z"/>
<path class="st3" d="M465.2,154.7l-0.1,1l1.6,0.2l-0.6-1.5L465.2,154.7z M464.6,153l-0.1-1l-1.3,0.1l0.4,1.2L464.6,153z M464.8,153
	l0.9-0.3l-0.3-0.7l-0.8,0.1L464.8,153z M465.3,154.4l-0.9,0.3l0.3,0.7l0.8-0.1L465.3,154.4z M466.4,154.3l0.1,1l1.3-0.1l-0.4-1.2
	L466.4,154.3z M465.9,153l-0.1-1l-1.3,0.1l0.4,1.2L465.9,153z M466.2,152.9l0.9-0.3l-0.3-0.7L466,152L466.2,152.9z M466.6,154.3
	l-0.9,0.3l0.2,0.7l0.8-0.1L466.6,154.3z M467.7,154.2l0.1,1l1.3-0.1l-0.4-1.2L467.7,154.2z M467.2,152.8l-0.1-1l-1.3,0.1l0.4,1.2
	L467.2,152.8z M467.4,152.7l0.9-0.3l-0.3-0.7l-0.8,0.1L467.4,152.7z M468,154.5l0.1,1l1.3-0.1l-0.4-1.2L468,154.5z M465.2,154.7
	l-0.1-1l-0.1,2L465.2,154.7z M466.1,154.4l-0.6-1.7l-1.9,0.7l0.6,1.7L466.1,154.4z M464.6,154h0.3l-0.2-2h-0.3L464.6,154z
	 M463.9,153.3l0.5,1.4l1.9-0.7l-0.5-1.4L463.9,153.3z M465.4,155.4l1.1-0.1l-0.1-2l-1.1,0.1L465.4,155.4z M467.3,154l-0.5-1.4
	l-1.9,0.7l0.5,1.4L467.3,154z M466,154h0.2l-0.2-2h-0.2L466,154z M465.2,153.3l0.5,1.4l1.9-0.7l-0.5-1.4L465.2,153.3z M466.7,155.3
	l1.1-0.1l-0.1-2l-1.1,0.1L466.7,155.3z M468.6,153.9l-0.5-1.5l-1.9,0.7l0.5,1.5L468.6,153.9z M467.2,153.7h0.3l-0.2-2H467
	L467.2,153.7z M466.5,153.1l0.6,1.8l1.9-0.7l-0.6-1.8L466.5,153.1z M468,153.5l-2.9,0.2l0.1,2l2.9-0.2L468,153.5z M465,155.7
	L465,155.7l0.3-2l0,0L465,155.7z"/>
<path class="st3" d="M464.3,152.4l-0.3-1c-0.2-0.6,0-1,0.5-1c0.4,0,0.8,0.1,1,0.5l1-0.8l0.1,0.3l-0.9,0.7v0.1l0.2,0.7l1.1-0.1
	l0.1,0.3L464.3,152.4L464.3,152.4z M465.5,151.3c-0.2-0.5-0.5-0.7-0.8-0.6c-0.4,0-0.5,0.3-0.4,0.7l0.2,0.7l1.2-0.1L465.5,151.3z"/>
<path class="st3" d="M464.3,152.4l-0.9,0.3l1.9-0.2L464.3,152.4z M464,151.4l-0.9,0.3l0,0L464,151.4z M464.5,150.4l-0.1-1l0,0l0,0
	L464.5,150.4z M465.5,150.9l-0.8,0.6l0.6,0.9l0.9-0.7L465.5,150.9z M466.5,150.1l0.9-0.3l-0.5-1.3l-1.1,0.9L466.5,150.1z
	 M466.6,150.4l0.6,0.8l0.6-0.5l-0.2-0.7L466.6,150.4z M465.7,151.2l-0.6-0.8l-0.6,0.5l0.3,0.7L465.7,151.2z M465.7,151.3l-1,0.3l0,0
	L465.7,151.3z M466,151.9l-0.9,0.3l0.2,0.7l0.8-0.1L466,151.9z M467.1,151.9l0.9-0.4l-0.3-0.7l-0.7,0.1L467.1,151.9z M467.2,152.1
	l0.1,1l1.3-0.1l-0.5-1.2L467.2,152.1z M464.3,152.4l-0.1-1l-0.8,0.1l-0.1,0.8L464.3,152.4z M465.5,151.3l-1,0.3l0,0l0,0L465.5,151.3
	z M464.2,151.4l-1,0.3l0,0l0,0L464.2,151.4z M464.5,152.1l-0.9,0.3l0.3,0.7l0.8-0.1L464.5,152.1z M465.7,152l0.1,1l1.3-0.1l-0.4-1.2
	L465.7,152z M465.3,152l-0.3-1l-1.9,0.7l0.3,1L465.3,152z M464.9,151.1c0-0.1,0-0.1,0-0.1V151.1c-0.1,0.2-0.2,0.2-0.3,0.3
	c-0.1,0-0.1,0-0.1,0l-0.2-2c-0.4,0-1,0.2-1.3,0.8c-0.3,0.5-0.2,1.1-0.1,1.6L464.9,151.1z M464.6,151.4L464.6,151.4L464.6,151.4
	c0.1,0,0.1,0,0.1,0.1l1.7-1.1c-0.4-0.7-1.2-1-1.9-0.9L464.6,151.4z M466.1,151.6l1-0.8l-1.2-1.5l-1,0.8L466.1,151.6z M465.5,150.4
	l0.1,0.3l1.9-0.7l-0.1-0.3L465.5,150.4z M466,149.6l-0.9,0.7l1.2,1.6l0.9-0.7L466,149.6z M465.7,151.2c-0.9,0.4-0.9,0.4-0.9,0.4l0,0
	l0,0l0,0l0,0l0,0l0,0l0,0l0,0l0,0l0,0l1.9-0.7c0-0.1,0-0.1-0.1-0.2l0,0l0,0l0,0l0,0l0,0l0,0l0,0l0,0
	C466.6,150.7,466.6,150.7,465.7,151.2z M464.8,151.6l0.2,0.7l1.9-0.7l-0.2-0.7L464.8,151.6z M466,152.9l1.1-0.1l-0.1-2l-1.1,0.1
	L466,152.9z M466.2,152.2l0.1,0.3l1.9-0.7l-0.1-0.3L466.2,152.2z M467.1,151.2l-2.9,0.2l0.1,2l2.9-0.2L467.1,151.2z M463.3,152.2
	L463.3,152.2l2,0.3l0,0L463.3,152.2z M466.4,151c-0.1-0.4-0.4-0.7-0.7-1c-0.4-0.3-0.8-0.4-1.2-0.3l0.1,2c0,0,0,0-0.1,0h-0.1
	c-0.1,0,0-0.1,0,0L466.4,151z M464.5,149.7c-0.4,0-0.9,0.2-1.2,0.7c-0.3,0.5-0.2,1-0.1,1.3l1.9-0.7c0-0.1,0,0-0.1,0.3
	c-0.2,0.3-0.4,0.3-0.4,0.3L464.5,149.7z M463.3,151.8l0.2,0.7l1.9-0.7l-0.2-0.7L463.3,151.8z M464.5,153.1l1.2-0.1l-0.1-2l-1.2,0.1
	L464.5,153.1z M466.6,151.6l-0.2-0.7l-1.9,0.7l0.2,0.7L466.6,151.6z"/>
<path class="st3" d="M463.5,150.1l-0.8-2.2h0.3l0.3,0.9l2.6-0.2l0.1,0.3l-2.6,0.2l0.3,0.9L463.5,150.1z"/>
<path class="st3" d="M463.5,150.1l-0.9,0.3l0.3,0.7l0.8-0.1L463.5,150.1z M462.7,147.9l-0.1-1l-1.3,0.1l0.4,1.2L462.7,147.9z
	 M463,147.9l0.9-0.3l-0.3-0.7l-0.8,0.1L463,147.9z M463.3,148.8l-0.9,0.3l0.3,0.7l0.8-0.1L463.3,148.8z M465.9,148.6l0.9-0.4
	l-0.3-0.7l-0.8,0.1L465.9,148.6z M466,148.9l0.1,1l1.3-0.1l-0.5-1.2L466,148.9z M463.4,149.1l-0.1-1l-1.3,0.1l0.4,1.2L463.4,149.1z
	 M463.7,150l0.1,1l1.3-0.1l-0.4-1.2L463.7,150z M464.4,149.7l-0.8-2.2l-1.9,0.7l0.8,2.2L464.4,149.7z M462.8,148.9h0.3l-0.2-2h-0.3
	L462.8,148.9z M462,148.2l0.3,0.9l1.9-0.7l-0.3-0.9L462,148.2z M463.4,149.8l2.6-0.2l-0.1-2l-2.6,0.2L463.4,149.8z M465,149l0.1,0.3
	l1.9-0.7l-0.1-0.3L465,149z M466,147.9l-2.6,0.2l0.1,2l2.6-0.2L466,147.9z M462.5,149.4l0.3,0.9l1.9-0.7l-0.3-0.9L462.5,149.4z
	 M463.6,149h-0.3l0.2,2h0.3L463.6,149z"/>
<path class="st3" d="M462,145.5c0.1,0.4,0.5,0.7,0.8,0.7s0.3-0.3,0.3-0.6v-0.3c0-0.4,0-0.8,0.5-0.9c0.5,0,0.9,0.3,1.2,1
	c0.2,0.6,0,1-0.4,1.1l-0.1-0.3c0.3-0.1,0.4-0.4,0.3-0.8c-0.2-0.4-0.5-0.7-0.8-0.7s-0.3,0.3-0.3,0.7v0.4c0,0.5-0.1,0.8-0.5,0.8
	c-0.5,0-0.9-0.4-1.1-0.9s0-1,0.4-1l0.1,0.3C462,144.8,461.9,145.1,462,145.5L462,145.5z"/>
<path class="st3" d="M462,145.5l0.9-0.3l-1.9,0.2L462,145.5z M462.8,146.1v1l0,0V146.1z M463.1,145.5l1-0.1l0,0l0,0L463.1,145.5z
	 M463.1,145.2l-1,0.1l0,0l0,0L463.1,145.2z M463.6,144.3l0.1,1l0,0L463.6,144.3z M464.7,145.3l0.9-0.3l0,0l0,0L464.7,145.3z
	 M464.3,146.4l-0.9,0.4l0.3,0.8l0.8-0.1L464.3,146.4z M464.2,146.1l-0.2-1l-1.2,0.2l0.4,1.1L464.2,146.1z M464.5,145.3l1-0.3l0,0
	l0,0L464.5,145.3z M463.7,144.6l0.1,1l0,0L463.7,144.6z M463.4,145.3l-1,0.1l0,0L463.4,145.3z M463.4,145.6l1-0.1l0,0L463.4,145.6z
	 M462.9,146.4l-0.1-1L462.9,146.4z M462.2,144.5l0.9-0.4l-0.3-0.7l-0.8,0.1L462.2,144.5z M462.3,144.8l0.2,1l1.2-0.2l-0.4-1.1
	L462.3,144.8z M462,145.5l-1,0.3l1.9-0.2L462,145.5z M461.1,145.8c0.2,0.6,0.8,1.4,1.8,1.3l-0.1-2c0.1,0,0.2,0.1,0.2,0.1s0,0,0-0.1
	L461.1,145.8z M462.9,147.1c0.3,0,0.5-0.1,0.8-0.3c0.2-0.2,0.3-0.4,0.4-0.6c0.1-0.3,0.1-0.6,0.1-0.8l-2,0.1v0.1c0,0,0,0,0-0.1
	s0.1-0.2,0.2-0.3s0.3-0.2,0.4-0.2L462.9,147.1z M464.1,145.4v-0.3l-2,0.2v0.3L464.1,145.4z M464.1,145.1c0-0.1,0-0.1,0-0.2l0,0
	c0,0.1-0.1,0.2-0.2,0.2c-0.1,0.1-0.2,0.1-0.3,0.1l-0.1-2c-0.3,0-0.6,0.1-0.8,0.3c-0.3,0.2-0.4,0.4-0.5,0.6c-0.2,0.4-0.1,0.8-0.1,1
	L464.1,145.1z M463.6,145.3L463.6,145.3c0,0.1,0.1,0.2,0.2,0.3l1.9-0.7c-0.3-0.9-1.1-1.7-2.2-1.6L463.6,145.3z M463.8,145.6
	c0,0.1,0,0.1,0,0.1C463.8,145.8,463.8,145.7,463.8,145.6c0.1,0,0.1-0.1,0.2-0.2c0.1-0.1,0.1-0.1,0.2-0.1l0.3,2c0.5-0.1,1-0.4,1.2-1
	c0.2-0.5,0.1-1,0-1.4L463.8,145.6z M465.3,146l-0.1-0.3l-1.9,0.7l0.1,0.3L465.3,146z M464.4,147.1c0.5-0.1,0.9-0.5,1.1-0.9
	c0.1-0.4,0.1-0.8,0-1.1l-1.9,0.7c0,0.1,0,0,0-0.1s0.1-0.2,0.2-0.3s0.2-0.1,0.3-0.2L464.4,147.1z M465.4,144.9
	c-0.2-0.6-0.8-1.4-1.9-1.3l0.2,2c-0.1,0-0.1,0-0.2,0h-0.1l0,0v0.1L465.4,144.9z M463.6,143.6c-0.2,0-0.5,0.1-0.7,0.3
	s-0.4,0.4-0.4,0.6c-0.1,0.3-0.1,0.7-0.1,0.9l2-0.1c0-0.1,0-0.1,0-0.1s0,0,0,0.1s-0.1,0.2-0.2,0.3s-0.3,0.1-0.4,0.1L463.6,143.6z
	 M462.4,145.3v0.4l2-0.2v-0.4L462.4,145.3z M462.4,145.7c0,0.1,0,0.1,0,0.1S462.4,145.8,462.4,145.7c0.1-0.1,0.2-0.2,0.3-0.2
	c0.1-0.1,0.2-0.1,0.2-0.1l0.1,2c0.5,0,0.9-0.3,1.2-0.7c0.2-0.4,0.2-0.8,0.2-1.1L462.4,145.7z M462.8,145.4
	C462.9,145.4,463,145.4,462.8,145.4c0-0.1-0.1-0.2-0.1-0.3l-1.9,0.7c0.2,0.4,0.4,0.8,0.8,1.1c0.3,0.3,0.8,0.5,1.4,0.5L462.8,145.4z
	 M462.7,145.1C462.7,145,462.7,145,462.7,145.1c-0.1,0.1-0.1,0.2-0.2,0.2c-0.1,0.1-0.2,0.1-0.2,0.1l-0.2-2c-0.6,0.1-1.1,0.4-1.3,0.9
	c-0.2,0.5-0.1,1,0,1.4L462.7,145.1z M461.2,144.8l0.1,0.3l1.9-0.7l-0.1-0.3L461.2,144.8z M462.1,143.8c-0.5,0.1-0.9,0.4-1.1,0.9
	c-0.1,0.4-0.1,0.8,0,1.1l1.9-0.7c0-0.1,0,0,0,0.2c0,0.1-0.1,0.2-0.2,0.3s-0.2,0.1-0.3,0.1L462.1,143.8z M463,145.6L463,145.6l-2-0.3
	l0,0L463,145.6z"/>
<path class="st3" d="M461.2,143.9l-0.6-1.7h0.3l0.5,1.4l1.1-0.1l-0.5-1.3h0.2l0.5,1.3l1.1-0.1l-0.5-1.5h0.3l0.6,1.8L461.2,143.9
	L461.2,143.9z"/>
<path class="st3" d="M461.2,143.9l-0.9,0.3l1.9-0.2L461.2,143.9z M460.6,142.2l-0.1-1l-1.3,0.1l0.4,1.2L460.6,142.2z M460.9,142.2
	l0.9-0.3l-0.3-0.7l-0.8,0.1L460.9,142.2z M461.4,143.6l-0.9,0.3l0.2,0.7l0.8-0.1L461.4,143.6z M462.4,143.5l0.1,1l1.3-0.1l-0.4-1.2
	L462.4,143.5z M462,142.2l-0.1-1l-1.3,0.1l0.4,1.2L462,142.2z M462.2,142.1l0.9-0.3l-0.3-0.7l-0.8,0.1L462.2,142.1z M462.7,143.5
	l-0.9,0.3l0.2,0.7l0.8-0.1L462.7,143.5z M463.7,143.4l0.1,1l1.3-0.1l-0.4-1.2L463.7,143.4z M463.2,141.9l-0.1-1l-1.3,0.1l0.4,1.2
	L463.2,141.9z M463.5,141.9l0.9-0.3l-0.3-0.7l-0.8,0.1L463.5,141.9z M464.1,143.7l0.1,1l1.3-0.1l-0.4-1.2L464.1,143.7z M461.2,143.9
	l-0.1-1l-0.8,0.1l-0.1,0.8L461.2,143.9z M462.2,143.6l-0.6-1.7l-1.9,0.7l0.6,1.7L462.2,143.6z M460.7,143.2h0.3l-0.2-2h-0.3
	L460.7,143.2z M459.9,142.5l0.5,1.4l1.9-0.7l-0.5-1.4L459.9,142.5z M461.4,144.6l1.1-0.1l-0.1-2l-1.1,0.1L461.4,144.6z M463.4,143.2
	l-0.5-1.3l-1.9,0.7l0.5,1.3L463.4,143.2z M462.1,143.1h0.2l-0.2-2h-0.2L462.1,143.1z M461.3,142.5l0.5,1.3l1.9-0.7l-0.5-1.3
	L461.3,142.5z M462.7,144.5l1.1-0.1l-0.1-2l-1.1,0.1L462.7,144.5z M464.7,143.1l-0.5-1.5l-1.9,0.7l0.5,1.5L464.7,143.1z
	 M463.3,142.9h0.3l-0.2-2h-0.3L463.3,142.9z M462.5,142.3l0.6,1.8l1.9-0.7l-0.6-1.8L462.5,142.3z M464,142.7l-2.9,0.2l0.1,2l2.9-0.2
	L464,142.7z M460.2,143.8L460.2,143.8l2,0.3l0,0L460.2,143.8z"/>
<path class="st3" d="M460.4,141.6l-0.3-1c-0.2-0.6,0-1,0.5-1c0.4,0,0.8,0.1,1,0.5l1-0.8l0.1,0.3l-0.9,0.7v0.1l0.2,0.7l1.1-0.1
	l0.1,0.3L460.4,141.6z M461.5,140.5c-0.2-0.4-0.5-0.7-0.8-0.6c-0.4,0-0.5,0.3-0.4,0.7l0.2,0.7l1.2-0.1L461.5,140.5z"/>
<path class="st3" d="M460.4,141.6l-0.9,0.3l0.3,0.7l0.7-0.1L460.4,141.6z M460,140.6l0.9-0.3l0,0L460,140.6z M460.5,139.6l0.1,1l0,0
	L460.5,139.6z M461.5,140.1l-0.8,0.6l0.6,0.9l0.9-0.7L461.5,140.1z M462.5,139.3l0.9-0.3l-0.5-1.3l-1.1,0.9L462.5,139.3z
	 M462.6,139.7l0.6,0.8l0.6-0.4l-0.2-0.7L462.6,139.7z M461.7,140.4l-0.6-0.8l-0.7,0.5l0.4,0.7L461.7,140.4z M461.7,140.5l-1,0.3l0,0
	L461.7,140.5z M462,141.2l-0.9,0.3l0.2,0.7l0.8-0.1L462,141.2z M463.1,141.1l0.9-0.4l-0.3-0.7l-0.7,0.1L463.1,141.1z M463.2,141.4
	l0.1,1l1.3-0.1l-0.5-1.3L463.2,141.4z M461.5,140.5l-0.9,0.3l0,0L461.5,140.5z M460.3,140.6l-0.9,0.3l0,0L460.3,140.6z M460.5,141.3
	l-0.9,0.3l0.3,0.7l0.8-0.1L460.5,141.3z M461.7,141.2l0.1,1l1.3-0.1l-0.4-1.2L461.7,141.2z M461.3,141.2l-0.3-1l-1.9,0.7l0.3,1
	L461.3,141.2z M461,140.3C460.9,140.1,461,140.2,461,140.3c-0.1,0.2-0.2,0.3-0.3,0.3c-0.1,0-0.1,0-0.1,0l-0.1-2
	c-0.5,0-1,0.2-1.4,0.8c-0.3,0.5-0.2,1.1-0.1,1.6L461,140.3z M460.6,140.6L460.6,140.6C460.7,140.6,460.7,140.6,460.6,140.6
	c0.1,0,0.1,0,0.1,0.1l1.7-1.1c-0.4-0.7-1.2-1-1.9-0.9L460.6,140.6z M462.2,140.9l1-0.8l-1.2-1.6l-1,0.8L462.2,140.9z M461.6,139.7
	l0.1,0.3l1.9-0.7l-0.1-0.3L461.6,139.7z M462,138.9l-0.9,0.7l1.2,1.6l0.9-0.7L462,138.9z M461.7,140.4c-0.9,0.4-0.9,0.4-0.9,0.4l0,0
	l0,0l0,0l0,0l0,0l0,0l0,0l0,0l0,0l0,0l1.9-0.7c0-0.1,0-0.1-0.1-0.2l0,0l0,0l0,0l0,0l0,0l0,0l0,0l0,0
	C462.6,139.9,462.6,139.9,461.7,140.4z M460.8,140.8l0.2,0.7l1.9-0.7l-0.2-0.7L460.8,140.8z M462,142.1l1.1-0.1l-0.1-2l-1.1,0.1
	L462,142.1z M462.2,141.4l0.1,0.3l1.9-0.7l-0.1-0.3L462.2,141.4z M463.2,140.4l-2.9,0.2l0.1,2l2.9-0.2L463.2,140.4z M462.4,140.2
	c-0.1-0.4-0.3-0.7-0.7-1c-0.3-0.3-0.8-0.4-1.2-0.3l0.1,2c0,0,0,0-0.1,0h-0.1c-0.1,0,0-0.1,0,0L462.4,140.2z M460.6,138.9
	c-0.4,0-0.9,0.2-1.2,0.7c-0.3,0.5-0.2,1-0.1,1.3l1.9-0.7c0-0.1,0.1,0.1-0.1,0.3c-0.2,0.3-0.4,0.3-0.4,0.3L460.6,138.9z M459.4,141
	l0.2,0.7l1.9-0.7l-0.2-0.7L459.4,141z M460.6,142.3l1.2-0.1l-0.1-2l-1.2,0.1L460.6,142.3z M462.7,140.8l-0.2-0.7l-1.9,0.7l0.2,0.7
	L462.7,140.8z"/>
<path class="st3" d="M461.7,138l-2.8-0.8l-0.1-0.3l3.2,0.9l0.1,0.3l-2.5,1.3l-0.1-0.3L461.7,138L461.7,138z"/>
<path class="st3" d="M461.7,138l-0.3,1h0.1h0.1L461.7,138z M458.9,137.3l-0.9,0.4l0.2,0.5l0.5,0.1L458.9,137.3z M458.7,137l0.3-1
	l-1.9-0.5l0.7,1.8L458.7,137z M462,137.8l1-0.3l-0.2-0.5l-0.5-0.1L462,137.8z M462.1,138.2l0.4,0.9l0.8-0.4l-0.3-0.8L462.1,138.2z
	 M459.6,139.4l-1,0.3l0.4,1.1l1-0.5L459.6,139.4z M459.5,139.1l-0.4-0.9l-0.8,0.4l0.3,0.8L459.5,139.1z M461.7,138l0.4,0.9l3-1.5
	l-3.3-0.4L461.7,138z M461.9,137.1l-2.8-0.8l-0.5,1.9l2.8,0.8L461.9,137.1z M459.8,136.9l-0.1-0.3l-1.9,0.7l0.1,0.3L459.8,136.9z
	 M458.5,137.9l3.2,0.9l0.5-1.9L459,136L458.5,137.9z M461,138.2l0.1,0.3l1.9-0.7l-0.1-0.3L461,138.2z M461.6,137.3l-2.5,1.3l0.9,1.8
	l2.5-1.3L461.6,137.3z M460.6,139.1l-0.1-0.3l-1.9,0.7l0.1,0.3L460.6,139.1z M459.9,140l2.2-1.1l-0.9-1.8l-2.2,1.1L459.9,140z
	 M461.8,137L461.8,137l-0.3,2l0,0L461.8,137z"/>
<path class="st3" d="M461.3,136.1l0.1,0.3l-2.9,0.2l-0.1-0.3L461.3,136.1z"/>
<path class="st3" d="M461.3,136.1l0.9-0.3L462,135l-0.7,0.1V136.1z M461.4,136.4l0.1,1l1.3-0.1l-0.5-1.3L461.4,136.4z M458.5,136.6
	l-0.9,0.3l0.3,0.7h0.7L458.5,136.6z M458.4,136.3l-0.1-1l-1.3,0.1l0.5,1.3L458.4,136.3z M460.4,136.4l0.1,0.3l1.9-0.7l-0.1-0.3
	L460.4,136.4z M461.4,135.4l-2.9,0.2l0.1,2l2.9-0.2L461.4,135.4z M459.5,136.2l-0.1-0.3l-1.9,0.7l0.1,0.3L459.5,136.2z M458.5,137.3
	l2.9-0.2l-0.1-2l-2.9,0.2L458.5,137.3z"/>
<path class="st3" d="M458,134.4c0.2,0.5,0.8,1,1.5,0.9c0.8-0.1,1-0.5,0.9-1.1c-0.2-0.4-0.6-0.8-1-0.8l-0.1-0.3
	c0.6,0.1,1.1,0.5,1.3,1.1c0.3,0.7-0.1,1.3-1,1.4c-0.9,0.1-1.7-0.4-1.9-1.2c-0.2-0.6,0-1.1,0.5-1.2l0.1,0.3
	C458,133.6,457.9,134,458,134.4L458,134.4z"/>
<path class="st3" d="M458,134.4l-0.6-0.8l-0.6,0.5l0.2,0.7L458,134.4z M460.4,134.3l1-0.3l0,0l0,0L460.4,134.3z M459.5,133.4
	l-0.9,0.4l0.2,0.5l0.6,0.1L459.5,133.4z M459.3,133.2l0.1-1l-1.6-0.2l0.6,1.5L459.3,133.2z M460.7,134.2l-1,0.3l0,0l0,0L460.7,134.2
	z M458.3,133.2l0.9-0.4l-0.3-0.9l-0.9,0.2L458.3,133.2z M458.4,133.5l0.3,1l1-0.3l-0.4-1L458.4,133.5z M458,134.4l0.6,0.8l0.6-0.5
	l-0.3-0.7L458,134.4z M457.1,134.8c0.4,1,1.4,1.6,2.5,1.5l-0.1-2c-0.2,0-0.3,0-0.4-0.1c-0.1,0-0.1-0.1-0.2-0.2L457.1,134.8z
	 M459.6,136.3c0.6,0,1.2-0.2,1.5-0.8c0.4-0.5,0.4-1.1,0.2-1.6l-1.9,0.7l0,0c0,0,0-0.1,0.1-0.2c0-0.1,0.1-0.1,0.1-0.1s0,0-0.1,0
	L459.6,136.3z M461.4,133.9c-0.3-0.8-1-1.3-1.7-1.5l-0.4,2c0,0,0.1,0,0.1,0.1l0.1,0.1L461.4,133.9z M460.4,133.1l-0.1-0.3l-1.9,0.7
	l0.1,0.3L460.4,133.1z M459.2,134.1c0.2,0,0.4,0.2,0.5,0.4l1.9-0.7c-0.3-1-1.2-1.6-2.2-1.8L459.2,134.1z M459.7,134.6
	c0,0.1,0,0.1,0,0.1C459.8,134.7,459.8,134.7,459.7,134.6C459.8,134.6,459.8,134.6,459.7,134.6C459.8,134.6,459.8,134.6,459.7,134.6
	c0.1,0,0,0-0.1,0l0.1,2c0.6,0,1.3-0.3,1.7-0.8c0.4-0.6,0.4-1.3,0.2-1.9L459.7,134.6z M459.6,134.6c-0.5,0-0.8-0.2-0.9-0.5l-1.9,0.7
	c0.4,1.2,1.6,1.9,2.9,1.8L459.6,134.6z M458.7,134.1C458.7,134,458.7,134,458.7,134.1c-0.1,0-0.1,0-0.1,0l0,0l-0.5-1.9
	c-0.5,0.1-1,0.5-1.2,1s-0.2,1,0,1.5L458.7,134.1z M457.3,133.6l0.1,0.3l1.9-0.7l-0.1-0.3L457.3,133.6z M458.1,132.6
	c-0.5,0.1-0.9,0.5-1,0.9c-0.2,0.4-0.1,0.9,0,1.3l1.9-0.7c0,0,0,0,0,0.2c0,0.1-0.1,0.1-0.1,0.2c-0.1,0.1-0.1,0.1-0.2,0.1L458.1,132.6
	z M457.4,133.6L457.4,133.6l1.2,1.6l0,0L457.4,133.6z"/>
<path class="st3" d="M457.1,132.8l-0.6-1.7h0.3l0.5,1.4l1.1-0.1l-0.5-1.3h0.2l0.5,1.3l1.1-0.1l-0.5-1.4h0.3l0.6,1.7L457.1,132.8
	L457.1,132.8z"/>
<path class="st3" d="M457.1,132.8l-0.9,0.3l0.7,1.9l1.1-1.7L457.1,132.8z M456.6,131.1l-0.1-1l-1.3,0.1l0.4,1.2L456.6,131.1z
	 M456.8,131l0.9-0.3l-0.3-0.7l-0.8,0.1L456.8,131z M457.3,132.5l-0.9,0.3l0.2,0.7l0.8-0.1L457.3,132.5z M458.4,132.4l0.1,1l1.3-0.1
	l-0.4-1.2L458.4,132.4z M457.9,131.1l-0.1-1l-1.3,0.1l0.4,1.2L457.9,131.1z M458.2,131l0.9-0.3l-0.3-0.7l-0.8,0.1L458.2,131z
	 M458.6,132.4l-0.9,0.3l0.2,0.7l0.8-0.1L458.6,132.4z M459.7,132.3l0.1,1l1.3-0.1l-0.4-1.2L459.7,132.3z M459.2,130.9l-0.1-1
	l-1.3,0.1l0.4,1.2L459.2,130.9z M459.4,130.8l0.9-0.3l-0.3-0.7l-0.8,0.1L459.4,130.8z M460,132.5l0.1,1l1.3-0.1l-0.4-1.2L460,132.5z
	 M457.2,132.7l-0.1-1h-0.5l-0.3,0.4L457.2,132.7z M458.1,132.4l-0.6-1.7l-1.9,0.7l0.6,1.7L458.1,132.4z M456.6,132.1h0.3l-0.2-2
	h-0.3L456.6,132.1z M455.9,131.4l0.5,1.4l1.9-0.7l-0.5-1.4L455.9,131.4z M457.4,133.5l1.1-0.1l-0.1-2l-1.1,0.1L457.4,133.5z
	 M459.3,132.1l-0.5-1.3l-1.9,0.7l0.5,1.3L459.3,132.1z M458,132.1h0.2l-0.2-2h-0.2L458,132.1z M457.2,131.4l0.5,1.3l1.9-0.7
	l-0.5-1.3L457.2,131.4z M458.7,133.4l1.1-0.1l-0.1-2l-1.1,0.1L458.7,133.4z M460.6,131.9l-0.5-1.4l-1.9,0.7l0.5,1.4L460.6,131.9z
	 M459.2,131.8h0.3l-0.2-2H459L459.2,131.8z M458.5,131.2l0.6,1.7l1.9-0.7l-0.6-1.7L458.5,131.2z M460,131.6l-2.9,0.2l0.1,2l2.9-0.2
	L460,131.6z M456.3,132.2L456.3,132.2l1.6,1.1l0,0L456.3,132.2z"/>
<path class="st3" d="M455.9,129.5l-0.3-1c-0.2-0.6,0.1-1,0.6-1s1,0.3,1.2,0.9l0.2,0.7l1.1-0.1l0.1,0.3L455.9,129.5L455.9,129.5z
	 M457.1,128.5c-0.2-0.4-0.5-0.6-0.9-0.6s-0.6,0.3-0.4,0.7l0.2,0.6l1.3-0.1L457.1,128.5L457.1,128.5z"/>
<path class="st3" d="M455.9,129.5l-0.9,0.3l0.5,1.3l1.1-0.9L455.9,129.5z M455.6,128.5l0.9-0.3l0,0l0,0L455.6,128.5z M457.4,128.4
	l0.9-0.3l0,0L457.4,128.4z M457.6,129.1l-0.9,0.3l0.3,0.7l0.7-0.1L457.6,129.1z M458.7,129l0.9-0.4l-0.3-0.7h-0.7L458.7,129z
	 M458.8,129.3l0.1,1l1.4-0.1l-0.5-1.3L458.8,129.3z M456,129.5l-0.1-1h-0.3l-0.2,0.2L456,129.5z M457.1,128.5l-0.9,0.3l0.2,0.6
	l0.6,0.1L457.1,128.5z M455.9,128.6l0.9-0.3l0,0l0,0L455.9,128.6z M456.1,129.2l-0.9,0.3l0.2,0.7l0.8-0.1L456.1,129.2z M457.4,129.1
	l0.1,1l1.3-0.1l-0.4-1.2L457.4,129.1z M457.2,128.5l0.9-0.3l-0.2-0.6l-0.6-0.1L457.2,128.5z M456.9,129.2l-0.3-1l-1.9,0.7l0.3,1
	L456.9,129.2z M456.6,128.2c-0.1-0.2,0,0-0.1,0.2s-0.3,0.2-0.2,0.2l-0.1-2c-0.4,0-1,0.2-1.3,0.7s-0.3,1.1-0.1,1.6L456.6,128.2z
	 M456.2,128.5C456.3,128.5,456.3,128.5,456.2,128.5c0.1,0,0.2,0.1,0.2,0.2l1.9-0.7c-0.4-1-1.2-1.6-2.2-1.5L456.2,128.5z
	 M456.5,128.8l0.2,0.7l1.9-0.7l-0.2-0.7L456.5,128.8z M457.7,130.1l1.1-0.1l-0.1-2l-1.1,0.1L457.7,130.1z M457.8,129.4l0.1,0.3
	l1.9-0.8l-0.1-0.3L457.8,129.4z M458.8,128.3l-2.9,0.2l0.1,2l2.9-0.2L458.8,128.3z M455.4,128.7L455.4,128.7l1.2,1.6l0,0
	L455.4,128.7z M458.1,128.1c-0.3-0.9-1-1.3-1.8-1.3v2l0,0c0,0,0,0-0.1,0l0,0l0,0L458.1,128.1z M456.3,126.8c-0.4,0-0.9,0.2-1.2,0.7
	c-0.3,0.5-0.2,1-0.1,1.4l1.9-0.7c0-0.1,0.1,0.1-0.1,0.4c-0.2,0.3-0.4,0.3-0.4,0.3L456.3,126.8z M454.9,128.9l0.2,0.6l1.9-0.7
	l-0.2-0.6L454.9,128.9z M456.2,130.2l1.3-0.1l-0.1-2l-1.3,0.1L456.2,130.2z M458.3,128.8l-0.2-0.6l-1.9,0.7l0.2,0.6L458.3,128.8z
	 M457.3,127.5L457.3,127.5l-0.3,2l0,0L457.3,127.5z"/>
<path class="st3" d="M455.1,127.1l-0.1-0.3l2.6-0.2l-0.5-1.4h0.3l0.6,1.6L455.1,127.1L455.1,127.1z"/>
<path class="st3" d="M455.1,127.1l-0.1,1l1.7,0.2l-0.6-1.6L455.1,127.1z M455,126.8l-0.1-1l-1.4,0.1l0.5,1.3L455,126.8z
	 M457.5,126.6l0.1,1l1.3-0.1l-0.5-1.3L457.5,126.6z M457.1,125.3l-0.1-1l-1.3,0.1l0.4,1.2L457.1,125.3z M457.3,125.2l0.9-0.3
	l-0.3-0.7l-0.8,0.1L457.3,125.2z M457.9,126.9l0.1,1l1.3-0.1l-0.4-1.3L457.9,126.9z M455,127.1l-0.1-1l-0.1,2L455,127.1z M456,126.7
	l-0.1-0.3l-1.9,0.8l0.1,0.3L456,126.7z M455,127.8l2.6-0.2l-0.1-2l-2.6,0.2L455,127.8z M458.5,126.3l-0.5-1.4l-1.9,0.7l0.5,1.4
	L458.5,126.3z M457.1,126.3h0.3l-0.2-2h-0.3L457.1,126.3z M456.4,125.6l0.6,1.6l1.9-0.7l-0.6-1.6L456.4,125.6z M457.8,125.9
	l-2.9,0.2l0.1,2l2.9-0.2L457.8,125.9z M454.9,128.1L454.9,128.1l0.3-2l0,0L454.9,128.1z"/>
<path class="st3" d="M457.2,124.8l-3.2-0.9l-0.1-0.3l2.5-1.2l0.1,0.3l-0.7,0.4l0.4,1.2l1,0.2L457.2,124.8L457.2,124.8z M455.5,123.2
	l-1.2,0.6l1.6,0.4L455.5,123.2z"/>
<path class="st3" d="M457.2,124.8l-0.3,1l1.1,0.3l0.2-1.1L457.2,124.8z M453.9,124l-1,0.3l0.2,0.5l0.5,0.1L453.9,124z M453.8,123.7
	l-0.4-0.9l-0.8,0.4l0.3,0.8L453.8,123.7z M456.3,122.4l0.9-0.4l-0.4-1l-1,0.5L456.3,122.4z M456.4,122.7l0.4,0.9l0.8-0.4l-0.3-0.9
	L456.4,122.7z M455.7,123.1l-0.4-0.9l-0.8,0.4l0.3,0.9L455.7,123.1z M456.1,124.3l-0.9,0.3l0.2,0.5l0.5,0.1L456.1,124.3z
	 M457.1,124.5l0.9-0.4l-0.2-0.5l-0.5-0.1L457.1,124.5z M457.2,124.8l1,0.1v-0.2l-0.1-0.2L457.2,124.8z M455.5,123.2l0.9-0.3l-0.4-1
	l-1,0.5L455.5,123.2z M454.2,123.8l-0.4-0.9l-2.4,1.2l2.6,0.7L454.2,123.8z M455.8,124.2l-0.3,1l1.9,0.5l-0.6-1.8L455.8,124.2z
	 M457.4,123.9l-3.2-0.9l-0.5,1.9l3.2,0.9L457.4,123.9z M454.9,123.6l-0.1-0.3l-1.9,0.7l0.1,0.3L454.9,123.6z M454.3,124.6l2.5-1.2
	l-0.9-1.8l-2.5,1.2L454.3,124.6z M455.4,122.8l0.1,0.3l1.9-0.7l-0.1-0.3L455.4,122.8z M456,121.8l-0.7,0.4l0.8,1.8l0.7-0.4
	L456,121.8z M454.7,123.4l0.4,1.2l1.9-0.7l-0.4-1.2L454.7,123.4z M455.8,125.2l1,0.2l0.5-1.9l-1-0.2L455.8,125.2z M456.1,124.9
	l0.1,0.3l1.9-0.7l-0.1-0.3L456.1,124.9z M456.2,124.7L456.2,124.7l2,0.3l0,0L456.2,124.7z M455,122.3l-1.2,0.6l0.8,1.8l1.2-0.6
	L455,122.3z M454,124.7l1.6,0.4l0.6-1.9l-1.6-0.4L454,124.7z M456.8,123.9l-0.4-1l-1.9,0.7l0.4,1L456.8,123.9z"/>
<path class="st3" d="M453.5,122.7l-0.7-2.1h0.3l0.3,0.9l2.6-0.2l0.1,0.3l-2.6,0.2l0.3,0.9L453.5,122.7z"/>
<path class="st3" d="M453.5,122.7l-0.9,0.3l0.2,0.7h0.7L453.5,122.7z M452.7,120.6v-1h-1.4l0.5,1.3L452.7,120.6z M453,120.6l0.9-0.3
	l-0.2-0.7H453L453,120.6z M453.3,121.5l-0.9,0.3l0.2,0.7h0.7L453.3,121.5z M455.9,121.3l0.9-0.4l-0.3-0.7h-0.7L455.9,121.3z
	 M456,121.6l0.1,1l1.3-0.1l-0.5-1.3L456,121.6z M453.4,121.8l-0.1-1l-1.3,0.1l0.4,1.3L453.4,121.8z M453.7,122.7v1h1.4l-0.5-1.3
	L453.7,122.7z M454.4,122.4l-0.7-2.1l-1.9,0.7l0.7,2.1L454.4,122.4z M452.7,121.6h0.3v-2h-0.3V121.6z M452,121l0.3,0.9l1.9-0.7
	l-0.3-0.9L452,121z M453.4,122.5l2.6-0.2l-0.1-2l-2.6,0.2L453.4,122.5z M455,121.7l0.1,0.3l1.9-0.7l-0.1-0.3L455,121.7z M456,120.6
	l-2.6,0.2l0.1,2l2.6-0.2L456,120.6z M452.5,122.1l0.3,0.9l1.9-0.7l-0.3-0.9L452.5,122.1z M453.7,121.7h-0.3v2h0.3V121.7z"/>
<path class="st3" d="M452.5,120.1l-0.6-1.7h0.3l0.5,1.4l1.1-0.1l-0.5-1.3h0.2l0.5,1.3l1.3-0.1l0.1,0.3L452.5,120.1L452.5,120.1z"/>
<path class="st3" d="M452.5,120.1l-0.1,1l1.6,0.2l-0.5-1.5L452.5,120.1z M451.9,118.4v-1h-1.4l0.5,1.3L451.9,118.4z M452.2,118.4
	l0.9-0.3l-0.2-0.7h-0.7L452.2,118.4z M452.7,119.8l-0.9,0.3l0.2,0.7h0.7L452.7,119.8z M453.7,119.8v1l1.4-0.1l-0.4-1.3L453.7,119.8z
	 M453.3,118.5v-1h-1.4l0.5,1.3L453.3,118.5z M453.5,118.5l0.9-0.3l-0.2-0.7h-0.7L453.5,118.5z M454,119.7l-0.9,0.3l0.2,0.7h0.7
	L454,119.7z M455.3,119.7l1-0.3l-0.2-0.7h-0.8V119.7z M455.4,119.9v1l1.3-0.1l-0.4-1.2L455.4,119.9z M452.5,120.1v-1l-0.1,2
	L452.5,120.1z M453.5,119.8l-0.6-1.7l-1.9,0.7l0.6,1.7L453.5,119.8z M451.9,119.4h0.3v-2h-0.3V119.4z M451.2,118.8l0.5,1.4l1.9-0.7
	l-0.5-1.4L451.2,118.8z M452.7,120.8l1.1-0.1l-0.1-2l-1.1,0.1L452.7,120.8z M454.7,119.4l-0.5-1.3l-1.9,0.7l0.5,1.3L454.7,119.4z
	 M453.3,119.5h0.2v-2h-0.2V119.5z M452.6,118.8l0.5,1.3l1.9-0.7l-0.5-1.3L452.6,118.8z M454,120.7l1.3-0.1l-0.1-2l-1.3,0.1
	L454,120.7z M454.3,120l0.1,0.3l1.9-0.7l-0.1-0.3L454.3,120z M455.3,118.9l-2.9,0.2l0.1,2l2.9-0.2L455.3,118.9z M452.4,121.1
	L452.4,121.1l0.3-2l0,0L452.4,121.1z"/>
<path class="st3" d="M454.2,116.6c0.2,0.7-0.1,1.3-1,1.3c-0.9,0.1-1.6-0.4-1.9-1.1c-0.2-0.7,0.1-1.3,1-1.3
	C453.2,115.4,453.9,115.9,454.2,116.6z M453.9,116.6c-0.2-0.5-0.8-0.9-1.5-0.9s-1.1,0.5-0.9,1s0.8,0.9,1.5,0.9
	C453.8,117.6,454.1,117.2,453.9,116.6z"/>
<path class="st3" d="M453.1,117.7v-1l0,0V117.7z M453.2,116.9C453.3,117,453.3,117,453.2,116.9C453.3,117,453.3,117,453.2,116.9
	C453.3,117,453.3,116.9,453.2,116.9C453.3,116.9,453.3,116.9,453.2,116.9c0.1,0,0,0-0.1,0l0.1,2c0.6,0,1.3-0.3,1.7-0.8
	c0.4-0.6,0.4-1.3,0.2-1.8L453.2,116.9z M453.1,116.9c-0.5,0-0.8-0.2-0.9-0.5l-1.9,0.7c0.4,1.2,1.6,1.9,2.9,1.8L453.1,116.9z
	 M452.2,116.4C452.2,116.4,452.2,116.3,452.2,116.4L452.2,116.4L452.2,116.4C452.1,116.5,452.1,116.5,452.2,116.4c-0.1,0,0,0,0.1,0
	l-0.1-2c-0.6,0-1.3,0.3-1.7,0.8c-0.4,0.6-0.4,1.3-0.2,1.8L452.2,116.4z M452.3,116.5c0.5,0,0.8,0.2,0.9,0.5l1.9-0.7
	c-0.4-1.2-1.6-1.9-2.9-1.8L452.3,116.5z M454.9,116.3c-0.4-1-1.4-1.6-2.5-1.5l0.1,2c0.4,0,0.5,0.2,0.5,0.3L454.9,116.3z
	 M452.4,114.7c-0.5,0-1.1,0.2-1.5,0.7s-0.4,1.2-0.2,1.7l1.9-0.7c0,0,0,0,0,0.1s0,0.1-0.1,0.2s-0.2,0.1,0,0.1L452.4,114.7z
	 M450.6,117.1c0.4,1,1.4,1.6,2.5,1.5l-0.1-2c-0.4,0-0.5-0.2-0.5-0.3L450.6,117.1z M453.1,118.7c0.5,0,1.1-0.2,1.5-0.7
	s0.4-1.2,0.2-1.7L453,117c0,0,0,0,0-0.1s0-0.1,0.1-0.2s0.2-0.1,0-0.1V118.7z"/>
<path class="st3" d="M450.6,115l-0.3-0.9c-0.2-0.6,0-0.9,0.5-1c0.4,0,0.7,0.1,1,0.5l1-0.7l0.1,0.3l-0.9,0.7v0.1l0.2,0.7l1.1-0.1
	l0.1,0.3L450.6,115L450.6,115z M451.8,114c-0.2-0.4-0.5-0.6-0.8-0.6s-0.5,0.3-0.4,0.7l0.2,0.6l1.2-0.1L451.8,114L451.8,114z"/>
<path class="st3" d="M450.6,115l-0.9,0.3l0.2,0.6l0.6,0.1L450.6,115z M450.3,114.1l-0.9,0.3l0,0L450.3,114.1z M450.9,113.1l0.1,1
	l0,0l0,0L450.9,113.1z M451.8,113.6l-0.8,0.6l0.6,0.8l0.8-0.6L451.8,113.6z M452.8,112.9l0.9-0.4l-0.5-1.2l-1.1,0.8L452.8,112.9z
	 M452.9,113.2l0.6,0.8l0.6-0.5l-0.3-0.7L452.9,113.2z M452,113.9l-0.6-0.8l-0.7,0.5l0.4,0.7L452,113.9z M452,114l-1,0.3l0,0l0,0
	L452,114z M452.3,114.6l-0.9,0.3l0.2,0.7h0.7L452.3,114.6z M453.4,114.6l1-0.3l-0.2-0.7h-0.8V114.6z M453.5,114.8v1l1.3-0.1
	l-0.4-1.2L453.5,114.8z M450.7,115l-0.1,1h0.1h0.1L450.7,115z M451.8,114l-0.9,0.3l0.2,0.6l0.6,0.1L451.8,114z M450.6,114.1l0.9-0.3
	l0,0L450.6,114.1z M450.8,114.7l-0.9,0.3l0.2,0.7h0.8L450.8,114.7z M452,114.6v1l1.3-0.1l-0.4-1.2L452,114.6z M451.8,114l0.9-0.3
	l-0.2-0.6l-0.6-0.1L451.8,114z M451.6,114.7l-0.3-0.9l-1.9,0.7l0.3,0.9L451.6,114.7z M451.3,113.7c-0.1-0.2,0-0.1-0.1,0.1
	c-0.1,0.1-0.1,0.2-0.2,0.2s-0.1,0-0.1,0l-0.1-2c-0.5,0-1,0.2-1.3,0.8c-0.3,0.5-0.2,1.1-0.1,1.5L451.3,113.7z M450.9,114.1
	L450.9,114.1L450.9,114.1C450.9,114.1,451,114.1,450.9,114.1l1.7-1.1c-0.4-0.6-1.1-1-1.9-0.9L450.9,114.1z M452.4,114.4l1-0.7
	l-1.2-1.6l-1,0.7L452.4,114.4z M451.9,113.2l0.1,0.3l1.9-0.7l-0.1-0.3L451.9,113.2z M452.3,112.4l-0.9,0.7l1.2,1.6l0.9-0.7
	L452.3,112.4z M452,113.9c-0.9,0.4-0.9,0.4-0.9,0.4l0,0l0,0l0,0l0,0l0,0l0,0l0,0l0,0l0,0l0,0l1.9-0.7c0-0.1,0-0.1-0.1-0.2l0,0l0,0
	l0,0l0,0l0,0l0,0l0,0l0,0C452.9,113.4,452.9,113.4,452,113.9z M451.1,114.3l0.2,0.7l1.9-0.7l-0.2-0.7L451.1,114.3z M452.3,115.6
	l1.1-0.1l-0.1-2l-1.1,0.1L452.3,115.6z M452.5,114.9l0.1,0.3l1.9-0.7l-0.1-0.3L452.5,114.9z M453.4,113.8l-2.8,0.2l0.1,2l2.8-0.2
	L453.4,113.8z M450.8,114L450.8,114l-0.3,2l0,0L450.8,114z M452.7,113.7c-0.1-0.4-0.4-0.7-0.7-1c-0.3-0.2-0.7-0.3-1.1-0.3v2
	c0,0,0,0-0.1,0h-0.1c-0.1,0,0-0.1,0,0L452.7,113.7z M450.9,112.4c-0.4,0-0.9,0.2-1.2,0.7c-0.3,0.5-0.2,1-0.1,1.4l1.9-0.7
	c0-0.1,0.1,0.1-0.1,0.3c-0.2,0.3-0.4,0.3-0.5,0.3L450.9,112.4z M449.6,114.4l0.2,0.6l1.9-0.7l-0.2-0.6L449.6,114.4z M450.9,115.7
	l1.2-0.1l-0.1-2l-1.2,0.1L450.9,115.7z M453,114.3l-0.2-0.6l-1.9,0.7l0.2,0.6L453,114.3z M451.9,113L451.9,113l-0.3,2l0,0L451.9,113
	z"/>
<path class="st3" d="M449.7,112.3l2.1-1.1l-2.8-0.9l-0.1-0.3l2.8-0.2l0.1,0.3l-2.3,0.1l2.6,0.8l0.1,0.3l-1.9,1.1l2.3-0.1l0.1,0.3
	l-2.8,0.2L449.7,112.3L449.7,112.3z"/>
<path class="st3" d="M449.7,112.3l-0.5-0.9h-0.1l-0.1,0.1L449.7,112.3z M451.7,111.1l0.5,0.9l2-1.1l-2.2-0.7L451.7,111.1z
	 M448.9,110.2l-0.9,0.3l0.2,0.5l0.5,0.1L448.9,110.2z M448.8,109.9v-1l-1.4,0.1l0.5,1.3L448.8,109.9z M451.7,109.7l1-0.3l-0.2-0.7
	h-0.8V109.7z M451.7,110v1l1.3-0.1l-0.4-1.2L451.7,110z M449.5,110.2v-1l-0.3,1.9L449.5,110.2z M452.1,111l0.9-0.4l-0.2-0.4
	l-0.5-0.1L452.1,111z M452.2,111.2l0.5,0.9l0.8-0.4l-0.3-0.8L452.2,111.2z M450.2,112.3l-0.5-0.9l0.5,1.9V112.3z M452.5,112.2
	l0.9-0.4l-0.2-0.7h-0.7L452.5,112.2z M452.6,112.5v1l1.4-0.1l-0.5-1.3L452.6,112.5z M449.8,112.6l-0.9,0.3l0.2,0.7h0.7L449.8,112.6z
	 M449.6,112.3l-0.6-0.8l-0.6,0.5l0.2,0.7L449.6,112.3z M450.1,113.2l2.1-1.1l-0.9-1.7l-2.1,1.1L450.1,113.2z M452.1,110.2l-2.8-0.9
	l-0.6,1.9l2.8,0.9L452.1,110.2z M449.9,109.9l-0.1-0.3l-1.9,0.7l0.1,0.3L449.9,109.9z M448.9,110.9l2.8-0.2l-0.1-2l-2.8,0.2
	L448.9,110.9z M450.7,110.1l0.1,0.3l1.9-0.7l-0.1-0.3L450.7,110.1z M451.7,109l-2.3,0.1l0.1,2l2.3-0.1L451.7,109z M449.2,111.1
	l2.6,0.8l0.6-1.9l-2.6-0.8L449.2,111.1z M451.1,111.3l0.1,0.3l1.9-0.7l-0.1-0.3L451.1,111.3z M451.7,110.4l-1.9,1.1l1,1.7l1.9-1.1
	L451.7,110.4z M450.3,113.3l2.3-0.1l-0.1-2l-2.3,0.1L450.3,113.3z M451.5,112.6l0.1,0.3l1.9-0.7l-0.1-0.3L451.5,112.6z M452.5,111.5
	l-2.8,0.2l0.1,2l2.8-0.2L452.5,111.5z M450.7,112.3l-0.1-0.3l-1.9,0.7l0.1,0.3L450.7,112.3z M450.2,113.1L450.2,113.1l-1.2-1.6l0,0
	L450.2,113.1z"/>
<path class="st2" d="M149.6,191.5L149.6,191.5L149.6,191.5l-1.4-8.2l0,0l-0.1-0.4c-0.2-1.1,0.5-2.1,1.6-2.4l1.8,10.9l0,0
	c0.3,1.6-0.9,3-2.6,3.2c-1.8,0.2-3.4-1.1-3.7-2.7l0,0l-1.3-8.2l2-0.2l1.4,8.2l0,0l0,0c0.1,0.5,0.7,0.9,1.2,0.8
	C149.2,192.5,149.6,192.1,149.6,191.5z"/>
<path class="st2" d="M184.6,180.9l2,10.7c-1.2-0.2-2.1-1-2.3-2.1l0,0l-1.6-8.4l0,0l0,0c-0.2-0.5-0.7-0.8-1.2-0.8c-0.6,0-1,0.5-1,1.1
	l0,0l0,0l2,10.7l-1.9,0.2l-2-10.9l0,0l0,0c-0.3-1.6,0.8-2.9,2.4-3C182.7,178.1,184.3,179.3,184.6,180.9L184.6,180.9z"/>
<path class="st2" d="M190.2,181.6h0.5v-0.1l2.6-0.2l0.4,2.3l0,0l1.4,7.3l-2.2,0.2l0,0h-0.1h-0.1l-2.7,0.2l0,0l0,0l-0.9,0.1l-0.3-1.8
	l3.6-0.3h0.6l-0.1-0.5l-0.7-4l0,0l0,0l-0.2-1.1l-0.1-0.4h-0.4l-0.6,0.1c-1.7,0.1-3.3-1.1-3.6-2.7c-0.3-1.5,0.8-2.9,2.4-3l0,0l3-0.2
	c0,1-0.8,1.9-1.9,2l0,0l0,0l-0.6,0.1l0,0l0,0c-0.6,0.1-0.9,0.7-0.8,1.2C189.2,181.2,189.7,181.6,190.2,181.6z"/>
<path class="st2" d="M140.8,192.5l-0.7-4.1l0,0l0,0l0,0l0,0l0,0l0,0H140h-0.1h-0.2l0.5-0.1l-0.8-4.8l-0.1-0.5h-0.5l-1.3,0.1H137
	l0.1,0.5l1.5,9.2l0.1,0.4h0.5l1.3-0.1l1.4-0.1L140.8,192.5z M140.8,192.5l-0.1-0.1l0,0l-0.3,0.4 M140.8,192.5v0.2l-0.4,0.1l0,0
	 M140.4,192.7v-0.4h-0.1L140.4,192.7 M140.4,192.7L140.4,192.7 M140.4,192.7L140.4,192.7 M140.4,192.8L140.4,192.8 M140.4,192.8
	L140.4,192.8 M140.4,192.8L140.4,192.8h-0.3h-0.2l0,0v0.2l0.2,0.1l0,0L140.4,192.8z M140.4,192.8L140.4,192.8 M141.5,184l0.1,0.4
	l0,0l1.3,7.7l0,0c0.3,1.6-0.9,3-2.7,3.2l0,0l-3.2,0.3l-2.2-14l2.5-0.2h0.6l0,0l0,0C139.6,181.1,141.2,182.4,141.5,184z M139.7,188.4
	h0.1h0.1h0.1h0.1l0,0l0,0l0,0l0,0l0,0l0,0l0,0l0,0l0,0l0,0l0,0l0,0l0,0l0,0l0,0l0,0l0,0l0,0l0,0l0,0l0,0l0,0l0,0l0,0l0,0l0,0l0,0
	l0,0l0,0l0,0l0,0l0,0l0,0l0,0l0,0l0,0l0,0l0,0l0,0l0,0l0,0l0,0l0,0l0,0l0,0l0,0l0,0l0,0l0,0l0,0l0,0l0,0l0,0l0,0l0,0l0,0l0,0l0,0
	l0,0l0,0l0,0l0,0l0,0l0,0l0,0l0,0l0,0l0,0l0,0l0,0l0,0l0,0l0,0l0,0l0,0l0,0l0,0l0,0l0,0l0,0l0,0l0,0l0,0l0,0l0,0l0,0l0,0l0,0l0,0
	l0,0l0,0l0,0l0,0l0,0l0,0l0,0l0,0l0,0l0,0l0,0l0,0l0,0l0,0l0,0l0,0l0,0l0,0l0,0l0,0l0,0l0,0l0,0l0,0l0,0l0,0l0,0l0,0l0,0l0,0l0,0
	l0,0l0,0l0,0l0,0l0,0l0,0l0,0l0,0l0,0l0,0l0,0l0,0l0,0l0,0l0,0l0,0l0,0l0,0l0,0l0,0l0,0l0,0l0,0l0,0l0,0l0,0l0,0l0,0l0,0l0,0l0,0
	l0,0l0,0l0,0l0,0l0,0l0,0l0,0l0,0l0,0l0,0l0,0l0,0l0,0l0,0l0,0l0,0l0,0l0,0l0,0l0,0l0,0l0,0l0,0l0,0l0,0l0,0l0,0l0,0l0,0l0,0l0,0
	l0,0l0,0l0,0l0,0l0,0l0,0l0,0l0,0l0,0l0,0l0,0l0,0l0,0l0,0l0,0l0,0l0,0l0,0l0,0l0,0l0,0l0,0l0,0l0,0l0,0l0,0l0,0l0,0l0,0l0,0l0,0
	l0,0l0,0l0,0l0,0l0,0l0,0l0,0l0,0l0,0l0,0l0,0l0,0l0,0l0,0l0,0l0,0l0,0l0,0l0,0l0,0l0,0l0,0l0,0l0,0l0,0l0,0l0,0l0,0l0,0l0,0l0,0
	l0,0l0,0l0,0l0,0l0,0l0,0l0,0l0,0l0,0l0,0l0,0l0,0l0,0l0,0l0,0l0,0l0,0l0,0l0,0l0,0l0,0l0,0l0,0l0,0l0,0l0,0l0,0l0,0l0,0l0,0l0,0
	l0,0l0,0l0,0l0,0l0,0l0,0l0,0l0,0l0,0l0,0l0,0l0,0l0,0l0,0l0,0l0,0l0,0l0,0l0,0l0,0l0,0l0,0l0,0l0,0l0,0l0,0l0,0l0,0l0,0l0,0l0,0
	l0,0l0,0l0,0l0,0l0,0l0,0l0,0l0,0l0,0l0,0l0,0l0,0l0,0l0,0l0,0l0,0l0,0l0,0l0,0l0,0l0,0l0,0l0,0l0,0l0,0l0,0l0,0l0,0l0,0l0,0l0,0
	l0,0l0,0l0,0l0,0l0,0l0,0l0,0l0,0l0,0l0,0l0,0l0,0l0,0l0,0l0,0l0,0l0,0l0,0l0,0l0,0l0,0l0,0l0,0l0,0l0,0l0,0l0,0l0,0l0,0l0,0l0,0
	l0,0l0,0l0,0l0,0l0,0l0,0l0,0l0,0l0,0l0,0l0,0l0,0l0,0l0,0l0,0l0,0l0,0l0,0l0,0l0,0l0,0l0,0l0,0l0,0l0,0l0,0l0,0l0,0l0,0l0,0l0,0
	l0,0l0,0l0,0l0,0l0,0l0,0l0,0l0,0l0,0l0,0l0,0l0,0l0,0l0,0l0,0l0,0l0,0l0,0l0,0l0,0l0,0l0,0l0,0l0,0l0,0l0,0l0,0l0,0l0,0l0,0l0,0
	l0,0l0,0l0,0l0,0l0,0l0,0l0,0l0,0l0,0l0,0l0,0l0,0l0,0l0,0H139.7z"/>
<path class="st2" d="M158.9,182.7L158.9,182.7l1.4,8l0,0c0.3,1.6-0.9,3-2.6,3.2l0,0l-3.2,0.3l-2.3-13.9l2.4-0.2h0.6l0,0l0,0
	C157,179.9,158.7,181.1,158.9,182.7z M158,192l0.9-0.1l-0.5-0.6l-0.7-4.2l0,0l0,0l0,0l0,0l0,0l0,0h-0.1l0,0h-0.1h-0.2l0.5-0.1
	l-0.8-4.8l-0.1-0.4h-0.5l-1.3,0.1h-0.6l0.1,0.5l1.6,9.2l0.1,0.4h0.5L158,192z"/>
<path class="st2" d="M168.6,187.9l0.1,0.4l0,0l0.3,1.8l0,0c0.3,1.6-0.8,3-2.5,3.1c-1.7,0.2-3.4-1.1-3.7-2.7l0,0l-0.7-3.7l0,0
	l-0.7-4.2l0,0l0,0c-0.3-1.5,0.8-2.9,2.5-3.1c1.7-0.1,3.3,1.1,3.6,2.7l0,0L168.6,187.9z M167,190.2L167,190.2L167,190.2l-0.4-2.2l0,0
	l-1-5.7l0,0l0,0c-0.2-0.5-0.7-0.9-1.2-0.8v0.5v-0.5c-0.6,0.1-1,0.5-1,1.1l0,0l0,0l0.7,4.2l0,0l0.6,3.7l0,0l0,0
	c0.2,0.5,0.7,0.8,1.2,0.8C166.6,191.2,167,190.7,167,190.2z"/>
<path class="st2" d="M170.8,186.2L170.8,186.2L170,182l0,0c-0.3-1.5,0.8-2.9,2.5-3.1c1.7-0.1,3.3,1.1,3.6,2.7l0,0l1,5.5l0,0l0.1,0.3
	l0.4,2.1l0,0c0.3,1.6-0.8,3-2.5,3.1s-3.4-1.1-3.7-2.7l0,0L170.8,186.2z M174.6,190.6c0.3,0,0.7-0.2,0.8-0.5h0.3l-0.1-0.7l-0.4-2.1
	l0,0l-1-5.7l0,0l0,0c-0.2-0.5-0.7-0.9-1.2-0.8c-0.6,0.1-1,0.5-1,1.1l0,0l0,0l0.7,4.2l0,0l0.7,3.7l0,0l0,0
	C173.6,190.4,174.1,190.7,174.6,190.6z"/>
<path class="st3" d="M392.5,71.4h-0.3l-0.4-1.1h0.3L392.5,71.4z"/>
<path class="st3" d="M392.5,71.4v1l1.3-0.1l-0.4-1.2L392.5,71.4z M392.2,71.4l-1,0.3l0.2,0.7h0.8V71.4z M391.8,70.3v-1l-1.3,0.1
	l0.4,1.2L391.8,70.3z M392.1,70.3l1-0.3l-0.2-0.7h-0.8V70.3z M392.4,70.4h-0.3l0.1,2h0.3L392.4,70.4z M393.1,71.1l-0.4-1.1l-1.9,0.6
	l0.4,1.1L393.1,71.1z M391.8,71.3h0.3l-0.1-2h-0.3L391.8,71.3z M391.2,70.6l0.4,1.1l1.9-0.6l-0.4-1.1L391.2,70.6z"/>
<path class="st4" d="M439.6,212.7h-0.3l-0.9-2.6h0.3L439.6,212.7z M437.9,207.5h-0.3l-0.9-2.6h0.3L437.9,207.5z M436.2,202.2h-0.3
	l-0.9-2.6h0.3L436.2,202.2z M434.5,197h-0.3l-0.8-2.6h0.3L434.5,197L434.5,197z M432.8,191.8h-0.3l-0.8-2.6h0.3L432.8,191.8z
	 M431.1,186.7h-0.3l-0.8-2.6h0.3L431.1,186.7z M429.4,181.5h-0.3l-0.8-2.5h0.3L429.4,181.5z M427.7,176.4h-0.3l-0.8-2.5h0.3
	L427.7,176.4z M426.1,171.4h-0.3l-0.8-2.5h0.3L426.1,171.4z M424.4,166.3h-0.3l-0.8-2.5h0.3L424.4,166.3z M422.8,161.3h-0.3
	l-0.8-2.5h0.3L422.8,161.3z M421.2,156.4h-0.3l-0.8-2.5h0.3L421.2,156.4L421.2,156.4z M419.6,151.4h-0.3l-0.8-2.5h0.3L419.6,151.4z
	 M418,146.5h-0.3l-0.8-2.5h0.3L418,146.5z M416.4,141.6h-0.3l-0.8-2.4h0.3L416.4,141.6z M414.8,136.7h-0.3l-0.8-2.4h0.3L414.8,136.7
	L414.8,136.7z M413.2,131.9h-0.3l-0.8-2.4h0.3L413.2,131.9z M411.7,127.1h-0.3l-0.8-2.4h0.3L411.7,127.1z M410.1,122.3h-0.3
	l-0.8-2.4h0.3L410.1,122.3z M408.5,117.5h-0.3l-0.8-2.4h0.3L408.5,117.5z M407,112.8h-0.3l-0.8-2.4h0.3L407,112.8z M405.5,108.1
	h-0.3l-0.8-2.3h0.3L405.5,108.1z M404,103.4h-0.3l-0.8-2.3h0.3L404,103.4z M402.4,98.8h-0.3l-0.8-2.3h0.3L402.4,98.8z M400.9,94.2
	h-0.3l-0.8-2.3h0.3L400.9,94.2z M399.4,89.6h-0.3l-0.7-2.3h0.3L399.4,89.6z M397.9,85h-0.3l-0.7-2.3h0.3L397.9,85z M396.5,80.5h-0.3
	l-0.7-2.3h0.3L396.5,80.5z M395,75.9h-0.3l-0.7-2.3h0.3L395,75.9z"/>
<path class="st3" d="M441.9,216.7h-0.3l-0.4-1.3h0.3L441.9,216.7z"/>
<path class="st3" d="M441.9,216.7l0.1,1l1.3-0.1l-0.4-1.2L441.9,216.7z M441.6,216.8l-1,0.3l0.2,0.7l0.8-0.1V216.8z M441.1,215.4
	l-0.1-1l-1.3,0.1l0.4,1.2L441.1,215.4z M441.5,215.4l1-0.3l-0.2-0.7l-0.8,0.1V215.4z M441.8,215.7h-0.3l0.2,2h0.3L441.8,215.7z
	 M442.5,216.4l-0.4-1.3l-1.9,0.7l0.4,1.3L442.5,216.4z M441.2,216.4h0.3l-0.2-2H441L441.2,216.4z M440.5,215.7l0.4,1.3l1.9-0.7
	l-0.4-1.3L440.5,215.7z"/>
<path class="st5" d="M131.3,158.1l153.8-10.8"/>
<path class="st3" d="M285.2,147.5l-153.8,10.8l-0.1-0.5L285.1,147L285.2,147.5z"/>
<path class="st3" d="M285.2,147.5l0.1,1l1.2-0.1l-0.3-1.1L285.2,147.5z M131.4,158.4l-1,0.1l0.1,0.9l0.9-0.1V158.4z M131.3,157.9
	l-0.1-1l-1.1,0.1l0.1,1.1L131.3,157.9z M285.1,147.1l1-0.2l-0.2-0.8l-0.8,0.1V147.1z M285.1,146.5l-153.8,10.8l0.1,2l153.8-10.8
	L285.1,146.5z M132.4,158.2l-0.1-0.5l-2,0.3l0.1,0.5L132.4,158.2z M131.4,158.9l153.8-10.8l-0.1-2l-153.8,10.8L131.4,158.9z
	 M284.1,147.3l0.1,0.4l2-0.5l-0.1-0.5L284.1,147.3z"/>
<g>
	<path class="st6" d="M443.3,57.3L414.9,6.6C412.8,3,408,0.5,404,1.1l-86.8,13.4c-2.6,0.4-3.8,2.6-2.6,4.9c-1.2-2.3-4.2-3.9-6.8-3.5
		l-297.6,46c-5.7,0.9-9.2,5.3-7.9,9.9l17.9,64c7.6-1.4,15.3,2.7,17.1,9.2c1.9,6.5-2.8,13.1-10.5,14.6l20,71.4c1.6,5.6,7.9,9,14,7.6
		l319.6-74.2c2.8-0.6,3.9-3.4,2.5-6.2c1.4,2.8,4.7,4.5,7.4,3.9l91.5-21.2c4.2-1,5.5-5.3,3.1-9.6l-31.1-55.4
		c-5.2,1-11.9-2.4-14.7-7.6C436.2,63.1,438.1,58.2,443.3,57.3L443.3,57.3z"/>
	<path class="st7" d="M383.3,158c1.3,2.6,4.4,4.2,6.9,3.6l0,0l91.5-21.2c1.9-0.4,3.2-1.6,3.7-3.2c0.5-1.6,0.3-3.6-0.9-5.7
		l-30.9-55.1c-2.7,0.4-5.6-0.2-8.2-1.6c-2.7-1.4-5.2-3.6-6.7-6.3c-1.5-2.7-1.8-5.4-0.9-7.5c0.8-2,2.5-3.5,4.9-4.1l-28.1-50
		c-1-1.7-2.6-3.2-4.5-4.2s-4-1.4-5.8-1.1 M383.3,158L383.3,158l-0.9,0.4l0,0l0,0c0.6,1.3,0.7,2.5,0.3,3.5c-0.4,1-1.2,1.7-2.5,2
		l0.1,0.5l-0.1-0.5L60.7,238.1c-5.9,1.4-11.9-1.9-13.4-7.2L27.4,160c7.6-1.8,12.3-8.5,10.3-15.1c-1.9-6.7-9.6-10.8-17.3-9.6
		L2.7,71.7l0,0c-1.2-4.2,2.1-8.4,7.5-9.3l297.6-45.9l0,0c1.2-0.2,2.5,0.1,3.6,0.7s2.1,1.5,2.6,2.5l0.9-0.4c-0.5-1-0.5-2-0.1-2.7
		c0.4-0.7,1.2-1.3,2.3-1.5l86.8-13.4"/>
</g>
<path class="st8" d="M427.1,135.7l1.1,2.1l26.3-5.9l-1.1-2.1L427.1,135.7z"/>
<path class="st8" d="M425.9,133.5l0.6,1.1l26.3-5.9l-0.6-1L425.9,133.5z"/>
<path class="st8" d="M424.5,130.7l0.6,1.1l26.3-5.8l-0.6-1L424.5,130.7L424.5,130.7z"/>
<path class="st8" d="M421.7,125.4l0.5,1.1l26.2-5.7l-0.6-1L421.7,125.4L421.7,125.4z"/>
<path class="st8" d="M419.6,121.4l1.7,3.2l26.3-5.7l-1.7-3.2L419.6,121.4L419.6,121.4z"/>
<path class="st8" d="M417.9,118.2l1.1,2.2l26.3-5.6l-1.2-2.1L417.9,118.2z"/>
<path class="st8" d="M415.9,114.4l0.6,1.1l26.2-5.6l-0.6-1.1L415.9,114.4L415.9,114.4z"/>
<path class="st8" d="M414.8,112.3l0.6,1.1l26.2-5.5l-0.6-1L414.8,112.3L414.8,112.3z"/>
<path class="st8" d="M412.3,107.5l0.8,1.6l26.2-5.5l-0.8-1.6L412.3,107.5L412.3,107.5z"/>
<path class="st8" d="M410.1,103.4l0.5,1l26.1-5.4l-0.5-1L410.1,103.4L410.1,103.4z"/>
<path class="st8" d="M408.5,100.4l1,2l26.1-5.3l-1.1-1.9L408.5,100.4z"/>
<path class="st8" d="M405.4,94.5l1.6,2.9l26.1-5.3l-1.6-2.9L405.4,94.5L405.4,94.5z"/>
<path class="st8" d="M404.4,92.5l0.5,1l26-5.2l-0.5-1L404.4,92.5L404.4,92.5z"/>
<path class="st8" d="M401.9,87.7l1,1.9l26-5.1l-1-1.9L401.9,87.7L401.9,87.7z"/>
<path class="st8" d="M400.8,85.7l0.5,1l26-5.1l-0.5-1L400.8,85.7L400.8,85.7z"/>
<path class="st8" d="M398.3,80.9l1,1.9l25.9-5l-1-1.9L398.3,80.9L398.3,80.9z"/>
<path class="st8" d="M396.3,77l0.5,1l25.9-5l-0.5-1L396.3,77L396.3,77z"/>
<path class="st8" d="M394.3,73.2l1.5,2.9l25.9-4.9l-1.5-2.8L394.3,73.2L394.3,73.2z"/>
<path class="st8" d="M393.3,71.3l0.5,1l25.8-4.9l-0.5-0.9L393.3,71.3L393.3,71.3z"/>
<path class="st8" d="M390.8,66.6l1,1.9l25.8-4.8l-1-1.9L390.8,66.6z"/>
<path class="st8" d="M388.8,62.8l1.5,2.8l25.8-4.8l-1.5-2.8L388.8,62.8L388.8,62.8z"/>
<path class="st8" d="M387.8,60.9l0.5,0.9l25.7-4.7l-0.5-0.9L387.8,60.9L387.8,60.9z"/>
<path class="st8" d="M386.8,59l0.5,0.9l25.7-4.7l-0.5-0.9L386.8,59L386.8,59z"/>
<path class="st8" d="M384.4,54.3l1,1.9l25.7-4.6l-1-1.8L384.4,54.3L384.4,54.3z"/>
<path class="st8" d="M382.4,50.6l0.5,0.9l25.7-4.5l-0.5-0.9L382.4,50.6L382.4,50.6z"/>
<path class="st8" d="M380.5,46.9l0.5,0.9l25.6-4.5l-0.5-0.9L380.5,46.9L380.5,46.9z"/>
<path class="st8" d="M379,44.1l1,1.8l25.6-4.5l-1-1.8L379,44.1z"/>
<path class="st8" d="M377.1,40.5l0.5,0.9l25.5-4.4l-0.5-0.9L377.1,40.5L377.1,40.5z"/>
<path class="st8" d="M374.7,35.9l0.5,0.9l25.5-4.3l-0.5-0.9L374.7,35.9z"/>
<path class="st8" d="M373.3,33.2l1,1.8l25.5-4.3l-1-1.8L373.3,33.2L373.3,33.2z"/>
<path class="st8" d="M371.4,29.5l1,1.8l25.5-4.2l-1-1.8L371.4,29.5z"/>
<path class="st8" d="M368.5,24.1l1.4,2.7l25.4-4.2l-1.4-2.7L368.5,24.1z"/>
<path class="st8" d="M367.6,22.3l0.5,0.9l25.4-4.1l-0.5-0.9L367.6,22.3L367.6,22.3z"/>
<path class="st8" d="M366.2,19.7l0.9,1.8l25.4-4.1l-1-1.8L366.2,19.7z"/>
<path class="st8" d="M49.4,80.8l5.6-0.9c4.7-0.8,8.4,1.2,9.6,4.7c1.1,3.6-1,6.5-5.8,7.3l-5.6,1L49.4,80.8L49.4,80.8z M58,89.5
	c2.7-0.5,4-2.1,3.3-4.4s-2.8-3.4-5.6-2.9l-2.4,0.4l2.3,7.3L58,89.5z"/>
<path class="st8" d="M64.4,78.3l3.2-0.5l2.1,6.6c0.6,1.9,2.3,3,4.4,2.6c2.1-0.3,2.9-1.8,2.3-3.7l-2.1-6.6l3.1-0.5l2.1,6.6
	c1.1,3.4-0.8,6-4.7,6.7c-3.9,0.7-7.2-1.1-8.3-4.5L64.4,78.3L64.4,78.3z"/>
<path class="st8" d="M79.6,75.8l5.4-0.9c4.6-0.8,8.3,1.2,9.4,4.7c1.2,3.5-0.9,6.4-5.5,7.2l-5.5,0.9L79.6,75.8L79.6,75.8z M88.3,84.3
	c2.7-0.5,3.9-2,3.1-4.3s-2.8-3.3-5.5-2.9l-2.4,0.4l2.4,7.2L88.3,84.3L88.3,84.3z"/>
<path class="st8" d="M95.8,79.3c-1.2-3.6,1.1-6.7,5.4-7.4c4.3-0.7,8.3,1.4,9.5,4.9s-1,6.7-5.3,7.4C101,85,97,82.9,95.8,79.3z
	 M107.6,77.3c-0.8-2.2-3.2-3.5-5.7-3.1s-3.8,2.3-3.1,4.5c0.8,2.2,3.2,3.5,5.7,3.1C107.1,81.5,108.4,79.5,107.6,77.3L107.6,77.3z"/>
<path class="st8" d="M111.9,76.6c-1.2-3.5,1-6.6,5.2-7.3c4.2-0.7,8.2,1.4,9.5,4.9c1.2,3.5-0.9,6.6-5.2,7.4S113.1,80.1,111.9,76.6z
	 M123.6,74.6c-0.8-2.2-3.2-3.4-5.6-3c-2.5,0.4-3.8,2.3-3,4.5s3.2,3.5,5.7,3.1C123.1,78.7,124.4,76.8,123.6,74.6z"/>
<path class="st8" d="M126.4,68.1l2.5-0.4l9.2,5.8l-2.6-7l3-0.5l4.2,11.5l-2.5,0.4L131,72l2.6,7.1l-3,0.5L126.4,68.1L126.4,68.1z"/>
<path class="st8" d="M155.5,67l-3.2,0.5c-0.9-0.8-2.4-1.2-4-0.9c-2.4,0.4-3.6,2.2-2.9,4.4c0.8,2.1,3.2,3.4,5.6,3
	c2.1-0.3,3.1-1.7,3-2.9l-4,0.7l-0.8-2.2l7.2-1.2l0.3,0.7c1.3,3.5-0.8,6.5-4.8,7.2s-8.1-1.4-9.4-4.8c-1.3-3.5,0.8-6.5,4.9-7.2
	C150.8,63.7,153.9,65,155.5,67L155.5,67z"/>
<path class="st8" d="M65.1,105.7l1.2,3.9l-3.2,0.6l-1.2-3.9l-8-7.5l3.7-0.6l5.3,5.2l1.6-6.4l3.4-0.6L65.1,105.7L65.1,105.7z"/>
<path class="st8" d="M69.4,102.5c-1.2-3.7,1.3-7,5.7-7.7c4.4-0.8,8.6,1.4,9.8,5c1.2,3.7-1.2,7-5.6,7.8
	C74.8,108.3,70.6,106.2,69.4,102.5L69.4,102.5z M81.7,100.3c-0.8-2.3-3.2-3.6-5.8-3.1c-2.6,0.4-4,2.4-3.3,4.7
	c0.7,2.3,3.2,3.6,5.8,3.2S82.5,102.6,81.7,100.3L81.7,100.3z"/>
<path class="st8" d="M84.6,93.4l3.2-0.5l2.2,6.7c0.6,1.9,2.3,3,4.4,2.6s2.9-1.9,2.2-3.8l-2.2-6.7l3.1-0.5l2.2,6.7
	c1.2,3.4-0.7,6.1-4.6,6.8s-7.2-1.1-8.4-4.5L84.6,93.4L84.6,93.4z"/>
<path class="st8" d="M112.2,101.4l-4-3.3l-2.5,0.4l1.3,3.8l-3.1,0.6l-4-12l5.6-1c3.5-0.6,6.1,0.6,7,3.1c0.6,1.6,0.1,3.1-1.3,4
	l4.7,3.8L112.2,101.4L112.2,101.4z M104.9,96.1l2.4-0.4c1.6-0.3,2.4-1.1,2.1-2.2c-0.4-1.1-1.6-1.6-3.2-1.3l-2.4,0.4L104.9,96.1
	L104.9,96.1z"/>
<path class="st8" d="M61.7,123.2c-1.2-3.8,1.3-7.2,5.8-8c4-0.7,7.3,0.9,8.7,3.4l-3.3,0.6c-0.7-1.1-2.5-1.8-4.6-1.4
	c-2.7,0.5-4.1,2.5-3.4,4.9c0.7,2.3,3.2,3.7,5.9,3.2c2.1-0.4,3.4-1.9,3.3-3.1l3.3-0.6c0.3,2.6-1.8,5.5-5.9,6.3
	C67.1,129.2,62.9,127,61.7,123.2L61.7,123.2z"/>
<path class="st8" d="M78.2,120.2c-1.2-3.8,1.2-7.1,5.7-7.9s8.6,1.3,9.9,5.1c1.2,3.8-1.2,7.1-5.6,8C83.7,126.1,79.4,124,78.2,120.2z
	 M90.6,117.9c-0.8-2.3-3.2-3.7-5.9-3.2s-4,2.5-3.3,4.9c0.8,2.3,3.3,3.7,5.9,3.2C90,122.3,91.3,120.2,90.6,117.9z"/>
<path class="st8" d="M93.7,110.8l2.7-0.5l9.6,6.1l-2.5-7.5l3.1-0.6l4.1,12.3l-2.7,0.5l-9.6-6.1l2.5,7.6l-3.2,0.6L93.7,110.8
	L93.7,110.8z"/>
<path class="st8" d="M110.5,114.2c-1.3-3.7,1-7,5.3-7.8c3.8-0.7,7.1,0.8,8.6,3.3l-3.2,0.6c-0.7-1.1-2.5-1.8-4.5-1.4
	c-2.5,0.5-3.9,2.4-3.1,4.7c0.8,2.3,3.2,3.6,5.8,3.1c2-0.4,3.3-1.8,3.1-3l3.2-0.6c0.4,2.5-1.6,5.4-5.5,6.1
	C115.9,120.1,111.8,118,110.5,114.2z"/>
<path class="st8" d="M124.8,105.2l10.3-1.8l0.8,2.3l-7.2,1.3l0.9,2.5l6.6-1.2l0.8,2.3l-6.6,1.2l0.9,2.6l7.4-1.4l0.8,2.4l-10.5,2
	L124.8,105.2L124.8,105.2z"/>
<path class="st8" d="M149.8,113.5l-4-3.3l-2.4,0.5l1.4,3.8l-3.1,0.6l-4.3-12.1l5.5-1c3.5-0.6,6.1,0.6,7,3.1c0.6,1.6,0.2,3.1-1.2,4
	l4.7,3.8L149.8,113.5z M142.5,108.2l2.3-0.4c1.6-0.3,2.4-1.1,2-2.2s-1.6-1.6-3.2-1.3l-2.3,0.4L142.5,108.2z"/>
<path class="st8" d="M162,100.9l-4.4,0.8l3.6,9.6l-3,0.6l-3.6-9.6l-4.4,0.8l-0.9-2.4l11.8-2.1L162,100.9z"/>
<path class="st8" d="M170.4,96.9l3.6,9.5l6.7-1.2l0.9,2.3l-9.7,1.8l-4.5-11.9L170.4,96.9z"/>
<path class="st8" d="M181.5,94.9l4.6,11.8l-3,0.5l-4.5-11.8L181.5,94.9z"/>
<path class="st8" d="M183.8,94.5l9.6-1.7l0.9,2.3l-6.7,1.2l1,2.7l6-1.1l0.9,2.3l-6,1.1l1.8,4.5l-2.9,0.5L183.8,94.5z"/>
<path class="st8" d="M195,92.5l9.7-1.7l0.9,2.3l-6.8,1.2l1,2.4l6.2-1.1l0.9,2.3l-6.2,1.1l1,2.5l6.9-1.3l0.9,2.3l-9.9,1.8L195,92.5
	L195,92.5z"/>
<path class="st8" d="M103.8,195.8l-7.9,1.7l1.4,4.6l-2.1,0.5l-1.4-4.6l-8,1.7l-0.5-1.8l18-3.9L103.8,195.8z M85.1,196.1l-0.5-1.8
	c3.9-0.8,6.6-4.7,6.2-8.7l2.2-0.1c0.1,1.1,0.1,2.2-0.2,3.2l8.9,2.2l-0.5,1.8l-9-2.3C91.1,193.2,88.5,195.4,85.1,196.1z"/>
<path class="st8" d="M123.8,191.4l-7.8,1.7l1.5,4.5l-2.1,0.5l-1.5-4.6l-7.8,1.7l-0.6-1.8l17.7-3.8L123.8,191.4L123.8,191.4z
	 M105.4,191.7l-0.6-1.8c3.8-0.8,6.4-4.7,6-8.6l2.2-0.1c0.1,1.1,0.1,2.1-0.1,3.2l8.8,2.2l-0.4,1.8l-8.9-2.3
	C111.2,188.8,108.6,191,105.4,191.7L105.4,191.7z"/>
<path class="st8" d="M144.1,188.8l0.6,1.7l-17.5,3.8l-0.6-1.7l4.4-1l-1-3.1l-3.2,0.7l-1.9-5.7l13.1-2.8l-0.8-2.5L124,181l-0.5-1.6
	l15-3.2l1.9,5.6l-13.1,2.8l0.8,2.5l13.3-2.9l0.6,1.6l-3.4,0.8l1.1,3.1L144.1,188.8L144.1,188.8z M133,191.2l4.7-1l-1.1-3.1l-4.7,1
	L133,191.2L133,191.2z"/>
<path class="st8" d="M155.5,180.5c-3.2,0.7-5.9-0.5-6.6-2.7c-0.8-2.3,0.7-4.3,3.9-5c2.7-0.6,5.1,0.2,6.2,1.8l3.5-0.8l-1.1-3.1l2-0.4
	l2.9,8.1l-2,0.4l-1.2-3.3l-3.5,0.8C159.8,178.2,158.3,179.9,155.5,180.5L155.5,180.5z M157.2,181.1l1.8-0.4l2.4,6.7l-7.2,1.6
	l-2.3-6.7l1.8-0.4l0.6,1.8l3.6-0.8L157.2,181.1L157.2,181.1z M155,179c2-0.4,2.9-1.6,2.4-3.1s-2.1-2.1-4.1-1.7c-2,0.4-3,1.6-2.5,3.1
	C151.3,178.8,153,179.4,155,179z M159.1,186.3l-0.7-2l-3.6,0.8l0.7,2L159.1,186.3L159.1,186.3z M169.3,185.7l-4-1.9
	c-0.4,1.8-1.6,3-3.3,3.5l-0.6-1.6c1.7-0.6,2.6-2.8,1.7-5.9l1.9-0.3c0.3,1,0.4,1.9,0.4,2.7l4.6,2.1L169.3,185.7L169.3,185.7z"/>
<path class="st8" d="M169.2,177.4l16.7-3.6l0.6,1.6l-16.7,3.6L169.2,177.4L169.2,177.4z M171.5,180.1l2-0.4l1.1,3.1l12.7-2.8
	l0.6,1.6l-14.8,3.2L171.5,180.1z M167.6,169.4l2-0.4l1.6,4.4l12.5-2.7l0.6,1.6l-14.5,3.1L167.6,169.4L167.6,169.4z"/>
<path class="st8" d="M211.3,172.3l-7.2,1.6l1.7,4.4l-1.9,0.4l-1.7-4.4l-7.2,1.6l-0.6-1.7l16.4-3.6L211.3,172.3L211.3,172.3z
	 M209.1,169l-14.4,3.1l-2.8-7.5l14.1-3l0.6,1.6l-12.2,2.6l1.6,4.2l12.4-2.7L209.1,169L209.1,169z"/>
<path class="st8" d="M221.2,166.9l0.5,1.4c3.5-0.6,6.5-0.5,7.2,1.4c0.8,2.1-2.1,3.5-6,4.4s-7.5,0.9-8.3-1.2
	c-0.8-1.9,1.8-3.3,5.2-4.1l-0.5-1.4l-7.2,1.6l-0.5-1.4l16.1-3.5l0.6,1.4L221.2,166.9z M226.3,162.8l-14,3l-2-5.2l13.8-2.9l0.6,1.4
	l-11.9,2.5l0.9,2.4l12.1-2.6L226.3,162.8L226.3,162.8z M221.4,169.9c-2.6,0.6-5.1,1.5-4.7,2.5c0.4,1,3.1,0.9,5.8,0.3
	c2.6-0.6,5-1.5,4.5-2.5C226.6,169.1,224,169.3,221.4,169.9z"/>
<path class="st8" d="M244.8,166.5c1.5-0.3,3-1,3.8-1.6l0.7,1.6c-0.8,0.7-2.3,1.3-3.8,1.6l-6.5,1.4l-5.5-13.6l9.3-2l0.6,1.6l-7.5,1.6
	l1.7,4.3l7.2-1.6l0.7,1.6l-7.2,1.6l1.8,4.5L244.8,166.5L244.8,166.5z M247,152.5l6.2,14.9l-1.8,0.4l-6.2-14.9L247,152.5L247,152.5z"
	/>
<path class="st8" d="M254.3,161.2l-0.6-1.5c2.3-0.5,3.6-1.6,3.5-3.6l-4.6,1l-0.6-1.4l4.9-1.1c-0.1-0.2-0.2-0.5-0.3-0.7l-0.6-1.4
	l-4.9,1.1l-0.6-1.4l6.6-1.4l1.2,2.8c0.1,0.2,0.2,0.4,0.2,0.6l2.4-0.5l-1.6-3.7l1.7-0.4l3.4,8.1l-1.7,0.4l-1.2-2.9l-2.7,0.6
	C259.2,158.7,257.3,160.6,254.3,161.2L254.3,161.2z M271,163.5l-8.1-1.4c-1,2.2-3.3,3.7-6,4.3l-0.7-1.6c3.3-0.7,5.6-3.1,5.2-6h2
	c0.1,0.7,0.1,1.3,0,1.9l7.6,1.2V163.5L271,163.5z M269.4,159.2l-1.7,0.4l-4.4-10.5l1.7-0.4L269.4,159.2L269.4,159.2z"/>
<path class="st8" d="M272.7,160.4l6.3-1.4c2.1-0.5,3.9-1.1,4.7-1.8l0.7,1.6c-0.8,0.7-2.6,1.4-4.8,1.8l-6.2,1.4L272.7,160.4z
	 M270.1,153c-1.2-2.7,0-5,2.8-5.6s5.5,0.9,6.7,3.6c1.2,2.7,0,5.1-2.7,5.6C274.1,157.1,271.3,155.7,270.1,153z M277.8,151.3
	c-0.8-1.7-2.5-2.8-4.3-2.4c-1.8,0.4-2.4,2-1.7,3.7c0.7,1.8,2.5,2.8,4.3,2.4C278,154.6,278.6,153,277.8,151.3L277.8,151.3z
	 M280,145.5l1.8-0.4l6.4,14.6l-1.8,0.4L280,145.5L280,145.5z"/>
<path class="st8" d="M292.5,150l15-3.2l0.6,1.4l-15,3.2L292.5,150L292.5,150z M295.7,155.2c-0.9-2,1.8-3.3,5.4-4.1s6.9-0.8,7.8,1.2
	s-1.8,3.3-5.4,4.1S296.6,157.2,295.7,155.2L295.7,155.2z M290.7,143.4l12.8-2.7l0.6,1.3l-11.1,2.4l1,2.3l11.2-2.4l0.6,1.4l-13,2.8
	L290.7,143.4L290.7,143.4z M307.1,152.7c-0.4-1-2.9-0.8-5.4-0.3c-2.4,0.5-4.6,1.4-4.2,2.4s2.9,0.8,5.4,0.3
	C305.4,154.5,307.6,153.7,307.1,152.7L307.1,152.7z"/>
<path class="st8" d="M310.1,147.5l-0.7-1.5c2.3-0.8,3-2.9,2.2-5.2l-4,0.8l-0.6-1.4l9.4-2l0.6,1.4l-3.7,0.8c0.2,0.5,0.4,1.1,0.4,1.6
	l5.7,1.7l-0.3,1.4l-5.5-1.7C313.5,145.3,312.2,146.8,310.1,147.5L310.1,147.5z M325.2,148.3c1,2.2-1.4,3.6-4.9,4.4
	c-3.5,0.8-6.7,0.6-7.7-1.6c-1-2.2,1.5-3.6,5-4.4C321,145.9,324.2,146.1,325.2,148.3z M323.3,148.7c-0.5-1.1-2.7-1.2-5.2-0.6
	c-2.5,0.5-4.3,1.5-3.8,2.6s2.7,1.2,5.2,0.6C322.1,150.7,323.9,149.8,323.3,148.7z M323,139.3l0.7,1.6l-2,0.4l1.6,3.6l-1.7,0.4
	l-3.6-7.9l1.7-0.4l1.2,2.7L323,139.3L323,139.3z"/>
<path class="st8" d="M403.6,103.8c0.3,0.5,0.9,0.9,1.7,0.7c0.8-0.2,1-0.7,0.7-1.2c-0.2-0.4-0.7-0.7-1.1-0.7l-0.1-0.3
	c0.6,0,1.2,0.3,1.5,0.9c0.4,0.7,0.1,1.4-0.8,1.5s-1.7-0.2-2.1-0.9c-0.3-0.6-0.1-1.1,0.3-1.3l0.1,0.3
	C403.5,103,403.4,103.4,403.6,103.8L403.6,103.8z"/>
<path class="st8" d="M404.9,100.5c0.4,0.7,0.1,1.3-0.8,1.5s-1.7-0.2-2.1-0.9c-0.4-0.7-0.1-1.3,0.8-1.5
	C403.7,99.4,404.5,99.8,404.9,100.5L404.9,100.5z M404.6,100.6c-0.3-0.5-0.9-0.9-1.7-0.7c-0.8,0.1-1,0.7-0.7,1.2
	c0.3,0.6,0.9,0.9,1.7,0.7C404.6,101.7,404.9,101.2,404.6,100.6L404.6,100.6z"/>
<path class="st8" d="M402.7,96.6l0.1,0.3l-1.5,2.1l2.3-0.5l0.1,0.3l-2.9,0.6l-0.1-0.3l1.5-2.1l-2.4,0.5l-0.1-0.3L402.7,96.6
	L402.7,96.6z"/>
<path class="st8" d="M399.2,95.3c0.3,0.5,0.9,0.9,1.7,0.7c0.8-0.1,1-0.7,0.7-1.2c-0.2-0.4-0.7-0.7-1.1-0.7l-0.1-0.3
	c0.6,0,1.2,0.3,1.5,0.9c0.4,0.7,0.1,1.3-0.8,1.5s-1.7-0.2-2.1-0.9c-0.3-0.6-0.1-1.1,0.3-1.3l0.1,0.3C399.1,94.5,399,94.9,399.2,95.3
	L399.2,95.3z"/>
<path class="st8" d="M398.1,93.7l-0.9-1.6l0.3-0.1l0.7,1.4l1-0.2l-0.7-1.3l0.2-0.1l0.7,1.3l1-0.2l-0.7-1.4l0.3-0.1l0.9,1.7
	L398.1,93.7L398.1,93.7z"/>
<path class="st8" d="M397,91.5l-0.5-0.9c-0.3-0.6-0.1-1,0.4-1.1c0.4-0.1,0.8,0,1.1,0.4l0.9-0.9l0.2,0.3l-0.8,0.8c0,0,0,0.1,0.1,0.1
	l0.3,0.6l1.1-0.2l0.1,0.3L397,91.5L397,91.5z M397.9,90.3c-0.2-0.4-0.6-0.6-0.9-0.5c-0.4,0.1-0.5,0.3-0.3,0.8l0.3,0.6l1.2-0.2
	L397.9,90.3z"/>
<path class="st8" d="M395.8,89.3l-1.1-2l0.3-0.1l0.5,0.9l2.6-0.5l0.1,0.3l-2.6,0.5l0.5,0.9L395.8,89.3z"/>
<path class="st8" d="M393.8,84.9c0.2,0.4,0.5,0.6,0.9,0.5c0.3-0.1,0.3-0.4,0.2-0.6l-0.1-0.3c-0.1-0.4-0.1-0.8,0.4-0.9s1,0.2,1.3,0.8
	c0.3,0.6,0.2,1-0.3,1.1l-0.1-0.3c0.3-0.1,0.3-0.4,0.2-0.8c-0.2-0.4-0.6-0.7-0.9-0.6s-0.3,0.3-0.2,0.7l0.1,0.3c0.1,0.5,0,0.8-0.4,0.8
	c-0.5,0.1-1-0.3-1.3-0.8s-0.1-1,0.3-1l0.1,0.3C393.6,84.3,393.6,84.6,393.8,84.9L393.8,84.9z"/>
<path class="st8" d="M392.8,83.5l-0.8-1.6l0.3-0.1l0.7,1.3l1-0.2l-0.7-1.3l0.2-0.1l0.7,1.3l1-0.2l-0.7-1.4l0.3-0.1l0.9,1.6
	L392.8,83.5L392.8,83.5z"/>
<path class="st8" d="M391.6,81.3l-0.5-0.9c-0.3-0.6-0.1-1,0.4-1.1c0.4-0.1,0.8,0,1.1,0.4l0.9-0.9l0.2,0.3l-0.8,0.8
	c0,0,0,0.1,0.1,0.1l0.3,0.6l1.1-0.2l0.1,0.3L391.6,81.3z M392.6,80.1c-0.2-0.4-0.5-0.6-0.9-0.5s-0.5,0.3-0.3,0.8l0.3,0.6l1.2-0.2
	L392.6,80.1z"/>
<path class="st8" d="M392.5,77.6l-2.9-0.4l-0.1-0.3l3.4,0.5l0.1,0.3l-2.3,1.5l-0.1-0.3L392.5,77.6L392.5,77.6z"/>
<path class="st8" d="M391.9,75.8L392,76l-2.8,0.5l-0.1-0.3L391.9,75.8z"/>
<path class="st8" d="M388.4,74.5c0.3,0.5,0.9,0.8,1.7,0.7c0.8-0.1,1-0.6,0.7-1.2c-0.2-0.4-0.7-0.7-1.1-0.7l-0.1-0.3
	c0.6,0,1.2,0.3,1.5,0.9c0.4,0.7,0.1,1.3-0.8,1.5s-1.7-0.2-2.1-0.9c-0.3-0.6-0.1-1.1,0.4-1.3l0.1,0.3
	C388.3,73.7,388.2,74.1,388.4,74.5L388.4,74.5z"/>
<path class="st8" d="M387.3,73l-0.8-1.6l0.3-0.1l0.7,1.3l1-0.2l-0.6-1.2l0.2-0.1l0.6,1.2l1-0.2l-0.7-1.4l0.3-0.1l0.8,1.6L387.3,73
	L387.3,73z"/>
<path class="st8" d="M385.7,69.9l-0.5-0.9c-0.3-0.6-0.1-1,0.4-1c0.5-0.1,1,0.1,1.3,0.7l0.3,0.6l1.1-0.2l0.1,0.3L385.7,69.9
	L385.7,69.9z M386.7,68.7c-0.2-0.4-0.6-0.6-1-0.5s-0.5,0.3-0.3,0.8l0.3,0.6l1.3-0.2L386.7,68.7L386.7,68.7z"/>
<path class="st8" d="M384.5,67.6l-0.1-0.3l2.6-0.5l-0.7-1.3l0.3-0.1l0.8,1.5L384.5,67.6L384.5,67.6z"/>
<path class="st8" d="M386.3,65.1l-3.3-0.5l-0.1-0.3l2.3-1.5l0.1,0.3l-0.7,0.4l0.6,1.1l1,0.1L386.3,65.1L386.3,65.1z M384.4,63.7
	l-1.1,0.7l1.6,0.2L384.4,63.7z"/>
<path class="st8" d="M382.4,63.5l-1-2h0.3l0.4,0.8l2.6-0.5l0.1,0.3l-2.6,0.5l0.4,0.8L382.4,63.5z"/>
<path class="st8" d="M381.1,61l-0.8-1.6h0.3l0.7,1.3l1-0.2l-0.6-1.2h0.2l0.6,1.2l1.3-0.2l0.1,0.3L381.1,61L381.1,61z"/>
<path class="st8" d="M382.3,57.4c0.3,0.7,0,1.3-0.8,1.4c-0.9,0.2-1.7-0.2-2-0.9s0-1.3,0.8-1.4C381.1,56.3,381.9,56.7,382.3,57.4z
	 M382,57.4c-0.3-0.5-0.9-0.8-1.6-0.7s-1,0.6-0.7,1.1s0.9,0.8,1.6,0.7C382.1,58.4,382.3,57.9,382,57.4z"/>
<path class="st8" d="M378.6,56.2l-0.5-0.9c-0.3-0.6-0.1-0.9,0.4-1c0.4-0.1,0.8,0.1,1,0.4l0.9-0.8l0.2,0.3l-0.8,0.8
	c0,0,0,0.1,0.1,0.1l0.3,0.6l1.1-0.2l0.1,0.3L378.6,56.2L378.6,56.2z M379.6,55.1c-0.2-0.4-0.5-0.6-0.9-0.5c-0.3,0.1-0.5,0.3-0.3,0.7
	l0.3,0.6l1.2-0.2L379.6,55.1L379.6,55.1z"/>
<path class="st8" d="M377.2,53.6l1.9-1.4l-2.9-0.5l-0.2-0.3l2.8-0.5l0.1,0.3l-2.2,0.4l2.7,0.5l0.1,0.2l-1.8,1.3l2.2-0.4l0.1,0.2
	l-2.8,0.5L377.2,53.6L377.2,53.6z"/>
<path class="st8" d="M86.8,162.6l2.6,8.3c0.1,0.3-0.1,0.6-0.5,0.6c-0.3,0.1-0.6-0.1-0.8-0.4l-2.6-8.3l-3,0.6l2.6,8.4
	c0.6,1.8,2.7,3,4.7,2.6s3.1-2.2,2.6-4.1l-3.5-11C87.3,159.6,86.4,161.1,86.8,162.6L86.8,162.6z"/>
<path class="st8" d="M123.6,164.5l-2.7-8.1c-0.1-0.3-0.5-0.4-0.8-0.4c-0.3,0.1-0.5,0.3-0.4,0.6l3.6,10.9l-2.9,0.6l-3.6-10.9
	c-0.6-1.8,0.5-3.6,2.4-3.9c1.9-0.4,4,0.7,4.6,2.5l3.7,10.9C125.8,166.9,124.1,166,123.6,164.5L123.6,164.5z"/>
<path class="st8" d="M128.8,155.3c-0.3,0-0.6-0.2-0.7-0.4c-0.1-0.3,0.1-0.6,0.3-0.7l0.5-0.1c1.6-0.3,2.5-1.8,2-3.2l-3.5,0.7
	c-1.9,0.4-3,2.1-2.4,3.9c0.6,1.8,2.7,2.9,4.6,2.5l0.6-0.1l0.4,1l1.3,3.8l-4.1,0.8l0.9,2.7l1.4-0.3l2.7-0.6h0.1l2.8-0.6l-2.6-7.6
	l-0.9-2.7L128.8,155.3L128.8,155.3z"/>
<path class="st8" d="M81.4,164.3c-0.6-1.8-2.6-3-4.7-2.6l-0.6,0.1l-3,0.6l4.4,14.5l3.7-0.8c2-0.4,3.2-2.3,2.6-4.1L81.4,164.3
	L81.4,164.3z M81,173.3l-1.3,0.3l-2.7-8.9l1.2-0.3l1.4,4.6l0,0v0.1L81,173.3L81,173.3z"/>
<path class="st8" d="M98.5,160.8c-0.6-1.8-2.7-2.9-4.6-2.5l-0.6,0.1l-3,0.6l4.6,14.4l3.6-0.8c2-0.4,3.1-2.2,2.5-4.1L98.5,160.8z
	 M98.2,169.7L97,170l-2.8-8.8l1.2-0.3l1.5,4.6l0,0v0.1L98.2,169.7L98.2,169.7z"/>
<path class="st8" d="M108.8,164.7l-1.8-5.6c-0.6-1.8-2.7-2.9-4.6-2.5s-3.1,2.2-2.5,4l1.3,4.1l1.2,3.6c0.6,1.8,2.7,3,4.6,2.6
	c2-0.4,3.1-2.2,2.5-4L108.8,164.7L108.8,164.7z M106.5,167.4c0.1,0.3-0.1,0.6-0.4,0.6c-0.3,0.1-0.6-0.1-0.8-0.4l-1.2-3.6l-1.3-4
	c-0.1-0.3,0.1-0.6,0.4-0.6s0.6,0.1,0.8,0.4l1.8,5.5L106.5,167.4z"/>
<path class="st8" d="M117.2,163l-1.8-5.5c-0.6-1.8-2.7-2.9-4.6-2.5s-3,2.2-2.5,4l1.3,4.1l1.2,3.6c0.6,1.8,2.7,3,4.6,2.6s3-2.2,2.4-4
	L117.2,163L117.2,163z M115,165.6c0.1,0.3-0.1,0.6-0.4,0.6c-0.3,0.1-0.6-0.1-0.8-0.4l-1.2-3.5l-1.3-4c-0.1-0.3,0.1-0.5,0.4-0.6
	s0.6,0.1,0.8,0.4l1.8,5.5L115,165.6L115,165.6z"/>
<path class="st8" d="M385,135l8.1-1.8c0.3,0,0.6,0.2,0.8,0.4c0.1,0.3,0,0.5-0.2,0.6l-8.1,1.8l1.3,2.6l8.2-1.8
	c1.8-0.4,2.5-2.1,1.6-3.8s-3-2.8-4.8-2.4L381,133C381.7,134.4,383.5,135.3,385,135L385,135z"/>
<path class="st8" d="M378.9,103.8l-8,1.6c-0.3,0.1-0.4,0.3-0.2,0.6c0.1,0.3,0.5,0.4,0.8,0.4l10.6-2.2l1.3,2.5l-10.7,2.2
	c-1.8,0.4-3.9-0.7-4.7-2.4c-0.8-1.7-0.1-3.3,1.7-3.7l10.7-2.1C381,102.2,380.4,103.5,378.9,103.8L378.9,103.8z"/>
<path class="st8" d="M368.1,98.6c0.1,0.3,0,0.5-0.3,0.6s-0.6-0.1-0.8-0.3l-0.2-0.5c-0.7-1.4-2.4-2.3-3.9-2l1.5,3
	c0.8,1.7,2.9,2.7,4.7,2.4c1.8-0.4,2.5-2,1.7-3.6l-0.3-0.5l1-0.2l3.8-0.8l1.8,3.5l2.6-0.5l-0.6-1.2l-1.2-2.3v-0.1l0,0l-1.2-2.4
	l-7.4,1.5l-2.6,0.5L368.1,98.6L368.1,98.6z"/>
<path class="st8" d="M388,139.8c-1.8,0.4-2.5,2.1-1.7,3.9l0.3,0.5l1.3,2.6l14.1-3.2l-1.6-3.2c-0.9-1.7-3-2.8-4.8-2.4L388,139.8
	L388,139.8z M397.5,140.6l0.5,1.1l-8.7,1.9l-0.5-1.1l4.5-1l0,0h0.1L397.5,140.6L397.5,140.6z"/>
<path class="st8" d="M380.6,124.8c-1.8,0.4-2.5,2.1-1.7,3.8l0.2,0.5l1.3,2.6l14-3l-1.6-3.1c-0.9-1.7-3-2.8-4.8-2.4L380.6,124.8
	L380.6,124.8z M389.9,125.7l0.5,1.1l-8.6,1.8l-0.5-1.1l4.5-1l0,0h0.1L389.9,125.7L389.9,125.7z"/>
<path class="st8" d="M382.4,116.3l-5.5,1.1c-1.8,0.4-2.5,2.1-1.7,3.8c0.9,1.7,3,2.8,4.8,2.4l4-0.8l3.5-0.8c1.8-0.4,2.5-2,1.6-3.8
	c-0.9-1.7-3-2.8-4.7-2.4L382.4,116.3L382.4,116.3z M385.6,118.5c0.3,0,0.6,0.2,0.8,0.4c0.1,0.3,0,0.5-0.2,0.6l-3.5,0.7l-4,0.8
	c-0.3,0-0.6-0.2-0.8-0.4c-0.1-0.3,0-0.5,0.2-0.6l5.4-1.2L385.6,118.5L385.6,118.5z"/>
<path class="st8" d="M378.7,109.1l-5.5,1.1c-1.8,0.4-2.5,2-1.7,3.7s3,2.8,4.8,2.4l4-0.8l3.5-0.7c1.8-0.4,2.5-2,1.6-3.7
	c-0.8-1.7-3-2.7-4.7-2.4L378.7,109.1L378.7,109.1z M382,111.2c0.3,0,0.6,0.2,0.8,0.4c0.1,0.3,0,0.5-0.2,0.6l-3.5,0.7l-4,0.8
	c-0.3,0-0.6-0.2-0.8-0.4c-0.1-0.3,0-0.5,0.2-0.6l5.4-1.1L382,111.2L382,111.2z"/>
<path class="st6" d="M315.3,20.5l-0.3,0.1l-0.5-1.1l0.3-0.1L315.3,20.5z"/>
<path class="st8" d="M381.2,154.4l-0.3,0.1l-1.2-2.5l0.3-0.1L381.2,154.4z M378.7,149.4l-0.3,0.1l-1.2-2.5l0.3-0.1L378.7,149.4z
	 M376.3,144.5l-0.3,0.1l-1.2-2.5l0.3-0.1L376.3,144.5z M373.8,139.5l-0.3,0.1l-1.2-2.5l0.3-0.1L373.8,139.5L373.8,139.5z
	 M371.4,134.6l-0.3,0.1l-1.2-2.5l0.3-0.1L371.4,134.6z M369,129.7l-0.3,0.1l-1.2-2.4l0.3-0.1L369,129.7z M366.6,124.9l-0.3,0.1
	l-1.2-2.4l0.3-0.1L366.6,124.9z M364.2,120l-0.3,0.1l-1.2-2.4l0.3-0.1L364.2,120z M361.9,115.2l-0.3,0.1l-1.2-2.4l0.3-0.1
	L361.9,115.2z M359.5,110.5l-0.3,0.1l-1.2-2.4l0.3-0.1L359.5,110.5z M357.2,105.7l-0.3,0.1l-1.2-2.4l0.3-0.1L357.2,105.7z
	 M354.9,101l-0.3,0.1l-1.2-2.3l0.3-0.1L354.9,101L354.9,101z M352.6,96.3l-0.3,0.1l-1.2-2.3l0.3-0.1L352.6,96.3z M350.3,91.6
	l-0.3,0.1l-1.1-2.3l0.3-0.1L350.3,91.6z M348,87l-0.3,0.1l-1.1-2.3l0.3-0.1L348,87z M345.7,82.4l-0.3,0.1l-1.1-2.3l0.3-0.1
	L345.7,82.4L345.7,82.4z M343.5,77.8l-0.3,0.1l-1.1-2.3l0.3-0.1L343.5,77.8z M341.2,73.3l-0.3,0.1l-1.1-2.3l0.3-0.1L341.2,73.3z
	 M339,68.7l-0.3,0.1l-1.1-2.3l0.3-0.1L339,68.7z M336.8,64.2l-0.3,0.1l-1.1-2.3l0.3-0.1L336.8,64.2z M334.6,59.7l-0.3,0.1l-1.1-2.2
	l0.3-0.1L334.6,59.7z M332.4,55.3l-0.3,0.1l-1.1-2.2l0.3-0.1L332.4,55.3z M330.2,50.8l-0.3,0.1l-1.1-2.2l0.3-0.1L330.2,50.8z
	 M328.1,46.4l-0.3,0.1l-1.1-2.2l0.3-0.1L328.1,46.4z M325.9,42.1l-0.3,0.1l-1.1-2.2l0.3-0.1L325.9,42.1z M323.8,37.7l-0.3,0.1
	l-1.1-2.2l0.3-0.1L323.8,37.7z M321.6,33.4l-0.3,0.1l-1.1-2.2l0.3-0.1L321.6,33.4z M319.5,29.1l-0.3,0.1l-1.1-2.1l0.3-0.1
	L319.5,29.1z M317.4,24.8l-0.3,0.1l-1-2.1l0.3-0.1L317.4,24.8z"/>
<path class="st6" d="M383,158.2l-0.3,0.1l-0.6-1.2l0.3-0.1L383,158.2z"/>
<path class="st8" d="M218.8,110.6L67.4,139.5l-0.1-0.5l151.3-28.9L218.8,110.6z"/>
<path class="st3" d="M446.9,194l8.3-0.7c0.3,0,0.6,0.2,0.7,0.5s0,0.5-0.3,0.6l-8.3,0.7l1,2.7l8.4-0.8c1.8-0.2,2.8-1.8,2.1-3.6
	c-0.7-1.8-2.6-3.2-4.5-3l-11,1C443.7,193,445.3,194.1,446.9,194L446.9,194z"/>
<path class="st3" d="M444.8,162.3l-8.1,0.6c-0.3,0.1-0.4,0.3-0.3,0.6s0.4,0.5,0.7,0.5l10.8-0.8l0.9,2.6l-10.9,0.8
	c-1.8,0.1-3.8-1.2-4.4-3s0.3-3.3,2.2-3.4l10.9-0.8C447.1,160.9,446.3,162.2,444.8,162.3L444.8,162.3z"/>
<path class="st3" d="M449.3,199.1c-1.8,0.2-2.8,1.8-2.1,3.6l0.2,0.6l1,2.8l14.4-1.4l-1.2-3.3c-0.7-1.8-2.7-3.2-4.5-3L449.3,199.1
	L449.3,199.1z M458.5,201.1l0.4,1.2l-8.9,0.8l-0.4-1.2l4.6-0.4l0,0h0.1L458.5,201.1L458.5,201.1z"/>
<path class="st3" d="M443.8,183.4c-1.8,0.2-2.8,1.7-2.2,3.6l0.2,0.6l0.9,2.7L457,189l-1.2-3.3c-0.6-1.8-2.6-3.1-4.4-3L443.8,183.4
	L443.8,183.4z M453,185.4l0.4,1.1l-8.8,0.7l-0.4-1.1l4.6-0.4l0,0h0.1L453,185.4L453,185.4z"/>
<path class="st3" d="M446.6,175.2l-5.6,0.4c-1.8,0.1-2.8,1.7-2.1,3.5c0.6,1.8,2.6,3.1,4.4,3l4.1-0.3l3.6-0.3
	c1.8-0.1,2.7-1.7,2.1-3.5s-2.6-3.1-4.4-3L446.6,175.2L446.6,175.2z M449.6,177.7c0.3,0,0.6,0.2,0.7,0.5s0,0.5-0.3,0.6l-3.5,0.3
	l-4,0.3c-0.3,0-0.6-0.2-0.7-0.5s0-0.5,0.3-0.6l5.5-0.5L449.6,177.7L449.6,177.7z"/>
<path class="st3" d="M443.9,167.5l-5.6,0.4c-1.8,0.1-2.8,1.7-2.2,3.5c0.6,1.8,2.6,3.1,4.4,3l4.1-0.3l3.6-0.3
	c1.8-0.1,2.7-1.7,2.1-3.5s-2.6-3.1-4.4-3L443.9,167.5L443.9,167.5z M446.9,170c0.3,0,0.6,0.2,0.7,0.5s0,0.5-0.3,0.6l-3.5,0.3l-4,0.3
	c-0.3,0-0.6-0.2-0.7-0.5s0-0.5,0.3-0.6l5.5-0.4L446.9,170L446.9,170z"/>
</svg>
