<svg width="100%" height="100%" viewBox="0 0 497 472" fill="none" xmlns="http://www.w3.org/2000/svg">
<g filter="url(#filter0_di_1946_38141)">
<mask id="path-1-outside-1_1946_38141" maskUnits="userSpaceOnUse" x="7" y="6" width="223" height="452" fill="black">
<rect fill="white" x="7" y="6" width="223" height="452"/>
<path fill-rule="evenodd" clip-rule="evenodd" d="M9 426C9 443.121 22.8792 457 40 457H197C214.121 457 228 443.121 228 426V178.545C228.598 178.199 229 177.553 229 176.812V128.009C229 127.269 228.598 126.622 228 126.277V38C228 20.8792 214.121 7 197 7H40C22.8792 7 9 20.8792 9 38V85.6866C8.44772 85.6866 8 86.1344 8 86.6866V100.048C8 100.6 8.44772 101.048 9 101.048L9 115.448C8.44772 115.448 8 115.896 8 116.448V146.13C8 146.683 8.44772 147.13 9 147.13L9 156.731C8.44772 156.731 8 157.179 8 157.731V187.413C8 187.965 8.44772 188.413 9 188.413L9 426Z"/>
</mask>
<path fill-rule="evenodd" clip-rule="evenodd" d="M9 426C9 443.121 22.8792 457 40 457H197C214.121 457 228 443.121 228 426V178.545C228.598 178.199 229 177.553 229 176.812V128.009C229 127.269 228.598 126.622 228 126.277V38C228 20.8792 214.121 7 197 7H40C22.8792 7 9 20.8792 9 38V85.6866C8.44772 85.6866 8 86.1344 8 86.6866V100.048C8 100.6 8.44772 101.048 9 101.048L9 115.448C8.44772 115.448 8 115.896 8 116.448V146.13C8 146.683 8.44772 147.13 9 147.13L9 156.731C8.44772 156.731 8 157.179 8 157.731V187.413C8 187.965 8.44772 188.413 9 188.413L9 426Z" fill="#E3E4E8"/>
<path d="M9 426H10H9ZM228 178.545L227.499 177.679L227 177.968V178.545H228ZM228 126.277H227V126.853L227.499 127.142L228 126.277ZM9 85.6866V86.6866H10V85.6866H9ZM9 101.048H10L10 100.048H9V101.048ZM9 115.448V116.448H10V115.448H9ZM9 147.13H10L10 146.13H9V147.13ZM9 156.731V157.731H10V156.731H9ZM9 188.413H10L10 187.413H9V188.413ZM40 456C23.4315 456 10 442.569 10 426H8C8 443.673 22.3269 458 40 458V456ZM197 456H40V458H197V456ZM227 426C227 442.569 213.569 456 197 456V458C214.673 458 229 443.673 229 426H227ZM227 178.545V426H229V178.545H227ZM228 176.812C228 177.181 227.801 177.505 227.499 177.679L228.501 179.41C229.395 178.893 230 177.924 230 176.812H228ZM228 128.009V176.812H230V128.009H228ZM227.499 127.142C227.801 127.317 228 127.64 228 128.009H230C230 126.897 229.395 125.928 228.501 125.411L227.499 127.142ZM227 38V126.277H229V38H227ZM197 8C213.569 8 227 21.4315 227 38H229C229 20.3269 214.673 6 197 6V8ZM40 8H197V6H40V8ZM10 38C10 21.4315 23.4315 8 40 8V6C22.3269 6 8 20.3269 8 38H10ZM10 85.6866V38H8V85.6866H10ZM9 86.6866V84.6866C7.89543 84.6866 7 85.5821 7 86.6866H9ZM9 100.048V86.6866H7V100.048H9ZM9 100.048H9H7C7 101.152 7.89543 102.048 9 102.048V100.048ZM10 115.448V101.048H8L8 115.448H10ZM9 116.448V114.448C7.89543 114.448 7 115.344 7 116.448H9ZM9 146.13V116.448H7V146.13H9ZM9 146.13H9H7C7 147.235 7.89544 148.13 9 148.13V146.13ZM10 156.731V147.13H8L8 156.731H10ZM9 157.731V155.731C7.89544 155.731 7 156.626 7 157.731H9ZM9 187.413V157.731H7V187.413H9ZM9 187.413H9H7C7 188.517 7.89544 189.413 9 189.413V187.413ZM10 426V188.413H8L8 426H10Z" fill="#121212" mask="url(#path-1-outside-1_1946_38141)"/>
</g>
<path fill-rule="evenodd" clip-rule="evenodd" d="M45 17C31.1929 17 20 28.1929 20 42V422C20 435.807 31.1929 447 45 447H192C205.807 447 217 435.807 217 422V42C217 28.1929 205.807 17 192 17H172V22C172 28.0751 167.075 33 161 33H77C70.9249 33 66 28.0751 66 22V17H45Z" fill="white"/>
<rect x="36" y="144" width="145" height="204" rx="12" fill="#121212"/>
<rect x="31.5" y="138.5" width="144" height="203" rx="11.5" fill="#E3E4E8" stroke="black"/>
<rect x="194" y="144" width="145" height="204" rx="12" fill="#121212"/>
<rect x="352" y="144" width="145" height="204" rx="12" fill="#121212"/>
<rect x="189.5" y="138.5" width="144" height="203" rx="11.5" fill="#25F3CF" stroke="black"/>
<rect x="347.5" y="138.5" width="144" height="203" rx="11.5" fill="white" stroke="black"/>
<g clip-path="url(#clip0_1946_38141)">
<path d="M232.019 290.518V307.238H232.004C231.936 307.804 231.474 308.246 230.91 308.246C230.345 308.246 229.884 307.807 229.815 307.238H229.801V290.418H224.494V307.329C224.494 311.013 227.367 314 230.91 314C234.452 314 237.325 311.013 237.325 307.329V285C234.396 285 232.019 287.472 232.019 290.518Z" fill="#121212"/>
<path d="M293.207 308.482V291.762H293.192C293.124 291.196 292.662 290.754 292.098 290.754C291.533 290.754 291.072 291.193 291.003 291.762H290.989V314H285.682V291.671C285.682 287.987 288.555 285 292.098 285C295.64 285 298.513 287.987 298.513 291.671V314C295.582 314 293.207 311.528 293.207 308.482Z" fill="#121212"/>
<path d="M307.482 292.872C306.937 292.801 306.512 292.321 306.512 291.734C306.512 291.147 306.935 290.667 307.482 290.596V290.581H308.503C311.435 290.581 313.81 288.109 313.81 285.063H307.394C303.852 285.063 300.979 288.051 300.979 291.734C300.979 295.418 303.852 298.405 307.394 298.405H308.503V300.567L308.496 308.467H300.981V313.985H303.497L308.491 314H308.601H308.633H313.812V298.405V292.888H307.485V292.872H307.482Z" fill="#121212"/>
<path d="M222.002 291.706C222.002 288.023 219.129 285.036 215.587 285.036L214.512 285H209.19V314H215.621C219.163 314 222.036 311.013 222.036 307.329L222.002 291.706ZM216.73 308.475H214.512V290.601H216.73V299.927C216.73 299.942 216.732 299.96 216.735 299.975C216.735 300.033 216.732 300.092 216.73 300.15V308.475Z" fill="#121212"/>
<path d="M252.595 291.706C252.595 288.023 249.722 285.036 246.179 285.036L245.104 285H239.783V314H246.213C249.756 314 252.629 311.013 252.629 307.329L252.595 291.706ZM247.323 308.475H245.104V290.601H247.323V299.927C247.323 299.942 247.325 299.96 247.328 299.975C247.328 300.033 247.325 300.092 247.323 300.15V308.475Z" fill="#121212"/>
<path d="M267.921 303.092V291.734C267.921 288.051 265.048 285.063 261.505 285.063C257.962 285.063 255.089 288.051 255.089 291.734V300.031V307.329C255.089 311.013 257.962 314 261.505 314C265.048 314 267.921 311.013 267.921 307.329V303.092ZM262.614 307.238H262.599C262.531 307.804 262.069 308.246 261.505 308.246C260.941 308.246 260.479 307.807 260.41 307.238H260.396V300.031V291.826H260.41C260.479 291.259 260.941 290.817 261.505 290.817C262.069 290.817 262.531 291.257 262.599 291.826H262.614V303.089V307.235V307.238Z" fill="#121212"/>
<path d="M283.217 303.092V291.734C283.217 288.051 280.344 285.063 276.801 285.063C273.259 285.063 270.386 288.051 270.386 291.734V300.031V307.329C270.386 311.013 273.259 314 276.801 314C280.344 314 283.217 311.013 283.217 307.329V303.092ZM277.911 307.238H277.896C277.827 307.804 277.366 308.246 276.801 308.246C276.237 308.246 275.775 307.807 275.707 307.238H275.692V300.031V291.826H275.707C275.775 291.259 276.237 290.817 276.801 290.817C277.366 290.817 277.827 291.257 277.896 291.826H277.911V303.089V307.235V307.238Z" fill="#121212"/>
</g>
<line x1="209" y1="180.65" x2="314" y2="180.65" stroke="#121212" stroke-width="0.7"/>
<path d="M221.082 166.344H212.01V163.068H220.942V161.794H210.596V167.618H221.082V166.344ZM221.712 169.018H209.77V170.334H215.02V173.736H216.434V170.334H221.712V169.018ZM234.465 164.65H225.477V162.76H234.325V161.64H224.091V165.77H234.465V164.65ZM235.179 168.024V166.904H223.237V168.024H228.515V169.13C225.967 169.214 223.909 169.788 223.909 171.3C223.909 172.938 226.345 173.498 229.201 173.498C232.057 173.498 234.437 172.938 234.437 171.3C234.437 169.802 232.435 169.214 229.887 169.13V168.024H235.179ZM232.981 171.3C232.981 172.126 231.147 172.406 229.201 172.406C227.255 172.406 225.365 172.126 225.365 171.3C225.365 170.488 227.255 170.208 229.201 170.208C231.147 170.208 232.981 170.488 232.981 171.3ZM250.315 167.1H251.701V161.612H241.453V162.774H250.315V164.496H241.453V165.63H250.315V167.1ZM246.549 167.884V166.274H245.149V167.884H240.627V169.06H252.569V167.884H246.549ZM242.867 170.054H241.453V173.316H251.953V172.14H242.867V170.054ZM263.964 161.5V165.826H260.884V167.128H263.964V173.456H265.35V161.5H263.964ZM259.092 161.85L257.678 161.794C257.664 166.82 256.488 170.95 254.192 171.328V172.742C256.082 172.588 257.524 170.894 258.336 168.066L261.318 172.77L262.48 172.014L258.742 166.302C258.966 164.972 259.092 163.488 259.092 161.85ZM278.901 168.332H269.745V166.358H278.565V165.14H269.745V163.18H278.719V161.934H268.359V169.578H278.901V168.332ZM267.561 171.608V172.882H279.503V171.608H267.561Z" fill="#121212"/>
<path d="M209.73 201H214.779V200.141H211.073V200.076L212.856 198.239C214.231 196.821 214.634 196.145 214.64 195.274C214.634 194.066 213.635 193.115 212.223 193.115C210.815 193.115 209.752 194.039 209.763 195.414H210.676C210.681 194.544 211.261 193.958 212.19 193.953C213.066 193.958 213.732 194.474 213.737 195.274C213.732 195.994 213.292 196.521 212.373 197.498L209.72 200.291L209.73 201ZM218.732 201.107C220.457 201.107 221.45 199.657 221.45 197.111C221.45 194.587 220.44 193.115 218.732 193.115C217.019 193.115 216.009 194.587 216.015 197.111C216.009 199.657 217.008 201.107 218.732 201.107ZM216.949 197.111C216.955 195.097 217.615 193.958 218.732 193.953C219.85 193.958 220.51 195.097 220.505 197.111C220.51 199.125 219.855 200.248 218.732 200.248C217.604 200.248 216.955 199.125 216.949 197.111ZM222.739 201H227.788V200.141H224.082V200.076L225.865 198.239C227.24 196.821 227.643 196.145 227.648 195.274C227.643 194.066 226.644 193.115 225.231 193.115C223.824 193.115 222.761 194.039 222.771 195.414H223.685C223.69 194.544 224.27 193.958 225.199 193.953C226.075 193.958 226.741 194.474 226.746 195.274C226.741 195.994 226.3 196.521 225.382 197.498L222.729 200.291L222.739 201ZM231.881 201.107C233.433 201.107 234.593 200.162 234.588 198.884C234.593 197.896 233.981 197.17 232.966 197.015V196.961C233.782 196.73 234.298 196.085 234.287 195.199C234.298 194.087 233.396 193.115 231.913 193.115C230.533 193.115 229.383 193.942 229.335 195.178H230.27C230.312 194.415 231.07 193.958 231.902 193.953C232.789 193.958 233.358 194.474 233.353 195.253C233.358 196.053 232.697 196.585 231.752 196.585H231.118V197.434H231.752C232.96 197.439 233.637 198.035 233.643 198.884C233.637 199.695 232.896 200.248 231.87 200.248C230.941 200.248 230.205 199.786 230.151 199.045H229.174C229.222 200.28 230.334 201.107 231.881 201.107ZM243.558 192.331H242.709V193.588H239.959V194.265H242.709V195.414H239.959V196.091H242.709V199.399H243.558V192.331ZM236.21 197.981H236.93C238.332 197.971 239.631 197.906 241.184 197.616L241.098 196.918C239.642 197.181 238.375 197.256 237.059 197.262V193.019H236.21V197.981ZM237.402 201.666H243.815V200.957H238.251V198.798H237.402V201.666ZM217.003 221.897H211.449V219.588H216.874V218.89H210.59V222.574H217.003V221.897ZM209.376 224.529H213.308V227.838H214.135V224.529H218.12V223.842H209.376V224.529ZM227.605 222.789H218.894V223.487H222.825V224.433C221.015 224.519 219.941 225.125 219.946 226.13C219.941 227.242 221.182 227.849 223.244 227.849C225.291 227.849 226.521 227.242 226.531 226.13C226.521 225.125 225.457 224.519 223.663 224.433V223.487H227.605V222.789ZM220 221.908H226.585V221.231H220.827V219.448H226.521V218.771H220V221.908ZM220.806 226.13C220.795 225.464 221.713 225.088 223.244 225.088C224.759 225.088 225.677 225.464 225.683 226.13C225.677 226.801 224.759 227.199 223.244 227.193C221.713 227.199 220.795 226.801 220.806 226.13ZM234.523 220.888V219.147H233.664V220.888C233.659 222.649 232.552 224.486 231.15 225.174L231.698 225.851C232.783 225.276 233.68 224.051 234.104 222.623C234.529 223.981 235.426 225.12 236.511 225.679L237.016 224.991C235.63 224.357 234.518 222.617 234.523 220.888ZM235.974 222.273H238.24V227.892H239.078V218.32H238.24V221.586H235.974V222.273ZM248.542 218.32H247.693V227.892H248.542V218.32ZM241.227 225.582H245.738V219.137H244.911V221.661H242.064V219.137H241.227V225.582ZM242.064 224.873V222.338H244.911V224.873H242.064ZM254.934 219.728V218.997H254.053V219.728C254.047 221.371 252.194 222.816 250.54 223.133L250.927 223.842C252.372 223.503 253.881 222.483 254.504 221.081C255.122 222.483 256.636 223.509 258.081 223.842L258.468 223.133C256.808 222.821 254.939 221.366 254.934 219.728ZM250.175 226.57H258.919V225.872H250.175V226.57ZM217.1 235.918H211.342V232.91H217.003V232.212H210.504V236.616H217.1V235.918ZM209.387 239.57H218.131V238.861H209.387V239.57ZM226.768 231.32H225.919V240.892H226.768V231.32ZM219.517 238.518H220.29C222.224 238.512 223.48 238.448 224.963 238.185L224.877 237.476C223.443 237.733 222.224 237.787 220.365 237.787V232.942H224.061V232.233H219.517V238.518ZM230.968 232.062C229.555 232.067 228.567 233.361 228.572 235.392C228.567 237.427 229.555 238.716 230.968 238.711C232.3 238.716 233.256 237.545 233.347 235.671H235.479V240.892H236.317V231.32H235.479V234.973H233.336C233.208 233.184 232.268 232.067 230.968 232.062ZM229.378 235.392C229.383 233.839 230.028 232.819 230.968 232.813C231.902 232.819 232.558 233.839 232.558 235.392C232.558 236.944 231.902 237.964 230.968 237.959C230.028 237.964 229.383 236.944 229.378 235.392ZM245.019 231.943C242.994 231.954 241.527 232.942 241.527 234.446C241.527 235.864 242.795 236.804 244.6 236.933V238.937H240.668V239.646H249.412V238.937H245.427V236.933C247.242 236.81 248.51 235.87 248.51 234.446C248.51 232.942 247.049 231.954 245.019 231.943ZM242.344 234.446C242.338 233.367 243.472 232.636 245.019 232.642C246.565 232.636 247.693 233.367 247.693 234.446C247.693 235.547 246.565 236.262 245.019 236.272C243.472 236.262 242.338 235.547 242.344 234.446ZM258.049 231.814H250.991V232.502H252.463V234.704H251.023V235.381H258.017V234.704H256.577V232.502H258.049V231.814ZM250.175 237.121H258.876V236.423H250.175V237.121ZM251.303 240.666H257.909V239.957H252.151V237.991H251.303V240.666ZM253.301 234.704V232.502H255.739V234.704H253.301ZM261.229 232.223H260.176L260.251 237.809H261.153L261.229 232.223ZM260.015 239.366C260.004 239.748 260.326 240.059 260.702 240.064C261.083 240.059 261.395 239.748 261.39 239.366C261.395 238.99 261.083 238.679 260.702 238.679C260.326 238.679 260.004 238.99 260.015 239.366ZM218.12 249.874H209.376V250.572H213.308V253.87H214.135V250.572H218.12V249.874ZM210.504 248.574H216.981V244.857H210.504V248.574ZM211.331 247.908V245.545H216.144V247.908H211.331ZM227.638 251.979H225.264V250.164H226.757V249.466H220.827V247.919H226.531V245.029H219.968V245.728H225.704V247.221H219.989V250.164H221.354V251.979H218.894V252.688H227.638V251.979ZM222.181 251.979V250.164H224.437V251.979H222.181ZM237.145 251.979H233.159V250.175H236.264V249.477H230.334V247.919H236.038V245.029H229.475V245.728H235.211V247.231H229.496V250.175H232.332V251.979H228.4V252.688H237.145V251.979ZM249.369 248.392H240.668V249.09H249.369V248.392ZM241.141 247.253L241.42 247.919C242.983 247.758 244.449 247.151 245.019 246.189C245.593 247.151 247.065 247.758 248.628 247.919L248.907 247.253C247.21 247.119 245.593 246.372 245.507 245.384H248.596V244.696H241.463V245.384H244.541C244.433 246.372 242.827 247.119 241.141 247.253ZM241.721 250.615H247.425V251.496H241.742V253.763H248.542V253.097H242.58V252.13H248.252V249.971H241.721V250.615ZM255.02 245.362H250.604V246.05H254.171C253.994 248.306 252.726 250.148 250.186 251.378L250.626 252.065C252.882 250.97 254.144 249.412 254.692 247.64H257.243V249.498H254.547V250.196H257.243V253.87H258.081V244.31H257.243V246.952H254.864C254.971 246.437 255.02 245.905 255.02 245.362ZM268.426 251.947H264.44V249.885H267.352V244.997H266.524V246.727H261.562V244.997H260.713V249.885H263.613V251.947H259.682V252.646H268.426V251.947ZM261.562 249.197V247.414H266.524V249.197H261.562ZM272.024 247.038V245.223H271.208V247.07C271.208 248.708 270.402 250.4 269.081 251.174L269.618 251.808C270.574 251.228 271.283 250.132 271.632 248.859C271.965 250.024 272.626 251.045 273.55 251.604L274.033 250.948C272.766 250.196 272.024 248.558 272.024 247.038ZM272.98 248.467H274.603V253.387H275.397V244.524H274.603V247.747H272.98V248.467ZM276.558 253.87H277.374V244.32H276.558V253.87ZM287.439 251.937H285.27V249.337C286.059 248.913 286.537 248.236 286.537 247.382C286.537 245.905 285.087 244.933 283.046 244.922C281.005 244.933 279.555 245.905 279.555 247.382C279.555 248.252 280.049 248.939 280.865 249.364V251.937H278.695V252.646H287.439V251.937ZM280.371 247.382C280.366 246.313 281.478 245.609 283.046 245.62C284.598 245.609 285.721 246.313 285.721 247.382C285.721 248.451 284.598 249.165 283.046 249.165C281.478 249.165 280.366 248.451 280.371 247.382ZM281.692 251.937V249.67C282.101 249.777 282.557 249.831 283.046 249.831C283.545 249.831 284.007 249.772 284.421 249.665V251.937H281.692ZM289.749 245.223H288.696L288.771 250.809H289.674L289.749 245.223ZM288.535 252.366C288.524 252.748 288.847 253.059 289.223 253.064C289.604 253.059 289.916 252.748 289.91 252.366C289.916 251.99 289.604 251.679 289.223 251.679C288.847 251.679 288.524 251.99 288.535 252.366Z" fill="#121212"/>
<g clip-path="url(#clip1_1946_38141)">
<path d="M390.019 290.518V307.238H390.004C389.936 307.804 389.474 308.246 388.91 308.246C388.345 308.246 387.884 307.807 387.815 307.238H387.801V290.418H382.494V307.329C382.494 311.013 385.367 314 388.91 314C392.452 314 395.325 311.013 395.325 307.329V285C392.396 285 390.019 287.472 390.019 290.518Z" fill="#C7C7CB"/>
<path d="M451.207 308.482V291.762H451.192C451.124 291.196 450.662 290.754 450.098 290.754C449.533 290.754 449.072 291.193 449.003 291.762H448.989V314H443.682V291.671C443.682 287.987 446.555 285 450.098 285C453.64 285 456.513 287.987 456.513 291.671V314C453.582 314 451.207 311.528 451.207 308.482Z" fill="#C7C7CB"/>
<path d="M465.482 292.872C464.937 292.801 464.512 292.321 464.512 291.734C464.512 291.147 464.935 290.667 465.482 290.596V290.581H466.503C469.435 290.581 471.81 288.109 471.81 285.063H465.394C461.852 285.063 458.979 288.051 458.979 291.734C458.979 295.418 461.852 298.405 465.394 298.405H466.503V300.567L466.496 308.467H458.981V313.985H461.497L466.491 314H466.601H466.633H471.812V298.405V292.888H465.485V292.872H465.482Z" fill="#C7C7CB"/>
<path d="M380.002 291.706C380.002 288.023 377.129 285.036 373.587 285.036L372.512 285H367.19V314H373.621C377.163 314 380.036 311.013 380.036 307.329L380.002 291.706ZM374.73 308.475H372.512V290.601H374.73V299.927C374.73 299.942 374.732 299.96 374.735 299.975C374.735 300.033 374.732 300.092 374.73 300.15V308.475Z" fill="#C7C7CB"/>
<path d="M410.595 291.706C410.595 288.023 407.722 285.036 404.179 285.036L403.104 285H397.783V314H404.213C407.756 314 410.629 311.013 410.629 307.329L410.595 291.706ZM405.323 308.475H403.104V290.601H405.323V299.927C405.323 299.942 405.325 299.96 405.328 299.975C405.328 300.033 405.325 300.092 405.323 300.15V308.475Z" fill="#C7C7CB"/>
<path d="M425.921 303.092V291.734C425.921 288.051 423.048 285.063 419.505 285.063C415.962 285.063 413.089 288.051 413.089 291.734V300.031V307.329C413.089 311.013 415.962 314 419.505 314C423.048 314 425.921 311.013 425.921 307.329V303.092ZM420.614 307.238H420.599C420.531 307.804 420.069 308.246 419.505 308.246C418.941 308.246 418.479 307.807 418.41 307.238H418.396V300.031V291.826H418.41C418.479 291.259 418.941 290.817 419.505 290.817C420.069 290.817 420.531 291.257 420.599 291.826H420.614V303.089V307.235V307.238Z" fill="#C7C7CB"/>
<path d="M441.217 303.092V291.734C441.217 288.051 438.344 285.063 434.801 285.063C431.259 285.063 428.386 288.051 428.386 291.734V300.031V307.329C428.386 311.013 431.259 314 434.801 314C438.344 314 441.217 311.013 441.217 307.329V303.092ZM435.911 307.238H435.896C435.827 307.804 435.366 308.246 434.801 308.246C434.237 308.246 433.775 307.807 433.707 307.238H433.692V300.031V291.826H433.707C433.775 291.259 434.237 290.817 434.801 290.817C435.366 290.817 435.827 291.257 435.896 291.826H435.911V303.089V307.235V307.238Z" fill="#C7C7CB"/>
</g>
<line x1="367" y1="180.65" x2="472" y2="180.65" stroke="#C7C7CB" stroke-width="0.7"/>
<path d="M379.082 166.344H370.01V163.068H378.942V161.794H368.596V167.618H379.082V166.344ZM379.712 169.018H367.77V170.334H373.02V173.736H374.434V170.334H379.712V169.018ZM392.465 164.65H383.477V162.76H392.325V161.64H382.091V165.77H392.465V164.65ZM393.179 168.024V166.904H381.237V168.024H386.515V169.13C383.967 169.214 381.909 169.788 381.909 171.3C381.909 172.938 384.345 173.498 387.201 173.498C390.057 173.498 392.437 172.938 392.437 171.3C392.437 169.802 390.435 169.214 387.887 169.13V168.024H393.179ZM390.981 171.3C390.981 172.126 389.147 172.406 387.201 172.406C385.255 172.406 383.365 172.126 383.365 171.3C383.365 170.488 385.255 170.208 387.201 170.208C389.147 170.208 390.981 170.488 390.981 171.3ZM408.805 161.5V173.456H410.121V161.5H408.805ZM405.711 166.05H403.821V167.352H405.711V173.246H407.027V161.57H405.711V166.05ZM402.449 163.194H404.549V161.934H398.921V163.194H401.119C401.091 167.786 400.307 170.95 398.725 171.384V172.742C400.251 172.476 401.301 171.132 401.889 168.71L404.017 172.574L405.151 171.93L402.239 166.806C402.365 165.742 402.435 164.538 402.449 163.194ZM423.574 162.69H418.758V161.206H417.33V162.69H412.542V163.894H423.574V162.69ZM413.102 166.89C413.102 168.416 415.23 169.102 418.058 169.102C420.886 169.102 423.014 168.416 423.014 166.89C423.014 165.35 420.886 164.664 418.058 164.664C415.23 164.664 413.102 165.35 413.102 166.89ZM421.6 166.89C421.6 167.646 420.102 167.982 418.058 167.982C416.014 167.982 414.516 167.646 414.516 166.89C414.516 166.12 416.014 165.784 418.058 165.784C420.102 165.784 421.6 166.12 421.6 166.89ZM424.036 169.956H412.094V171.174H415.034V173.736H416.406V171.174H419.71V173.736H421.082V171.174H424.036V169.956ZM439.355 161.5V165.826H436.275V167.128H439.355V173.456H440.741V161.5H439.355ZM434.483 161.85L433.069 161.794C433.055 166.82 431.879 170.95 429.583 171.328V172.742C431.473 172.588 432.915 170.894 433.727 168.066L436.709 172.77L437.871 172.014L434.133 166.302C434.357 164.972 434.483 163.488 434.483 161.85ZM452.724 161.5V173.456H454.11V161.5H452.724ZM449.042 165.966H445.01V161.85H443.638V172.742H450.414V161.85H449.042V165.966ZM445.01 171.468V167.24H449.042V171.468H445.01ZM462.228 165.518L467.338 169.06L468.094 167.954L462.83 164.412C463.222 163.614 463.502 162.732 463.67 161.808L462.242 161.556C461.626 164.902 459.246 167.702 456.656 167.702V169.018C458.854 169.018 460.884 167.632 462.228 165.518ZM456.418 171.58V172.882H468.36V171.58H456.418Z" fill="#C7C7CB"/>
<path d="M375.003 195.897H369.449V193.588H374.874V192.89H368.59V196.574H375.003V195.897ZM367.376 198.529H371.308V201.838H372.135V198.529H376.12V197.842H367.376V198.529ZM385.605 196.789H376.894V197.487H380.825V198.433C379.015 198.519 377.941 199.125 377.946 200.13C377.941 201.242 379.182 201.849 381.244 201.849C383.291 201.849 384.521 201.242 384.531 200.13C384.521 199.125 383.457 198.519 381.663 198.433V197.487H385.605V196.789ZM378 195.908H384.585V195.231H378.827V193.448H384.521V192.771H378V195.908ZM378.806 200.13C378.795 199.464 379.713 199.088 381.244 199.088C382.759 199.088 383.677 199.464 383.683 200.13C383.677 200.801 382.759 201.199 381.244 201.193C379.713 201.199 378.795 200.801 378.806 200.13ZM391.696 193.384H386.841V194.071H390.848C390.853 194.834 390.832 195.994 390.568 197.595L391.417 197.67C391.691 195.897 391.691 194.635 391.696 193.878V193.384ZM386.304 199.066L386.411 199.765C388.119 199.775 390.364 199.732 392.373 199.421L392.33 198.787C391.336 198.905 390.251 198.975 389.193 199.013V196.112H388.366V199.04C387.63 199.056 386.932 199.061 386.304 199.066ZM392.932 201.87H393.77V197.047H395.316V196.316H393.77V192.32H392.932V201.87ZM406.832 192.32H406.026V201.87H406.832V192.32ZM398.55 199.324L399.087 199.958C400.043 199.362 400.736 198.239 401.08 196.923C401.413 198.137 402.079 199.168 403.019 199.732L403.534 199.109C402.218 198.347 401.472 196.698 401.472 195.049V194.146H403.223V193.448H398.818V194.146H400.655V195.049C400.661 196.784 399.882 198.529 398.55 199.324ZM402.492 196.456H404.104V201.376H404.898V192.557H404.104V195.769H402.492V196.456ZM416.371 193.384H412.934V192.267H412.106V193.384H408.626V194.071H416.371V193.384ZM408.175 199.12H410.452V201.892H411.301V199.12H413.771V201.892H414.609V199.12H416.919V198.422H408.175V199.12ZM409.41 196.198C409.399 197.208 410.57 197.777 412.525 197.777C414.464 197.777 415.635 197.208 415.641 196.198C415.635 195.183 414.464 194.619 412.525 194.619C410.57 194.619 409.399 195.183 409.41 196.198ZM410.28 196.198C410.27 195.607 411.102 195.274 412.525 195.264C413.933 195.274 414.76 195.607 414.771 196.198C414.76 196.784 413.933 197.127 412.525 197.122C411.102 197.127 410.27 196.784 410.28 196.198ZM425.072 192.32H424.234V201.87H425.072V196.961H426.673V196.263H425.072V192.32ZM417.628 194.555H423.311V193.856H420.926V192.438H420.088V193.856H417.628V194.555ZM418.176 197.541C418.17 198.835 419.159 199.732 420.518 199.732C421.866 199.732 422.849 198.835 422.859 197.541C422.849 196.252 421.866 195.35 420.518 195.35C419.159 195.35 418.17 196.252 418.176 197.541ZM418.981 197.541C418.976 196.676 419.626 196.053 420.518 196.059C421.398 196.053 422.043 196.676 422.054 197.541C422.043 198.411 421.398 199.023 420.518 199.013C419.626 199.023 418.976 198.411 418.981 197.541ZM432.022 193.158H427.64V197.616H432.022V196.757H434.257V199.303H435.105V192.331H434.257V194.007H432.022V193.158ZM428.478 196.939V193.856H431.195V196.939H428.478ZM428.929 201.666H435.32V200.957H429.777V198.68H428.929V201.666ZM432.022 196.059V194.716H434.257V196.059H432.022ZM375.304 205.331H374.455V208.017H372.199V205.965H371.372V207.662H368.708V205.965H367.87V210.767H372.199V208.726H374.455V212.399H375.304V205.331ZM368.708 210.068V208.328H371.372V210.068H368.708ZM369.127 214.666H375.519V213.957H369.976V211.701H369.127V214.666ZM384.8 205.32H383.962V209.166H381.685V209.864H383.962V214.87H384.8V205.32ZM376.904 212.378L377.366 213.055C380.557 211.47 381.701 209.069 381.706 206.362H377.323V207.05H380.857C380.686 209.284 379.488 211.126 376.904 212.378ZM395.145 212.979H391.159V211.175H394.264V210.477H388.334V208.919H394.038V206.029H387.475V206.728H393.211V208.231H387.496V211.175H390.332V212.979H386.4V213.688H395.145V212.979ZM400.258 205.503C398.179 205.508 396.874 206.169 396.874 207.308C396.874 208.425 398.179 209.085 400.258 209.08C402.336 209.085 403.625 208.425 403.631 207.308C403.625 206.169 402.336 205.508 400.258 205.503ZM395.907 210.509H399.839V211.604H396.971V214.741H403.545V211.604H400.666V210.509H404.608V209.811H395.907V210.509ZM397.744 207.308C397.739 206.593 398.711 206.169 400.258 206.169C401.789 206.169 402.766 206.593 402.771 207.308C402.766 208.006 401.789 208.414 400.258 208.414C398.711 208.414 397.739 208.006 397.744 207.308ZM397.809 214.054V212.281H402.718V214.054H397.809ZM410.076 210.928H409.281V214.741H412.601V210.928H411.816V212.12H410.076V210.928ZM408.325 207.941C408.32 209.252 409.351 210.144 410.807 210.144C412.101 210.144 413.084 209.402 413.25 208.274H415.243V210.38H416.092V205.32H415.243V207.576H413.245C413.062 206.475 412.09 205.75 410.807 205.75C409.351 205.75 408.32 206.636 408.325 207.941ZM409.131 207.941C409.131 207.071 409.824 206.459 410.807 206.459C411.768 206.459 412.461 207.071 412.461 207.941C412.461 208.817 411.768 209.44 410.807 209.445C409.824 209.44 409.131 208.817 409.131 207.941ZM410.076 214.075V212.765H411.816V214.075H410.076ZM412.729 214.172L413.17 214.816C414.013 214.457 414.599 213.78 414.899 213.001C415.195 213.791 415.77 214.467 416.65 214.816L417.091 214.172C415.925 213.742 415.318 212.684 415.329 211.68V210.863H414.491V211.68C414.486 212.646 413.879 213.694 412.729 214.172ZM425.556 205.32H424.707V214.892H425.556V205.32ZM418.036 209.392C418.042 211.427 419.051 212.716 420.475 212.711C421.893 212.716 422.918 211.427 422.913 209.392C422.918 207.361 421.893 206.067 420.475 206.062C419.051 206.067 418.042 207.361 418.036 209.392ZM418.853 209.392C418.853 207.839 419.519 206.819 420.475 206.813C421.436 206.819 422.097 207.839 422.097 209.392C422.097 210.944 421.436 211.964 420.475 211.959C419.519 211.964 418.853 210.944 418.853 209.392ZM375.787 226.957H370.072V224.572H369.234V227.666H375.787V226.957ZM367.827 223.67H371.544V219.094H370.749V220.673H368.622V219.094H367.827V223.67ZM368.622 222.993V221.339H370.749V222.993H368.622ZM372.629 225.12H373.424V221.833H374.691V225.453H375.497V218.331H374.691V221.124H373.424V218.514H372.629V225.12ZM384.606 222.918H378.849V219.91H384.51V219.212H378.011V223.616H384.606V222.918ZM376.894 226.57H385.638V225.861H376.894V226.57ZM390.719 224.357C388.672 224.357 387.373 225.002 387.378 226.108C387.373 227.204 388.672 227.849 390.719 227.849C392.765 227.849 394.065 227.204 394.07 226.108C394.065 225.002 392.765 224.357 390.719 224.357ZM386.411 223.466H395.102V222.778H390.837V220.931H390.01V222.778H386.411V223.466ZM387.442 219.502H393.157V219.62C393.157 220.367 393.157 221.076 392.899 222.059L393.727 222.155C393.99 221.167 393.99 220.394 393.995 219.62V218.814H387.442V219.502ZM388.216 226.108C388.21 225.426 389.199 225.007 390.719 225.002C392.244 225.007 393.222 225.426 393.232 226.108C393.222 226.774 392.244 227.183 390.719 227.183C389.199 227.183 388.21 226.774 388.216 226.108ZM403.824 218.331H402.976V219.824H400.494C400.048 219.271 399.35 218.938 398.539 218.933C397.11 218.938 396.052 219.926 396.058 221.328C396.052 222.725 397.11 223.713 398.539 223.713C399.355 223.713 400.064 223.375 400.505 222.811H402.976V225.389H403.824V218.331ZM396.863 221.328C396.863 220.377 397.562 219.69 398.539 219.685C399.479 219.69 400.193 220.377 400.193 221.328C400.193 222.284 399.479 222.966 398.539 222.961C397.562 222.966 396.863 222.284 396.863 221.328ZM397.69 227.666H404.093V226.957H398.539V224.647H397.69V227.666ZM400.875 220.522H402.976V222.112H400.881C400.961 221.871 401.01 221.607 401.01 221.328C401.01 221.038 400.961 220.77 400.875 220.522ZM408.54 219.019C407.031 219.024 405.957 219.937 405.962 221.264C405.957 222.596 407.031 223.503 408.54 223.509C410.039 223.503 411.102 222.596 411.107 221.264C411.102 219.937 410.039 219.024 408.54 219.019ZM405.468 225.066L405.586 225.786C407.305 225.786 409.652 225.775 411.838 225.367L411.773 224.744C409.663 225.056 407.229 225.072 405.468 225.066ZM406.789 221.264C406.784 220.377 407.52 219.76 408.54 219.76C409.55 219.76 410.286 220.377 410.28 221.264C410.286 222.155 409.55 222.768 408.54 222.768C407.52 222.768 406.784 222.155 406.789 221.264ZM412.407 227.892H413.245V218.32H412.407V227.892ZM369.75 237.271H368.912V240.741H375.207V237.271H374.38V238.313H369.75V237.271ZM367.397 235.51L367.516 236.208C368.343 236.208 369.293 236.208 370.298 236.17V237.562H371.136V236.127C372.011 236.074 372.903 235.988 373.768 235.843L373.714 235.241C371.614 235.51 369.213 235.51 367.397 235.51ZM367.827 234.253L368.214 234.919C369.347 234.629 370.223 233.984 370.625 233.13C371.044 233.931 371.92 234.516 373.037 234.769L373.402 234.124C372.027 233.823 371.05 233.018 371.05 232.04V231.557H370.19V232.04C370.185 233.066 369.218 233.931 367.827 234.253ZM369.75 240.054V238.979H374.38V240.054H369.75ZM374.369 236.81H375.207V231.331H374.369V236.81ZM384.553 232.287H377.817V232.985H383.704V233.243C383.699 234.387 383.699 235.725 383.339 237.551L384.198 237.647C384.542 235.725 384.542 234.414 384.553 233.243V232.287ZM376.894 239.517H385.595V238.818H381.137V235.402H380.31V238.818H376.894V239.517ZM396.81 231.32H395.972V240.87H396.81V235.778H398.109V235.059H396.81V231.32ZM389.354 238.561H392.008V232.212H391.288V234.683H390.085V232.212H389.354V238.561ZM390.085 237.852V235.359H391.288V237.852H390.085ZM392.523 238.561H395.134V232.212H394.414V234.683H393.243V232.212H392.523V238.561ZM393.243 237.852V235.359H394.414V237.852H393.243ZM407.401 236.616H398.657V237.314H407.401V236.616ZM399.764 232.33H405.425V233.372H399.796V235.735H406.478V235.069H400.634V234.006H406.273V231.653H399.764V232.33ZM399.817 240.666H406.478V239.957H400.666V238.066H399.817V240.666ZM375.304 244.32H374.455V246.812H372.532V247.511H374.455V250.014H375.304V244.32ZM367.43 249.251L367.87 249.928C369.009 249.493 369.895 248.601 370.303 247.484C370.717 248.467 371.549 249.272 372.618 249.659L373.059 248.982C371.662 248.504 370.706 247.317 370.706 246.071V245.728H372.844V245.019H367.698V245.728H369.857V246.082C369.857 247.446 368.848 248.741 367.43 249.251ZM368.934 252.087C368.928 253.215 370.147 253.859 372.135 253.87C374.117 253.859 375.336 253.215 375.336 252.087C375.336 250.964 374.117 250.309 372.135 250.314C370.147 250.309 368.928 250.964 368.934 252.087ZM369.771 252.087C369.766 251.389 370.668 250.97 372.135 250.97C373.596 250.97 374.498 251.389 374.498 252.087C374.498 252.78 373.596 253.199 372.135 253.193C370.668 253.199 369.766 252.78 369.771 252.087ZM380.105 246.125V244.911H379.278V246.093C379.273 247.575 378.317 248.87 376.861 249.38L377.323 250.057C378.451 249.622 379.316 248.746 379.719 247.607C380.143 248.617 380.986 249.423 382.071 249.82L382.501 249.144C381.094 248.655 380.1 247.441 380.105 246.125ZM378.397 253.666H384.8V252.957H379.257V250.701H378.397V253.666ZM383.521 251.378H384.359V247.973H385.799V247.253H384.359V244.32H383.521V251.378ZM394.274 244.32H393.426V253.892H394.274V244.32ZM386.755 248.392C386.76 250.427 387.77 251.716 389.193 251.711C390.611 251.716 391.637 250.427 391.632 248.392C391.637 246.361 390.611 245.067 389.193 245.062C387.77 245.067 386.76 246.361 386.755 248.392ZM387.571 248.392C387.571 246.839 388.237 245.819 389.193 245.813C390.155 245.819 390.815 246.839 390.815 248.392C390.815 249.944 390.155 250.964 389.193 250.959C388.237 250.964 387.571 249.944 387.571 248.392ZM406.059 244.32H405.221V253.87H406.059V248.918H407.605V248.209H406.059V244.32ZM398.732 251.389L399.205 252.055C402.315 250.519 403.583 248.053 403.588 245.352H399.173V246.061H402.734C402.541 248.322 401.198 250.164 398.732 251.389ZM415.888 246.995H410.205V244.514H409.367V247.693H415.888V246.995ZM408.175 249.509H416.887V248.811H408.175V249.509ZM409.228 252.098C409.222 253.204 410.463 253.827 412.525 253.827C414.572 253.827 415.802 253.204 415.812 252.098C415.802 250.986 414.572 250.363 412.525 250.368C410.463 250.363 409.222 250.986 409.228 252.098ZM410.087 252.098C410.076 251.421 410.995 251.04 412.525 251.034C414.04 251.04 414.958 251.421 414.964 252.098C414.958 252.764 414.04 253.167 412.525 253.172C410.995 253.167 410.076 252.764 410.087 252.098ZM422.451 245.975H420.485V244.61H419.647V245.975H417.66V246.662H422.451V245.975ZM418.004 249.477C418.004 250.76 418.869 251.663 420.056 251.668C421.259 251.663 422.118 250.76 422.129 249.477C422.118 248.209 421.259 247.312 420.056 247.307C418.869 247.312 418.004 248.209 418.004 249.477ZM418.756 249.477C418.756 248.639 419.298 248.026 420.056 248.016C420.818 248.026 421.377 248.639 421.377 249.477C421.377 250.325 420.818 250.932 420.056 250.927C419.298 250.932 418.756 250.325 418.756 249.477ZM422.945 253.397H423.74V249.047H425.008V253.87H425.813V244.32H425.008V248.349H423.74V244.557H422.945V253.397ZM435.933 251.937H433.763V249.337C434.552 248.913 435.03 248.236 435.03 247.382C435.03 245.905 433.58 244.933 431.539 244.922C429.498 244.933 428.048 245.905 428.048 247.382C428.048 248.252 428.542 248.939 429.358 249.364V251.937H427.188V252.646H435.933V251.937ZM428.864 247.382C428.859 246.313 429.971 245.609 431.539 245.62C433.091 245.609 434.214 246.313 434.214 247.382C434.214 248.451 433.091 249.165 431.539 249.165C429.971 249.165 428.859 248.451 428.864 247.382ZM430.186 251.937V249.67C430.594 249.777 431.05 249.831 431.539 249.831C432.039 249.831 432.5 249.772 432.914 249.665V251.937H430.186ZM438.242 245.223H437.189L437.265 250.809H438.167L438.242 245.223ZM437.028 252.366C437.018 252.748 437.34 253.059 437.716 253.064C438.097 253.059 438.409 252.748 438.403 252.366C438.409 251.99 438.097 251.679 437.716 251.679C437.34 251.679 437.018 251.99 437.028 252.366Z" fill="#C7C7CB"/>
<g clip-path="url(#clip2_1946_38141)">
<path d="M74.0189 290.518V307.238H74.0043C73.9359 307.804 73.4741 308.246 72.9098 308.246C72.3454 308.246 71.8837 307.807 71.8152 307.238H71.8006V290.418H66.4941V307.329C66.4941 311.013 69.3672 314 72.9098 314C76.4523 314 79.3254 311.013 79.3254 307.329V285C76.3961 285 74.0189 287.472 74.0189 290.518Z" fill="#C7C7CB"/>
<path d="M135.207 308.482V291.762H135.192C135.124 291.196 134.662 290.754 134.098 290.754C133.533 290.754 133.072 291.193 133.003 291.762H132.989V314H127.682V291.671C127.682 287.987 130.555 285 134.098 285C137.64 285 140.513 287.987 140.513 291.671V314C137.582 314 135.207 311.528 135.207 308.482Z" fill="#C7C7CB"/>
<path d="M149.482 292.872C148.937 292.801 148.512 292.321 148.512 291.734C148.512 291.147 148.935 290.667 149.482 290.596V290.581H150.503C153.435 290.581 155.81 288.109 155.81 285.063H149.394C145.852 285.063 142.979 288.051 142.979 291.734C142.979 295.418 145.852 298.405 149.394 298.405H150.503V300.567L150.496 308.467H142.981V313.985H145.497L150.491 314H150.601H150.633H155.812V298.405V292.888H149.485V292.872H149.482Z" fill="#C7C7CB"/>
<path d="M64.0021 291.706C64.0021 288.023 61.129 285.036 57.5865 285.036L56.5115 285H51.1904V314H57.6207C61.1632 314 64.0363 311.013 64.0363 307.329L64.0021 291.706ZM58.7299 308.475H56.5115V290.601H58.7299V299.927C58.7299 299.942 58.7323 299.96 58.7348 299.975C58.7348 300.033 58.7323 300.092 58.7299 300.15V308.475Z" fill="#C7C7CB"/>
<path d="M94.5949 291.706C94.5949 288.023 91.7218 285.036 88.1793 285.036L87.1043 285H81.7832V314H88.2135C91.756 314 94.6291 311.013 94.6291 307.329L94.5949 291.706ZM89.3227 308.475H87.1043V290.601H89.3227V299.927C89.3227 299.942 89.3251 299.96 89.3276 299.975C89.3276 300.033 89.3251 300.092 89.3227 300.15V308.475Z" fill="#C7C7CB"/>
<path d="M109.921 303.092V291.734C109.921 288.051 107.048 285.063 103.505 285.063C99.9625 285.063 97.0894 288.051 97.0894 291.734V300.031V307.329C97.0894 311.013 99.9625 314 103.505 314C107.048 314 109.921 311.013 109.921 307.329V303.092ZM104.614 307.238H104.599C104.531 307.804 104.069 308.246 103.505 308.246C102.941 308.246 102.479 307.807 102.41 307.238H102.396V300.031V291.826H102.41C102.479 291.259 102.941 290.817 103.505 290.817C104.069 290.817 104.531 291.257 104.599 291.826H104.614V303.089V307.235V307.238Z" fill="#C7C7CB"/>
<path d="M125.217 303.092V291.734C125.217 288.051 122.344 285.063 118.801 285.063C115.259 285.063 112.386 288.051 112.386 291.734V300.031V307.329C112.386 311.013 115.259 314 118.801 314C122.344 314 125.217 311.013 125.217 307.329V303.092ZM119.911 307.238H119.896C119.827 307.804 119.366 308.246 118.801 308.246C118.237 308.246 117.775 307.807 117.707 307.238H117.692V300.031V291.826H117.707C117.775 291.259 118.237 290.817 118.801 290.817C119.366 290.817 119.827 291.257 119.896 291.826H119.911V303.089V307.235V307.238Z" fill="#C7C7CB"/>
</g>
<line x1="51" y1="180.65" x2="156" y2="180.65" stroke="#C7C7CB" stroke-width="0.7"/>
<g filter="url(#filter1_d_1946_38141)">
<path d="M111 64.9419C115.246 64.0581 117.423 57.5039 117.808 55C118.177 57.5628 119.269 60.5601 120.231 61.0756C121.431 60.7221 122.346 56.5833 122.654 55C124.5 62.2465 126.577 63.7267 129 64.9419C123.577 67.7035 124.269 70.686 122.654 74L122.603 73.8434C121.483 70.4129 120.923 68.6977 120.231 68.6977C119.192 68.6977 118.846 71.2384 117.808 74C116.608 68.3442 112.962 65.4942 111 64.9419Z" fill="white" stroke="#C7C7CB" stroke-width="0.5"/>
<path d="M122.267 64.9418C120.095 66.2547 118.521 68.3747 117.899 70.8473L117.808 71.2087L117.717 70.8473C117.094 68.3747 115.521 66.2547 113.348 64.9418C115.521 63.6289 117.094 61.509 117.717 59.0363L117.808 58.6749L117.899 59.0363C118.521 61.509 120.095 63.6289 122.267 64.9418Z" fill="#E3E4E8" stroke="#C7C7CB" stroke-width="0.5"/>
<path d="M127.113 64.9418C124.941 66.2547 123.368 68.3747 122.745 70.8473L122.654 71.2087L122.563 70.8473C121.94 68.3747 120.367 66.2547 118.195 64.9418C120.367 63.6289 121.94 61.509 122.563 59.0363L122.654 58.6749L122.745 59.0363C123.368 61.509 124.941 63.6289 127.113 64.9418Z" fill="white" stroke="#C7C7CB" stroke-width="0.5"/>
</g>
<path d="M63.082 166.344H54.01V163.068H62.942V161.794H52.596V167.618H63.082V166.344ZM63.712 169.018H51.77V170.334H57.02V173.736H58.434V170.334H63.712V169.018ZM76.4648 164.65H67.4768V162.76H76.3248V161.64H66.0908V165.77H76.4648V164.65ZM77.1788 168.024V166.904H65.2368V168.024H70.5148V169.13C67.9668 169.214 65.9088 169.788 65.9088 171.3C65.9088 172.938 68.3448 173.498 71.2008 173.498C74.0568 173.498 76.4368 172.938 76.4368 171.3C76.4368 169.802 74.4348 169.214 71.8868 169.13V168.024H77.1788ZM74.9808 171.3C74.9808 172.126 73.1468 172.406 71.2008 172.406C69.2548 172.406 67.3648 172.126 67.3648 171.3C67.3648 170.488 69.2548 170.208 71.2008 170.208C73.1468 170.208 74.9808 170.488 74.9808 171.3ZM92.3154 167.1H93.7014V161.612H83.4534V162.774H92.3154V164.496H83.4534V165.63H92.3154V167.1ZM88.5494 167.884V166.274H87.1494V167.884H82.6274V169.06H94.5694V167.884H88.5494ZM84.8674 170.054H83.4534V173.316H93.9534V172.14H84.8674V170.054ZM105.964 161.5V165.826H102.884V167.128H105.964V173.456H107.35V161.5H105.964ZM101.092 161.85L99.6782 161.794C99.6642 166.82 98.4882 170.95 96.1922 171.328V172.742C98.0822 172.588 99.5242 170.894 100.336 168.066L103.318 172.77L104.48 172.014L100.742 166.302C100.966 164.972 101.092 163.488 101.092 161.85ZM120.901 168.332H111.745V166.358H120.565V165.14H111.745V163.18H120.719V161.934H110.359V169.578H120.901V168.332ZM109.561 171.608V172.882H121.503V171.608H109.561Z" fill="#C7C7CB"/>
<path d="M51.7305 201H56.7793V200.141H53.0732V200.076L54.8564 198.239C56.2314 196.821 56.6343 196.145 56.6396 195.274C56.6343 194.066 55.6353 193.115 54.2227 193.115C52.8154 193.115 51.752 194.039 51.7627 195.414H52.6758C52.6812 194.544 53.2612 193.958 54.1904 193.953C55.0659 193.958 55.7319 194.474 55.7373 195.274C55.7319 195.994 55.2915 196.521 54.373 197.498L51.7197 200.291L51.7305 201ZM60.7324 201.107C62.4565 201.107 63.4502 199.657 63.4502 197.111C63.4502 194.587 62.4404 193.115 60.7324 193.115C59.019 193.115 58.0093 194.587 58.0146 197.111C58.0093 199.657 59.0083 201.107 60.7324 201.107ZM58.9492 197.111C58.9546 195.097 59.6152 193.958 60.7324 193.953C61.8496 193.958 62.5103 195.097 62.5049 197.111C62.5103 199.125 61.855 200.248 60.7324 200.248C59.6045 200.248 58.9546 199.125 58.9492 197.111ZM64.7393 201H69.7881V200.141H66.082V200.076L67.8652 198.239C69.2402 196.821 69.6431 196.145 69.6484 195.274C69.6431 194.066 68.644 193.115 67.2314 193.115C65.8242 193.115 64.7607 194.039 64.7715 195.414H65.6846C65.6899 194.544 66.27 193.958 67.1992 193.953C68.0747 193.958 68.7407 194.474 68.7461 195.274C68.7407 195.994 68.3003 196.521 67.3818 197.498L64.7285 200.291L64.7393 201ZM73.8809 201.107C75.4331 201.107 76.5933 200.162 76.5879 198.884C76.5933 197.896 75.981 197.17 74.9658 197.015V196.961C75.7822 196.73 76.2979 196.085 76.2871 195.199C76.2979 194.087 75.3955 193.115 73.9131 193.115C72.5327 193.115 71.3833 193.942 71.335 195.178H72.2695C72.3125 194.415 73.0698 193.958 73.9023 193.953C74.7886 193.958 75.3579 194.474 75.3525 195.253C75.3579 196.053 74.6973 196.585 73.752 196.585H73.1182V197.434H73.752C74.9604 197.439 75.6372 198.035 75.6426 198.884C75.6372 199.695 74.896 200.248 73.8701 200.248C72.9409 200.248 72.2051 199.786 72.1514 199.045H71.1738C71.2222 200.28 72.334 201.107 73.8809 201.107ZM85.5576 192.331H84.709V193.588H81.959V194.265H84.709V195.414H81.959V196.091H84.709V199.399H85.5576V192.331ZM78.21 197.981H78.9297C80.3315 197.971 81.6313 197.906 83.1836 197.616L83.0977 196.918C81.6421 197.181 80.3745 197.256 79.0586 197.262V193.019H78.21V197.981ZM79.4023 201.666H85.8154V200.957H80.251V198.798H79.4023V201.666ZM59.0029 221.897H53.4492V219.588H58.874V218.89H52.5898V222.574H59.0029V221.897ZM51.376 224.529H55.3076V227.838H56.1348V224.529H60.1201V223.842H51.376V224.529ZM69.6055 222.789H60.8936V223.487H64.8252V224.433C63.0151 224.519 61.9409 225.125 61.9463 226.13C61.9409 227.242 63.1816 227.849 65.2441 227.849C67.2905 227.849 68.5205 227.242 68.5312 226.13C68.5205 225.125 67.457 224.519 65.6631 224.433V223.487H69.6055V222.789ZM62 221.908H68.585V221.231H62.8271V219.448H68.5205V218.771H62V221.908ZM62.8057 226.13C62.7949 225.464 63.7134 225.088 65.2441 225.088C66.7588 225.088 67.6772 225.464 67.6826 226.13C67.6772 226.801 66.7588 227.199 65.2441 227.193C63.7134 227.199 62.7949 226.801 62.8057 226.13ZM76.5234 220.888V219.147H75.6641V220.888C75.6587 222.649 74.5522 224.486 73.1504 225.174L73.6982 225.851C74.7832 225.276 75.6802 224.051 76.1045 222.623C76.5288 223.981 77.4258 225.12 78.5107 225.679L79.0156 224.991C77.6299 224.357 76.5181 222.617 76.5234 220.888ZM77.9736 222.273H80.2402V227.892H81.0781V218.32H80.2402V221.586H77.9736V222.273ZM90.542 218.32H89.6934V227.892H90.542V218.32ZM83.2266 225.582H87.7383V219.137H86.9111V221.661H84.0645V219.137H83.2266V225.582ZM84.0645 224.873V222.338H86.9111V224.873H84.0645ZM96.9336 219.728V218.997H96.0527V219.728C96.0474 221.371 94.1943 222.816 92.54 223.133L92.9268 223.842C94.3716 223.503 95.8809 222.483 96.5039 221.081C97.1216 222.483 98.6362 223.509 100.081 223.842L100.468 223.133C98.8081 222.821 96.939 221.366 96.9336 219.728ZM92.1748 226.57H100.919V225.872H92.1748V226.57ZM59.0996 235.918H53.3418V232.91H59.0029V232.212H52.5039V236.616H59.0996V235.918ZM51.3867 239.57H60.1309V238.861H51.3867V239.57ZM68.7676 231.32H67.9189V240.892H68.7676V231.32ZM61.5166 238.518H62.29C64.2236 238.512 65.4805 238.448 66.9629 238.185L66.877 237.476C65.4429 237.733 64.2236 237.787 62.3652 237.787V232.942H66.0605V232.233H61.5166V238.518ZM72.9678 232.062C71.5552 232.067 70.5669 233.361 70.5723 235.392C70.5669 237.427 71.5552 238.716 72.9678 238.711C74.2998 238.716 75.2559 237.545 75.3472 235.671H77.4795V240.892H78.3174V231.32H77.4795V234.973H75.3364C75.2075 233.184 74.2676 232.067 72.9678 232.062ZM71.3779 235.392C71.3833 233.839 72.0278 232.819 72.9678 232.813C73.9023 232.819 74.5576 233.839 74.5576 235.392C74.5576 236.944 73.9023 237.964 72.9678 237.959C72.0278 237.964 71.3833 236.944 71.3779 235.392ZM87.0186 231.943C84.9937 231.954 83.5273 232.942 83.5273 234.446C83.5273 235.864 84.7949 236.804 86.5996 236.933V238.937H82.668V239.646H91.4121V238.937H87.4268V236.933C89.2422 236.81 90.5098 235.87 90.5098 234.446C90.5098 232.942 89.0488 231.954 87.0186 231.943ZM84.3438 234.446C84.3384 233.367 85.4717 232.636 87.0186 232.642C88.5654 232.636 89.6934 233.367 89.6934 234.446C89.6934 235.547 88.5654 236.262 87.0186 236.272C85.4717 236.262 84.3384 235.547 84.3438 234.446ZM100.049 231.814H92.9912V232.502H94.4629V234.704H93.0234V235.381H100.017V234.704H98.5771V232.502H100.049V231.814ZM92.1748 237.121H100.876V236.423H92.1748V237.121ZM93.3027 240.666H99.9092V239.957H94.1514V237.991H93.3027V240.666ZM95.3008 234.704V232.502H97.7393V234.704H95.3008ZM103.229 232.223H102.176L102.251 237.809H103.153L103.229 232.223ZM102.015 239.366C102.004 239.748 102.326 240.059 102.702 240.064C103.083 240.059 103.395 239.748 103.39 239.366C103.395 238.99 103.083 238.679 102.702 238.679C102.326 238.679 102.004 238.99 102.015 239.366ZM60.1201 249.874H51.376V250.572H55.3076V253.87H56.1348V250.572H60.1201V249.874ZM52.5039 248.574H58.9814V244.857H52.5039V248.574ZM53.3311 247.908V245.545H58.1436V247.908H53.3311ZM69.6377 251.979H67.2637V250.164H68.7568V249.466H62.8271V247.919H68.5312V245.029H61.9678V245.728H67.7041V247.221H61.9893V250.164H63.3535V251.979H60.8936V252.688H69.6377V251.979ZM64.1807 251.979V250.164H66.4365V251.979H64.1807ZM79.1445 251.979H75.1592V250.175H78.2637V249.477H72.334V247.919H78.0381V245.029H71.4746V245.728H77.2109V247.231H71.4961V250.175H74.332V251.979H70.4004V252.688H79.1445V251.979ZM91.3691 248.392H82.668V249.09H91.3691V248.392ZM83.1406 247.253L83.4199 247.919C84.9829 247.758 86.4492 247.151 87.0186 246.189C87.5933 247.151 89.0649 247.758 90.6279 247.919L90.9072 247.253C89.21 247.119 87.5933 246.372 87.5073 245.384H90.5957V244.696H83.4629V245.384H86.5405C86.4331 246.372 84.8271 247.119 83.1406 247.253ZM83.7207 250.615H89.4248V251.496H83.7422V253.763H90.542V253.097H84.5801V252.13H90.252V249.971H83.7207V250.615ZM97.0195 245.362H92.6045V246.05H96.1709C95.9937 248.306 94.7261 250.148 92.1855 251.378L92.626 252.065C94.8818 250.97 96.144 249.412 96.6919 247.64H99.2432V249.498H96.5469V250.196H99.2432V253.87H100.081V244.31H99.2432V246.952H96.8638C96.9712 246.437 97.0195 245.905 97.0195 245.362ZM110.426 251.947H106.44V249.885H109.352V244.997H108.524V246.727H103.562V244.997H102.713V249.885H105.613V251.947H101.682V252.646H110.426V251.947ZM103.562 249.197V247.414H108.524V249.197H103.562ZM114.024 247.038V245.223H113.208V247.07C113.208 248.708 112.402 250.4 111.081 251.174L111.618 251.808C112.574 251.228 113.283 250.132 113.632 248.859C113.965 250.024 114.626 251.045 115.55 251.604L116.033 250.948C114.766 250.196 114.024 248.558 114.024 247.038ZM114.98 248.467H116.603V253.387H117.397V244.524H116.603V247.747H114.98V248.467ZM118.558 253.87H119.374V244.32H118.558V253.87ZM129.439 251.937H127.27V249.337C128.059 248.913 128.537 248.236 128.537 247.382C128.537 245.905 127.087 244.933 125.046 244.922C123.005 244.933 121.555 245.905 121.555 247.382C121.555 248.252 122.049 248.939 122.865 249.364V251.937H120.695V252.646H129.439V251.937ZM122.371 247.382C122.366 246.313 123.478 245.609 125.046 245.62C126.598 245.609 127.721 246.313 127.721 247.382C127.721 248.451 126.598 249.165 125.046 249.165C123.478 249.165 122.366 248.451 122.371 247.382ZM123.692 251.937V249.67C124.101 249.777 124.557 249.831 125.046 249.831C125.545 249.831 126.007 249.772 126.421 249.665V251.937H123.692ZM131.749 245.223H130.696L130.771 250.809H131.674L131.749 245.223ZM130.535 252.366C130.524 252.748 130.847 253.059 131.223 253.064C131.604 253.059 131.916 252.748 131.91 252.366C131.916 251.99 131.604 251.679 131.223 251.679C130.847 251.679 130.524 251.99 130.535 252.366Z" fill="#C7C7CB"/>
<path d="M65.7162 96.552H58.4922V94.98H65.5962V93.12H56.4282V98.4H65.7162V96.552ZM66.1962 99.252H55.8282V101.124H59.9682V103.488H62.0562V101.124H66.1962V99.252ZM77.2352 95.268H70.0112V94.548H77.1152V93H67.9952V96.816H77.2352V95.268ZM77.7392 98.88V97.32H67.3712V98.88H71.5472V99.36C69.3272 99.492 67.8512 100.08 67.8512 101.364C67.8512 102.84 69.7832 103.392 72.5552 103.392C75.3272 103.392 77.2592 102.84 77.2592 101.364C77.2592 100.08 75.7832 99.492 73.5632 99.36V98.88H77.7392ZM75.0992 101.364C75.0992 101.736 74.0552 101.88 72.5552 101.88C71.0552 101.88 70.0112 101.736 70.0112 101.364C70.0112 101.004 71.0552 100.848 72.5552 100.848C74.0552 100.848 75.0992 101.004 75.0992 101.364ZM84.0982 93.084C81.2182 93.084 79.3342 94.452 79.3342 96.468C79.3342 98.484 81.2182 99.852 84.0982 99.852C86.9782 99.852 88.8622 98.484 88.8622 96.468C88.8622 94.452 86.9782 93.084 84.0982 93.084ZM84.0982 94.92C85.6462 94.92 86.7142 95.544 86.7142 96.468C86.7142 97.392 85.6462 98.016 84.0982 98.016C82.5502 98.016 81.4822 97.392 81.4822 96.468C81.4822 95.544 82.5502 94.92 84.0982 94.92ZM89.2822 100.992H78.9142V102.888H89.2822V100.992ZM96.6731 101.04V99.888H100.381V98.112H93.0371V97.404H100.261V93.24H91.0091V95.016H98.2571V95.712H91.0331V99.888H94.6091V101.04H90.4571V102.888H100.825V101.04H96.6731ZM116.187 96.744H114.987V93H112.959V103.248H114.987V98.712H116.187V96.744ZM107.775 100.932V95.076H111.675V93.24H105.711V102.768H109.683C110.667 102.768 111.855 102.6 112.479 102.288V100.476C111.855 100.764 110.799 100.932 109.827 100.932H107.775ZM127.73 95.328V93.636H126.53V93H124.502V98.64H126.53V97.728H127.73V96.036H126.53V95.328H127.73ZM120.098 98.412C122.066 98.412 123.386 97.344 123.386 95.712C123.386 94.092 122.066 93.012 120.098 93.012C118.13 93.012 116.81 94.092 116.81 95.712C116.81 97.344 118.13 98.412 120.098 98.412ZM120.098 94.656C120.878 94.656 121.37 95.064 121.37 95.712C121.37 96.36 120.878 96.768 120.098 96.768C119.318 96.768 118.826 96.36 118.826 95.712C118.826 95.064 119.318 94.656 120.098 94.656ZM122.066 98.784C119.522 98.784 117.506 99.372 117.506 101.076C117.506 102.78 119.522 103.368 122.066 103.368C124.61 103.368 126.626 102.78 126.626 101.076C126.626 99.372 124.61 98.784 122.066 98.784ZM122.066 101.748C120.746 101.748 119.69 101.568 119.69 101.076C119.69 100.596 120.746 100.404 122.066 100.404C123.386 100.404 124.442 100.596 124.442 101.076C124.442 101.568 123.386 101.748 122.066 101.748ZM135.361 93.696H132.889V92.82H130.825V93.696H128.353V95.28H135.361V93.696ZM138.073 95.376V93H136.045V100.644H138.073V97.344H139.273V95.376H138.073ZM131.857 99.792C133.561 99.792 135.001 99.072 135.001 97.68C135.001 96.288 133.561 95.568 131.857 95.568C130.153 95.568 128.713 96.288 128.713 97.68C128.713 99.072 130.153 99.792 131.857 99.792ZM131.857 97.032C132.589 97.032 133.069 97.32 133.069 97.68C133.069 98.04 132.589 98.328 131.857 98.328C131.125 98.328 130.645 98.04 130.645 97.68C130.645 97.32 131.125 97.032 131.857 97.032ZM131.089 100.092H129.025V103.248H138.217V101.484H131.089V100.092ZM151.036 96.444H153.076V93H143.956V94.644H151.036V96.444ZM148.78 96.924V95.4H146.74V96.924H143.356V98.544H153.724V96.924H148.78ZM148.54 99.072C145.78 99.072 143.86 99.672 143.86 101.22C143.86 102.768 145.78 103.368 148.54 103.368C151.3 103.368 153.22 102.768 153.22 101.22C153.22 99.672 151.3 99.072 148.54 99.072ZM148.54 101.832C147.052 101.832 146.02 101.64 146.02 101.22C146.02 100.812 147.052 100.608 148.54 100.608C150.028 100.608 151.06 100.812 151.06 101.22C151.06 101.64 150.028 101.832 148.54 101.832ZM161.739 96.552L161.619 98.34H162.867V100.596H164.859V93H162.867V93.792H161.619L161.739 95.58H162.867V96.552H161.739ZM161.427 96.084C161.427 94.236 160.095 93.012 158.127 93.012C156.159 93.012 154.827 94.236 154.827 96.084C154.827 97.944 156.159 99.156 158.127 99.156C160.095 99.156 161.427 97.944 161.427 96.084ZM156.831 96.084C156.831 95.196 157.359 94.704 158.127 94.704C158.895 94.704 159.423 95.196 159.423 96.084C159.423 96.972 158.895 97.464 158.127 97.464C157.359 97.464 156.831 96.972 156.831 96.084ZM157.875 101.436V99.66H155.811V103.248H165.003V101.436H157.875ZM171.626 92.832C168.938 92.832 166.97 93.336 166.97 94.764C166.97 96.192 168.938 96.696 171.626 96.696C174.314 96.696 176.282 96.192 176.282 94.764C176.282 93.336 174.314 92.832 171.626 92.832ZM171.626 94.284C173.15 94.284 174.134 94.428 174.134 94.764C174.134 95.112 173.15 95.244 171.626 95.244C170.102 95.244 169.118 95.112 169.118 94.764C169.118 94.428 170.102 94.284 171.626 94.284ZM176.81 97.032H166.442V98.508H176.81V97.032ZM176.21 98.904H167.03V100.176H174.23V100.524H167.054V103.248H176.318V101.928H169.034V101.58H176.21V98.904ZM66.0075 108.372H63.6195V107.688H61.5315V108.372H59.1675V109.776H66.0075V108.372ZM70.0155 110.244H68.8395V108H66.8115V115.056H68.8395V112.128H70.0155V110.244ZM66.2235 114.648V113.172C65.5875 113.448 64.5315 113.544 63.5835 113.544V113.16C64.8195 112.98 65.6475 112.464 65.6475 111.612C65.6475 110.556 64.3635 110.004 62.5995 110.004C60.8355 110.004 59.5515 110.556 59.5515 111.612C59.5515 112.464 60.3675 112.98 61.5915 113.148V113.544H59.1915V115.02H63.5355C64.5555 115.02 65.5875 114.924 66.2235 114.648ZM61.4355 111.612C61.4355 111.408 61.8915 111.312 62.5995 111.312C63.3075 111.312 63.7635 111.408 63.7635 111.612C63.7635 111.816 63.3075 111.912 62.5995 111.912C61.8915 111.912 61.4355 111.816 61.4355 111.612ZM59.7435 116.916H66.7995V118.368H68.8395V115.416H59.7435V116.916ZM80.6465 108H78.6185V115.584H80.6465V108ZM74.0705 108.012C72.0665 108.012 70.6985 109.236 70.6985 111.084C70.6985 112.944 72.0665 114.156 74.0705 114.156C76.0745 114.156 77.4425 112.944 77.4425 111.084C77.4425 109.236 76.0745 108.012 74.0705 108.012ZM74.0705 109.704C74.8505 109.704 75.4265 110.196 75.4265 111.084C75.4265 111.972 74.8505 112.464 74.0705 112.464C73.2905 112.464 72.7145 111.972 72.7145 111.084C72.7145 110.196 73.2905 109.704 74.0705 109.704ZM73.6625 114.66H71.5985V118.248H80.7905V116.424H73.6625V114.66ZM86.8615 107.964H84.7855V109.236H82.4935V111.084H89.1415V109.236H86.8615V107.964ZM93.1015 111.744H91.9015V108H89.8735V118.248H91.9015V113.712H93.1015V111.744ZM85.8175 111.504C83.9695 111.504 82.8415 112.884 82.8415 114.696C82.8415 116.52 83.9695 117.888 85.8175 117.888C87.6655 117.888 88.7935 116.52 88.7935 114.696C88.7935 112.884 87.6655 111.504 85.8175 111.504ZM85.8175 116.148C85.1575 116.148 84.7735 115.572 84.7735 114.696C84.7735 113.82 85.1575 113.244 85.8175 113.244C86.4775 113.244 86.8615 113.82 86.8615 114.696C86.8615 115.572 86.4775 116.148 85.8175 116.148ZM101.512 114.996H103.624V108.24H94.3604V110.124H101.512V114.996ZM99.2564 115.992V111.984H97.1564V115.992H93.8204V117.888H104.188V115.992H99.2564ZM117.043 108V118.248H118.927V108H117.043ZM114.499 110.016H113.359C112.975 108.696 112.243 108.12 111.211 108.12C109.591 108.12 108.727 109.512 108.727 113.004C108.727 116.508 109.591 117.888 111.211 117.888C112.315 117.888 113.071 117.24 113.443 115.716H114.499V118.068H116.347V108.048H114.499V110.016ZM111.211 116.064C110.755 116.064 110.587 115.128 110.587 113.004C110.587 110.88 110.755 109.944 111.211 109.944C111.667 109.944 111.835 110.88 111.835 113.004C111.835 115.128 111.667 116.064 111.211 116.064ZM113.683 113.832C113.695 113.568 113.695 113.292 113.695 113.004C113.695 112.608 113.683 112.236 113.659 111.9H114.499V113.832H113.683ZM128.574 108V111.768H127.722V108.048H125.85V118.068H127.722V113.688H128.574V118.248H130.47V108H128.574ZM120.45 117.768H125.106V108.24H120.45V117.768ZM122.334 110.076H123.234V115.932H122.334V110.076ZM135.329 107.964H133.313V109.26H131.573V111.072H137.045V109.26H135.329V107.964ZM140.153 108V111.768H139.325V108.048H137.489V118.068H139.325V113.688H140.153V118.248H142.013V108H140.153ZM134.357 111.48C132.929 111.48 131.861 112.536 131.861 114.684C131.861 116.832 132.929 117.888 134.357 117.888C135.785 117.888 136.877 116.832 136.877 114.684C136.877 112.536 135.785 111.48 134.357 111.48ZM134.357 116.148C133.961 116.148 133.673 115.632 133.673 114.684C133.673 113.736 133.961 113.22 134.357 113.22C134.753 113.22 135.065 113.736 135.065 114.684C135.065 115.632 134.753 116.148 134.357 116.148ZM149.572 115.992V114.432H153.16V108.24H151.168V109.548H145.912V108.24H143.92V114.432H147.508V115.992H143.356V117.888H153.724V115.992H149.572ZM145.912 111.336H151.168V112.62H145.912V111.336ZM163.191 108V118.248H165.099V108H163.191ZM160.515 111.144H159.387V113.064H160.515V116.412L158.391 112.344C158.547 111.168 158.631 109.812 158.631 108.276L156.711 108.204C156.711 112.68 156.039 115.524 154.899 115.704V117.768C156.183 117.708 157.143 116.796 157.767 115.08L159.039 117.672L160.515 116.952V118.068H162.399V108.048H160.515V111.144ZM174.806 116.028V113.808C175.826 113.232 176.414 112.344 176.414 111.276C176.414 109.344 174.506 108.012 171.626 108.012C168.746 108.012 166.838 109.344 166.838 111.276C166.838 112.344 167.426 113.232 168.446 113.808V116.028H166.442V117.888H176.81V116.028H174.806ZM171.626 109.836C173.174 109.836 174.266 110.4 174.266 111.276C174.266 112.14 173.174 112.716 171.626 112.716C170.078 112.716 168.986 112.14 168.986 111.276C168.986 110.4 170.078 109.836 171.626 109.836ZM170.474 114.456C170.834 114.504 171.218 114.528 171.626 114.528C172.034 114.528 172.418 114.504 172.778 114.456V116.028H170.474V114.456Z" fill="#C7C7CB"/>
<path d="M92.0616 168.793H85.5816V166.453H91.9616V165.543H84.5716V169.703H92.0616V168.793ZM92.5116 170.703H83.9816V171.643H87.7316V174.073H88.7416V171.643H92.5116V170.703ZM101.621 167.583H95.2008V166.233H101.521V165.433H94.2108V168.383H101.621V167.583ZM102.131 169.993V169.193H93.6008V169.993H97.3708V170.783C95.5508 170.843 94.0808 171.253 94.0808 172.333C94.0808 173.503 95.8208 173.903 97.8608 173.903C99.9008 173.903 101.601 173.503 101.601 172.333C101.601 171.263 100.171 170.843 98.3508 170.783V169.993H102.131ZM100.561 172.333C100.561 172.923 99.2508 173.123 97.8608 173.123C96.4708 173.123 95.1208 172.923 95.1208 172.333C95.1208 171.753 96.4708 171.553 97.8608 171.553C99.2508 171.553 100.561 171.753 100.561 172.333ZM112.15 168.713H110.97V165.333H109.98V173.873H110.97V169.663H112.15V168.713ZM107.42 171.103H108.42V165.663H103.53V166.583H107.42V171.103ZM105.71 172.433V168.813H104.71V172.433H103.22V173.363H106.48C107.65 173.363 108.66 173.253 109.27 173.003V172.073C108.66 172.333 107.62 172.433 106.47 172.433H105.71ZM121.412 166.053H119.012V165.183H118.012V166.053H115.612V166.823H121.412V166.053ZM124.572 167.403H123.372V165.333H122.382V170.423H123.372V168.343H124.572V167.403ZM118.512 170.353C119.922 170.353 121.012 169.793 121.012 168.833C121.012 167.843 119.922 167.273 118.512 167.273C117.092 167.273 116.002 167.843 116.002 168.833C116.002 169.793 117.092 170.353 118.512 170.353ZM118.512 168.003C119.462 168.003 120.072 168.353 120.072 168.833C120.072 169.293 119.462 169.623 118.512 169.623C117.552 169.623 116.952 169.293 116.952 168.833C116.952 168.353 117.552 168.003 118.512 168.003ZM116.232 173.763H123.372V170.893H116.232V173.763ZM117.212 171.683H122.392V172.973H117.212V171.683ZM132.621 165.333V173.873H133.521V165.333H132.621ZM130.791 168.673H129.741C129.751 168.393 129.751 168.113 129.751 167.813V165.643H127.821V166.483H128.841V167.913C128.841 170.653 128.531 172.303 127.511 172.483V173.343C128.931 173.183 129.521 171.863 129.691 169.583H130.791V173.723H131.691V165.383H130.791V168.673ZM127.401 165.643H125.351V166.483H126.491L126.501 167.783C126.521 170.203 126.311 172.003 125.351 172.183V173.043C127.041 172.843 127.431 170.803 127.411 167.693L127.401 165.643ZM138.34 165.313H137.33V166.683H135.07V167.563H140.61V166.683H138.34V165.313ZM143.81 168.793H142.61V165.333H141.62V173.873H142.61V169.743H143.81V168.793ZM137.84 168.243C136.45 168.243 135.46 169.283 135.46 170.853C135.46 172.423 136.45 173.463 137.84 173.463C139.23 173.463 140.21 172.423 140.21 170.853C140.21 169.283 139.23 168.243 137.84 168.243ZM137.84 172.603C137.04 172.603 136.42 171.943 136.42 170.853C136.42 169.763 137.04 169.103 137.84 169.103C138.63 169.103 139.25 169.763 139.25 170.853C139.25 171.943 138.63 172.603 137.84 172.603ZM145.109 168.643H152.499V167.763H146.109V165.333H145.109V168.643ZM144.499 170.463H153.029V169.583H144.499V170.463ZM145.089 173.773H152.589V172.893H146.099V171.223H145.089V173.773ZM84.8307 181.693H85.8107V175.333H84.8307V176.433H83.5707V177.273H84.8307V178.283H83.5707V179.123H84.8307V181.693ZM83.5307 180.073V179.243C83.2207 179.353 82.8107 179.433 82.3107 179.493V176.383H83.3007V175.543H77.8607V176.383H78.8307V179.553H77.8307V180.393H80.7707C82.0107 180.393 82.9907 180.263 83.5307 180.073ZM79.7807 176.383H81.3607V179.543C81.1907 179.553 81.0207 179.553 80.8407 179.553H79.7807V176.383ZM79.5407 182.873V181.163H78.5407V183.763H86.0107V182.873H79.5407ZM94.3698 183.873H95.3598V175.333H94.3698V183.873ZM87.8798 183.363H91.3398C92.1698 183.363 93.0598 183.213 93.5798 182.953V182.043C93.0598 182.293 92.1798 182.453 91.3698 182.453H88.8698V179.893H92.6898V175.643H87.8598V176.553H91.6998V178.983H87.8798V183.363ZM102.779 176.143H100.379V175.183H99.379V176.143H96.979V176.953H102.779V176.143ZM104.739 177.673V175.333H103.749V181.733H104.739V178.623H105.939V177.673H104.739ZM99.879 180.933C101.299 180.933 102.399 180.303 102.399 179.183C102.399 178.063 101.299 177.433 99.879 177.433C98.459 177.433 97.349 178.063 97.349 179.183C97.349 180.303 98.459 180.933 99.879 180.933ZM99.879 178.193C100.839 178.193 101.449 178.613 101.449 179.183C101.449 179.763 100.839 180.173 99.879 180.173C98.919 180.173 98.309 179.763 98.309 179.183C98.309 178.613 98.919 178.193 99.879 178.193ZM98.599 181.423H97.599V183.763H104.969V182.883H98.599V181.423ZM116.341 178.333H117.331V175.433H110.001V176.273H116.341V178.333ZM113.631 178.933V177.263H112.631V178.933H109.431V179.753H117.961V178.933H113.631ZM113.691 180.553C111.651 180.553 109.941 180.983 109.941 182.213C109.941 183.413 111.651 183.883 113.691 183.883C115.731 183.883 117.441 183.413 117.441 182.213C117.441 181.023 115.731 180.553 113.691 180.553ZM113.691 183.093C112.311 183.093 110.981 182.823 110.981 182.213C110.981 181.583 112.311 181.343 113.691 181.343C115.071 181.343 116.401 181.613 116.401 182.213C116.401 182.823 115.071 183.093 113.691 183.093ZM124.66 178.623L124.6 179.503H126.11V181.683H127.09V175.333H126.11V176.323H124.6L124.66 177.203H126.11V178.623H124.66ZM124.39 177.903C124.39 176.473 123.39 175.423 121.75 175.423C120.1 175.423 119.1 176.473 119.1 177.903C119.1 179.333 120.1 180.383 121.75 180.383C123.39 180.383 124.39 179.333 124.39 177.903ZM120.09 177.903C120.09 176.893 120.74 176.253 121.75 176.253C122.75 176.253 123.4 176.893 123.4 177.903C123.4 178.913 122.75 179.543 121.75 179.543C120.74 179.543 120.09 178.913 120.09 177.903ZM120.92 182.873V180.973H119.92V183.763H127.27V182.873H120.92ZM140.402 178.793H139.202V175.333H138.212V183.873H139.202V179.743H140.402V178.793ZM132.852 182.453V179.893H136.592V175.643H131.852V176.553H135.602V178.983H131.872V183.363H135.242C136.062 183.363 136.952 183.213 137.472 182.953V182.053C136.952 182.303 136.072 182.453 135.262 182.453H132.852ZM148.071 183.873H149.071V175.333H148.071V183.873ZM144.041 183.473C145.551 183.473 146.621 182.213 146.621 179.503C146.621 176.793 145.551 175.533 144.041 175.533C142.521 175.533 141.451 176.793 141.451 179.503C141.451 182.213 142.521 183.473 144.041 183.473ZM144.041 182.563C143.131 182.563 142.441 181.673 142.441 179.503C142.441 177.343 143.131 176.443 144.041 176.443C144.931 176.443 145.631 177.343 145.631 179.503C145.631 181.673 144.931 182.563 144.041 182.563ZM158.79 179.773H157.28V176.613H158.7V175.693H151.24V176.613H152.66V179.773H151.15V180.683H158.79V179.773ZM153.66 176.613H156.28V179.773H153.66V176.613ZM150.71 182.523V183.463H159.24V182.523H150.71Z" fill="#E3E4E8"/>
<rect x="22" y="46" width="75" height="379" fill="url(#paint0_linear_1946_38141)"/>
<rect x="135" y="55" width="4" height="4" rx="2" fill="white"/>
<defs>
<filter id="filter0_di_1946_38141" x="0" y="0" width="243" height="472" filterUnits="userSpaceOnUse" color-interpolation-filters="sRGB">
<feFlood flood-opacity="0" result="BackgroundImageFix"/>
<feColorMatrix in="SourceAlpha" type="matrix" values="0 0 0 0 0 0 0 0 0 0 0 0 0 0 0 0 0 0 127 0" result="hardAlpha"/>
<feOffset dx="3" dy="4"/>
<feGaussianBlur stdDeviation="5"/>
<feComposite in2="hardAlpha" operator="out"/>
<feColorMatrix type="matrix" values="0 0 0 0 0 0 0 0 0 0 0 0 0 0 0 0 0 0 0.07 0"/>
<feBlend mode="normal" in2="BackgroundImageFix" result="effect1_dropShadow_1946_38141"/>
<feBlend mode="normal" in="SourceGraphic" in2="effect1_dropShadow_1946_38141" result="shape"/>
<feColorMatrix in="SourceAlpha" type="matrix" values="0 0 0 0 0 0 0 0 0 0 0 0 0 0 0 0 0 0 127 0" result="hardAlpha"/>
<feOffset dx="2" dy="2"/>
<feGaussianBlur stdDeviation="5"/>
<feComposite in2="hardAlpha" operator="arithmetic" k2="-1" k3="1"/>
<feColorMatrix type="matrix" values="0 0 0 0 0.704167 0 0 0 0 0.704167 0 0 0 0 0.704167 0 0 0 0.05 0"/>
<feBlend mode="normal" in2="shape" result="effect2_innerShadow_1946_38141"/>
</filter>
<filter id="filter1_d_1946_38141" x="108.563" y="53.1615" width="26.9133" height="28.2417" filterUnits="userSpaceOnUse" color-interpolation-filters="sRGB">
<feFlood flood-opacity="0" result="BackgroundImageFix"/>
<feColorMatrix in="SourceAlpha" type="matrix" values="0 0 0 0 0 0 0 0 0 0 0 0 0 0 0 0 0 0 127 0" result="hardAlpha"/>
<feOffset dx="1.7767" dy="2.36893"/>
<feGaussianBlur stdDeviation="2.07282"/>
<feComposite in2="hardAlpha" operator="out"/>
<feColorMatrix type="matrix" values="0 0 0 0 0 0 0 0 0 0 0 0 0 0 0 0 0 0 0.15 0"/>
<feBlend mode="normal" in2="BackgroundImageFix" result="effect1_dropShadow_1946_38141"/>
<feBlend mode="normal" in="SourceGraphic" in2="effect1_dropShadow_1946_38141" result="shape"/>
</filter>
<linearGradient id="paint0_linear_1946_38141" x1="43.1207" y1="235.5" x2="97" y2="235.5" gradientUnits="userSpaceOnUse">
<stop stop-color="white"/>
<stop offset="1" stop-color="white" stop-opacity="0"/>
</linearGradient>
<clipPath id="clip0_1946_38141">
<rect width="104.619" height="29" fill="white" transform="translate(209.19 285)"/>
</clipPath>
<clipPath id="clip1_1946_38141">
<rect width="104.619" height="29" fill="white" transform="translate(367.19 285)"/>
</clipPath>
<clipPath id="clip2_1946_38141">
<rect width="104.619" height="29" fill="white" transform="translate(51.1904 285)"/>
</clipPath>
</defs>
</svg>
