<svg width="100%" height="100%" viewBox="0 0 390 223" fill="none" xmlns="http://www.w3.org/2000/svg">
<rect width="390" height="223" fill="#F8F8FA"/>
<mask id="mask0_1951_39162" style="mask-type:alpha" maskUnits="userSpaceOnUse" x="0" y="0" width="390" height="223">
<rect width="390" height="223" fill="#F8F8FA"/>
</mask>
<g mask="url(#mask0_1951_39162)">
<path d="M-18 31.1765C-18 25.0039 -12.9609 20 -6.74483 20H106.745C112.961 20 118 25.0039 118 31.1765V198.824C118 204.996 112.961 210 106.745 210H-6.74483C-12.9609 210 -18 204.996 -18 198.824V31.1765Z" fill="#121212"/>
<path d="M-22 25.1765C-22 19.0039 -16.9979 14 -10.8276 14H101.828C107.998 14 113 19.0039 113 25.1765V192.824C113 198.996 107.998 204 101.828 204H-10.8276C-16.9979 204 -22 198.996 -22 192.824V25.1765Z" fill="#E3E4E8"/>
<path fill-rule="evenodd" clip-rule="evenodd" d="M101.828 14.9314H-10.8276C-16.4837 14.9314 -21.069 19.5183 -21.069 25.1765V192.824C-21.069 198.482 -16.4837 203.069 -10.8276 203.069H101.828C107.484 203.069 112.069 198.482 112.069 192.824V25.1765C112.069 19.5183 107.484 14.9314 101.828 14.9314ZM-10.8276 14C-16.9979 14 -22 19.0039 -22 25.1765V192.824C-22 198.996 -16.9979 204 -10.8276 204H101.828C107.998 204 113 198.996 113 192.824V25.1765C113 19.0039 107.998 14 101.828 14H-10.8276Z" fill="#121212"/>
<path d="M130 31.1765C130 25.0039 135.002 20 141.172 20H253.828C259.998 20 265 25.0039 265 31.1765V198.824C265 204.996 259.998 210 253.828 210H141.172C135.002 210 130 204.996 130 198.824V31.1765Z" fill="#121212"/>
<path d="M277 31.1765C277 25.0039 282.002 20 288.172 20H400.828C406.998 20 412 25.0039 412 31.1765V198.824C412 204.996 406.998 210 400.828 210H288.172C282.002 210 277 204.996 277 198.824V31.1765Z" fill="#121212"/>
<path d="M125 25.1765C125 19.0039 130.002 14 136.172 14H248.828C254.998 14 260 19.0039 260 25.1765V192.824C260 198.996 254.998 204 248.828 204H136.172C130.002 204 125 198.996 125 192.824V25.1765Z" fill="#25F3CF"/>
<path fill-rule="evenodd" clip-rule="evenodd" d="M248.828 14.9314H136.172C130.516 14.9314 125.931 19.5183 125.931 25.1765V192.824C125.931 198.482 130.516 203.069 136.172 203.069H248.828C254.484 203.069 259.069 198.482 259.069 192.824V25.1765C259.069 19.5183 254.484 14.9314 248.828 14.9314ZM136.172 14C130.002 14 125 19.0039 125 25.1765V192.824C125 198.996 130.002 204 136.172 204H248.828C254.998 204 260 198.996 260 192.824V25.1765C260 19.0039 254.998 14 248.828 14H136.172Z" fill="#121212"/>
<path d="M272 25.1765C272 19.0039 277.039 14 283.255 14H396.745C402.961 14 408 19.0039 408 25.1765V192.824C408 198.996 402.961 204 396.745 204H283.255C277.039 204 272 198.996 272 192.824V25.1765Z" fill="white"/>
<path fill-rule="evenodd" clip-rule="evenodd" d="M396.745 14.9314H283.255C277.557 14.9314 272.938 19.5183 272.938 25.1765V192.824C272.938 198.482 277.557 203.069 283.255 203.069H396.745C402.443 203.069 407.062 198.482 407.062 192.824V25.1765C407.062 19.5183 402.443 14.9314 396.745 14.9314ZM283.255 14C277.039 14 272 19.0039 272 25.1765V192.824C272 198.996 277.039 204 283.255 204H396.745C402.961 204 408 198.996 408 192.824V25.1765C408 19.0039 402.961 14 396.745 14H283.255Z" fill="#121212"/>
<g clip-path="url(#clip0_1951_39162)">
<path d="M165.485 156.137V171.704H165.471C165.407 172.232 164.976 172.643 164.449 172.643C163.923 172.643 163.492 172.234 163.428 171.704H163.414V156.045H158.461V171.789C158.461 175.219 161.143 178 164.449 178C167.756 178 170.437 175.219 170.437 171.789V151C167.703 151 165.485 153.301 165.485 156.137Z" fill="#121212"/>
<path d="M222.593 172.863V157.296H222.579C222.515 156.768 222.084 156.357 221.558 156.357C221.031 156.357 220.6 156.766 220.536 157.296H220.523V178H215.57V157.211C215.57 153.781 218.251 151 221.558 151C224.864 151 227.546 153.781 227.546 157.211V178C224.809 178 222.593 175.699 222.593 172.863Z" fill="#121212"/>
<path d="M235.917 158.329C235.408 158.263 235.011 157.816 235.011 157.27C235.011 156.724 235.406 156.276 235.917 156.21V156.196H236.87C239.606 156.196 241.823 153.895 241.823 151.059H235.835C232.528 151.059 229.847 153.84 229.847 157.27C229.847 160.699 232.528 163.481 235.835 163.481H236.87V165.493L236.863 172.849H229.849V177.986H232.198L236.858 178H236.961H236.991H241.825V163.481V158.344H235.919V158.329H235.917Z" fill="#121212"/>
<path d="M156.135 157.244C156.135 153.814 153.454 151.033 150.147 151.033L149.144 151H144.178V178H150.179C153.486 178 156.167 175.219 156.167 171.789L156.135 157.244ZM151.215 172.856H149.144V156.215H151.215V164.897C151.215 164.912 151.217 164.928 151.219 164.942C151.219 164.997 151.217 165.051 151.215 165.105V172.856Z" fill="#121212"/>
<path d="M184.689 157.244C184.689 153.814 182.007 151.033 178.701 151.033L177.697 151H172.731V178H178.733C182.039 178 184.72 175.219 184.72 171.789L184.689 157.244ZM179.768 172.856H177.697V156.215H179.768V164.897C179.768 164.912 179.77 164.928 179.772 164.942C179.772 164.997 179.77 165.051 179.768 165.105V172.856Z" fill="#121212"/>
<path d="M198.992 167.844V157.27C198.992 153.84 196.311 151.059 193.005 151.059C189.698 151.059 187.017 153.84 187.017 157.27V164.994V171.789C187.017 175.219 189.698 178 193.005 178C196.311 178 198.992 175.219 198.992 171.789V167.844ZM194.04 171.704H194.026C193.962 172.231 193.531 172.643 193.005 172.643C192.478 172.643 192.047 172.234 191.983 171.704H191.969V164.994V157.355H191.983C192.047 156.828 192.478 156.416 193.005 156.416C193.531 156.416 193.962 156.825 194.026 157.355H194.04V167.842V171.702V171.704Z" fill="#121212"/>
<path d="M213.269 167.844V157.27C213.269 153.84 210.588 151.059 207.281 151.059C203.975 151.059 201.293 153.84 201.293 157.27V164.994V171.789C201.293 175.219 203.975 178 207.281 178C210.588 178 213.269 175.219 213.269 171.789V167.844ZM208.317 171.704H208.303C208.239 172.231 207.808 172.643 207.281 172.643C206.755 172.643 206.324 172.234 206.26 171.704H206.246V164.994V157.355H206.26C206.324 156.828 206.755 156.416 207.281 156.416C207.808 156.416 208.239 156.825 208.303 157.355H208.317V167.842V171.702V171.704Z" fill="#121212"/>
</g>
<path fill-rule="evenodd" clip-rule="evenodd" d="M242 54L144 54L144 53L242 53L242 54Z" fill="#121212"/>
<path d="M154.544 40.3547H146.088V37.4096H154.414V36.2643H144.77V41.5H154.544V40.3547ZM155.131 42.7586H144V43.9416H148.894V47H150.212V43.9416H155.131V42.7586Z" fill="#121212"/>
<path d="M167.019 38.8318H158.641V37.1327H166.888V36.1259H157.349V39.8387H167.019V38.8318ZM167.684 41.865V40.8581H156.553V41.865H161.473V42.8593C159.097 42.9348 157.179 43.4508 157.179 44.8101C157.179 46.2826 159.45 46.786 162.112 46.786C164.774 46.786 166.993 46.2826 166.993 44.8101C166.993 43.4634 165.126 42.9348 162.751 42.8593V41.865H167.684ZM165.635 44.8101C165.635 45.5526 163.926 45.8043 162.112 45.8043C160.298 45.8043 158.536 45.5526 158.536 44.8101C158.536 44.0801 160.298 43.8284 162.112 43.8284C163.926 43.8284 165.635 44.0801 165.635 44.8101Z" fill="#121212"/>
<path d="M181.793 41.0343H183.085V36.1007H173.533V37.1453H181.793V38.6934H173.533V39.7128H181.793V41.0343ZM178.283 41.7391V40.2918H176.978V41.7391H172.763V42.7963H183.894V41.7391H178.283ZM174.851 43.6899H173.533V46.6224H183.32V45.5652H174.851V43.6899Z" fill="#121212"/>
<path d="M194.516 36V39.889H191.645V41.0595H194.516V46.7483H195.808V36H194.516ZM189.975 36.3146L188.657 36.2643C188.643 40.7826 187.547 44.4954 185.407 44.8352V46.1064C187.169 45.968 188.513 44.4451 189.27 41.9027L192.049 46.1316L193.133 45.4519L189.648 40.3169C189.857 39.1213 189.975 37.7872 189.975 36.3146Z" fill="#121212"/>
<path d="M208.439 42.1419H199.904V40.3673H208.126V39.2723H199.904V37.5103H208.269V36.3902H198.612V43.262H208.439V42.1419ZM197.869 45.087V46.2323H209V45.087H197.869Z" fill="#121212"/>
<path d="M144.33 73.0295H149.032V72.2335H145.581V72.1738L147.241 70.4724C148.522 69.159 148.897 68.5322 148.902 67.7263C148.897 66.6069 147.967 65.7263 146.651 65.7263C145.341 65.7263 144.35 66.582 144.36 67.8556H145.21C145.215 67.0497 145.756 66.5074 146.621 66.5024C147.436 66.5074 148.057 66.985 148.062 67.7263C148.057 68.3929 147.646 68.8804 146.791 69.7859L144.32 72.3728L144.33 73.0295Z" fill="#121212"/>
<path d="M152.713 73.129C154.319 73.129 155.244 71.7858 155.244 69.4277C155.244 67.0895 154.304 65.7263 152.713 65.7263C151.118 65.7263 150.177 67.0895 150.182 69.4277C150.177 71.7858 151.108 73.129 152.713 73.129ZM151.053 69.4277C151.058 67.5621 151.673 66.5074 152.713 66.5024C153.754 66.5074 154.369 67.5621 154.364 69.4277C154.369 71.2933 153.759 72.333 152.713 72.333C151.663 72.333 151.058 71.2933 151.053 69.4277Z" fill="#121212"/>
<path d="M156.445 73.0295H161.147V72.2335H157.695V72.1738L159.356 70.4724C160.637 69.159 161.012 68.5322 161.017 67.7263C161.012 66.6069 160.081 65.7263 158.766 65.7263C157.455 65.7263 156.465 66.582 156.475 67.8556H157.325C157.33 67.0497 157.871 66.5074 158.736 66.5024C159.551 66.5074 160.171 66.985 160.176 67.7263C160.171 68.3929 159.761 68.8804 158.906 69.7859L156.435 72.3728L156.445 73.0295Z" fill="#121212"/>
<path d="M164.958 73.129C166.404 73.129 167.484 72.2534 167.479 71.0694C167.484 70.154 166.914 69.4824 165.969 69.3381V69.2884C166.729 69.0745 167.209 68.4775 167.199 67.6566C167.209 66.6268 166.369 65.7263 164.988 65.7263C163.703 65.7263 162.632 66.4925 162.587 67.6367H163.458C163.498 66.9303 164.203 66.5074 164.978 66.5024C165.804 66.5074 166.334 66.985 166.329 67.7064C166.334 68.4476 165.719 68.9401 164.838 68.9401H164.248V69.7262H164.838C165.964 69.7312 166.594 70.2834 166.599 71.0694C166.594 71.8206 165.904 72.333 164.948 72.333C164.083 72.333 163.398 71.9052 163.348 71.2187H162.437C162.482 72.3629 163.518 73.129 164.958 73.129Z" fill="#121212"/>
<path d="M175.833 65H175.042V66.1641H172.481V66.791H175.042V67.8556H172.481V68.4824H175.042V71.547H175.833V65ZM168.99 70.2336H169.66C170.966 70.2237 172.176 70.164 173.622 69.8953L173.542 69.2486C172.186 69.4924 171.006 69.562 169.78 69.567V65.6368H168.99V70.2336ZM170.1 73.6464H176.073V72.9897H170.891V70.9898H170.1V73.6464Z" fill="#121212"/>
<path d="M151.103 92.3856H145.931V90.2464H150.983V89.5997H145.13V93.0125H151.103V92.3856ZM144 94.8233H147.661V97.8879H148.432V94.8233H152.143V94.1865H144V94.8233Z" fill="#121212"/>
<path d="M160.977 93.2115H152.864V93.8582H156.525V94.7338C154.839 94.8134 153.839 95.3755 153.844 96.3059C153.839 97.3357 154.994 97.8978 156.915 97.8978C158.821 97.8978 159.966 97.3357 159.976 96.3059C159.966 95.3755 158.976 94.8134 157.305 94.7338V93.8582H160.977V93.2115ZM153.894 92.3956H160.026V91.7687H154.664V90.1171H159.966V89.4902H153.894V92.3956ZM154.644 96.3059C154.634 95.689 155.49 95.3407 156.915 95.3407C158.326 95.3407 159.181 95.689 159.186 96.3059C159.181 96.9277 158.326 97.2959 156.915 97.2909C155.49 97.2959 154.634 96.9277 154.644 96.3059Z" fill="#121212"/>
<path d="M167.419 91.4503V89.8385H166.619V91.4503C166.614 93.0821 165.584 94.7835 164.278 95.4203L164.788 96.0472C165.799 95.5148 166.634 94.3806 167.029 93.0572C167.424 94.3159 168.26 95.3706 169.27 95.888L169.74 95.2512C168.45 94.6641 167.414 93.0523 167.419 91.4503ZM168.77 92.7339H170.881V97.9376H171.661V89.0723H170.881V92.0971H168.77V92.7339Z" fill="#121212"/>
<path d="M180.475 89.0723H179.684V97.9376H180.475V89.0723ZM173.662 95.7984H177.864V89.8285H177.093V92.1667H174.442V89.8285H173.662V95.7984ZM174.442 95.1417V92.7936H177.093V95.1417H174.442Z" fill="#121212"/>
<path d="M186.427 90.3757V89.6992H185.607V90.3757C185.602 91.8981 183.876 93.2363 182.335 93.5299L182.695 94.1865C184.041 93.8731 185.447 92.9279 186.027 91.6294C186.602 92.9279 188.013 93.8781 189.358 94.1865L189.718 93.5299C188.173 93.2413 186.432 91.8931 186.427 90.3757ZM181.995 96.7138H190.138V96.0671H181.995V96.7138Z" fill="#121212"/>
<path d="M151.193 105.372H145.831V102.586H151.103V101.939H145.05V106.019H151.193V105.372ZM144.01 108.755H152.153V108.098H144.01V108.755Z" fill="#121212"/>
<path d="M160.196 101.113H159.406V109.979H160.196V101.113ZM153.444 107.78H154.164C155.965 107.775 157.135 107.715 158.516 107.471L158.436 106.815C157.1 107.054 155.965 107.103 154.234 107.103V102.616H157.675V101.959H153.444V107.78Z" fill="#121212"/>
<path d="M164.108 101.8C162.793 101.805 161.872 103.004 161.877 104.884C161.872 106.77 162.793 107.964 164.108 107.959C165.349 107.964 166.239 106.879 166.324 105.143H168.31V109.979H169.09V101.113H168.31V104.496H166.314C166.194 102.84 165.319 101.805 164.108 101.8ZM162.627 104.884C162.632 103.447 163.233 102.501 164.108 102.496C164.978 102.501 165.589 103.447 165.589 104.884C165.589 106.322 164.978 107.267 164.108 107.262C163.233 107.267 162.632 106.322 162.627 104.884Z" fill="#121212"/>
<path d="M177.193 101.691C175.307 101.7 173.942 102.616 173.942 104.009C173.942 105.322 175.122 106.193 176.803 106.312V108.168H173.142V108.825H181.285V108.168H177.573V106.312C179.264 106.198 180.445 105.327 180.445 104.009C180.445 102.616 179.084 101.7 177.193 101.691ZM174.702 104.009C174.697 103.009 175.753 102.332 177.193 102.337C178.634 102.332 179.684 103.009 179.684 104.009C179.684 105.029 178.634 105.69 177.193 105.7C175.753 105.69 174.697 105.029 174.702 104.009Z" fill="#121212"/>
<path d="M189.328 101.571H182.755V102.208H184.126V104.248H182.785V104.874H189.298V104.248H187.958V102.208H189.328V101.571ZM181.995 106.486H190.098V105.84H181.995V106.486ZM183.046 109.77H189.198V109.113H183.836V107.292H183.046V109.77ZM184.906 104.248V102.208H187.177V104.248H184.906Z" fill="#121212"/>
<path d="M192.289 101.949H191.309L191.379 107.123H192.219L192.289 101.949ZM191.159 108.566C191.149 108.919 191.449 109.208 191.799 109.213C192.154 109.208 192.444 108.919 192.439 108.566C192.444 108.218 192.154 107.929 191.799 107.929C191.449 107.929 191.149 108.218 191.159 108.566Z" fill="#121212"/>
<path d="M152.143 118.299H144V118.945H147.661V122H148.432V118.945H152.143V118.299ZM145.05 117.095H151.083V113.652H145.05V117.095ZM145.821 116.478V114.289H150.303V116.478H145.821Z" fill="#121212"/>
<path d="M161.007 120.249H158.796V118.567H160.186V117.921H154.664V116.488H159.976V113.811H153.864V114.458H159.206V115.841H153.884V118.567H155.154V120.249H152.864V120.906H161.007V120.249ZM155.925 120.249V118.567H158.026V120.249H155.925Z" fill="#121212"/>
<path d="M169.86 120.249H166.149V118.577H169.04V117.931H163.518V116.488H168.83V113.811H162.717V114.458H168.06V115.851H162.737V118.577H165.379V120.249H161.717V120.906H169.86V120.249Z" fill="#121212"/>
<path d="M181.245 116.926H173.142V117.572H181.245V116.926ZM173.582 115.871L173.842 116.488C175.297 116.339 176.663 115.776 177.193 114.886C177.728 115.776 179.099 116.339 180.555 116.488L180.815 115.871C179.234 115.747 177.728 115.055 177.648 114.14H180.525V113.503H173.882V114.14H176.748C176.648 115.055 175.152 115.747 173.582 115.871ZM174.122 118.985H179.434V119.801H174.142V121.901H180.475V121.284H174.922V120.388H180.204V118.388H174.122V118.985Z" fill="#121212"/>
<path d="M186.507 114.12H182.395V114.757H185.717C185.552 116.846 184.371 118.552 182.005 119.692L182.415 120.328C184.516 119.314 185.692 117.871 186.202 116.229H188.578V117.95H186.067V118.597H188.578V122H189.358V113.145H188.578V115.592H186.362C186.462 115.115 186.507 114.622 186.507 114.12Z" fill="#121212"/>
<path d="M198.992 120.219H195.28V118.309H197.992V113.781H197.221V115.383H192.599V113.781H191.809V118.309H194.51V120.219H190.849V120.866H198.992V120.219ZM192.599 117.672V116.02H197.221V117.672H192.599Z" fill="#121212"/>
<path d="M202.343 115.672V113.99H201.583V115.702C201.583 117.219 200.833 118.786 199.602 119.503L200.102 120.09C200.993 119.552 201.653 118.537 201.978 117.358C202.288 118.438 202.904 119.383 203.764 119.901L204.214 119.294C203.034 118.597 202.343 117.08 202.343 115.672ZM203.234 116.995H204.744V121.552H205.485V113.344H204.744V116.329H203.234V116.995ZM206.565 122H207.325V113.155H206.565V122Z" fill="#121212"/>
<path d="M216.699 120.209H214.678V117.801C215.414 117.408 215.859 116.781 215.859 115.99C215.859 114.622 214.508 113.722 212.607 113.712C210.707 113.722 209.356 114.622 209.356 115.99C209.356 116.796 209.816 117.433 210.577 117.826V120.209H208.556V120.866H216.699V120.209ZM210.116 115.99C210.111 115 211.147 114.349 212.607 114.359C214.053 114.349 215.098 115 215.098 115.99C215.098 116.98 214.053 117.642 212.607 117.642C211.147 117.642 210.111 116.98 210.116 115.99ZM211.347 120.209V118.11C211.727 118.209 212.152 118.259 212.607 118.259C213.073 118.259 213.503 118.204 213.888 118.105V120.209H211.347Z" fill="#121212"/>
<path d="M218.85 113.99H217.869L217.94 119.164H218.78L218.85 113.99ZM217.719 120.607C217.709 120.96 218.01 121.249 218.36 121.254C218.715 121.249 219.005 120.96 219 120.607C219.005 120.259 218.715 119.97 218.36 119.97C218.01 119.97 217.709 120.259 217.719 120.607Z" fill="#121212"/>
<g clip-path="url(#clip1_1951_39162)">
<path d="M312.485 156.137V171.704H312.471C312.407 172.232 311.976 172.643 311.449 172.643C310.923 172.643 310.492 172.234 310.428 171.704H310.414V156.045H305.461V171.789C305.461 175.219 308.143 178 311.449 178C314.756 178 317.437 175.219 317.437 171.789V151C314.703 151 312.485 153.301 312.485 156.137Z" fill="#C7C7CB"/>
<path d="M369.593 172.863V157.296H369.579C369.515 156.768 369.084 156.357 368.558 156.357C368.031 156.357 367.6 156.766 367.536 157.296H367.523V178H362.57V157.211C362.57 153.781 365.251 151 368.558 151C371.864 151 374.546 153.781 374.546 157.211V178C371.809 178 369.593 175.699 369.593 172.863Z" fill="#C7C7CB"/>
<path d="M382.917 158.329C382.408 158.263 382.011 157.816 382.011 157.27C382.011 156.724 382.406 156.276 382.917 156.21V156.196H383.87C386.606 156.196 388.823 153.895 388.823 151.059H382.835C379.528 151.059 376.847 153.84 376.847 157.27C376.847 160.699 379.528 163.481 382.835 163.481H383.87V165.493L383.863 172.849H376.849V177.986H379.198L383.858 178H383.961H383.991H388.825V163.481V158.344H382.919V158.329H382.917Z" fill="#C7C7CB"/>
<path d="M303.135 157.244C303.135 153.814 300.454 151.033 297.147 151.033L296.144 151H291.178V178H297.179C300.486 178 303.167 175.219 303.167 171.789L303.135 157.244ZM298.215 172.856H296.144V156.215H298.215V164.897C298.215 164.912 298.217 164.928 298.219 164.942C298.219 164.997 298.217 165.051 298.215 165.105V172.856Z" fill="#C7C7CB"/>
<path d="M331.689 157.244C331.689 153.814 329.007 151.033 325.701 151.033L324.697 151H319.731V178H325.733C329.039 178 331.72 175.219 331.72 171.789L331.689 157.244ZM326.768 172.856H324.697V156.215H326.768V164.897C326.768 164.912 326.77 164.928 326.772 164.942C326.772 164.997 326.77 165.051 326.768 165.105V172.856Z" fill="#C7C7CB"/>
<path d="M345.992 167.844V157.27C345.992 153.84 343.311 151.059 340.005 151.059C336.698 151.059 334.017 153.84 334.017 157.27V164.994V171.789C334.017 175.219 336.698 178 340.005 178C343.311 178 345.992 175.219 345.992 171.789V167.844ZM341.04 171.704H341.026C340.962 172.231 340.531 172.643 340.005 172.643C339.478 172.643 339.047 172.234 338.983 171.704H338.969V164.994V157.355H338.983C339.047 156.828 339.478 156.416 340.005 156.416C340.531 156.416 340.962 156.825 341.026 157.355H341.04V167.842V171.702V171.704Z" fill="#C7C7CB"/>
<path d="M360.269 167.844V157.27C360.269 153.84 357.588 151.059 354.281 151.059C350.975 151.059 348.293 153.84 348.293 157.27V164.994V171.789C348.293 175.219 350.975 178 354.281 178C357.588 178 360.269 175.219 360.269 171.789V167.844ZM355.317 171.704H355.303C355.239 172.231 354.808 172.643 354.281 172.643C353.755 172.643 353.324 172.234 353.26 171.704H353.246V164.994V157.355H353.26C353.324 156.828 353.755 156.416 354.281 156.416C354.808 156.416 355.239 156.825 355.303 157.355H355.317V167.842V171.702V171.704Z" fill="#C7C7CB"/>
</g>
<path fill-rule="evenodd" clip-rule="evenodd" d="M389 54L291 54L291 53L389 53L389 54Z" fill="#C7C7CB"/>
<path d="M302.571 40.5106H294.093V37.6346H302.44V36.5162H292.772V41.629H302.571V40.5106ZM303.16 42.8581H292V44.0134H296.906V47H298.227V44.0134H303.16V42.8581Z" fill="#C7C7CB"/>
<path d="M315.077 39.0235H306.678V37.3642H314.946V36.381H305.383V40.0067H315.077V39.0235ZM315.744 41.9855V41.0022H304.584V41.9855H309.517V42.9564C307.136 43.0302 305.212 43.5341 305.212 44.8615C305.212 46.2994 307.489 46.7911 310.158 46.7911C312.827 46.7911 315.051 46.2994 315.051 44.8615C315.051 43.5464 313.18 43.0302 310.799 42.9564V41.9855H315.744ZM313.69 44.8615C313.69 45.5866 311.976 45.8324 310.158 45.8324C308.339 45.8324 306.573 45.5866 306.573 44.8615C306.573 44.1486 308.339 43.9028 310.158 43.9028C311.976 43.9028 313.69 44.1486 313.69 44.8615Z" fill="#C7C7CB"/>
<path d="M330.347 36.2581V46.7542H331.577V36.2581H330.347ZM327.456 40.2525H325.689V41.3955H327.456V46.5698H328.685V36.3196H327.456V40.2525ZM324.407 37.7453H326.37V36.6391H321.11V37.7453H323.164C323.138 41.7765 322.406 44.5542 320.927 44.9352V46.1274C322.353 45.8939 323.335 44.714 323.884 42.5877L325.873 45.9799L326.932 45.4145L324.211 40.9162C324.329 39.9821 324.394 38.9251 324.407 37.7453Z" fill="#C7C7CB"/>
<path d="M344.148 37.3028H339.648V36H338.313V37.3028H333.839V38.3598H344.148V37.3028ZM334.362 40.9899C334.362 42.3296 336.351 42.9318 338.993 42.9318C341.636 42.9318 343.625 42.3296 343.625 40.9899C343.625 39.638 341.636 39.0358 338.993 39.0358C336.351 39.0358 334.362 39.638 334.362 40.9899ZM342.303 40.9899C342.303 41.6536 340.904 41.9486 338.993 41.9486C337.083 41.9486 335.684 41.6536 335.684 40.9899C335.684 40.314 337.083 40.019 338.993 40.019C340.904 40.019 342.303 40.314 342.303 40.9899ZM344.58 43.6816H333.42V44.7508H336.168V47H337.45V44.7508H340.537V47H341.819V44.7508H344.58V43.6816Z" fill="#C7C7CB"/>
<path d="M358.895 36.2581V40.0559H356.017V41.1989H358.895V46.7542H360.19V36.2581H358.895ZM354.342 36.5654L353.021 36.5162C353.008 40.9285 351.909 44.5542 349.763 44.886V46.1274C351.529 45.9922 352.877 44.505 353.636 42.0223L356.422 46.152L357.508 45.4883L354.015 40.4737C354.224 39.3061 354.342 38.0034 354.342 36.5654Z" fill="#C7C7CB"/>
<path d="M371.388 36.2581V46.7542H372.683V36.2581H371.388ZM367.947 40.1788H364.179V36.5654H362.897V46.1274H369.229V36.5654H367.947V40.1788ZM364.179 45.0089V41.2972H367.947V45.0089H364.179Z" fill="#C7C7CB"/>
<path d="M380.27 39.7855L385.045 42.895L385.751 41.924L380.832 38.8145C381.199 38.114 381.46 37.3397 381.617 36.5285L380.283 36.3073C379.707 39.2447 377.483 41.7028 375.063 41.7028V42.8581C377.117 42.8581 379.014 41.6413 380.27 39.7855ZM374.84 45.1073V46.2503H386V45.1073H374.84Z" fill="#C7C7CB"/>
<path d="M298.194 68.3584H292.956V66.2221H298.073V65.5763H292.145V68.9843H298.194V68.3584ZM291 70.7927H294.709V73.853H295.489V70.7927H299.248V70.1568H291V70.7927Z" fill="#C7C7CB"/>
<path d="M308.196 69.183H299.978V69.8289H303.687V70.7033C301.979 70.7827 300.966 71.3441 300.971 72.2731C300.966 73.3015 302.136 73.8629 304.082 73.8629C306.012 73.8629 307.172 73.3015 307.183 72.2731C307.172 71.3441 306.169 70.7827 304.477 70.7033V69.8289H308.196V69.183ZM301.022 68.3683H307.233V67.7423H301.802V66.093H307.172V65.467H301.022V68.3683ZM301.782 72.2731C301.771 71.6571 302.638 71.3093 304.082 71.3093C305.511 71.3093 306.377 71.6571 306.382 72.2731C306.377 72.8941 305.511 73.2618 304.082 73.2568C302.638 73.2618 301.771 72.8941 301.782 72.2731Z" fill="#C7C7CB"/>
<path d="M313.941 66.0333H309.361V66.6692H313.141C313.146 67.3747 313.126 68.4478 312.877 69.9282L313.678 69.9978C313.936 68.3584 313.936 67.1909 313.941 66.4904V66.0333ZM308.854 71.2895L308.956 71.9353C310.567 71.9452 312.685 71.9055 314.58 71.6174L314.539 71.0311C313.602 71.1404 312.578 71.205 311.58 71.2398V68.5571H310.8V71.2646C310.106 71.2795 309.447 71.2845 308.854 71.2895ZM315.107 73.8828H315.897V69.4215H317.356V68.7459H315.897V65.0497H315.107V73.8828Z" fill="#C7C7CB"/>
<path d="M328.219 65.0497H327.459V73.8828H328.219V65.0497ZM320.406 71.5279L320.913 72.1142C321.815 71.5627 322.468 70.5244 322.793 69.3072C323.107 70.43 323.735 71.3839 324.622 71.9055L325.108 71.3292C323.867 70.6238 323.162 69.0986 323.162 67.5734V66.7388H324.814V66.093H320.66V66.7388H322.392V67.5734C322.397 69.1781 321.663 70.7927 320.406 71.5279ZM324.125 68.875H325.645V73.4257H326.395V65.2683H325.645V68.2391H324.125V68.875Z" fill="#C7C7CB"/>
<path d="M337.217 66.0333H333.974V65H333.194V66.0333H329.911V66.6692H337.217V66.0333ZM329.485 71.3392H331.634V73.9026H332.434V71.3392H334.765V73.9026H335.555V71.3392H337.734V70.6933H329.485V71.3392ZM330.651 68.6366C330.641 69.5706 331.745 70.0972 333.589 70.0972C335.418 70.0972 336.523 69.5706 336.528 68.6366C336.523 67.6976 335.418 67.176 333.589 67.176C331.745 67.176 330.641 67.6976 330.651 68.6366ZM331.472 68.6366C331.461 68.0901 332.247 67.7821 333.589 67.7721C334.917 67.7821 335.697 68.0901 335.707 68.6366C335.697 69.1781 334.917 69.496 333.589 69.4911C332.247 69.496 331.461 69.1781 331.472 68.6366Z" fill="#C7C7CB"/>
<path d="M345.425 65.0497H344.634V73.8828H345.425V69.342H346.935V68.6962H345.425V65.0497ZM338.403 67.1164H343.763V66.4705H341.513V65.159H340.723V66.4705H338.403V67.1164ZM338.919 69.8786C338.914 71.0759 339.847 71.9055 341.128 71.9055C342.4 71.9055 343.327 71.0759 343.337 69.8786C343.327 68.6862 342.4 67.8516 341.128 67.8516C339.847 67.8516 338.914 68.6862 338.919 69.8786ZM339.679 69.8786C339.674 69.0787 340.287 68.5024 341.128 68.5074C341.959 68.5024 342.567 69.0787 342.577 69.8786C342.567 70.6834 341.959 71.2497 341.128 71.2398C340.287 71.2497 339.674 70.6834 339.679 69.8786Z" fill="#C7C7CB"/>
<path d="M351.981 65.8247H347.847V69.9481H351.981V69.1532H354.089V71.5081H354.889V65.0596H354.089V66.6096H351.981V65.8247ZM348.637 69.3222V66.4705H351.201V69.3222H348.637ZM349.063 73.694H355.092V73.0382H349.863V70.9318H349.063V73.694ZM351.981 68.5074V67.2654H354.089V68.5074H351.981Z" fill="#C7C7CB"/>
<path d="M298.478 77.084H297.678V79.568H295.55V77.6702H294.77V79.2401H292.257V77.6702H291.466V82.1116H295.55V80.2237H297.678V83.6218H298.478V77.084ZM292.257 81.4657V79.8561H294.77V81.4657H292.257ZM292.652 85.7183H298.681V85.0625H293.452V82.976H292.652V85.7183Z" fill="#C7C7CB"/>
<path d="M307.436 77.074H306.645V80.6311H304.497V81.2769H306.645V85.9071H307.436V77.074ZM299.988 83.602L300.424 84.2279C303.433 82.7624 304.512 80.5417 304.518 78.0378H300.383V78.6737H303.717C303.555 80.7404 302.425 82.4444 299.988 83.602Z" fill="#C7C7CB"/>
<path d="M317.194 84.1584H313.435V82.4891H316.363V81.8433H310.77V80.4026H316.15V77.7298H309.959V78.3756H315.37V79.7667H309.979V82.4891H312.654V84.1584H308.946V84.8141H317.194V84.1584Z" fill="#C7C7CB"/>
<path d="M322.017 77.2429C320.057 77.2479 318.825 77.859 318.825 78.9122C318.825 79.9455 320.057 80.5566 322.017 80.5516C323.978 80.5566 325.194 79.9455 325.199 78.9122C325.194 77.859 323.978 77.2479 322.017 77.2429ZM317.913 81.8731H321.622V82.8866H318.917V85.7879H325.118V82.8866H322.402V81.8731H326.121V81.2273H317.913V81.8731ZM319.646 78.9122C319.641 78.2514 320.558 77.859 322.017 77.859C323.461 77.859 324.383 78.2514 324.389 78.9122C324.383 79.558 323.461 79.9356 322.017 79.9356C320.558 79.9356 319.641 79.558 319.646 78.9122ZM319.707 85.152V83.5125H324.338V85.152H319.707Z" fill="#C7C7CB"/>
<path d="M331.279 82.2606H330.529V85.7879H333.66V82.2606H332.921V83.3635H331.279V82.2606ZM329.627 79.4984C329.622 80.7106 330.595 81.5353 331.968 81.5353C333.189 81.5353 334.116 80.8497 334.273 79.8064H336.153V81.7539H336.954V77.074H336.153V79.1606H334.268C334.096 78.1421 333.179 77.4715 331.968 77.4715C330.595 77.4715 329.622 78.2912 329.627 79.4984ZM330.387 79.4984C330.387 78.6936 331.041 78.1272 331.968 78.1272C332.875 78.1272 333.529 78.6936 333.529 79.4984C333.529 80.3082 332.875 80.8845 331.968 80.8894C331.041 80.8845 330.387 80.3082 330.387 79.4984ZM331.279 85.1718V83.9597H332.921V85.1718H331.279ZM333.782 85.2613L334.197 85.8574C334.993 85.5246 335.545 84.8986 335.829 84.1782C336.107 84.9085 336.65 85.5345 337.48 85.8574L337.896 85.2613C336.796 84.8638 336.224 83.8851 336.234 82.9561V82.201H335.444V82.9561C335.439 83.8504 334.866 84.8191 333.782 85.2613Z" fill="#C7C7CB"/>
<path d="M345.881 77.074H345.08V85.927H345.881V77.074ZM338.788 80.8398C338.793 82.7226 339.745 83.9149 341.088 83.91C342.425 83.9149 343.393 82.7226 343.388 80.8398C343.393 78.9619 342.425 77.7646 341.088 77.7596C339.745 77.7646 338.793 78.9619 338.788 80.8398ZM339.558 80.8398C339.558 79.404 340.186 78.4601 341.088 78.4551C341.995 78.4601 342.618 79.404 342.618 80.8398C342.618 82.2755 341.995 83.2194 341.088 83.2145C340.186 83.2194 339.558 82.2755 339.558 80.8398Z" fill="#C7C7CB"/>
<path d="M298.934 97.0869H293.543V94.8811H292.753V97.7427H298.934V97.0869ZM291.426 94.0465H294.932V89.8138H294.182V91.2743H292.175V89.8138H291.426V94.0465ZM292.175 93.4205V91.8904H294.182V93.4205H292.175ZM295.955 95.3878H296.705V92.3474H297.901V95.6959H298.661V89.1083H297.901V91.6917H296.705V89.2772H295.955V95.3878Z" fill="#C7C7CB"/>
<path d="M307.253 93.351H301.822V90.5689H307.162V89.923H301.032V93.9968H307.253V93.351ZM299.978 96.7292H308.226V96.0734H299.978V96.7292Z" fill="#C7C7CB"/>
<path d="M313.019 94.6824C311.089 94.6824 309.863 95.2785 309.868 96.3019C309.863 97.3154 311.089 97.9116 313.019 97.9116C314.95 97.9116 316.176 97.3154 316.181 96.3019C316.176 95.2785 314.95 94.6824 313.019 94.6824ZM308.956 93.8577H317.153V93.2218H313.131V91.5128H312.35V93.2218H308.956V93.8577ZM309.929 90.1913H315.319V90.3006C315.319 90.9912 315.319 91.6469 315.076 92.5561L315.856 92.6455C316.105 91.7314 316.105 91.016 316.11 90.3006V89.5554H309.929V90.1913ZM310.658 96.3019C310.653 95.671 311.585 95.2835 313.019 95.2785C314.458 95.2835 315.38 95.671 315.39 96.3019C315.38 96.918 314.458 97.2955 313.019 97.2955C311.585 97.2955 310.653 96.918 310.658 96.3019Z" fill="#C7C7CB"/>
<path d="M325.382 89.1083H324.581V90.4894H322.24C321.82 89.9777 321.161 89.6697 320.396 89.6647C319.048 89.6697 318.05 90.5838 318.055 91.8804C318.05 93.1721 319.048 94.0862 320.396 94.0862C321.166 94.0862 321.835 93.7732 322.25 93.2516H324.581V95.6362H325.382V89.1083ZM318.815 91.8804C318.815 91.0011 319.474 90.3652 320.396 90.3602C321.283 90.3652 321.957 91.0011 321.957 91.8804C321.957 92.7647 321.283 93.3957 320.396 93.3907C319.474 93.3957 318.815 92.7647 318.815 91.8804ZM319.596 97.7427H325.635V97.0869H320.396V94.9507H319.596V97.7427ZM322.6 91.1352H324.581V92.6058H322.605C322.681 92.3822 322.727 92.1388 322.727 91.8804C322.727 91.6122 322.681 91.3638 322.6 91.1352Z" fill="#C7C7CB"/>
<path d="M329.83 89.7442C328.406 89.7492 327.393 90.5937 327.398 91.8208C327.393 93.0529 328.406 93.8925 329.83 93.8974C331.244 93.8925 332.247 93.0529 332.252 91.8208C332.247 90.5937 331.244 89.7492 329.83 89.7442ZM326.932 95.3382L327.043 96.0039C328.665 96.0039 330.879 95.9939 332.941 95.6164L332.88 95.0401C330.889 95.3282 328.594 95.3431 326.932 95.3382ZM328.178 91.8208C328.173 91.0011 328.867 90.4298 329.83 90.4298C330.782 90.4298 331.477 91.0011 331.472 91.8208C331.477 92.6455 330.782 93.2119 329.83 93.2119C328.867 93.2119 328.173 92.6455 328.178 91.8208ZM333.478 97.9513H334.268V89.0984H333.478V97.9513Z" fill="#C7C7CB"/>
<path d="M293.239 106.627H292.449V109.837H298.387V106.627H297.607V107.591H293.239V106.627ZM291.02 104.998L291.132 105.644C291.912 105.644 292.809 105.644 293.756 105.609V106.896H294.547V105.569C295.372 105.519 296.213 105.44 297.029 105.306L296.979 104.749C294.998 104.998 292.733 104.998 291.02 104.998ZM291.426 103.835L291.79 104.451C292.859 104.183 293.685 103.587 294.065 102.797C294.46 103.537 295.286 104.079 296.34 104.312L296.685 103.716C295.388 103.438 294.466 102.693 294.466 101.788V101.341H293.655V101.788C293.65 102.737 292.738 103.537 291.426 103.835ZM293.239 109.201V108.207H297.607V109.201H293.239ZM297.597 106.2H298.387V101.133H297.597V106.2Z" fill="#C7C7CB"/>
<path d="M307.203 102.017H300.849V102.663H306.402V102.901C306.397 103.959 306.397 105.196 306.058 106.886L306.868 106.975C307.193 105.196 307.193 103.984 307.203 102.901V102.017ZM299.978 108.704H308.186V108.058H303.98V104.898H303.2V108.058H299.978V108.704Z" fill="#C7C7CB"/>
<path d="M318.765 101.123H317.974V109.956H318.765V105.246H319.991V104.58H318.765V101.123ZM311.732 107.82H314.235V101.947H313.556V104.233H312.421V101.947H311.732V107.82ZM312.421 107.164V104.859H313.556V107.164H312.421ZM314.722 107.82H317.184V101.947H316.505V104.233H315.4V101.947H314.722V107.82ZM315.4 107.164V104.859H316.505V107.164H315.4Z" fill="#C7C7CB"/>
<path d="M328.756 106.021H320.508V106.667H328.756V106.021ZM321.551 102.057H326.891V103.02H321.582V105.206H327.884V104.59H322.372V103.607H327.692V101.431H321.551V102.057ZM321.602 109.767H327.884V109.111H322.402V107.362H321.602V109.767Z" fill="#C7C7CB"/>
<path d="M298.478 113.147H297.678V115.452H295.864V116.098H297.678V118.413H298.478V113.147ZM291.051 117.708L291.466 118.334C292.54 117.931 293.376 117.107 293.761 116.073C294.151 116.982 294.937 117.728 295.945 118.085L296.36 117.459C295.043 117.017 294.141 115.919 294.141 114.767V114.449H296.158V113.793H291.304V114.449H293.341V114.777C293.341 116.038 292.388 117.236 291.051 117.708ZM292.469 120.331C292.464 121.374 293.614 121.97 295.489 121.98C297.359 121.97 298.509 121.374 298.509 120.331C298.509 119.292 297.359 118.686 295.489 118.691C293.614 118.686 292.464 119.292 292.469 120.331ZM293.26 120.331C293.255 119.685 294.106 119.297 295.489 119.297C296.867 119.297 297.718 119.685 297.718 120.331C297.718 120.972 296.867 121.359 295.489 121.354C294.106 121.359 293.255 120.972 293.26 120.331Z" fill="#C7C7CB"/>
<path d="M303.008 114.816V113.694H302.227V114.786C302.222 116.158 301.321 117.355 299.948 117.827L300.383 118.453C301.447 118.05 302.263 117.241 302.643 116.187C303.043 117.121 303.839 117.867 304.862 118.234L305.267 117.608C303.94 117.156 303.003 116.033 303.008 114.816ZM301.397 121.791H307.436V121.136H302.207V119.049H301.397V121.791ZM306.23 119.675H307.02V116.525H308.378V115.86H307.02V113.147H306.23V119.675Z" fill="#C7C7CB"/>
<path d="M316.373 113.147H315.573V122H316.373V113.147ZM309.28 116.913C309.285 118.796 310.238 119.988 311.58 119.983C312.918 119.988 313.886 118.796 313.88 116.913C313.886 115.035 312.918 113.838 311.58 113.833C310.238 113.838 309.285 115.035 309.28 116.913ZM310.05 116.913C310.05 115.477 310.678 114.533 311.58 114.528C312.487 114.533 313.11 115.477 313.11 116.913C313.11 118.349 312.487 119.292 311.58 119.287C310.678 119.292 310.05 118.349 310.05 116.913Z" fill="#C7C7CB"/>
<path d="M327.489 113.147H326.699V121.98H327.489V117.4H328.948V116.744H327.489V113.147ZM320.578 119.685L321.024 120.301C323.958 118.88 325.154 116.6 325.159 114.101H320.994V114.757H324.353C324.171 116.848 322.904 118.552 320.578 119.685Z" fill="#C7C7CB"/>
<path d="M336.761 115.621H331.401V113.326H330.61V116.267H336.761V115.621ZM329.485 117.946H337.703V117.3H329.485V117.946ZM330.478 120.341C330.473 121.364 331.644 121.94 333.589 121.94C335.52 121.94 336.68 121.364 336.69 120.341C336.68 119.312 335.52 118.736 333.589 118.741C331.644 118.736 330.473 119.312 330.478 120.341ZM331.289 120.341C331.279 119.715 332.145 119.362 333.589 119.357C335.018 119.362 335.884 119.715 335.89 120.341C335.884 120.957 335.018 121.329 333.589 121.334C332.145 121.329 331.279 120.957 331.289 120.341Z" fill="#C7C7CB"/>
<path d="M342.952 114.677H341.098V113.415H340.308V114.677H338.433V115.313H342.952V114.677ZM338.757 117.916C338.757 119.104 339.573 119.938 340.693 119.943C341.828 119.938 342.638 119.104 342.648 117.916C342.638 116.744 341.828 115.914 340.693 115.909C339.573 115.914 338.757 116.744 338.757 117.916ZM339.467 117.916C339.467 117.141 339.978 116.575 340.693 116.565C341.412 116.575 341.939 117.141 341.939 117.916C341.939 118.701 341.412 119.263 340.693 119.258C339.978 119.263 339.467 118.701 339.467 117.916ZM343.418 121.543H344.168V117.519H345.364V121.98H346.124V113.147H345.364V116.873H344.168V113.366H343.418V121.543Z" fill="#C7C7CB"/>
<path d="M355.669 120.192H353.622V117.787C354.367 117.395 354.818 116.769 354.818 115.979C354.818 114.613 353.45 113.713 351.525 113.703C349.6 113.713 348.232 114.613 348.232 115.979C348.232 116.784 348.698 117.42 349.468 117.812V120.192H347.421V120.847H355.669V120.192ZM349.002 115.979C348.997 114.99 350.045 114.339 351.525 114.349C352.989 114.339 354.048 114.99 354.048 115.979C354.048 116.967 352.989 117.628 351.525 117.628C350.045 117.628 348.997 116.967 349.002 115.979ZM350.248 120.192V118.095C350.633 118.195 351.064 118.244 351.525 118.244C351.996 118.244 352.432 118.19 352.822 118.09V120.192H350.248Z" fill="#C7C7CB"/>
<path d="M357.848 113.982H356.855L356.926 119.148H357.777L357.848 113.982ZM356.703 120.589C356.693 120.942 356.997 121.23 357.351 121.235C357.711 121.23 358.005 120.942 358 120.589C358.005 120.241 357.711 119.953 357.351 119.953C356.997 119.953 356.693 120.241 356.703 120.589Z" fill="#C7C7CB"/>
<g clip-path="url(#clip2_1951_39162)">
<path d="M17.4846 156.137V171.704H17.4709C17.407 172.232 16.9761 172.643 16.4493 172.643C15.9226 172.643 15.4916 172.234 15.4278 171.704H15.4141V156.045H10.4614V171.789C10.4614 175.219 13.143 178 16.4493 178C19.7557 178 22.4373 175.219 22.4373 171.789V151C19.7033 151 17.4846 153.301 17.4846 156.137Z" fill="#C7C7CB"/>
<path d="M74.593 172.863V157.296H74.5793C74.5154 156.768 74.0845 156.357 73.5577 156.357C73.031 156.357 72.6 156.766 72.5362 157.296H72.5225V178H67.5698V157.211C67.5698 153.781 70.2514 151 73.5577 151C76.8641 151 79.5457 153.781 79.5457 157.211V178C76.8094 178 74.593 175.699 74.593 172.863Z" fill="#C7C7CB"/>
<path d="M87.9167 158.329C87.4082 158.263 87.0114 157.816 87.0114 157.27C87.0114 156.724 87.4059 156.276 87.9167 156.21V156.196H88.8698C91.6061 156.196 93.8225 153.895 93.8225 151.059H87.8346C84.5282 151.059 81.8467 153.84 81.8467 157.27C81.8467 160.699 84.5282 163.481 87.8346 163.481H88.8698V165.493L88.863 172.849H81.849V177.986H84.1976L88.8584 178H88.961H88.9907H93.8248V163.481V158.344H87.919V158.329H87.9167Z" fill="#C7C7CB"/>
<path d="M8.13533 157.244C8.13533 153.814 5.45376 151.033 2.14741 151.033L1.1441 151H-3.82227L-3.82227 178H2.17933C5.48568 178 8.16725 175.219 8.16725 171.789L8.13533 157.244ZM3.21456 172.856H1.1441L1.1441 156.215H3.21456V164.897C3.21456 164.912 3.21684 164.928 3.21912 164.942C3.21912 164.997 3.21684 165.051 3.21456 165.105L3.21456 172.856Z" fill="#C7C7CB"/>
<path d="M36.6885 157.244C36.6885 153.814 34.007 151.033 30.7006 151.033L29.6973 151H24.731V178H30.7326C34.0389 178 36.7205 175.219 36.7205 171.789L36.6885 157.244ZM31.7678 172.856H29.6973V156.215H31.7678V164.897C31.7678 164.912 31.7701 164.928 31.7723 164.942C31.7723 164.997 31.7701 165.051 31.7678 165.105V172.856Z" fill="#C7C7CB"/>
<path d="M50.9924 167.844V157.27C50.9924 153.84 48.3109 151.059 45.0045 151.059C41.6982 151.059 39.0166 153.84 39.0166 157.27V164.994V171.789C39.0166 175.219 41.6982 178 45.0045 178C48.3109 178 50.9924 175.219 50.9924 171.789V167.844ZM46.0398 171.704H46.0261C45.9622 172.231 45.5313 172.643 45.0045 172.643C44.4778 172.643 44.0468 172.234 43.983 171.704H43.9693V164.994V157.355H43.983C44.0468 156.828 44.4778 156.416 45.0045 156.416C45.5313 156.416 45.9622 156.825 46.0261 157.355H46.0398V167.842V171.702V171.704Z" fill="#C7C7CB"/>
<path d="M65.2693 167.844V157.27C65.2693 153.84 62.5877 151.059 59.2814 151.059C55.975 151.059 53.2935 153.84 53.2935 157.27V164.994V171.789C53.2935 175.219 55.975 178 59.2814 178C62.5877 178 65.2693 175.219 65.2693 171.789V167.844ZM60.3166 171.704H60.3029C60.2391 172.231 59.8081 172.643 59.2814 172.643C58.7546 172.643 58.3237 172.234 58.2598 171.704H58.2461V164.994V157.355H58.2598C58.3237 156.828 58.7546 156.416 59.2814 156.416C59.8081 156.416 60.2391 156.825 60.3029 157.355H60.3166V167.842V171.702V171.704Z" fill="#C7C7CB"/>
</g>
<path fill-rule="evenodd" clip-rule="evenodd" d="M94 54L-4 54L-4 53L94 53L94 54Z" fill="#C7C7CB"/>
<path d="M7.54422 40.3547H-0.912036V37.4096H7.41372V36.2643H-2.23006V41.5H7.54422V40.3547ZM8.13146 42.7586H-3V43.9416H1.89366V47H3.21169V43.9416H8.13146V42.7586Z" fill="#C7C7CB"/>
<path d="M20.0187 38.8318H11.6407V37.1327H19.8882V36.1259H10.3488V39.8387H20.0187V38.8318ZM20.6842 41.865V40.8581H9.55276V41.865H14.4725V42.8593C12.0975 42.9348 10.1791 43.4508 10.1791 44.8101C10.1791 46.2826 12.4498 46.786 15.112 46.786C17.7741 46.786 19.9926 46.2826 19.9926 44.8101C19.9926 43.4634 18.1265 42.9348 15.7514 42.8593V41.865H20.6842ZM18.6354 44.8101C18.6354 45.5526 16.9259 45.8043 15.112 45.8043C13.298 45.8043 11.5363 45.5526 11.5363 44.8101C11.5363 44.0801 13.298 43.8284 15.112 43.8284C16.9259 43.8284 18.6354 44.0801 18.6354 44.8101Z" fill="#C7C7CB"/>
<path d="M34.7935 41.0343H36.0854V36.1007H26.533V37.1453H34.7935V38.6934H26.533V39.7128H34.7935V41.0343ZM31.2831 41.7391V40.2918H29.9781V41.7391H25.763V42.7963H36.8945V41.7391H31.2831ZM27.851 43.6899H26.533V46.6224H36.3203V45.5652H27.851V43.6899Z" fill="#C7C7CB"/>
<path d="M47.5159 36V39.889H44.6449V41.0595H47.5159V46.7483H48.8078V36H47.5159ZM42.9746 36.3146L41.6565 36.2643C41.6435 40.7826 40.5473 44.4954 38.4071 44.8352V46.1064C40.1688 45.968 41.513 44.4451 42.2699 41.9027L45.0495 46.1316L46.1326 45.4519L42.6483 40.3169C42.8571 39.1213 42.9746 37.7872 42.9746 36.3146Z" fill="#C7C7CB"/>
<path d="M61.4389 42.1419H52.9043V40.3673H61.1257V39.2723H52.9043V37.5103H61.2692V36.3902H51.6124V43.262H61.4389V42.1419ZM50.8685 45.087V46.2323H62V45.087H50.8685Z" fill="#C7C7CB"/>
<path d="M-2.66987 73.0295H2.03201V72.2335H-1.41937V72.1738L0.241294 70.4724C1.5218 69.159 1.89695 68.5322 1.90196 67.7263C1.89695 66.6069 0.966583 65.7263 -0.348942 65.7263C-1.65946 65.7263 -2.64986 66.582 -2.63986 67.8556H-1.78952C-1.78451 67.0497 -1.2443 66.5074 -0.378954 66.5024C0.436372 66.5074 1.05662 66.985 1.06162 67.7263C1.05662 68.3929 0.646455 68.8804 -0.208886 69.7859L-2.67987 72.3728L-2.66987 73.0295Z" fill="#C7C7CB"/>
<path d="M5.71348 73.129C7.31912 73.129 8.24449 71.7858 8.24449 69.4277C8.24449 67.0895 7.30411 65.7263 5.71348 65.7263C4.11784 65.7263 3.17747 67.0895 3.18247 69.4277C3.17747 71.7858 4.10784 73.129 5.71348 73.129ZM4.05281 69.4277C4.05782 67.5621 4.67306 66.5074 5.71348 66.5024C6.75389 66.5074 7.36914 67.5621 7.36414 69.4277C7.36914 71.2933 6.7589 72.333 5.71348 72.333C4.66306 72.333 4.05782 71.2933 4.05281 69.4277Z" fill="#C7C7CB"/>
<path d="M9.44497 73.0295H14.1468V72.2335H10.6955V72.1738L12.3561 70.4724C13.6366 69.159 14.0118 68.5322 14.0168 67.7263C14.0118 66.6069 13.0814 65.7263 11.7659 65.7263C10.4554 65.7263 9.46498 66.582 9.47498 67.8556H10.3253C10.3303 67.0497 10.8705 66.5074 11.7359 66.5024C12.5512 66.5074 13.1715 66.985 13.1765 67.7263C13.1715 68.3929 12.7613 68.8804 11.9059 69.7859L9.43496 72.3728L9.44497 73.0295Z" fill="#C7C7CB"/>
<path d="M17.9584 73.129C19.4039 73.129 20.4844 72.2534 20.4794 71.0694C20.4844 70.154 19.9141 69.4824 18.9688 69.3381V69.2884C19.7291 69.0745 20.2093 68.4775 20.1993 67.6566C20.2093 66.6268 19.3689 65.7263 17.9884 65.7263C16.7029 65.7263 15.6324 66.4925 15.5874 67.6367H16.4578C16.4978 66.9303 17.2031 66.5074 17.9784 66.5024C18.8037 66.5074 19.3339 66.985 19.3289 67.7064C19.3339 68.4476 18.7187 68.9401 17.8383 68.9401H17.2481V69.7262H17.8383C18.9638 69.7312 19.594 70.2834 19.599 71.0694C19.594 71.8206 18.9037 72.333 17.9484 72.333C17.083 72.333 16.3977 71.9052 16.3477 71.2187H15.4374C15.4824 72.3629 16.5178 73.129 17.9584 73.129Z" fill="#C7C7CB"/>
<path d="M28.8327 65H28.0424V66.1641H25.4814V66.791H28.0424V67.8556H25.4814V68.4824H28.0424V71.547H28.8327V65ZM21.99 70.2336H22.6602C23.9658 70.2237 25.1762 70.164 26.6218 69.8953L26.5418 69.2486C25.1862 69.4924 24.0058 69.562 22.7803 69.567V65.6368H21.99V70.2336ZM23.1004 73.6464H29.0728V72.9897H23.8907V70.9898H23.1004V73.6464Z" fill="#C7C7CB"/>
<path d="M4.10283 92.3856H-1.06923V90.2464H3.98279V89.5997H-1.86955V93.0125H4.10283V92.3856ZM-3 94.8233H0.661461V97.8879H1.43177V94.8233H5.14325V94.1865H-3V94.8233Z" fill="#C7C7CB"/>
<path d="M13.9768 93.2115H5.86354V93.8582H9.525V94.7338C7.83933 94.8134 6.83893 95.3755 6.84393 96.3059C6.83893 97.3357 7.99439 97.8978 9.91515 97.8978C11.8209 97.8978 12.9664 97.3357 12.9764 96.3059C12.9664 95.3755 11.976 94.8134 10.3053 94.7338V93.8582H13.9768V93.2115ZM6.89395 92.3956H13.0264V91.7687H7.66426V90.1171H12.9664V89.4902H6.89395V92.3956ZM7.64425 96.3059C7.63424 95.689 8.48959 95.3407 9.91515 95.3407C11.3257 95.3407 12.1811 95.689 12.1861 96.3059C12.1811 96.9277 11.3257 97.2959 9.91515 97.2909C8.48959 97.2959 7.63424 96.9277 7.64425 96.3059Z" fill="#C7C7CB"/>
<path d="M20.4193 91.4503V89.8385H19.619V91.4503C19.614 93.0821 18.5836 94.7835 17.2781 95.4203L17.7883 96.0472C18.7987 95.5148 19.634 94.3806 20.0292 93.0572C20.4243 94.3159 21.2597 95.3706 22.2701 95.888L22.7403 95.2512C21.4498 94.6641 20.4143 93.0523 20.4193 91.4503ZM21.7699 92.7339H23.8807V97.9376H24.661V89.0723H23.8807V92.0971H21.7699V92.7339Z" fill="#C7C7CB"/>
<path d="M33.4746 89.0723H32.6842V97.9376H33.4746V89.0723ZM26.6618 95.7984H30.8635V89.8285H30.0932V92.1667H27.4422V89.8285H26.6618V95.7984ZM27.4422 95.1417V92.7936H30.0932V95.1417H27.4422Z" fill="#C7C7CB"/>
<path d="M39.4269 90.3757V89.6992H38.6066V90.3757C38.6016 91.8981 36.8759 93.2363 35.3353 93.5299L35.6954 94.1865C37.041 93.8731 38.4465 92.9279 39.0268 91.6294C39.602 92.9279 41.0126 93.8781 42.3581 94.1865L42.7182 93.5299C41.1726 93.2413 39.4319 91.8931 39.4269 90.3757ZM34.9952 96.7138H43.1384V96.0671H34.9952V96.7138Z" fill="#C7C7CB"/>
<path d="M4.19287 105.372H-1.16927V102.586H4.10283V101.939H-1.94958V106.019H4.19287V105.372ZM-2.99 108.755H5.15325V108.098H-2.99V108.755Z" fill="#C7C7CB"/>
<path d="M13.1965 101.113H12.4061V109.979H13.1965V101.113ZM6.44377 107.78H7.16406C8.96478 107.775 10.1352 107.715 11.5158 107.471L11.4358 106.815C10.1002 107.054 8.96478 107.103 7.23408 107.103V102.616H10.6755V101.959H6.44377V107.78Z" fill="#C7C7CB"/>
<path d="M17.108 101.8C15.7925 101.805 14.8721 103.004 14.8771 104.884C14.8721 106.77 15.7925 107.964 17.108 107.959C18.3485 107.964 19.2389 106.879 19.3239 105.143H21.3097V109.979H22.09V101.113H21.3097V104.496H19.3139C19.1939 102.84 18.3185 101.805 17.108 101.8ZM15.6274 104.884C15.6324 103.447 16.2327 102.501 17.108 102.496C17.9784 102.501 18.5886 103.447 18.5886 104.884C18.5886 106.322 17.9784 107.267 17.108 107.262C16.2327 107.267 15.6324 106.322 15.6274 104.884Z" fill="#C7C7CB"/>
<path d="M30.1932 101.691C28.3075 101.7 26.942 102.616 26.942 104.009C26.942 105.322 28.1224 106.193 29.8031 106.312V108.168H26.1416V108.825H34.2849V108.168H30.5734V106.312C32.2641 106.198 33.4445 105.327 33.4445 104.009C33.4445 102.616 32.084 101.7 30.1932 101.691ZM27.7023 104.009C27.6973 103.009 28.7527 102.332 30.1932 102.337C31.6338 102.332 32.6842 103.009 32.6842 104.009C32.6842 105.029 31.6338 105.69 30.1932 105.7C28.7527 105.69 27.6973 105.029 27.7023 104.009Z" fill="#C7C7CB"/>
<path d="M42.3281 101.571H35.7555V102.208H37.126V104.248H35.7855V104.874H42.2981V104.248H40.9575V102.208H42.3281V101.571ZM34.9952 106.486H43.0984V105.84H34.9952V106.486ZM36.0456 109.77H42.198V109.113H36.8359V107.292H36.0456V109.77ZM37.9063 104.248V102.208H40.1772V104.248H37.9063Z" fill="#C7C7CB"/>
<path d="M45.2893 101.949H44.3089L44.3789 107.123H45.2192L45.2893 101.949ZM44.1588 108.566C44.1488 108.919 44.4489 109.208 44.7991 109.213C45.1542 109.208 45.4443 108.919 45.4393 108.566C45.4443 108.218 45.1542 107.929 44.7991 107.929C44.4489 107.929 44.1488 108.218 44.1588 108.566Z" fill="#C7C7CB"/>
<path d="M5.14325 118.299H-3V118.945H0.661461V122H1.43177V118.945H5.14325V118.299ZM-1.94958 117.095H4.08283V113.652H-1.94958V117.095ZM-1.17927 116.478V114.289H3.30252V116.478H-1.17927Z" fill="#C7C7CB"/>
<path d="M14.0068 120.249H11.7959V118.567H13.1865V117.921H7.66426V116.488H12.9764V113.811H6.86394V114.458H12.2061V115.841H6.88394V118.567H8.15445V120.249H5.86354V120.906H14.0068V120.249ZM8.92476 120.249V118.567H11.0256V120.249H8.92476Z" fill="#C7C7CB"/>
<path d="M22.8603 120.249H19.1488V118.577H22.04V117.931H16.5178V116.488H21.8299V113.811H15.7175V114.458H21.0596V115.851H15.7375V118.577H18.3785V120.249H14.7171V120.906H22.8603V120.249Z" fill="#C7C7CB"/>
<path d="M34.2449 116.926H26.1416V117.572H34.2449V116.926ZM26.5818 115.871L26.8419 116.488C28.2975 116.339 29.663 115.776 30.1932 114.886C30.7285 115.776 32.099 116.339 33.5546 116.488L33.8147 115.871C32.2341 115.747 30.7285 115.055 30.6484 114.14H33.5246V113.503H26.8819V114.14H29.7481C29.648 115.055 28.1524 115.747 26.5818 115.871ZM27.122 118.985H32.4341V119.801H27.142V121.901H33.4746V121.284H27.9223V120.388H33.2045V118.388H27.122V118.985Z" fill="#C7C7CB"/>
<path d="M39.507 114.12H35.3953V114.757H38.7167C38.5516 116.846 37.3711 118.552 35.0052 119.692L35.4153 120.328C37.5162 119.314 38.6916 117.871 39.2018 116.229H41.5778V117.95H39.0668V118.597H41.5778V122H42.3581V113.145H41.5778V115.592H39.3619C39.4619 115.115 39.507 114.622 39.507 114.12Z" fill="#C7C7CB"/>
<path d="M51.9919 120.219H48.2805V118.309H50.9915V113.781H50.2212V115.383H45.5994V113.781H44.8091V118.309H47.5102V120.219H43.8487V120.866H51.9919V120.219ZM45.5994 117.672V116.02H50.2212V117.672H45.5994Z" fill="#C7C7CB"/>
<path d="M55.3433 115.672V113.99H54.583V115.702C54.583 117.219 53.8327 118.786 52.6022 119.503L53.1024 120.09C53.9927 119.552 54.653 118.537 54.9781 117.358C55.2883 118.438 55.9035 119.383 56.7639 119.901L57.214 119.294C56.0336 118.597 55.3433 117.08 55.3433 115.672ZM56.2336 116.995H57.7442V121.552H58.4845V113.344H57.7442V116.329H56.2336V116.995ZM59.565 122H60.3253V113.155H59.565V122Z" fill="#C7C7CB"/>
<path d="M69.699 120.209H67.6782V117.801C68.4135 117.408 68.8587 116.781 68.8587 115.99C68.8587 114.622 67.5081 113.722 65.6074 113.712C63.7066 113.722 62.3561 114.622 62.3561 115.99C62.3561 116.796 62.8163 117.433 63.5766 117.826V120.209H61.5558V120.866H69.699V120.209ZM63.1164 115.99C63.1114 115 64.1468 114.349 65.6074 114.359C67.053 114.349 68.0984 115 68.0984 115.99C68.0984 116.98 67.053 117.642 65.6074 117.642C64.1468 117.642 63.1114 116.98 63.1164 115.99ZM64.3469 120.209V118.11C64.727 118.209 65.1522 118.259 65.6074 118.259C66.0726 118.259 66.5027 118.204 66.8879 118.105V120.209H64.3469Z" fill="#C7C7CB"/>
<path d="M71.8499 113.99H70.8695L70.9395 119.164H71.7798L71.8499 113.99ZM70.7194 120.607C70.7094 120.96 71.0095 121.249 71.3597 121.254C71.7148 121.249 72.0049 120.96 71.9999 120.607C72.0049 120.259 71.7148 119.97 71.3597 119.97C71.0095 119.97 70.7094 120.259 70.7194 120.607Z" fill="#C7C7CB"/>
</g>
<rect x="-1" width="88" height="223" fill="url(#paint0_linear_1951_39162)"/>
<rect x="390" y="223" width="88" height="223" transform="rotate(-180 390 223)" fill="url(#paint1_linear_1951_39162)"/>
<defs>
<linearGradient id="paint0_linear_1951_39162" x1="23.7816" y1="111.5" x2="87" y2="111.5" gradientUnits="userSpaceOnUse">
<stop stop-color="#F8F8FA"/>
<stop offset="1" stop-color="#F8F8FA" stop-opacity="0"/>
</linearGradient>
<linearGradient id="paint1_linear_1951_39162" x1="414.782" y1="334.5" x2="478" y2="334.5" gradientUnits="userSpaceOnUse">
<stop stop-color="#F8F8FA"/>
<stop offset="1" stop-color="#F8F8FA" stop-opacity="0"/>
</linearGradient>
<clipPath id="clip0_1951_39162">
<rect width="97.6446" height="27" fill="white" transform="translate(144.178 151)"/>
</clipPath>
<clipPath id="clip1_1951_39162">
<rect width="97.6446" height="27" fill="white" transform="translate(291.178 151)"/>
</clipPath>
<clipPath id="clip2_1951_39162">
<rect width="97.6446" height="27" fill="white" transform="translate(-3.82227 151)"/>
</clipPath>
</defs>
</svg>
