<svg width="100%" height="100%" viewBox="0 0 540 469" fill="none" xmlns="http://www.w3.org/2000/svg">
<rect width="540" height="469" fill="#F8F8FA"/>
<path fill-rule="evenodd" clip-rule="evenodd" d="M42.467 239.556C37.1322 252.276 36.3685 263.808 40.7468 273.433C47.8885 289.134 67.8839 297.853 96.4371 299.385C124.905 300.912 161.501 295.258 201.197 282.649L201.803 284.556C161.961 297.211 125.114 302.926 96.33 301.382C67.6309 299.843 46.5638 291.052 38.9263 274.262C34.2401 263.959 35.1568 251.815 40.6226 238.782C46.0878 225.751 56.1369 211.734 69.8963 197.566C97.4196 169.223 139.94 140.12 190.924 116.929C241.909 93.7374 291.787 80.8118 331.237 78.6899C350.959 77.6291 368.128 79.2653 381.542 83.7089C394.958 88.1531 404.714 95.4426 409.4 105.745C414.735 117.473 412.81 131.581 405.175 146.686C397.536 161.8 384.114 178.055 366.169 194.224L364.831 192.739C382.669 176.665 395.901 160.6 403.39 145.784C410.884 130.959 412.563 117.528 407.58 106.573C403.202 96.9475 394.007 89.9451 380.913 85.6075C367.818 81.2694 350.92 79.6341 331.345 80.687C292.201 82.7925 242.568 95.6345 191.752 118.749C140.936 141.864 98.6406 170.837 71.3311 198.959C57.674 213.022 47.8024 226.834 42.467 239.556Z" fill="black"/>
<rect x="106" y="380" width="214" height="58" fill="#121212"/>
<path fill-rule="evenodd" clip-rule="evenodd" d="M185.719 135.091L187.097 136.516L185.659 137.906L184.281 136.481L185.719 135.091ZM190.543 140.081L193.299 142.932L191.861 144.322L189.105 141.471L190.543 140.081ZM196.745 146.496L199.501 149.347L198.063 150.737L195.307 147.886L196.745 146.496ZM202.947 152.912L205.703 155.763L204.265 157.153L201.509 154.302L202.947 152.912ZM209.148 159.327L211.905 162.178L210.467 163.569L207.71 160.717L209.148 159.327ZM213.692 254.061C213.677 254.705 213.67 255.352 213.67 256L211.67 256C211.67 255.336 211.678 254.675 211.693 254.015L213.692 254.061ZM214.35 245.367C214.186 246.644 214.05 247.929 213.945 249.223L211.952 249.061C212.06 247.735 212.198 246.419 212.367 245.112L214.35 245.367ZM215.923 236.794C215.623 238.046 215.353 239.31 215.111 240.584L213.146 240.212C213.393 238.907 213.671 237.612 213.977 236.329L215.923 236.794ZM215.35 165.743L218.107 168.594L216.669 169.984L213.912 167.133L215.35 165.743ZM218.398 228.437C217.966 229.651 217.563 230.879 217.188 232.118L215.273 231.539C215.658 230.269 216.071 229.011 216.513 227.767L218.398 228.437ZM221.748 220.39C221.19 221.553 220.658 222.73 220.153 223.922L218.312 223.143C218.829 221.922 219.374 220.715 219.946 219.524L221.748 220.39ZM221.552 172.158L224.308 175.009L222.87 176.4L220.114 173.548L221.552 172.158ZM225.933 212.743C225.255 213.841 224.601 214.956 223.973 216.087L222.225 215.117C222.868 213.958 223.537 212.816 224.232 211.692L225.933 212.743ZM227.754 178.574L230.51 181.425L229.072 182.815L226.316 179.964L227.754 178.574ZM230.901 205.58C230.111 206.601 229.343 207.641 228.6 208.699L226.963 207.55C227.724 206.466 228.51 205.401 229.32 204.355L230.901 205.58ZM236.594 198.977C235.7 199.91 234.828 200.864 233.978 201.838L232.471 200.523C233.341 199.526 234.234 198.549 235.149 197.593L236.594 198.977ZM233.956 184.989L236.712 187.841L235.274 189.231L232.518 186.379L233.956 184.989ZM241.48 194.274C240.997 194.702 240.518 195.137 240.045 195.576L238.684 194.111C238.914 193.898 239.145 193.686 239.377 193.475L238.72 192.795L240.158 191.405L240.874 192.145C241.126 191.927 241.38 191.709 241.635 191.493L242.927 193.02C242.44 193.432 241.958 193.85 241.48 194.274ZM249.777 187.803C248.722 188.523 247.685 189.267 246.666 190.034L245.464 188.436C246.507 187.651 247.569 186.889 248.649 186.151L249.777 187.803ZM257.13 183.322C256.006 183.93 254.897 184.562 253.805 185.219L252.774 183.506C253.893 182.833 255.028 182.185 256.179 181.563L257.13 183.322ZM264.908 179.629C263.726 180.117 262.558 180.631 261.404 181.17L260.557 179.359C261.738 178.806 262.935 178.279 264.145 177.78L264.908 179.629ZM273.027 176.765C271.8 177.127 270.585 177.517 269.382 177.933L268.727 176.043C269.959 175.617 271.204 175.218 272.461 174.847L273.027 176.765ZM281.401 174.762C280.142 174.995 278.893 175.256 277.654 175.545L277.2 173.597C278.469 173.301 279.748 173.034 281.038 172.795L281.401 174.762ZM289.938 173.638C288.66 173.739 287.39 173.87 286.129 174.029L285.88 172.044C287.171 171.882 288.471 171.748 289.779 171.644L289.938 173.638ZM296.633 173.373C295.993 173.373 295.355 173.38 294.718 173.394L294.673 171.395C294.993 171.388 295.313 171.382 295.633 171.378L295.633 170.446L297.633 170.446L297.633 171.378C297.954 171.382 298.274 171.388 298.593 171.395L298.548 173.394C297.912 173.38 297.273 173.373 296.633 173.373ZM297.633 161.774L297.633 165.628L295.633 165.628L295.633 161.774L297.633 161.774ZM297.633 153.102L297.633 156.957L295.633 156.957L295.633 153.102L297.633 153.102ZM297.633 144.431L297.633 148.285L295.633 148.285L295.633 144.431L297.633 144.431ZM297.633 135.759L297.633 139.613L295.633 139.613L295.633 135.759L297.633 135.759ZM297.633 127.088L297.633 130.942L295.633 130.942L295.633 127.088L297.633 127.088ZM297.633 118.416L297.633 122.27L295.633 122.27L295.633 118.416L297.633 118.416ZM297.633 109.745L297.633 113.599L295.633 113.599L295.633 109.745L297.633 109.745ZM297.633 103L297.633 104.927L295.633 104.927L295.633 103L297.633 103ZM303.487 171.644C304.796 171.748 306.096 171.882 307.387 172.044L307.137 174.029C305.876 173.87 304.607 173.739 303.329 173.638L303.487 171.644ZM312.229 172.795C313.518 173.034 314.798 173.301 316.067 173.597L315.613 175.545C314.374 175.256 313.125 174.995 311.865 174.762L312.229 172.795ZM320.805 174.847C322.062 175.218 323.307 175.617 324.539 176.043L323.885 177.933C322.682 177.517 321.467 177.127 320.239 176.765L320.805 174.847ZM329.121 177.78C330.332 178.279 331.528 178.806 332.71 179.359L331.862 181.17C330.709 180.631 329.54 180.117 328.358 179.629L329.121 177.78ZM337.087 181.563C338.239 182.185 339.374 182.833 340.492 183.506L339.461 185.219C338.369 184.562 337.261 183.93 336.136 183.322L337.087 181.563ZM344.617 186.151C345.697 186.889 346.759 187.651 347.803 188.436L346.6 190.034C345.581 189.267 344.544 188.523 343.489 187.803L344.617 186.151ZM354.576 192.57L353.843 193.432C354.091 193.657 354.337 193.883 354.583 194.111L353.221 195.576C352.748 195.137 352.27 194.702 351.786 194.274C351.309 193.85 350.827 193.432 350.34 193.02L351.632 191.493C351.871 191.696 352.109 191.9 352.346 192.105L353.053 191.273L354.576 192.57ZM360.718 185.352L357.989 188.56L356.465 187.264L359.195 184.056L360.718 185.352ZM358.117 197.593C359.033 198.549 359.926 199.526 360.795 200.523L359.288 201.838C358.439 200.864 357.567 199.91 356.673 198.977L358.117 197.593ZM363.946 204.355C364.756 205.401 365.542 206.466 366.303 207.55L364.666 208.699C363.923 207.641 363.156 206.601 362.365 205.58L363.946 204.355ZM366.861 178.135L364.131 181.342L362.608 180.046L365.338 176.839L366.861 178.135ZM369.034 211.692C369.73 212.816 370.399 213.958 371.042 215.117L369.293 216.087C368.665 214.956 368.012 213.841 367.333 212.743L369.034 211.692ZM373.003 170.917L370.273 174.125L368.75 172.829L371.48 169.621L373.003 170.917ZM373.321 219.524C373.893 220.715 374.438 221.922 374.955 223.143L373.113 223.922C372.608 222.73 372.077 221.553 371.518 220.39L373.321 219.524ZM376.753 227.767C377.195 229.011 377.609 230.269 377.993 231.539L376.079 232.118C375.704 230.879 375.3 229.651 374.869 228.437L376.753 227.767ZM379.145 163.7L376.415 166.908L374.892 165.611L377.622 162.404L379.145 163.7ZM379.289 236.329C379.596 237.612 379.873 238.907 380.12 240.212L378.155 240.584C377.914 239.31 377.643 238.046 377.344 236.794L379.289 236.329ZM380.9 245.112C381.068 246.419 381.207 247.735 381.315 249.061L379.322 249.223C379.216 247.929 379.081 246.644 378.916 245.367L380.9 245.112ZM382.641 257L379.597 257L379.597 256C379.597 255.352 379.589 254.705 379.574 254.061L381.574 254.015C381.581 254.343 381.587 254.671 381.591 255L382.641 255L382.641 257ZM385.287 156.482L382.557 159.69L381.034 158.394L383.764 155.186L385.287 156.482ZM391.429 149.265L388.7 152.473L387.176 151.176L389.906 147.969L391.429 149.265ZM387.753 255L391.842 255L391.842 257L387.753 257L387.753 255ZM397.572 142.047L394.842 145.255L393.319 143.959L396.049 140.751L397.572 142.047ZM396.953 255L401.042 255L401.042 257L396.953 257L396.953 255ZM402.349 136.434L400.984 138.038L399.461 136.742L400.826 135.138L402.349 136.434ZM406.154 255L410.243 255L410.243 257L406.154 257L406.154 255ZM415.354 255L419.443 255L419.443 257L415.354 257L415.354 255ZM424.555 255L428.644 255L428.644 257L424.555 257L424.555 255ZM433.755 255L437.844 255L437.844 257L433.755 257L433.755 255ZM442.956 255L445 255L445 257L442.956 257L442.956 255Z" fill="#39393A"/>
<rect x="296" y="69" width="214" height="58" fill="#121212"/>
<path d="M66 357H310V423H66V357Z" fill="white"/>
<path fill-rule="evenodd" clip-rule="evenodd" d="M309 358H67V422H309V358ZM66 357V423H310V357H66Z" fill="black"/>
<path d="M256 46H500V112H256V46Z" fill="white"/>
<path fill-rule="evenodd" clip-rule="evenodd" d="M499 47H257V111H499V47ZM256 46V112H500V46H256Z" fill="black"/>
<path d="M104.5 369H101.12V381.64H104.5V369ZM94.2599 376.24L98.5199 379.18L100.38 376.76L95.6199 373.58C95.7599 373.08 95.8599 372.58 95.8999 372.08H99.6599V369.2H88.6199V372.08H92.4799C92.1799 374.16 90.6999 376.08 88.3799 376.26V379.32C90.8599 379.26 92.9199 378 94.2599 376.24ZM92.6599 383.04V380.1H89.2199V386.08H104.74V383.04H92.6599Z" fill="black"/>
<path d="M119.998 377.18H123.498V369.2H108.178V372.34H119.998V377.18ZM124.498 378.2H107.218V381.3H110.778V386.48H114.158V381.3H117.558V386.48H120.938V381.3H124.498V378.2Z" fill="black"/>
<path d="M137.976 370.16H133.856V368.7H130.416V370.16H126.296V372.8H137.976V370.16ZM142.496 372.96V369H139.116V381.74H142.496V376.24H144.496V372.96H142.496ZM132.136 380.32C134.976 380.32 137.376 379.12 137.376 376.8C137.376 374.48 134.976 373.28 132.136 373.28C129.296 373.28 126.896 374.48 126.896 376.8C126.896 379.12 129.296 380.32 132.136 380.32ZM132.136 375.72C133.356 375.72 134.156 376.2 134.156 376.8C134.156 377.4 133.356 377.88 132.136 377.88C130.916 377.88 130.116 377.4 130.116 376.8C130.116 376.2 130.916 375.72 132.136 375.72ZM130.856 380.82H127.416V386.08H142.736V383.14H130.856V380.82Z" fill="black"/>
<path d="M167.82 369H164.44V378.04H167.82V369ZM155.28 369.1H151.86V377.52H159.66C161.26 377.52 162.76 377.3 163.64 376.92V374.1C162.74 374.48 161.24 374.7 159.7 374.7H155.28V369.1ZM167.82 378.64H152.54V386.08H167.82V378.64ZM155.92 383.28V381.44H164.44V383.28H155.92Z" fill="black"/>
<path d="M296.5 60H293.12V69.24H296.5V60ZM290.82 60.2H280.46V63H287.38V63.26C287.38 65.08 284.58 66.26 280.46 66.3V69.16C286.42 69.16 290.82 67.22 290.82 62.52V60.2ZM296.5 69.84H281.22V77.08H296.5V69.84ZM284.6 74.3V72.62H293.12V74.3H284.6Z" fill="black"/>
<path d="M315.738 60H312.358V72.64H315.738V60ZM305.498 67.24L309.758 70.18L311.618 67.76L306.858 64.58C306.998 64.08 307.098 63.58 307.138 63.08H310.898V60.2H299.858V63.08H303.718C303.418 65.16 301.938 67.08 299.618 67.26V70.32C302.098 70.26 304.158 69 305.498 67.24ZM303.898 74.04V71.1H300.458V77.08H315.978V74.04H303.898Z" fill="black"/>
<path d="M324.357 67.98L328.717 70.56L330.357 68.04L325.797 65.42C325.917 65.04 325.997 64.66 326.057 64.28H329.817V61.46H326.057V59.7H322.617V61.46H318.857V64.28H322.617C322.217 66.04 320.817 67.58 318.657 67.76V70.7C321.037 70.64 323.037 69.54 324.357 67.98ZM334.497 63.8V60H331.117V72.7H334.497V67.08H336.497V63.8H334.497ZM322.857 71.6H319.417V77.08H334.737V74.1H322.857V71.6Z" fill="black"/>
<path d="M359.82 60H356.44V69.04H359.82V60ZM347.28 60.1H343.86V68.52H351.66C353.26 68.52 354.76 68.3 355.64 67.92V65.1C354.74 65.48 353.24 65.7 351.7 65.7H347.28V60.1ZM359.82 69.64H344.54V77.08H359.82V69.64ZM347.92 74.28V72.44H356.44V74.28H347.92Z" fill="black"/>
<path d="M98.7031 396.781H88.9062V397.797H97.4688V398.172C97.4609 399.836 97.4609 401.781 96.9375 404.438L98.1875 404.578C98.6875 401.781 98.6875 399.875 98.7031 398.172V396.781ZM87.5625 407.297H100.219V406.281H93.7344V401.312H92.5312V406.281H87.5625V407.297Z" fill="black"/>
<path d="M108.312 397.422V396.359H107.031V397.422C107.023 399.812 104.328 401.914 101.922 402.375L102.484 403.406C104.586 402.914 106.781 401.43 107.688 399.391C108.586 401.43 110.789 402.922 112.891 403.406L113.453 402.375C111.039 401.922 108.32 399.805 108.312 397.422ZM101.391 407.375H114.109V406.359H101.391V407.375Z" fill="black"/>
<path d="M122.109 396.219H115.812V397.219H120.906V399.078H115.844V403.078H116.922C119.508 403.086 121.367 402.992 123.594 402.625L123.469 401.609C121.305 401.969 119.516 402.055 117.047 402.062V400.047H122.109V396.219ZM116.984 405.562H124.859V409.266H126.078V404.562H116.984V405.562ZM124.859 403.828H126.078V399.984H128.188V398.953H126.078V395.391H124.859V403.828Z" fill="black"/>
<path d="M141.266 407.938H132.953V404.469H131.734V408.969H141.266V407.938ZM129.688 403.156H135.094V396.5H133.938V398.797H130.844V396.5H129.688V403.156ZM130.844 402.172V399.766H133.938V402.172H130.844ZM136.672 405.266H137.828V400.484H139.672V405.75H140.844V395.391H139.672V399.453H137.828V395.656H136.672V405.266Z" fill="black"/>
<path d="M154.094 402.062H145.719V397.688H153.953V396.672H144.5V403.078H154.094V402.062ZM142.875 407.375H155.594V406.344H142.875V407.375Z" fill="black"/>
<path d="M288.703 85.7812H278.906V86.7969H287.469V87.1719C287.461 88.8359 287.461 90.7812 286.938 93.4375L288.188 93.5781C288.688 90.7812 288.688 88.875 288.703 87.1719V85.7812ZM277.562 96.2969H290.219V95.2812H283.734V90.3125H282.531V95.2812H277.562V96.2969Z" fill="black"/>
<path d="M298.312 86.4219V85.3594H297.031V86.4219C297.023 88.8125 294.328 90.9141 291.922 91.375L292.484 92.4062C294.586 91.9141 296.781 90.4297 297.688 88.3906C298.586 90.4297 300.789 91.9219 302.891 92.4062L303.453 91.375C301.039 90.9219 298.32 88.8047 298.312 86.4219ZM291.391 96.375H304.109V95.3594H291.391V96.375Z" fill="black"/>
<path d="M312.109 85.2188H305.812V86.2188H310.906V88.0781H305.844V92.0781H306.922C309.508 92.0859 311.367 91.9922 313.594 91.625L313.469 90.6094C311.305 90.9688 309.516 91.0547 307.047 91.0625V89.0469H312.109V85.2188ZM306.984 94.5625H314.859V98.2656H316.078V93.5625H306.984V94.5625ZM314.859 92.8281H316.078V88.9844H318.188V87.9531H316.078V84.3906H314.859V92.8281Z" fill="black"/>
<path d="M331.266 96.9375H322.953V93.4688H321.734V97.9688H331.266V96.9375ZM319.688 92.1562H325.094V85.5H323.938V87.7969H320.844V85.5H319.688V92.1562ZM320.844 91.1719V88.7656H323.938V91.1719H320.844ZM326.672 94.2656H327.828V89.4844H329.672V94.75H330.844V84.3906H329.672V88.4531H327.828V84.6562H326.672V94.2656Z" fill="black"/>
<path d="M344.094 91.0625H335.719V86.6875H343.953V85.6719H334.5V92.0781H344.094V91.0625ZM332.875 96.375H345.594V95.3438H332.875V96.375Z" fill="black"/>
<path d="M261.562 385.438H256.484V383.609H255.281V385.438H250.188V386.453H261.562V385.438ZM249.562 395.641H262.281V394.625H256.484V392.672C258.938 392.539 260.461 391.578 260.453 390.016C260.461 388.367 258.688 387.391 255.891 387.406C253.055 387.391 251.312 388.367 251.328 390.016C251.312 391.578 252.805 392.539 255.281 392.672V394.625H249.562V395.641ZM252.562 390.016C252.547 388.984 253.82 388.375 255.891 388.375C257.938 388.375 259.211 388.984 259.203 390.016C259.211 391.07 257.938 391.68 255.891 391.688C253.82 391.68 252.547 391.07 252.562 390.016Z" fill="#6B36DC"/>
<path d="M270.312 385.422V384.359H269.031V385.422C269.023 387.812 266.328 389.914 263.922 390.375L264.484 391.406C266.586 390.914 268.781 389.43 269.688 387.391C270.586 389.43 272.789 390.922 274.891 391.406L275.453 390.375C273.039 389.922 270.32 387.805 270.312 385.422ZM263.391 395.375H276.109V394.359H263.391V395.375Z" fill="#6B36DC"/>
<path d="M288.469 390.891H280.109V388.656H288.016V387.672H280.109V385.609H288.312V384.578H278.859V391.891H288.469V390.891ZM277.219 395.453H289.938V394.438H277.219V395.453Z" fill="#6B36DC"/>
<path d="M451.469 72.375H450.281V77.8906H448.344V72.6719H447.172V85.5625H448.344V78.9062H450.281V86.2656H451.469V72.375ZM440.078 82.5312H445.391V74H440.078V82.5312ZM441.234 81.5469V74.9844H444.234V81.5469H441.234Z" fill="#6B36DC"/>
<path d="M464.844 72.375H463.625V86.2656H464.844V72.375ZM454.297 82.6875H455.422C457.648 82.6875 459.844 82.5156 462.312 82L462.141 80.9531C459.812 81.4453 457.625 81.6094 455.5 81.625V73.75H454.297V82.6875Z" fill="#6B36DC"/>
<path d="M478.734 72.375H477.5V77.4375H474.453V78.4531H477.5V86.2969H478.734V72.375ZM467.094 82.5625L467.844 83.5156C469.43 82.6875 470.805 80.8984 471.43 78.8359C472.062 80.7734 473.398 82.4531 474.984 83.2344L475.719 82.25C473.695 81.3281 472.039 78.8125 472.031 76.5V74.8281H475.219V73.8125H467.625V74.8281H470.797V76.5C470.789 78.9688 469.109 81.5859 467.094 82.5625Z" fill="#6B36DC"/>
<g filter="url(#filter0_d_1951_39673)">
<path d="M221.881 256.339C221.881 214.917 255.46 181.339 296.881 181.339C338.302 181.339 371.881 214.917 371.881 256.339C371.881 297.76 338.302 331.339 296.881 331.339C255.46 331.339 221.881 297.76 221.881 256.339Z" fill="#25F3CF"/>
</g>
<g filter="url(#filter1_d_1951_39673)">
<path fill-rule="evenodd" clip-rule="evenodd" d="M223.881 256.339C223.881 296.655 256.564 329.339 296.881 329.339C337.198 329.339 369.881 296.655 369.881 256.339C369.881 216.022 337.198 183.339 296.881 183.339C256.564 183.339 223.881 216.022 223.881 256.339ZM296.881 181.339C255.46 181.339 221.881 214.917 221.881 256.339C221.881 297.76 255.46 331.339 296.881 331.339C338.302 331.339 371.881 297.76 371.881 256.339C371.881 214.917 338.302 181.339 296.881 181.339Z" fill="#121212"/>
</g>
<path d="M355.923 270.853C355.923 288.271 331.759 314.583 314.433 314.583C297.108 314.583 249.008 313.373 249.008 295.955C249.008 278.536 307.227 239.314 324.552 239.314C355.923 235.452 355.923 253.434 355.923 270.853Z" fill="url(#paint0_linear_1951_39673)"/>
<path d="M289.26 274.19C290.36 274.88 292.98 276.3 295.77 276.3L295.75 276.29C296.15 276.29 296.56 276.26 296.96 276.2C298.53 275.95 299.87 275.2 300.96 273.98C302.63 274.76 306.74 276.31 310.6 274.98C313.23 274.08 315.21 272.04 316.49 268.92C316.54 268.8 316.57 268.67 316.57 268.54V252.24C316.57 252.15 316.56 252.06 316.54 251.98C316.52 251.88 315.9 249.65 313.78 248.81C312.31 248.23 310.57 248.47 308.59 249.52C307.76 248.63 306.1 247.21 303.81 247.02C301.78 246.85 299.77 247.67 297.82 249.46C296.56 248.9 293.76 247.94 291.05 248.86C289.39 249.43 288.06 250.59 287.09 252.32C285.9 251.53 283.81 250.44 281.61 250.69C279.97 250.88 278.58 251.76 277.49 253.3C276.59 254.55 276.09 256.14 276.03 257.89C275.88 262.36 276.14 272.93 281.92 274.81C282.5 275.08 285.42 276.25 289.26 274.19Z" fill="#6B36DC"/>
<path d="M259 235.042C259 235.042 265.08 239.699 265.766 243.376C266.452 247.053 275.117 248.462 275.117 248.462C275.117 248.462 270.505 239.285 263.181 235.486C261.824 234.781 260.564 235.394 259.016 235.057L259 235.042Z" fill="#121212"/>
<path d="M259.621 248.278C259.621 248.278 263.898 237.355 272.355 234L274.493 235.838C274.493 235.838 265.366 244.923 263.004 249.458L259.621 248.263V248.278Z" fill="#121212"/>
<path d="M317.723 235.042C317.723 235.042 323.802 239.699 324.489 243.376C325.175 247.053 333.84 248.462 333.84 248.462C333.84 248.462 329.228 239.285 321.904 235.486C320.547 234.781 319.286 235.394 317.739 235.057L317.723 235.042Z" fill="#121212"/>
<path d="M318.328 248.278C318.328 248.278 322.605 237.355 331.062 234L333.2 235.838C333.2 235.838 324.073 244.923 321.711 249.458L318.328 248.263V248.278Z" fill="#121212"/>
<path d="M168 63L177.809 96.8097L205.618 75.2229L193.681 108.341L228.868 107.223L199.744 127L228.868 146.777L193.681 145.659L205.618 178.777L177.809 157.19L168 191L158.191 157.19L130.382 178.777L142.319 145.659L107.132 146.777L136.256 127L107.132 107.223L142.319 108.341L130.382 75.2229L158.191 96.8097L168 63Z" fill="#6B36DC"/>
<path d="M150.812 123.477C150.812 123.477 153.598 125.612 153.913 127.297C154.227 128.983 158.199 129.629 158.199 129.629C158.199 129.629 156.085 125.423 152.728 123.681C152.106 123.358 151.528 123.639 150.819 123.484L150.812 123.477Z" fill="white"/>
<path d="M151.097 129.545C151.097 129.545 153.057 124.538 156.933 123L157.914 123.843C157.914 123.843 153.73 128.007 152.647 130.085L151.097 129.538V129.545Z" fill="white"/>
<path d="M177.728 123.477C177.728 123.477 180.514 125.612 180.829 127.297C181.143 128.983 185.115 129.629 185.115 129.629C185.115 129.629 183.001 125.423 179.644 123.681C179.022 123.358 178.444 123.639 177.735 123.484L177.728 123.477Z" fill="white"/>
<path d="M178.006 129.545C178.006 129.545 179.966 124.538 183.843 123L184.823 123.843C184.823 123.843 180.639 128.007 179.556 130.085L178.006 129.538V129.545Z" fill="white"/>
<path d="M439 112C439 123.046 430.046 132 419 132C407.954 132 399 123.046 399 112C399 100.954 407.954 92 419 92C430.046 92 439 100.954 439 112Z" fill="#DFD1FC"/>
<path fill-rule="evenodd" clip-rule="evenodd" d="M419 131C429.493 131 438 122.493 438 112C438 101.507 429.493 93 419 93C408.507 93 400 101.507 400 112C400 122.493 408.507 131 419 131ZM419 132C430.046 132 439 123.046 439 112C439 100.954 430.046 92 419 92C407.954 92 399 100.954 399 112C399 123.046 407.954 132 419 132Z" fill="#121212"/>
<circle cx="1.5" cy="1.5" r="1" transform="matrix(1 0 0 -1 412 109)" fill="#121212" stroke="#121212"/>
<circle cx="1.5" cy="1.5" r="1" transform="matrix(1 0 0 -1 424 109)" fill="#121212" stroke="#121212"/>
<path d="M420.505 117.425C420.198 117.425 419.905 117.4 419.625 117.35C419.345 117.3 419.093 117.23 418.87 117.14C418.65 117.053 418.477 116.95 418.35 116.83C418.223 116.71 418.16 116.58 418.16 116.44C418.16 116.323 418.178 116.228 418.215 116.155C418.252 116.082 418.298 116.025 418.355 115.985C418.415 115.942 418.477 115.912 418.54 115.895C418.603 115.878 418.66 115.87 418.71 115.87C418.847 115.87 419.005 115.905 419.185 115.975C419.368 116.042 419.572 116.11 419.795 116.18C420.018 116.25 420.258 116.285 420.515 116.285C420.715 116.285 420.898 116.268 421.065 116.235C421.232 116.202 421.377 116.152 421.5 116.085C421.623 116.018 421.718 115.938 421.785 115.845C421.855 115.748 421.89 115.64 421.89 115.52C421.89 115.347 421.845 115.207 421.755 115.1C421.668 114.99 421.548 114.903 421.395 114.84C421.242 114.773 421.067 114.72 420.87 114.68C420.693 114.64 420.538 114.59 420.405 114.53C420.272 114.467 420.167 114.39 420.09 114.3C420.017 114.21 419.98 114.107 419.98 113.99C419.98 113.817 420.042 113.687 420.165 113.6C420.288 113.513 420.452 113.442 420.655 113.385C420.835 113.332 420.995 113.27 421.135 113.2C421.275 113.13 421.385 113.043 421.465 112.94C421.545 112.837 421.585 112.71 421.585 112.56C421.585 112.387 421.535 112.255 421.435 112.165C421.338 112.072 421.202 112.008 421.025 111.975C420.852 111.938 420.65 111.92 420.42 111.92C420.18 111.92 419.953 111.938 419.74 111.975C419.53 112.012 419.345 112.05 419.185 112.09C419.025 112.127 418.898 112.145 418.805 112.145C418.628 112.145 418.49 112.097 418.39 112C418.293 111.9 418.245 111.783 418.245 111.65C418.245 111.51 418.31 111.387 418.44 111.28C418.573 111.173 418.752 111.085 418.975 111.015C419.198 110.942 419.447 110.887 419.72 110.85C419.997 110.813 420.277 110.795 420.56 110.795C421.107 110.795 421.558 110.858 421.915 110.985C422.275 111.112 422.543 111.292 422.72 111.525C422.897 111.755 422.985 112.027 422.985 112.34C422.985 112.53 422.947 112.703 422.87 112.86C422.797 113.017 422.693 113.153 422.56 113.27C422.43 113.387 422.278 113.482 422.105 113.555C421.982 113.628 421.892 113.692 421.835 113.745C421.778 113.795 421.75 113.855 421.75 113.925C421.75 113.998 421.793 114.06 421.88 114.11C421.97 114.157 422.08 114.205 422.21 114.255C422.39 114.312 422.567 114.393 422.74 114.5C422.913 114.603 423.057 114.747 423.17 114.93C423.283 115.11 423.34 115.343 423.34 115.63C423.34 115.91 423.28 116.162 423.16 116.385C423.043 116.608 422.867 116.798 422.63 116.955C422.393 117.108 422.098 117.225 421.745 117.305C421.392 117.385 420.978 117.425 420.505 117.425Z" fill="black"/>
<path d="M458.09 230.881L459.232 235.407C461.446 244.177 467.229 251.62 475.179 255.932C467.229 260.245 461.446 267.688 459.232 276.457L458.09 280.983L456.947 276.457C454.733 267.688 448.951 260.245 441 255.932C448.951 251.62 454.733 244.177 456.947 235.407L458.09 230.881Z" fill="#121212"/>
<path fill-rule="evenodd" clip-rule="evenodd" d="M473.19 254.759C473.837 255.172 474.5 255.564 475.179 255.932C474.5 256.301 473.837 256.692 473.19 257.105C466.267 261.526 461.257 268.437 459.232 276.457L458.09 280.983L456.947 276.457C454.923 268.437 449.913 261.526 442.989 257.105C442.343 256.692 441.679 256.301 441 255.932C441.679 255.564 442.343 255.172 442.989 254.759C449.913 250.338 454.923 243.427 456.947 235.407L458.09 230.881L459.232 235.407C461.257 243.427 466.267 250.338 473.19 254.759ZM471.334 255.932C465.157 251.747 460.503 245.657 458.09 238.585C455.677 245.657 451.023 251.747 444.845 255.932C451.023 260.117 455.677 266.207 458.09 273.279C460.503 266.207 465.157 260.117 471.334 255.932Z" fill="#121212"/>
<path d="M482 204L482.771 207.001C484.345 213.126 488.419 218.307 494 221.281C488.419 224.255 484.345 229.437 482.771 235.561L482 238.562L481.229 235.561C479.655 229.437 475.581 224.255 470 221.281C475.581 218.307 479.655 213.126 481.229 207.001L482 204Z" fill="#121212"/>
<path fill-rule="evenodd" clip-rule="evenodd" d="M482 204L481.229 207.001C481.192 207.143 481.154 207.285 481.115 207.426C481.065 207.607 481.013 207.786 480.959 207.964C479.444 212.933 476.262 217.215 471.971 220.098C471.338 220.523 470.68 220.919 470 221.281C470.68 221.643 471.338 222.039 471.971 222.464C476.262 225.347 479.444 229.629 480.959 234.598C481.013 234.776 481.065 234.956 481.115 235.136C481.154 235.277 481.192 235.419 481.229 235.561L482 238.562L482.771 235.561C482.808 235.419 482.846 235.277 482.885 235.136C482.935 234.956 482.987 234.776 483.041 234.598C484.556 229.629 487.738 225.347 492.029 222.464C492.662 222.039 493.32 221.643 494 221.281C493.32 220.919 492.662 220.523 492.029 220.098C487.738 217.215 484.556 212.933 483.041 207.964C482.987 207.786 482.935 207.607 482.885 207.426C482.846 207.285 482.808 207.143 482.771 207.001L482 204ZM482 210.95C480.254 215.079 477.407 218.654 473.771 221.281C477.407 223.908 480.254 227.484 482 231.612C483.746 227.484 486.593 223.908 490.229 221.281C486.593 218.654 483.746 215.079 482 210.95Z" fill="#121212"/>
<path d="M168 395L169.395 396.794L171.5 395.938L171.811 398.189L174.062 398.5L173.206 400.605L175 402L173.206 403.395L174.062 405.5L171.811 405.811L171.5 408.062L169.395 407.206L168 409L166.605 407.206L164.5 408.062L164.189 405.811L161.938 405.5L162.794 403.395L161 402L162.794 400.605L161.938 398.5L164.189 398.189L164.5 395.938L166.605 396.794L168 395Z" fill="#6B36DC"/>
<path d="M170.308 399.643C170.536 399.415 170.905 399.415 171.133 399.643C171.358 399.868 171.361 400.231 171.141 400.46L168.036 404.341C168.032 404.346 168.027 404.352 168.022 404.357C167.794 404.585 167.425 404.585 167.197 404.357L165.139 402.299C164.911 402.071 164.911 401.701 165.139 401.474C165.366 401.246 165.736 401.246 165.964 401.474L167.592 403.102L170.293 399.66C170.297 399.654 170.303 399.649 170.308 399.643Z" fill="white"/>
<path d="M359 84L360.395 85.7937L362.5 84.9378L362.811 87.1887L365.062 87.5L364.206 89.605L366 91L364.206 92.395L365.062 94.5L362.811 94.8113L362.5 97.0622L360.395 96.2063L359 98L357.605 96.2063L355.5 97.0622L355.189 94.8113L352.938 94.5L353.794 92.395L352 91L353.794 89.605L352.938 87.5L355.189 87.1887L355.5 84.9378L357.605 85.7937L359 84Z" fill="#6B36DC"/>
<path d="M361.308 88.643C361.536 88.4152 361.905 88.4152 362.133 88.643C362.358 88.868 362.361 89.2311 362.141 89.4595L359.036 93.3408C359.032 93.3464 359.027 93.3518 359.022 93.3569C358.794 93.5847 358.425 93.5847 358.197 93.3569L356.139 91.2985C355.911 91.0707 355.911 90.7014 356.139 90.4736C356.366 90.2458 356.736 90.2458 356.964 90.4736L358.592 92.1019L361.293 88.6605C361.297 88.6544 361.303 88.6485 361.308 88.643Z" fill="white"/>
<path fill-rule="evenodd" clip-rule="evenodd" d="M295.74 276.3C292.951 276.3 290.331 274.88 289.23 274.19C287.137 275.313 285.316 275.476 284 275.348C284.304 270.185 287.605 254.782 316.541 258.602V268.54C316.541 268.605 316.533 268.671 316.519 268.735C316.505 268.798 316.485 268.86 316.46 268.92C315.181 272.04 313.201 274.08 310.57 274.98C306.71 276.31 302.601 274.76 300.931 273.98C299.84 275.2 298.5 275.95 296.931 276.2C296.53 276.26 296.121 276.29 295.721 276.29L295.74 276.3Z" fill="white"/>
<path d="M295.77 276.3C292.98 276.3 290.36 274.88 289.26 274.19C285.42 276.25 282.5 275.08 281.92 274.81C276.14 272.93 275.88 262.36 276.03 257.89C276.09 256.14 276.59 254.55 277.49 253.3C278.58 251.76 279.97 250.88 281.61 250.69C283.81 250.44 285.9 251.53 287.09 252.32C288.06 250.59 289.39 249.43 291.05 248.86C293.76 247.94 296.56 248.9 297.82 249.46C299.77 247.67 301.78 246.85 303.81 247.02C306.1 247.21 307.76 248.63 308.59 249.52C310.57 248.47 312.31 248.23 313.78 248.81C315.9 249.65 316.52 251.88 316.54 251.98C316.56 252.06 316.57 252.15 316.57 252.24V268.54C316.57 268.67 316.54 268.8 316.49 268.92C315.21 272.04 313.23 274.08 310.6 274.98C306.74 276.31 302.63 274.76 300.96 273.98C299.87 275.2 298.53 275.95 296.96 276.2C296.56 276.26 296.15 276.29 295.75 276.29L295.77 276.3ZM289.3 272.02C289.51 272.02 289.71 272.08 289.89 272.21C290.16 272.4 296.49 276.88 299.9 272.14C300.2 271.73 300.76 271.6 301.2 271.85C301.25 271.88 305.94 274.48 309.98 273.08C311.98 272.39 313.53 270.79 314.58 268.33V252.4C314.46 252.07 314.02 251.05 313.03 250.67C312.01 250.28 310.58 250.62 308.89 251.66C308.44 251.94 307.85 251.81 307.55 251.38C307.54 251.36 305.98 249.21 303.63 249.02C302.04 248.89 300.39 249.68 298.72 251.37C298.4 251.69 297.91 251.76 297.52 251.54C297.49 251.52 294.4 249.83 291.69 250.76C290.26 251.25 289.15 252.42 288.38 254.22C288.13 254.81 287.27 255.01 286.78 254.58C286.76 254.56 284.24 252.38 281.83 252.67C280.77 252.79 279.88 253.38 279.12 254.45C278.45 255.39 278.07 256.59 278.03 257.95C277.92 261.1 277.93 271.48 282.59 272.91C282.65 272.93 282.71 272.95 282.77 272.99C282.86 273.04 285.31 274.25 288.78 272.16C288.94 272.06 289.12 272.02 289.3 272.02Z" fill="#121212"/>
<defs>
<filter id="filter0_d_1951_39673" x="217.881" y="178.339" width="164" height="164" filterUnits="userSpaceOnUse" color-interpolation-filters="sRGB">
<feFlood flood-opacity="0" result="BackgroundImageFix"/>
<feColorMatrix in="SourceAlpha" type="matrix" values="0 0 0 0 0 0 0 0 0 0 0 0 0 0 0 0 0 0 127 0" result="hardAlpha"/>
<feOffset dx="3" dy="4"/>
<feGaussianBlur stdDeviation="3.5"/>
<feComposite in2="hardAlpha" operator="out"/>
<feColorMatrix type="matrix" values="0 0 0 0 0 0 0 0 0 0 0 0 0 0 0 0 0 0 0.15 0"/>
<feBlend mode="normal" in2="BackgroundImageFix" result="effect1_dropShadow_1951_39673"/>
<feBlend mode="normal" in="SourceGraphic" in2="effect1_dropShadow_1951_39673" result="shape"/>
</filter>
<filter id="filter1_d_1951_39673" x="217.881" y="178.339" width="164" height="164" filterUnits="userSpaceOnUse" color-interpolation-filters="sRGB">
<feFlood flood-opacity="0" result="BackgroundImageFix"/>
<feColorMatrix in="SourceAlpha" type="matrix" values="0 0 0 0 0 0 0 0 0 0 0 0 0 0 0 0 0 0 127 0" result="hardAlpha"/>
<feOffset dx="3" dy="4"/>
<feGaussianBlur stdDeviation="3.5"/>
<feComposite in2="hardAlpha" operator="out"/>
<feColorMatrix type="matrix" values="0 0 0 0 0 0 0 0 0 0 0 0 0 0 0 0 0 0 0.15 0"/>
<feBlend mode="normal" in2="BackgroundImageFix" result="effect1_dropShadow_1951_39673"/>
<feBlend mode="normal" in="SourceGraphic" in2="effect1_dropShadow_1951_39673" result="shape"/>
</filter>
<linearGradient id="paint0_linear_1951_39673" x1="316.23" y1="233.521" x2="338.654" y2="292.399" gradientUnits="userSpaceOnUse">
<stop stop-color="#11CFAE" stop-opacity="0.5"/>
<stop offset="1" stop-color="#11CFAE" stop-opacity="0"/>
</linearGradient>
</defs>
</svg>
