<svg width="100%" height="100%" viewBox="0 0 428 197" fill="none" xmlns="http://www.w3.org/2000/svg">
<ellipse cx="208.5" cy="188" rx="139.5" ry="9" fill="#E3E4E8"/>
<path d="M390.911 40C410.701 40 426.761 56.06 426.761 75.85V171.64H355.061V75.85C355.061 56.06 371.121 40 390.911 40Z" fill="#3D08A3" stroke="black" stroke-width="2" stroke-miterlimit="10"/>
<mask id="mask0_1946_38377" style="mask-type:luminance" maskUnits="userSpaceOnUse" x="355" y="40" width="72" height="132">
<path d="M390.911 40C410.701 40 426.761 56.06 426.761 75.85V171.64H355.061V75.85C355.061 56.06 371.121 40 390.911 40Z" fill="white"/>
</mask>
<g mask="url(#mask0_1946_38377)">
<path d="M439.331 51.4399L347.761 159.36L347.831 179.28L441.281 182.13L439.331 51.4399Z" fill="#6B36DC"/>
</g>
<path d="M390.911 40C410.701 40 426.761 56.06 426.761 75.85V171.64H355.061V75.85C355.061 56.06 371.121 40 390.911 40Z" stroke="black" stroke-width="2" stroke-miterlimit="10"/>
<path d="M356.849 112.386L352.779 111.246L349.219 112.446L347.969 116.346L351.289 119.866L350.579 128.926L353.299 130.986L356.489 130.166L358.359 127.966L358.909 125.116L361.309 127.426L366.189 128.176H371.279L376.629 126.696L377.369 125.636L377.259 123.316L378.519 121.336L379.109 119.736L378.489 117.906L379.109 115.346L378.129 113.826L377.769 112.746L378.109 109.926L377.609 108.006L373.909 106.566H369.689L368.169 106.766L366.189 105.256H362.529L360.299 105.886L359.519 107.856L357.579 111.226L356.849 112.386Z" fill="white"/>
<path d="M368.679 119.206C369.369 121.026 368.969 123.626 367.409 124.216C365.849 124.806 364.019 123.816 363.329 121.996C362.929 120.946 363.189 116.286 363.609 115.436C363.919 114.806 364.239 117.886 364.909 117.626C366.469 117.036 367.989 117.386 368.679 119.206Z" fill="#BFBFBF"/>
<path d="M321.779 71.4462L303.149 63.9162L285.959 63.5562L276.109 66.1162L268.309 69.9662L260.959 75.7062L252.969 86.3661L248.369 98.7762L246.859 111.866L236.039 121.506L234.649 130.676L238.959 135.096L247.499 139.456L255.519 139.626L263.009 126.416L266.239 121.516L271.589 119.216L275.649 120.336L277.979 123.146L286.049 124.246L286.879 133.936L289.189 119.026L284.749 118.216L280.979 118.986L268.239 115.896L260.979 117.916L255.529 139.626L254.819 141.146L261.609 147.696L269.049 151.236L267.259 157.806L262.579 159.846L250.359 159.196L247.599 168.776L249.319 180.606L253.879 182.866L265.799 178.386L264.819 173.986L275.979 171.536L281.989 167.416L286.939 158.596L303.849 159.916L316.599 155.146L321.959 161.196L324.299 168.096L322.609 180.176L330.599 184.206L335.719 182.346L340.019 183.946L347.699 182.776L349.299 177.006L346.929 174.476L340.339 173.406L340.879 168.296C340.879 168.296 340.019 148.956 330.589 143.766L338.439 128.186L344.759 129.386L350.759 127.436L351.319 120.776L348.349 118.306L341.179 118.206L341.159 104.976L336.449 86.3862L328.939 77.1762L321.809 71.4562L321.779 71.4462Z" fill="#25F3CF"/>
<path d="M320 155.5C322.834 154.5 326.9 152.8 330.5 146" stroke="#00C19C" stroke-width="5" stroke-linecap="round"/>
<path d="M333.232 122.688C334.927 132.423 324.128 149.455 314.549 151.123C304.97 152.791 278.259 156.745 276.564 147.01C274.869 137.275 303.24 109.75 312.819 108.082C329.787 102.903 331.537 112.954 333.232 122.688Z" fill="url(#paint0_linear_1946_38377)"/>
<path d="M286.899 158.586C286.899 158.586 285.809 158.366 284.709 157.796" stroke="black" stroke-width="2" stroke-linecap="round" stroke-linejoin="round"/>
<path d="M299.249 105.216C299.249 105.216 298.019 102.686 295.899 100.226C297.479 98.4161 298.859 96.9861 298.859 96.9861L297.519 95.7861C296.149 96.3461 294.959 97.2461 293.949 98.2661C293.269 97.6861 292.549 97.1661 291.769 96.7461C290.919 96.2861 290.129 96.6861 289.159 96.4661C289.159 96.4661 291.229 98.1161 292.489 99.9461C290.539 102.496 289.549 105.106 289.549 105.106L291.669 105.886C292.099 105.026 292.899 103.906 293.799 102.756C295.149 104.516 299.259 105.216 299.259 105.216H299.249Z" fill="black"/>
<path d="M330.999 105.216C330.999 105.216 329.769 102.686 327.649 100.226C329.229 98.4161 330.609 96.9861 330.609 96.9861L329.269 95.7861C327.899 96.3461 326.709 97.2461 325.699 98.2661C325.019 97.6861 324.299 97.1661 323.519 96.7461C322.669 96.2861 321.879 96.6861 320.909 96.4661C320.909 96.4661 322.979 98.1161 324.239 99.9461C322.289 102.496 321.299 105.106 321.299 105.106L323.419 105.886C323.849 105.026 324.649 103.906 325.549 102.756C326.899 104.516 331.009 105.216 331.009 105.216H330.999Z" fill="black"/>
<path d="M254.849 179.326H251.639C250.85 179.326 250.209 179.966 250.209 180.756C250.209 181.546 250.85 182.186 251.639 182.186H254.849C255.639 182.186 256.279 181.546 256.279 180.756C256.279 179.966 255.639 179.326 254.849 179.326Z" fill="#00C19C"/>
<path d="M260.879 178.566H257.669C256.879 178.566 256.239 179.207 256.239 179.996C256.239 180.786 256.879 181.426 257.669 181.426H260.879C261.669 181.426 262.309 180.786 262.309 179.996C262.309 179.207 261.669 178.566 260.879 178.566Z" fill="#00C19C"/>
<path d="M265.239 176.466H262.029C261.239 176.466 260.599 177.107 260.599 177.896C260.599 178.686 261.239 179.326 262.029 179.326H265.239C266.029 179.326 266.669 178.686 266.669 177.896C266.669 177.107 266.029 176.466 265.239 176.466Z" fill="#00C19C"/>
<path d="M253.649 139.516C260.169 149.356 269.019 151.226 269.019 151.226C269.019 151.226 269.889 161.456 258.039 159.836L250.329 159.186C250.329 159.186 245.009 167.656 248.919 179.686C248.919 179.686 249.519 182.856 253.849 182.856C253.849 182.856 258.959 182.036 254.339 176.506" stroke="black" stroke-width="1.94" stroke-linecap="round" stroke-linejoin="round"/>
<path d="M346.559 177.616H329.879C328.305 177.616 327.029 178.892 327.029 180.466V180.476C327.029 182.05 328.305 183.326 329.879 183.326H346.559C348.133 183.326 349.409 182.05 349.409 180.476V180.466C349.409 178.892 348.133 177.616 346.559 177.616Z" fill="#00C19C"/>
<path d="M262.789 179.996C270.079 177.916 263.769 173.026 263.769 173.026C283.429 175.096 286.899 158.586 286.899 158.586C286.899 158.586 319.039 168.196 335.939 133.996C335.939 133.996 353.479 95.5863 324.719 73.5463C295.979 51.5163 247.499 63.8963 246.839 111.856" stroke="black" stroke-width="1.94" stroke-linecap="round" stroke-linejoin="round"/>
<path d="M338.489 177.026C342.079 176.706 343.229 177.946 343.439 179.336C343.849 182.056 341.329 184.486 338.649 183.876C337.779 183.676 336.789 183.216 335.689 182.326" stroke="black" stroke-width="2" stroke-linecap="round" stroke-linejoin="round"/>
<path d="M330.029 177.406C337.569 176.106 334.719 182.676 334.719 182.676C334.719 182.676 332.359 186.086 327.679 182.926L322.569 180.156" stroke="black" stroke-width="1.94" stroke-linecap="round" stroke-linejoin="round"/>
<path d="M343.099 182.396C344.049 182.656 344.879 182.826 345.599 182.856C346.319 182.886 348.439 182.126 349.149 179.686C349.579 178.196 349.709 176.476 347.829 175.046C346.829 174.286 345.599 173.886 344.359 173.776L340.319 173.406C343.449 153.686 330.569 143.766 330.569 143.766" stroke="black" stroke-width="1.94" stroke-linecap="round" stroke-linejoin="round"/>
<path d="M341.149 118.207C341.149 118.207 343.149 119.867 348.319 118.307" stroke="black" stroke-width="2" stroke-miterlimit="10" stroke-linecap="round"/>
<path d="M339.629 128.317C339.629 128.317 344.349 130.177 350.729 127.437" stroke="black" stroke-width="1.94" stroke-linecap="round" stroke-linejoin="round"/>
<path d="M377.259 123.316C377.259 123.316 378.379 124.926 376.639 126.696C375.139 128.216 368.109 128.856 368.049 125.826C368.049 125.826 368.189 123.646 369.409 123.436" fill="white"/>
<path d="M377.259 123.316C377.259 123.316 378.379 124.926 376.639 126.696C375.139 128.216 368.109 128.856 368.049 125.826C368.049 125.826 368.189 123.646 369.409 123.436" stroke="black" stroke-width="1.57" stroke-linecap="round" stroke-linejoin="round"/>
<path d="M363.709 111.467C363.469 117.987 366.829 118.037 368.389 116.917C369.949 115.797 371.149 104.507 364.069 104.987C356.989 105.467 356.869 114.787 356.869 114.787C356.869 114.787 355.669 109.627 350.739 111.667C345.809 113.707 348.489 117.427 348.489 117.427C348.489 117.427 353.949 119.467 350.579 128.937C350.579 128.937 352.419 132.327 356.139 130.407C356.139 130.407 359.139 128.727 358.899 125.127C358.899 125.127 359.419 129.397 371.269 128.197" stroke="black" stroke-width="2" stroke-linecap="round" stroke-linejoin="round"/>
<path d="M369.689 106.926C369.689 106.926 373.189 106.176 375.909 106.846C378.629 107.516 378.939 111.026 376.499 112.226C375.129 112.896 373.169 113.446 370.539 113.256" stroke="black" stroke-width="1.79" stroke-linecap="round" stroke-linejoin="round"/>
<path d="M377.769 112.746C377.769 112.746 380.259 114.846 378.469 116.906C376.919 118.686 368.059 120.336 367.219 117.376" stroke="black" stroke-width="1.79" stroke-linecap="round" stroke-linejoin="round"/>
<path d="M378.489 117.906C378.489 117.906 380.169 119.276 378.519 121.346C377.099 123.126 368.989 125.076 368.219 122.116C368.219 122.116 367.819 119.656 369.209 119.216" stroke="black" stroke-width="1.72" stroke-linecap="round" stroke-linejoin="round"/>
<path d="M316.56 155.126C316.56 155.126 328.44 162.406 322.69 179.676" stroke="black" stroke-width="1.94" stroke-linecap="round" stroke-linejoin="round"/>
<path d="M246.839 111.856C246.839 111.856 225.339 123.276 238.939 135.086C238.939 135.086 243.789 139.366 255.499 139.616" stroke="black" stroke-width="2" stroke-linecap="round" stroke-linejoin="round"/>
<path d="M247.69 125.326C247.69 125.326 245.84 129.116 253.85 128.376" stroke="black" stroke-width="2" stroke-linecap="round" stroke-linejoin="round"/>
<path d="M258.979 175.096C261.259 174.966 264.579 182.126 256.859 181.836" stroke="black" stroke-width="1.94" stroke-linecap="round" stroke-linejoin="round"/>
<path d="M267.64 112.386L263.56 111.246L260 112.446L258.75 116.346L262.08 119.866L261.37 128.926L264.09 130.986L267.28 130.166L269.14 127.966L269.69 125.116L272.1 127.426L276.97 128.176H282.06L287.42 126.696L288.16 125.636L288.04 123.316L289.3 121.336L289.9 119.736L289.27 117.906L289.9 115.346L288.91 113.826L288.55 112.746L288.89 109.926L288.39 108.006L284.7 106.566H280.48L278.95 106.766L276.97 105.256H273.31L271.09 105.886L270.3 107.856L268.37 111.226L267.64 112.386Z" fill="white"/>
<path d="M279.46 119.206C280.15 121.026 279.75 123.626 278.19 124.216C276.63 124.806 274.8 123.816 274.11 121.996C273.71 120.946 273.97 116.286 274.39 115.436C274.7 114.806 275.02 117.886 275.69 117.626C277.25 117.036 278.77 117.386 279.46 119.206Z" fill="#BFBFBF"/>
<path d="M232.559 71.4462L213.929 63.9162L196.739 63.5562L186.889 66.1162L179.089 69.9662L171.739 75.7062L163.749 86.3661L159.149 98.7762L157.639 111.866L146.819 121.506L145.429 130.676L149.739 135.096L158.279 139.456L166.299 139.626L174.429 134.976L182.069 130.746L173.789 126.416L177.019 121.516L182.369 119.216L186.429 120.336L188.759 123.146L196.829 124.246L197.659 133.936L196.819 142.696L207.839 123.326L196.619 119.016L192.869 109.936L171.009 119.216L166.309 139.616L165.599 141.136L172.389 147.686L179.829 151.226L178.039 157.796L173.359 159.836L161.139 159.186L158.379 168.766L160.099 180.596L164.659 182.856L176.579 178.376L175.599 173.976L186.759 171.526L192.769 167.406L197.719 158.586L214.629 159.906L227.379 155.136L232.739 161.186L235.079 168.086L233.389 180.166L241.379 184.196L246.499 182.336L250.799 183.936L258.479 182.766L260.079 176.996L257.709 174.466L251.119 173.396L251.659 168.286C251.659 168.286 250.799 148.946 241.369 143.756L249.219 128.176L255.539 129.376L261.539 127.426L262.099 120.766L259.129 118.296L251.959 118.196L251.939 104.966L247.229 86.3762L239.719 77.1662L232.589 71.4462H232.559Z" fill="#6B36DC"/>
<path d="M197.69 158.586C197.69 158.586 196.6 158.366 195.5 157.796" stroke="black" stroke-width="2" stroke-linecap="round" stroke-linejoin="round"/>
<path d="M210.039 105.216C210.039 105.216 208.809 102.686 206.689 100.226C208.269 98.4161 209.649 96.9861 209.649 96.9861L208.309 95.7861C206.939 96.3461 205.749 97.2461 204.739 98.2661C204.059 97.6861 203.339 97.1661 202.559 96.7461C201.709 96.2861 200.919 96.6861 199.949 96.4661C199.949 96.4661 202.019 98.1161 203.279 99.9461C201.329 102.496 200.339 105.106 200.339 105.106L202.459 105.886C202.889 105.026 203.689 103.906 204.589 102.756C205.939 104.516 210.049 105.216 210.049 105.216H210.039Z" fill="#121212"/>
<path d="M241.789 105.216C241.789 105.216 240.559 102.686 238.439 100.226C240.019 98.4161 241.399 96.9861 241.399 96.9861L240.059 95.7861C238.689 96.3461 237.499 97.2461 236.489 98.2661C235.809 97.6861 235.089 97.1661 234.309 96.7461C233.459 96.2861 232.669 96.6861 231.699 96.4661C231.699 96.4661 233.769 98.1161 235.029 99.9461C233.079 102.496 232.089 105.106 232.089 105.106L234.209 105.886C234.639 105.026 235.439 103.906 236.339 102.756C237.689 104.516 241.799 105.216 241.799 105.216H241.789Z" fill="#121212"/>
<path d="M165.629 179.326H162.419C161.629 179.326 160.989 179.966 160.989 180.756C160.989 181.546 161.629 182.186 162.419 182.186H165.629C166.419 182.186 167.059 181.546 167.059 180.756C167.059 179.966 166.419 179.326 165.629 179.326Z" fill="#3D08A3"/>
<path d="M171.66 178.566H168.45C167.66 178.566 167.02 179.207 167.02 179.996C167.02 180.786 167.66 181.426 168.45 181.426H171.66C172.449 181.426 173.09 180.786 173.09 179.996C173.09 179.207 172.449 178.566 171.66 178.566Z" fill="#3D08A3"/>
<path d="M176.029 176.466H172.819C172.029 176.466 171.389 177.107 171.389 177.896C171.389 178.686 172.029 179.326 172.819 179.326H176.029C176.819 179.326 177.459 178.686 177.459 177.896C177.459 177.107 176.819 176.466 176.029 176.466Z" fill="#3D08A3"/>
<path d="M164.43 139.517C170.95 149.357 179.8 151.227 179.8 151.227C179.8 151.227 180.67 161.457 168.82 159.837L161.11 159.187C161.11 159.187 155.79 167.657 159.7 179.687C159.7 179.687 160.3 182.857 164.63 182.857C164.63 182.857 169.74 182.037 165.12 176.507" stroke="black" stroke-width="1.94" stroke-linecap="round" stroke-linejoin="round"/>
<path d="M231 156C233.833 155 237.9 153.3 241.5 146.5" stroke="#3D08A3" stroke-width="5" stroke-linecap="round"/>
<path d="M257.349 177.616H240.669C239.095 177.616 237.819 178.892 237.819 180.466V180.476C237.819 182.05 239.095 183.326 240.669 183.326H257.349C258.923 183.326 260.199 182.05 260.199 180.476V180.466C260.199 178.892 258.923 177.616 257.349 177.616Z" fill="#3D08A3"/>
<path d="M173.579 179.996C180.869 177.916 174.559 173.026 174.559 173.026C194.219 175.096 197.689 158.586 197.689 158.586C197.689 158.586 229.829 168.196 246.729 133.996C246.729 133.996 264.269 95.5863 235.509 73.5463C206.769 51.5163 158.289 63.8963 157.629 111.856" stroke="black" stroke-width="1.94" stroke-linecap="round" stroke-linejoin="round"/>
<path d="M249.269 177.026C252.859 176.706 254.009 177.946 254.219 179.336C254.629 182.056 252.109 184.486 249.429 183.876C248.559 183.676 247.569 183.216 246.469 182.326" stroke="black" stroke-width="2" stroke-linecap="round" stroke-linejoin="round"/>
<path d="M240.81 177.406C248.35 176.106 245.5 182.676 245.5 182.676C245.5 182.676 243.14 186.086 238.46 182.926L233.35 180.156" stroke="black" stroke-width="1.94" stroke-linecap="round" stroke-linejoin="round"/>
<path d="M253.88 182.397C254.83 182.657 255.66 182.827 256.38 182.857C257.1 182.887 259.22 182.127 259.93 179.687C260.36 178.197 260.49 176.477 258.61 175.047C257.61 174.287 256.38 173.887 255.14 173.777L251.1 173.407C254.23 153.687 241.35 143.767 241.35 143.767" stroke="black" stroke-width="1.94" stroke-linecap="round" stroke-linejoin="round"/>
<path d="M251.939 118.206C251.939 118.206 253.939 119.866 259.109 118.306" stroke="#211815" stroke-width="2" stroke-miterlimit="10" stroke-linecap="round"/>
<path d="M250.419 128.317C250.419 128.317 255.139 130.177 261.519 127.437" stroke="black" stroke-width="1.94" stroke-linecap="round" stroke-linejoin="round"/>
<path d="M288.04 123.316C288.04 123.316 289.16 124.926 287.42 126.696C285.92 128.216 278.89 128.856 278.83 125.826C278.83 125.826 278.97 123.646 280.19 123.436" fill="white"/>
<path d="M288.04 123.316C288.04 123.316 289.16 124.926 287.42 126.696C285.92 128.216 278.89 128.856 278.83 125.826C278.83 125.826 278.97 123.646 280.19 123.436" stroke="black" stroke-width="1.57" stroke-linecap="round" stroke-linejoin="round"/>
<path d="M274.489 111.467C274.249 117.987 277.609 118.037 279.169 116.917C280.729 115.797 281.929 104.507 274.849 104.987C267.769 105.467 267.649 114.787 267.649 114.787C267.649 114.787 266.449 109.627 261.519 111.667C256.589 113.707 259.269 117.427 259.269 117.427C259.269 117.427 264.729 119.467 261.359 128.937C261.359 128.937 263.199 132.327 266.919 130.407C266.919 130.407 269.919 128.727 269.679 125.127C269.679 125.127 270.199 129.397 282.049 128.197" stroke="black" stroke-width="2" stroke-linecap="round" stroke-linejoin="round"/>
<path d="M280.479 106.926C280.479 106.926 283.979 106.176 286.699 106.846C289.419 107.516 289.729 111.026 287.289 112.226C285.919 112.896 283.959 113.446 281.329 113.256" stroke="black" stroke-width="1.79" stroke-linecap="round" stroke-linejoin="round"/>
<path d="M288.55 112.746C288.55 112.746 291.04 114.846 289.25 116.906C287.7 118.686 278.84 120.336 278 117.376" stroke="black" stroke-width="1.79" stroke-linecap="round" stroke-linejoin="round"/>
<path d="M289.269 117.906C289.269 117.906 290.949 119.276 289.299 121.346C287.879 123.126 279.769 125.076 278.999 122.116C278.999 122.116 278.599 119.656 279.989 119.216" stroke="black" stroke-width="1.72" stroke-linecap="round" stroke-linejoin="round"/>
<path d="M227.35 155.126C227.35 155.126 239.23 162.406 233.48 179.676" stroke="black" stroke-width="1.94" stroke-linecap="round" stroke-linejoin="round"/>
<path d="M157.629 111.856C157.629 111.856 136.129 123.276 149.729 135.086C149.729 135.086 154.579 139.366 166.289 139.616" stroke="black" stroke-width="2" stroke-linecap="round" stroke-linejoin="round"/>
<path d="M158.469 125.326C158.469 125.326 156.619 129.116 164.629 128.376" stroke="black" stroke-width="2" stroke-linecap="round" stroke-linejoin="round"/>
<path d="M169.759 175.096C172.039 174.966 175.359 182.126 167.639 181.836" stroke="black" stroke-width="1.94" stroke-linecap="round" stroke-linejoin="round"/>
<path d="M143.349 71.4466L124.719 63.9166L107.529 63.5566L97.6792 66.1166L89.8792 69.9666L82.5292 75.7066L74.5392 86.3666L69.9392 98.7766L68.4292 111.867L57.6092 121.507L56.2192 130.677L60.5292 135.097L69.0692 139.457L77.0892 139.627L75.4392 128.397L78.3892 124.827L84.5892 126.427L87.8192 121.527L93.1692 119.227L97.2292 120.347L99.5592 123.157L107.629 124.257L108.459 133.947L107.619 142.707L100.839 146.147L89.4492 144.867L85.8292 139.477L82.3992 141.397L77.1092 139.647L76.3992 141.167L83.1892 147.717L90.6292 151.257L88.8392 157.827L84.1592 159.867L71.9392 159.217L69.1792 168.797L70.8992 180.627L75.4592 182.887L87.3792 178.407L86.3992 174.007L97.5592 171.557L103.569 167.437L108.519 158.617L125.429 159.937L138.179 155.167L143.539 161.217L145.879 168.117L144.189 180.197L152.179 184.227L157.299 182.367L161.599 183.967L169.279 182.797L170.879 177.027L168.509 174.497L161.919 173.427L162.459 168.317C162.459 168.317 161.599 148.977 152.169 143.787L160.019 128.207L166.339 129.407L172.339 127.457L172.899 120.797L169.929 118.327L162.759 118.227L162.739 104.997L158.029 86.4066L150.519 77.1966L143.389 71.4766L143.349 71.4466Z" fill="#25F3CF"/>
<path d="M142 155.5C144.833 154.5 147.9 153.3 151.5 146.5" stroke="#00C19C" stroke-width="5" stroke-linecap="round"/>
<path d="M178.419 112.386L174.349 111.246L170.789 112.446L169.539 116.346L172.859 119.866L172.149 128.926L174.869 130.986L178.059 130.166L179.929 127.966L180.479 125.116L182.879 127.426L187.759 128.176H192.849L198.199 126.696L198.939 125.636L198.829 123.316L200.089 121.336L200.679 119.736L200.059 117.906L200.679 115.346L199.699 113.826L199.339 112.746L199.679 109.926L199.179 108.006L195.479 106.566H191.269L189.739 106.766L187.759 105.256H184.099L181.869 105.886L181.089 107.856L179.149 111.226L178.419 112.386Z" fill="white"/>
<path d="M157.231 124.689C158.926 134.424 148.127 151.456 138.549 153.124C128.97 154.792 102.259 158.746 100.564 149.011C98.8684 139.276 127.239 111.75 136.818 110.082C153.786 104.904 155.536 114.954 157.231 124.689Z" fill="url(#paint1_linear_1946_38377)"/>
<path d="M243.462 126.018C245.065 135.223 234.854 151.329 225.796 152.906C216.739 154.483 191.481 158.222 189.878 149.017C188.275 139.812 215.102 113.784 224.16 112.207C240.205 107.31 241.859 116.813 243.462 126.018Z" fill="url(#paint2_linear_1946_38377)"/>
<path d="M84.9492 125.726L81.7692 124.516H79.8292L77.5992 125.726L76.1392 129.926L77.0692 136.416L79.3492 140.366L82.3592 141.366L84.5092 141.196L86.1892 140.046L88.2092 143.056L93.6892 145.296L98.1092 145.436L104.079 144.456L107.579 142.676L108.169 140.916L107.379 139.446L108.469 136.466L107.379 133.996L108.579 132.166L107.379 129.786V128.296L107.929 125.726L106.289 124.106L103.489 123.876H100.229L98.1792 121.496L95.6592 119.736L93.0292 119.816L89.7692 120.646L87.7892 122.226L85.7892 124.496L84.9492 125.726Z" fill="white"/>
<path d="M190.249 119.207C190.939 121.027 190.539 123.627 188.979 124.217C187.419 124.807 185.589 123.817 184.899 121.997C184.499 120.947 184.759 116.287 185.179 115.437C185.489 114.807 185.809 117.887 186.479 117.627C188.039 117.037 189.559 117.387 190.249 119.207Z" fill="#BFBFBF"/>
<path d="M108.469 158.586C108.469 158.586 107.379 158.366 106.279 157.796" stroke="black" stroke-width="2" stroke-linecap="round" stroke-linejoin="round"/>
<path d="M120.819 105.217C120.819 105.217 119.589 102.687 117.469 100.227C119.049 98.4166 120.429 96.9866 120.429 96.9866L119.089 95.7866C117.719 96.3466 116.529 97.2466 115.519 98.2666C114.839 97.6866 114.119 97.1666 113.339 96.7466C112.489 96.2866 111.699 96.6866 110.729 96.4666C110.729 96.4666 112.799 98.1166 114.059 99.9466C112.109 102.497 111.119 105.107 111.119 105.107L113.239 105.887C113.669 105.027 114.469 103.907 115.369 102.757C116.719 104.517 120.829 105.217 120.829 105.217H120.819Z" fill="black"/>
<path d="M152.569 105.217C152.569 105.217 151.339 102.687 149.219 100.227C150.799 98.4166 152.179 96.9866 152.179 96.9866L150.839 95.7866C149.469 96.3466 148.279 97.2466 147.269 98.2666C146.589 97.6866 145.869 97.1666 145.089 96.7466C144.239 96.2866 143.449 96.6866 142.479 96.4666C142.479 96.4666 144.549 98.1166 145.809 99.9466C143.859 102.497 142.869 105.107 142.869 105.107L144.989 105.887C145.419 105.027 146.219 103.907 147.119 102.757C148.469 104.517 152.579 105.217 152.579 105.217H152.569Z" fill="black"/>
<path d="M76.4193 179.327H73.2093C72.4195 179.327 71.7793 179.967 71.7793 180.757C71.7793 181.546 72.4195 182.187 73.2093 182.187H76.4193C77.2091 182.187 77.8493 181.546 77.8493 180.757C77.8493 179.967 77.2091 179.327 76.4193 179.327Z" fill="#00C19C"/>
<path d="M82.4491 178.566H79.2391C78.4493 178.566 77.8091 179.207 77.8091 179.996C77.8091 180.786 78.4493 181.426 79.2391 181.426H82.4491C83.2389 181.426 83.8791 180.786 83.8791 179.996C83.8791 179.207 83.2389 178.566 82.4491 178.566Z" fill="#00C19C"/>
<path d="M86.8089 176.466H83.5989C82.8092 176.466 82.1689 177.107 82.1689 177.896C82.1689 178.686 82.8092 179.326 83.5989 179.326H86.8089C87.5987 179.326 88.2389 178.686 88.2389 177.896C88.2389 177.107 87.5987 176.466 86.8089 176.466Z" fill="#00C19C"/>
<path d="M75.2191 139.517C81.7391 149.357 90.5891 151.227 90.5891 151.227C90.5891 151.227 91.4591 161.457 79.6091 159.837L71.8991 159.187C71.8991 159.187 66.5791 167.657 70.4891 179.687C70.4891 179.687 71.0891 182.857 75.4191 182.857C75.4191 182.857 80.5291 182.037 75.9091 176.507" stroke="black" stroke-width="1.94" stroke-linecap="round" stroke-linejoin="round"/>
<path d="M168.129 177.617H151.449C149.875 177.617 148.599 178.893 148.599 180.467V180.477C148.599 182.051 149.875 183.327 151.449 183.327H168.129C169.703 183.327 170.979 182.051 170.979 180.477V180.467C170.979 178.893 169.703 177.617 168.129 177.617Z" fill="#00C19C"/>
<path d="M84.3592 179.996C91.6492 177.916 85.3392 173.026 85.3392 173.026C104.999 175.096 108.469 158.586 108.469 158.586C108.469 158.586 140.609 168.196 157.509 133.996C157.509 133.996 175.049 95.5865 146.289 73.5465C117.549 51.5065 69.0692 63.8865 68.4092 111.856" stroke="black" stroke-width="1.94" stroke-linecap="round" stroke-linejoin="round"/>
<path d="M160.059 177.026C163.649 176.706 164.799 177.946 165.009 179.336C165.419 182.056 162.899 184.486 160.219 183.876C159.349 183.676 158.359 183.216 157.259 182.326" stroke="black" stroke-width="2" stroke-linecap="round" stroke-linejoin="round"/>
<path d="M151.599 177.407C159.139 176.107 156.289 182.677 156.289 182.677C156.289 182.677 153.929 186.087 149.249 182.927L144.139 180.157" stroke="black" stroke-width="1.94" stroke-linecap="round" stroke-linejoin="round"/>
<path d="M164.669 182.397C165.619 182.657 166.449 182.827 167.169 182.857C167.889 182.887 170.009 182.127 170.719 179.687C171.149 178.197 171.279 176.477 169.399 175.047C168.399 174.287 167.169 173.887 165.929 173.777L161.889 173.407C165.019 153.687 152.139 143.767 152.139 143.767" stroke="black" stroke-width="1.94" stroke-linecap="round" stroke-linejoin="round"/>
<path d="M162.729 118.207C162.729 118.207 164.729 119.867 169.899 118.307" stroke="#211815" stroke-width="2" stroke-miterlimit="10" stroke-linecap="round"/>
<path d="M161.199 128.317C161.199 128.317 165.919 130.177 172.299 127.437" stroke="black" stroke-width="1.94" stroke-linecap="round" stroke-linejoin="round"/>
<path d="M198.829 123.316C198.829 123.316 199.949 124.926 198.209 126.696C196.709 128.216 189.679 128.856 189.619 125.826C189.619 125.826 189.759 123.646 190.979 123.436" fill="white"/>
<path d="M198.829 123.316C198.829 123.316 199.949 124.926 198.209 126.696C196.709 128.216 189.679 128.856 189.619 125.826C189.619 125.826 189.759 123.646 190.979 123.436" stroke="black" stroke-width="1.57" stroke-linecap="round" stroke-linejoin="round"/>
<path d="M185.279 111.467C185.039 117.987 188.399 118.037 189.959 116.917C191.519 115.797 192.719 104.507 185.639 104.987C178.559 105.467 178.439 114.787 178.439 114.787C178.439 114.787 177.239 109.627 172.309 111.667C167.379 113.707 170.059 117.427 170.059 117.427C170.059 117.427 175.519 119.467 172.149 128.937C172.149 128.937 173.989 132.327 177.709 130.407C177.709 130.407 180.709 128.727 180.469 125.127C180.469 125.127 180.989 129.397 192.839 128.197" stroke="black" stroke-width="2" stroke-linecap="round" stroke-linejoin="round"/>
<path d="M191.269 106.927C191.269 106.927 194.769 106.177 197.489 106.847C200.209 107.517 200.519 111.027 198.079 112.227C196.709 112.897 194.749 113.447 192.119 113.257" stroke="black" stroke-width="1.79" stroke-linecap="round" stroke-linejoin="round"/>
<path d="M199.339 112.747C199.339 112.747 201.829 114.847 200.039 116.907C198.489 118.687 189.629 120.337 188.789 117.377" stroke="black" stroke-width="1.79" stroke-linecap="round" stroke-linejoin="round"/>
<path d="M200.059 117.906C200.059 117.906 201.739 119.276 200.089 121.346C198.669 123.126 190.559 125.076 189.789 122.116C189.789 122.116 189.389 119.656 190.779 119.216" stroke="black" stroke-width="1.72" stroke-linecap="round" stroke-linejoin="round"/>
<path d="M138.129 155.126C138.129 155.126 150.009 162.406 144.259 179.676" stroke="black" stroke-width="1.94" stroke-linecap="round" stroke-linejoin="round"/>
<path d="M68.4092 111.856C68.4092 111.856 46.9092 123.276 60.5092 135.086C60.5092 135.086 65.3592 139.366 77.0692 139.616" stroke="black" stroke-width="2" stroke-linecap="round" stroke-linejoin="round"/>
<path d="M69.2594 125.327C69.2594 125.327 67.4094 129.117 75.4194 128.377" stroke="black" stroke-width="2" stroke-linecap="round" stroke-linejoin="round"/>
<path d="M85.7889 139.447C85.7889 139.447 85.7589 142.067 81.2389 141.607C75.1289 140.987 74.1589 124.567 79.7689 124.347C83.5689 124.197 84.5689 126.407 84.5689 126.407C84.5689 126.407 87.4089 120.977 91.6289 120.087C91.6289 120.087 98.1189 118.237 99.5289 123.137" stroke="black" stroke-width="2.23" stroke-linecap="round" stroke-linejoin="round"/>
<path d="M98.1094 124.466C98.1094 124.466 105.729 121.706 107.549 125.426C109.839 130.106 101.049 130.436 99.7194 130.736" stroke="black" stroke-width="2.23" stroke-linecap="round" stroke-linejoin="round"/>
<path d="M106.939 129.376C106.909 129.216 113.119 134.956 101.529 134.956" stroke="black" stroke-width="2.23" stroke-linecap="round" stroke-linejoin="round"/>
<path d="M85.7891 138.026C85.7891 138.026 85.7491 147.336 100.069 145.086C100.069 145.086 105.389 144.876 107.579 142.676C108.309 141.946 108.529 140.606 107.329 139.706" stroke="black" stroke-width="2.23" stroke-linecap="round" stroke-linejoin="round"/>
<path d="M107.649 134.966C107.649 134.966 111.499 138.966 102.999 139.706" stroke="black" stroke-width="2.23" stroke-linecap="round" stroke-linejoin="round"/>
<path d="M80.5492 175.096C82.8292 174.966 86.1492 182.126 78.4292 181.836" stroke="black" stroke-width="1.94" stroke-linecap="round" stroke-linejoin="round"/>
<rect x="365" y="1" width="59" height="29" fill="#121212" stroke="black" stroke-width="2"/>
<rect x="358" y="1" width="59" height="29" fill="white" stroke="black" stroke-width="2"/>
<path d="M11 130H45" stroke="black" stroke-width="2"/>
<path d="M0 139H34" stroke="black" stroke-width="2"/>
<path d="M366 8V24H375.966V20.8393H369.08V8H366Z" fill="#FF5461"/>
<path d="M377.517 8V24H380.597V8H377.517Z" fill="#FF5461"/>
<path d="M392.969 8L389.229 19.7791L385.473 8H381.987L387.436 24H390.752L396.2 8H392.969Z" fill="#FF5461"/>
<path d="M397.594 24H408V20.8982H400.673V17.4626H407.255V14.3607H400.673V11.1018H407.848V8H397.594V24Z" fill="#FF5461"/>
<path d="M140.999 107.876C143.999 108.376 144.267 111.376 142.177 114.306C141.749 114.906 141.234 115.428 140.651 115.876C136.646 118.957 129.44 118.614 125.443 116.667C122.416 115.193 121.325 112.651 121.511 110.457C121.718 108.001 123.739 105.884 126 105.88C128.5 105.88 129 106.88 129.999 107.876C131.832 106.876 134.999 105.176 136.999 108.376C138.999 107.876 139.999 107.71 140.999 107.876Z" fill="#6B36DC"/>
<path d="M140.651 115.876C136.646 118.957 129.44 118.614 125.443 116.667C122.416 115.193 121.325 112.651 121.511 110.457M140.651 115.876C141.234 115.428 141.749 114.906 142.177 114.306C144.267 111.376 143.999 108.376 140.999 107.876C139.999 107.71 138.999 107.876 136.999 108.376C134.999 105.176 131.832 106.876 129.999 107.876C129 106.88 128.5 105.88 126 105.88C123.739 105.884 121.718 108.001 121.511 110.457M140.651 115.876C138.648 113.671 132.016 109.5 121.511 110.457" stroke="black" stroke-width="2"/>
<path d="M140.71 115.682C136.669 118.61 129.47 118.611 125.473 116.807C122.445 115.44 121.635 112.599 121.837 110.532C132.386 109.558 138.715 113.619 140.71 115.682Z" fill="white" stroke="black" stroke-width="2"/>
<path d="M320.042 107.876C323.042 108.376 323.31 111.376 321.22 114.306C320.792 114.906 320.277 115.428 319.694 115.876C315.689 118.957 308.483 118.614 304.486 116.667C301.459 115.193 300.368 112.651 300.554 110.457C300.761 108.001 302.782 105.884 305.043 105.88C307.543 105.88 308.043 106.88 309.042 107.876C310.875 106.876 314.042 105.176 316.042 108.376C318.042 107.876 319.042 107.71 320.042 107.876Z" fill="#6B36DC"/>
<path d="M319.694 115.876C315.689 118.957 308.483 118.614 304.486 116.667C301.459 115.193 300.368 112.651 300.554 110.457M319.694 115.876C320.277 115.428 320.792 114.906 321.22 114.306C323.31 111.376 323.042 108.376 320.042 107.876C319.042 107.71 318.042 107.876 316.042 108.376C314.042 105.176 310.875 106.876 309.042 107.876C308.043 106.88 307.543 105.88 305.043 105.88C302.782 105.884 300.761 108.001 300.554 110.457M319.694 115.876C317.691 113.671 311.059 109.5 300.554 110.457" stroke="black" stroke-width="2"/>
<path d="M319.753 115.682C315.712 118.61 308.513 118.611 304.516 116.807C301.488 115.44 300.678 112.599 300.88 110.532C311.429 109.558 317.758 113.619 319.753 115.682Z" fill="white" stroke="black" stroke-width="2"/>
<path d="M208.501 111.567C208.501 107.5 215.849 107.408 218.278 110.637C220.556 109.705 225.415 108.588 226.63 111.568C228.528 110.43 232.285 109.268 233.5 112C234.006 113.656 233.918 116.597 228.148 116.845C227.12 116.889 225.961 116.934 224.731 116.964C221.823 117.034 218.519 117.024 215.62 116.744C211.145 116.311 208.106 113.99 208.501 111.567Z" fill="white"/>
<path d="M218.278 110.637C215.849 107.408 208.501 107.5 208.501 111.567C208.106 113.99 211.145 116.311 215.62 116.744M218.278 110.637C220.556 109.705 225.415 108.588 226.63 111.568M218.278 110.637L215.62 116.744M226.63 111.568C228.528 110.43 232.285 109.268 233.5 112C234.006 113.656 233.918 116.597 228.148 116.845C227.12 116.889 225.961 116.934 224.731 116.964M226.63 111.568L224.731 116.964M215.62 116.744C218.519 117.024 221.823 117.034 224.731 116.964" stroke="#121212" stroke-width="2"/>
<defs>
<linearGradient id="paint0_linear_1946_38377" x1="307.654" y1="105.646" x2="326.001" y2="136.261" gradientUnits="userSpaceOnUse">
<stop stop-color="#11CFAE" stop-opacity="0.5"/>
<stop offset="1" stop-color="#11CFAE" stop-opacity="0"/>
</linearGradient>
<linearGradient id="paint1_linear_1946_38377" x1="131.653" y1="107.646" x2="150.001" y2="138.262" gradientUnits="userSpaceOnUse">
<stop stop-color="#11CFAE" stop-opacity="0.5"/>
<stop offset="1" stop-color="#11CFAE" stop-opacity="0"/>
</linearGradient>
<linearGradient id="paint2_linear_1946_38377" x1="219.276" y1="109.903" x2="236.625" y2="138.853" gradientUnits="userSpaceOnUse">
<stop stop-color="#6730C2"/>
<stop offset="1" stop-color="#4C10AF" stop-opacity="0"/>
</linearGradient>
</defs>
</svg>
