<svg width="124" height="130" viewBox="0 0 124 130" fill="none" xmlns="http://www.w3.org/2000/svg">
<path d="M63.484 2.67378L66.556 40.5576C66.8065 43.6477 70.662 44.9004 72.681 42.5477L97.4338 13.7048C98.6261 12.3155 100.788 13.8861 99.835 15.4493L80.0527 47.9036C78.4391 50.5509 80.8219 53.8305 83.8382 53.1139L120.817 44.3288C122.598 43.9056 123.424 46.4469 121.734 47.1515L86.654 61.7799C83.7925 62.9731 83.7925 67.0269 86.654 68.2201L121.734 82.8485C123.424 83.5531 122.598 86.0944 120.817 85.6712L83.8382 76.8861C80.8219 76.1695 78.4391 79.4491 80.0527 82.0964L99.835 114.551C100.788 116.114 98.6261 117.685 97.4338 116.295L72.681 87.4523C70.662 85.0996 66.8065 86.3523 66.556 89.4424L63.484 127.326C63.3361 129.151 60.6639 129.151 60.516 127.326L57.444 89.4424C57.1935 86.3523 53.338 85.0996 51.319 87.4523L26.5662 116.295C25.3739 117.685 23.2121 116.114 24.165 114.551L43.9473 82.0964C45.5609 79.4491 43.1781 76.1695 40.1618 76.8861L3.18284 85.6712C1.40169 86.0944 0.57596 83.5531 2.26567 82.8485L37.346 68.2201C40.2075 67.0269 40.2075 62.9731 37.346 61.7799L2.26567 47.1515C0.57596 46.4469 1.40169 43.9056 3.18284 44.3288L40.1618 53.1139C43.1781 53.8305 45.5609 50.5509 43.9473 47.9036L24.165 15.4493C23.2121 13.8861 25.3739 12.3155 26.5662 13.7048L51.319 42.5477C53.338 44.9004 57.1935 43.6477 57.444 40.5576L60.516 2.67379C60.6639 0.849043 63.3361 0.849056 63.484 2.67378Z" fill="#0EF8CF" stroke="black" stroke-width="2"/>
</svg>
