<svg width="100%" height="100%" viewBox="0 0 47 46" fill="none" xmlns="http://www.w3.org/2000/svg">
<g clip-path="url(#clip0_1931_38164)">
<path d="M45.9165 36.3643L23.9527 24.9487L10.6394 45.8168L22.0551 23.8531L1.18701 10.5399L23.1507 21.9554L36.464 1.08737L25.0484 23.0511L45.9165 36.3643Z" fill="#F7F7F7"/>
<path d="M28.0024 39.2061L22.7527 24.8807L7.79785 27.9024L22.1233 22.6527L19.1016 7.69785L24.3513 22.0234L39.3061 19.0016L24.9807 24.2513L28.0024 39.2061Z" fill="#F7F7F7"/>
<path d="M20.0835 24.3813C20.5552 26.1417 22.3647 27.1865 24.1251 26.7147C25.8856 26.243 26.9303 24.4335 26.4586 22.6731C25.9869 20.9127 24.1774 19.8679 22.4169 20.3396C20.6565 20.8113 19.6118 22.6209 20.0835 24.3813Z" fill="#F7F7F7"/>
</g>
<defs>
<clipPath id="clip0_1931_38164">
<rect width="45.375" height="45.375" fill="white" transform="translate(0.649902 0.549805)"/>
</clipPath>
</defs>
</svg>
