<svg width="100%" height="100%" viewBox="0 0 443 351" fill="none" xmlns="http://www.w3.org/2000/svg">
<path d="M130.095 136.787H0V186.187H80.6523V350.14H130.095V186.187H161.305C188.621 186.187 210.748 164.057 210.748 136.787H130.095Z" fill="black"/>
<path d="M418.484 351C432.024 351 443 340.023 443 326.482C443 312.94 432.024 301.963 418.484 301.963C404.945 301.963 393.969 312.94 393.969 326.482C393.969 340.023 404.945 351 418.484 351Z" fill="black"/>
<path d="M161.305 70.1274H63.9964C58.2827 70.1274 53.6617 65.5054 53.6617 59.7904C53.6617 54.0755 58.2827 49.4535 63.9964 49.4535H128.707V0H59.7778C26.7703 0 0 26.7759 0 59.7904C0 92.805 26.7703 119.581 59.7778 119.581H210.748C210.748 92.2585 188.598 70.1274 161.305 70.1274Z" fill="black"/>
<path d="M393.759 70.1274H296.369C290.679 70.1274 286.077 65.5054 286.077 59.7904C286.077 54.0755 290.679 49.4535 296.369 49.4535H361.294V0H292.647C259.774 0 233.113 26.7759 233.113 59.7904C233.113 92.805 259.774 119.581 292.647 119.581H443C443 92.2585 420.941 70.1274 393.759 70.1274Z" fill="black"/>
<path d="M393.759 230.572H362.677V186.235H393.759C420.964 186.235 443 164.083 443 136.787H233.113V186.235H313.436V230.572H292.647C259.774 230.572 233.113 257.345 233.113 290.356C233.113 323.367 259.774 350.14 292.647 350.14H361.294V300.691H299.72C294.03 300.691 289.427 296.07 289.427 290.356C289.427 284.641 294.03 280.02 299.72 280.02H443C443 252.7 420.941 230.572 393.759 230.572Z" fill="black"/>
</svg>
