<svg width="22" height="22" viewBox="0 0 22 22" fill="none" xmlns="http://www.w3.org/2000/svg">
<path d="M9.71108 20.6669L0.388443 11.5053C0.247191 11.3665 0.146902 11.2161 0.087576 11.0542C0.0291918 10.8923 0 10.7187 0 10.5337C0 10.3486 0.0291918 10.1751 0.087576 10.0131C0.146902 9.85117 0.247191 9.70079 0.388443 9.56198L9.71108 0.400417C9.97004 0.14593 10.2935 0.012671 10.6815 0.000640671C11.0704 -0.0104643 11.4061 0.122794 11.6886 0.400417C11.9711 0.654905 12.1185 0.972784 12.1307 1.35405C12.142 1.73625 12.0064 2.06616 11.7239 2.34378L4.80257 9.14554H20.5875C20.9877 9.14554 21.3234 9.27834 21.5946 9.54393C21.8649 9.81045 22 10.1404 22 10.5337C22 10.927 21.8649 11.2564 21.5946 11.522C21.3234 11.7885 20.9877 11.9218 20.5875 11.9218H4.80257L11.7239 18.7235C11.9829 18.978 12.1185 19.3019 12.1307 19.6952C12.142 20.0885 12.0064 20.4124 11.7239 20.6669C11.465 20.9445 11.1354 21.0833 10.7352 21.0833C10.3349 21.0833 9.99358 20.9445 9.71108 20.6669Z" fill="#39393A"/>
</svg>
