<svg width="600" height="249" viewBox="0 0 600 249" fill="none" xmlns="http://www.w3.org/2000/svg">
<path d="M131.56 82.3748V177.168H131.474C131.073 180.38 128.366 182.886 125.058 182.886C121.75 182.886 119.044 180.394 118.643 177.168H118.557V81.8131H87.4533V177.687C87.4533 198.569 104.294 215.506 125.058 215.506C145.823 215.506 162.663 198.569 162.663 177.687V51.0939C145.493 51.0939 131.56 65.1069 131.56 82.3748Z" fill="#121212"/>
<path d="M479.624 184.225V89.4317H479.538C479.137 86.2201 476.43 83.7142 473.122 83.7142C469.814 83.7142 467.108 86.2057 466.707 89.4317H466.621V215.506H435.517V88.9133C435.517 68.0305 452.358 51.0939 473.122 51.0939C493.887 51.0939 510.727 68.0305 510.727 88.9133V215.506C493.543 215.506 479.624 201.493 479.624 184.225Z" fill="#121212"/>
<path d="M561.084 95.4625C557.891 95.0584 555.4 92.3304 555.4 88.9963C555.4 85.6621 557.877 82.9342 561.084 82.5301V82.4435H567.069C584.25 82.4435 598.166 68.3997 598.166 51.0939H560.568C539.808 51.0939 522.971 68.0677 522.971 88.9963C522.971 109.925 539.808 126.899 560.568 126.899H567.069V139.182L567.026 184.07H522.985V215.419H537.732L566.997 215.506H567.641H567.827H598.181V126.899V95.5491H561.098V95.4625H561.084Z" fill="#121212"/>
<path d="M75.0096 89.1149C75.0096 68.2321 58.1882 51.2955 37.4476 51.2955L31.1539 51.0939H0V215.506H37.6478C58.3885 215.506 75.2098 198.569 75.2098 177.687L75.0096 89.1149ZM44.1418 184.182H31.1539V82.8501H44.1418V135.719C44.1418 135.806 44.1561 135.907 44.1704 135.993C44.1704 136.324 44.1561 136.656 44.1418 136.987V184.182Z" fill="#121212"/>
<path d="M249.921 89.1149C249.921 68.2321 233.491 51.2955 213.232 51.2955L207.085 51.0939H176.656V215.506H213.428C233.686 215.506 250.116 198.569 250.116 177.687L249.921 89.1149ZM219.771 184.182H207.085V82.8501H219.771V135.719C219.771 135.806 219.785 135.907 219.799 135.993C219.799 136.324 219.785 136.656 219.771 136.987V184.182Z" fill="#121212"/>
<path d="M335.821 153.529V88.9963C335.821 68.0677 319.372 51.0939 299.09 51.0939C278.809 51.0939 262.36 68.0677 262.36 88.9963V136.136V177.604C262.36 198.532 278.809 215.506 299.09 215.506C319.372 215.506 335.821 198.532 335.821 177.604V153.529ZM305.44 177.084H305.357C304.965 180.303 302.321 182.814 299.09 182.814C295.859 182.814 293.216 180.317 292.824 177.084H292.74V136.136V89.5159H292.824C293.216 86.2972 295.859 83.7858 299.09 83.7858C302.321 83.7858 304.965 86.2828 305.357 89.5159H305.44V153.514V177.07V177.084Z" fill="#121212"/>
<path d="M421.525 153.529V88.9963C421.525 68.0677 405.076 51.0939 384.794 51.0939C364.513 51.0939 348.064 68.0677 348.064 88.9963V136.136V177.604C348.064 198.532 364.513 215.506 384.794 215.506C405.076 215.506 421.525 198.532 421.525 177.604V153.529ZM391.145 177.084H391.061C390.669 180.303 388.026 182.814 384.794 182.814C381.563 182.814 378.92 180.317 378.528 177.084H378.444V136.136V89.5159H378.528C378.92 86.2972 381.563 83.7858 384.794 83.7858C388.026 83.7858 390.669 86.2828 391.061 89.5159H391.145V153.514V177.07V177.084Z" fill="#121212"/>
<path d="M0.000244141 247.994H598.181" stroke="black" stroke-width="2"/>
<path d="M30.7946 2.69513V1.79513H30.1024L29.9247 2.46415L30.7946 2.69513ZM36.7735 2.69513L37.6383 2.94448L37.9697 1.79513H36.7735V2.69513ZM29.2195 28.893V29.793H29.8966L30.0843 29.1424L29.2195 28.893ZM23.3049 28.893L22.4395 29.1403L22.626 29.793H23.3049V28.893ZM18.6118 12.4671L19.4771 12.2199L18.6118 9.19105L17.7464 12.2199L18.6118 12.4671ZM13.9186 28.893V29.793H14.5975L14.784 29.1403L13.9186 28.893ZM8.00402 28.893L7.13925 29.1424L7.32686 29.793H8.00402V28.893ZM0.450025 2.69513V1.79513H-0.746151L-0.414743 2.94448L0.450025 2.69513ZM6.71823 2.69513L7.58871 2.46648L7.41236 1.79513H6.71823V2.69513ZM11.2185 19.8282L10.348 20.0569L11.2185 23.3709L12.089 20.0569L11.2185 19.8282ZM15.7187 2.69513V1.79513H15.0246L14.8483 2.46648L15.7187 2.69513ZM21.7941 2.69513L22.6647 2.46721L22.4888 1.79513H21.7941V2.69513ZM26.2622 19.7639L25.3915 19.9919L26.256 23.2942L27.132 19.9949L26.2622 19.7639ZM30.7946 3.59513H36.7735V1.79513H30.7946V3.59513ZM35.9087 2.44578L28.3547 28.6437L30.0843 29.1424L37.6383 2.94448L35.9087 2.44578ZM29.2195 27.993H23.3049V29.793H29.2195V27.993ZM24.1702 28.6458L19.4771 12.2199L17.7464 12.7143L22.4395 29.1403L24.1702 28.6458ZM17.7464 12.2199L13.0533 28.6458L14.784 29.1403L19.4771 12.7143L17.7464 12.2199ZM13.9186 27.993H8.00402V29.793H13.9186V27.993ZM8.86879 28.6437L1.31479 2.44578L-0.414743 2.94448L7.13925 29.1424L8.86879 28.6437ZM0.450025 3.59513H6.71823V1.79513H0.450025V3.59513ZM5.84776 2.92377L10.348 20.0569L12.089 19.5996L7.58871 2.46648L5.84776 2.92377ZM12.089 20.0569L16.5892 2.92377L14.8483 2.46648L10.348 19.5996L12.089 20.0569ZM15.7187 3.59513H21.7941V1.79513H15.7187V3.59513ZM20.9234 2.92304L25.3915 19.9919L27.1328 19.536L22.6647 2.46721L20.9234 2.92304ZM27.132 19.9949L31.6644 2.9261L29.9247 2.46415L25.3923 19.533L27.132 19.9949ZM56.9669 2.69513V1.79513H56.0669V2.69513H56.9669ZM62.8172 2.69513H63.7172V1.79513H62.8172V2.69513ZM62.8172 28.893V29.793H63.7172V28.893H62.8172ZM56.9669 28.893H56.0669V29.793H56.9669V28.893ZM56.9669 18.2531H57.8669V17.3531H56.9669V18.2531ZM45.3948 18.2531V17.3531H44.4948V18.2531H45.3948ZM45.3948 28.893V29.793H46.2948V28.893H45.3948ZM39.5445 28.893H38.6445V29.793H39.5445V28.893ZM39.5445 2.69513V1.79513H38.6445V2.69513H39.5445ZM45.3948 2.69513H46.2948V1.79513H45.3948V2.69513ZM45.3948 13.0778H44.4948V13.9778H45.3948V13.0778ZM56.9669 13.0778V13.9778H57.8669V13.0778H56.9669ZM56.9669 3.59513H62.8172V1.79513H56.9669V3.59513ZM61.9172 2.69513V28.893H63.7172V2.69513H61.9172ZM62.8172 27.993H56.9669V29.793H62.8172V27.993ZM57.8669 28.893V18.2531H56.0669V28.893H57.8669ZM56.9669 17.3531H45.3948V19.1531H56.9669V17.3531ZM44.4948 18.2531V28.893H46.2948V18.2531H44.4948ZM45.3948 27.993H39.5445V29.793H45.3948V27.993ZM40.4445 28.893V2.69513H38.6445V28.893H40.4445ZM39.5445 3.59513H45.3948V1.79513H39.5445V3.59513ZM44.4948 2.69513V13.0778H46.2948V2.69513H44.4948ZM45.3948 13.9778H56.9669V12.1778H45.3948V13.9778ZM57.8669 13.0778V2.69513H56.0669V13.0778H57.8669ZM85.3237 28.893L84.4771 29.1984L84.6916 29.793H85.3237V28.893ZM83.4915 23.8142L84.3381 23.5087L84.1236 22.9142H83.4915V23.8142ZM73.3338 23.8142V22.9142H72.7017L72.4872 23.5087L73.3338 23.8142ZM71.5015 28.893V29.793H72.1336L72.3481 29.1984L71.5015 28.893ZM65.4583 28.893L64.6192 28.5677L64.1441 29.793H65.4583V28.893ZM75.616 2.69513V1.79513H74.9997L74.7769 2.36977L75.616 2.69513ZM81.6914 2.69513L82.5305 2.36977L82.3077 1.79513H81.6914V2.69513ZM91.8491 28.893V29.793H93.1633L92.6882 28.5677L91.8491 28.893ZM75.1339 18.7353L74.2868 18.4311L73.8543 19.6353H75.1339V18.7353ZM81.6914 18.7353V19.6353H82.9709L82.5384 18.4311L81.6914 18.7353ZM78.4126 9.60623L79.2596 9.30201L78.4126 6.94362L77.5656 9.30201L78.4126 9.60623ZM86.1703 28.5876L84.3381 23.5087L82.6449 24.1196L84.4771 29.1984L86.1703 28.5876ZM83.4915 22.9142H73.3338V24.7142H83.4915V22.9142ZM72.4872 23.5087L70.6549 28.5876L72.3481 29.1984L74.1804 24.1196L72.4872 23.5087ZM71.5015 27.993H65.4583V29.793H71.5015V27.993ZM66.2974 29.2184L76.4552 3.02048L74.7769 2.36977L64.6192 28.5677L66.2974 29.2184ZM75.616 3.59513H81.6914V1.79513H75.616V3.59513ZM80.8522 3.02048L91.0099 29.2184L92.6882 28.5677L82.5305 2.36977L80.8522 3.02048ZM91.8491 27.993H85.3237V29.793H91.8491V27.993ZM75.1339 19.6353H81.6914V17.8353H75.1339V19.6353ZM82.5384 18.4311L79.2596 9.30201L77.5656 9.91044L80.8443 19.0395L82.5384 18.4311ZM77.5656 9.30201L74.2868 18.4311L75.9809 19.0395L79.2596 9.91044L77.5656 9.30201ZM112.089 2.69513H112.989V1.79513H112.089V2.69513ZM112.089 7.87042V8.77042H112.989V7.87042H112.089ZM103.571 7.87042V6.97042H102.671V7.87042H103.571ZM103.571 28.893V29.793H104.471V28.893H103.571ZM97.7205 28.893H96.8205V29.793H97.7205V28.893ZM97.7205 7.87042H98.6205V6.97042H97.7205V7.87042ZM89.2022 7.87042H88.3022V8.77042H89.2022V7.87042ZM89.2022 2.69513V1.79513H88.3022V2.69513H89.2022ZM111.189 2.69513V7.87042H112.989V2.69513H111.189ZM112.089 6.97042H103.571V8.77042H112.089V6.97042ZM102.671 7.87042V28.893H104.471V7.87042H102.671ZM103.571 27.993H97.7205V29.793H103.571V27.993ZM98.6205 28.893V7.87042H96.8205V28.893H98.6205ZM97.7205 6.97042H89.2022V8.77042H97.7205V6.97042ZM90.1022 7.87042V2.69513H88.3022V7.87042H90.1022ZM89.2022 3.59513H112.089V1.79513H89.2022V3.59513ZM124.238 2.69513V1.79513H123.338V2.69513H124.238ZM130.088 2.69513H130.988V1.79513H130.088V2.69513ZM130.088 28.893V29.793H130.988V28.893H130.088ZM124.238 28.893H123.338V29.793H124.238V28.893ZM124.238 3.59513H130.088V1.79513H124.238V3.59513ZM129.188 2.69513V28.893H130.988V2.69513H129.188ZM130.088 27.993H124.238V29.793H130.088V27.993ZM125.138 28.893V2.69513H123.338V28.893H125.138ZM155.424 10.6027V11.5027H156.378L156.322 10.5505L155.424 10.6027ZM149.381 10.6027L148.491 10.7405L148.609 11.5027H149.381V10.6027ZM147.42 13.3029L147.237 14.1841L147.237 14.1841L147.42 13.3029ZM133.501 20.439V19.539H132.559L132.602 20.4803L133.501 20.439ZM139.512 20.439L140.405 20.3245L140.304 19.539H139.512V20.439ZM143.08 17.9317L142.915 18.8164L142.916 18.8165L143.08 17.9317ZM144.913 2.95223C150.411 2.95223 154.27 6.26397 154.525 10.6549L156.322 10.5505C155.999 4.97661 151.115 1.15223 144.913 1.15223V2.95223ZM155.424 9.70271H149.381V11.5027H155.424V9.70271ZM150.27 10.4649C150.062 9.12474 149.444 7.99034 148.419 7.20138C147.404 6.42013 146.07 6.03822 144.527 6.03822V7.83822C145.781 7.83822 146.697 8.14742 147.321 8.62784C147.935 9.10057 148.345 9.79841 148.491 10.7405L150.27 10.4649ZM144.527 6.03822C143.057 6.03822 141.804 6.32971 140.888 6.92822C139.94 7.54829 139.384 8.48629 139.384 9.60623H141.184C141.184 9.15108 141.383 8.75507 141.873 8.43491C142.396 8.09319 143.264 7.83822 144.527 7.83822V6.03822ZM139.384 9.60623C139.384 10.2664 139.56 10.8739 139.963 11.4058C140.352 11.918 140.904 12.297 141.548 12.6043C142.809 13.2063 144.706 13.6587 147.237 14.1841L147.603 12.4216C145.023 11.8863 143.352 11.4708 142.323 10.9798C141.822 10.7407 141.548 10.5169 141.397 10.318C141.261 10.1387 141.184 9.92646 141.184 9.60623H139.384ZM147.237 14.1841C150.15 14.7884 151.973 15.7856 153.071 16.9907C154.154 18.1799 154.62 19.6713 154.62 21.4676H156.42C156.42 19.3423 155.858 17.3781 154.402 15.7788C152.96 14.1954 150.733 13.071 147.603 12.4216L147.237 14.1841ZM154.62 21.4676C154.62 23.6563 153.603 25.4145 151.897 26.6542C150.171 27.9089 147.725 28.6359 144.945 28.6359V30.4359C148.015 30.4359 150.857 29.636 152.956 28.1102C155.075 26.5694 156.42 24.2935 156.42 21.4676H154.62ZM144.945 28.6359C141.87 28.6359 139.281 27.8021 137.45 26.375C135.634 24.9596 134.517 22.9284 134.4 20.3976L132.602 20.4803C132.743 23.5427 134.117 26.06 136.343 27.7948C138.554 29.5178 141.558 30.4359 144.945 30.4359V28.6359ZM133.501 21.339H139.512V19.539H133.501V21.339ZM138.62 20.5534C138.812 22.0543 139.571 23.3201 140.775 24.1962C141.966 25.0636 143.546 25.5178 145.363 25.5178V23.7178C143.836 23.7178 142.652 23.3362 141.834 22.741C141.028 22.1545 140.534 21.3309 140.405 20.3245L138.62 20.5534ZM145.363 25.5178C146.691 25.5178 147.918 25.187 148.839 24.5508C149.775 23.9051 150.409 22.9254 150.409 21.7248H148.609C148.609 22.2278 148.36 22.6946 147.817 23.0694C147.26 23.4539 146.413 23.7178 145.363 23.7178V25.5178ZM150.409 21.7248C150.409 21.0697 150.269 20.454 149.926 19.8993C149.586 19.3504 149.09 18.9277 148.485 18.5865C147.314 17.9252 145.568 17.4794 143.245 17.0469L142.916 18.8165C145.254 19.2519 146.722 19.6579 147.6 20.1538C148.021 20.3912 148.257 20.6235 148.395 20.8461C148.529 21.0628 148.609 21.3351 148.609 21.7248H150.409ZM143.245 17.0469C140.467 16.5289 138.464 15.7187 137.161 14.5464C135.898 13.4103 135.205 11.8538 135.205 9.60623H133.405C133.405 12.2767 134.254 14.3526 135.957 15.8845C137.619 17.3802 140.004 18.2737 142.915 18.8164L143.245 17.0469ZM135.205 9.60623C135.205 7.58503 136.192 5.95809 137.896 4.80198C139.623 3.63018 142.085 2.95223 144.913 2.95223V1.15223C141.825 1.15223 138.984 1.88865 136.885 3.31253C134.764 4.7521 133.405 6.90216 133.405 9.60623H135.205Z" fill="#121212"/>
<path d="M598.888 16.7795C599.278 16.3889 599.278 15.7558 598.888 15.3652L592.524 9.00128C592.133 8.61076 591.5 8.61076 591.109 9.00128C590.719 9.39181 590.719 10.025 591.109 10.4155L596.766 16.0724L591.109 21.7292C590.719 22.1197 590.719 22.7529 591.109 23.1434C591.5 23.5339 592.133 23.5339 592.524 23.1434L598.888 16.7795ZM175.731 17.0724L598.181 17.0724L598.181 15.0724L175.731 15.0724L175.731 17.0724Z" fill="black"/>
</svg>
