<svg width="219" height="85" viewBox="0 0 219 85" fill="none" xmlns="http://www.w3.org/2000/svg">
<path d="M215.892 18.2883C216.26 17.9197 216.26 17.322 215.892 16.9534L209.884 10.946C209.516 10.5774 208.918 10.5774 208.549 10.946C208.181 11.3146 208.181 11.9123 208.549 12.281L213.889 17.6208L208.549 22.9607C208.181 23.3294 208.181 23.9271 208.549 24.2957C208.918 24.6643 209.516 24.6643 209.884 24.2957L215.892 18.2883ZM125.862 18.5648H215.224V16.6769H125.862V18.5648Z" fill="white"/>
<path d="M18.2248 19.4231L21.6483 9.37931H26.7079L19.0807 28.0321L13.3917 17.4093L7.72793 28.0321L0.10069 9.37931H5.13517L8.60897 19.4231L13.3917 8.49827L18.2248 19.4231ZM29.8653 19.6245V15.7983H43.2067V19.6245H29.8653ZM40.5132 9.37931H44.7674V27H40.5132V9.37931ZM28.6822 9.37931H32.9363V27H28.6822V9.37931ZM51.24 23.6017L51.5421 20.3545H60.2769L60.5538 23.6017H51.24ZM55.8466 15.8486L53.3797 21.5376L53.5811 22.469L51.3911 27H46.5831L55.8466 8.27172L65.1352 27H60.3021L58.1876 22.6452L58.3386 21.5628L55.8466 15.8486ZM63.4496 13.1803V9.37931H77.3951V13.1803H72.5369V27H68.2827V13.1803H63.4496ZM86.8688 9.37931H91.1985V27H86.8688V9.37931ZM96.8701 20.8076C97.2225 21.4453 97.6169 21.9991 98.0532 22.469C98.5063 22.9389 98.993 23.2997 99.5132 23.5514C100.05 23.8031 100.612 23.929 101.2 23.929C101.821 23.929 102.333 23.7779 102.735 23.4759C103.138 23.157 103.339 22.7291 103.339 22.1921C103.339 21.739 103.222 21.3782 102.987 21.1097C102.752 20.8244 102.375 20.5559 101.854 20.3041C101.334 20.0524 100.646 19.7671 99.7901 19.4483C99.3706 19.2972 98.8839 19.0875 98.3301 18.819C97.7931 18.5505 97.2813 18.2064 96.7946 17.7869C96.308 17.3506 95.9052 16.8303 95.5863 16.2262C95.2675 15.6053 95.1081 14.8585 95.1081 13.9859C95.1081 12.9454 95.3766 12.0476 95.9136 11.2924C96.4674 10.5372 97.2058 9.96667 98.1288 9.58069C99.0685 9.17793 100.109 8.97655 101.25 8.97655C102.425 8.97655 103.44 9.16954 104.296 9.55552C105.169 9.94149 105.89 10.4282 106.461 11.0155C107.031 11.6029 107.468 12.1986 107.77 12.8028L104.523 14.6152C104.271 14.1956 103.977 13.8348 103.642 13.5328C103.323 13.2139 102.962 12.9706 102.559 12.8028C102.173 12.6182 101.754 12.5259 101.3 12.5259C100.696 12.5259 100.235 12.6601 99.916 12.9286C99.5971 13.1803 99.4377 13.4992 99.4377 13.8852C99.4377 14.2879 99.5888 14.6403 99.8908 14.9424C100.21 15.2445 100.654 15.5214 101.225 15.7731C101.812 16.0248 102.517 16.2933 103.339 16.5786C103.96 16.8136 104.539 17.0905 105.076 17.4093C105.613 17.7114 106.083 18.0806 106.486 18.5169C106.906 18.9532 107.233 19.4567 107.468 20.0272C107.703 20.5978 107.82 21.2523 107.82 21.9907C107.82 22.8801 107.636 23.6772 107.266 24.3821C106.914 25.0701 106.427 25.6491 105.806 26.119C105.202 26.5889 104.506 26.9413 103.717 27.1762C102.945 27.4279 102.148 27.5538 101.326 27.5538C100.185 27.5538 99.1189 27.3524 98.1288 26.9497C97.1554 26.5301 96.308 25.9679 95.5863 25.2631C94.8647 24.5583 94.3025 23.7863 93.8998 22.9472L96.8701 20.8076Z" fill="white"/>
<path d="M2.98041 41.2383H9.98841V69.4314H2.98041V41.2383ZM13.0494 69.4314H7.49131V63.39H12.8077C13.8817 63.39 14.9155 63.2558 15.909 62.9873C16.9293 62.7188 17.8154 62.2757 18.5672 61.6582C19.3458 61.0406 19.9634 60.2216 20.4199 59.2013C20.8763 58.1542 21.1046 56.8653 21.1046 55.3348C21.1046 53.8044 20.8763 52.529 20.4199 51.5086C19.9634 50.4615 19.3458 49.6291 18.5672 49.0115C17.8154 48.394 16.9293 47.9509 15.909 47.6824C14.9155 47.4139 13.8817 47.2797 12.8077 47.2797H7.49131V41.2383H13.0494C16.1372 41.2383 18.8088 41.8156 21.0643 42.9702C23.3197 44.1247 25.065 45.7492 26.3001 47.8435C27.5353 49.9379 28.1528 52.435 28.1528 55.3348C28.1528 58.2079 27.5353 60.705 26.3001 62.8262C25.065 64.9205 23.3197 66.545 21.0643 67.6995C18.8088 68.8541 16.1372 69.4314 13.0494 69.4314ZM32.3173 41.2383H39.1239V59.6846C39.1239 61.1077 39.4998 62.2623 40.2516 63.1484C41.0035 64.0344 42.1312 64.4775 43.6348 64.4775C45.1653 64.4775 46.3064 64.0344 47.0583 63.1484C47.8101 62.2623 48.186 61.1077 48.186 59.6846V41.2383H54.9926V60.1679C54.9926 61.9401 54.6972 63.484 54.1065 64.7997C53.5427 66.1154 52.7372 67.2028 51.69 68.062C50.6697 68.8944 49.4614 69.5254 48.0652 69.955C46.6958 70.3846 45.219 70.5994 43.6348 70.5994C42.0506 70.5994 40.5738 70.3846 39.2045 69.955C37.8351 69.5254 36.6268 68.8944 35.5796 68.062C34.5593 67.2028 33.7538 66.1154 33.1631 64.7997C32.5992 63.484 32.3173 61.9401 32.3173 60.1679V41.2383ZM60.759 41.2383H67.767V69.4314H60.759V41.2383ZM70.8279 69.4314H65.2699V63.39H70.5863C71.6603 63.39 72.6941 63.2558 73.6875 62.9873C74.7078 62.7188 75.5939 62.2757 76.3457 61.6582C77.1244 61.0406 77.742 60.2216 78.1984 59.2013C78.6549 58.1542 78.8831 56.8653 78.8831 55.3348C78.8831 53.8044 78.6549 52.529 78.1984 51.5086C77.742 50.4615 77.1244 49.6291 76.3457 49.0115C75.5939 48.394 74.7078 47.9509 73.6875 47.6824C72.6941 47.4139 71.6603 47.2797 70.5863 47.2797H65.2699V41.2383H70.8279C73.9158 41.2383 76.5874 41.8156 78.8428 42.9702C81.0983 44.1247 82.8436 45.7492 84.0787 47.8435C85.3138 49.9379 85.9314 52.435 85.9314 55.3348C85.9314 58.2079 85.3138 60.705 84.0787 62.8262C82.8436 64.9205 81.0983 66.545 78.8428 67.6995C76.5874 68.8541 73.9158 69.4314 70.8279 69.4314ZM95.8956 55.3348C95.8956 56.9996 96.2178 58.4764 96.8622 59.7652C97.5335 61.0272 98.4598 62.0206 99.6412 62.7456C100.85 63.4706 102.259 63.8331 103.87 63.8331C105.454 63.8331 106.837 63.4706 108.019 62.7456C109.227 62.0206 110.153 61.0272 110.798 59.7652C111.469 58.4764 111.805 56.9996 111.805 55.3348C111.805 53.6701 111.482 52.2068 110.838 50.9448C110.194 49.6559 109.281 48.649 108.099 47.9241C106.918 47.1991 105.508 46.8366 103.87 46.8366C102.259 46.8366 100.85 47.1991 99.6412 47.9241C98.4598 48.649 97.5335 49.6559 96.8622 50.9448C96.2178 52.2068 95.8956 53.6701 95.8956 55.3348ZM88.6862 55.3348C88.6862 53.1599 89.0621 51.173 89.8139 49.374C90.5926 47.575 91.6666 46.0177 93.036 44.702C94.4054 43.3863 96.0164 42.3794 97.8691 41.6813C99.7218 40.9564 101.722 40.5939 103.87 40.5939C106.045 40.5939 108.045 40.9564 109.871 41.6813C111.724 42.3794 113.335 43.3863 114.704 44.702C116.074 46.0177 117.134 47.575 117.886 49.374C118.638 51.173 119.014 53.1599 119.014 55.3348C119.014 57.5097 118.638 59.5101 117.886 61.3359C117.161 63.1618 116.114 64.746 114.745 66.0885C113.402 67.431 111.805 68.4782 109.952 69.23C108.099 69.955 106.072 70.3175 103.87 70.3175C101.642 70.3175 99.601 69.955 97.7483 69.23C95.8956 68.4782 94.2845 67.431 92.9152 66.0885C91.5726 64.746 90.5255 63.1618 89.7736 61.3359C89.0487 59.5101 88.6862 57.5097 88.6862 55.3348ZM128.974 55.3348C128.974 56.9996 129.296 58.4764 129.94 59.7652C130.612 61.0272 131.538 62.0206 132.719 62.7456C133.928 63.4706 135.337 63.8331 136.948 63.8331C138.533 63.8331 139.915 63.4706 141.097 62.7456C142.305 62.0206 143.231 61.0272 143.876 59.7652C144.547 58.4764 144.883 56.9996 144.883 55.3348C144.883 53.6701 144.56 52.2068 143.916 50.9448C143.272 49.6559 142.359 48.649 141.177 47.9241C139.996 47.1991 138.586 46.8366 136.948 46.8366C135.337 46.8366 133.928 47.1991 132.719 47.9241C131.538 48.649 130.612 49.6559 129.94 50.9448C129.296 52.2068 128.974 53.6701 128.974 55.3348ZM121.764 55.3348C121.764 53.1599 122.14 51.173 122.892 49.374C123.671 47.575 124.745 46.0177 126.114 44.702C127.483 43.3863 129.095 42.3794 130.947 41.6813C132.8 40.9564 134.8 40.5939 136.948 40.5939C139.123 40.5939 141.124 40.9564 142.949 41.6813C144.802 42.3794 146.413 43.3863 147.783 44.702C149.152 46.0177 150.213 47.575 150.964 49.374C151.716 51.173 152.092 53.1599 152.092 55.3348C152.092 57.5097 151.716 59.5101 150.964 61.3359C150.239 63.1618 149.192 64.746 147.823 66.0885C146.48 67.431 144.883 68.4782 143.03 69.23C141.177 69.955 139.15 70.3175 136.948 70.3175C134.72 70.3175 132.679 69.955 130.826 69.23C128.974 68.4782 127.363 67.431 125.993 66.0885C124.651 64.746 123.604 63.1618 122.852 61.3359C122.127 59.5101 121.764 57.5097 121.764 55.3348ZM175.907 41.2383H182.472V70.8411L162.978 53.5627V69.4314H156.453V39.8286L175.907 57.107V41.2383ZM202.406 59.2416V54.0057H216.664C216.798 56.2612 216.57 58.369 215.979 60.3291C215.388 62.2891 214.475 64.021 213.24 65.5246C212.005 67.0283 210.461 68.2097 208.609 69.0689C206.756 69.9013 204.635 70.3175 202.245 70.3175C199.989 70.3175 197.922 69.9684 196.042 69.2703C194.163 68.5453 192.538 67.525 191.169 66.2093C189.8 64.8668 188.726 63.2826 187.947 61.4568C187.195 59.6041 186.819 57.5634 186.819 55.3348C186.819 53.1062 187.209 51.0925 187.987 49.2935C188.766 47.4676 189.867 45.9103 191.29 44.6215C192.713 43.3326 194.378 42.3392 196.284 41.641C198.19 40.9429 200.258 40.5939 202.487 40.5939C204.474 40.5939 206.259 40.8758 207.843 41.4397C209.427 42.0035 210.824 42.7956 212.032 43.8159C213.267 44.8094 214.328 45.964 215.214 47.2797L209.172 50.4212C208.528 49.2935 207.655 48.3671 206.554 47.6422C205.48 46.8903 204.124 46.5144 202.487 46.5144C200.929 46.5144 199.493 46.8635 198.177 47.5616C196.888 48.2597 195.854 49.2666 195.076 50.5823C194.324 51.8711 193.948 53.4553 193.948 55.3348C193.948 57.1875 194.311 58.7986 195.036 60.1679C195.787 61.5105 196.794 62.5576 198.056 63.3095C199.345 64.0344 200.822 64.3969 202.487 64.3969C203.507 64.3969 204.433 64.2761 205.266 64.0344C206.098 63.7659 206.81 63.4034 207.4 62.947C207.991 62.4637 208.488 61.9132 208.89 61.2957C209.32 60.6513 209.656 59.9666 209.897 59.2416H202.406Z" fill="white"/>
</svg>
