<svg width="458" height="368" viewBox="0 0 458 368" fill="none" xmlns="http://www.w3.org/2000/svg">
<g clip-path="url(#clip0_4_4052)">
<rect width="458" height="366.765" transform="translate(0 0.435059)" fill="#6B36DC"/>
<mask id="path-1-inside-1_4_4052" fill="white">
<path d="M431 302.532C431 352.579 396.292 390.869 347.801 390.869C299.31 390.869 261.5 351.319 261.5 302.532C261.5 261 294 218.602 341.5 216.5C398 214 431 256 431 302.532Z"/>
</mask>
<path d="M431 302.532C431 352.579 396.292 390.869 347.801 390.869C299.31 390.869 261.5 351.319 261.5 302.532C261.5 261 294 218.602 341.5 216.5C398 214 431 256 431 302.532Z" fill="#25F3CF"/>
<path d="M341.5 216.5L341.553 217.699L341.5 216.5ZM429.8 302.532C429.8 351.998 395.55 389.669 347.801 389.669V392.069C397.034 392.069 432.2 353.159 432.2 302.532H429.8ZM347.801 389.669C300.006 389.669 262.7 350.69 262.7 302.532H260.3C260.3 351.948 298.613 392.069 347.801 392.069V389.669ZM262.7 302.532C262.7 261.543 294.789 219.768 341.553 217.699L341.447 215.301C293.211 217.436 260.3 260.457 260.3 302.532H262.7ZM341.553 217.699C369.474 216.463 391.508 226.216 406.57 241.959C421.649 257.718 429.8 279.544 429.8 302.532H432.2C432.2 278.988 423.851 256.549 408.305 240.299C392.742 224.034 370.026 214.037 341.447 215.301L341.553 217.699Z" fill="black" mask="url(#path-1-inside-1_4_4052)"/>
<path d="M15.1439 80.9739C15.1439 80.0686 15.8778 79.3348 16.7831 79.3348H223.376C232.731 79.3348 240.314 86.9181 240.314 96.2725V136.458C240.314 145.813 232.731 153.396 223.376 153.396H32.0817C22.7272 153.396 15.1439 145.813 15.1439 136.458V80.9739Z" fill="white"/>
<path d="M15.1439 80.9739C15.1439 80.0686 15.8778 79.3348 16.7831 79.3348H223.376C232.731 79.3348 240.314 86.9181 240.314 96.2725V136.458C240.314 145.813 232.731 153.396 223.376 153.396H32.0817C22.7272 153.396 15.1439 145.813 15.1439 136.458V80.9739Z" stroke="black" stroke-width="1.09276"/>
<path d="M36.2726 99.1284V100.351H34.8756V105.902H33.279V100.351H32.2686V99.1284H33.279V98.4798C33.279 97.1638 34.096 96.4466 35.3995 96.4466C35.7675 96.4466 36.1105 96.484 36.4098 96.5464V97.8062C36.1479 97.7688 35.9546 97.7626 35.8361 97.7563C35.1937 97.7626 34.8694 98.012 34.8756 98.6295V99.1284H36.2726ZM37.4077 105.902V99.1284H38.9544V100.251H39.0293C39.2725 99.4714 39.9211 99.0286 40.7007 99.0286C40.8754 99.0286 41.1248 99.0473 41.2745 99.066V100.538C41.1311 100.488 40.8005 100.444 40.5386 100.438C39.653 100.444 39.0043 101.056 39.0043 101.91V105.902H37.4077ZM44.9542 106.039C42.9772 106.039 41.7111 104.635 41.7111 102.546C41.7111 100.438 42.9772 99.0411 44.9542 99.0411C46.9375 99.0411 48.2036 100.438 48.1973 102.546C48.2036 104.635 46.9375 106.039 44.9542 106.039ZM43.3202 102.534C43.3202 103.775 43.8628 104.766 44.9667 104.766C46.0519 104.766 46.5945 103.775 46.5883 102.534C46.5945 101.293 46.0519 100.295 44.9667 100.301C43.8628 100.295 43.3202 101.293 43.3202 102.534ZM49.4322 105.902V99.1284H50.954V100.276H51.0413C51.322 99.5026 52.0018 99.0411 52.8999 99.0411C53.8167 99.0411 54.4778 99.5089 54.7335 100.276H54.8083C55.1015 99.5276 55.8561 99.0411 56.8415 99.0411C58.0826 99.0411 58.9558 99.8394 58.9495 101.349V105.902H57.3654V101.598C57.3654 100.756 56.854 100.376 56.2054 100.376C55.4258 100.376 54.9705 100.906 54.9705 101.673V105.902H53.4238V101.536C53.4175 100.831 52.956 100.376 52.2762 100.376C51.5902 100.376 51.0288 100.943 51.0288 101.785V105.902H49.4322ZM61.4567 106.001C60.9204 106.001 60.4775 105.565 60.4838 105.028C60.4775 104.505 60.9204 104.074 61.4567 104.068C61.9744 104.074 62.4172 104.505 62.4172 105.028C62.4172 105.565 61.9744 106.001 61.4567 106.001ZM70.4127 97.7314C70.4065 99.2282 71.3046 100.688 73.0571 101.286L72.2962 102.372C71.0801 101.916 70.2131 101.037 69.7329 99.9267C69.2527 101.168 68.3296 102.141 67.0074 102.633L66.2715 101.536C68.0864 100.925 69.0095 99.3654 69.0157 97.7189V96.4341H70.4127V97.7314ZM68.3172 106.787V103.207H69.7267V105.665H76.0009V106.787H68.3172ZM72.1216 99.3654V98.2303H74.3668V95.7481H75.7514V104.118H74.3668V99.3654H72.1216ZM87.1273 97.2449V98.3675H77.8095V97.2449H81.7886V95.8853H83.1607V97.2449H87.1273ZM77.348 105.802V104.679H81.7886V103.295C79.8427 103.145 78.664 102.359 78.6702 101.112C78.664 99.7521 80.1234 98.9413 82.4746 98.9413C84.7947 98.9413 86.2728 99.7521 86.2666 101.112C86.2728 102.353 85.0816 103.139 83.1607 103.295V104.679H87.6512V105.802H77.348ZM80.0922 101.112C80.086 101.835 80.9404 102.203 82.4746 102.209C83.9777 102.203 84.8446 101.835 84.8446 101.112C84.8446 100.401 83.9777 100.033 82.4746 100.027C80.9404 100.033 80.086 100.401 80.0922 101.112Z" fill="#6B36DC"/>
<path d="M192.487 107.03C190.566 107.03 189.202 105.999 189.145 104.481H190.579C190.63 105.294 191.437 105.813 192.474 105.813C193.595 105.813 194.408 105.205 194.408 104.302C194.408 103.386 193.646 102.733 192.32 102.727H191.526V101.574H192.32C193.377 101.581 194.113 100.992 194.113 100.102C194.113 99.2565 193.479 98.6802 192.5 98.6802C191.571 98.6802 190.739 99.1989 190.707 100.038H189.349C189.388 98.5266 190.784 97.5021 192.512 97.5021C194.337 97.5021 195.483 98.6546 195.471 100.025C195.483 101.081 194.83 101.837 193.831 102.087V102.151C195.099 102.33 195.836 103.181 195.829 104.353C195.836 105.896 194.408 107.03 192.487 107.03ZM200.234 96.9002C201.963 96.9131 203.237 97.9695 203.244 99.4742C203.237 100.985 201.963 102.035 200.234 102.035C198.486 102.035 197.219 100.985 197.212 99.4742C197.219 97.9695 198.486 96.9131 200.234 96.9002ZM198.403 99.4742C198.397 100.422 199.178 101.049 200.234 101.049C201.284 101.049 202.066 100.422 202.066 99.4742C202.066 98.5394 201.284 97.9119 200.234 97.9247C199.178 97.9119 198.397 98.5394 198.403 99.4742ZM198.954 103.854V102.881H206.496V105.775H200.17V106.876H206.881V107.849H198.992V104.865H205.293V103.854H198.954ZM205.28 102.356V96.5161H206.496V102.356H205.28ZM221.082 96.5289V104.929H219.866V100.614H217.676V99.6279H219.866V96.5289H221.082ZM211.529 102.535C213.29 101.939 214.391 100.428 214.385 98.8467V98.3985H211.9V97.3997H218.086V98.3985H215.627V98.8467C215.62 100.275 216.658 101.715 218.393 102.291L217.765 103.265C216.478 102.817 215.524 101.894 215.025 100.755C214.526 102.023 213.52 103.034 212.157 103.521L211.529 102.535ZM213.629 107.747V104.174H214.846V106.761H221.389V107.747H213.629Z" fill="#C7C7CB"/>
<path d="M43.5706 125.758V139.069H42.3903V125.758H43.5706ZM33.1126 131.42C33.12 128.596 34.5244 126.796 36.504 126.788C38.476 126.796 39.9028 128.596 39.8953 131.42C39.9028 134.251 38.476 136.044 36.504 136.036C34.5244 136.044 33.12 134.251 33.1126 131.42ZM34.248 131.42C34.248 133.579 35.1743 134.998 36.504 134.99C37.8411 134.998 38.7599 133.579 38.7599 131.42C38.7599 129.261 37.8411 127.842 36.504 127.834C35.1743 127.842 34.248 129.261 34.248 131.42ZM56.8523 125.772V135.603H55.6721V130.494H52.5346V133.332H46.5138V126.654H47.6791V129.014H51.3843V126.654H52.5346V129.507H55.6721V125.772H56.8523ZM47.6791 132.361H51.3843V129.941H47.6791V132.361ZM48.2618 138.755V134.632H49.442V137.769H57.1511V138.755H48.2618ZM68.9089 134.154C71.755 134.154 73.5628 135.05 73.5702 136.589C73.5628 138.113 71.755 139.009 68.9089 139.009C66.0629 139.009 64.2551 138.113 64.2626 136.589C64.2551 135.05 66.0629 134.154 68.9089 134.154ZM62.918 132.914V131.958H67.9229V129.388H69.0733V131.958H75.0045V132.914H62.918ZM64.3522 127.401V126.445H73.4657V127.565C73.4582 128.641 73.4582 129.717 73.0922 131.091L71.9418 130.957C72.3003 129.59 72.3003 128.604 72.3003 127.565V127.401H64.3522ZM65.4279 136.589C65.4204 137.515 66.7949 138.083 68.9089 138.083C71.0304 138.083 72.39 137.515 72.4049 136.589C72.39 135.64 71.0304 135.058 68.9089 135.05C66.7949 135.058 65.4204 135.64 65.4279 136.589ZM87.1358 125.772V135.588H85.9556V132.002H82.5193C81.9068 132.787 80.9208 133.257 79.7853 133.257C77.7983 133.257 76.3267 131.883 76.3342 129.941C76.3267 127.991 77.7983 126.617 79.7853 126.609C80.9133 126.617 81.8844 127.08 82.5044 127.849H85.9556V125.772H87.1358ZM77.4547 129.941C77.4547 131.27 78.4258 132.219 79.7853 132.212C81.0926 132.219 82.0861 131.27 82.0861 129.941C82.0861 128.619 81.0926 127.662 79.7853 127.655C78.4258 127.662 77.4547 128.619 77.4547 129.941ZM78.6051 138.755V134.557H79.7853V137.769H87.5093V138.755H78.6051ZM83.0348 128.82C83.1543 129.164 83.2215 129.537 83.2215 129.941C83.2215 130.329 83.1543 130.695 83.0422 131.031H85.9556V128.82H83.0348ZM104.167 125.758V139.039H102.987V125.758H104.167ZM93.3509 135.588C96.944 133.885 98.7816 131.338 99.0431 128.163H93.9634V127.207H100.238C100.223 131.024 98.4455 134.408 93.9933 136.544L93.3509 135.588ZM117.763 125.758V139.039H116.642V132.077H114.685V138.352H113.61V126.056H114.685V131.106H116.642V125.758H117.763ZM106.902 135.752V127.386H111.877V128.357H108.067V134.751C109.897 134.744 111.159 134.677 112.639 134.378L112.743 135.364C111.145 135.693 109.792 135.745 107.753 135.752H106.902ZM133.853 125.758V128.76H135.855V129.747H133.853V132.57H132.688V125.758H133.853ZM124.038 132.047V126.639H130.178V132.047H124.038ZM124.889 138.681V133.765H126.025V137.717C126.794 137.687 127.818 137.575 128.759 137.261L128.938 138.203C127.646 138.628 126.383 138.688 125.517 138.681H124.889ZM125.188 131.106H129.043V127.595H125.188V131.106ZM128.475 134.796V133.9H131.269V132.72H132.419V133.9H135.183V134.796H128.475ZM129.356 137.142C129.349 135.991 130.357 135.282 131.822 135.274C133.278 135.282 134.302 135.991 134.317 137.142C134.302 138.292 133.278 139.009 131.822 139.009C130.357 139.009 129.349 138.292 129.356 137.142ZM130.402 137.142C130.402 137.777 130.992 138.188 131.822 138.173C132.651 138.188 133.241 137.777 133.241 137.142C133.241 136.522 132.651 136.118 131.822 136.111C130.992 136.118 130.402 136.522 130.402 137.142ZM147.643 125.758V139.069H146.463V125.758H147.643ZM137.185 131.42C137.193 128.596 138.597 126.796 140.576 126.788C142.549 126.796 143.975 128.596 143.968 131.42C143.975 134.251 142.549 136.044 140.576 136.036C138.597 136.044 137.193 134.251 137.185 131.42ZM138.32 131.42C138.32 133.579 139.247 134.998 140.576 134.99C141.914 134.998 142.832 133.579 142.832 131.42C142.832 129.261 141.914 127.842 140.576 127.834C139.247 127.842 138.32 129.261 138.32 131.42ZM160.387 128.058V129.014H153.724V128.058H156.488V126.161H157.653V128.058H160.387ZM154.202 132.929C154.202 131.166 155.404 129.918 157.055 129.911C158.729 129.918 159.924 131.166 159.939 132.929C159.924 134.714 158.729 135.969 157.055 135.977C155.404 135.969 154.202 134.714 154.202 132.929ZM155.248 132.929C155.248 134.109 156.002 134.953 157.055 134.946C158.116 134.953 158.893 134.109 158.893 132.929C158.893 131.763 158.116 130.912 157.055 130.897C156.002 130.912 155.248 131.763 155.248 132.929ZM161.074 138.382V126.086H162.18V131.36H163.943V125.758H165.063V139.039H163.943V132.331H162.18V138.382H161.074ZM173.684 127.64C173.676 129.418 176.044 130.927 178.36 131.27L177.927 132.197C175.857 131.846 173.833 130.74 173.026 129.141C172.219 130.74 170.195 131.846 168.156 132.197L167.693 131.27C170.001 130.927 172.361 129.418 172.369 127.64V127.55H168.111V126.594H177.927V127.55H173.684V127.64ZM166.976 134.303V133.332H179.077V134.303H173.579V139.039H172.429V134.303H166.976ZM184.142 129.537C184.142 131.651 185.173 133.93 186.935 134.976L186.263 135.887C184.978 135.11 184.059 133.691 183.596 132.07C183.111 133.84 182.125 135.364 180.795 136.171L180.048 135.289C181.886 134.214 183.006 131.861 183.006 129.582V127.012H184.142V129.537ZM185.471 131.524V130.523H187.727V126.041H188.833V138.367H187.727V131.524H185.471ZM190.446 139.039V125.758H191.582V139.039H190.446ZM205.581 136.35V137.336H193.419V136.35H196.437V132.772C195.302 132.182 194.615 131.226 194.615 130.015C194.615 127.961 196.632 126.609 199.47 126.594C202.309 126.609 204.326 127.961 204.326 130.015C204.326 131.203 203.661 132.144 202.563 132.735V136.35H205.581ZM195.75 130.015C195.743 131.502 197.289 132.495 199.47 132.495C201.629 132.495 203.19 131.502 203.19 130.015C203.19 128.529 201.629 127.55 199.47 127.565C197.289 127.55 195.743 128.529 195.75 130.015ZM197.588 136.35H201.382V133.19C200.807 133.34 200.165 133.422 199.47 133.422C198.79 133.422 198.155 133.347 197.588 133.198V136.35Z" fill="#39393A"/>
<path d="M15.1439 -4.78702C15.1439 -5.69229 15.8778 -6.42615 16.7831 -6.42615H223.376C232.731 -6.42615 240.314 1.15714 240.314 10.5116V50.6971C240.314 60.0516 232.731 67.6349 223.376 67.6349H32.0817C22.7272 67.6349 15.1439 60.0516 15.1439 50.6971V-4.78702Z" fill="white"/>
<path d="M15.1439 -4.78702C15.1439 -5.69229 15.8778 -6.42615 16.7831 -6.42615H223.376C232.731 -6.42615 240.314 1.15714 240.314 10.5116V50.6971C240.314 60.0516 232.731 67.6349 223.376 67.6349H32.0817C22.7272 67.6349 15.1439 60.0516 15.1439 50.6971V-4.78702Z" stroke="black" stroke-width="1.09276"/>
<path d="M36.2726 13.3674V14.5898H34.8756V20.1406H33.279V14.5898H32.2686V13.3674H33.279V12.7188C33.279 11.4028 34.096 10.6856 35.3995 10.6856C35.7675 10.6856 36.1105 10.723 36.4098 10.7854V12.0452C36.1479 12.0078 35.9546 12.0016 35.8361 11.9953C35.1937 12.0016 34.8694 12.251 34.8756 12.8685V13.3674H36.2726ZM37.4077 20.1406V13.3674H38.9544V14.49H39.0293C39.2725 13.7105 39.9211 13.2676 40.7007 13.2676C40.8754 13.2676 41.1248 13.2864 41.2745 13.3051V14.7769C41.1311 14.727 40.8005 14.6834 40.5386 14.6772C39.653 14.6834 39.0043 15.2946 39.0043 16.149V20.1406H37.4077ZM44.9542 20.2778C42.9772 20.2778 41.7111 18.8745 41.7111 16.7852C41.7111 14.6772 42.9772 13.2801 44.9542 13.2801C46.9375 13.2801 48.2036 14.6772 48.1973 16.7852C48.2036 18.8745 46.9375 20.2778 44.9542 20.2778ZM43.3202 16.7727C43.3202 18.0138 43.8628 19.0055 44.9667 19.0055C46.0519 19.0055 46.5945 18.0138 46.5883 16.7727C46.5945 15.5316 46.0519 14.5337 44.9667 14.5399C43.8628 14.5337 43.3202 15.5316 43.3202 16.7727ZM49.4322 20.1406V13.3674H50.954V14.515H51.0413C51.322 13.7416 52.0018 13.2801 52.8999 13.2801C53.8167 13.2801 54.4778 13.7479 54.7335 14.515H54.8083C55.1015 13.7666 55.8561 13.2801 56.8415 13.2801C58.0826 13.2801 58.9558 14.0784 58.9495 15.5877V20.1406H57.3654V15.8372C57.3654 14.9952 56.854 14.6148 56.2054 14.6148C55.4258 14.6148 54.9705 15.1449 54.9705 15.912V20.1406H53.4238V15.7748C53.4175 15.0701 52.956 14.6148 52.2762 14.6148C51.5902 14.6148 51.0288 15.1823 51.0288 16.0243V20.1406H49.4322ZM61.4567 20.2404C60.9204 20.2404 60.4775 19.8038 60.4838 19.2674C60.4775 18.7435 60.9204 18.3132 61.4567 18.307C61.9744 18.3132 62.4172 18.7435 62.4172 19.2674C62.4172 19.8038 61.9744 20.2404 61.4567 20.2404ZM68.1675 11.0972V17.2966C69.2714 17.2841 70.2818 17.2093 71.4356 16.9598L71.6351 18.1323C70.2069 18.4442 68.972 18.4941 67.5438 18.4941H66.7829V11.0972H68.1675ZM69.9512 14.7395V13.6169H72.3087V10.2116H73.6184V20.7143H72.3087V14.7395H69.9512ZM74.7161 21.2507V9.97463H76.0383V21.2507H74.7161ZM83.3603 10.9101V16.2738H77.9218V10.9101H83.3603ZM79.2814 20.9513V17.2716H80.6785V19.8287H87.0524V20.9513H79.2814ZM79.2939 15.1636H81.9882V12.0203H79.2939V15.1636ZM85.3436 18.0325V9.9871H86.7406V18.0325H85.3436Z" fill="#6B36DC"/>
<path d="M192.487 21.2686C190.566 21.2686 189.202 20.2378 189.145 18.7203H190.579C190.63 19.5334 191.437 20.0521 192.474 20.0521C193.595 20.0521 194.408 19.4438 194.408 18.541C194.408 17.6254 193.646 16.9723 192.32 16.9659H191.526V15.8134H192.32C193.377 15.8198 194.113 15.2307 194.113 14.3407C194.113 13.4955 193.479 12.9193 192.5 12.9193C191.571 12.9193 190.739 13.4379 190.707 14.2767H189.349C189.388 12.7656 190.784 11.7411 192.512 11.7411C194.337 11.7411 195.483 12.8936 195.471 14.2639C195.483 15.3203 194.83 16.0759 193.831 16.3256V16.3896C195.099 16.5689 195.836 17.4205 195.829 18.5922C195.836 20.1353 194.408 21.2686 192.487 21.2686ZM200.234 11.1393C201.963 11.1521 203.237 12.2085 203.244 13.7132C203.237 15.2243 201.963 16.2744 200.234 16.2744C198.486 16.2744 197.219 15.2243 197.212 13.7132C197.219 12.2085 198.486 11.1521 200.234 11.1393ZM198.403 13.7132C198.397 14.6608 199.178 15.2883 200.234 15.2883C201.284 15.2883 202.066 14.6608 202.066 13.7132C202.066 12.7784 201.284 12.1509 200.234 12.1637C199.178 12.1509 198.397 12.7784 198.403 13.7132ZM198.954 18.0928V17.1196H206.496V20.0137H200.17V21.115H206.881V22.0882H198.992V19.1044H205.293V18.0928H198.954ZM205.28 16.5945V10.7551H206.496V16.5945H205.28ZM221.082 10.7679V19.1685H219.866V14.8529H217.676V13.8669H219.866V10.7679H221.082ZM211.529 16.7738C213.29 16.1783 214.391 14.6672 214.385 13.0857V12.6375H211.9V11.6387H218.086V12.6375H215.627V13.0857C215.62 14.5136 216.658 15.9542 218.393 16.5305L217.765 17.5037C216.478 17.0555 215.524 16.1335 215.025 14.9938C214.526 16.2616 213.52 17.2732 212.157 17.7598L211.529 16.7738ZM213.629 21.9857V18.4129H214.846V20.9997H221.389V21.9857H213.629Z" fill="#C7C7CB"/>
<path d="M38.6254 48.3929C41.4715 48.3929 43.2793 49.2893 43.2867 50.8282C43.2793 52.352 41.4715 53.2484 38.6254 53.2484C35.7794 53.2484 33.9716 52.352 33.9791 50.8282C33.9716 49.2893 35.7794 48.3929 38.6254 48.3929ZM32.6345 47.1529V46.1967H37.6394V43.627H38.7898V46.1967H44.721V47.1529H32.6345ZM34.0687 41.64V40.6838H43.1822V41.8044C43.1747 42.88 43.1747 43.9557 42.8087 45.3302L41.6583 45.1957C42.0168 43.8287 42.0168 42.8427 42.0168 41.8044V41.64H34.0687ZM35.1444 50.8282C35.1369 51.7544 36.5114 52.3222 38.6254 52.3222C40.7469 52.3222 42.1065 51.7544 42.1214 50.8282C42.1065 49.8795 40.7469 49.2968 38.6254 49.2893C36.5114 49.2968 35.1369 49.8795 35.1444 50.8282ZM56.8523 40.0115V49.8272H55.6721V46.2416H52.2358C51.6233 47.0259 50.6373 47.4965 49.5018 47.4965C47.5148 47.4965 46.0432 46.122 46.0507 44.1798C46.0432 42.2301 47.5148 40.8557 49.5018 40.8482C50.6298 40.8557 51.6009 41.3188 52.2209 42.0882H55.6721V40.0115H56.8523ZM47.1712 44.1798C47.1712 45.5095 48.1423 46.4582 49.5018 46.4507C50.8091 46.4582 51.8026 45.5095 51.8026 44.1798C51.8026 42.8576 50.8091 41.9015 49.5018 41.894C48.1423 41.9015 47.1712 42.8576 47.1712 44.1798ZM48.3215 52.9945V48.7963H49.5018V52.0084H57.2258V52.9945H48.3215ZM52.7513 43.0593C52.8708 43.4029 52.938 43.7764 52.938 44.1798C52.938 44.5683 52.8708 44.9343 52.7587 45.2704H55.6721V43.0593H52.7513ZM69.4468 39.9966V42.7755H71.4488V43.7615H69.4468V46.7047H68.2815V39.9966H69.4468ZM59.7059 46.0623V40.5942H60.8861V45.0463C62.7686 45.0538 64.7183 44.9194 66.8771 44.4786L67.0265 45.4647C64.7556 45.9278 62.7611 46.0548 60.7666 46.0623H59.7059ZM60.9758 48.2883V47.3471H69.4468V50.5891H62.171V52.1429H69.9398V53.099H61.0057V49.6628H68.2815V48.2883H60.9758ZM78.9935 41.2068V47.3172H72.8531V41.2068H78.9935ZM74.0035 46.376H77.858V42.1629H74.0035V46.376ZM74.3621 52.9945V48.8112H75.5125V52.0084H83.2813V52.9945H74.3621ZM81.5034 49.7375V39.9966H82.6687V44.0454H84.6707V45.0314H82.6687V49.7375H81.5034ZM100.328 39.9966V53.2783H99.1476V39.9966H100.328ZM89.5113 49.8272C93.1044 48.124 94.942 45.5767 95.2035 42.402H90.1238V41.4458H96.3987C96.3837 45.263 94.6059 48.6469 90.1537 50.7833L89.5113 49.8272ZM112.848 39.9966V45.2555H115.074V46.2416H112.848V53.3082H111.682V39.9966H112.848ZM103.152 49.9766V41.2964H109.352V42.2675H104.317V48.9905C106.722 48.9831 108.418 48.8785 110.398 48.5124L110.547 49.5284C108.463 49.9019 106.722 49.9766 104.197 49.9766H103.152ZM126.757 39.9966V53.3082H125.592V39.9966H126.757ZM116.538 42.2077V41.2366H122.723V45.9577H117.763V49.0951C119.967 49.1026 121.931 48.998 124.307 48.617L124.426 49.6031C121.984 49.984 119.967 50.0811 117.673 50.0811H116.568V45.0015H121.543V42.2077H116.538ZM139.665 41.3412V42.6709C139.65 44.2993 139.65 46.122 139.172 48.7963L137.977 48.6618C138.477 46.122 138.477 44.262 138.485 42.6709V42.3123H130.298V41.3412H139.665ZM129.013 51.3959V50.4248H133.764V45.6738H134.914V50.4248H141.114V51.3959H129.013ZM150.571 48.9158C150.564 50.0886 151.199 51.3361 152.461 52.0532C153.731 51.2689 154.403 49.9392 154.396 48.9158V48.1838H155.546V48.9158C155.539 50.2828 156.547 51.6424 158.251 52.2325L157.668 53.099C156.338 52.6284 155.412 51.7021 154.949 50.5891C154.538 51.6648 153.724 52.6882 152.499 53.2036C151.206 52.7106 150.385 51.7395 149.989 50.6265C149.511 51.6947 148.599 52.621 147.329 53.099L146.732 52.2325C148.412 51.605 149.421 50.1857 149.436 48.9158V48.1838H150.571V48.9158ZM146.388 43.896C146.381 42.0434 147.852 40.781 149.869 40.7884C151.886 40.781 153.343 42.0434 153.35 43.896C153.343 45.7186 151.886 46.9736 149.869 46.9736C147.852 46.9736 146.381 45.7186 146.388 43.896ZM147.538 43.896C147.524 45.1285 148.502 45.995 149.869 46.0025C151.221 45.995 152.2 45.1285 152.2 43.896C152.2 42.6559 151.221 41.7745 149.869 41.7894C148.502 41.7745 147.524 42.6559 147.538 43.896ZM155.875 47.6011V40.0115H157.04V47.6011H155.875ZM162.867 41.0275C164.675 41.0349 165.982 42.5887 166.161 45.0762H169.142V39.9966H170.307V53.3082H169.142V46.0473H166.176C166.049 48.6544 164.72 50.2828 162.867 50.2754C160.902 50.2828 159.528 48.49 159.535 45.6589C159.528 42.8352 160.902 41.0349 162.867 41.0275ZM160.656 45.6589C160.663 47.8177 161.56 49.237 162.867 49.2296C164.167 49.237 165.078 47.8177 165.078 45.6589C165.078 43.5001 164.167 42.0807 162.867 42.0733C161.56 42.0807 160.663 43.5001 160.656 45.6589ZM184.679 50.5891V51.5752H172.518V50.5891H175.536V47.011C174.401 46.4208 173.713 45.4647 173.713 44.2545C173.713 42.2003 175.73 40.8482 178.569 40.8332C181.408 40.8482 183.425 42.2003 183.425 44.2545C183.425 45.4423 182.76 46.3835 181.662 46.9736V50.5891H184.679ZM174.849 44.2545C174.841 45.7411 176.388 46.7346 178.569 46.7346C180.728 46.7346 182.289 45.7411 182.289 44.2545C182.289 42.768 180.728 41.7894 178.569 41.8044C176.388 41.7894 174.841 42.768 174.849 44.2545ZM176.687 50.5891H180.481V47.4293C179.906 47.5787 179.264 47.6609 178.569 47.6609C177.889 47.6609 177.254 47.5862 176.687 47.4368V50.5891ZM187.892 41.2516L187.787 49.0204H186.532L186.427 41.2516H187.892ZM186.203 51.1867C186.188 50.6638 186.637 50.2305 187.16 50.2305C187.69 50.2305 188.123 50.6638 188.116 51.1867C188.123 51.7171 187.69 52.1503 187.16 52.1578C186.637 52.1503 186.188 51.7171 186.203 51.1867Z" fill="#39393A"/>
<path d="M425.054 329.478C423.311 349.737 392.877 377.95 372.943 376.235C353.009 374.521 297.788 368.353 299.53 348.095C301.272 327.836 372.181 287.978 392.115 289.692C428.595 288.305 426.796 309.219 425.054 329.478Z" fill="url(#paint0_linear_4_4052)"/>
<path d="M299 272.144C299 272.144 305.743 277.528 306.504 281.779C307.266 286.03 316.876 287.66 316.876 287.66C316.876 287.66 311.761 277.05 303.637 272.658C302.133 271.843 300.735 272.551 299.018 272.162L299 272.144Z" fill="#121212"/>
<path d="M299.692 287.447C299.692 287.447 304.435 274.819 313.816 270.94L316.187 273.065C316.187 273.065 306.063 283.569 303.444 288.811L299.692 287.43V287.447Z" fill="#121212"/>
<path d="M355 273.204C355 273.204 361.743 278.589 362.504 282.839C363.266 287.09 372.876 288.72 372.876 288.72C372.876 288.72 367.761 278.11 359.637 273.718C358.133 272.903 356.735 273.612 355.018 273.222L355 273.204Z" fill="#121212"/>
<path d="M355.672 288.508C355.672 288.508 360.416 275.879 369.796 272L372.168 274.125C372.168 274.125 362.044 284.629 359.425 289.871L355.672 288.49V288.508Z" fill="#121212"/>
<path fill-rule="evenodd" clip-rule="evenodd" d="M335.917 346.573C351.987 352.75 379.589 353.194 397.744 323.28L404.044 330.065C400.733 337.739 388.972 354.103 368.424 358.174C347.875 362.245 330.461 354.216 324.322 349.693L329.701 344.934L329.653 344.847C331.268 342.747 334.547 337.674 334.741 334.185L338.376 336.123C338.435 338.194 337.939 342.459 335.917 346.573Z" fill="url(#paint1_linear_4_4052)"/>
<path d="M330.395 328.72C339.241 343.99 377.632 340.728 386.355 313.104M320.001 345.892C334.659 362.175 382.478 370.291 404.09 330.603" stroke="black" stroke-width="2" stroke-linecap="round"/>
<path d="M275.36 307.427L315.126 300.856L316.643 307.016L322.771 308.239L324.699 314.338L326.667 317.909L327.826 328.508L329.696 328.304L334.611 329.975L335.088 334.34L333.383 338.943L331.4 343.892L326.129 347.623L321.243 349.103L317.712 348.543L315.501 345.63L315.126 342.2L306.407 337.475L305.626 336.553L304.436 335.065L303.246 333.875L298.189 331.793L294.322 329.116L293.43 322.274L297.577 317.303L300.081 311.35L286.987 312.781L277.741 311.899C273.891 311.31 274.549 308.673 275.36 307.427Z" fill="white"/>
<path d="M319.013 337.147C316.395 340.479 308.8 335.759 305.329 332.982L306.817 329.115L308.006 331.198L311.874 332.09L322.583 323.166C322.484 326.438 321.631 333.815 319.013 337.147Z" fill="#BFBFBF"/>
<path d="M303.896 308.724C301.548 311.294 296.906 316.934 297.124 318.929C297.342 320.924 300.303 322.998 301.756 323.786M309.916 311.852L303.069 322.056C301.897 323.802 301.203 326.207 302.684 327.7C303.571 328.593 304.857 328.937 306.598 327.673M306.598 327.673L314.685 317.956M306.598 327.673C306.466 328.957 307.452 331.447 310.283 331.83C311.253 331.961 312.18 331.491 312.916 330.844L322.435 322.472" stroke="black" stroke-width="2" stroke-linecap="round"/>
<path d="M301.328 311.213C297.973 312.842 286.479 312.942 280.684 312.839C272.181 311.245 274.008 308.521 275.984 307.359L307.822 301.355C310.063 300.689 314.717 299.781 315.407 301.472C316.096 303.163 316.519 305.872 316.644 307.016C318.236 307.157 321.643 307.731 322.528 308.896C323.412 310.061 323.698 312.87 323.731 314.128C325.127 314.396 327.897 315.881 327.807 319.676C327.747 322.244 327.881 325.898 328.031 328.801M328.235 332.249C328.177 331.405 328.102 330.189 328.031 328.801M328.031 328.801C329.903 328.176 333.826 327.978 334.538 332.191C335.43 337.457 329.73 348.806 320.655 349.483C315.953 349.833 314.532 345.42 315.43 342.091M322.988 341.971C320.897 343.041 314.653 343.64 306.407 337.474C304.56 335.713 300.689 332.191 299.975 332.191M305.032 328.801C306.122 330.096 305.627 334.767 300.272 332.288" stroke="black" stroke-width="2" stroke-linecap="round"/>
<path fill-rule="evenodd" clip-rule="evenodd" d="M28.7457 165.14C20.9319 165.14 14.5975 171.474 14.5975 179.288V259.55C14.5975 267.364 20.9319 273.698 28.7457 273.698H163.96L237.639 316.919L201.307 273.698H226.332C234.145 273.698 240.48 267.364 240.48 259.55V179.288C240.48 171.474 234.145 165.14 226.332 165.14H28.7457Z" fill="#25F3CF"/>
<path d="M163.96 273.698L164.328 273.071L164.158 272.971H163.96V273.698ZM237.639 316.919L237.271 317.546L238.195 316.451L237.639 316.919ZM201.307 273.698V272.971H199.746L200.751 274.166L201.307 273.698ZM15.3245 179.288C15.3245 171.876 21.3334 165.867 28.7457 165.867V164.413C20.5304 164.413 13.8706 171.073 13.8706 179.288H15.3245ZM15.3245 259.55V179.288H13.8706V259.55H15.3245ZM28.7457 272.971C21.3334 272.971 15.3245 266.962 15.3245 259.55H13.8706C13.8706 267.765 20.5304 274.425 28.7457 274.425V272.971ZM163.96 272.971H28.7457V274.425H163.96V272.971ZM238.007 316.292L164.328 273.071L163.592 274.325L237.271 317.546L238.007 316.292ZM200.751 274.166L237.082 317.387L238.195 316.451L201.864 273.23L200.751 274.166ZM226.332 272.971H201.307V274.425H226.332V272.971ZM239.753 259.55C239.753 266.962 233.744 272.971 226.332 272.971V274.425C234.547 274.425 241.207 267.765 241.207 259.55H239.753ZM239.753 179.288V259.55H241.207V179.288H239.753ZM226.332 165.867C233.744 165.867 239.753 171.876 239.753 179.288H241.207C241.207 171.073 234.547 164.413 226.332 164.413V165.867ZM28.7457 165.867H226.332V164.413H28.7457V165.867Z" fill="black"/>
<path d="M45.6768 217.921V225.839H44.4965V222.358H41.8222V221.387H44.4965V217.921H45.6768ZM34.7257 224.778C36.6978 224.068 38.1021 222.268 38.1021 220.371V219.878H35.0992V218.892H42.2555V219.878H39.2824V220.356C39.2824 222.089 40.6121 223.74 42.5543 224.405L41.9417 225.346C40.4552 224.808 39.2973 223.687 38.7222 222.32C38.1544 223.874 36.9219 225.114 35.3382 225.719L34.7257 224.778ZM36.8173 228.722C36.8098 227.161 38.5055 226.25 41.2694 226.257C44.0259 226.25 45.7216 227.161 45.7216 228.722C45.7216 230.291 44.0259 231.187 41.2694 231.202C38.5055 231.187 36.8098 230.291 36.8173 228.722ZM37.9826 228.722C37.9751 229.686 39.2301 230.269 41.2694 230.261C43.3013 230.269 44.5562 229.686 44.5562 228.722C44.5562 227.751 43.3013 227.168 41.2694 227.168C39.2301 227.168 37.9751 227.751 37.9826 228.722ZM58.2712 217.921V220.804H60.2732V221.79H58.2712V224.688H57.1059V217.921H58.2712ZM48.4556 223.986V218.682H54.596V223.986H48.4556ZM49.606 223.045H53.4605V219.639H49.606V223.045ZM49.8002 226.257V225.316H58.2712V228.558H50.9805V230.082H58.7642V231.023H49.8301V227.661H57.1059V226.257H49.8002ZM77.1106 228.528V229.499H64.9494V228.528H70.4175V225.66H66.3837V218.862H67.5639V221.267H74.4663V218.862H75.6166V225.66H71.5679V228.528H77.1106ZM67.5639 224.703H74.4663V222.223H67.5639V224.703ZM88.8237 219.265V220.595C88.8087 222.223 88.8087 224.046 88.3306 226.72L87.1354 226.586C87.6359 224.046 87.6359 222.186 87.6434 220.595V220.236H79.4562V219.265H88.8237ZM78.1714 229.32V228.349H82.9223V223.598H84.0727V228.349H90.2728V229.32H78.1714ZM102.359 217.935V225.316H101.194V217.935H102.359ZM91.483 224.106C93.485 223.411 94.9043 221.656 94.9043 219.728V218.429H96.0995V219.728C96.0845 221.573 97.5188 223.217 99.4909 223.867L98.9231 224.793C97.3619 224.263 96.1144 223.15 95.5168 221.723C94.9192 223.254 93.6642 224.464 92.0806 225.032L91.483 224.106ZM93.3953 231.023V230.067H95.3823V227.064H93.5148V226.108H102.449V227.064H100.611V230.067H102.583V231.023H93.3953ZM96.5327 230.067H99.446V227.064H96.5327V230.067ZM111.503 219.041V220.012H106.543V224.703C108.918 224.696 110.464 224.621 112.25 224.27L112.399 225.241C110.502 225.577 108.896 225.674 106.393 225.674H105.392V219.041H111.503ZM107.065 230.993V226.9H108.246V230.037H115.985V230.993H107.065ZM110.636 222.582V221.626H114.446V217.935H115.626V227.632H114.446V222.582H110.636ZM127.683 226.317C130.529 226.317 132.337 227.213 132.344 228.752C132.337 230.276 130.529 231.172 127.683 231.172C124.837 231.172 123.029 230.276 123.036 228.752C123.029 227.213 124.837 226.317 127.683 226.317ZM121.692 225.077V224.121H126.697V221.551H127.847V224.121H133.778V225.077H121.692ZM123.126 219.564V218.608H132.239V219.728C132.232 220.804 132.232 221.88 131.866 223.254L130.716 223.12C131.074 221.753 131.074 220.767 131.074 219.728V219.564H123.126ZM124.202 228.752C124.194 229.678 125.569 230.246 127.683 230.246C129.804 230.246 131.164 229.678 131.179 228.752C131.164 227.803 129.804 227.221 127.683 227.213C125.569 227.221 124.194 227.803 124.202 228.752ZM145.91 217.935V227.751H144.729V224.166H141.293C140.681 224.95 139.695 225.42 138.559 225.42C136.572 225.42 135.1 224.046 135.108 222.104C135.1 220.154 136.572 218.78 138.559 218.772C139.687 218.78 140.658 219.243 141.278 220.012H144.729V217.935H145.91ZM136.228 222.104C136.228 223.433 137.2 224.382 138.559 224.375C139.866 224.382 140.86 223.433 140.86 222.104C140.86 220.782 139.866 219.825 138.559 219.818C137.2 219.825 136.228 220.782 136.228 222.104ZM137.379 230.918V226.72H138.559V229.932H146.283V230.918H137.379ZM141.809 220.983C141.928 221.327 141.995 221.7 141.995 222.104C141.995 222.492 141.928 222.858 141.816 223.194H144.729V220.983H141.809ZM159.072 217.921V231.232H157.892V217.921H159.072ZM148.614 223.583C148.621 220.759 150.026 218.959 152.005 218.951C153.977 218.959 155.404 220.759 155.397 223.583C155.404 226.414 153.977 228.207 152.005 228.199C150.026 228.207 148.621 226.414 148.614 223.583ZM149.749 223.583C149.749 225.742 150.676 227.161 152.005 227.154C153.342 227.161 154.261 225.742 154.261 223.583C154.261 221.424 153.342 220.005 152.005 219.997C150.676 220.005 149.749 221.424 149.749 223.583ZM172.727 217.921V231.202H171.592V217.921H172.727ZM161.507 223.658C161.515 220.834 162.635 219.049 164.361 219.041C165.974 219.049 167.065 220.602 167.214 223.105H168.932V218.204H170.053V230.53H168.932V224.076H167.222C167.11 226.66 165.997 228.281 164.361 228.274C162.635 228.281 161.515 226.481 161.507 223.658ZM162.613 223.658C162.598 225.809 163.285 227.168 164.361 227.154C165.444 227.168 166.131 225.809 166.124 223.658C166.131 221.499 165.444 220.147 164.361 220.147C163.285 220.147 162.598 221.499 162.613 223.658ZM186.726 228.513V229.499H174.565V228.513H177.583V224.935C176.447 224.345 175.76 223.389 175.76 222.178C175.76 220.124 177.777 218.772 180.615 218.757C183.454 218.772 185.471 220.124 185.471 222.178C185.471 223.366 184.806 224.307 183.708 224.898V228.513H186.726ZM176.895 222.178C176.888 223.665 178.434 224.659 180.615 224.659C182.774 224.659 184.335 223.665 184.335 222.178C184.335 220.692 182.774 219.713 180.615 219.728C178.434 219.713 176.888 220.692 176.895 222.178ZM178.733 228.513H182.528V225.353C181.953 225.503 181.31 225.585 180.615 225.585C179.936 225.585 179.301 225.51 178.733 225.361V228.513ZM189.938 219.176L189.833 226.944H188.578L188.474 219.176H189.938ZM188.25 229.111C188.235 228.588 188.683 228.154 189.206 228.154C189.736 228.154 190.17 228.588 190.162 229.111C190.17 229.641 189.736 230.074 189.206 230.082C188.683 230.074 188.235 229.641 188.25 229.111ZM45.6917 235.921V249.232H44.5114V241.284H40.373V240.313H44.5114V235.921H45.6917ZM35.398 246.005V237.415H36.5783V245.019C38.6101 244.997 40.4104 244.892 42.4049 244.481L42.5543 245.452C40.4328 245.893 38.5653 246.005 36.4139 246.005H35.398ZM60.0342 243.645V244.616H54.4914V249.202H53.341V244.616H47.8729V243.645H60.0342ZM49.4416 241.837V236.668H58.4505V241.837H49.4416ZM50.592 240.911H57.2852V237.624H50.592V240.911ZM75.9304 235.921V249.202H74.7501V235.921H75.9304ZM65.1138 245.751C68.7069 244.048 70.5445 241.501 70.8059 238.326H65.7263V237.37H72.0011C71.9862 241.187 70.2083 244.571 65.7562 246.707L65.1138 245.751ZM89.5258 235.921V249.202H88.4053V242.24H86.4482V248.515H85.3725V236.219H86.4482V241.269H88.4053V235.921H89.5258ZM78.6644 245.915V237.549H83.6395V238.52H79.8297V244.914C81.6599 244.907 82.9223 244.84 84.4014 244.541L84.506 245.527C82.9074 245.856 81.5553 245.908 79.516 245.915H78.6644ZM91.229 245.333C92.0806 245.333 93.1488 245.325 94.2618 245.288V242.629H91.9461V237.28H97.5935V238.251H93.0965V241.658H97.713V242.629H95.3973V245.251C96.3759 245.206 97.347 245.131 98.1911 245.034L98.2508 245.886C96.0546 246.259 93.2086 246.326 91.4083 246.319L91.229 245.333ZM98.8036 248.5V236.219H99.8942V241.463H101.553V235.921H102.688V249.202H101.553V242.419H99.8942V248.5H98.8036ZM116.777 246.513V247.499H104.615V246.513H107.633V242.935C106.498 242.345 105.811 241.389 105.811 240.178C105.811 238.124 107.827 236.772 110.666 236.757C113.505 236.772 115.522 238.124 115.522 240.178C115.522 241.366 114.857 242.307 113.759 242.898V246.513H116.777ZM106.946 240.178C106.938 241.665 108.485 242.659 110.666 242.659C112.825 242.659 114.386 241.665 114.386 240.178C114.386 238.692 112.825 237.713 110.666 237.728C108.485 237.713 106.938 238.692 106.946 240.178ZM108.784 246.513H112.578V243.353C112.003 243.503 111.361 243.585 110.666 243.585C109.986 243.585 109.351 243.51 108.784 243.361V246.513ZM119.989 237.176L119.884 244.944H118.629L118.524 237.176H119.989ZM118.3 247.111C118.285 246.588 118.734 246.154 119.257 246.154C119.787 246.154 120.22 246.588 120.213 247.111C120.22 247.641 119.787 248.074 119.257 248.082C118.734 248.074 118.285 247.641 118.3 247.111ZM123.918 237.176L123.813 244.944H122.558L122.454 237.176H123.918ZM122.23 247.111C122.215 246.588 122.663 246.154 123.186 246.154C123.716 246.154 124.149 246.588 124.142 247.111C124.149 247.641 123.716 248.074 123.186 248.082C122.663 248.074 122.215 247.641 122.23 247.111Z" fill="#39393A"/>
<path d="M36.6781 191.616V192.622H35.2937V198.041H34.0277V192.622H33.0339V191.616H34.0277V190.871C34.0336 189.723 34.7672 189.072 35.9445 189.072C36.2462 189.072 36.5598 189.108 36.8082 189.155V190.208C36.5716 190.173 36.3882 190.161 36.2758 190.161C35.6073 190.161 35.2937 190.433 35.2937 191.06V191.616H36.6781ZM37.8258 198.041V191.616H39.0445V192.634H39.1155C39.3521 191.947 39.9969 191.515 40.7483 191.521C40.9021 191.515 41.1505 191.533 41.2807 191.545V192.752C41.1742 192.728 40.8784 192.675 40.6181 192.681C39.7425 192.675 39.0918 193.284 39.0918 194.124V198.041H37.8258ZM44.7356 198.171C42.9135 198.171 41.7244 196.846 41.7303 194.858C41.7244 192.858 42.9135 191.533 44.7356 191.533C46.5459 191.533 47.7291 192.858 47.7291 194.858C47.7291 196.846 46.5459 198.171 44.7356 198.171ZM42.9963 194.858C42.9963 196.083 43.5583 197.118 44.7356 197.118C45.8951 197.118 46.4512 196.083 46.4512 194.858C46.4512 193.627 45.8951 192.58 44.7356 192.574C43.5583 192.58 42.9963 193.627 42.9963 194.858ZM48.9714 198.041V191.616H50.1901V192.669H50.2611C50.5332 191.953 51.1662 191.533 52.0122 191.533C52.87 191.533 53.4675 191.953 53.7397 192.669H53.8107C54.1124 191.977 54.8105 191.533 55.7393 191.533C56.8988 191.533 57.7211 192.261 57.727 193.734V198.041H56.461V193.852C56.461 192.983 55.9168 192.622 55.2542 192.622C54.4437 192.622 53.9763 193.178 53.9763 193.947V198.041H52.7221V193.781C52.7221 193.077 52.2429 192.622 51.5508 192.622C50.8409 192.622 50.2374 193.213 50.2374 194.077V198.041H48.9714ZM60.0816 198.124C59.6201 198.118 59.2356 197.745 59.2415 197.284C59.2356 196.822 59.6201 196.443 60.0816 196.443C60.5371 196.443 60.9157 196.822 60.9216 197.284C60.9157 197.745 60.5371 198.118 60.0816 198.124ZM74.5638 193.344V194.266H70.2807V195.207C72.2211 195.319 73.3629 195.994 73.3688 197.106C73.3629 198.348 71.9963 199.023 69.7127 199.023C67.4114 199.023 66.033 198.348 66.033 197.106C66.033 195.988 67.1926 195.314 69.1567 195.207V194.266H64.8853V193.344H74.5638ZM66.0922 192.456V188.93H73.3688V189.818H67.2044V191.569H73.4398V192.456H66.0922ZM67.1689 197.106C67.163 197.786 68.0918 198.171 69.7127 198.159C71.3101 198.171 72.2448 197.786 72.2448 197.106C72.2448 196.426 71.3101 196.065 69.7127 196.065C68.0918 196.065 67.163 196.426 67.1689 197.106ZM85.0351 193.344V194.266H80.7519V195.207C82.6923 195.319 83.8341 195.994 83.84 197.106C83.8341 198.348 82.4675 199.023 80.184 199.023C77.8827 199.023 76.5043 198.348 76.5043 197.106C76.5043 195.988 77.6638 195.314 79.6279 195.207V194.266H75.3566V193.344H85.0351ZM76.5634 192.456V188.93H83.84V189.818H77.6756V191.569H83.911V192.456H76.5634ZM77.6401 197.106C77.6342 197.786 78.563 198.171 80.184 198.159C81.7813 198.171 82.716 197.786 82.716 197.106C82.716 196.426 81.7813 196.065 80.184 196.065C78.563 196.065 77.6342 196.426 77.6401 197.106ZM94.6071 188.445V199.07H93.483V188.445H94.6071ZM86.1946 192.953C86.1946 190.687 87.3364 189.244 88.9396 189.238C90.5132 189.244 91.6728 190.687 91.6728 192.953C91.6728 195.243 90.5132 196.686 88.9396 196.68C87.3364 196.686 86.1946 195.243 86.1946 192.953ZM87.2831 192.953C87.2772 194.639 87.9516 195.674 88.9396 195.674C89.9098 195.674 90.5842 194.639 90.5842 192.953C90.5842 191.291 89.9098 190.249 88.9396 190.244C87.9516 190.249 87.2772 191.291 87.2831 192.953Z" fill="#6201FF"/>
<path d="M322.667 296.371C318.364 297.088 317.98 301.392 320.977 305.595C321.59 306.455 322.33 307.204 323.167 307.847C328.911 312.267 339.249 311.774 344.982 308.982C349.324 306.867 350.889 303.221 350.623 300.073C350.325 296.55 347.426 293.512 344.183 293.508C340.597 293.508 339.88 294.942 338.447 296.371C335.817 294.937 331.274 292.498 328.405 297.088C325.536 296.371 324.102 296.132 322.667 296.371Z" fill="#6B36DC"/>
<path d="M323.167 307.847C328.911 312.267 339.249 311.774 344.982 308.982C349.324 306.867 350.889 303.221 350.623 300.073M323.167 307.847C322.33 307.204 321.59 306.455 320.977 305.595C317.98 301.392 318.364 297.088 322.667 296.371C324.102 296.132 325.536 296.371 328.405 297.088C331.274 292.498 335.817 294.937 338.447 296.371C339.88 294.942 340.597 293.508 344.183 293.508C347.426 293.512 350.325 296.55 350.623 300.073M323.167 307.847C326.04 304.684 335.553 298.701 350.623 300.073" stroke="black" stroke-width="2"/>
<path d="M323.082 307.568C328.877 311.769 339.205 311.771 344.939 309.182C349.282 307.221 350.444 303.145 350.155 300.18C335.022 298.783 325.943 304.61 323.082 307.568Z" fill="white" stroke="black" stroke-width="2"/>
<path d="M249.999 301.748L257.734 329.71H259.518L262.493 332.388L263.98 335.362L261.303 338.635H262.493L265.765 340.122L266.955 343.394L267.55 344.287L265.765 345.477L261.601 346.964L264.278 354.401L268.74 370.167L273.5 372.249L306.222 362.432V358.863L288.373 293.121L284.506 289.849L252.379 298.476L249.999 301.748Z" fill="#121212"/>
<path d="M257.533 329.711L250.15 303.037C249.626 301.146 250.728 299.186 252.617 298.651L283.391 289.93C285.288 289.393 287.262 290.495 287.799 292.391L306.705 359.108C307.242 361.005 306.14 362.978 304.243 363.516L273.474 372.235C271.583 372.771 269.615 371.677 269.071 369.789L262.493 346.964" stroke="black" stroke-width="1.78484" stroke-linecap="round"/>
<path d="M262.496 351.41L262.794 350.882L261.604 347.312L267.304 345.191L267.851 344.337L269.444 341.425L268.844 338.264L265.279 337.177L264.957 335.71L265.961 331.925L264.72 329.809L263.887 328.96L264.957 327.077L264.957 325.299L263.744 322.017L262.078 320.318L257.659 320.485L254.498 321.085L250.675 324.834L249.171 327.974L249.767 331.556L251.434 333.255L250.151 335.346L249.91 338.499L252.826 341.473L254.067 343.588L253.205 345.684L254.851 349.486L257.987 351.41L260.507 351.855L262.496 351.41Z" fill="white"/>
<path d="M251.292 333.124C251.292 333.124 243.466 325.981 255.536 321.251C255.536 321.251 258.178 319.709 261.169 320.498C264.846 321.47 266.739 326.642 263.517 328.663V328.663" stroke="#121212" stroke-width="2" stroke-linecap="round" stroke-linejoin="round"/>
<path d="M252.574 341.7C252.574 341.7 246.496 337.652 251.28 333.039C256.065 328.426 262.994 326.12 265.071 330.165C266.033 331.536 266.909 334.832 262.716 337.05" stroke="#121212" stroke-width="2" stroke-linecap="round" stroke-linejoin="round"/>
<path d="M261.856 346.696C270.596 344.356 269.096 340.709 268.561 339.092C266.485 335.047 259.555 337.353 254.771 341.966C249.986 346.579 256.064 350.627 256.064 350.627C257.68 351.618 262.382 352.742 268.266 349.303" stroke="#121212" stroke-width="2" stroke-linecap="round" stroke-linejoin="round"/>
</g>
<defs>
<linearGradient id="paint0_linear_4_4052" x1="383.118" y1="282.131" x2="403.537" y2="352.683" gradientUnits="userSpaceOnUse">
<stop stop-color="#11CFAE" stop-opacity="0.5"/>
<stop offset="1" stop-color="#11CFAE" stop-opacity="0"/>
</linearGradient>
<linearGradient id="paint1_linear_4_4052" x1="336.196" y1="339.031" x2="398.229" y2="340.727" gradientUnits="userSpaceOnUse">
<stop stop-color="#00C19C"/>
<stop offset="1" stop-color="#00C19C" stop-opacity="0"/>
</linearGradient>
<clipPath id="clip0_4_4052">
<rect width="458" height="366.765" fill="white" transform="translate(0 0.435059)"/>
</clipPath>
</defs>
</svg>
