<svg width="100%" height="100%" viewBox="0 0 459 368" fill="none" xmlns="http://www.w3.org/2000/svg">
<g clip-path="url(#clip0_4_3996)">
<rect width="458.294" height="367" transform="translate(0 0.200195)" fill="#6B36DC"/>
<mask id="path-1-outside-1_4_3996" maskUnits="userSpaceOnUse" x="203.414" y="-16.0596" width="348" height="160" fill="black">
<rect fill="white" x="203.414" y="-16.0596" width="348" height="160"/>
<path fill-rule="evenodd" clip-rule="evenodd" d="M298.474 -14.0595C297.465 -14.0595 296.678 -13.2196 296.348 -12.2667C295.605 -10.122 293.567 -8.5819 291.17 -8.5819C288.773 -8.5819 286.735 -10.122 285.993 -12.2667C285.663 -13.2196 284.875 -14.0595 283.867 -14.0595L216.369 -14.0596C210.318 -14.0596 205.414 -9.15475 205.414 -3.10435V130.485C205.414 136.535 210.318 141.44 216.369 141.44L283.867 141.44C284.875 141.44 285.663 140.6 285.993 139.647C286.735 137.502 288.773 135.962 291.17 135.962C293.567 135.962 295.605 137.502 296.348 139.647C296.678 140.6 297.465 141.44 298.474 141.44L537.77 141.44C543.821 141.44 548.725 136.535 548.725 130.485V-3.10435C548.725 -9.15475 543.821 -14.0596 537.77 -14.0596L298.474 -14.0595Z"/>
</mask>
<path fill-rule="evenodd" clip-rule="evenodd" d="M298.474 -14.0595C297.465 -14.0595 296.678 -13.2196 296.348 -12.2667C295.605 -10.122 293.567 -8.5819 291.17 -8.5819C288.773 -8.5819 286.735 -10.122 285.993 -12.2667C285.663 -13.2196 284.875 -14.0595 283.867 -14.0595L216.369 -14.0596C210.318 -14.0596 205.414 -9.15475 205.414 -3.10435V130.485C205.414 136.535 210.318 141.44 216.369 141.44L283.867 141.44C284.875 141.44 285.663 140.6 285.993 139.647C286.735 137.502 288.773 135.962 291.17 135.962C293.567 135.962 295.605 137.502 296.348 139.647C296.678 140.6 297.465 141.44 298.474 141.44L537.77 141.44C543.821 141.44 548.725 136.535 548.725 130.485V-3.10435C548.725 -9.15475 543.821 -14.0596 537.77 -14.0596L298.474 -14.0595Z" fill="white"/>
<path d="M216.369 -14.0596L216.369 -16.0596H216.369V-14.0596ZM216.369 141.44L216.369 139.44H216.369V141.44ZM537.77 141.44V139.44V141.44ZM537.77 -14.0596V-16.0596V-14.0596ZM296.348 139.647L298.238 138.993L296.348 139.647ZM298.474 141.44V143.44V141.44ZM283.867 141.44L283.867 139.44L283.867 141.44ZM285.993 139.647L287.883 140.301L285.993 139.647ZM285.993 -12.2667L284.103 -11.6124L285.993 -12.2667ZM296.348 -12.2667L294.458 -12.921L296.348 -12.2667ZM291.17 -6.5819C294.446 -6.5819 297.225 -8.68708 298.238 -11.6124L294.458 -12.921C293.985 -11.5568 292.689 -10.5819 291.17 -10.5819V-6.5819ZM284.103 -11.6124C285.115 -8.68708 287.894 -6.5819 291.17 -6.5819V-10.5819C289.651 -10.5819 288.355 -11.5568 287.883 -12.921L284.103 -11.6124ZM216.369 -12.0596L283.867 -12.0595V-16.0595L216.369 -16.0596L216.369 -12.0596ZM207.414 -3.10435C207.414 -8.05018 211.423 -12.0596 216.369 -12.0596V-16.0596C209.214 -16.0596 203.414 -10.2593 203.414 -3.10435H207.414ZM207.414 130.485V-3.10435H203.414V130.485H207.414ZM216.369 139.44C211.423 139.44 207.414 135.43 207.414 130.485H203.414C203.414 137.64 209.214 143.44 216.369 143.44V139.44ZM283.867 139.44L216.369 139.44L216.369 143.44L283.867 143.44L283.867 139.44ZM287.883 140.301C288.355 138.937 289.651 137.962 291.17 137.962V133.962C287.894 133.962 285.115 136.068 284.103 138.993L287.883 140.301ZM291.17 137.962C292.689 137.962 293.985 138.937 294.458 140.301L298.238 138.993C297.225 136.068 294.446 133.962 291.17 133.962V137.962ZM537.77 139.44L298.474 139.44V143.44L537.77 143.44V139.44ZM546.725 130.485C546.725 135.43 542.716 139.44 537.77 139.44V143.44C544.925 143.44 550.725 137.64 550.725 130.485H546.725ZM546.725 -3.10435V130.485H550.725V-3.10435H546.725ZM537.77 -12.0596C542.716 -12.0596 546.725 -8.05018 546.725 -3.10435H550.725C550.725 -10.2593 544.925 -16.0596 537.77 -16.0596V-12.0596ZM298.474 -12.0595L537.77 -12.0596V-16.0596L298.474 -16.0595L298.474 -12.0595ZM294.458 140.301C294.932 141.672 296.265 143.44 298.474 143.44V139.44C298.557 139.44 298.568 139.481 298.497 139.417C298.414 139.342 298.307 139.193 298.238 138.993L294.458 140.301ZM283.867 143.44C286.075 143.44 287.408 141.672 287.883 140.301L284.103 138.993C284.033 139.193 283.926 139.342 283.843 139.417C283.772 139.481 283.783 139.44 283.867 139.44L283.867 143.44ZM287.883 -12.921C287.408 -14.292 286.075 -16.0595 283.867 -16.0595V-12.0595C283.783 -12.0595 283.772 -12.1007 283.843 -12.0365C283.926 -11.9617 284.033 -11.813 284.103 -11.6124L287.883 -12.921ZM298.238 -11.6124C298.307 -11.813 298.414 -11.9617 298.497 -12.0365C298.568 -12.1007 298.557 -12.0595 298.474 -12.0595L298.474 -16.0595C296.265 -16.0595 294.932 -14.292 294.458 -12.921L298.238 -11.6124Z" fill="black" mask="url(#path-1-outside-1_4_3996)"/>
<path d="M291.17 -8.58196C288.773 -8.58196 286.735 -10.122 285.993 -12.2668C285.663 -13.2197 284.875 -14.0596 283.867 -14.0596H216.369C210.318 -14.0596 205.414 -9.15475 205.414 -3.10435V130.485C205.414 136.535 210.318 141.44 216.369 141.44H283.867C284.875 141.44 285.663 140.6 285.993 139.647C286.735 137.502 288.773 135.962 291.17 135.962V-8.58196Z" fill="#6B36DC"/>
<line x1="291.215" y1="-8.58191" x2="291.215" y2="135.962" stroke="black" stroke-width="2" stroke-dasharray="3.65 3.65"/>
<path d="M332.701 34.7084H335.111V36.6164H332.701V40.3923H330.713V31.294H332.701V34.7084ZM327.821 35.7327C327.821 38.2633 325.772 39.9705 322.538 39.9705C319.285 39.9705 317.236 38.2633 317.236 35.7327C317.236 33.2221 319.285 31.4747 322.538 31.4747C325.772 31.4747 327.821 33.2221 327.821 35.7327ZM319.225 35.7327C319.225 37.3796 320.57 38.3437 322.538 38.3437C324.507 38.3437 325.832 37.3796 325.832 35.7327C325.832 34.0857 324.507 33.1016 322.538 33.1016C320.57 33.1016 319.225 34.0857 319.225 35.7327ZM329.99 43.0033V46.6386H333.063V48.2855H318.401V46.6386H321.494V43.0033H318.602V41.3764H332.862V43.0033H329.99ZM323.462 43.0033V46.6386H328.001V43.0033H323.462ZM354.431 38.2433V40.1513H352.021V48.4462H350.033V31.294H352.021V38.2433H354.431ZM343.565 33.7443C343.545 35.7528 343.364 37.5805 343.043 39.1872L348.546 46.0963L346.98 47.2813L342.461 41.4367C341.296 44.9917 339.287 47.1206 336.696 47.4219V45.4536C339.729 44.8912 341.497 40.1111 341.557 33.7443H337.098V31.9166H347.883V33.7443H343.565ZM369.834 48.4462V31.294H371.823V48.4462H369.834ZM356.799 47.4219V38.6249H364.472V33.7443H356.759V31.9166H366.46V40.4526H358.788V45.5942H363.809C365.436 45.5942 367.203 45.2729 368.248 44.7707V46.5984C367.203 47.1206 365.416 47.4219 363.749 47.4219H356.799ZM394.924 44.0477V36.3754H390.786V34.5678H394.924V31.294H396.912V44.0477H394.924ZM386.448 37.6005C385.203 39.7697 383.254 41.3162 380.804 41.6375V39.7697C384.018 39.1872 385.906 35.5519 385.946 31.4547L387.934 31.5752C387.934 33.1016 387.693 34.5678 387.211 35.8733L392.534 40.1312L391.288 41.5371L386.448 37.6005ZM384.339 46.4378H397.273V48.2253H382.31V42.7623H384.339V46.4378ZM414.243 31.294H416.232V40.7739H414.243V36.2549H410.909V34.5276H414.243V31.294ZM406.129 37.0382C404.964 38.9261 402.956 40.1915 400.425 40.4325V38.6449C403.257 38.2633 405.024 36.2348 405.265 33.443H400.646V31.7358H411.592V33.443H407.254C407.214 34.146 407.093 34.8289 406.872 35.4515L412.154 38.7855L411.17 40.2718L406.129 37.0382ZM401.63 48.2253V41.7179H416.232V48.2253H401.63ZM403.618 43.3849V46.5382H414.243V43.3849H403.618Z" fill="black"/>
<path d="M317.254 15.0051H318.759V16.2759C319.109 15.6625 320.059 14.8006 321.593 14.8006C323.565 14.8006 324.952 16.2175 324.952 18.467V23.3603H323.448V18.7299C323.448 17.0355 322.63 16.1153 321.271 16.1153C319.811 16.1153 318.759 17.4883 318.759 19.0367V23.3603H317.254V15.0051ZM330.924 14.8006C333.393 14.8006 335.19 16.6703 335.19 19.1827C335.19 21.6951 333.393 23.5648 330.924 23.5648C328.441 23.5648 326.645 21.6951 326.645 19.1827C326.645 16.6703 328.441 14.8006 330.924 14.8006ZM330.924 16.1299C329.259 16.1299 328.12 17.4445 328.12 19.1827C328.12 20.921 329.259 22.2356 330.924 22.2356C332.575 22.2356 333.714 20.921 333.714 19.1827C333.714 17.4445 332.575 16.1299 330.924 16.1299ZM337.812 23.5502C337.228 23.5502 336.775 23.0974 336.775 22.5131C336.775 21.9288 337.228 21.476 337.812 21.476C338.396 21.476 338.834 21.9288 338.834 22.5131C338.834 23.0974 338.396 23.5502 337.812 23.5502ZM341.663 23.3603V13.004H339.238V11.6601H343.197V23.3603H341.663Z" fill="#121212"/>
<path d="M316.071 68.5758L474.922 68.5758" stroke="black" stroke-width="2"/>
<path d="M316.071 90.4863L434.753 90.4863" stroke="black" stroke-width="2"/>
<mask id="path-9-outside-2_4_3996" maskUnits="userSpaceOnUse" x="184.986" y="56.2126" width="348" height="160" fill="black">
<rect fill="white" x="184.986" y="56.2126" width="348" height="160"/>
<path fill-rule="evenodd" clip-rule="evenodd" d="M280.046 58.2126C279.038 58.2126 278.25 59.0526 277.92 60.0055C277.178 62.1502 275.14 63.6903 272.743 63.6903C270.346 63.6903 268.308 62.1502 267.565 60.0055C267.236 59.0526 266.448 58.2126 265.439 58.2126L197.942 58.2127C191.891 58.2127 186.986 63.1175 186.986 69.1679V202.757C186.986 208.807 191.891 213.712 197.942 213.712L265.439 213.712C266.448 213.712 267.236 212.872 267.565 211.919C268.308 209.775 270.346 208.234 272.743 208.234C275.14 208.234 277.178 209.775 277.92 211.919C278.25 212.872 279.038 213.712 280.046 213.712L519.343 213.712C525.393 213.712 530.298 208.807 530.298 202.757V69.1679C530.298 63.1175 525.393 58.2127 519.343 58.2127L280.046 58.2126Z"/>
</mask>
<path fill-rule="evenodd" clip-rule="evenodd" d="M280.046 58.2126C279.038 58.2126 278.25 59.0526 277.92 60.0055C277.178 62.1502 275.14 63.6903 272.743 63.6903C270.346 63.6903 268.308 62.1502 267.565 60.0055C267.236 59.0526 266.448 58.2126 265.439 58.2126L197.942 58.2127C191.891 58.2127 186.986 63.1175 186.986 69.1679V202.757C186.986 208.807 191.891 213.712 197.942 213.712L265.439 213.712C266.448 213.712 267.236 212.872 267.565 211.919C268.308 209.775 270.346 208.234 272.743 208.234C275.14 208.234 277.178 209.775 277.92 211.919C278.25 212.872 279.038 213.712 280.046 213.712L519.343 213.712C525.393 213.712 530.298 208.807 530.298 202.757V69.1679C530.298 63.1175 525.393 58.2127 519.343 58.2127L280.046 58.2126Z" fill="white"/>
<path d="M197.942 58.2127V60.2127H197.942L197.942 58.2127ZM197.942 213.712V215.712H197.942L197.942 213.712ZM519.343 213.712V215.712V213.712ZM519.343 58.2127V60.2127V58.2127ZM277.92 211.919L279.81 211.265L277.92 211.919ZM280.046 213.712V215.712V213.712ZM265.439 213.712L265.439 211.712L265.439 213.712ZM267.565 211.919L265.676 211.265L267.565 211.919ZM267.565 60.0055L265.676 60.6598L267.565 60.0055ZM265.439 58.2126V60.2126V58.2126ZM277.92 60.0055L276.031 59.3511L277.92 60.0055ZM272.743 65.6903C276.019 65.6903 278.798 63.5851 279.81 60.6598L276.031 59.3511C275.558 60.7153 274.262 61.6903 272.743 61.6903V65.6903ZM265.676 60.6598C266.688 63.5851 269.467 65.6903 272.743 65.6903V61.6903C271.224 61.6903 269.928 60.7153 269.455 59.3511L265.676 60.6598ZM197.942 60.2127L265.439 60.2126L265.439 56.2126L197.942 56.2127L197.942 60.2127ZM188.986 69.1679C188.986 64.2221 192.996 60.2127 197.942 60.2127V56.2127C190.787 56.2127 184.986 62.0129 184.986 69.1679H188.986ZM188.986 202.757V69.1679H184.986V202.757H188.986ZM197.942 211.712C192.996 211.712 188.986 207.703 188.986 202.757H184.986C184.986 209.912 190.787 215.712 197.942 215.712V211.712ZM265.439 211.712L197.942 211.712L197.942 215.712L265.439 215.712L265.439 211.712ZM269.455 212.574C269.928 211.209 271.224 210.234 272.743 210.234V206.234C269.467 206.234 266.688 208.34 265.676 211.265L269.455 212.574ZM272.743 210.234C274.262 210.234 275.558 211.209 276.031 212.574L279.81 211.265C278.798 208.34 276.019 206.234 272.743 206.234V210.234ZM519.343 211.712L280.046 211.712V215.712L519.343 215.712V211.712ZM528.298 202.757C528.298 207.703 524.289 211.712 519.343 211.712V215.712C526.498 215.712 532.298 209.912 532.298 202.757H528.298ZM528.298 69.1679V202.757H532.298V69.1679H528.298ZM519.343 60.2127C524.289 60.2127 528.298 64.2221 528.298 69.1679H532.298C532.298 62.0129 526.498 56.2127 519.343 56.2127V60.2127ZM280.046 60.2126L519.343 60.2127V56.2127L280.046 56.2126V60.2126ZM276.031 212.574C276.505 213.945 277.838 215.712 280.046 215.712V211.712C280.13 211.712 280.141 211.753 280.07 211.689C279.987 211.614 279.88 211.466 279.81 211.265L276.031 212.574ZM265.439 215.712C267.648 215.712 268.981 213.945 269.455 212.574L265.676 211.265C265.606 211.466 265.499 211.614 265.416 211.689C265.345 211.753 265.356 211.712 265.439 211.712L265.439 215.712ZM269.455 59.3511C268.981 57.9801 267.648 56.2126 265.439 56.2126L265.439 60.2126C265.356 60.2126 265.345 60.1714 265.416 60.2357C265.499 60.3105 265.606 60.4591 265.676 60.6598L269.455 59.3511ZM279.81 60.6598C279.88 60.4591 279.987 60.3105 280.07 60.2357C280.141 60.1714 280.13 60.2126 280.046 60.2126V56.2126C277.838 56.2126 276.505 57.9801 276.031 59.3511L279.81 60.6598Z" fill="black" mask="url(#path-9-outside-2_4_3996)"/>
<path d="M272.743 63.6903C270.346 63.6903 268.308 62.1502 267.565 60.0055C267.236 59.0526 266.448 58.2126 265.439 58.2126H197.942C191.891 58.2126 186.986 63.1175 186.986 69.1679V202.757C186.986 208.807 191.891 213.712 197.942 213.712H265.439C266.448 213.712 267.236 212.872 267.565 211.919C268.308 209.775 270.346 208.234 272.743 208.234V63.6903Z" fill="#6B36DC"/>
<line x1="272.788" y1="63.6902" x2="272.788" y2="208.234" stroke="black" stroke-width="2" stroke-dasharray="3.65 3.65"/>
<path d="M307.084 109.33C305.156 112.363 302.243 114.352 299.09 114.352V112.464C302.806 112.464 306.22 108.447 307.104 103.646L309.153 104.008C308.912 105.334 308.51 106.599 307.947 107.744L315.499 112.825L314.415 114.412L307.084 109.33ZM298.749 118.027H315.881V119.895H298.749V118.027ZM332.73 103.566H334.558V120.718H332.73V103.566ZM328.814 110.535V103.667H330.641V120.417H328.814V112.403H326.745V110.535H328.814ZM325.439 105.956V117.726C326.263 117.585 326.966 117.404 327.568 117.103V118.891C326.464 119.433 324.475 119.694 322.085 119.694H317.968V117.927H319.494V105.956H318.088V104.189H326.906V105.956H325.439ZM321.282 117.927H322.146C322.688 117.927 323.19 117.927 323.652 117.886V105.956H321.282V117.927ZM351.568 112.323V109.431H347.872V107.804H351.568V106.438H347.872V104.811H351.568V103.566H353.536V112.323H351.568ZM343.092 108.788C341.867 110.616 339.919 111.921 337.428 112.243V110.455C340.642 109.873 342.489 107.001 342.53 103.727L344.518 103.847C344.518 105.052 344.297 106.217 343.895 107.262L348.917 110.696L347.832 112.062L343.092 108.788ZM340.923 118.971H353.938V120.497H338.955V116.139H351.568V114.793H338.914V113.267H353.536V117.585H340.923V118.971ZM376.195 110.214V105.474H363.522V103.767H378.204V110.214H376.195ZM370.772 111.479H379.469V113.167H362.337V111.479H368.764V107.804H370.772V111.479ZM363.381 116.762V115.054H378.264V120.738H376.255V116.762H363.381ZM403.514 111.52V113.267H388.471V104.068H403.253V105.816H390.459V107.824H403.032V109.511H390.459V111.52H403.514ZM404.418 115.295V117.103H396.846V121.12H394.817V117.103H387.286V115.295H404.418ZM419.459 118.067H423.737V119.895H406.605V118.067H410.883V114.05H407.489V112.243H410.522V106.117H407.67V104.289H422.653V106.117H419.801V112.243H422.834V114.05H419.459V118.067ZM412.53 106.117V112.243H417.792V106.117H412.53ZM412.872 114.05V118.067H417.471V114.05H412.872Z" fill="black"/>
<path d="M298.827 87.2772H300.332V88.548C300.682 87.9346 301.632 87.0727 303.166 87.0727C305.137 87.0727 306.525 88.4896 306.525 90.7391V95.6324H305.021V91.002C305.021 89.3076 304.203 88.3874 302.844 88.3874C301.383 88.3874 300.332 89.7604 300.332 91.3088V95.6324H298.827V87.2772ZM312.497 87.0727C314.966 87.0727 316.762 88.9424 316.762 91.4548C316.762 93.9672 314.966 95.8369 312.497 95.8369C310.014 95.8369 308.217 93.9672 308.217 91.4548C308.217 88.9424 310.014 87.0727 312.497 87.0727ZM312.497 88.402C310.832 88.402 309.693 89.7166 309.693 91.4548C309.693 93.1931 310.832 94.5077 312.497 94.5077C314.148 94.5077 315.287 93.1931 315.287 91.4548C315.287 89.7166 314.148 88.402 312.497 88.402ZM319.385 95.8223C318.8 95.8223 318.348 95.3695 318.348 94.7852C318.348 94.2009 318.8 93.7481 319.385 93.7481C319.969 93.7481 320.407 94.2009 320.407 94.7852C320.407 95.3695 319.969 95.8223 319.385 95.8223ZM321.968 95.6324V94.6391L326.116 90.4762C327.606 88.9716 328.19 88.0222 328.19 87.1896C328.19 85.8165 327.255 85.0132 325.795 85.0132C324.217 85.0132 323.37 86.2109 323.37 87.5109H321.836C321.836 85.3929 323.37 83.6547 325.809 83.6547C328.161 83.6547 329.709 85.0716 329.709 87.175C329.709 88.4312 328.994 89.4975 327.241 91.2942L324.173 94.3032H330.104V95.6324H321.968Z" fill="#121212"/>
<path d="M297.644 140.848L456.495 140.848" stroke="black" stroke-width="2"/>
<path d="M297.644 162.758L416.326 162.758" stroke="black" stroke-width="2"/>
<path fill-rule="evenodd" clip-rule="evenodd" d="M174.866 134.679C173.858 134.679 173.07 135.519 172.74 136.472C171.998 138.617 169.96 140.157 167.563 140.157C165.166 140.157 163.128 138.617 162.385 136.472C162.055 135.519 161.268 134.679 160.259 134.679L92.7614 134.679C86.711 134.679 81.8062 139.584 81.8062 145.635V279.224C81.8062 285.274 86.711 290.179 92.7614 290.179L160.259 290.179C161.268 290.179 162.055 289.339 162.385 288.386C163.128 286.241 165.165 284.701 167.563 284.701C169.96 284.701 171.998 286.241 172.74 288.386C173.07 289.339 173.858 290.179 174.866 290.179L414.163 290.179C420.213 290.179 425.118 285.274 425.118 279.224V145.635C425.118 139.584 420.213 134.679 414.163 134.679L174.866 134.679Z" fill="black"/>
<mask id="path-18-outside-3_4_3996" maskUnits="userSpaceOnUse" x="74.3286" y="127.202" width="348" height="160" fill="black">
<rect fill="white" x="74.3286" y="127.202" width="348" height="160"/>
<path fill-rule="evenodd" clip-rule="evenodd" d="M87.2838 129.202H154.782C155.79 129.202 156.578 130.042 156.908 130.995C157.65 133.139 159.688 134.679 162.085 134.679C164.482 134.679 166.52 133.139 167.263 130.995C167.593 130.042 168.38 129.202 169.389 129.202H408.685C414.736 129.202 419.64 134.107 419.64 140.157V273.746C419.64 279.796 414.736 284.701 408.685 284.701L169.389 284.701C168.38 284.701 167.593 283.861 167.263 282.908C166.52 280.764 164.483 279.224 162.085 279.224C159.688 279.224 157.65 280.764 156.908 282.908C156.578 283.861 155.79 284.701 154.782 284.701L87.2838 284.701C81.2334 284.701 76.3286 279.796 76.3286 273.746V140.157C76.3286 134.107 81.2334 129.202 87.2838 129.202Z"/>
</mask>
<path fill-rule="evenodd" clip-rule="evenodd" d="M87.2838 129.202H154.782C155.79 129.202 156.578 130.042 156.908 130.995C157.65 133.139 159.688 134.679 162.085 134.679C164.482 134.679 166.52 133.139 167.263 130.995C167.593 130.042 168.38 129.202 169.389 129.202H408.685C414.736 129.202 419.64 134.107 419.64 140.157V273.746C419.64 279.796 414.736 284.701 408.685 284.701L169.389 284.701C168.38 284.701 167.593 283.861 167.263 282.908C166.52 280.764 164.483 279.224 162.085 279.224C159.688 279.224 157.65 280.764 156.908 282.908C156.578 283.861 155.79 284.701 154.782 284.701L87.2838 284.701C81.2334 284.701 76.3286 279.796 76.3286 273.746V140.157C76.3286 134.107 81.2334 129.202 87.2838 129.202Z" fill="white"/>
<path d="M408.685 284.701V286.701V284.701ZM87.2838 284.701V286.701H87.2838L87.2838 284.701ZM169.389 284.701L169.389 282.701L169.389 284.701ZM167.263 282.908L165.373 283.563L167.263 282.908ZM167.263 130.995L165.373 130.34L167.263 130.995ZM156.908 282.908L158.798 283.563L156.908 282.908ZM154.782 284.701V286.701V284.701ZM156.908 130.995L155.018 131.649L156.908 130.995ZM154.782 127.202H87.2838V131.202H154.782V127.202ZM162.085 132.679C160.566 132.679 159.27 131.704 158.798 130.34L155.018 131.649C156.031 134.574 158.809 136.679 162.085 136.679V132.679ZM165.373 130.34C164.9 131.704 163.604 132.679 162.085 132.679V136.679C165.361 136.679 168.14 134.574 169.153 131.649L165.373 130.34ZM408.685 127.202H169.389V131.202H408.685V127.202ZM421.64 140.157C421.64 133.002 415.84 127.202 408.685 127.202V131.202C413.631 131.202 417.64 135.211 417.64 140.157H421.64ZM421.64 273.746V140.157H417.64V273.746H421.64ZM408.685 286.701C415.84 286.701 421.64 280.901 421.64 273.746H417.64C417.64 278.692 413.631 282.701 408.685 282.701V286.701ZM169.389 286.701L408.685 286.701V282.701L169.389 282.701L169.389 286.701ZM162.085 281.224C163.604 281.224 164.9 282.198 165.373 283.563L169.153 282.254C168.14 279.329 165.361 277.224 162.085 277.224V281.224ZM158.798 283.563C159.27 282.198 160.566 281.224 162.085 281.224V277.224C158.809 277.224 156.031 279.329 155.018 282.254L158.798 283.563ZM87.2838 286.701L154.782 286.701L154.782 282.701L87.2838 282.701L87.2838 286.701ZM74.3286 273.746C74.3286 280.901 80.1288 286.701 87.2838 286.701V282.701C82.338 282.701 78.3286 278.692 78.3286 273.746H74.3286ZM74.3286 140.157V273.746H78.3286V140.157H74.3286ZM87.2838 127.202C80.1288 127.202 74.3286 133.002 74.3286 140.157H78.3286C78.3286 135.211 82.338 131.202 87.2838 131.202V127.202ZM169.389 282.701C169.472 282.701 169.483 282.742 169.412 282.678C169.329 282.603 169.222 282.455 169.153 282.254L165.373 283.563C165.847 284.934 167.18 286.701 169.389 286.701L169.389 282.701ZM169.153 131.649C169.222 131.448 169.329 131.3 169.412 131.225C169.483 131.161 169.472 131.202 169.389 131.202V127.202C167.18 127.202 165.847 128.969 165.373 130.34L169.153 131.649ZM155.018 282.254C154.948 282.455 154.841 282.603 154.758 282.678C154.687 282.742 154.698 282.701 154.782 282.701L154.782 286.701C156.991 286.701 158.323 284.934 158.798 283.563L155.018 282.254ZM154.782 131.202C154.699 131.202 154.687 131.161 154.758 131.225C154.841 131.3 154.948 131.448 155.018 131.649L158.798 130.34C158.323 128.969 156.991 127.202 154.782 127.202V131.202Z" fill="black" mask="url(#path-18-outside-3_4_3996)"/>
<path d="M162.085 134.679C159.688 134.679 157.65 133.139 156.908 130.995C156.578 130.042 155.79 129.202 154.782 129.202H87.2838C81.2334 129.202 76.3286 134.107 76.3286 140.157V273.746C76.3286 279.796 81.2334 284.701 87.2838 284.701H154.782C155.79 284.701 156.578 283.861 156.908 282.908C157.65 280.764 159.688 279.224 162.085 279.224V134.679Z" fill="#25F3CF"/>
<line x1="162.13" y1="134.679" x2="162.13" y2="279.224" stroke="black" stroke-width="2" stroke-dasharray="3.65 3.65"/>
<path d="M202.17 174.555H204.159V191.707H202.17V174.555ZM199.117 181.364V183.131H189.316V175.178H198.917V176.945H191.264V181.364H199.117ZM188.091 185.24H195.1C197.41 185.24 199.499 185.1 200.724 184.577V186.385C199.499 186.887 197.47 187.048 195.121 187.048H194.96V191.707H192.971V187.048H188.091V185.24ZM223.538 179.074V180.58H208.395V179.074H211.427V176.262H208.575V174.756H223.358V176.262H220.506V179.074H223.538ZM213.416 176.262V179.074H218.517V176.262H213.416ZM224.543 183.473H216.951V184.959H223.358V188.916H210.544V190.04H223.659V191.506H208.596V187.53H221.41V186.425H208.555V184.959H214.982V183.473H207.411V181.926H224.543V183.473ZM240.749 191.707V174.555H242.758V191.707H240.749ZM232.655 190.904C229.602 190.904 227.453 188.373 227.453 182.93C227.453 177.487 229.602 174.957 232.655 174.957C235.688 174.957 237.837 177.487 237.837 182.93C237.837 188.373 235.688 190.904 232.655 190.904ZM232.655 189.076C234.443 189.076 235.849 187.289 235.849 182.93C235.849 178.592 234.443 176.784 232.655 176.784C230.827 176.784 229.442 178.592 229.442 182.93C229.442 187.289 230.827 189.076 232.655 189.076ZM257.403 180.962C256.218 182.669 254.29 183.894 251.92 184.156V182.428C254.531 182.047 256.198 180.199 256.6 177.809H252.101V176.142H256.64V174.254H258.648V176.142H263.127V177.809H258.628C258.548 178.371 258.407 178.913 258.207 179.436L263.429 182.468L262.485 183.975L257.403 180.962ZM269.615 178.351V180.259H267.204V184.497H265.216V174.555H267.204V178.351H269.615ZM252.864 191.486V185.441H267.204V191.486H252.864ZM254.832 187.068V189.86H265.236V187.068H254.832ZM285.138 174.555H287.127V184.999H285.138V179.496H281.001V177.688H285.138V174.555ZM276.642 180.601C275.417 182.689 273.469 184.176 271.019 184.497V182.649C274.212 182.067 276.12 178.632 276.16 174.716L278.149 174.836C278.149 176.302 277.908 177.688 277.426 178.954L282.768 182.991L281.583 184.356L276.642 180.601ZM272.385 187.67V185.943H287.127V191.707H285.098V187.67H272.385Z" fill="black"/>
<path d="M188.169 158.266H189.674V159.537C190.025 158.924 190.974 158.062 192.508 158.062C194.48 158.062 195.867 159.479 195.867 161.728V166.622H194.363V161.991C194.363 160.297 193.545 159.377 192.186 159.377C190.726 159.377 189.674 160.75 189.674 162.298V166.622H188.169V158.266ZM201.839 158.062C204.308 158.062 206.105 159.932 206.105 162.444C206.105 164.956 204.308 166.826 201.839 166.826C199.356 166.826 197.56 164.956 197.56 162.444C197.56 159.932 199.356 158.062 201.839 158.062ZM201.839 159.391C200.174 159.391 199.035 160.706 199.035 162.444C199.035 164.182 200.174 165.497 201.839 165.497C203.49 165.497 204.629 164.182 204.629 162.444C204.629 160.706 203.49 159.391 201.839 159.391ZM208.727 166.811C208.143 166.811 207.69 166.359 207.69 165.774C207.69 165.19 208.143 164.737 208.727 164.737C209.311 164.737 209.749 165.19 209.749 165.774C209.749 166.359 209.311 166.811 208.727 166.811ZM215.656 166.884C213.144 166.884 211.595 165.365 211.508 163.32H213.027C213.071 164.577 214.005 165.555 215.656 165.555C217.292 165.555 218.271 164.62 218.271 163.452C218.271 162.137 217.219 161.363 215.451 161.363H214.166V160.092H215.451C216.941 160.092 217.949 159.245 217.949 158.033C217.949 156.893 217.044 155.958 215.495 155.958C213.918 155.958 213.056 157.069 213.056 158.31H211.522C211.522 156.251 213.1 154.644 215.495 154.644C217.905 154.644 219.468 156.148 219.468 157.989C219.468 159.42 218.461 160.414 217.38 160.677C218.563 160.896 219.775 161.816 219.775 163.437C219.775 165.395 218.11 166.884 215.656 166.884Z" fill="#121212"/>
<path d="M186.986 211.837L345.837 211.837" stroke="black" stroke-width="2"/>
<path d="M186.986 233.747L305.668 233.747" stroke="black" stroke-width="2"/>
<g clip-path="url(#clip1_4_3996)">
<path d="M125.335 240.507L143.231 240.507L143.231 240.523C143.837 240.598 144.31 241.104 144.31 241.722C144.31 242.34 143.84 242.846 143.231 242.921L143.231 242.937L125.229 242.937L125.229 248.75L143.329 248.75C147.271 248.75 150.469 245.603 150.469 241.722C150.469 237.841 147.271 234.694 143.329 234.694L119.429 234.694C119.429 237.903 122.075 240.507 125.335 240.507Z" fill="#85FFEA"/>
<path d="M144.563 173.474L126.667 173.474L126.667 173.49C126.061 173.565 125.588 174.071 125.588 174.69C125.588 175.308 126.058 175.814 126.667 175.889L126.667 175.905L150.469 175.905L150.469 181.718L126.569 181.718C122.627 181.718 119.429 178.57 119.429 174.69C119.429 170.809 122.627 167.661 126.569 167.661L150.469 167.661C150.469 170.873 147.823 173.474 144.563 173.474Z" fill="#85FFEA"/>
<path d="M127.855 157.836C127.779 158.432 127.265 158.898 126.637 158.898C126.009 158.898 125.495 158.435 125.419 157.836L125.403 157.836L125.403 156.717C125.403 153.505 122.757 150.903 119.497 150.903L119.497 157.932C119.497 161.813 122.694 164.96 126.637 164.96C130.58 164.96 133.777 161.813 133.777 157.932L133.777 156.717L136.091 156.717L144.547 156.725L144.547 164.958L150.452 164.958L150.452 162.201L150.469 156.73L150.469 156.61L150.469 156.575L150.469 150.901L133.777 150.901L127.871 150.901L127.871 157.833L127.855 157.833L127.855 157.836Z" fill="#85FFEA"/>
<path d="M126.607 251.481C122.665 251.481 119.467 254.628 119.467 258.509L119.429 259.687L119.429 265.516L150.469 265.516L150.469 258.472C150.469 254.591 147.271 251.443 143.329 251.443L126.607 251.481ZM144.555 257.256L144.555 259.687L125.424 259.687L125.424 257.256L135.406 257.256C135.422 257.256 135.441 257.254 135.457 257.251C135.52 257.251 135.582 257.254 135.645 257.256L144.555 257.256Z" fill="#85FFEA"/>
<path d="M126.607 217.966C122.665 217.966 119.467 221.113 119.467 224.994L119.429 226.172L119.429 232.001L150.469 232.001L150.469 224.957C150.469 221.076 147.271 217.928 143.329 217.928L126.607 217.966ZM144.555 223.742L144.555 226.172L125.424 226.172L125.424 223.742L135.406 223.742C135.422 223.742 135.441 223.739 135.457 223.736C135.52 223.736 135.582 223.739 135.645 223.742L144.555 223.742Z" fill="#85FFEA"/>
<path d="M138.794 201.176L126.637 201.176C122.694 201.176 119.497 204.324 119.497 208.204C119.497 212.085 122.694 215.233 126.637 215.233L135.517 215.233L143.329 215.233C147.271 215.233 150.469 212.085 150.469 208.204C150.469 204.324 147.271 201.176 143.329 201.176L138.794 201.176ZM143.231 206.989L143.231 207.005C143.837 207.08 144.31 207.586 144.31 208.204C144.31 208.823 143.84 209.329 143.231 209.404L143.231 209.42L135.517 209.42L126.735 209.42L126.735 209.404C126.129 209.329 125.655 208.823 125.655 208.204C125.655 207.586 126.126 207.08 126.735 207.005L126.735 206.989L138.791 206.989L143.228 206.989L143.231 206.989Z" fill="#85FFEA"/>
<path d="M138.794 184.418L126.637 184.418C122.694 184.418 119.497 187.566 119.497 191.447C119.497 195.328 122.694 198.475 126.637 198.475L135.517 198.475L143.329 198.475C147.271 198.475 150.469 195.328 150.469 191.447C150.469 187.566 147.271 184.418 143.329 184.418L138.794 184.418ZM143.231 190.232L143.231 190.248C143.837 190.323 144.31 190.829 144.31 191.447C144.31 192.065 143.84 192.571 143.231 192.646L143.231 192.662L135.517 192.662L126.735 192.662L126.735 192.646C126.129 192.571 125.655 192.065 125.655 191.447C125.655 190.829 126.126 190.323 126.735 190.248L126.735 190.232L138.791 190.232L143.228 190.232L143.231 190.232Z" fill="#85FFEA"/>
</g>
<mask id="path-33-outside-4_4_3996" maskUnits="userSpaceOnUse" x="184.986" y="253.511" width="348" height="160" fill="black">
<rect fill="white" x="184.986" y="253.511" width="348" height="160"/>
<path fill-rule="evenodd" clip-rule="evenodd" d="M197.942 255.511H265.439C266.448 255.511 267.236 256.351 267.565 257.304C268.308 259.449 270.346 260.989 272.743 260.989C275.14 260.989 277.178 259.449 277.92 257.304C278.25 256.351 279.038 255.511 280.046 255.511H519.343C525.393 255.511 530.298 260.416 530.298 266.467V400.056C530.298 406.106 525.393 411.011 519.343 411.011L280.046 411.011C279.038 411.011 278.25 410.171 277.92 409.218C277.178 407.073 275.14 405.533 272.743 405.533C270.346 405.533 268.308 407.073 267.565 409.218C267.236 410.171 266.448 411.011 265.439 411.011L197.942 411.011C191.891 411.011 186.986 406.106 186.986 400.056V266.467C186.986 260.416 191.891 255.511 197.942 255.511Z"/>
</mask>
<path fill-rule="evenodd" clip-rule="evenodd" d="M197.942 255.511H265.439C266.448 255.511 267.236 256.351 267.565 257.304C268.308 259.449 270.346 260.989 272.743 260.989C275.14 260.989 277.178 259.449 277.92 257.304C278.25 256.351 279.038 255.511 280.046 255.511H519.343C525.393 255.511 530.298 260.416 530.298 266.467V400.056C530.298 406.106 525.393 411.011 519.343 411.011L280.046 411.011C279.038 411.011 278.25 410.171 277.92 409.218C277.178 407.073 275.14 405.533 272.743 405.533C270.346 405.533 268.308 407.073 267.565 409.218C267.236 410.171 266.448 411.011 265.439 411.011L197.942 411.011C191.891 411.011 186.986 406.106 186.986 400.056V266.467C186.986 260.416 191.891 255.511 197.942 255.511Z" fill="white"/>
<path d="M519.343 411.011V413.011V411.011ZM197.942 411.011V413.011H197.942L197.942 411.011ZM280.046 411.011V413.011V411.011ZM277.92 409.218L279.81 408.564L277.92 409.218ZM277.92 257.304L276.03 256.65L277.92 257.304ZM267.565 409.218L265.676 408.564L267.565 409.218ZM265.439 411.011V413.011V411.011ZM265.439 253.511H197.942V257.511H265.439V253.511ZM272.743 258.989C271.224 258.989 269.928 258.014 269.455 256.65L265.676 257.958C266.688 260.884 269.467 262.989 272.743 262.989V258.989ZM276.03 256.65C275.558 258.014 274.262 258.989 272.743 258.989V262.989C276.019 262.989 278.798 260.884 279.81 257.958L276.03 256.65ZM519.343 253.511H280.046V257.511H519.343V253.511ZM532.298 266.467C532.298 259.312 526.498 253.511 519.343 253.511V257.511C524.289 257.511 528.298 261.521 528.298 266.467H532.298ZM532.298 400.056V266.467H528.298V400.056H532.298ZM519.343 413.011C526.498 413.011 532.298 407.211 532.298 400.056H528.298C528.298 405.001 524.289 409.011 519.343 409.011V413.011ZM280.046 413.011L519.343 413.011V409.011L280.046 409.011L280.046 413.011ZM272.743 407.533C274.262 407.533 275.558 408.508 276.031 409.872L279.81 408.564C278.798 405.638 276.019 403.533 272.743 403.533V407.533ZM269.455 409.872C269.928 408.508 271.224 407.533 272.743 407.533V403.533C269.467 403.533 266.688 405.638 265.676 408.564L269.455 409.872ZM197.942 413.011L265.439 413.011L265.439 409.011L197.942 409.011L197.942 413.011ZM184.986 400.056C184.986 407.211 190.787 413.011 197.942 413.011V409.011C192.996 409.011 188.986 405.001 188.986 400.056H184.986ZM184.986 266.467V400.056H188.986V266.467H184.986ZM197.942 253.511C190.787 253.511 184.986 259.312 184.986 266.467H188.986C188.986 261.521 192.996 257.511 197.942 257.511V253.511ZM280.046 409.011C280.13 409.011 280.141 409.052 280.07 408.988C279.987 408.913 279.88 408.764 279.81 408.564L276.031 409.872C276.505 411.243 277.838 413.011 280.046 413.011L280.046 409.011ZM279.81 257.958C279.88 257.758 279.987 257.609 280.07 257.534C280.141 257.47 280.13 257.511 280.046 257.511V253.511C277.838 253.511 276.505 255.279 276.03 256.65L279.81 257.958ZM265.676 408.564C265.606 408.764 265.499 408.913 265.416 408.988C265.345 409.052 265.356 409.011 265.439 409.011L265.439 413.011C267.648 413.011 268.981 411.243 269.455 409.872L265.676 408.564ZM265.439 257.511C265.356 257.511 265.345 257.47 265.416 257.534C265.499 257.609 265.606 257.758 265.676 257.958L269.455 256.65C268.981 255.279 267.648 253.511 265.439 253.511V257.511Z" fill="black" mask="url(#path-33-outside-4_4_3996)"/>
<path d="M272.743 260.989C270.346 260.989 268.308 259.449 267.565 257.304C267.236 256.351 266.448 255.511 265.439 255.511H197.942C191.891 255.511 186.986 260.416 186.986 266.467V400.056C186.986 406.106 191.891 411.011 197.942 411.011H265.439C266.448 411.011 267.236 410.171 267.565 409.218C268.308 407.073 270.346 405.533 272.743 405.533V260.989Z" fill="#6B36DC"/>
<line x1="272.788" y1="260.989" x2="272.788" y2="405.533" stroke="black" stroke-width="2" stroke-dasharray="3.65 3.65"/>
<path d="M310.558 306.93V313.438H308.671V300.965H310.558V305.082H313.35V300.865H315.238V313.739H313.35V306.93H310.558ZM306.702 301.166V311.088H299.271V301.166H301.119V304.4H304.875V301.166H306.702ZM301.119 309.461H304.875V306.006H301.119V309.461ZM302.384 315.988H315.66V317.796H300.355V312.654H302.384V315.988ZM319.193 311.61V301.487H334.076V303.335H321.222V309.762H334.277V311.61H319.193ZM318.068 317.193V315.326H335.201V317.193H318.068ZM359.487 302.572V304.299H343.66V302.572H350.529V300.443H352.577V302.572H359.487ZM344.463 308.637C344.463 306.408 347.516 305.404 351.573 305.404C355.63 305.404 358.683 306.408 358.683 308.637C358.683 310.847 355.63 311.851 351.573 311.851C347.516 311.851 344.463 310.847 344.463 308.637ZM356.655 308.637C356.655 307.553 354.485 307.051 351.573 307.051C348.681 307.051 346.492 307.553 346.492 308.637C346.492 309.702 348.681 310.204 351.573 310.204C354.485 310.204 356.655 309.702 356.655 308.637ZM360.149 313.036V314.803H352.577V318.419H350.549V314.803H343.017V313.036H360.149ZM371.295 311.63H376.496V300.865H378.485V314.301H376.496V313.237H371.295V311.63ZM368.443 307.593C365.47 307.593 363.361 306.408 363.361 304.239C363.361 302.09 365.47 300.905 368.443 300.905C371.435 300.905 373.524 302.09 373.524 304.239C373.524 306.408 371.435 307.593 368.443 307.593ZM368.443 302.471C366.635 302.471 365.309 303.054 365.309 304.239C365.309 305.424 366.635 306.026 368.443 306.026C370.25 306.026 371.576 305.424 371.576 304.239C371.576 303.054 370.25 302.471 368.443 302.471ZM367.077 313.518V310.445H362.337V308.798H369.427C371.777 308.798 373.865 308.617 375.05 308.115V309.762C373.966 310.244 371.817 310.445 369.366 310.445H369.065V313.518H367.077ZM365.912 316.109H378.927V317.796H363.923V312.594H365.912V316.109Z" fill="black"/>
<path d="M298.827 284.576H300.332V285.847C300.682 285.233 301.632 284.371 303.166 284.371C305.137 284.371 306.525 285.788 306.525 288.038V292.931H305.021V288.301C305.021 286.606 304.203 285.686 302.844 285.686C301.383 285.686 300.332 287.059 300.332 288.607V292.931H298.827V284.576ZM312.497 284.371C314.966 284.371 316.762 286.241 316.762 288.754C316.762 291.266 314.966 293.136 312.497 293.136C310.014 293.136 308.217 291.266 308.217 288.754C308.217 286.241 310.014 284.371 312.497 284.371ZM312.497 285.701C310.832 285.701 309.693 287.015 309.693 288.754C309.693 290.492 310.832 291.806 312.497 291.806C314.148 291.806 315.287 290.492 315.287 288.754C315.287 287.015 314.148 285.701 312.497 285.701ZM319.385 293.121C318.8 293.121 318.348 292.668 318.348 292.084C318.348 291.5 318.8 291.047 319.385 291.047C319.969 291.047 320.407 291.5 320.407 292.084C320.407 292.668 319.969 293.121 319.385 293.121ZM327.248 292.931V290.287H321.346V288.987L326.897 281.231H328.708V288.987H330.622V290.287H328.708V292.931H327.248ZM322.924 288.987H327.248V282.911L322.924 288.987Z" fill="#121212"/>
<path d="M297.644 338.147L456.495 338.147" stroke="black" stroke-width="2"/>
<path d="M297.644 360.057L416.326 360.057" stroke="black" stroke-width="2"/>
</g>
<defs>
<clipPath id="clip0_4_3996">
<rect width="458.294" height="367" fill="white" transform="translate(0 0.200195)"/>
</clipPath>
<clipPath id="clip1_4_3996">
<rect width="114.613" height="31.0398" fill="white" transform="translate(119.429 265.516) rotate(-90)"/>
</clipPath>
</defs>
</svg>
