<svg width="100%" height="100%" viewBox="0 0 462 370" fill="none" xmlns="http://www.w3.org/2000/svg">
<g clip-path="url(#clip0_4_3893)">
<rect width="462" height="369.968" fill="#6B36DC"/>
<path fill-rule="evenodd" clip-rule="evenodd" d="M61.7433 188.781C53.8041 193.364 51.9564 205.027 57.6164 214.831L67.8648 232.581C69.7514 235.849 73.4262 237.26 76.0726 235.732C84.0118 231.148 95.0361 235.38 100.696 245.183C106.356 254.986 104.508 266.649 96.5693 271.233C93.9229 272.761 93.307 276.649 95.1936 279.916L105.442 297.667C111.102 307.47 122.126 311.702 130.065 307.118L373.267 166.706C381.206 162.122 383.053 150.459 377.393 140.656L367.145 122.905C365.258 119.637 361.584 118.227 358.937 119.755C350.998 124.339 339.974 120.107 334.314 110.304C328.654 100.5 330.501 88.8373 338.441 84.2536C341.087 82.7257 341.703 78.838 339.816 75.5702L329.568 57.8196C323.908 48.0162 312.884 43.7847 304.944 48.3684L61.7433 188.781Z" fill="black" stroke="black" stroke-width="0.82838"/>
<path fill-rule="evenodd" clip-rule="evenodd" d="M47.7529 187.233C39.8137 191.816 37.9661 203.479 43.6261 213.283L53.8744 231.033C55.7611 234.301 59.4358 235.712 62.0822 234.184C70.0214 229.6 81.0458 233.831 86.7058 243.635C92.3657 253.438 90.5181 265.101 82.5789 269.685C79.9325 271.213 79.3166 275.101 81.2033 278.368L91.4516 296.119C97.1116 305.922 108.136 310.154 116.075 305.57L359.276 165.158C367.215 160.574 369.063 148.911 363.403 139.108L353.155 121.357C351.268 118.089 347.593 116.679 344.947 118.207C337.008 122.79 325.983 118.559 320.323 108.756C314.663 98.9522 316.511 87.2891 324.45 82.7054C327.097 81.1775 327.713 77.2899 325.826 74.0221L315.578 56.2714C309.918 46.468 298.893 42.2366 290.954 46.8203L47.7529 187.233Z" fill="white" stroke="black" stroke-width="2"/>
<rect x="160.431" y="206.248" width="74.6726" height="20.7525" transform="rotate(-30 160.431 206.248)" stroke="black" stroke-width="1.2"/>
<path d="M348.679 193.347L349.666 203.088L347.973 205.394L344.353 208.86L344.948 215.762L362.801 215.244L376.454 220.232L381.689 217.033L383.178 206.037L390.858 194.179L397.865 191.261L399.558 185.379L391.36 181.818L392.818 171.199L394.616 162.399L391.736 158.902L388.13 160.309L382.642 172.782L375.309 168.909L372.164 171.199L367.175 169.646L362.613 169.646L363.742 161.176L357.942 162.399L351.21 172.674L350.212 179.268L352.707 183.758L350.212 185.754L348.679 193.347Z" fill="white"/>
<path d="M246.324 186.838L247.876 196.516L246.324 198.916L242.923 202.587L243.91 209.441L261.701 207.873L275.635 212.045L280.667 208.547L281.513 197.473L288.488 185.176L295.291 181.866L296.639 175.874L288.253 172.815L289.068 162.133L289.695 154.181L287.266 149.914L282.501 155.844L279.585 164.157L271.466 160.879L267.359 162.714L258.832 162.369L259.459 153.851L253.738 155.404L248.425 168.345L248.19 174.729L246.324 186.838Z" fill="white"/>
<path d="M317.047 253.267L304.81 248.119L290.839 245.487L274.875 246.123L261.105 248.765L261.575 241.346L264.647 227.663L271.983 213.457L271.56 211.418L264.647 208.782C264.647 208.782 250.368 207.637 247.86 210.32C237.374 221.519 220.555 257.816 221.511 274.521C221.511 274.521 186.566 317.968 214.003 366.878L234.506 383.74L239.051 400.884L247.641 415.441L244.537 416.241L239.192 420.962L243.205 430.201L251.685 428.758L257.186 431.236L265.337 428.334L271.764 431.456L283.849 426.201L281.889 421.056L272.626 398.971H296.529L304.789 415.864L299.586 424.476L304.789 430.264L321.373 430.42L325.636 427.393L330.417 431.205L337.909 431.471L344.979 419.801L335.543 404.273L333.568 393.23L340.574 385.999L355.183 362.172L360.191 348.402L362.628 331.821L363.71 318.966L362.393 304.449L355.308 284.983L363.71 246.804L368.672 233.151L375.324 220.719L369.67 218.184L358.694 215.19L349.806 216.359L343.113 225.299L333.249 242.631L326.248 260.278L317.016 253.251L317.047 253.267Z" fill="#25F3CF"/>
<path d="M324.883 271.651C324.883 271.651 326.294 245.189 349.837 216.374" stroke="#121212" stroke-width="2" stroke-linecap="round" stroke-linejoin="round"/>
<path d="M356.738 344.637C354.981 365.072 324.281 393.531 304.173 391.802C284.065 390.073 228.361 383.851 230.119 363.416C231.876 342.98 303.404 302.774 323.512 304.503C360.31 303.104 358.496 324.201 356.738 344.637Z" fill="url(#paint0_linear_4_3893)"/>
<path d="M221.528 274.521C221.528 274.521 221.168 242.413 247.877 210.32" stroke="#121212" stroke-width="2" stroke-linecap="round" stroke-linejoin="round"/>
<path d="M261.106 248.764C260.636 239.996 264.664 226.255 271.984 213.456" stroke="#121212" stroke-width="2" stroke-linecap="round" stroke-linejoin="round"/>
<path d="M236.59 291.148C236.59 291.148 242.561 295.916 243.235 299.681C243.909 303.445 252.421 304.888 252.421 304.888C252.421 304.888 247.891 295.493 240.696 291.602C239.364 290.881 238.126 291.508 236.605 291.163L236.59 291.148Z" fill="#121212"/>
<path d="M237.202 304.7C237.202 304.7 241.402 293.516 249.71 290.081L251.81 291.963C251.81 291.963 242.844 301.265 240.525 305.907L237.202 304.684V304.7Z" fill="#121212"/>
<path d="M294.273 291.148C294.273 291.148 300.245 295.916 300.919 299.681C301.593 303.445 310.104 304.888 310.104 304.888C310.104 304.888 305.574 295.493 298.38 291.602C297.047 290.881 295.809 291.508 294.289 291.163L294.273 291.148Z" fill="#121212"/>
<path d="M294.868 304.7C294.868 304.7 299.069 293.516 307.376 290.081L309.476 291.963C309.476 291.963 300.511 301.265 298.191 305.907L294.868 304.684V304.7Z" fill="#121212"/>
<path d="M264.664 310.409C264.664 310.409 259.163 305.343 255.683 310.456C254.852 311.664 254.476 313.123 254.429 314.597C254.288 318.879 254.507 329.295 259.602 330.926C259.602 330.926 262.501 332.557 266.483 330.048C266.483 330.048 273.709 335.506 277.69 329.75C277.69 329.75 288.16 335.945 292.298 325.467V308.778C292.298 308.778 290.966 303.617 285.214 307.303C285.214 307.303 280.934 300.951 275.041 307.162C275.041 307.162 267.737 302.88 264.68 310.409H264.664Z" fill="#6B36DC" stroke="#121212" stroke-width="2" stroke-linecap="round" stroke-linejoin="round"/>
<path d="M291.106 316.307C259.836 309.813 261.607 330.33 261.607 330.33L266.482 330.032L273.363 332.761L277.705 329.734L285.855 331.412L292.313 325.452L291.138 316.291L291.106 316.307Z" fill="white"/>
<path d="M276.34 172.815C282.72 148.299 286.529 149.851 286.529 149.851C295.682 149.851 287.406 172.815 287.406 172.815" stroke="#121212" stroke-width="2" stroke-linecap="round" stroke-linejoin="round"/>
<path d="M280.668 205.378C280.668 205.378 280.119 200.39 273.881 198.351" stroke="#121212" stroke-width="2" stroke-linecap="round" stroke-linejoin="round"/>
<path d="M249.506 197.473C249.506 197.473 254.491 194.571 259.475 195.904" stroke="#121212" stroke-width="2" stroke-linecap="round" stroke-linejoin="round"/>
<path d="M379.274 181.379C386.908 157.223 390.623 158.964 390.623 158.964C399.761 159.435 390.341 181.944 390.341 181.944" fill="white"/>
<path d="M379.274 181.379C386.908 157.223 390.623 158.964 390.623 158.964C399.761 159.435 390.341 181.944 390.341 181.944" stroke="#121212" stroke-width="2" stroke-linecap="round" stroke-linejoin="round"/>
<path d="M381.94 214.116C381.94 214.116 381.657 209.112 375.529 206.759L381.94 214.116Z" fill="white"/>
<path d="M381.94 214.116C381.94 214.116 381.657 209.112 375.529 206.759" stroke="#121212" stroke-width="2" stroke-linecap="round" stroke-linejoin="round"/>
<path d="M264.664 310.409C264.664 310.409 259.163 305.343 255.683 310.456C254.852 311.664 254.476 313.123 254.429 314.597C254.288 318.879 254.507 329.295 259.602 330.926C259.602 330.926 262.501 332.557 266.483 330.048C266.483 330.048 273.709 335.506 277.69 329.75C277.69 329.75 288.16 335.945 292.298 325.467V308.778C292.298 308.778 290.966 303.617 285.214 307.303C285.214 307.303 280.934 300.951 275.041 307.162C275.041 307.162 267.737 302.88 264.68 310.409H264.664Z" stroke="#121212" stroke-width="2" stroke-linecap="round" stroke-linejoin="round"/>
<path d="M266.999 192.516C266.999 192.516 259.46 190.727 257.422 183.857C257.422 183.857 252.187 174.116 269.005 179.167C270.886 179.732 268.645 182.414 270.745 183.308L266.999 192.516Z" fill="#BFBFBF"/>
<path d="M368.271 200.264C368.271 200.264 361.029 197.504 359.901 190.429C359.901 190.429 355.982 180.093 372.001 187.292C373.788 188.092 371.218 190.476 373.177 191.622L368.271 200.264Z" fill="#BFBFBF"/>
<path d="M261.591 330.346C261.591 330.346 259.819 309.829 291.09 316.323" stroke="#121212" stroke-width="2" stroke-linecap="round" stroke-linejoin="round"/>
<path d="M266.606 191.01C269.553 175.779 280.619 178.289 280.619 178.289C282.829 173.866 289.773 173.269 289.773 173.269C295.385 173.567 296.701 175.811 296.638 177.991C296.576 180.171 295.024 182.179 292.971 183.12C280.995 188.579 280.4 201.017 280.4 201.017C282.39 211.652 274.428 212.311 274.428 212.311C259.161 204.123 244.505 210.319 244.505 210.319C244.505 210.319 237.546 201.613 249.506 197.472C249.506 197.472 240.509 190.241 249.506 176.516C249.506 176.516 243.016 171.732 252.64 156.815C253.659 155.231 255.148 153.945 256.951 153.396C259.584 152.564 262.625 152.878 258.832 163.795" stroke="#121212" stroke-width="2" stroke-linecap="round" stroke-linejoin="round"/>
<path d="M268.66 163.56C268.66 163.56 259.537 156.141 256.324 170.164C256.324 170.164 253.973 177.536 261.387 181.081" stroke="#121212" stroke-width="2" stroke-linecap="round" stroke-linejoin="round"/>
<path d="M278.285 163.561C278.285 163.561 272.846 157.553 268.566 163.561C264.287 169.568 262.892 177.552 267.673 179.168" stroke="#121212" stroke-width="2" stroke-linecap="round" stroke-linejoin="round"/>
<path d="M372.081 171.749C372.081 171.749 363.335 163.875 359.416 177.71C359.416 177.71 356.704 184.957 363.915 188.878" stroke="#121212" stroke-width="2" stroke-linecap="round" stroke-linejoin="round"/>
<path d="M381.687 172.235C381.687 172.235 376.561 165.945 371.984 171.733C367.408 177.521 365.605 185.411 370.307 187.277" stroke="#121212" stroke-width="2" stroke-linecap="round" stroke-linejoin="round"/>
<path d="M368.632 199.042C372.363 183.984 383.272 187.058 383.272 187.058C385.702 182.744 392.661 182.509 392.661 182.509C398.241 183.089 399.448 185.411 399.276 187.576C399.103 189.74 397.457 191.685 395.357 192.501C383.131 197.332 381.893 209.739 381.893 209.739C383.335 220.453 375.357 220.719 375.357 220.719C360.529 211.763 345.575 217.206 345.575 217.206C345.575 217.206 339.07 208.155 351.218 204.642C351.218 204.642 342.597 196.956 352.284 183.701C352.284 183.701 346.046 178.588 356.406 164.173C357.503 162.651 359.071 161.443 360.889 160.973C363.569 160.283 366.328 161.381 361.986 172.078" stroke="#121212" stroke-width="2" stroke-linecap="round" stroke-linejoin="round"/>
<path d="M333.928 421.385C322.109 419.346 326.577 429.652 326.577 429.652C326.577 429.652 330.276 435 337.611 430.044L344.273 424.146C348.333 418.013 340.95 411.676 340.95 411.676C340.95 411.676 331.655 402.814 333.567 393.23C333.567 393.23 359.383 371.976 362.628 331.82C362.628 331.82 367.706 305.657 355.308 284.983C355.308 284.983 361.656 239.589 375.104 221.142" stroke="#121212" stroke-width="2" stroke-linecap="round" stroke-linejoin="round"/>
<path d="M244.333 388.806C244.333 388.806 192.561 369.748 204.944 310.409C204.944 310.409 213.8 250.176 280.62 245.298C280.62 245.298 308.755 242.851 326.279 260.278" stroke="#121212" stroke-width="2" stroke-linecap="round" stroke-linejoin="round"/>
<path d="M107.838 89.57C107.838 94.5341 103.817 98.5575 98.8578 98.5575C93.8983 98.5575 89.8772 94.5341 89.8772 89.57C89.8772 84.606 93.8983 80.5826 98.8578 80.5826C103.817 80.5826 107.838 84.606 107.838 89.57Z" fill="white" stroke="black" stroke-width="1.2"/>
<path d="M408.155 292.024C408.155 294.817 405.891 297.082 403.098 297.082C400.304 297.082 398.04 294.817 398.04 292.024C398.04 289.231 400.304 286.966 403.098 286.966C405.891 286.966 408.155 289.231 408.155 292.024Z" fill="white" stroke="black" stroke-width="0.86091"/>
<path d="M108.346 152.761L176.976 271.632" stroke="black" stroke-width="1.2" stroke-dasharray="1.66 1.66"/>
<path d="M134.029 159.139L137.718 157.009C141.304 154.939 144.597 155.844 146.39 158.948C148.182 162.053 147.311 165.344 143.726 167.414L140.037 169.544L134.029 159.139ZM143.052 166.158C145.689 164.635 146.475 162.276 145.013 159.743C143.55 157.21 141.099 156.685 138.462 158.208L136.098 159.573L140.688 167.523L143.052 166.158ZM157.8 159.289L156.462 160.061L155.809 158.931C155.812 159.657 155.411 160.911 154.047 161.698C152.293 162.711 150.331 162.163 149.176 160.163L146.664 155.811L148.002 155.038L150.379 159.156C151.249 160.663 152.449 161.062 153.657 160.364C154.956 159.614 155.187 157.853 154.392 156.476L152.172 152.631L153.51 151.858L157.8 159.289ZM153.959 147.633L157.648 145.503C161.233 143.433 164.527 144.337 166.319 147.442C168.112 150.547 167.241 153.838 163.656 155.908L159.966 158.038L153.959 147.633ZM162.982 154.651C165.619 153.129 166.405 150.77 164.942 148.237C163.48 145.704 161.029 145.179 158.392 146.701L156.028 148.066L160.618 156.016L162.982 154.651ZM170.074 142.053C172.269 140.785 174.827 141.525 176.117 143.76C177.407 145.994 176.769 148.579 174.574 149.847C172.365 151.122 169.808 150.382 168.518 148.147C167.228 145.913 167.865 143.328 170.074 142.053ZM170.756 143.235C169.275 144.09 168.937 145.844 169.83 147.39C170.722 148.936 172.41 149.52 173.891 148.665C175.359 147.817 175.697 146.063 174.805 144.517C173.912 142.971 172.224 142.387 170.756 143.235ZM178.992 136.904C181.187 135.636 183.745 136.377 185.035 138.611C186.325 140.845 185.687 143.431 183.492 144.698C181.284 145.973 178.726 145.233 177.436 142.998C176.146 140.764 176.784 138.179 178.992 136.904ZM179.674 138.086C178.193 138.941 177.855 140.695 178.748 142.241C179.64 143.787 181.328 144.371 182.809 143.516C184.277 142.668 184.616 140.914 183.723 139.368C182.831 137.823 181.142 137.238 179.674 138.086ZM184.599 133.909L185.937 133.137L186.589 134.267C186.586 133.541 186.988 132.287 188.352 131.5C190.105 130.487 192.067 131.035 193.222 133.035L195.735 137.387L194.397 138.16L192.019 134.042C191.149 132.535 189.949 132.136 188.741 132.834C187.442 133.584 187.212 135.345 188.007 136.722L190.227 140.567L188.889 141.34L184.599 133.909ZM203.194 137.532C201.064 138.762 199.221 138.18 198.151 136.927L199.515 136.14C200.129 136.842 201.189 137.148 202.527 136.376C203.878 135.596 204.288 134.146 203.448 132.691L202.855 131.665C202.846 132.519 202.312 133.694 200.961 134.474C198.856 135.689 196.332 134.947 195.072 132.764C193.805 130.569 194.416 127.998 196.521 126.783C197.872 126.003 199.156 126.128 199.9 126.547L199.263 125.443L200.601 124.67L204.793 131.932C205.978 133.984 205.324 136.302 203.194 137.532ZM200.41 133.25C201.917 132.38 202.289 130.624 201.411 129.104C200.534 127.584 198.827 127.028 197.32 127.898C195.826 128.761 195.507 130.487 196.384 132.007C197.262 133.526 198.916 134.113 200.41 133.25ZM213.605 114.824L209.876 116.977L215.179 126.161L213.815 126.949L208.512 117.764L204.771 119.924L204.066 118.703L212.9 113.603L213.605 114.824ZM214.844 111.875C215.363 111.575 215.958 111.734 216.25 112.24C216.543 112.747 216.383 113.341 215.864 113.641C215.357 113.934 214.763 113.775 214.47 113.268C214.178 112.761 214.337 112.167 214.844 111.875ZM221.797 122.358L220.459 123.13L216.161 115.687L217.499 114.914L221.797 122.358ZM229.358 114.615C229.885 116.458 229.151 118.337 227.424 119.334C225.215 120.609 222.644 119.876 221.354 117.642C220.064 115.408 220.702 112.822 222.898 111.555C224.651 110.542 226.681 110.878 227.937 112.213L226.573 113.001C225.764 112.29 224.632 112.129 223.58 112.737C222.099 113.592 221.774 115.339 222.666 116.884C223.559 118.43 225.234 119.022 226.715 118.167C227.767 117.559 228.213 116.471 227.994 115.402L229.358 114.615ZM237.713 113.151L233.215 111.21L232.64 113.603L233.712 115.461L232.374 116.233L226.179 105.503L227.517 104.731L231.717 112.005L233.124 105.893L234.696 104.985L233.542 109.826L239.298 112.236L237.713 113.151ZM243.418 110.099C241.249 111.352 238.73 110.589 237.44 108.355C236.15 106.121 236.749 103.558 238.918 102.305C241.088 101.053 243.594 101.823 244.884 104.057C244.981 104.226 245.094 104.421 245.173 104.618L239.093 108.128C239.971 109.319 241.441 109.734 242.766 108.969C243.779 108.384 244.302 107.459 244.222 106.691L245.586 105.904C245.926 107.422 245.12 109.117 243.418 110.099ZM243.257 104.269C242.351 103.06 240.909 102.663 239.571 103.435C238.233 104.208 237.864 105.668 238.463 107.037L243.257 104.269ZM248.094 97.2501L248.777 98.4322L247.127 99.3847L250.734 105.633L249.396 106.406L245.789 100.157L244.139 101.11L243.457 99.9276L245.106 98.9751L243.801 96.7147L245.139 95.9422L246.444 98.2026L248.094 97.2501Z" fill="black"/>
<path d="M145.275 181.198L243.357 124.57" stroke="black" stroke-width="1.2"/>
<path d="M152.599 193.884L224.522 152.359" stroke="black" stroke-width="1.2"/>
<path d="M425.594 125.163L429.064 142.532C429.58 145.113 431.5 147.187 434.033 147.9L448.088 151.853L434.033 155.806C431.5 156.518 429.58 158.592 429.064 161.173L425.594 178.542L422.124 161.173C421.608 158.592 419.688 156.518 417.155 155.806L403.1 151.853L417.155 147.9C419.688 147.187 421.608 145.113 422.124 142.532L425.594 125.163Z" fill="#121212"/>
<path d="M167.498 309.227L169.147 317.673C169.65 320.252 171.556 322.332 174.081 323.059L180.382 324.873L174.081 326.687C171.556 327.413 169.65 329.493 169.147 332.072L167.498 340.518L165.849 332.072C165.346 329.493 163.44 327.413 160.915 326.687L154.614 324.873L160.915 323.059C163.44 322.332 165.346 320.252 165.849 317.673L167.498 309.227Z" fill="#121212"/>
</g>
<defs>
<linearGradient id="paint0_linear_4_3893" x1="314.437" y1="296.876" x2="335.034" y2="368.044" gradientUnits="userSpaceOnUse">
<stop stop-color="#11CFAE" stop-opacity="0.5"/>
<stop offset="1" stop-color="#11CFAE" stop-opacity="0"/>
</linearGradient>
<clipPath id="clip0_4_3893">
<rect width="462" height="369.968" fill="white"/>
</clipPath>
</defs>
</svg>
