<svg width="1229" height="956" viewBox="0 0 1229 956" fill="none" xmlns="http://www.w3.org/2000/svg">
<mask id="mask0_4_2925" style="mask-type:alpha" maskUnits="userSpaceOnUse" x="0" y="0" width="1229" height="956">
<rect x="0.516113" y="0.377441" width="1228.48" height="955.191" fill="#121212"/>
</mask>
<g mask="url(#mask0_4_2925)">
<path d="M1087.17 425L787.166 302L614.666 374L611.5 569L158 772.5V795L195.908 809V1007.43L1487.74 1048.81L1480.35 790.151L1249.77 692.599L1087.17 425Z" fill="#F7F7F7"/>
<path d="M530.525 121.065L533.44 132.547C539.088 154.797 553.843 173.68 574.128 184.622C553.843 195.563 539.088 214.447 533.44 236.696L530.525 248.179L527.61 236.696C521.962 214.447 507.207 195.563 486.922 184.622C507.207 173.68 521.962 154.797 527.61 132.547L530.525 121.065Z" fill="#121212"/>
<path d="M212.524 818.304L863.382 1075.65L958.975 1171.28H212.524V818.304Z" fill="#121212"/>
<path d="M212.524 817.834L213.507 833.452L371.627 1062.2V1022.72L232.956 826.123L212.524 817.834Z" fill="#E3E4E8"/>
<path d="M214.466 974.223L362.32 878.126L372.575 882.483V897.352L213.505 1000.03L214.466 974.223Z" fill="#E3E4E8"/>
<path d="M389.655 889.689V905.575L504.33 1070.73L529.465 1069.39L407.731 896.816L389.655 889.689Z" fill="#E3E4E8"/>
<path d="M390.337 1045.8L389.655 1068L547.787 968.648L547.295 953.265L539.643 949.422L390.337 1045.8Z" fill="#E3E4E8"/>
<path d="M1086.97 812.103L1171.67 846.802L1253.72 812.103V350.053L1170.41 317.232L1087.52 354.433L1086.97 812.103Z" fill="black"/>
<path d="M610.5 569.5L691.5 601.5L772.331 566.258L772.711 307.349L778.721 304.612L779.548 108.822L696.22 76L613.351 113.201L610.5 569.5Z" fill="black"/>
<path d="M1137.37 615.176C1151.5 617 1165 594 1157 555C1151.16 524.591 1131.8 502.447 1116 505C1097.8 505.947 1092.16 535.591 1098 566C1103.85 596.41 1122 617 1137.37 615.176Z" fill="#F7F7F7"/>
<path d="M1138.03 752.965C1154.38 749.823 1162.86 722.486 1156.99 691.907C1148.5 662 1131.5 639.5 1117 642C1098.75 642 1091.91 672.706 1097.79 703.285C1105 735.5 1123 754.5 1138.03 752.965Z" fill="#F7F7F7"/>
<path d="M661.058 374.544C676.635 371.55 684.568 344.696 678.777 314.565C672.985 284.433 655.662 262.433 640.085 265.428C624.507 268.422 616.574 295.275 622.366 325.407C628.157 355.539 645.48 377.538 661.058 374.544Z" fill="#F7F7F7"/>
<path d="M661.729 511.966C678.028 508.834 686.534 481.809 680.729 451.606C673 421.5 657.005 399.457 640.706 402.589C624.408 405.722 615.901 432.747 621.707 462.95C627.512 493.154 647.5 514.701 661.729 511.966Z" fill="#F7F7F7"/>
<path d="M575.56 652.732V730.552L942.206 877.322L942.708 842.389L893.956 823.465V781.941L575.56 652.732Z" fill="#121212"/>
<path d="M214.468 834.771L232.956 862.911V1068L212.524 1073.18L214.468 834.771Z" fill="#E3E4E8"/>
<path d="M390.955 909L409.444 937.141V1142.21L389 1147.4L390.955 909Z" fill="#121212"/>
<path d="M232.954 826.124L255.196 835.575L371.625 998.532V1022.72L245.767 844.288" fill="#E3E4E8"/>
<path d="M404.557 893.767L426.799 903.218L543.228 1066.18V1090.35L417.371 911.92" fill="#E3E4E8"/>
<path d="M631.941 311.825L648.396 313.623C648.396 313.623 649.536 327.13 653.591 332.581L642.185 344.981C642.185 344.981 630.79 328.515 631.941 311.813V311.825Z" fill="#6C00FF"/>
<path d="M652.967 299.168L642.734 280.4C642.734 280.4 655 273.5 667.825 293.18L665.423 301.581C665.423 301.581 659.5 293.18 652.967 299.168Z" fill="#6C00FF"/>
<path d="M661.882 341.508L659.212 360.276C659.212 360.276 674.182 364.108 677.299 344.982L672.718 335.766C672.718 335.766 668.015 346.714 661.893 341.508H661.882Z" fill="#6C00FF"/>
<path d="M672.717 335.766C672.717 335.766 680.783 323.656 665.422 301.581L667.824 293.18C667.824 293.18 683 317 677.297 344.993L672.717 335.777V335.766Z" fill="#6C00FF"/>
<path d="M1137.42 580.308L1137.42 600.5C1137.42 600.5 1150.88 603.125 1154 584L1148.25 574.566C1148.25 574.566 1143.55 585.514 1137.43 580.308H1137.42Z" fill="#6C00FF"/>
<path d="M1148.24 574.566C1148.24 574.566 1156.31 562.456 1140.94 540.382L1143.35 531.981C1143.35 531.981 1158.95 558.284 1154 584L1148.24 574.577V574.566Z" fill="#6C00FF"/>
<path d="M1137.42 717.615L1134.75 736.383C1134.75 736.383 1148.5 744.5 1154 720.5L1148.25 711.873C1148.25 711.873 1143.55 722.821 1137.43 717.615H1137.42Z" fill="#6C00FF"/>
<path d="M1148.24 711.862C1148.24 711.862 1156.31 699.752 1140.94 677.677L1143.35 669.276C1143.35 669.276 1158.5 692.5 1154 721.5L1148.24 711.873V711.862Z" fill="#6C00FF"/>
<path d="M631.942 311.825C631.942 311.825 630.624 286.12 642.722 280.4L673.768 320.449L667.813 360.588C667.813 360.588 642.555 370.062 631.931 311.814L631.942 311.825Z" fill="#6C00FF"/>
<path d="M631.942 448.451C631.942 448.451 631.401 423.22 643.5 417.5L673.768 457.076L667.813 497.215C667.813 497.215 639 506.5 631.931 448.44L631.942 448.451Z" fill="#6C00FF"/>
<path d="M666.5 342C673.159 340.72 675.81 329.413 673.491 317.35C671.173 305.286 662.659 296.22 656 297.5C649.341 298.78 647.059 309.921 649.378 321.984C651.697 334.048 659.841 343.28 666.5 342Z" fill="black"/>
<path d="M1108.43 553.206C1108.43 553.206 1106.9 526.22 1119 520.5L1123.7 519.267L1129 520L1132.49 521.624L1138 526L1143.35 531.98L1150.25 561.841L1144.3 601.98C1144.3 601.98 1118.12 612.248 1107.5 554L1108.43 553.206Z" fill="#6C00FF"/>
<path d="M1142.22 582.007C1148.58 580.457 1151.33 569.322 1148.36 557.137C1145.39 544.952 1137.82 536.331 1131.47 537.881C1125.11 539.432 1122.36 550.566 1125.33 562.751C1128.3 574.936 1135.87 583.557 1142.22 582.007Z" fill="black"/>
<path d="M635.572 332.816L650.676 328.403C650.676 328.403 656.5 343.5 666.5 342.5L667.824 360.599C667.824 360.599 649.737 371.76 635.572 332.827V332.816Z" fill="#F7F7F7"/>
<path d="M1112.06 574.197L1127.16 569.784C1127.16 569.784 1131 582 1142.13 582.866L1146 603C1146 603 1126.22 613.14 1112.06 574.208V574.197Z" fill="#F7F7F7"/>
<path d="M1108.43 689.676C1108.43 689.676 1107.11 663.97 1119.21 658.251L1123 657.022H1127.27L1133.5 660L1139.6 665.121L1147.4 675.846L1143.5 736C1143.5 736 1114.5 747.5 1108.41 689.676H1108.43Z" fill="#6C00FF"/>
<path d="M1112.06 710.667L1127.16 706.254C1127.16 706.254 1132 720 1142.13 719.336L1144.31 738.45C1144.31 738.45 1126.22 749.611 1112.06 710.678V710.667Z" fill="#F7F7F7"/>
<path d="M652.967 435.358L643.5 417.5C643.5 417.5 654 411.5 667 429.5L665.423 437.771C665.423 437.771 656.106 430.432 652.967 435.358Z" fill="#6C00FF"/>
<path d="M670.5 467C670.5 467 680 459.5 665.422 437.783L667 428.5C667 428.5 683 455 677.297 481.195L671.5 471.967L670.5 467Z" fill="#6C00FF"/>
<path d="M635.572 469.018L650.676 464.605C650.676 464.605 655 478 665.645 477.687L667.824 496.801C667.824 496.801 649.737 507.961 635.572 469.029V469.018Z" fill="#F7F7F7"/>
<path d="M664.5 477.5C671.159 476.22 675.81 464.428 673.491 452.365C671.173 440.301 663.895 431.56 657.236 432.84C650.578 434.12 646.181 444.937 648.5 457C650.819 469.063 657.841 478.78 664.5 477.5Z" fill="black"/>
<path d="M1142 719.5C1148.96 718.162 1152.08 706.713 1149.73 694.441C1147.37 682.17 1139.81 673.306 1132.85 674.644C1125.89 675.982 1122.16 687.015 1124.52 699.286C1126.88 711.558 1135.04 720.838 1142 719.5Z" fill="black"/>
<path d="M157.313 772.121V795.715L838.088 1069.39L879.489 1064.61L157.313 772.121Z" fill="#E3E4E8"/>
<path d="M212.521 1073.18L196.624 1065.62L195.474 811.053L212.521 817.835V1073.18Z" fill="#E3E4E8"/>
<path d="M388.672 1086.98L372.786 1079.42L371.624 882.104L388.672 888.885V1086.98Z" fill="#E3E4E8"/>
<path d="M575.56 652.463L893.956 781.94" stroke="#121212" stroke-width="1.10877" stroke-miterlimit="10"/>
<path d="M893.956 823.465L942.709 842.389" stroke="#121212" stroke-width="1.10877" stroke-linecap="round" stroke-linejoin="round"/>
<path d="M771.829 566.98L1086.68 695.105" stroke="#121212" stroke-width="1.47836" stroke-miterlimit="10"/>
<path d="M610.973 568.768L691.541 601.433" stroke="#121212" stroke-width="1.10877" stroke-linecap="round" stroke-linejoin="round"/>
<path d="M624.065 205.049L681.531 228.353" stroke="#F7F7F7" stroke-width="1.10877" stroke-miterlimit="10"/>
<path d="M694.4 77.0688L777.728 109.89" stroke="#121212" stroke-width="1.10877" stroke-miterlimit="10" stroke-linecap="round"/>
<path d="M611.518 114.259L694.399 77.0688" stroke="#121212" stroke-width="1.10877" stroke-miterlimit="10"/>
<path d="M693.73 147.437L777.739 109.734" stroke="#F7F7F7" stroke-width="1.10877" stroke-miterlimit="10"/>
<path d="M575.56 652.464L771.83 566.98" stroke="#121212" stroke-width="1.47836" stroke-linecap="round" stroke-linejoin="round"/>
<path d="M1087.52 424.02L786.664 301.581L771.829 308.172L1086.68 435.828" stroke="#121212" stroke-width="1.47836" stroke-linecap="round" stroke-linejoin="round"/>
<path d="M893.956 781.941L1086.69 695.105" stroke="#121212" stroke-width="1.47836" stroke-miterlimit="10"/>
<path d="M893.956 823.465L1086.69 736.63" stroke="#121212" stroke-width="1.47836" stroke-miterlimit="10"/>
<path d="M941.691 842.39L1088 776.422" stroke="#121212" stroke-width="1.47836" stroke-miterlimit="10"/>
<path d="M158.207 774.25L879.487 1064.61" stroke="#121212" stroke-width="1.10877" stroke-miterlimit="10"/>
<path d="M195.474 811.053V1078.3" stroke="#121212" stroke-width="1.47836" stroke-miterlimit="10"/>
<path d="M213.505 818.304V1075.65" stroke="#121212" stroke-width="1.10877" stroke-miterlimit="10"/>
<path d="M232.954 862.911V962.203" stroke="#121212" stroke-width="1.10877" stroke-miterlimit="10"/>
<path d="M410.288 934.9V1031.72" stroke="#121212" stroke-width="1.10877" stroke-miterlimit="10"/>
<path d="M371.624 882.104V1101.53" stroke="#121212" stroke-width="1.10877" stroke-miterlimit="10"/>
<path d="M389.655 889.119V1083.2" stroke="#121212" stroke-width="1.10877" stroke-miterlimit="10"/>
<path d="M564.342 1078.3L548.445 1070.73L547.295 949.847L564.342 956.639V1078.3Z" fill="#E3E4E8"/>
<path d="M547.295 953.266V1070.73" stroke="#121212" stroke-width="1.10877" stroke-miterlimit="10"/>
<path d="M893.956 781.94V823.464" stroke="#121212" stroke-width="1.10877" stroke-linecap="round" stroke-linejoin="round"/>
<path d="M613.745 114.733L693.718 147.594" stroke="#F7F7F7" stroke-width="1.10877" stroke-linecap="round" stroke-linejoin="round"/>
<path d="M611.518 568.768V114.259" stroke="#121212" stroke-width="1.10877" stroke-linejoin="round"/>
<path d="M624.244 205.317V134.334L681.531 157.559" stroke="#F7F7F7" stroke-width="1.10877" stroke-linecap="round" stroke-linejoin="round"/>
<path d="M628.914 206.434V141.74L680.303 162.575" stroke="#F7F7F7" stroke-width="1.10877" stroke-linecap="round" stroke-linejoin="round"/>
<path d="M1103.62 445.134V380.429L1155.01 401.263" stroke="#F7F7F7" stroke-width="1.10877" stroke-linecap="round" stroke-linejoin="round"/>
<path d="M681.531 157.559V228.352" stroke="#F7F7F7" stroke-width="1.10877" stroke-miterlimit="10"/>
<path d="M694.4 147.594V598.305" stroke="#F7F7F7" stroke-width="1.10877" stroke-miterlimit="10"/>
<path d="M777.726 109.89V305.334" stroke="#121212" stroke-width="1.10877" stroke-miterlimit="10"/>
<path d="M771.829 308.172V566.98" stroke="#121212" stroke-width="1.10877" stroke-miterlimit="10" stroke-linecap="round"/>
<path d="M575.56 652.732V730.552L942.206 877.322L1086.96 812.103" stroke="#121212" stroke-width="1.47836" stroke-linecap="round" stroke-linejoin="round"/>
<path d="M942.707 842.389V877.322" stroke="#121212" stroke-width="1.10877" stroke-miterlimit="10"/>
<path d="M665.008 360.385C676.839 357.544 682.076 337.106 676.705 314.735C671.334 292.363 657.389 276.53 645.558 279.37C633.728 282.211 628.491 302.649 633.862 325.02C639.233 347.392 653.177 363.225 665.008 360.385Z" stroke="#121212" stroke-width="1.10877" stroke-miterlimit="10"/>
<path d="M664.521 375.106C680.653 371.233 687.795 343.368 680.472 312.868C673.149 282.367 654.136 260.781 638.003 264.654C621.871 268.527 614.73 296.392 622.052 326.893C629.375 357.394 648.388 378.979 664.521 375.106Z" stroke="#121212" stroke-width="1.10877" stroke-miterlimit="10"/>
<path d="M666.631 342.142C673.134 340.581 676.014 329.35 673.063 317.057C670.112 304.765 662.447 296.065 655.944 297.627C649.441 299.188 646.561 310.419 649.512 322.711C652.464 335.004 660.128 343.704 666.631 342.142Z" stroke="#121212" stroke-width="1.10877" stroke-miterlimit="10"/>
<path d="M665.011 497.827C676.842 494.987 682.079 474.548 676.708 452.177C671.337 429.805 657.392 413.972 645.561 416.813C633.731 419.653 628.494 440.091 633.865 462.462C639.236 484.834 653.181 500.667 665.011 497.827Z" stroke="#121212" stroke-width="1.10877" stroke-miterlimit="10"/>
<path d="M664.509 512.386C680.641 508.513 687.783 480.647 680.46 450.147C673.138 419.646 654.124 398.06 637.992 401.933C621.859 405.806 614.718 433.671 622.04 464.172C629.363 494.673 648.377 516.259 664.509 512.386Z" stroke="#121212" stroke-width="1.10877" stroke-miterlimit="10"/>
<path d="M666.092 478.261C672.595 476.7 675.474 465.469 672.523 453.176C669.572 440.883 661.908 432.184 655.404 433.745C648.901 435.307 646.022 446.537 648.973 458.83C651.924 471.123 659.588 479.822 666.092 478.261Z" stroke="#121212" stroke-width="1.10877" stroke-miterlimit="10"/>
<path d="M1086.96 812.104L1171.66 846.802" stroke="#121212" stroke-width="1.10877" stroke-miterlimit="10"/>
<path d="M1100.24 374.497L1157.52 397.722" stroke="#F7F7F7" stroke-width="1.10877" stroke-miterlimit="10"/>
<path d="M1100.7 445.48L1157.52 468.516" stroke="#F7F7F7" stroke-width="1.10877" stroke-miterlimit="10"/>
<path d="M1169.16 316.774L1253.72 350.054" stroke="#121212" stroke-width="1.10877" stroke-miterlimit="10"/>
<path d="M1087.52 354.433L1170.4 317.232" stroke="#121212" stroke-width="1.10877" stroke-miterlimit="10"/>
<path d="M1169.71 387.757L1253.72 350.053" stroke="#F7F7F7" stroke-width="1.10877" stroke-linecap="round" stroke-linejoin="round"/>
<path d="M1087.52 354.433L1169.71 387.757" stroke="#F7F7F7" stroke-width="1.10877" stroke-linecap="round" stroke-linejoin="round"/>
<path d="M1087.52 812.103V354.433" stroke="black" stroke-width="1.10877" stroke-linecap="round" stroke-linejoin="round"/>
<path d="M1100.24 374.497V446.609" stroke="#F7F7F7" stroke-width="1.10877" stroke-miterlimit="10"/>
<path d="M1157.52 397.722V468.515" stroke="#F7F7F7" stroke-width="1.10877" stroke-miterlimit="10"/>
<path d="M1170.4 388.696V850.444" stroke="#F7F7F7" stroke-width="1.10877" stroke-miterlimit="10"/>
<path d="M1141.18 600.675C1153.01 597.835 1158.25 577.396 1152.88 555.025C1147.51 532.653 1133.56 516.82 1121.73 519.66C1109.9 522.501 1104.66 542.939 1110.03 565.31C1115.4 587.682 1129.35 603.515 1141.18 600.675Z" stroke="#121212" stroke-width="1.10877" stroke-miterlimit="10"/>
<path d="M1140.5 615.296C1156.64 611.423 1163.78 583.558 1156.46 553.057C1149.13 522.556 1130.12 500.971 1113.99 504.844C1097.86 508.717 1090.71 536.582 1098.04 567.082C1105.36 597.583 1124.37 619.169 1140.5 615.296Z" stroke="#121212" stroke-width="1.10877" stroke-miterlimit="10"/>
<path d="M1142.44 582.329C1148.94 580.768 1151.82 569.537 1148.87 557.244C1145.92 544.952 1138.26 536.252 1131.75 537.813C1125.25 539.375 1122.37 550.606 1125.32 562.898C1128.27 575.191 1135.94 583.89 1142.44 582.329Z" stroke="#121212" stroke-width="1.10877" stroke-miterlimit="10"/>
<path d="M1141.17 738.161C1153 735.321 1158.24 714.883 1152.87 692.511C1147.49 670.14 1133.55 654.306 1121.72 657.147C1109.89 659.987 1104.65 680.425 1110.02 702.797C1115.39 725.168 1129.34 741.001 1141.17 738.161Z" stroke="#121212" stroke-width="1.10877" stroke-miterlimit="10"/>
<path d="M1140.49 752.576C1156.62 748.703 1163.76 720.838 1156.44 690.337C1149.12 659.837 1130.11 638.251 1113.97 642.124C1097.84 645.997 1090.7 673.862 1098.02 704.363C1105.34 734.863 1124.36 756.449 1140.49 752.576Z" stroke="#121212" stroke-width="1.10877" stroke-miterlimit="10"/>
<path d="M1142.44 719.608C1148.94 718.047 1151.82 706.816 1148.87 694.524C1145.92 682.231 1138.25 673.532 1131.75 675.093C1125.25 676.654 1122.37 687.885 1125.32 700.178C1128.27 712.47 1135.93 721.17 1142.44 719.608Z" stroke="#121212" stroke-width="1.10877" stroke-miterlimit="10"/>
<mask id="mask1_4_2925" style="mask-type:luminance" maskUnits="userSpaceOnUse" x="797" y="391" width="278" height="181">
<path d="M797.458 391.466L1074.61 497.851V571.728L797.458 465.342V391.466Z" fill="white"/>
</mask>
<g mask="url(#mask1_4_2925)">
<path d="M857.941 428.733V471.33H857.907C857.728 472.693 856.5 473.341 855.003 472.771C853.506 472.201 852.288 470.604 852.098 469.084H852.064V426.22L838.011 420.824V463.912C838.011 473.296 845.619 483.831 855.003 487.428C864.387 491.025 871.994 486.344 871.994 476.96V420.075C864.23 417.093 857.941 420.98 857.941 428.733Z" fill="#040001"/>
<path d="M1020.03 536.728V494.131H1019.98C1019.8 492.6 1018.57 491.003 1017.09 490.433C1015.6 489.863 1014.37 490.511 1014.18 491.885H1014.15V548.525L1000.1 543.129V486.244C1000.1 476.86 1007.7 472.168 1017.09 475.776C1026.47 479.373 1034.08 489.908 1034.08 499.292V556.177C1026.32 553.194 1020.03 544.48 1020.03 536.728Z" fill="#040001"/>
<path d="M1057.84 511.469C1056.4 510.732 1055.27 509.078 1055.27 507.581C1055.27 506.084 1056.39 505.291 1057.84 505.671V505.638L1060.55 506.677C1068.31 509.659 1074.6 505.772 1074.6 498.019L1057.61 491.495C1048.22 487.897 1040.62 492.578 1040.62 501.962C1040.62 511.346 1048.22 521.881 1057.61 525.478L1060.55 526.606V532.114L1060.52 552.234L1040.62 544.592V558.646L1047.28 561.204L1060.51 566.321L1060.8 566.432L1060.89 566.466L1074.61 571.728V517.937L1057.84 511.503V511.469Z" fill="#040001"/>
<path d="M831.397 421.573C831.397 412.189 823.789 401.654 814.405 398.057L811.556 396.873L797.458 391.466V465.354L814.494 471.889C823.878 475.486 831.486 470.805 831.486 461.421L831.397 421.584V421.573ZM817.432 458.93L811.556 456.673V411.139L817.432 413.395V437.157C817.432 437.157 817.432 437.246 817.443 437.28C817.443 437.425 817.443 437.57 817.432 437.727V458.93Z" fill="#040001"/>
<path d="M912.447 452.685C912.447 443.301 904.839 432.766 895.455 429.169L892.606 427.985L878.508 422.578V496.466L895.544 503.001C904.928 506.598 912.536 501.918 912.536 492.534L912.447 452.696V452.685ZM898.483 490.042L892.606 487.786V442.251L898.483 444.508V468.269C898.483 468.269 898.483 468.359 898.494 468.392C898.494 468.537 898.494 468.683 898.483 468.839V490.042Z" fill="#040001"/>
<path d="M953.043 497.281V468.347C953.043 458.963 945.435 448.429 936.051 444.832C926.667 441.234 919.059 445.915 919.059 455.299V495.036C919.059 504.42 926.667 514.954 936.051 518.552C945.435 522.149 953.043 517.468 953.043 508.084V497.293V497.281ZM938.989 502.443H938.955C938.777 503.805 937.548 504.453 936.051 503.884C934.554 503.314 933.336 501.716 933.146 500.197H933.113V460.918H933.146C933.325 459.555 934.554 458.907 936.051 459.477C937.548 460.047 938.766 461.644 938.955 463.164H938.989V502.443Z" fill="#040001"/>
<path d="M993.56 512.832V483.898C993.56 474.514 985.952 463.979 976.568 460.382C967.184 456.785 959.576 461.466 959.576 470.85V510.587C959.576 519.971 967.184 530.505 976.568 534.102C985.952 537.7 993.56 533.019 993.56 523.635V512.843V512.832ZM979.506 517.993H979.473C979.294 519.356 978.065 520.004 976.568 519.434C975.071 518.865 973.854 517.267 973.664 515.748H973.63V476.469H973.664C973.842 475.106 975.071 474.458 976.568 475.028C978.065 475.598 979.283 477.195 979.473 478.715H979.506V517.993Z" fill="#040001"/>
</g>
<path d="M213.505 833.452L371.626 1060.47" stroke="#121212" stroke-width="1.10877" stroke-miterlimit="10"/>
<path d="M371.625 1022.72L232.954 826.124" stroke="#121212" stroke-width="1.10877" stroke-miterlimit="10"/>
<path d="M213.505 997.605L292.811 947.322" stroke="#121212" stroke-width="1.10877" stroke-miterlimit="10"/>
<path d="M298.777 919.427L362.32 878.126" stroke="#121212" stroke-width="1.10877" stroke-miterlimit="10"/>
<path d="M280.922 931.023L214.464 974.223" stroke="#121212" stroke-width="1.10877" stroke-linecap="round" stroke-linejoin="round"/>
<path d="M389.655 906.111L513.01 1083.2" stroke="#121212" stroke-width="1.10877" stroke-miterlimit="10"/>
<path d="M407.306 896.213L533.867 1075.65" stroke="#121212" stroke-width="1.10877" stroke-linecap="round" stroke-linejoin="round"/>
<path d="M429 905L484.768 984.071" stroke="#121212" stroke-width="1.10877" stroke-linecap="round" stroke-linejoin="round"/>
<path d="M255.197 835.575L309.445 912.49" stroke="#121212" stroke-width="1.10877" stroke-linecap="round" stroke-linejoin="round"/>
<path d="M371.623 998.532L324.424 931.615" stroke="#121212" stroke-width="1.10877" stroke-linecap="round" stroke-linejoin="round"/>
<path d="M474.927 990.723L538.47 949.422" stroke="#121212" stroke-width="1.10877" stroke-miterlimit="10"/>
<path d="M371.626 901.754L330.549 927.348L310.529 936.095L341.5 917.5L371.626 897.352" stroke="#121212" stroke-width="1.10877" stroke-linecap="round" stroke-linejoin="round"/>
<path d="M294.621 950.797L233.525 988.858L213.505 997.605" stroke="#121212" stroke-width="1.10877" stroke-linecap="round" stroke-linejoin="round"/>
<path d="M610.973 568.768L157.313 772.121V795.715L838.088 1069.39" stroke="#121212" stroke-width="1.47836" stroke-miterlimit="10"/>
<path d="M526.506 693.697L524.808 691.72V687.05L522.473 684.392L521.3 679.163L515.502 674.047L517.502 670.93L521.043 670.595L520.429 658.496L522.674 657.211L526.182 664.618L529.735 664.305L537.141 665.177L538.527 661.043L540.962 661.401L544.492 669.277L543.051 674.583L545.486 680.169L542.146 686.123L545.486 689.731L544.403 693.697L535.041 692.569L526.506 693.697Z" fill="#F7F7F7"/>
<path d="M460.259 687.263L458.561 685.297V680.616L456.226 677.957L454.662 674.46L447.971 670.93L447.624 667.411L452.372 665.758L449.613 654.665L451.244 652.263L455.634 656.72L457.444 660.06L461.6 658.519L464.694 659.01L468.168 657.603L467.845 654.084L471.743 654.106L475.586 661.926L474.704 666.786L477.653 673.589L475.899 679.689L479.239 683.297L478.145 687.263L468.794 686.134L460.259 687.263Z" fill="#F7F7F7"/>
<path d="M520.651 701.685L505.737 694.859L489.271 693.697L476.993 698.278L475.306 684.961L463.174 688L460.594 710.321L454.852 723.179L450.271 741.656L453.198 756.76L459.767 768.188L470.022 776.321L472.659 800.697L478.356 803.289L487.662 798.34L496.89 789.805L494.51 785.124L489.382 782.767L485.986 785.124L486.21 780.477L501.213 779.204H504.788L507.804 799.424L509.826 806.048L515.334 807.355L525.455 801.144L533.588 793.268L530.583 789.191L524.561 786.845L522.07 789.191L521.59 773.763C521.59 773.763 542.961 762.569 539.352 745.343L543.072 718.9L543.944 705.617L542.123 693.686H528.952L527.533 708.097L520.629 701.663L520.651 701.685Z" fill="#13E8C2"/>
<path d="M486.221 780.477C471.273 779.606 462.548 772.59 457.465 765.195C452.025 757.252 450.059 747.466 451.366 737.936C458.169 688.447 498.386 693.876 498.386 693.876C498.386 693.876 515.255 693.631 527.544 708.12" stroke="black" stroke-width="1.47836" stroke-linecap="round" stroke-linejoin="round"/>
<path d="M507.815 778.6C501.045 780.12 495.985 780.209 495.985 780.209C492.466 780.578 489.215 780.645 486.221 780.477" stroke="black" stroke-width="1.47836" stroke-linecap="round" stroke-linejoin="round"/>
<path d="M542.146 693.698C548.581 713.896 535.879 747.611 535.879 747.611" stroke="black" stroke-width="1.47836" stroke-linecap="round" stroke-linejoin="round"/>
<path d="M522.65 730.764C522.65 730.764 529.33 711.282 528.961 693.698" stroke="black" stroke-width="1.47836" stroke-linecap="round" stroke-linejoin="round"/>
<path d="M521.601 793.291C522.673 785.984 521.601 773.785 521.601 773.785C521.601 773.785 543.273 764.234 539.363 736.562" stroke="black" stroke-width="1.47836" stroke-linecap="round" stroke-linejoin="round"/>
<path d="M522.081 789.213C522.081 789.213 524.013 785.035 527.074 787.705" stroke="black" stroke-width="1.47836" stroke-linecap="round" stroke-linejoin="round"/>
<path d="M525.477 790.71C525.477 790.71 528.036 786.197 530.605 789.202" stroke="black" stroke-width="1.47836" stroke-linecap="round" stroke-linejoin="round"/>
<path d="M528.885 792.095C528.885 792.095 531.287 789.101 532.136 790.442C534.661 794.397 532.628 796.061 521.378 804.127C515.29 808.495 511.782 807.702 509.838 806.06C508.375 804.82 507.693 802.887 507.749 800.977C508.129 787.761 504.8 779.215 504.8 779.215" stroke="black" stroke-width="1.47836" stroke-linecap="round" stroke-linejoin="round"/>
<path d="M486.165 780.477C486.165 780.477 486.601 781.896 485.529 789.213" stroke="black" stroke-width="1.47836" stroke-linecap="round" stroke-linejoin="round"/>
<path d="M485.998 785.135C485.998 785.135 487.93 780.957 490.991 783.627" stroke="black" stroke-width="1.47836" stroke-linecap="round" stroke-linejoin="round"/>
<path d="M489.393 786.633C489.393 786.633 491.951 782.119 494.52 785.124" stroke="black" stroke-width="1.47836" stroke-linecap="round" stroke-linejoin="round"/>
<path d="M492.8 788.018C492.8 788.018 495.202 785.024 496.051 786.364C498.576 790.319 496.543 791.984 485.293 800.049C479.205 804.417 475.697 803.624 473.753 801.982C472.289 800.742 471.608 798.809 471.675 796.888C472.144 783.762 470.022 776.333 470.022 776.333" stroke="black" stroke-width="1.47836" stroke-linecap="round" stroke-linejoin="round"/>
<path d="M461.991 670.305C461.991 670.305 465.956 666.015 470.849 667.098C470.849 667.098 478.692 667.109 469.207 676.315C468.146 677.343 467.409 674.929 466.057 675.991L461.991 670.305Z" fill="#BFBFBF"/>
<path d="M452.371 665.758C452.371 665.758 446.841 652.553 452.203 652.285C452.203 652.285 454.381 651.268 458.861 665.434" stroke="#121212" stroke-width="1.47836" stroke-linecap="round" stroke-linejoin="round"/>
<path d="M461.063 680.303C458.863 681.085 458.539 683.319 458.539 683.319" stroke="#121212" stroke-width="1.47836" stroke-linecap="round" stroke-linejoin="round"/>
<path d="M467.878 669.824C472.112 667.523 470.514 663.278 470.514 663.278C468.213 655.167 463.085 659.781 463.085 659.781" stroke="#121212" stroke-width="1.47836" stroke-linecap="round" stroke-linejoin="round"/>
<path d="M464.124 668.886C466.883 667.791 465.822 663.166 463.141 659.77C460.46 656.374 457.443 660.06 457.443 660.06" stroke="#121212" stroke-width="1.47836" stroke-linecap="round" stroke-linejoin="round"/>
<path d="M458.862 681.096C458.862 681.096 456.594 674.784 449.422 671.947C448.193 671.466 447.221 670.327 447.121 669.053C447.02 667.78 447.724 666.417 450.997 666.082C450.997 666.082 455.086 666.216 456.505 668.752C456.505 668.752 462.906 666.953 465.096 675.779" stroke="#121212" stroke-width="1.47836" stroke-linecap="round" stroke-linejoin="round"/>
<path d="M469.007 659.971C466.46 653.693 468.079 653.056 469.655 653.458C470.727 653.737 471.643 654.441 472.28 655.335C478.357 663.791 474.704 666.785 474.704 666.785C480.39 674.561 475.33 679.063 475.33 679.063C482.457 681.118 478.636 686.436 478.636 686.436C478.636 686.436 469.856 683.241 461.153 688.491C461.153 688.491 458.751 688 458.528 683.319" stroke="#121212" stroke-width="1.47836" stroke-linecap="round" stroke-linejoin="round"/>
<path d="M521.041 670.595C521.041 670.595 517.321 656.776 522.672 657.212C522.672 657.212 524.974 656.485 527.521 671.131" stroke="#121212" stroke-width="1.47836" stroke-linecap="round" stroke-linejoin="round"/>
<path d="M528.572 686.123C527.544 686.123 526.494 686.693 526.494 686.693" stroke="#121212" stroke-width="1.47836" stroke-linecap="round" stroke-linejoin="round"/>
<path d="M539.363 670.539C538.157 662.194 532.459 666.082 532.459 666.082" stroke="#121212" stroke-width="1.47836" stroke-linecap="round" stroke-linejoin="round"/>
<path d="M533.631 671.455L532.525 666.093C530.313 662.373 526.839 665.624 526.839 665.624" stroke="#121212" stroke-width="1.47836" stroke-linecap="round" stroke-linejoin="round"/>
<path d="M538.313 667.065C536.627 660.507 538.313 660.082 539.822 660.697C540.838 661.11 541.665 661.937 542.179 662.909C547.083 672.092 543.05 674.583 543.05 674.583C547.653 683.04 542.033 686.838 542.033 686.838C548.826 689.832 544.335 694.58 544.335 694.58C544.335 694.58 536.057 690.245 526.74 694.301C526.74 694.301 521.355 690.647 526.505 686.693C523.12 684.827 522.361 681.811 522.361 681.811C521.556 678.761 517.311 676.337 517.311 676.337C516.149 675.7 515.345 674.438 515.412 673.164C515.479 671.891 516.362 670.639 519.657 670.74C519.657 670.74 523.69 671.421 524.762 674.114" stroke="#121212" stroke-width="1.47836" stroke-linecap="round" stroke-linejoin="round"/>
<path d="M463.175 688C463.175 688 464.214 703.729 460.304 712.019" stroke="black" stroke-width="1.47836" stroke-linecap="round" stroke-linejoin="round"/>
<path d="M475.306 684.961C475.306 684.961 477.954 694.893 476.993 698.278" stroke="#121212" stroke-width="1.47836" stroke-miterlimit="10"/>
<path d="M595.378 727.603L593.68 725.636V720.956L591.346 718.297L590.161 713.08L584.374 707.952L586.374 704.835L589.916 704.5L589.301 692.401L591.547 691.117L595.054 698.523L598.596 698.211L606.013 699.082L607.388 694.949L609.834 695.306L613.364 703.182L611.923 708.488L614.347 714.074L611.018 720.028L614.347 723.637L613.264 727.603L603.913 726.474L595.378 727.603Z" fill="#F7F7F7"/>
<path d="M529.119 721.168L527.421 719.202V714.521L525.097 711.862L523.533 708.366L516.842 704.835L516.484 701.316L521.243 699.663L518.484 688.57L520.115 686.168L524.505 690.625L526.315 693.966L530.471 692.435L533.565 692.915L537.029 691.519L536.705 687.989L540.615 688.011L544.458 695.831L543.575 700.691L546.524 707.494L544.77 713.594L548.099 717.202L547.016 721.168L537.665 720.04L529.119 721.168Z" fill="#F7F7F7"/>
<path d="M589.524 735.59L574.61 728.765L558.143 727.603L545.866 732.183L544.179 718.867L532.046 721.905L529.466 744.226L523.724 757.084L519.144 775.562L522.07 790.665L528.639 802.094L538.895 810.226L541.531 834.603L547.228 837.194L556.534 832.245L565.762 823.71L563.382 819.03L558.255 816.672L554.859 819.03L555.082 814.382L570.085 813.109H573.66L576.676 833.329L578.698 839.954L584.206 841.261L594.327 835.049L602.46 827.174L599.455 823.096L593.434 820.75L590.942 823.096L590.462 807.668C590.462 807.668 611.833 796.474 608.224 779.248L611.944 752.805L612.816 739.523L610.995 727.592H597.824L596.405 742.003L589.501 735.568L589.524 735.59Z" fill="#6C00FF"/>
<path d="M555.093 814.382C540.145 813.511 531.42 806.495 526.337 799.1C520.897 791.157 518.931 781.37 520.238 771.841C527.041 722.352 567.258 727.781 567.258 727.781C567.258 727.781 584.127 727.535 596.416 742.025" stroke="black" stroke-width="1.47836" stroke-linecap="round" stroke-linejoin="round"/>
<path d="M576.687 812.505C569.918 814.025 564.857 814.114 564.857 814.114C561.338 814.483 558.087 814.55 555.093 814.382" stroke="black" stroke-width="1.47836" stroke-linecap="round" stroke-linejoin="round"/>
<path d="M611.005 727.603C617.44 747.801 604.738 781.516 604.738 781.516" stroke="black" stroke-width="1.47836" stroke-linecap="round" stroke-linejoin="round"/>
<path d="M591.522 764.67C591.522 764.67 598.202 745.187 597.834 727.603" stroke="black" stroke-width="1.47836" stroke-linecap="round" stroke-linejoin="round"/>
<path d="M590.473 827.196C591.545 819.89 590.473 807.691 590.473 807.691C590.473 807.691 612.145 798.139 608.235 770.467" stroke="black" stroke-width="1.47836" stroke-linecap="round" stroke-linejoin="round"/>
<path d="M590.953 823.118C590.953 823.118 592.885 818.94 595.946 821.61" stroke="black" stroke-width="1.47836" stroke-linecap="round" stroke-linejoin="round"/>
<path d="M594.35 824.615C594.35 824.615 596.908 820.102 599.477 823.107" stroke="black" stroke-width="1.47836" stroke-linecap="round" stroke-linejoin="round"/>
<path d="M597.758 826C597.758 826 600.159 823.006 601.008 824.347C603.533 828.302 601.5 829.966 590.25 838.032C584.162 842.4 580.654 841.607 578.71 839.964C577.247 838.724 576.565 836.792 576.621 834.882C577.001 821.666 573.672 813.12 573.672 813.12" stroke="black" stroke-width="1.47836" stroke-linecap="round" stroke-linejoin="round"/>
<path d="M555.038 814.382C555.038 814.382 555.474 815.801 554.401 823.118" stroke="black" stroke-width="1.47836" stroke-linecap="round" stroke-linejoin="round"/>
<path d="M554.871 819.041C554.871 819.041 556.803 814.863 559.864 817.533" stroke="black" stroke-width="1.47836" stroke-linecap="round" stroke-linejoin="round"/>
<path d="M558.266 820.538C558.266 820.538 560.824 816.024 563.393 819.029" stroke="black" stroke-width="1.47836" stroke-linecap="round" stroke-linejoin="round"/>
<path d="M561.673 821.923C561.673 821.923 564.075 818.929 564.924 820.27C567.448 824.224 565.415 825.889 554.166 833.955C548.077 838.323 544.569 837.53 542.625 835.887C541.162 834.647 540.481 832.715 540.548 830.793C541.017 817.667 538.894 810.238 538.894 810.238" stroke="black" stroke-width="1.47836" stroke-linecap="round" stroke-linejoin="round"/>
<path d="M530.863 704.21C530.863 704.21 534.829 699.92 539.722 701.004C539.722 701.004 547.564 701.015 538.079 710.22C537.018 711.248 536.281 708.835 534.929 709.896L530.863 704.21Z" fill="#BFBFBF"/>
<path d="M521.244 699.663C521.244 699.663 515.714 686.459 521.076 686.191C521.076 686.191 523.255 685.174 527.734 699.339" stroke="#121212" stroke-width="1.47836" stroke-linecap="round" stroke-linejoin="round"/>
<path d="M529.936 714.208C527.735 714.99 527.411 717.224 527.411 717.224" stroke="#121212" stroke-width="1.47836" stroke-linecap="round" stroke-linejoin="round"/>
<path d="M536.75 703.729C540.984 701.428 539.386 697.183 539.386 697.183C537.085 689.072 531.957 693.686 531.957 693.686" stroke="#121212" stroke-width="1.47836" stroke-linecap="round" stroke-linejoin="round"/>
<path d="M532.996 702.791C535.755 701.696 534.694 697.071 532.013 693.675C529.332 690.279 526.315 693.966 526.315 693.966" stroke="#121212" stroke-width="1.47836" stroke-linecap="round" stroke-linejoin="round"/>
<path d="M527.734 715.001C527.734 715.001 525.466 708.69 518.294 705.852C517.066 705.372 516.094 704.232 515.993 702.959C515.893 701.685 516.596 700.322 519.87 699.987C519.87 699.987 523.958 700.121 525.377 702.657C525.377 702.657 531.778 700.858 533.968 709.684" stroke="#121212" stroke-width="1.47836" stroke-linecap="round" stroke-linejoin="round"/>
<path d="M537.879 693.876C535.332 687.598 536.952 686.961 538.527 687.363C539.6 687.642 540.516 688.346 541.152 689.24C547.23 697.697 543.577 700.691 543.577 700.691C549.263 708.466 544.202 712.968 544.202 712.968C551.329 715.024 547.509 720.341 547.509 720.341C547.509 720.341 538.728 717.146 530.026 722.397C530.026 722.397 527.624 721.905 527.4 717.224" stroke="#121212" stroke-width="1.47836" stroke-linecap="round" stroke-linejoin="round"/>
<path d="M589.914 704.5C589.914 704.5 586.194 690.681 591.545 691.117C591.545 691.117 593.846 690.391 596.393 705.036" stroke="#121212" stroke-width="1.47836" stroke-linecap="round" stroke-linejoin="round"/>
<path d="M597.444 720.028C596.416 720.028 595.366 720.598 595.366 720.598" stroke="#121212" stroke-width="1.47836" stroke-linecap="round" stroke-linejoin="round"/>
<path d="M608.237 704.444C607.03 696.099 601.333 699.987 601.333 699.987" stroke="#121212" stroke-width="1.47836" stroke-linecap="round" stroke-linejoin="round"/>
<path d="M602.504 705.361L601.398 699.998C599.186 696.278 595.711 699.529 595.711 699.529" stroke="#121212" stroke-width="1.47836" stroke-linecap="round" stroke-linejoin="round"/>
<path d="M607.186 700.97C605.499 694.413 607.186 693.988 608.694 694.602C609.71 695.016 610.537 695.843 611.051 696.814C615.955 705.997 611.922 708.489 611.922 708.489C616.525 716.945 610.906 720.744 610.906 720.744C617.698 723.737 613.207 728.485 613.207 728.485C613.207 728.485 604.929 724.151 595.612 728.206C595.612 728.206 590.227 724.553 595.377 720.598C591.993 718.733 591.233 715.716 591.233 715.716C590.428 712.667 586.183 710.242 586.183 710.242C585.021 709.606 584.217 708.343 584.284 707.07C584.351 705.796 585.234 704.545 588.529 704.645C588.529 704.645 592.562 705.327 593.635 708.019" stroke="#121212" stroke-width="1.47836" stroke-linecap="round" stroke-linejoin="round"/>
<path d="M532.047 721.905C532.047 721.905 533.086 737.635 529.176 745.924" stroke="black" stroke-width="1.47836" stroke-linecap="round" stroke-linejoin="round"/>
<path d="M544.179 718.867C544.179 718.867 546.827 728.798 545.866 732.183" stroke="#121212" stroke-width="1.47836" stroke-miterlimit="10"/>
<path d="M668.496 747.902L666.798 745.936V741.255L664.463 738.596L663.29 733.379L657.492 728.251L659.492 725.135L663.033 724.799L662.419 712.701L664.664 711.416L668.172 718.823L671.725 718.51L679.131 719.381L680.516 715.248L682.952 715.605L686.482 723.481L685.041 728.788L687.476 734.373L684.136 740.328L687.476 743.936L686.381 747.902L677.031 746.774L668.496 747.902Z" fill="#F7F7F7"/>
<path d="M602.246 741.467L600.549 739.501V734.82L598.214 732.161L596.65 728.664L589.958 725.134L589.612 721.615L594.36 719.962L591.6 708.869L593.231 706.467L597.622 710.924L599.431 714.265L603.587 712.723L606.682 713.214L610.156 711.818L609.832 708.288L613.731 708.31L617.574 716.13L616.691 720.99L619.64 727.793L617.886 733.893L621.227 737.501L620.132 741.467L610.781 740.339L602.246 741.467Z" fill="#F7F7F7"/>
<path d="M662.641 755.889L647.727 749.063L631.261 747.902L618.983 752.482L617.296 739.166L605.164 742.204L602.584 764.525L596.842 777.383L592.261 795.86L595.188 810.964L601.757 822.393L612.012 830.525L614.649 854.901L620.346 857.493L629.652 852.544L638.88 844.009L636.5 839.329L631.372 836.971L627.976 839.329L628.2 834.681L643.203 833.408H646.778L649.794 853.628L651.816 860.253L657.324 861.56L667.445 855.348L675.578 847.473L672.573 843.395L666.551 841.049L664.06 843.395L663.58 827.967C663.58 827.967 684.951 816.773 681.342 799.547L685.062 773.104L685.934 759.821L684.113 747.89H670.942L669.523 762.302L662.619 755.867L662.641 755.889Z" fill="#6C00FF"/>
<path d="M628.21 834.681C613.263 833.81 604.538 826.794 599.455 819.399C594.015 811.456 592.049 801.67 593.356 792.141C600.159 742.651 640.376 748.081 640.376 748.081C640.376 748.081 657.245 747.835 669.534 762.324" stroke="black" stroke-width="1.47836" stroke-linecap="round" stroke-linejoin="round"/>
<path d="M649.805 832.804C643.035 834.324 637.974 834.413 637.974 834.413C634.455 834.781 631.204 834.848 628.21 834.681" stroke="black" stroke-width="1.47836" stroke-linecap="round" stroke-linejoin="round"/>
<path d="M684.134 747.902C690.568 768.1 677.867 801.815 677.867 801.815" stroke="black" stroke-width="1.47836" stroke-linecap="round" stroke-linejoin="round"/>
<path d="M664.639 784.969C664.639 784.969 671.32 765.486 670.951 747.902" stroke="black" stroke-width="1.47836" stroke-linecap="round" stroke-linejoin="round"/>
<path d="M663.591 847.495C664.663 840.189 663.591 827.989 663.591 827.989C663.591 827.989 685.263 818.438 681.353 790.766" stroke="black" stroke-width="1.47836" stroke-linecap="round" stroke-linejoin="round"/>
<path d="M664.07 843.417C664.07 843.417 666.003 839.239 669.064 841.909" stroke="black" stroke-width="1.47836" stroke-linecap="round" stroke-linejoin="round"/>
<path d="M667.467 844.914C667.467 844.914 670.025 840.401 672.595 843.406" stroke="black" stroke-width="1.47836" stroke-linecap="round" stroke-linejoin="round"/>
<path d="M670.875 846.299C670.875 846.299 673.277 843.305 674.126 844.646C676.651 848.6 674.618 850.265 663.368 858.331C657.28 862.699 653.772 861.906 651.828 860.263C650.365 859.023 649.683 857.091 649.739 855.18C650.119 841.965 646.79 833.418 646.79 833.418" stroke="black" stroke-width="1.47836" stroke-linecap="round" stroke-linejoin="round"/>
<path d="M628.155 834.681C628.155 834.681 628.591 836.1 627.518 843.417" stroke="black" stroke-width="1.47836" stroke-linecap="round" stroke-linejoin="round"/>
<path d="M627.988 839.34C627.988 839.34 629.92 835.162 632.981 837.832" stroke="black" stroke-width="1.47836" stroke-linecap="round" stroke-linejoin="round"/>
<path d="M631.382 840.836C631.382 840.836 633.941 836.323 636.51 839.328" stroke="black" stroke-width="1.47836" stroke-linecap="round" stroke-linejoin="round"/>
<path d="M634.79 842.222C634.79 842.222 637.192 839.228 638.041 840.569C640.566 844.523 638.532 846.188 627.283 854.254C621.194 858.622 617.687 857.828 615.743 856.186C614.279 854.946 613.598 853.014 613.665 851.092C614.134 837.966 612.012 830.537 612.012 830.537" stroke="black" stroke-width="1.47836" stroke-linecap="round" stroke-linejoin="round"/>
<path d="M603.98 724.509C603.98 724.509 607.946 720.219 612.839 721.302C612.839 721.302 620.682 721.314 611.197 730.519C610.136 731.547 609.399 729.134 608.047 730.195L603.98 724.509Z" fill="#BFBFBF"/>
<path d="M594.361 719.962C594.361 719.962 588.831 706.757 594.193 706.489C594.193 706.489 596.371 705.473 600.851 719.638" stroke="#121212" stroke-width="1.47836" stroke-linecap="round" stroke-linejoin="round"/>
<path d="M603.053 734.507C600.852 735.289 600.528 737.523 600.528 737.523" stroke="#121212" stroke-width="1.47836" stroke-linecap="round" stroke-linejoin="round"/>
<path d="M609.868 724.028C614.102 721.727 612.504 717.482 612.504 717.482C610.203 709.372 605.075 713.985 605.075 713.985" stroke="#121212" stroke-width="1.47836" stroke-linecap="round" stroke-linejoin="round"/>
<path d="M606.114 723.09C608.873 721.995 607.812 717.37 605.131 713.974C602.449 710.578 599.433 714.264 599.433 714.264" stroke="#121212" stroke-width="1.47836" stroke-linecap="round" stroke-linejoin="round"/>
<path d="M600.852 735.3C600.852 735.3 598.584 728.988 591.412 726.151C590.183 725.671 589.211 724.531 589.11 723.258C589.01 721.984 589.714 720.621 592.987 720.286C592.987 720.286 597.076 720.42 598.494 722.956C598.494 722.956 604.896 721.157 607.085 729.983" stroke="#121212" stroke-width="1.47836" stroke-linecap="round" stroke-linejoin="round"/>
<path d="M610.997 714.175C608.449 707.897 610.069 707.26 611.644 707.662C612.717 707.941 613.633 708.645 614.27 709.539C620.347 717.996 616.694 720.989 616.694 720.989C622.38 728.765 617.32 733.267 617.32 733.267C624.447 735.322 620.626 740.64 620.626 740.64C620.626 740.64 611.846 737.445 603.143 742.696C603.143 742.696 600.741 742.204 600.518 737.523" stroke="#121212" stroke-width="1.47836" stroke-linecap="round" stroke-linejoin="round"/>
<path d="M663.031 724.799C663.031 724.799 659.311 710.98 664.662 711.416C664.662 711.416 666.964 710.69 669.511 725.335" stroke="#121212" stroke-width="1.47836" stroke-linecap="round" stroke-linejoin="round"/>
<path d="M670.562 740.327C669.534 740.327 668.484 740.897 668.484 740.897" stroke="#121212" stroke-width="1.47836" stroke-linecap="round" stroke-linejoin="round"/>
<path d="M681.353 724.743C680.147 716.398 674.449 720.286 674.449 720.286" stroke="#121212" stroke-width="1.47836" stroke-linecap="round" stroke-linejoin="round"/>
<path d="M675.621 725.659L674.515 720.297C672.303 716.577 668.829 719.828 668.829 719.828" stroke="#121212" stroke-width="1.47836" stroke-linecap="round" stroke-linejoin="round"/>
<path d="M680.303 721.269C678.616 714.711 680.303 714.287 681.811 714.901C682.828 715.314 683.654 716.141 684.168 717.113C689.073 726.296 685.04 728.787 685.04 728.787C689.642 737.244 684.023 741.042 684.023 741.042C690.815 744.036 686.324 748.784 686.324 748.784C686.324 748.784 678.046 744.449 668.729 748.505C668.729 748.505 663.345 744.852 668.495 740.897C665.11 739.031 664.35 736.015 664.35 736.015C663.546 732.965 659.301 730.541 659.301 730.541C658.139 729.904 657.335 728.642 657.402 727.368C657.469 726.095 658.351 724.844 661.647 724.944C661.647 724.944 665.68 725.626 666.752 728.318" stroke="#121212" stroke-width="1.47836" stroke-linecap="round" stroke-linejoin="round"/>
<path d="M605.165 742.204C605.165 742.204 606.204 757.933 602.294 766.223" stroke="black" stroke-width="1.47836" stroke-linecap="round" stroke-linejoin="round"/>
<path d="M617.296 739.166C617.296 739.166 619.944 749.097 618.983 752.482" stroke="#121212" stroke-width="1.47836" stroke-miterlimit="10"/>
<path d="M745.868 770.155L744.17 768.178V763.508L741.835 760.849L740.662 755.621L734.865 750.504L736.864 747.388L740.417 747.041L739.791 734.954L742.036 733.669L745.544 741.076L749.097 740.763L756.504 741.634L757.889 737.501L760.324 737.858L763.854 745.734L762.413 751.041L764.849 756.626L761.508 762.581L764.849 766.189L763.765 770.155L754.403 769.027L745.868 770.155Z" fill="#F7F7F7"/>
<path d="M679.622 763.72L677.924 761.754V757.073L675.589 754.414L674.025 750.918L667.333 747.387L666.987 743.868L671.735 742.215L668.975 731.122L670.606 728.72L674.997 733.177L676.807 736.518L680.962 734.976L684.057 735.468L687.531 734.06L687.207 730.541L691.106 730.563L694.949 738.383L694.066 743.243L697.016 750.046L695.262 756.146L698.602 759.754L697.507 763.72L688.157 762.592L679.622 763.72Z" fill="#F7F7F7"/>
<path d="M740.014 778.131L725.1 771.305L708.633 770.143L696.356 774.724L694.669 761.407L682.537 764.446L679.956 786.766L674.214 799.625L669.634 818.102L672.561 833.206L679.129 844.634L689.385 852.767L692.021 877.143L697.719 879.735L707.024 874.786L716.252 866.251L713.872 861.57L708.745 859.213L705.349 861.57L705.572 856.923L720.575 855.649H724.15L727.166 875.87L729.188 882.494L734.696 883.801L744.817 877.59L752.95 869.714L749.945 865.637L743.924 863.29L741.432 865.637L740.952 850.209C740.952 850.209 762.323 839.015 758.714 821.789L762.435 795.346L763.306 782.063L761.485 770.132H748.314L746.895 784.543L739.991 778.108L740.014 778.131Z" fill="#13E8C2"/>
<path d="M705.583 856.935C690.635 856.063 681.91 849.048 676.827 841.652C671.387 833.709 669.421 823.923 670.728 814.394C677.531 764.904 717.748 770.334 717.748 770.334C717.748 770.334 734.617 770.088 746.906 784.577" stroke="black" stroke-width="1.47836" stroke-linecap="round" stroke-linejoin="round"/>
<path d="M727.178 855.058C720.408 856.577 715.347 856.666 715.347 856.666C711.828 857.035 708.577 857.102 705.583 856.934" stroke="black" stroke-width="1.47836" stroke-linecap="round" stroke-linejoin="round"/>
<path d="M761.508 770.154C767.943 790.352 755.241 824.068 755.241 824.068" stroke="black" stroke-width="1.47836" stroke-linecap="round" stroke-linejoin="round"/>
<path d="M742.015 807.221C742.015 807.221 748.695 787.738 748.326 770.154" stroke="black" stroke-width="1.47836" stroke-linecap="round" stroke-linejoin="round"/>
<path d="M740.963 869.748C742.035 862.442 740.963 850.243 740.963 850.243C740.963 850.243 762.636 840.691 758.726 813.019" stroke="black" stroke-width="1.47836" stroke-linecap="round" stroke-linejoin="round"/>
<path d="M741.443 865.67C741.443 865.67 743.375 861.492 746.436 864.162" stroke="black" stroke-width="1.47836" stroke-linecap="round" stroke-linejoin="round"/>
<path d="M744.84 867.167C744.84 867.167 747.398 862.654 749.967 865.659" stroke="black" stroke-width="1.47836" stroke-linecap="round" stroke-linejoin="round"/>
<path d="M748.248 868.553C748.248 868.553 750.65 865.559 751.499 866.899C754.023 870.854 751.99 872.518 740.74 880.584C734.652 884.952 731.144 884.159 729.2 882.517C727.737 881.277 727.055 879.344 727.111 877.434C727.491 864.218 724.162 855.672 724.162 855.672" stroke="black" stroke-width="1.47836" stroke-linecap="round" stroke-linejoin="round"/>
<path d="M705.528 856.934C705.528 856.934 705.963 858.353 704.891 865.67" stroke="black" stroke-width="1.47836" stroke-linecap="round" stroke-linejoin="round"/>
<path d="M705.36 861.582C705.36 861.582 707.293 857.403 710.354 860.073" stroke="black" stroke-width="1.47836" stroke-linecap="round" stroke-linejoin="round"/>
<path d="M708.755 863.09C708.755 863.09 711.313 858.577 713.882 861.582" stroke="black" stroke-width="1.47836" stroke-linecap="round" stroke-linejoin="round"/>
<path d="M712.163 864.475C712.163 864.475 714.565 861.481 715.414 862.821C717.938 866.776 715.905 868.441 704.656 876.506C698.567 880.874 695.059 880.081 693.116 878.439C691.652 877.199 690.971 875.266 691.038 873.345C691.507 860.218 689.384 852.79 689.384 852.79" stroke="black" stroke-width="1.47836" stroke-linecap="round" stroke-linejoin="round"/>
<path d="M681.353 746.762C681.353 746.762 685.319 742.472 690.212 743.556C690.212 743.556 698.054 743.567 688.57 752.772C687.509 753.8 686.771 751.387 685.42 752.448L681.353 746.762Z" fill="#BFBFBF"/>
<path d="M671.733 742.215C671.733 742.215 666.203 729.011 671.566 728.743C671.566 728.743 673.744 727.726 678.224 741.891" stroke="#121212" stroke-width="1.47836" stroke-linecap="round" stroke-linejoin="round"/>
<path d="M680.426 756.76C678.225 757.542 677.901 759.777 677.901 759.777" stroke="#121212" stroke-width="1.47836" stroke-linecap="round" stroke-linejoin="round"/>
<path d="M687.24 746.281C691.474 743.98 689.877 739.735 689.877 739.735C687.575 731.624 682.448 736.238 682.448 736.238" stroke="#121212" stroke-width="1.47836" stroke-linecap="round" stroke-linejoin="round"/>
<path d="M683.486 745.343C686.245 744.248 685.184 739.623 682.503 736.227C679.822 732.831 676.806 736.518 676.806 736.518" stroke="#121212" stroke-width="1.47836" stroke-linecap="round" stroke-linejoin="round"/>
<path d="M678.224 757.554C678.224 757.554 675.957 751.242 668.785 748.404C667.556 747.924 666.584 746.784 666.483 745.511C666.383 744.237 667.087 742.874 670.36 742.539C670.36 742.539 674.448 742.673 675.867 745.209C675.867 745.209 682.268 743.41 684.458 752.236" stroke="#121212" stroke-width="1.47836" stroke-linecap="round" stroke-linejoin="round"/>
<path d="M688.38 736.428C685.833 730.15 687.453 729.513 689.028 729.915C690.1 730.194 691.016 730.898 691.653 731.792C697.73 740.249 694.077 743.243 694.077 743.243C699.764 751.018 694.703 755.52 694.703 755.52C701.83 757.576 698.01 762.893 698.01 762.893C698.01 762.893 689.229 759.698 680.526 764.949C680.526 764.949 678.125 764.457 677.901 759.777" stroke="#121212" stroke-width="1.47836" stroke-linecap="round" stroke-linejoin="round"/>
<path d="M740.414 747.041C740.414 747.041 736.694 733.222 742.045 733.658C742.045 733.658 744.347 732.932 746.894 747.578" stroke="#121212" stroke-width="1.47836" stroke-linecap="round" stroke-linejoin="round"/>
<path d="M747.935 762.581C746.907 762.581 745.857 763.15 745.857 763.15" stroke="#121212" stroke-width="1.47836" stroke-linecap="round" stroke-linejoin="round"/>
<path d="M758.726 746.997C757.519 738.652 751.822 742.539 751.822 742.539" stroke="#121212" stroke-width="1.47836" stroke-linecap="round" stroke-linejoin="round"/>
<path d="M752.995 747.912L751.889 742.55C749.677 738.83 746.203 742.081 746.203 742.081" stroke="#121212" stroke-width="1.47836" stroke-linecap="round" stroke-linejoin="round"/>
<path d="M757.676 743.522C755.989 736.964 757.676 736.54 759.184 737.154C760.2 737.568 761.027 738.394 761.541 739.366C766.445 748.549 762.412 751.04 762.412 751.04C767.015 759.497 761.396 763.295 761.396 763.295C768.188 766.289 763.697 771.037 763.697 771.037C763.697 771.037 755.419 766.703 746.102 770.758C746.102 770.758 740.717 767.105 745.867 763.15C742.483 761.284 741.723 758.268 741.723 758.268C740.919 755.218 736.673 752.794 736.673 752.794C735.512 752.157 734.707 750.895 734.774 749.621C734.841 748.348 735.724 747.097 739.019 747.197C739.019 747.197 743.052 747.879 744.125 750.571" stroke="#121212" stroke-width="1.47836" stroke-linecap="round" stroke-linejoin="round"/>
<path d="M682.537 764.457C682.537 764.457 683.576 780.187 679.666 788.476" stroke="black" stroke-width="1.47836" stroke-linecap="round" stroke-linejoin="round"/>
<path d="M694.669 761.418C694.669 761.418 697.316 771.35 696.356 774.735" stroke="#121212" stroke-width="1.47836" stroke-miterlimit="10"/>
<path d="M823.007 802.183L821.309 800.217V795.536L818.985 792.877L817.801 787.66L812.014 782.533L814.014 779.416L817.555 779.081L816.929 766.982L819.186 765.697L822.694 773.104L826.235 772.791L833.653 773.662L835.027 769.529L837.463 769.887L841.004 777.762L839.552 783.069L841.987 788.655L838.658 794.609L841.987 798.217L840.903 802.183L831.553 801.055L823.007 802.183Z" fill="#F7F7F7"/>
<path d="M756.759 795.749L755.061 793.782V789.102L752.737 786.443L751.162 782.946L744.471 779.416L744.124 775.897L748.872 774.244L746.124 763.15L747.755 760.749L752.134 765.206L753.955 768.546L758.1 767.005L761.205 767.496L764.668 766.088L764.345 762.569L768.255 762.592L772.097 770.412L771.215 775.271L774.164 782.075L772.41 788.174L775.739 791.783L774.656 795.749L765.294 794.62L756.759 795.749Z" fill="#F7F7F7"/>
<path d="M817.153 810.171L802.239 803.345L785.773 802.183L773.495 806.764L771.808 793.447L759.676 796.486L757.096 818.806L751.353 831.665L746.773 850.142L749.7 865.246L756.269 876.674L766.524 884.807L769.161 909.183L774.858 911.775L784.164 906.826L793.392 898.291L791.012 893.61L785.884 891.253L782.488 893.61L782.712 888.963L797.715 887.689H801.29L804.306 907.91L806.328 914.534L811.836 915.841L821.957 909.63L830.09 901.754L827.084 897.677L821.063 895.331L818.572 897.677L818.092 882.249C818.092 882.249 839.462 871.055 835.854 853.829L839.574 827.386L840.446 814.103L838.625 802.172H825.453L824.035 816.583L817.131 810.148L817.153 810.171Z" fill="#6C00FF"/>
<path d="M782.733 888.963C767.786 888.091 759.061 881.076 753.978 873.68C748.538 865.737 746.571 855.951 747.878 846.422C754.682 796.932 794.899 802.362 794.899 802.362C794.899 802.362 811.768 802.116 824.056 816.605" stroke="black" stroke-width="1.47836" stroke-linecap="round" stroke-linejoin="round"/>
<path d="M804.327 887.086C797.557 888.605 792.497 888.694 792.497 888.694C788.978 889.063 785.727 889.13 782.733 888.963" stroke="black" stroke-width="1.47836" stroke-linecap="round" stroke-linejoin="round"/>
<path d="M838.645 802.183C845.08 822.381 832.378 856.096 832.378 856.096" stroke="black" stroke-width="1.47836" stroke-linecap="round" stroke-linejoin="round"/>
<path d="M819.162 839.25C819.162 839.25 825.843 819.767 825.474 802.183" stroke="black" stroke-width="1.47836" stroke-linecap="round" stroke-linejoin="round"/>
<path d="M818.112 901.776C819.185 894.47 818.112 882.271 818.112 882.271C818.112 882.271 839.785 872.719 835.875 845.048" stroke="black" stroke-width="1.47836" stroke-linecap="round" stroke-linejoin="round"/>
<path d="M818.592 897.699C818.592 897.699 820.525 893.521 823.586 896.191" stroke="black" stroke-width="1.47836" stroke-linecap="round" stroke-linejoin="round"/>
<path d="M821.979 899.196C821.979 899.196 824.537 894.682 827.106 897.687" stroke="black" stroke-width="1.47836" stroke-linecap="round" stroke-linejoin="round"/>
<path d="M825.386 900.581C825.386 900.581 827.788 897.587 828.637 898.928C831.162 902.882 829.129 904.547 817.879 912.613C811.791 916.981 808.283 916.187 806.339 914.545C804.876 913.305 804.194 911.373 804.25 909.462C804.63 896.247 801.301 887.7 801.301 887.7" stroke="black" stroke-width="1.47836" stroke-linecap="round" stroke-linejoin="round"/>
<path d="M782.678 888.963C782.678 888.963 783.114 890.381 782.041 897.699" stroke="black" stroke-width="1.47836" stroke-linecap="round" stroke-linejoin="round"/>
<path d="M782.51 893.621C782.51 893.621 784.443 889.443 787.504 892.113" stroke="black" stroke-width="1.47836" stroke-linecap="round" stroke-linejoin="round"/>
<path d="M785.905 895.118C785.905 895.118 788.464 890.605 791.033 893.61" stroke="black" stroke-width="1.47836" stroke-linecap="round" stroke-linejoin="round"/>
<path d="M789.313 896.504C789.313 896.504 791.715 893.509 792.564 894.85C795.089 898.805 793.056 900.469 781.806 908.535C775.718 912.903 772.21 912.11 770.266 910.468C768.803 909.228 768.121 907.295 768.188 905.374C768.657 892.247 766.535 884.818 766.535 884.818" stroke="black" stroke-width="1.47836" stroke-linecap="round" stroke-linejoin="round"/>
<path d="M758.503 778.79C758.503 778.79 762.469 774.5 767.362 775.584C767.362 775.584 775.204 775.595 765.719 784.8C764.658 785.828 763.921 783.415 762.569 784.476L758.503 778.79Z" fill="#BFBFBF"/>
<path d="M748.873 774.243C748.873 774.243 743.343 761.039 748.706 760.771C748.706 760.771 750.884 759.754 755.364 773.919" stroke="#121212" stroke-width="1.47836" stroke-linecap="round" stroke-linejoin="round"/>
<path d="M757.575 788.788C755.375 789.57 755.051 791.805 755.051 791.805" stroke="#121212" stroke-width="1.47836" stroke-linecap="round" stroke-linejoin="round"/>
<path d="M764.39 778.31C768.624 776.009 767.027 771.763 767.027 771.763C764.726 763.653 759.598 768.267 759.598 768.267" stroke="#121212" stroke-width="1.47836" stroke-linecap="round" stroke-linejoin="round"/>
<path d="M760.637 777.372C763.396 776.277 762.335 771.652 759.653 768.256C756.972 764.86 753.956 768.546 753.956 768.546" stroke="#121212" stroke-width="1.47836" stroke-linecap="round" stroke-linejoin="round"/>
<path d="M755.375 789.582C755.375 789.582 753.107 783.27 745.935 780.433C744.706 779.952 743.734 778.813 743.634 777.539C743.533 776.266 744.237 774.903 747.51 774.568C747.51 774.568 751.599 774.702 753.018 777.238C753.018 777.238 759.419 775.439 761.609 784.264" stroke="#121212" stroke-width="1.47836" stroke-linecap="round" stroke-linejoin="round"/>
<path d="M765.519 768.457C762.972 762.178 764.592 761.542 766.167 761.944C767.239 762.223 768.155 762.927 768.792 763.821C774.869 772.277 771.216 775.271 771.216 775.271C776.902 783.047 771.842 787.549 771.842 787.549C778.969 789.604 775.148 794.922 775.148 794.922C775.148 794.922 766.368 791.727 757.665 796.977C757.665 796.977 755.263 796.486 755.04 791.805" stroke="#121212" stroke-width="1.47836" stroke-linecap="round" stroke-linejoin="round"/>
<path d="M817.554 779.081C817.554 779.081 813.834 765.262 819.185 765.697C819.185 765.697 821.486 764.971 824.033 779.617" stroke="#121212" stroke-width="1.47836" stroke-linecap="round" stroke-linejoin="round"/>
<path d="M825.084 794.609C824.057 794.609 823.007 795.179 823.007 795.179" stroke="#121212" stroke-width="1.47836" stroke-linecap="round" stroke-linejoin="round"/>
<path d="M835.876 779.025C834.669 770.68 828.972 774.568 828.972 774.568" stroke="#121212" stroke-width="1.47836" stroke-linecap="round" stroke-linejoin="round"/>
<path d="M830.133 779.941L829.027 774.579C826.815 770.859 823.341 774.109 823.341 774.109" stroke="#121212" stroke-width="1.47836" stroke-linecap="round" stroke-linejoin="round"/>
<path d="M834.815 775.551C833.128 768.993 834.815 768.568 836.323 769.183C837.34 769.596 838.166 770.423 838.68 771.395C843.584 780.578 839.551 783.069 839.551 783.069C844.154 791.526 838.535 795.324 838.535 795.324C845.327 798.318 840.836 803.066 840.836 803.066C840.836 803.066 832.558 798.731 823.241 802.786C823.241 802.786 817.857 799.133 823.007 795.179C819.622 793.313 818.862 790.297 818.862 790.297C818.058 787.247 813.812 784.823 813.812 784.823C812.651 784.186 811.846 782.924 811.913 781.65C811.98 780.377 812.863 779.125 816.159 779.226C816.159 779.226 820.191 779.907 821.264 782.6" stroke="#121212" stroke-width="1.47836" stroke-linecap="round" stroke-linejoin="round"/>
<path d="M759.687 796.486C759.687 796.486 760.726 812.215 756.816 820.504" stroke="black" stroke-width="1.47836" stroke-linecap="round" stroke-linejoin="round"/>
<path d="M771.819 793.447C771.819 793.447 774.467 803.379 773.506 806.764" stroke="#121212" stroke-width="1.47836" stroke-miterlimit="10"/>
<path d="M836.994 644.007C836.994 644.007 844.825 664.92 855.851 667.31L857.985 668.07C857.985 668.07 853.315 682.716 864.218 680.213C864.218 680.213 872.396 682.079 876.496 674.784C876.496 674.784 881.724 655.737 869.357 652.43C869.357 652.43 854.388 649.983 852.444 629.573L836.982 644.018L836.994 644.007Z" fill="#13E8C2"/>
<path d="M778.647 625.786L777.251 619.776L774.636 598.584L779.049 581.592L789.282 568.164L804.978 559.305L816.876 557.473L833.13 560.679L843.117 566.98L854.691 582.151L859.986 598.305L857.093 620.279L850.189 633.26L845.05 638.544L842.961 638.053L836.995 644.007L823.154 651.134L817.937 636.958L810.675 636.287L809.424 640.521L798.934 640.242L791.505 645.124L777.608 631.975L778.647 625.786Z" fill="#13E8C2"/>
<path d="M767.386 640.521L769.397 636.958L774.904 635.684L777.608 639.114C777.608 639.114 770.983 644.889 767.386 640.521Z" fill="#13E8C2"/>
<path d="M799.099 611.118L808.204 625.328L818.873 626.747L820.37 618.178L824.336 620.189L826.011 611.275L819.655 596.852L817.934 600.126L813.857 599.589L811.388 604.784L808.439 603.823L805.3 609.007L800.44 607.979L799.099 611.118Z" fill="#6C00FF"/>
<path d="M772.445 669.646L770.982 673.846L780.678 675.723L789.28 674.773L797.894 666.238L787.94 649.448L780.678 641.616L775.696 648.654L776.925 659.993L780.678 665.981L772.445 669.646Z" fill="#13E8C2"/>
<path d="M793.27 608.638C793.27 608.638 798.185 615.721 799.794 606.214C799.794 606.214 807.692 612.57 807.368 601.499C807.368 601.499 812.239 608.415 813.412 598.606C813.412 598.606 818.673 602.851 818.673 595.377C818.673 595.377 828.415 608.794 824.326 620.178C824.326 620.178 820.237 616.324 819.612 620.178C818.986 624.032 821.243 627.886 817.445 626.747C813.646 625.607 806.519 622.948 809.412 629.562C809.412 629.562 803.514 615.989 799.783 612.47" stroke="#121212" stroke-width="1.47836" stroke-linecap="round" stroke-linejoin="round"/>
<path d="M836.455 691.463C840.962 686.69 843.133 681.42 841.302 679.691C839.472 677.963 834.335 680.431 829.828 685.204C825.32 689.977 823.15 695.247 824.98 696.975C826.811 698.704 831.948 696.236 836.455 691.463Z" fill="#F7F7F7" stroke="#121212" stroke-width="1.47836" stroke-miterlimit="10"/>
<path d="M835.505 690.57C840.012 685.797 842.182 680.527 840.352 678.799C838.522 677.071 833.384 679.539 828.877 684.312C824.37 689.084 822.2 694.355 824.03 696.083C825.86 697.811 830.998 695.343 835.505 690.57Z" fill="#F7F7F7" stroke="#121212" stroke-width="1.47836" stroke-miterlimit="10"/>
<path d="M774.442 631.828L773.376 632.957C772.872 633.49 772.896 634.332 773.43 634.836L829.79 688.058C830.324 688.563 831.165 688.538 831.669 688.005L832.736 686.876C833.24 686.342 833.216 685.501 832.682 684.996L776.322 631.774C775.788 631.27 774.947 631.294 774.442 631.828Z" fill="#F7F7F7" stroke="#121212" stroke-width="1.47836" stroke-miterlimit="10"/>
<path d="M764.347 610.616L762.894 609.242L759.655 612.671L758.359 611.453L761.576 608.046C758.214 605.354 753.287 605.644 750.271 608.839L749.098 610.079C746.082 613.263 746.07 618.201 748.953 621.407L752.17 618L753.466 619.218L750.226 622.647L751.678 624.021L754.918 620.592L756.214 621.809L752.974 625.239L760.079 631.953L763.319 628.523L764.615 629.741L761.375 633.171L762.828 634.545L766.067 631.115L767.363 632.333L764.235 635.651C767.553 637.751 771.988 637.282 774.781 634.321L775.954 633.081C778.747 630.121 778.959 625.664 776.669 622.468L773.541 625.786L772.245 624.569L775.485 621.139L774.032 619.765L770.793 623.195L769.497 621.977L772.737 618.547L765.631 611.833L762.392 615.263L761.096 614.045L764.336 610.616H764.347Z" fill="#F7F7F7" stroke="#121212" stroke-width="1.47836" stroke-miterlimit="10"/>
<path d="M768.257 612.064L753.293 627.911C752.713 628.525 752.74 629.494 753.355 630.074L754.663 631.309C755.277 631.889 756.246 631.862 756.826 631.247L771.791 615.401C772.371 614.786 772.343 613.818 771.729 613.237L770.421 612.002C769.806 611.422 768.838 611.45 768.257 612.064Z" fill="#F7F7F7" stroke="#121212" stroke-width="1.47836" stroke-miterlimit="10"/>
<path d="M845.048 638.544C851.081 632.769 854.812 626.356 857.08 620.279C862.409 606.035 860.185 590.205 851.974 577.403C842.803 563.081 830.816 558.333 820.102 557.585C796.262 555.909 775.852 574.722 774.612 598.584C773.92 611.967 777.204 623.284 777.204 623.284" stroke="#121212" stroke-width="1.47836" stroke-linecap="round" stroke-linejoin="round"/>
<path d="M813.679 636.064C813.679 636.064 810.294 636.969 809.657 641.225L805.211 640.521C805.211 640.521 789.839 636.991 789.772 653.838C789.772 653.838 791.292 663.613 797.324 662.663C798.91 662.417 801.849 659.524 803.926 657.77C805.345 656.564 806.228 657.893 807.926 655.603C807.926 655.603 815.858 659.357 818.963 659.167C818.963 659.167 830.38 647.303 813.679 636.042V636.064Z" fill="#F7F7F7"/>
<path d="M846.121 595.377C845.987 596.383 839.429 627.171 816.874 637.46" stroke="#121212" stroke-width="1.47836" stroke-linecap="round" stroke-linejoin="round"/>
<path d="M752.985 625.25L760.459 623.027L766.312 629.562L768.379 638.544L764.503 641.94L760.123 642.923L753.097 638.544L750.203 631.975L752.985 625.25Z" fill="#13E8C2"/>
<path d="M857.115 610.124C857.115 610.124 849.194 644.141 822.495 651.827" stroke="#121212" stroke-width="1.47836" stroke-linecap="round" stroke-linejoin="round"/>
<path d="M763.018 626.747C763.018 626.747 767.576 628.624 765.967 633.45L763.018 637.204" stroke="#121212" stroke-width="1.47836" stroke-linecap="round" stroke-linejoin="round"/>
<path d="M765.967 633.449C765.967 633.449 769.452 635.058 768.38 638.544C768.38 638.544 761.409 648.464 753.097 638.544C753.097 638.544 747.735 634.321 751.489 628.657C751.489 628.657 760.873 617.095 763.018 626.747L756.583 633.986" stroke="#121212" stroke-width="1.47836" stroke-linecap="round" stroke-linejoin="round"/>
<path d="M751.488 628.657C751.488 628.657 751.108 627.295 751.309 622.346C751.432 619.475 755.733 619.463 755.8 622.334C755.811 622.994 755.744 623.776 755.577 624.703" stroke="#121212" stroke-width="1.47836" stroke-miterlimit="10"/>
<path d="M812.886 642.957C812.886 642.957 797.827 632.311 789.806 649.336C789.136 650.766 789.08 652.43 789.784 653.849C790.22 654.732 790.868 655.346 791.806 654.765" stroke="#121212" stroke-width="1.47836" stroke-linecap="round" stroke-linejoin="round"/>
<path d="M799.793 647.325C799.793 647.325 793.303 649.313 791.705 655.078C791.225 656.809 791.593 658.72 792.878 659.993C793.749 660.864 794.945 661.334 796.185 659.725" stroke="#121212" stroke-width="1.47836" stroke-linecap="round" stroke-linejoin="round"/>
<path d="M802.966 651.146C802.966 651.146 793.314 657.044 797.335 662.675C797.335 662.675 799.492 663.68 801.212 660.753C803.949 656.117 809.937 654.519 814.439 657.48C814.506 657.525 814.651 657.536 814.651 657.614C814.651 660.083 817.98 659.535 817.98 659.535C819.611 659.122 821.019 658.217 822.002 653.827C824.091 644.499 819.042 639.159 816.45 637.114C815.288 636.198 813.757 635.818 812.316 636.187C810.775 636.578 809.244 637.807 809.669 641.225" stroke="#121212" stroke-width="1.47836" stroke-linecap="round" stroke-linejoin="round"/>
<path d="M836.993 644.007C836.993 644.007 841.138 662.943 857.995 668.07C857.995 668.07 853.594 681.074 861.838 680.158L863.38 679.789" stroke="#121212" stroke-width="1.47836" stroke-miterlimit="10"/>
<path d="M863.862 671.12C863.862 671.12 860.187 679.152 864.22 680.202C864.22 680.202 865.482 681.085 868.23 679.208" stroke="#121212" stroke-width="1.47836" stroke-linecap="round" stroke-linejoin="round"/>
<path d="M869.535 671.544C869.535 671.544 865.983 679.61 869.535 680.202C869.535 680.202 877.545 683.219 877.936 664.652C878.193 652.698 869.368 652.419 869.368 652.419C854.331 649.894 852.454 629.562 852.454 629.562" stroke="#121212" stroke-width="1.47836" stroke-linecap="round" stroke-linejoin="round"/>
<path d="M780.679 641.616C780.679 641.616 768.525 649.593 780.679 665.981C780.679 665.981 768.793 668.819 770.982 673.846C770.982 673.846 772.613 675.98 776.937 673.779" stroke="#121212" stroke-width="1.47836" stroke-linecap="round" stroke-linejoin="round"/>
<path d="M782.89 668.707C782.89 668.707 774.97 672.204 777.383 675.142C777.383 675.142 779.606 677.03 782.89 675.142" stroke="#121212" stroke-width="1.47836" stroke-linecap="round" stroke-linejoin="round"/>
<path d="M787.326 669.578C787.326 669.578 780.177 674.214 784.143 675.566C788.097 676.918 798.219 668.942 797.895 666.238C797.559 663.535 792.879 659.993 792.879 659.993" stroke="#121212" stroke-width="1.47836" stroke-linecap="round" stroke-linejoin="round"/>
<path d="M766.312 640.711C766.312 640.711 773.25 644.342 777.606 639.114" stroke="#121212" stroke-width="1.47836" stroke-miterlimit="10"/>
<path d="M806.061 585.413C806.061 585.413 810.161 587.401 811.512 589.747C812.864 592.105 817.243 591.401 817.243 591.401C817.243 591.401 812.551 586.083 808.105 584.91C807.278 584.698 806.876 585.346 806.072 585.413H806.061Z" fill="#121212"/>
<path d="M810.06 594.238C810.06 594.238 808.965 586.038 811.914 582.162L813.411 583C813.411 583 811.758 590.887 811.937 594.395L810.049 594.238H810.06Z" fill="#121212"/>
<path d="M785.908 592.518C785.908 592.518 790.008 594.506 791.36 596.852C792.712 599.209 797.091 598.506 797.091 598.506C797.091 598.506 792.399 593.188 787.953 592.015C787.126 591.803 786.724 592.451 785.92 592.518H785.908Z" fill="#121212"/>
<path d="M789.905 601.343C789.905 601.343 788.81 593.143 791.76 589.267L793.257 590.105C793.257 590.105 791.603 597.992 791.782 601.5L789.894 601.343H789.905Z" fill="#121212"/>
<path d="M782.89 636.958C782.89 636.958 785.906 636.042 787.939 629.562" stroke="#121212" stroke-width="1.47836" stroke-linecap="round" stroke-linejoin="round"/>
<path d="M863.023 553.005L919.204 440.464L938.397 470.515L1054.93 352.925L953.042 497.282L935.459 525.88L918.467 502.365L863.023 553.005Z" fill="#008EFF" stroke="#121212" stroke-width="1.47836" stroke-miterlimit="10"/>
<path d="M863.023 553.005L913.417 424.902L932.621 454.964L1054.93 352.925L990.322 434.9L929.683 510.33L912.68 486.814L863.023 553.005Z" fill="#13E8C2" stroke="#121212" stroke-width="1.47836" stroke-linecap="round" stroke-linejoin="round"/>
<path d="M669.554 456.204L650.463 491.573L707.191 546.938L728.093 512.542L771.996 566.656L736.617 469.576L714.877 503.493L669.554 456.204Z" fill="#008EFF" stroke="#121212" stroke-width="1.47836" stroke-linecap="round" stroke-linejoin="round"/>
<path d="M663.993 466.515L644.901 501.884L701.63 557.238L722.532 522.853L771.999 566.656L731.055 479.888L709.305 513.804L663.993 466.515Z" fill="#13E8C2"/>
<path d="M663.993 466.515L644.901 501.884L701.63 557.238L722.532 522.853L771.999 566.656L731.055 479.888L709.305 513.804L663.993 466.515Z" stroke="#121212" stroke-width="1.47836" stroke-linecap="round" stroke-linejoin="round"/>
</g>
</svg>
