<svg width="100%" height="100%" viewBox="0 0 401 318" fill="none" xmlns="http://www.w3.org/2000/svg">
<path d="M117.858 123.927H0.390137V168.683H73.2139V317.221H117.858V168.683H146.038C170.703 168.683 190.681 148.633 190.681 123.927H117.858Z" fill="white"/>
<path d="M378.254 318C390.479 318 400.39 308.055 400.39 295.787C400.39 283.519 390.479 273.573 378.254 273.573C366.028 273.573 356.118 283.519 356.118 295.787C356.118 308.055 366.028 318 378.254 318Z" fill="white"/>
<path d="M146.038 63.5342H58.1747C53.0156 63.5342 48.8431 59.3467 48.8431 54.1691C48.8431 48.9915 53.0156 44.804 58.1747 44.804H116.604V0H54.3656C24.5619 0 0.390137 24.2585 0.390137 54.1691C0.390137 84.0797 24.5619 108.338 54.3656 108.338H190.681C190.681 83.5846 170.682 63.5342 146.038 63.5342Z" fill="white"/>
<path d="M355.928 63.5342H267.992C262.854 63.5342 258.698 59.3467 258.698 54.1691C258.698 48.9915 262.854 44.804 267.992 44.804H326.615V0H264.63C234.948 0 210.875 24.2585 210.875 54.1691C210.875 84.0797 234.948 108.338 264.63 108.338H400.39C400.39 83.5846 380.472 63.5342 355.928 63.5342Z" fill="white"/>
<path d="M355.928 208.894H327.863V168.726H355.928C380.493 168.726 400.39 148.657 400.39 123.927H210.875V168.726H283.402V208.894H264.63C234.948 208.894 210.875 233.15 210.875 263.057C210.875 292.965 234.948 317.221 264.63 317.221H326.615V272.421H271.017C265.879 272.421 261.724 268.234 261.724 263.057C261.724 257.88 265.879 253.693 271.017 253.693H400.39C400.39 228.942 380.472 208.894 355.928 208.894Z" fill="white"/>
</svg>
