<svg width="100%" height="100%" viewBox="0 0 390 478" fill="none" xmlns="http://www.w3.org/2000/svg">
<mask id="mask0_4_4120" style="mask-type:alpha" maskUnits="userSpaceOnUse" x="0" y="0" width="390" height="478">
<rect y="0.311035" width="390" height="477.689" fill="#121212"/>
</mask>
<g mask="url(#mask0_4_4120)">
<path d="M368.683 211.459L219 150.5L130.5 183.5V284L-97 386.644V398.471L-77.0422 405.863V503.434L569 524.131L565.304 394.775L449.992 345.989L368.683 211.459Z" fill="#F7F7F7"/>
<path d="M90.3818 60.6663L91.8395 66.4085C94.6643 77.5355 102.043 86.9793 112.188 92.4509C102.043 97.9226 94.6643 107.366 91.8395 118.493L90.3818 124.236L88.9241 118.493C86.0994 107.366 78.7206 97.9226 68.576 92.4509C78.7206 86.9793 86.0994 77.5355 88.9241 66.4085L90.3818 60.6663Z" fill="#121212"/>
<path d="M-68.6499 409.354L256.843 538.052L304.649 585.875H-68.6499V409.354Z" fill="#121212"/>
<path d="M-68.6499 409.119L-68.1583 416.929L10.9173 531.325V511.581L-58.4317 413.265L-68.6499 409.119Z" fill="#E3E4E8"/>
<path d="M-67.6786 487.329L6.26268 439.271L11.3914 441.45V448.886L-68.1591 500.234L-67.6786 487.329Z" fill="#E3E4E8"/>
<path d="M19.9332 445.053V452.998L77.2816 535.593L89.8519 534.923L28.9726 448.618L19.9332 445.053Z" fill="#E3E4E8"/>
<path d="M20.274 523.124L19.9332 534.225L99.0143 484.541L98.7685 476.848L94.9416 474.926L20.274 523.124Z" fill="#E3E4E8"/>
<path d="M368.657 406.253L411.016 423.606L452.051 406.253V175.183L410.384 158.769L368.936 177.373L368.657 406.253Z" fill="black"/>
<path d="M131.273 285.981L171.504 300.897L211.058 283.668L211.248 154.188L214.254 152.819L214.667 54.905L172.996 38.491L131.553 57.095L131.273 285.981Z" fill="black"/>
<path d="M393.863 307.77C401.653 306.273 405.599 292.731 402.676 277.523C399.752 262.315 391.068 251.201 383.277 252.698C375.487 254.195 371.542 267.738 374.465 282.945C377.388 298.153 386.073 309.268 393.863 307.77Z" fill="#F7F7F7"/>
<path d="M394.194 376.678C402.369 375.107 406.614 361.436 403.674 346.143C400.735 330.851 391.725 319.727 383.55 321.299C375.375 322.87 371.13 336.541 374.07 351.834C377.009 367.126 386.019 378.249 394.194 376.678Z" fill="#F7F7F7"/>
<path d="M155.758 187.934C163.548 186.437 167.494 172.895 164.571 157.687C161.648 142.479 152.963 131.365 145.172 132.862C137.382 134.359 133.437 147.902 136.36 163.109C139.283 178.317 147.968 189.432 155.758 187.934Z" fill="#F7F7F7"/>
<path d="M155.997 256.155C164.148 254.589 168.401 241.074 165.498 225.969C162.595 210.864 153.634 199.89 145.483 201.456C137.332 203.023 133.078 216.538 135.982 231.643C138.885 246.747 147.846 257.722 155.997 256.155Z" fill="#F7F7F7"/>
<path d="M112.904 326.552V365.47L296.262 438.869L296.514 421.399L272.133 411.935V391.169L112.904 326.552Z" fill="#121212"/>
<path d="M20.9397 450.517L30.1859 464.591V567.147L19.962 569.74L20.9397 450.517Z" fill="#E3E4E8"/>
<path d="M-58.4328 413.265L-47.3095 417.991L10.9161 499.486V511.581L-52.0248 422.349" fill="#E3E4E8"/>
<path d="M27.3856 447.093L38.5089 451.819L96.7345 533.314V545.404L33.7936 456.171" fill="#E3E4E8"/>
<path d="M141.1 156.065L149.329 156.964C149.329 156.964 149.899 163.719 151.927 166.445L146.223 172.647C146.223 172.647 140.524 164.412 141.1 156.059V156.065Z" fill="#6C00FF"/>
<path d="M151.615 149.736L146.497 140.35C146.497 140.35 152.928 137.785 159.045 146.741L157.844 150.942C157.844 150.942 153.185 147.272 151.615 149.736Z" fill="#6C00FF"/>
<path d="M156.073 170.909L154.738 180.295C154.738 180.295 162.224 182.212 163.783 172.647L161.492 168.038C161.492 168.038 159.14 173.513 156.079 170.909H156.073Z" fill="#6C00FF"/>
<path d="M161.492 168.038C161.492 168.038 165.525 161.982 157.843 150.942L159.045 146.741C159.045 146.741 166.257 159.792 163.782 172.653L161.492 168.043V168.038Z" fill="#6C00FF"/>
<path d="M141.1 156.065C141.1 156.065 140.441 143.21 146.491 140.35L162.017 160.378L159.039 180.452C159.039 180.452 146.408 185.189 141.095 156.06L141.1 156.065Z" fill="#6C00FF"/>
<path d="M141.1 224.392C141.1 224.392 140.441 211.536 146.491 208.676L162.017 228.705L159.039 248.778C159.039 248.778 145.5 253.5 141.095 224.386L141.1 224.392Z" fill="#6C00FF"/>
<path d="M157.949 170.91C161.279 170.27 163.038 164.861 161.879 158.828C160.719 152.795 157.08 148.423 153.75 149.063C150.42 149.704 148.66 155.113 149.82 161.146C150.979 167.179 154.619 171.55 157.949 170.91Z" fill="black"/>
<path d="M379.389 276.779C379.389 276.779 378.729 263.924 384.78 261.063L387.026 259.806L391.422 260.985L396.853 266.164L400.305 281.098L397.328 301.171C397.328 301.171 384.696 305.909 379.383 276.779H379.389Z" fill="#6C00FF"/>
<path d="M396.151 291.03C399.481 290.39 401.24 284.981 400.081 278.948C398.921 272.915 395.281 268.544 391.951 269.184C388.621 269.824 386.862 275.233 388.021 281.266C389.181 287.299 392.821 291.67 396.151 291.03Z" fill="black"/>
<path d="M142.915 166.563L150.469 164.356C150.469 164.356 151.743 171.943 157.955 170.898L159.045 180.457C159.045 180.457 150 186.038 142.915 166.568V166.563Z" fill="#F7F7F7"/>
<path d="M381.204 287.277L388.757 285.07C388.757 285.07 390.031 292.657 396.243 291.612L397.333 301.171C397.333 301.171 388.288 306.752 381.204 287.282V287.277Z" fill="#F7F7F7"/>
<path d="M379.389 345.028C379.389 345.028 378.729 332.172 384.78 329.312L388.813 328.697L394.981 332.748L398.881 338.111L397.328 369.419C397.328 369.419 383.5 374 379.383 345.028H379.389Z" fill="#6C00FF"/>
<path d="M381.204 355.525L388.757 353.318C388.757 353.318 390.031 360.905 396.243 359.86L397.333 369.419C397.333 369.419 388.288 375.001 381.204 355.531V355.525Z" fill="#F7F7F7"/>
<path d="M151.615 217.844L146.497 208.458C146.497 208.458 152.928 205.894 159.045 214.849L157.844 219.051C157.844 219.051 153.185 215.38 151.615 217.844Z" fill="#6C00FF"/>
<path d="M161.492 236.152C161.492 236.152 165.525 230.096 157.843 219.056L159.045 214.855C159.045 214.855 166.257 227.906 163.782 240.767L161.492 236.157V236.152Z" fill="#6C00FF"/>
<path d="M142.915 234.677L150.469 232.47C150.469 232.47 151.743 240.057 157.955 239.012L159.045 248.571C159.045 248.571 150 254.153 142.915 234.683V234.677Z" fill="#F7F7F7"/>
<path d="M157.949 238.431C161.279 237.791 163.038 232.381 161.879 226.349C160.719 220.316 157.08 215.944 153.75 216.584C150.42 217.224 148.66 222.634 149.82 228.667C150.979 234.699 154.619 239.071 157.949 238.431Z" fill="black"/>
<path d="M396.149 359.682C399.479 359.042 401.239 353.632 400.079 347.599C398.92 341.567 395.28 337.195 391.95 337.835C388.62 338.475 386.86 343.884 388.02 349.917C389.18 355.95 392.819 360.322 396.149 359.682Z" fill="black"/>
<path d="M-96.2609 386.258V398.057L244.193 534.923L264.898 532.532L-96.2609 386.258Z" fill="#E3E4E8"/>
<path d="M19.4412 543.717L11.4968 539.94L10.9158 441.26L19.4412 444.651V543.717Z" fill="#E3E4E8"/>
<path d="M112.904 326.418L272.133 391.169" stroke="#121212" stroke-width="1.10877" stroke-miterlimit="10"/>
<path d="M272.133 411.935L296.514 421.399" stroke="#121212" stroke-width="1.10877" stroke-linecap="round" stroke-linejoin="round"/>
<path d="M211.057 283.668L368.515 347.743" stroke="#121212" stroke-width="1.47836" stroke-miterlimit="10"/>
<path d="M130.614 284.562L170.906 300.898" stroke="#121212" stroke-width="1.10877" stroke-linecap="round" stroke-linejoin="round"/>
<path d="M137.161 102.667L165.899 114.321" stroke="#F7F7F7" stroke-width="1.10877" stroke-miterlimit="10"/>
<path d="M172.335 38.6643L214.007 55.0783" stroke="#121212" stroke-width="1.10877" stroke-miterlimit="10" stroke-linecap="round"/>
<path d="M130.886 57.2628L172.335 38.6643" stroke="#121212" stroke-width="1.10877" stroke-miterlimit="10"/>
<path d="M172 73.8554L214.013 55" stroke="#F7F7F7" stroke-width="1.10877" stroke-miterlimit="10"/>
<path d="M112.904 326.418L211.058 283.668" stroke="#121212" stroke-width="1.47836" stroke-linecap="round" stroke-linejoin="round"/>
<path d="M368.934 212.173L218.476 150.942L211.057 154.238L368.515 218.079" stroke="#121212" stroke-width="1.47836" stroke-linecap="round" stroke-linejoin="round"/>
<path d="M272.133 391.169L368.517 347.743" stroke="#121212" stroke-width="1.47836" stroke-miterlimit="10"/>
<path d="M272.133 411.935L368.517 368.509" stroke="#121212" stroke-width="1.47836" stroke-miterlimit="10"/>
<path d="M296.005 421.399L369.175 388.409" stroke="#121212" stroke-width="1.47836" stroke-miterlimit="10"/>
<path d="M-95.8132 387.323L264.897 532.532" stroke="#121212" stroke-width="1.10877" stroke-miterlimit="10"/>
<path d="M30.2513 467.663V516.084" stroke="#121212" stroke-width="1.10877" stroke-miterlimit="10"/>
<path d="M10.9158 441.26V550.996" stroke="#121212" stroke-width="1.10877" stroke-miterlimit="10"/>
<path d="M19.9332 444.769V541.828" stroke="#121212" stroke-width="1.10877" stroke-miterlimit="10"/>
<path d="M107.294 539.376L99.3437 535.593L98.7683 475.139L107.294 478.535V539.376Z" fill="#E3E4E8"/>
<path d="M98.7683 476.848V535.593" stroke="#121212" stroke-width="1.10877" stroke-miterlimit="10"/>
<path d="M272.133 391.169V411.935" stroke="#121212" stroke-width="1.10877" stroke-linecap="round" stroke-linejoin="round"/>
<path d="M132 57.5L171.994 73.9338" stroke="#F7F7F7" stroke-width="1.10877" stroke-linecap="round" stroke-linejoin="round"/>
<path d="M130.886 284.562V57.2627" stroke="#121212" stroke-width="1.10877" stroke-linejoin="round"/>
<path d="M137.25 102.801V67.3022L165.899 78.9172" stroke="#F7F7F7" stroke-width="1.10877" stroke-linecap="round" stroke-linejoin="round"/>
<path d="M139.586 103.359V71.0061L165.286 81.4255" stroke="#F7F7F7" stroke-width="1.10877" stroke-linecap="round" stroke-linejoin="round"/>
<path d="M376.985 222.733V190.374L402.685 200.793" stroke="#F7F7F7" stroke-width="1.10877" stroke-linecap="round" stroke-linejoin="round"/>
<path d="M165.899 78.917V114.321" stroke="#F7F7F7" stroke-width="1.10877" stroke-miterlimit="10"/>
<path d="M172.335 73.9336V299.333" stroke="#F7F7F7" stroke-width="1.10877" stroke-miterlimit="10"/>
<path d="M214.007 55.0781V152.819" stroke="#121212" stroke-width="1.10877" stroke-miterlimit="10"/>
<path d="M211.057 154.238V283.667" stroke="#121212" stroke-width="1.10877" stroke-miterlimit="10" stroke-linecap="round"/>
<path d="M112.904 326.552V365.47L296.262 438.869L368.656 406.253" stroke="#121212" stroke-width="1.47836" stroke-linecap="round" stroke-linejoin="round"/>
<path d="M296.513 421.399V438.869" stroke="#121212" stroke-width="1.10877" stroke-miterlimit="10"/>
<path d="M157.636 180.35C163.553 178.929 166.172 168.708 163.486 157.52C160.8 146.332 153.826 138.414 147.91 139.835C141.993 141.255 139.374 151.476 142.06 162.664C144.746 173.852 151.72 181.77 157.636 180.35Z" stroke="#121212" stroke-width="1.10877" stroke-miterlimit="10"/>
<path d="M157.393 187.712C165.46 185.775 169.032 171.84 165.37 156.587C161.708 141.333 152.199 130.538 144.131 132.475C136.064 134.412 132.492 148.347 136.154 163.601C139.816 178.854 149.325 189.649 157.393 187.712Z" stroke="#121212" stroke-width="1.10877" stroke-miterlimit="10"/>
<path d="M158.448 171.227C161.701 170.446 163.141 164.829 161.665 158.682C160.189 152.534 156.356 148.184 153.104 148.965C149.851 149.745 148.411 155.362 149.887 161.51C151.363 167.657 155.196 172.008 158.448 171.227Z" stroke="#121212" stroke-width="1.10877" stroke-miterlimit="10"/>
<path d="M157.638 249.084C163.554 247.664 166.173 237.443 163.487 226.255C160.801 215.067 153.828 207.149 147.911 208.569C141.995 209.99 139.376 220.211 142.062 231.399C144.748 242.587 151.721 250.505 157.638 249.084Z" stroke="#121212" stroke-width="1.10877" stroke-miterlimit="10"/>
<path d="M157.387 256.365C165.455 254.428 169.026 240.493 165.364 225.239C161.702 209.986 152.193 199.191 144.126 201.128C136.058 203.065 132.486 217 136.148 232.253C139.81 247.507 149.319 258.302 157.387 256.365Z" stroke="#121212" stroke-width="1.10877" stroke-miterlimit="10"/>
<path d="M158.178 239.299C161.431 238.518 162.871 232.902 161.395 226.754C159.919 220.607 156.086 216.256 152.834 217.037C149.581 217.818 148.141 223.434 149.617 229.582C151.093 235.73 154.926 240.08 158.178 239.299Z" stroke="#121212" stroke-width="1.10877" stroke-miterlimit="10"/>
<path d="M368.655 406.253L411.014 423.606" stroke="#121212" stroke-width="1.10877" stroke-miterlimit="10"/>
<path d="M375.293 187.407L403.942 199.022" stroke="#F7F7F7" stroke-width="1.10877" stroke-miterlimit="10"/>
<path d="M375.523 222.906L403.943 234.426" stroke="#F7F7F7" stroke-width="1.10877" stroke-miterlimit="10"/>
<path d="M368.935 177.373L410.384 158.769" stroke="#121212" stroke-width="1.10877" stroke-miterlimit="10"/>
<path d="M368.935 177.373L410.037 194.039" stroke="#F7F7F7" stroke-width="1.10877" stroke-linecap="round" stroke-linejoin="round"/>
<path d="M368.935 406.253V177.373" stroke="black" stroke-width="1.10877" stroke-linecap="round" stroke-linejoin="round"/>
<path d="M375.293 187.407V223.47" stroke="#F7F7F7" stroke-width="1.10877" stroke-miterlimit="10"/>
<path d="M395.769 300.518C401.686 299.098 404.304 288.877 401.618 277.689C398.932 266.501 391.959 258.583 386.042 260.003C380.126 261.424 377.507 271.645 380.193 282.833C382.879 294.021 389.853 301.939 395.769 300.518Z" stroke="#121212" stroke-width="1.10877" stroke-miterlimit="10"/>
<path d="M395.431 307.83C403.499 305.893 407.071 291.958 403.409 276.705C399.747 261.452 390.238 250.656 382.17 252.593C374.102 254.53 370.531 268.466 374.193 283.719C377.855 298.972 387.364 309.767 395.431 307.83Z" stroke="#121212" stroke-width="1.10877" stroke-miterlimit="10"/>
<path d="M396.399 291.344C399.651 290.563 401.091 284.946 399.615 278.799C398.139 272.651 394.306 268.301 391.054 269.082C387.802 269.862 386.362 275.479 387.838 281.626C389.314 287.774 393.147 292.125 396.399 291.344Z" stroke="#121212" stroke-width="1.10877" stroke-miterlimit="10"/>
<path d="M395.763 369.275C401.68 367.855 404.299 357.633 401.613 346.446C398.927 335.258 391.953 327.339 386.036 328.76C380.12 330.18 377.501 340.401 380.187 351.589C382.873 362.777 389.847 370.695 395.763 369.275Z" stroke="#121212" stroke-width="1.10877" stroke-miterlimit="10"/>
<path d="M395.424 376.484C403.492 374.547 407.063 360.612 403.401 345.358C399.739 330.105 390.231 319.31 382.163 321.247C374.095 323.184 370.524 337.119 374.186 352.372C377.848 367.626 387.356 378.421 395.424 376.484Z" stroke="#121212" stroke-width="1.10877" stroke-miterlimit="10"/>
<path d="M396.397 359.997C399.65 359.216 401.09 353.599 399.614 347.452C398.138 341.304 394.305 336.954 391.053 337.735C387.8 338.515 386.36 344.132 387.836 350.279C389.312 356.427 393.145 360.778 396.397 359.997Z" stroke="#121212" stroke-width="1.10877" stroke-miterlimit="10"/>
<mask id="mask1_4_4120" style="mask-type:luminance" maskUnits="userSpaceOnUse" x="223" y="195" width="140" height="92">
<path d="M223.874 195.894L362.477 249.097V286.042L223.874 232.839V195.894Z" fill="white"/>
</mask>
<g mask="url(#mask1_4_4120)">
<path d="M254.122 214.531V235.833H254.105C254.016 236.515 253.401 236.839 252.652 236.554C251.904 236.269 251.295 235.47 251.2 234.711H251.183V213.274L244.155 210.576V232.124C244.155 236.817 247.959 242.085 252.652 243.884C257.345 245.683 261.15 243.342 261.15 238.649V210.201C257.267 208.71 254.122 210.654 254.122 214.531Z" fill="#040001"/>
<path d="M335.181 268.539V247.236H335.158C335.069 246.471 334.454 245.672 333.711 245.387C332.968 245.102 332.354 245.426 332.259 246.113H332.242V274.438L325.214 271.74V243.292C325.214 238.599 329.018 236.253 333.711 238.057C338.404 239.856 342.209 245.124 342.209 249.817V278.265C338.326 276.774 335.181 272.416 335.181 268.539Z" fill="#040001"/>
<path d="M354.092 255.907C353.371 255.538 352.807 254.711 352.807 253.963C352.807 253.214 353.365 252.818 354.092 253.007V252.991L355.444 253.51C359.327 255.002 362.472 253.058 362.472 249.181L353.974 245.918C349.282 244.119 345.477 246.46 345.477 251.153C345.477 255.846 349.282 261.114 353.974 262.913L355.444 263.477V266.231L355.433 276.293L345.477 272.472V279.5L348.812 280.779L355.427 283.338L355.572 283.394L355.617 283.411L362.478 286.042V259.142L354.092 255.924V255.907Z" fill="#040001"/>
<path d="M240.847 210.95C240.847 206.257 237.042 200.989 232.349 199.19L230.925 198.598L223.874 195.894V232.845L232.394 236.113C237.087 237.912 240.892 235.571 240.892 230.878L240.847 210.956V210.95ZM233.863 229.632L230.925 228.504V205.732L233.863 206.86V218.744C233.863 218.744 233.863 218.788 233.869 218.805C233.869 218.878 233.869 218.95 233.863 219.029V229.632Z" fill="#040001"/>
<path d="M281.38 226.509C281.38 221.816 277.575 216.548 272.882 214.749L271.458 214.157L264.407 211.453V248.404L272.927 251.672C277.62 253.471 281.425 251.13 281.425 246.437L281.38 226.515V226.509ZM274.396 245.191L271.458 244.063V221.291L274.396 222.42V234.303C274.396 234.303 274.396 234.347 274.402 234.364C274.402 234.437 274.402 234.509 274.396 234.588V245.191Z" fill="#040001"/>
<path d="M301.682 248.812V234.342C301.682 229.649 297.877 224.381 293.184 222.582C288.491 220.783 284.687 223.124 284.687 227.816V247.689C284.687 252.382 288.491 257.65 293.184 259.449C297.877 261.248 301.682 258.907 301.682 254.214V248.817V248.812ZM294.653 251.393H294.637C294.547 252.074 293.933 252.398 293.184 252.113C292.436 251.829 291.827 251.03 291.732 250.27H291.715V230.627H291.732C291.821 229.945 292.436 229.621 293.184 229.906C293.933 230.191 294.542 230.99 294.637 231.75H294.653V251.393Z" fill="#040001"/>
<path d="M321.944 256.589V242.119C321.944 237.426 318.14 232.157 313.447 230.359C308.754 228.56 304.949 230.9 304.949 235.593V255.466C304.949 260.158 308.754 265.427 313.447 267.226C318.14 269.025 321.944 266.684 321.944 261.991V256.594V256.589ZM314.916 259.17H314.9C314.81 259.851 314.196 260.175 313.447 259.89C312.698 259.605 312.089 258.806 311.994 258.047H311.978V238.404H311.994C312.084 237.722 312.698 237.398 313.447 237.683C314.196 237.968 314.805 238.767 314.9 239.526H314.916V259.17Z" fill="#040001"/>
</g>
<path d="M-68.1591 416.929L10.9165 530.459" stroke="#121212" stroke-width="1.10877" stroke-miterlimit="10"/>
<path d="M10.9161 511.581L-58.4328 413.265" stroke="#121212" stroke-width="1.10877" stroke-miterlimit="10"/>
<path d="M-25.5148 459.926L6.26295 439.271" stroke="#121212" stroke-width="1.10877" stroke-miterlimit="10"/>
<path d="M19.9332 453.266L81.6226 541.828" stroke="#121212" stroke-width="1.10877" stroke-miterlimit="10"/>
<path d="M28.76 448.316L92.0529 538.052" stroke="#121212" stroke-width="1.10877" stroke-linecap="round" stroke-linejoin="round"/>
<path d="M38.7606 452.679L66.6499 492.223" stroke="#121212" stroke-width="1.10877" stroke-linecap="round" stroke-linejoin="round"/>
<path d="M10.9154 499.486L-12.6888 466.021" stroke="#121212" stroke-width="1.10877" stroke-linecap="round" stroke-linejoin="round"/>
<path d="M62.5774 495.581L94.3551 474.926" stroke="#121212" stroke-width="1.10877" stroke-miterlimit="10"/>
<path d="M10.9168 451.087L-9.62592 463.887L-19.6375 468.261L10.9168 448.886" stroke="#121212" stroke-width="1.10877" stroke-linecap="round" stroke-linejoin="round"/>
<path d="M130.614 284.562L-96.2609 386.258V398.058L244.193 534.923" stroke="#121212" stroke-width="1.47836" stroke-miterlimit="10"/>
<path d="M88.3718 347.039L87.5226 346.05V343.715L86.3549 342.385L85.7683 339.77L82.8688 337.212L83.8688 335.653L85.6398 335.485L85.3326 329.435L86.4555 328.792L88.2098 332.496L89.9864 332.34L93.6904 332.776L94.3832 330.709L95.6011 330.887L97.3665 334.826L96.6458 337.48L97.8638 340.273L96.1933 343.251L97.8638 345.055L97.3218 347.039L92.6401 346.474L88.3718 347.039Z" fill="#F7F7F7"/>
<path d="M55.2419 343.821L54.3928 342.838V340.497L53.2251 339.167L52.443 337.418L49.0965 335.653L48.9233 333.893L51.2977 333.066L49.9177 327.519L50.7334 326.317L52.929 328.547L53.8341 330.217L55.9124 329.446L57.4599 329.692L59.1974 328.988L59.0354 327.228L60.9852 327.239L62.9071 331.15L62.4657 333.58L63.9406 336.983L63.0635 340.033L64.7339 341.838L64.1864 343.821L59.5103 343.257L55.2419 343.821Z" fill="#F7F7F7"/>
<path d="M85.444 351.033L77.9856 347.62L69.7506 347.039L63.6107 349.329L62.7671 342.67L56.6999 344.19L55.4093 355.352L52.5377 361.782L50.2471 371.023L51.7109 378.576L54.9959 384.292L60.1246 388.359L61.4431 400.549L64.2923 401.845L68.9461 399.37L73.5608 395.102L72.3708 392.761L69.8065 391.582L68.1081 392.761L68.2199 390.437L75.7229 389.8H77.5107L79.0192 399.912L80.0304 403.225L82.7846 403.879L87.8463 400.773L91.9135 396.834L90.4106 394.795L87.3994 393.622L86.1535 394.795L85.9132 387.079C85.9132 387.079 96.6008 381.481 94.7963 372.867L96.6567 359.643L97.0924 353L96.1818 347.033H89.595L88.8854 354.24L85.4328 351.022L85.444 351.033Z" fill="#13E8C2"/>
<path d="M68.2252 390.437C60.7501 390.001 56.3868 386.493 53.8448 382.794C51.124 378.822 50.1407 373.928 50.7944 369.162C54.1968 344.413 74.3092 347.128 74.3092 347.128C74.3092 347.128 82.7453 347.005 88.8908 354.251" stroke="black" stroke-width="1.47836" stroke-linecap="round" stroke-linejoin="round"/>
<path d="M79.0245 389.499C75.6389 390.258 73.1081 390.303 73.1081 390.303C71.3483 390.487 69.7225 390.521 68.2253 390.437" stroke="black" stroke-width="1.47836" stroke-linecap="round" stroke-linejoin="round"/>
<path d="M96.1934 347.039C99.4114 357.14 93.0592 374.001 93.0592 374.001" stroke="black" stroke-width="1.47836" stroke-linecap="round" stroke-linejoin="round"/>
<path d="M86.4434 365.576C86.4434 365.576 89.7843 355.833 89.5999 347.039" stroke="black" stroke-width="1.47836" stroke-linecap="round" stroke-linejoin="round"/>
<path d="M85.9186 396.845C86.455 393.191 85.9186 387.091 85.9186 387.091C85.9186 387.091 96.757 382.314 94.8017 368.475" stroke="black" stroke-width="1.47836" stroke-linecap="round" stroke-linejoin="round"/>
<path d="M86.1586 394.806C86.1586 394.806 87.1252 392.717 88.6559 394.052" stroke="black" stroke-width="1.47836" stroke-linecap="round" stroke-linejoin="round"/>
<path d="M87.8575 395.555C87.8575 395.555 89.1369 393.298 90.4219 394.8" stroke="black" stroke-width="1.47836" stroke-linecap="round" stroke-linejoin="round"/>
<path d="M89.5617 396.247C89.5617 396.247 90.7629 394.75 91.1875 395.42C92.4501 397.398 91.4333 398.231 85.8074 402.264C82.7626 404.449 81.0083 404.052 80.0362 403.231C79.3043 402.611 78.9636 401.644 78.9915 400.689C79.1814 394.08 77.5166 389.806 77.5166 389.806" stroke="black" stroke-width="1.47836" stroke-linecap="round" stroke-linejoin="round"/>
<path d="M68.1976 390.437C68.1976 390.437 68.4155 391.147 67.8792 394.806" stroke="black" stroke-width="1.47836" stroke-linecap="round" stroke-linejoin="round"/>
<path d="M68.1138 392.767C68.1138 392.767 69.0803 390.677 70.6111 392.012" stroke="black" stroke-width="1.47836" stroke-linecap="round" stroke-linejoin="round"/>
<path d="M69.8115 393.515C69.8115 393.515 71.0909 391.258 72.3759 392.761" stroke="black" stroke-width="1.47836" stroke-linecap="round" stroke-linejoin="round"/>
<path d="M71.5157 394.208C71.5157 394.208 72.7169 392.711 73.1415 393.381C74.4041 395.359 73.3873 396.191 67.7614 400.225C64.7166 402.409 62.9623 402.013 61.9902 401.192C61.2584 400.571 60.9176 399.605 60.9511 398.644C61.1857 392.079 60.1243 388.364 60.1243 388.364" stroke="black" stroke-width="1.47836" stroke-linecap="round" stroke-linejoin="round"/>
<path d="M56.1078 335.34C56.1078 335.34 58.0912 333.195 60.5382 333.737C60.5382 333.737 64.4601 333.742 59.7169 338.346C59.1862 338.86 58.8174 337.653 58.1414 338.184L56.1078 335.34Z" fill="#BFBFBF"/>
<path d="M51.2971 333.066C51.2971 333.066 48.5317 326.463 51.2134 326.329C51.2134 326.329 52.3028 325.82 54.5431 332.904" stroke="#121212" stroke-width="1.47836" stroke-linecap="round" stroke-linejoin="round"/>
<path d="M55.6442 340.34C54.5436 340.731 54.3815 341.849 54.3815 341.849" stroke="#121212" stroke-width="1.47836" stroke-linecap="round" stroke-linejoin="round"/>
<path d="M59.0521 335.1C61.1695 333.949 60.3706 331.826 60.3706 331.826C59.2198 327.77 56.6554 330.077 56.6554 330.077" stroke="#121212" stroke-width="1.47836" stroke-linecap="round" stroke-linejoin="round"/>
<path d="M57.1746 334.631C58.5545 334.083 58.0238 331.77 56.6829 330.072C55.3421 328.373 53.8337 330.217 53.8337 330.217" stroke="#121212" stroke-width="1.47836" stroke-linecap="round" stroke-linejoin="round"/>
<path d="M54.5432 340.737C54.5432 340.737 53.4091 337.58 49.8224 336.161C49.2078 335.921 48.7218 335.351 48.6715 334.714C48.6212 334.077 48.9732 333.396 50.6101 333.228C50.6101 333.228 52.6549 333.295 53.3644 334.564C53.3644 334.564 56.5656 333.664 57.6607 338.078" stroke="#121212" stroke-width="1.47836" stroke-linecap="round" stroke-linejoin="round"/>
<path d="M59.6166 330.172C58.3428 327.032 59.1529 326.714 59.9406 326.915C60.477 327.055 60.9351 327.407 61.2535 327.854C64.2927 332.083 62.4659 333.58 62.4659 333.58C65.3096 337.469 62.7787 339.72 62.7787 339.72C66.3431 340.748 64.4324 343.407 64.4324 343.407C64.4324 343.407 60.0412 341.81 55.6891 344.435C55.6891 344.435 54.4879 344.19 54.3762 341.849" stroke="#121212" stroke-width="1.47836" stroke-linecap="round" stroke-linejoin="round"/>
<path d="M85.6389 335.485C85.6389 335.485 83.7785 328.574 86.4546 328.792C86.4546 328.792 87.6054 328.429 88.8792 335.753" stroke="#121212" stroke-width="1.47836" stroke-linecap="round" stroke-linejoin="round"/>
<path d="M89.4052 343.251C88.8912 343.251 88.3661 343.536 88.3661 343.536" stroke="#121212" stroke-width="1.47836" stroke-linecap="round" stroke-linejoin="round"/>
<path d="M94.8018 335.457C94.1984 331.284 91.3491 333.228 91.3491 333.228" stroke="#121212" stroke-width="1.47836" stroke-linecap="round" stroke-linejoin="round"/>
<path d="M91.9351 335.916L91.3819 333.234C90.2757 331.374 88.5383 332.999 88.5383 332.999" stroke="#121212" stroke-width="1.47836" stroke-linecap="round" stroke-linejoin="round"/>
<path d="M94.2768 333.72C93.4332 330.441 94.2768 330.228 95.031 330.535C95.5394 330.742 95.9528 331.156 96.2098 331.642C98.6624 336.234 96.6456 337.48 96.6456 337.48C98.9473 341.709 96.1372 343.609 96.1372 343.609C99.5339 345.106 97.288 347.48 97.288 347.48C97.288 347.48 93.1482 345.313 88.4888 347.341C88.4888 347.341 85.796 345.514 88.3715 343.536C86.6787 342.603 86.2988 341.095 86.2988 341.095C85.8966 339.569 83.7736 338.357 83.7736 338.357C83.1925 338.039 82.7903 337.407 82.8238 336.77C82.8574 336.133 83.2987 335.508 84.9468 335.558C84.9468 335.558 86.9637 335.899 87.5 337.245" stroke="#121212" stroke-width="1.47836" stroke-linecap="round" stroke-linejoin="round"/>
<path d="M56.7002 344.19C56.7002 344.19 57.2198 352.056 55.2644 356.201" stroke="black" stroke-width="1.47836" stroke-linecap="round" stroke-linejoin="round"/>
<path d="M62.767 342.67C62.767 342.67 64.091 347.637 63.6106 349.329" stroke="#121212" stroke-width="1.47836" stroke-miterlimit="10"/>
<path d="M122.815 363.995L121.966 363.012V360.671L120.798 359.341L120.206 356.732L117.312 354.168L118.312 352.609L120.083 352.441L119.776 346.391L120.899 345.748L122.653 349.452L124.424 349.296L128.133 349.732L128.821 347.665L130.044 347.843L131.81 351.782L131.089 354.436L132.301 357.229L130.636 360.207L132.301 362.011L131.759 363.995L127.083 363.431L122.815 363.995Z" fill="#F7F7F7"/>
<path d="M89.6787 360.777L88.8295 359.794V357.453L87.6675 356.123L86.8853 354.374L83.5388 352.609L83.36 350.849L85.74 350.022L84.3601 344.475L85.1758 343.273L87.3714 345.503L88.2764 347.173L90.3547 346.408L91.9023 346.648L93.6342 345.949L93.4722 344.184L95.4276 344.195L97.3494 348.106L96.908 350.536L98.383 353.939L97.5058 356.989L99.1707 358.794L98.6288 360.777L93.9526 360.213L89.6787 360.777Z" fill="#F7F7F7"/>
<path d="M119.887 367.989L112.429 364.576L104.194 363.995L98.0537 366.285L97.2101 359.626L91.1428 361.146L89.8523 372.308L86.9807 378.738L84.6901 387.979L86.1538 395.532L89.4388 401.248L94.5675 405.315L95.886 417.505L98.7353 418.801L103.389 416.326L108.004 412.058L106.814 409.717L104.249 408.538L102.551 409.717L102.663 407.393L110.166 406.756H111.954L113.462 416.868L114.473 420.181L117.228 420.835L122.289 417.729L126.356 413.79L124.854 411.751L121.842 410.578L120.596 411.751L120.356 404.035C120.356 404.035 131.044 398.437 129.239 389.823L131.1 376.599L131.535 369.956L130.625 363.989H124.038L123.328 371.196L119.876 367.978L119.887 367.989Z" fill="#6C00FF"/>
<path d="M102.668 407.393C95.193 406.957 90.8297 403.449 88.2877 399.75C85.567 395.778 84.5837 390.884 85.2373 386.119C88.6397 361.369 108.752 364.084 108.752 364.084C108.752 364.084 117.188 363.961 123.334 371.207" stroke="black" stroke-width="1.47836" stroke-linecap="round" stroke-linejoin="round"/>
<path d="M113.468 406.454C110.082 407.214 107.551 407.259 107.551 407.259C105.791 407.443 104.165 407.477 102.668 407.393" stroke="black" stroke-width="1.47836" stroke-linecap="round" stroke-linejoin="round"/>
<path d="M130.63 363.995C133.848 374.096 127.496 390.957 127.496 390.957" stroke="black" stroke-width="1.47836" stroke-linecap="round" stroke-linejoin="round"/>
<path d="M120.886 382.532C120.886 382.532 124.227 372.788 124.043 363.995" stroke="black" stroke-width="1.47836" stroke-linecap="round" stroke-linejoin="round"/>
<path d="M120.362 413.801C120.898 410.147 120.362 404.047 120.362 404.047C120.362 404.047 131.2 399.27 129.245 385.431" stroke="black" stroke-width="1.47836" stroke-linecap="round" stroke-linejoin="round"/>
<path d="M120.602 411.762C120.602 411.762 121.568 409.673 123.099 411.008" stroke="black" stroke-width="1.47836" stroke-linecap="round" stroke-linejoin="round"/>
<path d="M122.3 412.511C122.3 412.511 123.58 410.254 124.865 411.756" stroke="black" stroke-width="1.47836" stroke-linecap="round" stroke-linejoin="round"/>
<path d="M124.005 413.203C124.005 413.203 125.206 411.706 125.63 412.376C126.893 414.354 125.876 415.187 120.25 419.22C117.206 421.405 115.451 421.008 114.479 420.187C113.747 419.567 113.407 418.6 113.434 417.645C113.624 411.036 111.96 406.762 111.96 406.762" stroke="black" stroke-width="1.47836" stroke-linecap="round" stroke-linejoin="round"/>
<path d="M102.641 407.393C102.641 407.393 102.859 408.103 102.322 411.762" stroke="black" stroke-width="1.47836" stroke-linecap="round" stroke-linejoin="round"/>
<path d="M102.557 409.723C102.557 409.723 103.524 407.633 105.054 408.969" stroke="black" stroke-width="1.47836" stroke-linecap="round" stroke-linejoin="round"/>
<path d="M104.255 410.471C104.255 410.471 105.534 408.214 106.819 409.717" stroke="black" stroke-width="1.47836" stroke-linecap="round" stroke-linejoin="round"/>
<path d="M105.959 411.164C105.959 411.164 107.16 409.667 107.584 410.337C108.847 412.315 107.83 413.147 102.204 417.181C99.1596 419.366 97.4053 418.969 96.4332 418.148C95.7013 417.528 95.3605 416.561 95.3941 415.6C95.6287 409.036 94.5672 405.32 94.5672 405.32" stroke="black" stroke-width="1.47836" stroke-linecap="round" stroke-linejoin="round"/>
<path d="M90.5508 352.296C90.5508 352.296 92.5341 350.151 94.9811 350.693C94.9811 350.693 98.9031 350.698 94.1599 355.302C93.6291 355.816 93.2604 354.609 92.5844 355.14L90.5508 352.296Z" fill="#BFBFBF"/>
<path d="M85.7405 350.022C85.7405 350.022 82.975 343.419 85.6566 343.285C85.6566 343.285 86.7461 342.776 88.9864 349.86" stroke="#121212" stroke-width="1.47836" stroke-linecap="round" stroke-linejoin="round"/>
<path d="M90.0871 357.296C88.9865 357.687 88.8245 358.805 88.8245 358.805" stroke="#121212" stroke-width="1.47836" stroke-linecap="round" stroke-linejoin="round"/>
<path d="M93.4951 352.056C95.6124 350.905 94.8135 348.782 94.8135 348.782C93.6626 344.726 91.0983 347.033 91.0983 347.033" stroke="#121212" stroke-width="1.47836" stroke-linecap="round" stroke-linejoin="round"/>
<path d="M91.6175 351.587C92.9975 351.039 92.4667 348.726 91.1259 347.028C89.7851 345.329 88.2766 347.173 88.2766 347.173" stroke="#121212" stroke-width="1.47836" stroke-linecap="round" stroke-linejoin="round"/>
<path d="M88.9862 357.693C88.9862 357.693 87.852 354.536 84.2653 353.117C83.6508 352.877 83.1647 352.307 83.1144 351.67C83.0642 351.034 83.4161 350.352 85.0531 350.184C85.0531 350.184 87.0978 350.251 87.8074 351.52C87.8074 351.52 91.0086 350.62 92.1036 355.034" stroke="#121212" stroke-width="1.47836" stroke-linecap="round" stroke-linejoin="round"/>
<path d="M94.0595 347.128C92.7857 343.989 93.5958 343.67 94.3836 343.871C94.9199 344.011 95.378 344.363 95.6964 344.81C98.7357 349.039 96.9088 350.536 96.9088 350.536C99.7524 354.425 97.2216 356.676 97.2216 356.676C100.786 357.704 98.8753 360.363 98.8753 360.363C98.8753 360.363 94.4841 358.766 90.132 361.391C90.132 361.391 88.9308 361.146 88.8191 358.805" stroke="#121212" stroke-width="1.47836" stroke-linecap="round" stroke-linejoin="round"/>
<path d="M120.082 352.441C120.082 352.441 118.222 345.53 120.898 345.748C120.898 345.748 122.049 345.385 123.323 352.709" stroke="#121212" stroke-width="1.47836" stroke-linecap="round" stroke-linejoin="round"/>
<path d="M123.848 360.207C123.334 360.207 122.809 360.492 122.809 360.492" stroke="#121212" stroke-width="1.47836" stroke-linecap="round" stroke-linejoin="round"/>
<path d="M129.245 352.413C128.642 348.24 125.792 350.184 125.792 350.184" stroke="#121212" stroke-width="1.47836" stroke-linecap="round" stroke-linejoin="round"/>
<path d="M126.378 352.872L125.825 350.19C124.719 348.33 122.982 349.955 122.982 349.955" stroke="#121212" stroke-width="1.47836" stroke-linecap="round" stroke-linejoin="round"/>
<path d="M128.72 350.676C127.876 347.397 128.72 347.184 129.474 347.492C129.982 347.698 130.396 348.112 130.653 348.598C133.105 353.19 131.089 354.436 131.089 354.436C133.39 358.665 130.58 360.565 130.58 360.565C133.977 362.062 131.731 364.436 131.731 364.436C131.731 364.436 127.591 362.269 122.932 364.297C122.932 364.297 120.239 362.47 122.815 360.492C121.122 359.559 120.742 358.051 120.742 358.051C120.34 356.525 118.217 355.313 118.217 355.313C117.635 354.995 117.233 354.363 117.267 353.726C117.3 353.09 117.742 352.464 119.39 352.514C119.39 352.514 121.407 352.855 121.943 354.201" stroke="#121212" stroke-width="1.47836" stroke-linecap="round" stroke-linejoin="round"/>
<path d="M91.1431 361.146C91.1431 361.146 91.6627 369.012 89.7073 373.157" stroke="black" stroke-width="1.47836" stroke-linecap="round" stroke-linejoin="round"/>
<path d="M97.2103 359.626C97.2103 359.626 98.5343 364.593 98.0538 366.285" stroke="#121212" stroke-width="1.47836" stroke-miterlimit="10"/>
<path d="M159.381 374.146L158.531 373.163V370.822L157.364 369.493L156.777 366.884L153.878 364.319L154.878 362.761L156.649 362.593L156.341 356.542L157.464 355.9L159.219 359.604L160.995 359.448L164.699 359.883L165.392 357.816L166.61 357.995L168.375 361.934L167.655 364.587L168.873 367.381L167.202 370.359L168.873 372.163L168.325 374.146L163.649 373.582L159.381 374.146Z" fill="#F7F7F7"/>
<path d="M126.25 370.928L125.4 369.945V367.604L124.233 366.274L123.451 364.526L120.104 362.76L119.931 361.001L122.305 360.174L120.925 354.626L121.741 353.425L123.937 355.654L124.842 357.324L126.92 356.553L128.468 356.799L130.205 356.101L130.043 354.335L131.993 354.347L133.915 358.257L133.473 360.688L134.948 364.09L134.071 367.14L135.742 368.945L135.194 370.928L130.518 370.364L126.25 370.928Z" fill="#F7F7F7"/>
<path d="M156.453 378.141L148.994 374.727L140.759 374.146L134.62 376.437L133.776 369.777L127.709 371.297L126.418 382.459L123.546 388.89L121.256 398.13L122.72 405.684L126.005 411.399L131.133 415.466L132.452 427.657L135.301 428.953L139.955 426.478L144.57 422.209L143.38 419.869L140.815 418.69L139.117 419.869L139.229 417.544L146.732 416.908H148.52L150.028 427.02L151.039 430.333L153.793 430.986L158.855 427.88L162.922 423.941L161.419 421.902L158.408 420.729L157.162 421.902L156.922 414.187C156.922 414.187 167.61 408.589 165.805 399.974L167.665 386.75L168.101 380.107L167.191 374.141H160.604L159.894 381.348L156.442 378.13L156.453 378.141Z" fill="#6C00FF"/>
<path d="M139.234 417.544C131.759 417.109 127.396 413.6 124.854 409.902C122.133 405.93 121.15 401.036 121.803 396.27C125.206 371.52 145.318 374.236 145.318 374.236C145.318 374.236 153.754 374.113 159.9 381.359" stroke="black" stroke-width="1.47836" stroke-linecap="round" stroke-linejoin="round"/>
<path d="M150.033 416.606C146.648 417.366 144.117 417.41 144.117 417.41C142.357 417.595 140.731 417.628 139.234 417.545" stroke="black" stroke-width="1.47836" stroke-linecap="round" stroke-linejoin="round"/>
<path d="M167.201 374.146C170.419 384.247 164.067 401.108 164.067 401.108" stroke="black" stroke-width="1.47836" stroke-linecap="round" stroke-linejoin="round"/>
<path d="M157.452 392.683C157.452 392.683 160.793 382.94 160.609 374.146" stroke="black" stroke-width="1.47836" stroke-linecap="round" stroke-linejoin="round"/>
<path d="M156.927 423.953C157.464 420.299 156.927 414.198 156.927 414.198C156.927 414.198 167.766 409.422 165.81 395.583" stroke="black" stroke-width="1.47836" stroke-linecap="round" stroke-linejoin="round"/>
<path d="M157.167 421.913C157.167 421.913 158.134 419.824 159.665 421.159" stroke="black" stroke-width="1.47836" stroke-linecap="round" stroke-linejoin="round"/>
<path d="M158.866 422.662C158.866 422.662 160.146 420.405 161.431 421.908" stroke="black" stroke-width="1.47836" stroke-linecap="round" stroke-linejoin="round"/>
<path d="M160.571 423.355C160.571 423.355 161.772 421.857 162.196 422.528C163.459 424.506 162.442 425.338 156.816 429.372C153.771 431.556 152.017 431.159 151.045 430.338C150.313 429.718 149.972 428.752 150 427.796C150.19 421.187 148.525 416.913 148.525 416.913" stroke="black" stroke-width="1.47836" stroke-linecap="round" stroke-linejoin="round"/>
<path d="M139.206 417.545C139.206 417.545 139.424 418.254 138.888 421.914" stroke="black" stroke-width="1.47836" stroke-linecap="round" stroke-linejoin="round"/>
<path d="M139.123 419.874C139.123 419.874 140.089 417.785 141.62 419.12" stroke="black" stroke-width="1.47836" stroke-linecap="round" stroke-linejoin="round"/>
<path d="M140.82 420.623C140.82 420.623 142.1 418.366 143.385 419.869" stroke="black" stroke-width="1.47836" stroke-linecap="round" stroke-linejoin="round"/>
<path d="M142.524 421.315C142.524 421.315 143.726 419.818 144.15 420.489C145.413 422.466 144.396 423.299 138.77 427.332C135.725 429.517 133.971 429.12 132.999 428.299C132.267 427.679 131.926 426.712 131.96 425.751C132.195 419.187 131.133 415.472 131.133 415.472" stroke="black" stroke-width="1.47836" stroke-linecap="round" stroke-linejoin="round"/>
<path d="M127.117 362.448C127.117 362.448 129.1 360.302 131.547 360.844C131.547 360.844 135.469 360.85 130.726 365.453C130.195 365.967 129.826 364.76 129.15 365.291L127.117 362.448Z" fill="#BFBFBF"/>
<path d="M122.306 360.174C122.306 360.174 119.54 353.57 122.222 353.436C122.222 353.436 123.312 352.928 125.552 360.012" stroke="#121212" stroke-width="1.47836" stroke-linecap="round" stroke-linejoin="round"/>
<path d="M126.653 367.448C125.552 367.839 125.39 368.956 125.39 368.956" stroke="#121212" stroke-width="1.47836" stroke-linecap="round" stroke-linejoin="round"/>
<path d="M130.061 362.207C132.178 361.056 131.379 358.933 131.379 358.933C130.229 354.877 127.664 357.185 127.664 357.185" stroke="#121212" stroke-width="1.47836" stroke-linecap="round" stroke-linejoin="round"/>
<path d="M128.183 361.738C129.563 361.19 129.033 358.878 127.692 357.179C126.351 355.481 124.842 357.324 124.842 357.324" stroke="#121212" stroke-width="1.47836" stroke-linecap="round" stroke-linejoin="round"/>
<path d="M125.552 367.844C125.552 367.844 124.418 364.688 120.831 363.269C120.217 363.029 119.731 362.459 119.68 361.822C119.63 361.185 119.982 360.503 121.619 360.336C121.619 360.336 123.664 360.403 124.373 361.671C124.373 361.671 127.574 360.771 128.669 365.185" stroke="#121212" stroke-width="1.47836" stroke-linecap="round" stroke-linejoin="round"/>
<path d="M130.625 357.28C129.352 354.14 130.162 353.821 130.949 354.023C131.486 354.162 131.944 354.514 132.262 354.961C135.301 359.19 133.475 360.688 133.475 360.688C136.318 364.576 133.788 366.827 133.788 366.827C137.352 367.855 135.441 370.515 135.441 370.515C135.441 370.515 131.05 368.917 126.698 371.543C126.698 371.543 125.497 371.297 125.385 368.956" stroke="#121212" stroke-width="1.47836" stroke-linecap="round" stroke-linejoin="round"/>
<path d="M156.648 362.593C156.648 362.593 154.787 355.682 157.463 355.9C157.463 355.9 158.614 355.537 159.888 362.861" stroke="#121212" stroke-width="1.47836" stroke-linecap="round" stroke-linejoin="round"/>
<path d="M160.414 370.358C159.9 370.358 159.375 370.643 159.375 370.643" stroke="#121212" stroke-width="1.47836" stroke-linecap="round" stroke-linejoin="round"/>
<path d="M165.811 362.565C165.207 358.391 162.358 360.336 162.358 360.336" stroke="#121212" stroke-width="1.47836" stroke-linecap="round" stroke-linejoin="round"/>
<path d="M162.944 363.023L162.391 360.341C161.285 358.481 159.547 360.107 159.547 360.107" stroke="#121212" stroke-width="1.47836" stroke-linecap="round" stroke-linejoin="round"/>
<path d="M165.286 360.827C164.442 357.548 165.286 357.336 166.04 357.643C166.548 357.85 166.962 358.263 167.219 358.749C169.671 363.341 167.654 364.587 167.654 364.587C169.956 368.817 167.146 370.716 167.146 370.716C170.543 372.213 168.297 374.588 168.297 374.588C168.297 374.588 164.157 372.42 159.498 374.448C159.498 374.448 156.805 372.621 159.38 370.643C157.688 369.71 157.308 368.202 157.308 368.202C156.905 366.677 154.782 365.464 154.782 365.464C154.201 365.146 153.799 364.515 153.833 363.878C153.866 363.241 154.308 362.615 155.956 362.665C155.956 362.665 157.973 363.006 158.509 364.353" stroke="#121212" stroke-width="1.47836" stroke-linecap="round" stroke-linejoin="round"/>
<path d="M127.709 371.297C127.709 371.297 128.229 379.163 126.273 383.308" stroke="black" stroke-width="1.47836" stroke-linecap="round" stroke-linejoin="round"/>
<path d="M133.776 369.777C133.776 369.777 135.1 374.744 134.619 376.437" stroke="#121212" stroke-width="1.47836" stroke-miterlimit="10"/>
<path d="M198.074 385.275L197.225 384.286V381.951L196.057 380.621L195.471 378.007L192.571 375.448L193.571 373.889L195.348 373.716L195.035 367.671L196.158 367.029L197.912 370.733L199.689 370.576L203.393 371.012L204.086 368.945L205.304 369.124L207.069 373.062L206.348 375.716L207.566 378.509L205.896 381.487L207.566 383.292L207.024 385.275L202.343 384.711L198.074 385.275Z" fill="#F7F7F7"/>
<path d="M164.944 382.057L164.095 381.074V378.733L162.928 377.403L162.145 375.654L158.799 373.889L158.626 372.129L161 371.302L159.62 365.755L160.436 364.553L162.631 366.783L163.537 368.453L165.615 367.682L167.162 367.928L168.9 367.224L168.738 365.464L170.688 365.475L172.61 369.386L172.168 371.816L173.643 375.219L172.766 378.269L174.436 380.074L173.889 382.057L169.213 381.493L164.944 382.057Z" fill="#F7F7F7"/>
<path d="M195.146 389.264L187.688 385.85L179.453 385.269L173.313 387.56L172.47 380.9L166.402 382.42L165.112 393.582L162.24 400.013L159.95 409.253L161.413 416.807L164.698 422.522L169.827 426.589L171.146 438.78L173.995 440.076L178.649 437.601L183.263 433.332L182.073 430.992L179.509 429.813L177.811 430.992L177.922 428.668L185.425 428.031H187.213L188.722 438.143L189.733 441.456L192.487 442.109L197.549 439.003L201.616 435.064L200.113 433.025L197.102 431.852L195.856 433.025L195.616 425.31C195.616 425.31 206.303 419.712 204.499 411.097L206.359 397.873L206.795 391.23L205.884 385.264H199.297L198.588 392.471L195.135 389.253L195.146 389.264Z" fill="#13E8C2"/>
<path d="M177.928 428.673C170.453 428.237 166.089 424.729 163.547 421.03C160.827 417.058 159.843 412.164 160.497 407.399C163.899 382.649 184.012 385.364 184.012 385.364C184.012 385.364 192.448 385.241 198.593 392.487" stroke="black" stroke-width="1.47836" stroke-linecap="round" stroke-linejoin="round"/>
<path d="M188.727 427.735C185.342 428.494 182.811 428.539 182.811 428.539C181.051 428.724 179.425 428.757 177.928 428.673" stroke="black" stroke-width="1.47836" stroke-linecap="round" stroke-linejoin="round"/>
<path d="M205.896 385.275C209.114 395.376 202.762 412.237 202.762 412.237" stroke="black" stroke-width="1.47836" stroke-linecap="round" stroke-linejoin="round"/>
<path d="M196.147 403.812C196.147 403.812 199.488 394.069 199.304 385.275" stroke="black" stroke-width="1.47836" stroke-linecap="round" stroke-linejoin="round"/>
<path d="M195.621 435.081C196.157 431.427 195.621 425.327 195.621 425.327C195.621 425.327 206.46 420.55 204.504 406.711" stroke="black" stroke-width="1.47836" stroke-linecap="round" stroke-linejoin="round"/>
<path d="M195.861 433.042C195.861 433.042 196.828 430.953 198.358 432.288" stroke="black" stroke-width="1.47836" stroke-linecap="round" stroke-linejoin="round"/>
<path d="M197.56 433.791C197.56 433.791 198.839 431.534 200.124 433.036" stroke="black" stroke-width="1.47836" stroke-linecap="round" stroke-linejoin="round"/>
<path d="M199.264 434.483C199.264 434.483 200.465 432.986 200.89 433.657C202.153 435.634 201.136 436.467 195.51 440.5C192.465 442.685 190.711 442.288 189.739 441.467C189.007 440.847 188.666 439.88 188.694 438.925C188.884 432.316 187.219 428.042 187.219 428.042" stroke="black" stroke-width="1.47836" stroke-linecap="round" stroke-linejoin="round"/>
<path d="M177.9 428.673C177.9 428.673 178.118 429.383 177.582 433.042" stroke="black" stroke-width="1.47836" stroke-linecap="round" stroke-linejoin="round"/>
<path d="M177.816 430.997C177.816 430.997 178.783 428.908 180.314 430.243" stroke="black" stroke-width="1.47836" stroke-linecap="round" stroke-linejoin="round"/>
<path d="M179.514 431.752C179.514 431.752 180.793 429.495 182.078 430.997" stroke="black" stroke-width="1.47836" stroke-linecap="round" stroke-linejoin="round"/>
<path d="M181.218 432.444C181.218 432.444 182.419 430.947 182.844 431.617C184.107 433.595 183.09 434.427 177.464 438.461C174.419 440.646 172.665 440.249 171.693 439.428C170.961 438.807 170.62 437.841 170.654 436.88C170.888 430.316 169.827 426.6 169.827 426.6" stroke="black" stroke-width="1.47836" stroke-linecap="round" stroke-linejoin="round"/>
<path d="M165.81 373.576C165.81 373.576 167.794 371.431 170.241 371.973C170.241 371.973 174.163 371.978 169.419 376.582C168.889 377.096 168.52 375.889 167.844 376.42L165.81 373.576Z" fill="#BFBFBF"/>
<path d="M161 371.302C161 371.302 158.234 364.699 160.916 364.565C160.916 364.565 162.005 364.056 164.246 371.14" stroke="#121212" stroke-width="1.47836" stroke-linecap="round" stroke-linejoin="round"/>
<path d="M165.347 378.576C164.246 378.967 164.084 380.085 164.084 380.085" stroke="#121212" stroke-width="1.47836" stroke-linecap="round" stroke-linejoin="round"/>
<path d="M168.755 373.336C170.872 372.185 170.073 370.062 170.073 370.062C168.922 366.006 166.358 368.313 166.358 368.313" stroke="#121212" stroke-width="1.47836" stroke-linecap="round" stroke-linejoin="round"/>
<path d="M166.877 372.867C168.257 372.319 167.726 370.006 166.385 368.308C165.045 366.609 163.536 368.453 163.536 368.453" stroke="#121212" stroke-width="1.47836" stroke-linecap="round" stroke-linejoin="round"/>
<path d="M164.246 378.973C164.246 378.973 163.112 375.816 159.525 374.397C158.91 374.157 158.424 373.587 158.374 372.95C158.324 372.314 158.676 371.632 160.313 371.464C160.313 371.464 162.357 371.531 163.067 372.8C163.067 372.8 166.268 371.9 167.363 376.314" stroke="#121212" stroke-width="1.47836" stroke-linecap="round" stroke-linejoin="round"/>
<path d="M169.324 368.408C168.051 365.269 168.861 364.95 169.648 365.151C170.185 365.291 170.643 365.643 170.961 366.09C174.001 370.319 172.174 371.816 172.174 371.816C175.017 375.705 172.487 377.956 172.487 377.956C176.051 378.984 174.14 381.643 174.14 381.643C174.14 381.643 169.749 380.046 165.397 382.671C165.397 382.671 164.196 382.426 164.084 380.085" stroke="#121212" stroke-width="1.47836" stroke-linecap="round" stroke-linejoin="round"/>
<path d="M195.347 373.716C195.347 373.716 193.486 366.805 196.162 367.023C196.162 367.023 197.313 366.66 198.587 373.984" stroke="#121212" stroke-width="1.47836" stroke-linecap="round" stroke-linejoin="round"/>
<path d="M199.108 381.487C198.594 381.487 198.069 381.772 198.069 381.772" stroke="#121212" stroke-width="1.47836" stroke-linecap="round" stroke-linejoin="round"/>
<path d="M204.504 373.694C203.901 369.52 201.052 371.465 201.052 371.465" stroke="#121212" stroke-width="1.47836" stroke-linecap="round" stroke-linejoin="round"/>
<path d="M201.639 374.152L201.085 371.47C199.979 369.61 198.242 371.235 198.242 371.235" stroke="#121212" stroke-width="1.47836" stroke-linecap="round" stroke-linejoin="round"/>
<path d="M203.979 371.956C203.136 368.677 203.979 368.464 204.734 368.772C205.242 368.978 205.655 369.392 205.912 369.878C208.365 374.47 206.348 375.716 206.348 375.716C208.65 379.945 205.84 381.845 205.84 381.845C209.237 383.342 206.991 385.716 206.991 385.716C206.991 385.716 202.851 383.549 198.191 385.577C198.191 385.577 195.499 383.75 198.074 381.772C196.381 380.839 196.001 379.331 196.001 379.331C195.599 377.805 193.476 376.593 193.476 376.593C192.895 376.275 192.493 375.643 192.526 375.006C192.56 374.369 193.001 373.744 194.649 373.794C194.649 373.794 196.666 374.135 197.203 375.481" stroke="#121212" stroke-width="1.47836" stroke-linecap="round" stroke-linejoin="round"/>
<path d="M166.403 382.426C166.403 382.426 166.922 390.292 164.967 394.437" stroke="black" stroke-width="1.47836" stroke-linecap="round" stroke-linejoin="round"/>
<path d="M172.469 380.906C172.469 380.906 173.794 385.873 173.313 387.565" stroke="#121212" stroke-width="1.47836" stroke-miterlimit="10"/>
<path d="M236.651 401.292L235.802 400.309V397.968L234.64 396.639L234.048 394.03L231.154 391.465L232.154 389.907L233.925 389.739L233.612 383.688L234.741 383.046L236.495 386.75L238.266 386.594L241.976 387.029L242.663 384.962L243.881 385.141L245.652 389.08L244.925 391.733L246.143 394.527L244.478 397.505L246.143 399.309L245.601 401.292L240.925 400.728L236.651 401.292Z" fill="#F7F7F7"/>
<path d="M203.521 398.074L202.672 397.091V394.75L201.51 393.421L200.722 391.672L197.375 389.907L197.202 388.147L199.577 387.32L198.202 381.772L199.018 380.571L201.208 382.8L202.119 384.471L204.191 383.7L205.745 383.945L207.476 383.241L207.314 381.482L209.27 381.493L211.192 385.404L210.75 387.834L212.225 391.236L211.348 394.287L213.013 396.091L212.471 398.074L207.789 397.51L203.521 398.074Z" fill="#F7F7F7"/>
<path d="M233.724 405.287L226.265 401.873L218.03 401.292L211.891 403.583L211.047 396.924L204.98 398.443L203.689 409.606L200.817 416.036L198.527 425.277L199.991 432.83L203.276 438.545L208.404 442.612L209.723 454.803L212.572 456.099L217.226 453.624L221.841 449.356L220.651 447.015L218.086 445.836L216.388 447.015L216.5 444.691L224.003 444.054H225.79L227.299 454.166L228.31 457.479L231.064 458.133L236.126 455.026L240.193 451.088L238.69 449.048L235.679 447.875L234.433 449.048L234.193 441.333C234.193 441.333 244.881 435.735 243.076 427.12L244.936 413.896L245.372 407.254L244.462 401.287H237.875L237.165 408.494L233.713 405.276L233.724 405.287Z" fill="#6C00FF"/>
<path d="M216.511 444.691C209.036 444.255 204.672 440.746 202.13 437.048C199.41 433.076 198.426 428.182 199.08 423.416C202.482 398.667 222.595 401.382 222.595 401.382C222.595 401.382 231.031 401.259 237.176 408.505" stroke="black" stroke-width="1.47836" stroke-linecap="round" stroke-linejoin="round"/>
<path d="M227.31 443.752C223.924 444.512 221.393 444.556 221.393 444.556C219.633 444.741 218.008 444.774 216.51 444.691" stroke="black" stroke-width="1.47836" stroke-linecap="round" stroke-linejoin="round"/>
<path d="M244.472 401.292C247.69 411.393 241.338 428.254 241.338 428.254" stroke="black" stroke-width="1.47836" stroke-linecap="round" stroke-linejoin="round"/>
<path d="M234.729 419.83C234.729 419.83 238.069 410.086 237.885 401.292" stroke="black" stroke-width="1.47836" stroke-linecap="round" stroke-linejoin="round"/>
<path d="M234.204 451.099C234.74 447.445 234.204 441.344 234.204 441.344C234.204 441.344 245.042 436.568 243.087 422.729" stroke="black" stroke-width="1.47836" stroke-linecap="round" stroke-linejoin="round"/>
<path d="M234.444 449.06C234.444 449.06 235.41 446.97 236.941 448.305" stroke="black" stroke-width="1.47836" stroke-linecap="round" stroke-linejoin="round"/>
<path d="M236.137 449.808C236.137 449.808 237.417 447.551 238.702 449.054" stroke="black" stroke-width="1.47836" stroke-linecap="round" stroke-linejoin="round"/>
<path d="M237.842 450.501C237.842 450.501 239.043 449.004 239.467 449.674C240.73 451.652 239.713 452.484 234.087 456.518C231.042 458.702 229.288 458.306 228.316 457.484C227.584 456.864 227.243 455.898 227.271 454.942C227.461 448.333 225.796 444.059 225.796 444.059" stroke="black" stroke-width="1.47836" stroke-linecap="round" stroke-linejoin="round"/>
<path d="M216.483 444.691C216.483 444.691 216.701 445.4 216.165 449.06" stroke="black" stroke-width="1.47836" stroke-linecap="round" stroke-linejoin="round"/>
<path d="M216.399 447.02C216.399 447.02 217.366 444.931 218.897 446.266" stroke="black" stroke-width="1.47836" stroke-linecap="round" stroke-linejoin="round"/>
<path d="M218.097 447.769C218.097 447.769 219.376 445.512 220.661 447.015" stroke="black" stroke-width="1.47836" stroke-linecap="round" stroke-linejoin="round"/>
<path d="M219.801 448.462C219.801 448.462 221.002 446.964 221.427 447.635C222.69 449.613 221.673 450.445 216.047 454.479C213.002 456.663 211.248 456.267 210.276 455.445C209.544 454.825 209.203 453.859 209.237 452.898C209.471 446.333 208.41 442.618 208.41 442.618" stroke="black" stroke-width="1.47836" stroke-linecap="round" stroke-linejoin="round"/>
<path d="M204.393 389.594C204.393 389.594 206.376 387.448 208.823 387.99C208.823 387.99 212.745 387.996 208.002 392.599C207.471 393.113 207.103 391.906 206.427 392.437L204.393 389.594Z" fill="#BFBFBF"/>
<path d="M199.577 387.32C199.577 387.32 196.812 380.716 199.493 380.582C199.493 380.582 200.583 380.074 202.823 387.158" stroke="#121212" stroke-width="1.47836" stroke-linecap="round" stroke-linejoin="round"/>
<path d="M203.929 394.594C202.829 394.985 202.667 396.102 202.667 396.102" stroke="#121212" stroke-width="1.47836" stroke-linecap="round" stroke-linejoin="round"/>
<path d="M207.338 389.353C209.455 388.202 208.656 386.079 208.656 386.079C207.505 382.023 204.941 384.331 204.941 384.331" stroke="#121212" stroke-width="1.47836" stroke-linecap="round" stroke-linejoin="round"/>
<path d="M205.46 388.884C206.84 388.337 206.309 386.024 204.968 384.325C203.628 382.627 202.119 384.471 202.119 384.471" stroke="#121212" stroke-width="1.47836" stroke-linecap="round" stroke-linejoin="round"/>
<path d="M202.829 394.991C202.829 394.991 201.695 391.834 198.108 390.415C197.493 390.175 197.007 389.605 196.957 388.968C196.907 388.331 197.259 387.65 198.896 387.482C198.896 387.482 200.94 387.549 201.65 388.817C201.65 388.817 204.851 387.918 205.946 392.331" stroke="#121212" stroke-width="1.47836" stroke-linecap="round" stroke-linejoin="round"/>
<path d="M207.902 384.426C206.628 381.286 207.438 380.968 208.226 381.169C208.762 381.308 209.22 381.66 209.539 382.107C212.578 386.337 210.751 387.834 210.751 387.834C213.595 391.722 211.064 393.974 211.064 393.974C214.628 395.002 212.718 397.661 212.718 397.661C212.718 397.661 208.326 396.063 203.974 398.689C203.974 398.689 202.773 398.443 202.661 396.102" stroke="#121212" stroke-width="1.47836" stroke-linecap="round" stroke-linejoin="round"/>
<path d="M233.924 389.739C233.924 389.739 232.064 382.828 234.74 383.046C234.74 383.046 235.891 382.683 237.165 390.007" stroke="#121212" stroke-width="1.47836" stroke-linecap="round" stroke-linejoin="round"/>
<path d="M237.69 397.504C237.176 397.504 236.651 397.789 236.651 397.789" stroke="#121212" stroke-width="1.47836" stroke-linecap="round" stroke-linejoin="round"/>
<path d="M243.087 389.711C242.484 385.538 239.635 387.482 239.635 387.482" stroke="#121212" stroke-width="1.47836" stroke-linecap="round" stroke-linejoin="round"/>
<path d="M240.215 390.169L239.662 387.488C238.556 385.627 236.818 387.253 236.818 387.253" stroke="#121212" stroke-width="1.47836" stroke-linecap="round" stroke-linejoin="round"/>
<path d="M242.557 387.974C241.713 384.694 242.556 384.482 243.311 384.789C243.819 384.996 244.233 385.409 244.49 385.895C246.942 390.488 244.925 391.734 244.925 391.734C247.227 395.963 244.417 397.862 244.417 397.862C247.814 399.36 245.568 401.734 245.568 401.734C245.568 401.734 241.428 399.566 236.769 401.594C236.769 401.594 234.076 399.767 236.651 397.79C234.958 396.857 234.579 395.348 234.579 395.348C234.176 393.823 232.053 392.611 232.053 392.611C231.472 392.292 231.07 391.661 231.104 391.024C231.137 390.387 231.578 389.761 233.227 389.812C233.227 389.812 235.243 390.152 235.78 391.499" stroke="#121212" stroke-width="1.47836" stroke-linecap="round" stroke-linejoin="round"/>
<path d="M204.985 398.443C204.985 398.443 205.505 406.31 203.55 410.455" stroke="black" stroke-width="1.47836" stroke-linecap="round" stroke-linejoin="round"/>
<path d="M211.052 396.924C211.052 396.924 212.377 401.89 211.896 403.583" stroke="#121212" stroke-width="1.47836" stroke-miterlimit="10"/>
<path d="M243.646 322.189C243.646 322.189 247.562 332.647 253.077 333.843L254.144 334.223C254.144 334.223 251.808 341.547 257.261 340.296C257.261 340.296 261.351 341.229 263.401 337.58C263.401 337.58 266.016 328.055 259.831 326.401C259.831 326.401 252.345 325.178 251.373 314.971L243.64 322.194L243.646 322.189Z" fill="#13E8C2"/>
<path d="M214.467 313.077L213.769 310.071L212.461 299.473L214.668 290.975L219.786 284.26L227.635 279.83L233.585 278.914L241.714 280.517L246.709 283.668L252.496 291.255L255.145 299.333L253.698 310.323L250.245 316.814L247.675 319.457L246.63 319.211L243.647 322.189L236.725 325.753L234.116 318.664L230.484 318.328L229.859 320.446L224.613 320.306L220.897 322.748L213.948 316.172L214.467 313.077Z" fill="#13E8C2"/>
<path d="M208.836 320.446L209.841 318.663L212.595 318.027L213.947 319.742C213.947 319.742 210.634 322.63 208.836 320.446Z" fill="#13E8C2"/>
<path d="M224.695 305.741L229.249 312.848L234.584 313.557L235.333 309.272L237.316 310.278L238.154 305.819L234.975 298.607L234.115 300.244L232.076 299.976L230.841 302.574L229.366 302.093L227.796 304.685L225.366 304.171L224.695 305.741Z" fill="#6C00FF"/>
<path d="M211.366 335.011L210.634 337.111L215.483 338.05L219.785 337.575L224.092 333.307L219.114 324.91L215.483 320.993L212.991 324.513L213.606 330.184L215.483 333.178L211.366 335.011Z" fill="#13E8C2"/>
<path d="M221.78 304.501C221.78 304.501 224.238 308.043 225.042 303.289C225.042 303.289 228.992 306.467 228.83 300.931C228.83 300.931 231.266 304.389 231.853 299.484C231.853 299.484 234.484 301.607 234.484 297.869C234.484 297.869 239.356 304.579 237.311 310.272C237.311 310.272 235.266 308.345 234.953 310.272C234.641 312.2 235.769 314.127 233.87 313.557C231.97 312.987 228.406 311.658 229.853 314.965C229.853 314.965 226.903 308.177 225.037 306.417" stroke="#121212" stroke-width="1.47836" stroke-linecap="round" stroke-linejoin="round"/>
<path d="M243.377 345.921C245.631 343.534 246.716 340.899 245.801 340.034C244.886 339.17 242.316 340.404 240.062 342.791C237.808 345.178 236.723 347.814 237.638 348.678C238.553 349.542 241.123 348.308 243.377 345.921Z" fill="#F7F7F7" stroke="#121212" stroke-width="1.47836" stroke-miterlimit="10"/>
<path d="M242.902 345.475C245.156 343.088 246.241 340.452 245.326 339.588C244.411 338.724 241.841 339.958 239.587 342.345C237.333 344.732 236.248 347.367 237.163 348.232C238.078 349.096 240.648 347.862 242.902 345.475Z" fill="#F7F7F7" stroke="#121212" stroke-width="1.47836" stroke-miterlimit="10"/>
<path d="M212.364 316.098L211.831 316.663C211.579 316.93 211.591 317.35 211.858 317.602L240.044 344.219C240.311 344.471 240.731 344.459 240.983 344.192L241.517 343.627C241.769 343.361 241.757 342.94 241.49 342.688L213.304 316.071C213.037 315.819 212.616 315.831 212.364 316.098Z" fill="#F7F7F7" stroke="#121212" stroke-width="1.47836" stroke-miterlimit="10"/>
<path d="M207.316 305.49L206.589 304.803L204.969 306.518L204.321 305.909L205.93 304.205C204.248 302.858 201.785 303.004 200.276 304.602L199.69 305.222C198.181 306.814 198.176 309.283 199.617 310.887L201.226 309.183L201.874 309.792L200.254 311.507L200.98 312.194L202.6 310.479L203.248 311.088L201.628 312.803L205.181 316.161L206.802 314.446L207.45 315.054L205.83 316.77L206.556 317.457L208.176 315.742L208.824 316.351L207.26 318.01C208.919 319.06 211.137 318.826 212.534 317.345L213.12 316.725C214.517 315.244 214.623 313.015 213.478 311.417L211.914 313.077L211.265 312.468L212.886 310.753L212.159 310.065L210.539 311.781L209.891 311.172L211.511 309.457L207.958 306.099L206.338 307.814L205.69 307.205L207.31 305.49H207.316Z" fill="#F7F7F7" stroke="#121212" stroke-width="1.47836" stroke-miterlimit="10"/>
<path d="M209.271 306.214L201.787 314.139C201.497 314.446 201.511 314.931 201.818 315.221L202.472 315.839C202.78 316.129 203.264 316.115 203.554 315.808L211.038 307.883C211.328 307.576 211.314 307.091 211.007 306.801L210.353 306.183C210.046 305.893 209.561 305.907 209.271 306.214Z" fill="#F7F7F7" stroke="#121212" stroke-width="1.47836" stroke-miterlimit="10"/>
<path d="M247.674 319.457C250.691 316.569 252.557 313.362 253.691 310.323C256.356 303.199 255.244 295.283 251.138 288.88C246.551 281.718 240.557 279.344 235.199 278.969C223.277 278.131 213.07 287.54 212.449 299.473C212.103 306.166 213.746 311.825 213.746 311.825" stroke="#121212" stroke-width="1.47836" stroke-linecap="round" stroke-linejoin="round"/>
<path d="M231.986 318.217C231.986 318.217 230.294 318.669 229.975 320.798L227.752 320.446C227.752 320.446 220.064 318.68 220.031 327.105C220.031 327.105 220.791 331.994 223.807 331.519C224.601 331.396 226.07 329.949 227.109 329.072C227.819 328.469 228.26 329.133 229.109 327.988C229.109 327.988 233.076 329.865 234.629 329.77C234.629 329.77 240.339 323.837 231.986 318.206V318.217Z" fill="#F7F7F7"/>
<path d="M248.211 297.869C248.144 298.372 244.864 313.769 233.584 318.915" stroke="#121212" stroke-width="1.47836" stroke-linecap="round" stroke-linejoin="round"/>
<path d="M201.634 312.809L205.371 311.697L208.299 314.965L209.332 319.457L207.394 321.155L205.204 321.647L201.69 319.457L200.243 316.172L201.634 312.809Z" fill="#13E8C2"/>
<path d="M253.709 305.244C253.709 305.244 249.748 322.256 236.395 326.1" stroke="#121212" stroke-width="1.47836" stroke-linecap="round" stroke-linejoin="round"/>
<path d="M206.651 313.557C206.651 313.557 208.93 314.496 208.126 316.909L206.651 318.787" stroke="#121212" stroke-width="1.47836" stroke-linecap="round" stroke-linejoin="round"/>
<path d="M208.126 316.909C208.126 316.909 209.869 317.714 209.333 319.457C209.333 319.457 205.846 324.418 201.69 319.457C201.69 319.457 199.008 317.345 200.885 314.512C200.885 314.512 205.578 308.73 206.651 313.557L203.433 317.177" stroke="#121212" stroke-width="1.47836" stroke-linecap="round" stroke-linejoin="round"/>
<path d="M200.885 314.513C200.885 314.513 200.695 313.831 200.796 311.356C200.857 309.92 203.008 309.915 203.042 311.351C203.047 311.68 203.014 312.071 202.93 312.535" stroke="#121212" stroke-width="1.47836" stroke-miterlimit="10"/>
<path d="M231.59 321.664C231.59 321.664 224.059 316.34 220.048 324.854C219.713 325.569 219.685 326.401 220.037 327.111C220.254 327.552 220.579 327.86 221.048 327.569" stroke="#121212" stroke-width="1.47836" stroke-linecap="round" stroke-linejoin="round"/>
<path d="M225.042 323.848C225.042 323.848 221.796 324.843 220.997 327.725C220.757 328.591 220.942 329.547 221.584 330.184C222.02 330.619 222.618 330.854 223.238 330.049" stroke="#121212" stroke-width="1.47836" stroke-linecap="round" stroke-linejoin="round"/>
<path d="M226.629 325.759C226.629 325.759 221.802 328.709 223.813 331.525C223.813 331.525 224.891 332.027 225.752 330.564C227.12 328.245 230.115 327.446 232.366 328.927C232.4 328.949 232.473 328.955 232.473 328.994C232.473 330.228 234.137 329.955 234.137 329.955C234.953 329.748 235.657 329.295 236.149 327.1C237.193 322.435 234.668 319.764 233.372 318.742C232.791 318.284 232.026 318.094 231.305 318.278C230.534 318.474 229.769 319.088 229.981 320.798" stroke="#121212" stroke-width="1.47836" stroke-linecap="round" stroke-linejoin="round"/>
<path d="M243.646 322.189C243.646 322.189 245.719 331.659 254.149 334.223C254.149 334.223 251.948 340.726 256.071 340.268L256.842 340.083" stroke="#121212" stroke-width="1.47836" stroke-miterlimit="10"/>
<path d="M257.083 335.748C257.083 335.748 255.245 339.765 257.262 340.29C257.262 340.29 257.893 340.731 259.267 339.793" stroke="#121212" stroke-width="1.47836" stroke-linecap="round" stroke-linejoin="round"/>
<path d="M259.92 335.96C259.92 335.96 258.144 339.994 259.92 340.29C259.92 340.29 263.926 341.799 264.121 332.513C264.25 326.535 259.836 326.396 259.836 326.396C252.317 325.133 251.378 314.965 251.378 314.965" stroke="#121212" stroke-width="1.47836" stroke-linecap="round" stroke-linejoin="round"/>
<path d="M215.483 320.993C215.483 320.993 209.405 324.982 215.483 333.178C215.483 333.178 209.539 334.597 210.634 337.111C210.634 337.111 211.45 338.178 213.612 337.078" stroke="#121212" stroke-width="1.47836" stroke-linecap="round" stroke-linejoin="round"/>
<path d="M216.589 334.542C216.589 334.542 212.628 336.29 213.835 337.759C213.835 337.759 214.946 338.704 216.589 337.759" stroke="#121212" stroke-width="1.47836" stroke-linecap="round" stroke-linejoin="round"/>
<path d="M218.808 334.977C218.808 334.977 215.232 337.296 217.216 337.972C219.193 338.648 224.255 334.659 224.093 333.307C223.925 331.955 221.584 330.184 221.584 330.184" stroke="#121212" stroke-width="1.47836" stroke-linecap="round" stroke-linejoin="round"/>
<path d="M208.298 320.541C208.298 320.541 211.768 322.356 213.947 319.742" stroke="#121212" stroke-width="1.47836" stroke-miterlimit="10"/>
<path d="M228.177 292.886C228.177 292.886 230.227 293.881 230.903 295.054C231.579 296.233 233.769 295.881 233.769 295.881C233.769 295.881 231.422 293.221 229.199 292.635C228.785 292.529 228.584 292.853 228.182 292.886H228.177Z" fill="#121212"/>
<path d="M230.177 297.3C230.177 297.3 229.629 293.199 231.104 291.26L231.853 291.679C231.853 291.679 231.026 295.624 231.115 297.378L230.171 297.3H230.177Z" fill="#121212"/>
<path d="M218.098 296.439C218.098 296.439 220.149 297.434 220.825 298.607C221.501 299.786 223.691 299.434 223.691 299.434C223.691 299.434 221.344 296.774 219.121 296.188C218.707 296.082 218.506 296.406 218.104 296.439H218.098Z" fill="#121212"/>
<path d="M220.097 300.853C220.097 300.853 219.55 296.752 221.025 294.813L221.773 295.232C221.773 295.232 220.946 299.177 221.036 300.931L220.092 300.853H220.097Z" fill="#121212"/>
<path d="M216.589 318.664C216.589 318.664 218.097 318.205 219.114 314.965" stroke="#121212" stroke-width="1.47836" stroke-linecap="round" stroke-linejoin="round"/>
<path d="M256.663 276.679L284.759 220.397L294.357 235.426L352.633 176.619L301.682 248.812L292.888 263.114L284.391 251.354L256.663 276.679Z" fill="#008EFF" stroke="#121212" stroke-width="1.47836" stroke-miterlimit="10"/>
<path d="M256.663 276.679L281.865 212.615L291.469 227.649L352.633 176.619L320.325 217.615L290 255.337L281.497 243.577L256.663 276.679Z" fill="#13E8C2" stroke="#121212" stroke-width="1.47836" stroke-linecap="round" stroke-linejoin="round"/>
<path d="M159.91 228.269L150.362 245.957L178.732 273.645L189.185 256.443L211.141 283.506L193.448 234.956L182.576 251.918L159.91 228.269Z" fill="#008EFF" stroke="#121212" stroke-width="1.47836" stroke-linecap="round" stroke-linejoin="round"/>
<path d="M157.129 233.426L147.581 251.113L175.951 278.796L186.404 261.6L211.142 283.506L190.666 240.113L179.789 257.074L157.129 233.426Z" fill="#13E8C2"/>
<path d="M157.129 233.426L147.581 251.113L175.951 278.796L186.404 261.6L211.142 283.506L190.666 240.113L179.789 257.074L157.129 233.426Z" stroke="#121212" stroke-width="1.47836" stroke-linecap="round" stroke-linejoin="round"/>
</g>
</svg>
