<svg width="24" height="25" viewBox="0 0 24 25" fill="none" xmlns="http://www.w3.org/2000/svg">
<path d="M12.2999 1.5625C10.638 1.5625 9.29081 2.96161 9.29081 4.6875V7.8125H7.78624V4.6875C7.78624 2.09867 9.8071 0 12.2999 0C14.7928 0 16.8137 2.09867 16.8137 4.6875V7.8125H15.3091V4.6875C15.3091 2.96161 13.9618 1.5625 12.2999 1.5625Z" fill="#6B36DC"/>
<path d="M7.78624 7.8125H5.32059C4.20345 7.8125 3.25442 8.66127 3.0887 9.80858L1.54239 20.5143C1.20126 22.876 2.96258 25 5.26219 25H19.3378C21.6374 25 23.3987 22.876 23.0576 20.5143L21.5113 9.80858C21.3456 8.66126 20.3966 7.8125 19.2795 7.8125H16.8137V10.1562C16.8137 10.5877 16.4768 10.9375 16.0614 10.9375C15.6459 10.9375 15.3091 10.5877 15.3091 10.1562V7.8125H9.29081V10.1562C9.29081 10.5877 8.954 10.9375 8.53852 10.9375C8.12305 10.9375 7.78624 10.5877 7.78624 10.1562V7.8125Z" fill="#6B36DC"/>
</svg>
