<svg width="24" height="25" viewBox="0 0 24 25" fill="none" xmlns="http://www.w3.org/2000/svg">
<path fill-rule="evenodd" clip-rule="evenodd" d="M9.29081 4.6875C9.29081 2.96161 10.638 1.5625 12.2999 1.5625C13.9618 1.5625 15.3091 2.96161 15.3091 4.6875V7.8125H9.29081V4.6875ZM7.78624 7.8125H9.29081V10.1562C9.29081 10.5877 8.954 10.9375 8.53852 10.9375C8.12305 10.9375 7.78624 10.5877 7.78624 10.1562V7.8125ZM16.8137 7.8125V4.6875C16.8137 2.09867 14.7928 0 12.2999 0C9.8071 0 7.78624 2.09867 7.78624 4.6875V7.8125H5.32059C4.20345 7.8125 3.25442 8.66127 3.0887 9.80858L1.54239 20.5143C1.20126 22.876 2.96258 25 5.26219 25H19.3378C21.6374 25 23.3987 22.876 23.0576 20.5143L21.5113 9.80858C21.3456 8.66126 20.3966 7.8125 19.2795 7.8125H16.8137ZM16.8137 7.8125V10.1562C16.8137 10.5877 16.4768 10.9375 16.0614 10.9375C15.6459 10.9375 15.3091 10.5877 15.3091 10.1562V7.8125H16.8137ZM14.9451 14.2341C14.7254 14.0053 14.3693 14.0053 14.1496 14.2341C14.1443 14.2396 14.1393 14.2455 14.1347 14.2516L11.5304 17.7084L9.96025 16.0728C9.74058 15.844 9.38442 15.844 9.16475 16.0728C8.94508 16.3017 8.94508 16.6726 9.16475 16.9015L11.1496 18.969C11.3693 19.1978 11.7254 19.1978 11.9451 18.969C11.9476 18.9664 11.9499 18.9638 11.9523 18.9611C11.9546 18.9584 11.9568 18.9557 11.9589 18.9529L14.9531 15.0543C15.1647 14.8249 15.1621 14.4601 14.9451 14.2341Z" fill="#6B36DC"/>
</svg>
