<svg width="150" height="219" viewBox="0 0 150 219" fill="none" xmlns="http://www.w3.org/2000/svg">
<g filter="url(#filter0_d_703_33915)">
<path d="M94.1965 204.683C92.2787 204.683 90.5969 204.181 89.1806 203.434C88.2758 203.69 87.3414 203.817 86.3874 203.817C85.2761 203.817 84.1745 203.64 83.132 203.296C82.4829 203.454 81.8338 203.562 81.2142 203.65C80.7027 203.719 80.1815 203.749 79.6602 203.749C75.4213 203.749 71.6053 201.585 69.5005 198.182C68.8023 199.165 67.8384 199.952 66.7074 200.434L62.2029 202.342C59.99 203.709 57.7181 204.408 55.456 204.408C53.9316 204.408 52.4465 204.083 51.0892 203.473C50.6663 203.621 50.2336 203.749 49.8008 203.847C49.0632 204.014 48.296 204.103 47.5289 204.103C45.8373 204.103 44.185 203.69 42.7097 202.913C42.4835 202.942 42.2671 202.962 42.0507 202.981C41.7164 203.011 41.3721 203.021 41.0279 203.021C35.7268 203.021 31.0256 199.569 29.5995 194.622C28.8127 191.878 29.1668 189.104 30.5928 186.793C31.1534 185.888 31.8419 185.082 32.6779 184.383C32.196 183.4 31.7239 182.406 31.2715 181.403L30.8486 180.685L30.6912 180.095C29.1963 176.663 28.1734 173.742 27.5636 171.843C18.4858 165.451 2.16937 149.547 8.18846 120.544C8.49335 118.744 10.6276 107.925 18.5448 97.1261C18.9087 91.3037 20.9938 76.2462 32.5304 60.0281C31.7534 58.1299 31.2026 55.5629 32.0288 52.7009C32.3533 51.5895 32.9434 50.252 34.0351 48.934C33.2483 46.0622 33.1401 42.256 35.1563 37.7614C34.163 34.3289 34.3892 29.1261 39.0314 21.917C40.546 19.5762 42.7687 17.8551 45.2963 17.0584C46.2995 16.7437 47.2929 16.5864 48.237 16.5864C50.3909 16.5864 52.3776 17.4125 53.8332 18.9074C54.6495 19.7533 55.1905 20.6778 55.5445 21.6416C55.9478 21.5629 56.351 21.5137 56.7641 21.4941C56.9411 21.4941 57.0886 21.4842 57.2362 21.4744C58.7803 18.2387 60.4227 16.3503 62.4586 15.3275C63.5011 14.8062 64.6027 14.5406 65.7239 14.5406C65.9206 14.5406 66.1173 14.5406 66.2943 14.5603C69.0776 14.698 71.5659 16.0553 73.1494 18.2977C75.1459 21.14 75.5786 25.4085 74.4378 31.0145C77.4867 32.893 78.8144 35.9812 78.716 38.9612C78.5882 42.7674 76.1786 46.2884 72.5789 47.921C69.6186 49.2684 68.8121 51.9141 68.5957 53.055C69.1957 57.6971 67.7597 60.7559 66.3927 62.5458C64.9567 64.4342 63.0684 65.5947 61.2981 66.2242C59.813 69.0862 58.5934 72.0367 57.7476 74.7807C59.0262 74.6135 60.3244 74.4857 61.6325 74.3972C61.839 74.3775 62.9012 74.2988 64.5338 74.2988C68.9399 74.2988 78.7062 74.9381 87.6955 79.9442C89.5445 75.3807 92.2197 70.0697 96.0849 64.4637C95.298 62.4967 94.7178 59.674 95.7701 56.6251C96.1439 55.5334 96.8127 54.2253 97.9634 52.9664C97.3241 50.0552 97.4126 46.2491 99.6452 41.8626C98.8288 38.381 99.3108 33.1979 104.327 26.2444C105.949 23.9824 108.261 22.3792 110.828 21.7203C111.624 21.5137 112.421 21.4154 113.188 21.4154C115.519 21.4154 117.624 22.3497 119.119 24.0512C119.886 24.9265 120.387 25.8805 120.692 26.8345C121.135 26.7657 121.587 26.7264 122.05 26.7264C122.207 26.7264 122.364 26.7264 122.522 26.7362C124.233 23.5791 125.964 21.7793 128.049 20.8646C129.003 20.4516 129.986 20.2352 130.99 20.2352C131.295 20.2352 131.609 20.2549 131.914 20.2942C134.688 20.5696 137.107 22.0547 138.573 24.3758C140.422 27.3165 140.628 31.5947 139.212 37.1417C142.162 39.1776 143.333 42.3248 143.077 45.3049C142.752 49.1012 140.166 52.4944 136.487 53.9401C133.458 55.14 132.514 57.7365 132.249 58.8675C132.603 63.5392 131.019 66.5192 129.564 68.2404C128.521 69.4796 127.193 70.4533 125.708 71.1221C120.879 79.059 117.358 94.8935 115.775 104.601C122.718 118.075 120.545 133.191 120.053 136.044C118.214 157.533 106.982 171.273 101.897 176.466C102.34 177.863 103.461 179.495 104.425 180.469C110.149 185.524 110.316 192.438 107.484 196.707C107.169 197.189 106.785 197.621 106.353 198.005L102.183 201.693C102.015 201.85 101.77 202.037 101.514 202.214C99.1042 203.837 96.6356 204.663 94.1768 204.663L94.1965 204.683Z" fill="white"/>
<path d="M94.1965 204.683V205.438H96.0201L94.7309 204.149L94.1965 204.683ZM89.1806 203.434L89.5333 202.766L89.266 202.625L88.9751 202.707L89.1806 203.434ZM83.132 203.296L83.3689 202.579L83.1639 202.511L82.954 202.562L83.132 203.296ZM81.2142 203.65L81.315 204.399L81.321 204.398L81.2142 203.65ZM69.5005 198.182L70.1431 197.784L69.5439 196.816L68.8845 197.744L69.5005 198.182ZM66.7074 200.434L67.0021 201.13L67.0036 201.129L66.7074 200.434ZM62.2029 202.342L61.9082 201.646L61.855 201.669L61.8058 201.699L62.2029 202.342ZM51.0892 203.473L51.3989 202.784L51.1244 202.661L50.8404 202.76L51.0892 203.473ZM49.8008 203.847L49.9678 204.584L49.9683 204.584L49.8008 203.847ZM42.7097 202.913L43.0618 202.244L42.8497 202.132L42.612 202.163L42.7097 202.913ZM42.0507 202.981L42.1172 203.734L42.1192 203.734L42.0507 202.981ZM29.5995 194.622L28.8732 194.83L28.8735 194.831L29.5995 194.622ZM30.5928 186.793L29.9506 186.395L29.9498 186.396L30.5928 186.793ZM32.6779 184.383L33.1623 184.963L33.6172 184.583L33.3564 184.051L32.6779 184.383ZM31.2715 181.403L31.9602 181.093L31.9434 181.055L31.9225 181.02L31.2715 181.403ZM30.8486 180.685L30.1185 180.88L30.1451 180.98L30.1975 181.069L30.8486 180.685ZM30.6912 180.095L31.4213 179.9L31.4066 179.846L31.3839 179.793L30.6912 180.095ZM27.5636 171.843L28.283 171.612L28.2056 171.371L27.9987 171.226L27.5636 171.843ZM8.18846 120.544L8.92827 120.697L8.9311 120.683L8.93342 120.67L8.18846 120.544ZM18.5448 97.1261L19.1542 97.5729L19.2851 97.3943L19.2989 97.1732L18.5448 97.1261ZM32.5304 60.0281L33.1461 60.466L33.3873 60.1269L33.2296 59.7418L32.5304 60.0281ZM32.0288 52.7009L31.3035 52.4891L31.3028 52.4913L32.0288 52.7009ZM34.0351 48.934L34.617 49.416L34.8677 49.1134L34.7639 48.7344L34.0351 48.934ZM35.1563 37.7614L35.8457 38.0706L35.9592 37.8176L35.8821 37.5513L35.1563 37.7614ZM39.0314 21.917L38.397 21.5065L38.3961 21.5079L39.0314 21.917ZM45.2963 17.0584L45.0702 16.3375L45.0692 16.3378L45.2963 17.0584ZM53.8332 18.9074L54.3769 18.3827L54.3746 18.3803L53.8332 18.9074ZM55.5445 21.6416L54.8353 21.9021L55.0573 22.5065L55.6892 22.3832L55.5445 21.6416ZM56.7641 21.4941V20.7385H56.7461L56.7281 20.7394L56.7641 21.4941ZM57.2362 21.4744L57.2864 22.2283L57.7276 22.1989L57.9181 21.7998L57.2362 21.4744ZM62.4586 15.3275L62.1207 14.6516L62.1194 14.6523L62.4586 15.3275ZM66.2943 14.5603L66.2109 15.3113L66.2339 15.3138L66.257 15.315L66.2943 14.5603ZM73.1494 18.2977L73.7677 17.8634L73.7666 17.8618L73.1494 18.2977ZM74.4378 31.0145L73.6974 30.8638L73.5921 31.3809L74.0414 31.6577L74.4378 31.0145ZM78.716 38.9612L79.4712 38.9866L79.4712 38.9862L78.716 38.9612ZM72.5789 47.921L72.2668 47.2329L72.2659 47.2333L72.5789 47.921ZM68.5957 53.055L67.8534 52.9142L67.8309 53.0324L67.8464 53.1518L68.5957 53.055ZM66.3927 62.5458L65.7922 62.0872L65.7912 62.0885L66.3927 62.5458ZM61.2981 66.2242L61.0449 65.5123L60.7645 65.612L60.6274 65.8762L61.2981 66.2242ZM57.7476 74.7807L57.0255 74.5582L56.679 75.6825L57.8456 75.5299L57.7476 74.7807ZM61.6325 74.3972L61.6835 75.151L61.6938 75.1503L61.7041 75.1493L61.6325 74.3972ZM87.6955 79.9442L87.3279 80.6043L88.0748 81.0202L88.3958 80.2279L87.6955 79.9442ZM96.0849 64.4637L96.7069 64.8926L96.9368 64.5591L96.7864 64.1831L96.0849 64.4637ZM95.7701 56.6251L96.4844 56.8716L96.485 56.8698L95.7701 56.6251ZM97.9634 52.9664L98.5211 53.4762L98.7854 53.187L98.7014 52.8044L97.9634 52.9664ZM99.6452 41.8626L100.319 42.2053L100.444 41.9591L100.381 41.6901L99.6452 41.8626ZM104.327 26.2444L104.939 26.6865L104.941 26.6849L104.327 26.2444ZM110.828 21.7203L111.016 22.4521L111.017 22.4517L110.828 21.7203ZM119.119 24.0512L119.687 23.5532L119.686 23.5525L119.119 24.0512ZM120.692 26.8345L119.973 27.0646L120.169 27.6805L120.808 27.5811L120.692 26.8345ZM122.522 26.7362L122.475 27.4903L122.956 27.5204L123.186 27.0963L122.522 26.7362ZM128.049 20.8646L127.749 20.1713L127.745 20.1727L128.049 20.8646ZM131.914 20.2942L131.817 21.0436L131.828 21.045L131.84 21.0461L131.914 20.2942ZM138.573 24.3758L139.212 23.9736L139.211 23.9724L138.573 24.3758ZM139.212 37.1417L138.48 36.9548L138.35 37.4648L138.783 37.7636L139.212 37.1417ZM143.077 45.3049L142.324 45.2403L142.324 45.2405L143.077 45.3049ZM136.487 53.9401L136.211 53.2369L136.209 53.2376L136.487 53.9401ZM132.249 58.8675L131.513 58.6948L131.486 58.8083L131.495 58.9246L132.249 58.8675ZM129.564 68.2404L128.987 67.7525L128.985 67.754L129.564 68.2404ZM125.708 71.1221L125.398 70.4331L125.184 70.5293L125.063 70.7293L125.708 71.1221ZM115.775 104.601L115.029 104.479L114.989 104.725L115.103 104.947L115.775 104.601ZM120.053 136.044L119.308 135.915L119.303 135.947L119.3 135.979L120.053 136.044ZM101.897 176.466L101.358 175.937L101.04 176.262L101.177 176.694L101.897 176.466ZM104.425 180.469L103.888 181L103.906 181.018L103.925 181.035L104.425 180.469ZM107.484 196.707L106.854 196.289L106.851 196.294L107.484 196.707ZM106.353 198.005L106.853 198.571L106.854 198.57L106.353 198.005ZM102.183 201.693L101.682 201.127L101.673 201.135L101.665 201.143L102.183 201.693ZM101.514 202.214L101.936 202.841L101.944 202.836L101.514 202.214ZM94.1768 204.663V203.908H92.3532L93.6425 205.197L94.1768 204.663ZM94.1965 203.927C92.4146 203.927 90.8529 203.462 89.5333 202.766L88.8279 204.102C90.3408 204.901 92.1428 205.438 94.1965 205.438V203.927ZM88.9751 202.707C88.1385 202.943 87.2733 203.062 86.3874 203.062V204.573C87.4095 204.573 88.4131 204.436 89.3861 204.161L88.9751 202.707ZM86.3874 203.062C85.356 203.062 84.3345 202.898 83.3689 202.579L82.8951 204.014C84.0146 204.383 85.1961 204.573 86.3874 204.573V203.062ZM82.954 202.562C82.3384 202.711 81.7161 202.815 81.1073 202.902L81.321 204.398C81.9515 204.308 82.6273 204.196 83.31 204.03L82.954 202.562ZM81.1134 202.901C80.6405 202.965 80.1534 202.993 79.6602 202.993V204.504C80.2096 204.504 80.765 204.473 81.315 204.399L81.1134 202.901ZM79.6602 202.993C75.6794 202.993 72.1082 200.962 70.1431 197.784L68.8579 198.579C71.1023 202.208 75.1632 204.504 79.6602 204.504V202.993ZM68.8845 197.744C68.2657 198.616 67.4119 199.313 66.4112 199.739L67.0036 201.129C68.265 200.592 69.3388 199.715 70.1166 198.619L68.8845 197.744ZM66.4127 199.738L61.9082 201.646L62.4976 203.038L67.0021 201.13L66.4127 199.738ZM61.8058 201.699C59.6931 203.004 57.557 203.652 55.456 203.652V205.163C57.8792 205.163 60.2868 204.414 62.6 202.985L61.8058 201.699ZM55.456 203.652C54.0391 203.652 52.6595 203.35 51.3989 202.784L50.7796 204.162C52.2335 204.816 53.824 205.163 55.456 205.163V203.652ZM50.8404 202.76C50.4402 202.899 50.0348 203.019 49.6334 203.11L49.9683 204.584C50.4324 204.478 50.8924 204.342 51.3381 204.187L50.8404 202.76ZM49.6338 203.11C48.9496 203.265 48.2385 203.347 47.5289 203.347V204.858C48.3536 204.858 49.1767 204.763 49.9678 204.584L49.6338 203.11ZM47.5289 203.347C45.9604 203.347 44.4289 202.964 43.0618 202.244L42.3576 203.581C43.941 204.415 45.7141 204.858 47.5289 204.858V203.347ZM42.612 202.163C42.4026 202.191 42.2006 202.209 41.9823 202.229L42.1192 203.734C42.3336 203.714 42.5643 203.694 42.8074 203.662L42.612 202.163ZM41.9843 202.229C41.6794 202.256 41.3588 202.265 41.0279 202.265V203.776C41.3854 203.776 41.7533 203.766 42.1172 203.734L41.9843 202.229ZM41.0279 202.265C36.049 202.265 31.6544 199.022 30.3255 194.412L28.8735 194.831C30.3968 200.115 35.4046 203.776 41.0279 203.776V202.265ZM30.3258 194.413C29.5944 191.863 29.9274 189.31 31.2359 187.19L29.9498 186.396C28.4061 188.898 28.031 191.893 28.8732 194.83L30.3258 194.413ZM31.2351 187.191C31.7549 186.352 32.3908 185.608 33.1623 184.963L32.1935 183.803C31.2931 184.556 30.552 185.424 29.9506 186.395L31.2351 187.191ZM33.3564 184.051C32.8771 183.073 32.4086 182.087 31.9602 181.093L30.5827 181.714C31.0392 182.726 31.5149 183.727 31.9994 184.716L33.3564 184.051ZM31.9225 181.02L31.4996 180.302L30.1975 181.069L30.6204 181.787L31.9225 181.02ZM31.5786 180.491L31.4213 179.9L29.9611 180.29L30.1185 180.88L31.5786 180.491ZM31.3839 179.793C29.901 176.389 28.8867 173.492 28.283 171.612L26.8443 172.075C27.4601 173.992 28.4915 176.937 29.9985 180.397L31.3839 179.793ZM27.9987 171.226C19.0477 164.922 2.99539 149.285 8.92827 120.697L7.44865 120.39C1.34335 149.809 17.924 165.979 27.1286 172.461L27.9987 171.226ZM8.93342 120.67C9.22831 118.929 11.334 108.239 19.1542 97.5729L17.9355 96.6794C9.92113 107.611 7.75839 118.558 7.4435 120.417L8.93342 120.67ZM19.2989 97.1732C19.657 91.445 21.7145 76.5365 33.1461 60.466L31.9147 59.5901C20.2731 75.9558 18.1605 91.1624 17.7907 97.079L19.2989 97.1732ZM33.2296 59.7418C32.4945 57.9458 31.99 55.5594 32.7547 52.9104L31.3028 52.4913C30.4152 55.5664 31.0123 58.314 31.8311 60.3143L33.2296 59.7418ZM32.7541 52.9127C33.055 51.8823 33.602 50.6414 34.617 49.416L33.4533 48.452C32.2849 49.8625 31.6517 51.2967 31.3035 52.4891L32.7541 52.9127ZM34.7639 48.7344C34.0206 46.0216 33.9054 42.3961 35.8457 38.0706L34.4669 37.4521C32.3749 42.1159 32.476 46.1028 33.3064 49.1337L34.7639 48.7344ZM35.8821 37.5513C34.9633 34.3762 35.1129 29.3978 39.6666 22.3261L38.3961 21.5079C33.6655 28.8544 33.3627 34.2816 34.4305 37.9714L35.8821 37.5513ZM39.6657 22.3275C41.0898 20.1266 43.1721 18.5201 45.5235 17.7791L45.0692 16.3378C42.3653 17.19 40.0021 19.0259 38.397 21.5065L39.6657 22.3275ZM45.5225 17.7794C46.4591 17.4855 47.3762 17.3419 48.237 17.3419V15.8308C47.2095 15.8308 46.1399 16.0019 45.0702 16.3375L45.5225 17.7794ZM48.237 17.3419C50.1936 17.3419 51.983 18.0903 53.2919 19.4345L54.3746 18.3803C52.7722 16.7347 50.5883 15.8308 48.237 15.8308V17.3419ZM53.2895 19.4321C54.0273 20.1965 54.5145 21.029 54.8353 21.9021L56.2538 21.3811C55.8664 20.3265 55.2718 19.31 54.3769 18.3827L53.2895 19.4321ZM55.6892 22.3832C56.0571 22.3114 56.424 22.2667 56.8 22.2488L56.7281 20.7394C56.2781 20.7608 55.8385 20.8144 55.3998 20.9L55.6892 22.3832ZM56.7641 22.2497C56.9692 22.2497 57.1396 22.2381 57.2864 22.2283L57.1859 20.7205C57.0376 20.7304 56.913 20.7385 56.7641 20.7385V22.2497ZM57.9181 21.7998C59.4243 18.6434 60.9702 16.9208 62.7978 16.0026L62.1194 14.6523C59.8752 15.7798 58.1362 17.8339 56.5543 21.149L57.9181 21.7998ZM62.7965 16.0033C63.7385 15.5323 64.7247 15.2962 65.7239 15.2962V13.7851C64.4806 13.7851 63.2638 14.0801 62.1207 14.6517L62.7965 16.0033ZM65.7239 15.2962C65.9307 15.2962 66.0833 15.2971 66.2109 15.3113L66.3777 13.8094C66.1512 13.7842 65.9105 13.7851 65.7239 13.7851V15.2962ZM66.257 15.315C68.8122 15.4414 71.085 16.684 72.5322 18.7335L73.7666 17.8618C72.0469 15.4265 69.3431 13.9546 66.3316 13.8057L66.257 15.315ZM72.5311 18.732C74.3503 21.3219 74.8225 25.3351 73.6974 30.8638L75.1782 31.1651C76.3348 25.4818 75.9415 20.9581 73.7677 17.8634L72.5311 18.732ZM74.0414 31.6577C76.8374 33.3804 78.0512 36.2002 77.9609 38.9363L79.4712 38.9862C79.5776 35.7622 78.136 32.4055 74.8341 30.3712L74.0414 31.6577ZM77.9609 38.9359C77.8431 42.4418 75.617 45.7135 72.2668 47.2329L72.891 48.6091C76.7402 46.8633 79.3333 43.0931 79.4712 38.9866L77.9609 38.9359ZM72.2659 47.2333C68.9778 48.7299 68.0889 51.6724 67.8534 52.9142L69.3381 53.1957C69.5353 52.1558 70.2593 49.807 72.8919 48.6087L72.2659 47.2333ZM67.8464 53.1518C68.418 57.575 67.0522 60.4375 65.7922 62.0872L66.9931 63.0045C68.4673 61.0742 69.9733 57.8193 69.3451 52.9581L67.8464 53.1518ZM65.7912 62.0885C64.4595 63.8398 62.7028 64.9228 61.0449 65.5123L61.5512 66.9361C63.4339 66.2667 65.4539 65.0286 66.9941 63.0032L65.7912 62.0885ZM60.6274 65.8762C59.1234 68.7746 57.8859 71.767 57.0255 74.5582L58.4696 75.0033C59.3009 72.3065 60.5025 69.3978 61.9687 66.5722L60.6274 65.8762ZM57.8456 75.5299C59.1081 75.3648 60.3906 75.2385 61.6835 75.151L61.5814 73.6433C60.2581 73.7329 58.9442 73.8622 57.6496 74.0315L57.8456 75.5299ZM61.7041 75.1493C61.8841 75.1322 62.9222 75.0544 64.5338 75.0544V73.5432C62.8802 73.5432 61.7939 73.6228 61.5608 73.645L61.7041 75.1493ZM64.5338 75.0544C68.888 75.0544 78.503 75.6898 87.3279 80.6043L88.0631 79.284C78.9094 74.1864 68.9919 73.5432 64.5338 73.5432V75.0544ZM88.3958 80.2279C90.2261 75.7105 92.8759 70.4489 96.7069 64.8926L95.4628 64.0348C91.5634 69.6905 88.8629 75.0509 86.9952 79.6604L88.3958 80.2279ZM96.7864 64.1831C96.0413 62.3202 95.5104 59.6932 96.4844 56.8716L95.0559 56.3786C93.9251 59.6548 94.5548 62.6731 95.3833 64.7443L96.7864 64.1831ZM96.485 56.8698C96.8294 55.8639 97.4487 54.6493 98.5211 53.4762L97.4057 52.4567C96.1766 53.8013 95.4584 55.2029 95.0553 56.3804L96.485 56.8698ZM98.7014 52.8044C98.0974 50.0542 98.1696 46.4275 100.319 42.2053L98.9718 41.5199C96.6556 46.0707 96.5507 50.0563 97.2254 53.1285L98.7014 52.8044ZM100.381 41.6901C99.6254 38.4685 100.02 33.5059 104.939 26.6865L103.714 25.8024C98.6013 32.8899 98.0323 38.2934 98.9095 42.0351L100.381 41.6901ZM104.941 26.6849C106.465 24.5602 108.628 23.0649 111.016 22.4521L110.64 20.9884C107.893 21.6935 105.434 23.4045 103.713 25.804L104.941 26.6849ZM111.017 22.4517C111.752 22.2611 112.485 22.171 113.188 22.171V20.6598C112.357 20.6598 111.496 20.7663 110.638 20.9889L111.017 22.4517ZM113.188 22.171C115.309 22.171 117.205 23.0174 118.551 24.5499L119.686 23.5525C118.043 21.6821 115.729 20.6598 113.188 20.6598V22.171ZM118.55 24.5492C119.244 25.3408 119.697 26.2017 119.973 27.0646L121.412 26.6045C121.078 25.5593 120.527 24.5123 119.687 23.5532L118.55 24.5492ZM120.808 27.5811C121.217 27.5176 121.63 27.4819 122.05 27.4819V25.9708C121.544 25.9708 121.053 26.0138 120.576 26.0879L120.808 27.5811ZM122.05 27.4819C122.211 27.4819 122.345 27.4822 122.475 27.4903L122.569 25.9821C122.384 25.9705 122.203 25.9708 122.05 25.9708V27.4819ZM123.186 27.0963C124.856 24.0154 126.482 22.3771 128.352 21.5566L127.745 20.1727C125.446 21.1815 123.61 23.1428 121.857 26.3761L123.186 27.0963ZM128.349 21.558C129.216 21.1826 130.098 20.9908 130.99 20.9908V19.4796C129.875 19.4796 128.79 19.7205 127.749 20.1713L128.349 21.558ZM130.99 20.9908C131.263 20.9908 131.545 21.0084 131.817 21.0436L132.011 19.5448C131.673 19.5013 131.326 19.4796 130.99 19.4796V20.9908ZM131.84 21.0461C134.385 21.2988 136.594 22.658 137.934 24.7791L139.211 23.9724C137.62 21.4513 134.99 19.8403 131.989 19.5423L131.84 21.0461ZM137.933 24.7779C139.617 27.4571 139.877 31.4822 138.48 36.9548L139.944 37.3287C141.379 31.7073 141.226 27.1758 139.212 23.9736L137.933 24.7779ZM138.783 37.7636C141.489 39.6313 142.559 42.5049 142.324 45.2403L143.83 45.3695C144.107 42.1448 142.835 38.7239 139.641 36.5198L138.783 37.7636ZM142.324 45.2405C142.025 48.7379 139.634 51.8915 136.211 53.2369L136.764 54.6433C140.697 53.0973 143.48 49.4646 143.83 45.3692L142.324 45.2405ZM136.209 53.2376C132.847 54.5694 131.804 57.4558 131.513 58.6948L132.984 59.0402C133.224 58.0172 134.069 55.7106 136.766 54.6426L136.209 53.2376ZM131.495 58.9246C131.833 63.3778 130.328 66.1662 128.987 67.7525L130.14 68.7283C131.71 66.8723 133.373 63.7006 133.002 58.8104L131.495 58.9246ZM128.985 67.754C128.021 68.9004 126.787 69.8076 125.398 70.4331L126.018 71.811C127.6 71.099 129.021 70.0588 130.142 68.7268L128.985 67.754ZM125.063 70.7293C122.591 74.7923 120.481 80.8203 118.795 86.9987C117.105 93.1936 115.824 99.6056 115.029 104.479L116.52 104.722C117.309 99.8887 118.58 93.5298 120.253 87.3964C121.931 81.2465 123.997 75.3888 126.354 71.5148L125.063 70.7293ZM115.103 104.947C121.928 118.19 119.795 133.095 119.308 135.915L120.798 136.172C121.295 133.288 123.509 117.96 116.446 104.255L115.103 104.947ZM119.3 135.979C117.482 157.229 106.374 170.814 101.358 175.937L102.437 176.995C107.59 171.732 118.946 157.837 120.806 136.108L119.3 135.979ZM101.177 176.694C101.665 178.234 102.864 179.966 103.888 181L104.962 179.937C104.058 179.024 103.015 177.491 102.618 176.238L101.177 176.694ZM103.925 181.035C109.374 185.848 109.472 192.343 106.854 196.289L108.113 197.124C111.16 192.533 110.924 185.201 104.925 179.903L103.925 181.035ZM106.851 196.294C106.577 196.713 106.239 197.096 105.852 197.439L106.854 198.57C107.332 198.147 107.761 197.664 108.116 197.12L106.851 196.294ZM105.852 197.439L101.682 201.127L102.683 202.259L106.853 198.571L105.852 197.439ZM101.665 201.143C101.539 201.262 101.329 201.423 101.084 201.593L101.944 202.836C102.21 202.651 102.492 202.439 102.7 202.243L101.665 201.143ZM101.092 201.588C98.7832 203.142 96.459 203.908 94.1768 203.908V205.419C96.8122 205.419 99.4253 204.532 101.936 202.841L101.092 201.588ZM93.6425 205.197L93.6621 205.217L94.7309 204.149L94.7112 204.129L93.6425 205.197Z" fill="black"/>
<path d="M104.662 48.219L105.281 54.3266L104.219 55.7724L101.947 57.9459L102.321 62.2734L113.523 61.9488L122.09 65.0764L125.375 63.07L126.309 56.1756L131.128 48.7403L135.524 46.9109L136.587 43.2228L131.443 40.9902L132.357 34.3318L133.036 29.3749L131.679 26.6211L128.473 30.1519L126.338 35.2563L121.372 32.8959L118.736 33.8892L113.405 33.3581L114.113 28.0472L110.474 28.8143L106.668 36.7218L106.275 40.705L104.662 48.219Z" fill="white"/>
<path d="M40.4382 44.1376L41.4119 50.2058L40.4382 51.7106L38.304 54.012L38.9236 58.31L50.0864 57.3265L58.8298 59.9426L61.9869 57.7494L62.518 50.8058L66.8946 43.0951L71.1631 41.0198L72.0089 37.2628L66.7471 35.345L67.2585 28.6473L67.6519 23.6609L66.1275 20.9857L63.1376 24.7034L61.3083 29.916L56.2137 27.8605L53.6369 29.0112L48.2866 28.7948L48.68 23.4543L45.0902 24.428L41.7561 32.542L41.6086 36.5449L40.4382 44.1376Z" fill="white"/>
<path d="M84.8136 85.7891L68.3693 80.9108L49.7121 82.9664L50.0072 78.3144L56.5377 60.8275L56.2721 59.549L51.9348 57.8967C51.9348 57.8967 42.975 57.1787 41.4014 58.8605C34.8217 65.8828 24.2687 88.6412 24.8686 99.1156C24.8686 99.1156 2.94614 117.881 20.1576 157.025L33.0219 167.598L35.8741 178.347L41.2637 187.474L39.3164 187.976L35.9626 190.936L38.4804 196.729L43.8012 195.824L47.2533 197.378L52.3676 195.559L56.4 197.516L63.9828 194.221L62.7535 190.995L56.9409 177.147H71.9395L77.1226 187.74L73.8573 193.139L77.1226 196.768L87.5281 196.867L90.2033 194.969L93.203 197.359L97.9042 197.526L102.34 190.208L96.419 180.472L95.1798 173.548L99.5761 169.014L108.742 154.074L113.414 135.043L113.267 117.881L108.821 105.676L114.093 81.737L121.381 65.3812L118.174 62.8339L105.369 62.647L101.169 68.2531L90.5868 90.1854L84.7939 85.7792L84.8136 85.7891Z" fill="#25F3CF"/>
<path d="M89.731 97.316C89.731 97.316 90.6161 80.7242 105.388 62.6571" stroke="black" stroke-width="1.94201" stroke-linecap="round" stroke-linejoin="round"/>
<path d="M24.8793 99.1158C24.8793 99.1158 24.6531 78.9834 41.4121 58.8607" stroke="black" stroke-width="1.94201" stroke-linecap="round" stroke-linejoin="round"/>
<path d="M49.7127 82.9666C49.4176 77.4688 51.9453 68.8532 56.5383 60.8278" stroke="black" stroke-width="1.94201" stroke-linecap="round" stroke-linejoin="round"/>
<path d="M34.3301 109.541C34.3301 109.541 38.0773 112.531 38.5002 114.891C38.9231 117.252 44.2635 118.157 44.2635 118.157C44.2635 118.157 41.4212 112.265 36.9069 109.826C36.0709 109.374 35.2939 109.767 34.3399 109.551L34.3301 109.541Z" fill="black"/>
<path d="M34.7139 118.039C34.7139 118.039 37.3497 111.026 42.5623 108.872L43.8802 110.053C43.8802 110.053 38.2545 115.885 36.7989 118.796L34.7139 118.029V118.039Z" fill="black"/>
<path d="M70.5239 109.541C70.5239 109.541 74.2711 112.531 74.694 114.891C75.1169 117.252 80.4574 118.157 80.4574 118.157C80.4574 118.157 77.615 112.265 73.1007 109.826C72.2647 109.374 71.4878 109.767 70.5338 109.551L70.5239 109.541Z" fill="black"/>
<path d="M70.8975 118.039C70.8975 118.039 73.5333 111.026 78.7459 108.872L80.0638 110.053C80.0638 110.053 74.4381 115.885 72.9825 118.796L70.8975 118.029V118.039Z" fill="black"/>
<path d="M51.9457 121.618C51.9457 121.618 48.4936 118.441 46.3102 121.648C45.7889 122.405 45.5529 123.32 45.5234 124.244C45.4348 126.929 45.5725 133.46 48.7689 134.483C48.7689 134.483 50.5884 135.505 53.0866 133.932C53.0866 133.932 57.6205 137.354 60.1187 133.745C60.1187 133.745 66.6885 137.63 69.285 131.06V120.595C69.285 120.595 68.449 117.36 64.8395 119.671C64.8395 119.671 62.1545 115.688 58.4565 119.582C58.4565 119.582 53.8734 116.897 51.9555 121.618H51.9457Z" fill="#6B36DC" stroke="black" stroke-width="1.94201" stroke-linecap="round" stroke-linejoin="round"/>
<path d="M68.5371 125.316C48.916 121.245 50.0274 134.109 50.0274 134.109L53.0861 133.922L57.4037 135.633L60.128 133.735L65.2423 134.787L69.2944 131.05L68.5567 125.306L68.5371 125.316Z" fill="white"/>
<path d="M59.2722 35.345C63.2751 19.9727 65.665 20.9464 65.665 20.9464C71.4087 20.9464 66.2158 35.345 66.2158 35.345" stroke="black" stroke-width="1.94201" stroke-linecap="round" stroke-linejoin="round"/>
<path d="M61.9874 55.7626C61.9874 55.7626 61.6431 52.635 57.7288 51.3564" stroke="black" stroke-width="1.94201" stroke-linecap="round" stroke-linejoin="round"/>
<path d="M42.4346 50.8056C42.4346 50.8056 45.5621 48.9861 48.6897 49.8221" stroke="black" stroke-width="1.94201" stroke-linecap="round" stroke-linejoin="round"/>
<path d="M123.859 40.7149C128.649 25.5688 130.98 26.6605 130.98 26.6605C136.714 26.9556 130.803 41.069 130.803 41.069" fill="white"/>
<path d="M123.859 40.7149C128.649 25.5688 130.98 26.6605 130.98 26.6605C136.714 26.9556 130.803 41.069 130.803 41.069" stroke="black" stroke-width="1.94201" stroke-linecap="round" stroke-linejoin="round"/>
<path d="M125.532 61.2408C125.532 61.2408 125.355 58.1034 121.509 56.6282Z" fill="white"/>
<path d="M125.532 61.2408C125.532 61.2408 125.355 58.1034 121.509 56.6282" stroke="black" stroke-width="1.94201" stroke-linecap="round" stroke-linejoin="round"/>
<path d="M51.9457 121.618C51.9457 121.618 48.4936 118.441 46.3102 121.648C45.7889 122.405 45.5529 123.32 45.5234 124.244C45.4348 126.929 45.5725 133.46 48.7689 134.483C48.7689 134.483 50.5884 135.505 53.0866 133.932C53.0866 133.932 57.6205 137.354 60.1187 133.745C60.1187 133.745 66.6885 137.63 69.285 131.06V120.595C69.285 120.595 68.449 117.36 64.8395 119.671C64.8395 119.671 62.1545 115.688 58.4565 119.582C58.4565 119.582 53.8734 116.897 51.9555 121.618H51.9457Z" stroke="black" stroke-width="1.94201" stroke-linecap="round" stroke-linejoin="round"/>
<path d="M53.4106 47.6978C53.4106 47.6978 48.6799 46.5766 47.4013 42.2688C47.4013 42.2688 44.1164 36.1612 54.6695 39.3281C55.8497 39.6822 54.4433 41.364 55.7612 41.9246L53.4106 47.6978Z" fill="#BFBFBF"/>
<path d="M116.955 52.5563C116.955 52.5563 112.411 50.8254 111.703 46.3897C111.703 46.3897 109.244 39.9084 119.296 44.4227C120.417 44.9243 118.804 46.4192 120.033 47.1372L116.955 52.5563Z" fill="#BFBFBF"/>
<path d="M50.0169 134.119C50.0169 134.119 48.9055 121.255 68.5266 125.327" stroke="black" stroke-width="1.94201" stroke-linecap="round" stroke-linejoin="round"/>
<path d="M53.1642 46.7536C55.0132 37.2037 61.9568 38.7774 61.9568 38.7774C63.3436 36.0039 67.7005 35.6301 67.7005 35.6301C71.2215 35.817 72.0476 37.2234 72.0083 38.5905C71.969 39.9576 70.9953 41.2165 69.7069 41.8066C62.1929 45.2292 61.8191 53.0284 61.8191 53.0284C63.0682 59.6966 58.0719 60.1097 58.0719 60.1097C48.4925 54.9758 39.2967 58.8607 39.2967 58.8607C39.2967 58.8607 34.9299 53.4022 42.4341 50.8057C42.4341 50.8057 36.7888 46.2717 42.4341 37.666C42.4341 37.666 38.3624 34.6663 44.4011 25.3131C45.0404 24.3197 45.9748 23.5133 47.1058 23.169C48.7581 22.6478 50.6661 22.8445 48.286 29.6897" stroke="black" stroke-width="1.94201" stroke-linecap="round" stroke-linejoin="round"/>
<path d="M54.4529 29.5422C54.4529 29.5422 48.7289 24.8902 46.7127 33.6827C46.7127 33.6827 45.2374 38.3053 49.8894 40.528" stroke="black" stroke-width="1.77694" stroke-linecap="round" stroke-linejoin="round"/>
<path d="M60.4918 29.5422C60.4918 29.5422 57.079 25.7753 54.394 29.5422C51.7091 33.309 50.8337 38.3151 53.8334 39.3281" stroke="black" stroke-width="1.94201" stroke-linecap="round" stroke-linejoin="round"/>
<path d="M55.7257 192.418L39.2602 191.041C37.8799 190.926 36.6674 191.951 36.552 193.332C36.4366 194.712 37.462 195.924 38.8422 196.04L55.3078 197.417C56.6881 197.532 57.9006 196.507 58.016 195.126C58.1314 193.746 57.106 192.534 55.7257 192.418Z" fill="#25F3CF"/>
<path d="M94.5891 192.017L78.0767 191.426C76.6924 191.376 75.5301 192.458 75.4806 193.842C75.4311 195.227 76.513 196.389 77.8972 196.438L94.4096 197.029C95.7939 197.079 96.9562 195.997 97.0057 194.613C97.0553 193.229 95.9733 192.066 94.5891 192.017Z" fill="#25F3CF"/>
<path d="M119.346 34.6763C119.346 34.6763 113.858 29.739 111.399 38.4136C111.399 38.4136 109.697 42.9574 114.221 45.4162" stroke="black" stroke-width="1.77694" stroke-linecap="round" stroke-linejoin="round"/>
<path d="M125.373 34.9809C125.373 34.9809 122.157 31.037 119.285 34.6662C116.414 38.2954 115.283 43.2424 118.233 44.4128" stroke="black" stroke-width="1.94201" stroke-linecap="round" stroke-linejoin="round"/>
<path d="M117.182 51.7894C119.523 42.3477 126.368 44.2754 126.368 44.2754C127.892 41.5708 132.259 41.4232 132.259 41.4232C135.76 41.7871 136.518 43.2427 136.409 44.6C136.301 45.9572 135.269 47.1768 133.951 47.6882C126.279 50.7174 125.502 58.497 125.502 58.497C126.407 65.2144 121.401 65.3816 121.401 65.3816C112.097 59.7657 102.714 63.1785 102.714 63.1785C102.714 63.1785 98.6328 57.5036 106.255 55.3006C106.255 55.3006 100.846 50.4814 106.924 42.1707C106.924 42.1707 103.009 38.9644 109.51 29.926C110.199 28.972 111.182 28.2147 112.323 27.9196C114.005 27.4869 115.736 28.1753 113.012 34.8829" stroke="black" stroke-width="1.94201" stroke-linecap="round" stroke-linejoin="round"/>
<path d="M48.3555 190.553C44.8247 190.238 43.6937 191.458 43.4871 192.825C43.0839 195.5 45.5624 197.89 48.1982 197.29C49.0538 197.093 50.0275 196.641 51.1094 195.766" stroke="black" stroke-width="1.94201" stroke-linecap="round" stroke-linejoin="round"/>
<path d="M56.6752 190.937C49.2595 189.658 52.0625 196.12 52.0625 196.12C52.0625 196.12 54.3836 199.473 58.9864 196.366L64.0121 194.231C64.9071 191.635 63.0876 190.396 62.5467 188.655C60.7469 182.911 57.8357 177.148 57.8357 177.148" stroke="black" stroke-width="1.94201" stroke-linecap="round" stroke-linejoin="round"/>
<path d="M41.2739 187.475C35.8548 188.478 35.2056 190.76 35.7564 192.648C36.4449 195.048 38.8741 196.493 41.3624 196.287C42.0705 196.228 42.8869 196.09 43.8212 195.834" stroke="black" stroke-width="1.94201" stroke-linecap="round" stroke-linejoin="round"/>
<path d="M86.7908 190.169C83.2502 190.336 82.2962 191.694 82.2765 193.08C82.2372 195.785 85.0205 197.821 87.5481 196.867C88.3645 196.562 89.2693 195.972 90.2233 194.969" stroke="black" stroke-width="1.94201" stroke-linecap="round" stroke-linejoin="round"/>
<path d="M95.4061 191.202C87.9904 189.923 90.7934 196.385 90.7934 196.385C90.7934 196.385 93.1145 199.739 97.7174 196.631L101.897 192.933C104.445 189.087 99.8122 185.114 99.8122 185.114C99.8122 185.114 93.98 179.557 95.1799 173.548C95.1799 173.548 111.378 160.221 113.414 135.043C113.414 135.043 116.601 118.638 108.821 105.676C108.821 105.676 112.804 77.2128 121.243 65.6467" stroke="black" stroke-width="1.94201" stroke-linecap="round" stroke-linejoin="round"/>
<path d="M79.7785 188.183C74.4086 189.422 73.8578 191.723 74.4873 193.592C75.2839 195.962 77.7722 197.3 80.2506 196.985C80.9588 196.897 81.7652 196.719 82.6897 196.424" stroke="black" stroke-width="1.94201" stroke-linecap="round" stroke-linejoin="round"/>
<path d="M53.489 174.935C53.489 174.935 58.0722 179.105 71.9594 177.158C71.9594 177.158 73.7198 184.917 77.1425 187.75" stroke="black" stroke-width="1.94201" stroke-linecap="round" stroke-linejoin="round"/>
<path d="M33.0322 167.598C33.0322 167.598 35.8844 178.348 42.7985 189.097" stroke="black" stroke-width="1.94201" stroke-linecap="round" stroke-linejoin="round"/>
<path d="M39.1889 170.774C39.1889 170.774 6.70352 158.825 14.4733 121.619C14.4733 121.619 20.0301 83.8517 61.9572 80.793C61.9572 80.793 79.6112 79.2587 90.6069 90.1855" stroke="black" stroke-width="1.94201" stroke-linecap="round" stroke-linejoin="round"/>
</g>
<defs>
<filter id="filter0_d_703_33915" x="-4" y="0" width="158" height="226.877" filterUnits="userSpaceOnUse" color-interpolation-filters="sRGB">
<feFlood flood-opacity="0" result="BackgroundImageFix"/>
<feColorMatrix in="SourceAlpha" type="matrix" values="0 0 0 0 0 0 0 0 0 0 0 0 0 0 0 0 0 0 127 0" result="hardAlpha"/>
<feOffset dy="4"/>
<feGaussianBlur stdDeviation="2"/>
<feComposite in2="hardAlpha" operator="out"/>
<feColorMatrix type="matrix" values="0 0 0 0 0 0 0 0 0 0 0 0 0 0 0 0 0 0 0.25 0"/>
<feBlend mode="normal" in2="BackgroundImageFix" result="effect1_dropShadow_703_33915"/>
<feBlend mode="normal" in="SourceGraphic" in2="effect1_dropShadow_703_33915" result="shape"/>
</filter>
</defs>
</svg>
