<?xml version="1.0" encoding="utf-8"?>
<!-- Generator: Adobe Illustrator 27.2.0, SVG Export Plug-In . SVG Version: 6.00 Build 0)  -->
<svg version="1.1" id="레이어_1" xmlns="http://www.w3.org/2000/svg" xmlns:xlink="http://www.w3.org/1999/xlink" x="0px"
	 y="0px" viewBox="0 0 37 36" style="enable-background:new 0 0 37 36;" xml:space="preserve">
<style type="text/css">
	.st0{fill:#25F3CF;}
	.st1{fill:none;stroke:#121212;stroke-width:0.5106;}
	.st2{fill:url(#SVGID_1_);}
	.st3{fill:#121212;}
	.st4{fill:#6201FF;stroke:#000000;stroke-width:0.5106;stroke-linecap:round;stroke-linejoin:round;}
	.st5{fill:#FFFFFF;}
	.st6{fill:none;stroke:#121212;stroke-width:0.5106;stroke-linecap:round;stroke-linejoin:round;}
</style>
<g>
	<g>
		<path class="st0" d="M6.6,2h23.8c2.3,0,4.1,1.8,4.1,4.1v23.8c0,2.3-1.8,4.1-4.1,4.1H6.6c-2.3,0-4.1-1.8-4.1-4.1V6.1
			C2.5,3.8,4.3,2,6.6,2z"/>
		<path class="st1" d="M6.6,2.3h23.8c2.1,0,3.8,1.7,3.8,3.8v23.8c0,2.1-1.7,3.8-3.8,3.8H6.6c-2.1,0-3.8-1.7-3.8-3.8V6.1
			C2.8,4,4.5,2.3,6.6,2.3z"/>
	</g>
	
		<linearGradient id="SVGID_1_" gradientUnits="userSpaceOnUse" x1="16.1012" y1="18.8148" x2="22.0076" y2="3.2233" gradientTransform="matrix(1 0 0 -1 0 35.89)">
		<stop  offset="0" style="stop-color:#11CFAE;stop-opacity:0.5"/>
		<stop  offset="1" style="stop-color:#11CFAE;stop-opacity:0"/>
	</linearGradient>
	<path class="st2" d="M33.6,24.3c0,4.6-3.7,8.3-8.3,8.3S5.2,35.5,5.2,30.9s15.5-15,20.1-15C33.6,14.9,33.6,19.7,33.6,24.3z"/>
	<path class="st3" d="M10.7,14.1c0,0,1.3,1,1.4,1.9c0.1,0.8,2,1.1,2,1.1s-1-2-2.5-2.9C11.3,14.1,11,14.2,10.7,14.1L10.7,14.1z"/>
	<path class="st3" d="M10.8,17.1c0,0,0.9-2.4,2.7-3.2l0.5,0.4c0,0-1.9,2-2.5,3L10.8,17.1L10.8,17.1z"/>
	<path class="st3" d="M23.2,14.1c0,0,1.3,1,1.4,1.9c0.1,0.8,2,1.1,2,1.1s-1-2-2.5-2.9C23.8,14.1,23.5,14.2,23.2,14.1L23.2,14.1z"/>
	<path class="st3" d="M23.3,17.1c0,0,0.9-2.4,2.7-3.2l0.5,0.4c0,0-1.9,2-2.5,3L23.3,17.1L23.3,17.1z"/>
	<path class="st4" d="M16.8,18.3c0,0-1.2-1.1-2,0c-0.2,0.3-0.3,0.6-0.3,0.9c0,0.9,0,3.2,1.1,3.5c0,0,0.6,0.4,1.5-0.2
		c0,0,1.6,1.2,2.4-0.1c0,0,2.3,1.3,3.2-0.9V18c0,0-0.3-1.1-1.5-0.3c0,0-0.9-1.4-2.2,0C19,17.6,17.4,16.7,16.8,18.3L16.8,18.3z"/>
	<path class="st5" d="M22.5,19.6c-6.8-1.4-6.4,3-6.4,3l1.1-0.1l1.5,0.6l0.9-0.7l1.8,0.4l1.4-1.3L22.5,19.6L22.5,19.6z"/>
	<path class="st6" d="M16.8,18.3c0,0-1.2-1.1-2,0c-0.2,0.3-0.3,0.6-0.3,0.9c0,0.9,0,3.2,1.1,3.5c0,0,0.6,0.4,1.5-0.2
		c0,0,1.6,1.2,2.4-0.1c0,0,2.3,1.3,3.2-0.9V18c0,0-0.3-1.1-1.5-0.3c0,0-0.9-1.4-2.2,0C19,17.6,17.4,16.7,16.8,18.3L16.8,18.3z"/>
</g>
</svg>
